<?xml version="1.0" encoding="utf-8"?>
<!-- Generator: Adobe Illustrator 21.1.0, SVG Export Plug-In . SVG Version: 6.00 Build 0)  -->
<svg version="1.1" id="Camada_1" xmlns="http://www.w3.org/2000/svg" xmlns:xlink="http://www.w3.org/1999/xlink" x="0px" y="0px"
	 viewBox="0 0 168 624" style="enable-background:new 0 0 168 624;" xml:space="preserve">
<style type="text/css">
	.st0{fill:#009DFF;}
	.st1{fill:#09519F;}
	.st2{fill:#F9C236;}
	.st3{fill:#042F70;}
	.st4{fill:#FFFFFF;}
	.st5{fill:#FFBA00;}
</style>
<title>editar_tema</title>
<g id="Camada_4">
	<path class="st0" d="M107.6,135.2c4.6-2.9,9.1-6,13.5-9.1c-2.3,2.2-4.8,4.3-7.5,6.1L107.6,135.2z M71.4,20
		c-6.8,5.8-14.7,10.4-22.3,14.8l-3.3,1.9C54.3,31.1,62.8,25.5,71.4,20z M56.5,19.8c-4,3-8.3,5.8-12.5,8.4c2-1.5,4-2.9,6.1-4.2
		C52.1,22.5,54.3,21.1,56.5,19.8z M101.4,32.6c2.3-1.9,4.6-3.7,7-5.4C106.2,29.1,103.8,31,101.4,32.6z M131.9,107.6
		c-1.3,1-2.6,2-4,2.9C129.2,109.6,130.5,108.6,131.9,107.6z M103.9,121.3c-6.7,5.4-13.8,11.2-21.6,15.1
		C89,130.8,96.2,125.7,103.9,121.3z M129.2,98.3c-4.3,3-8.8,5.7-13.4,8.3c4.9-3.6,9.9-7.1,15.1-10.2l4.5-2.7
		C133.3,95.4,131.2,97,129.2,98.3z M64.3,133.3l10.4-7.4c-3.2,3.1-6.8,5.8-10.6,8.2C64.2,134,64.2,133.6,64.3,133.3L64.3,133.3z
		 M97,102.3c-4.2,3-8.5,5.9-12.9,8.6c-2.3,1.4-4.6,2.7-6.9,4.1c7.6-5.7,15.2-11.3,23.1-16.6c4.3-2.9,8.8-5.6,13.2-8.3
		c-4.3,3.1-8.5,6.3-12.8,9.5L97,102.3z M157.2,51.1c-2-0.2-4,0.1-5.9,0.9l0.3-0.3c1.5-1.4-0.4-2.5-1.6-2.6c-2.9-0.3-5.8,0.5-8.1,2.2
		l-1.3,0.9c1.9-1.5,3.8-2.9,5.7-4.4c1.1-0.9,1.9-2.5,0.1-3.1c-1.4-0.4-3-0.5-4.4-0.1c0.5-0.5,1.1-1,1.6-1.5c1-0.9,2-2.4,0.1-3.1
		c-2.5-0.9-5.7,0.1-8,1.3c-3.3,1.7-6.6,3.5-9.8,5.3c3.8-3.2,7.3-6.6,10.6-10.2c1.3-1.5-0.3-2.5-1.6-2.6c-0.8-0.1-1.7-0.1-2.5,0
		c4.1-3.3,7.9-6.9,11.4-10.7c1.3-1.5-0.3-2.5-1.6-2.6c-2.9-0.3-5.8,0.5-8.1,2.2c-10.6,9.1-21.7,17.6-33.3,25.4
		c-2.7,1.7-5.3,3.4-8,5.1C106.1,44,119,34,130,21.9c1.3-1.5-0.3-2.5-1.6-2.6c-1.1-0.1-2.1-0.1-3.2,0.1c0.5-0.7,0.9-1.4,1.3-2.2
		c1.2-2.2-4-2-4.8-1.8c-0.5,0.1-1,0.2-1.5,0.4c0.6-0.6,1.3-1.2,1.9-1.8c1.4-1.4-0.4-2.5-1.6-2.6c-2.9-0.3-5.8,0.5-8.1,2.2
		c-5.6,4-11.1,8-16.7,12c-1.5,0.9-3,1.7-4.5,2.5c-9.4,5.3-18.4,11.2-27.6,16.8l-3.1,1.8l0.3-0.2C79.9,34.1,100,23.2,117.4,8.7
		c1.7-1.4,1.4-3.1-0.9-3.4c-2.9-0.3-5.8,0.5-8.1,2.2c-3.3,2.5-6.8,4.9-10.4,7c2.3-1.7,4.7-3.4,6.9-5.2c1.8-1.4,1.4-3.1-0.9-3.4
		c-2.9-0.2-5.7,0.5-8.1,2.2l-7.8,5.7c1.9-2.1,3.5-4.3,5-6.6c1-1.6-0.1-2.4-1.7-2.6c-2.4-0.2-4.9,0.3-7,1.5C81.7,7.5,79,9,76.3,10.5
		c0.3-0.4,0.7-0.8,1-1.2C80.2,5.6,71,7.2,70,7.6c-9.7,3.6-19,8.4-27.5,14.2c-8.8,5.7-17,12.2-24.4,19.6c-1.5,1.5,0.1,2.2,1.6,2.5
		c-3.4,2.6-6.5,5.6-9.4,8.8c-1.4,1.5,0.2,2.5,1.6,2.6c2.4,0.3,4.9-0.3,7-1.5c0.6-0.3,1.1-0.7,1.7-1c-3.2,2.4-6.2,5-9,7.9
		c-1.4,1.4,0.4,2.5,1.6,2.6c2.4,0.2,4.8-0.4,7-1.5c1.1-0.5,2.2-1.1,3.3-1.6c-4.3,3.7-8.6,7.7-12.6,11.8c-1.4,1.4,0.4,2.5,1.6,2.6
		c0.7,0.1,1.3,0.1,2,0c-1.5,1.5-2.9,3.1-4.3,4.7s0.3,2.5,1.6,2.6c1,0.1,2.1,0.1,3.1-0.1c-1.3,0.9-2.7,1.8-4,2.8
		C9,86,9.6,87.7,11.8,87.9c2.9,0.3,5.8-0.5,8.1-2.2l4-2.8c11.9-8,24.7-14.7,37.2-21.7c-4.6,3.6-9.3,7.2-14,10.6
		c-4.4,2.3-8.9,4.5-13.4,6.6c-7,3.3-16.8,7.1-19.9,14.9c-1.1,2.8,5.4,1.7,6.3,1.5c2.1-0.5,4.1-1.2,6-2.1c-2.6,1.9-5.2,3.9-7.8,5.8
		c-1.2,0.8-1.9,2.5-0.1,3.1c2.5,0.9,5.8-0.1,8-1.3l0.1-0.1c-2.7,2.5-5.2,5.3-7.4,8.3c-1.1,1.5,0.1,2.4,1.7,2.6
		c2.4,0.2,4.9-0.3,7-1.5c0.9-0.5,1.9-1,2.8-1.5c-2.3,2.1-4.6,4.2-6.9,6.4c-1.4,1.4,0.4,2.5,1.7,2.6c1.8,0.2,3.6-0.1,5.3-0.8
		c-2.1,2.5-3.5,5.6-4.1,8.8c-0.5,2.9,4.9,1.9,6.3,1.5c3.2-0.9,6.3-2,9.2-3.5c-1.8,1.9-3.5,3.9-5.2,6c-1.2,1.5,0.2,2.5,1.7,2.6
		c1.2,0.1,2.5,0.1,3.7-0.2c-0.5,0.5-1,1-1.4,1.6c-1.3,1.5,0.3,2.5,1.7,2.6c2.4,0.3,4.9-0.3,7-1.5l0.5-0.3c-1.1,1-2.2,2.1-3.3,3.2
		c-1.4,1.4,0.4,2.5,1.7,2.6c1.3,0.1,2.7,0,4-0.3c0.2,0,0.5-0.1,0.8-0.1l0.3,1.2c0.7,2.1,4.9,1.2,6.3,0.8l0.7-0.2
		c-1.2,1.5,0.2,2.4,1.7,2.6c0.8,0.1,1.7,0.1,2.5,0c-1,1.9,3.8,2.1,4.8,1.9c2.2-0.4,4.4-1,6.5-1.6c-0.6,0.3-1.2,0.7-1.8,1
		c-0.9,0.5-3.3,2.1-1.9,3.4s4.3,0.7,5.9,0.2s2.9-0.8,4.3-1.3c-0.8,0.7-1.3,1.6-0.5,2.4c1.8,1.6,5.5,0.5,7.4-0.3
		c10.6-4.1,21-8.4,30.3-14.4c1.8-0.9,3.6-1.9,5.4-2.9c11.1-6.2,22.6-14.7,26.8-27.4c0.7-2-1.9-2.1-4.5-1.7c2-2.1,3.8-4.4,5.4-6.9
		c1.1-1.9-0.1-2.5-1.9-2.5c2.7-2.7,4.8-6,6.2-9.5c0.4-1.1-0.7-1.6-1.6-1.8c0.7-1.3,1.2-2.7,1.6-4.2c0.6-2.3-3.6-2-4.8-1.8
		c-0.8,0.1-1.6,0.3-2.4,0.5c1.6-1.7,3.2-3.4,4.7-5.2c1.2-1.5-0.2-2.4-1.6-2.6c-0.5-0.1-0.9-0.1-1.4-0.1c1.9-2,3.5-4.3,4.8-6.7
		c1.3-2.3-3.8-1.8-6.4-1.3c2.9-2,5.7-4.2,8.5-6.5C159.8,53,159.6,51.5,157.2,51.1L157.2,51.1z"/>
	<path class="st1" d="M14.3,77.8c0-15.3,6.1-31.1,16.6-43.2c10.9-12.4,25.3-20,40.6-21.3c1.2-0.1,2.4-1,2.3-1.8c0-0.3-0.2-1-1.8-0.8
		c-12.2,1.1-23.9,5.6-33.7,13c1.5-1.2,3.1-2.4,4.7-3.5C54.5,12.5,68.1,8.5,82,8.6c9.5,0,18.9,1.8,27.6,5.5
		c17.3,7.4,30.6,21.9,37.4,41c2.8,10.1,3.6,20.7,2.4,31.1c-1.9,16.1-8.4,30.2-19,40.7c-12.2,11.9-28,19.3-44.8,21.1
		c-4.3,0.5-8.5,0.5-12.8,0.1c-2.9-0.6-5.7-1.4-8.4-2.4C35.8,135.1,14.3,106.1,14.3,77.8z M38,134.2c-3.7-2.9-7-6.2-9.9-9.8
		C31.1,128,34.4,131.3,38,134.2z M92.8,149.1c2.8-0.6,5.6-1.3,8.3-2.1c14.2-4.4,26.9-12.5,36.8-23.6c-6.8,8.9-15.8,16-26,20.6
		C105.9,146.8,99.4,148.6,92.8,149.1L92.8,149.1z M117.5,8.6l-0.8-0.5c-0.2-0.1-0.5-0.2-0.8-0.2c-1.1,0-2.9,0.7-3.1,1.5
		c-0.1,0.4,0.1,0.8,0.5,0.9c3.3,1.9,6.4,4,9.3,6.4C110.4,9.2,96.2,5.4,81.8,5.8C59.2,6.3,38.6,16,25.3,32.3
		C13.6,46.5,7.6,66.2,9,86.2c1.3,19.8,10.3,38,24.5,49.7c10.2,8.4,23.1,13.5,37.5,14.6c4.8,1,9.7,1.5,14.6,1.5
		c13,0,25.8-3.6,36.8-10.5c18.7-11.4,31-30.8,33.5-52.6c1.4-11.9-0.1-24-4.3-35.3C146.2,34.3,134.1,18.4,117.5,8.6L117.5,8.6z"/>
	<path class="st2" d="M58.3,80.8L58.3,80.8c0,0.1-0.1,0.1-0.1,0.2C58.2,80.8,58.3,80.8,58.3,80.8z"/>
	<path class="st2" d="M129.5,95.8V96h-0.2C129.4,96.1,129.4,96,129.5,95.8z"/>
	<path class="st0" d="M107.6,291.2c4.6-2.9,9.1-6,13.5-9.1c-2.3,2.2-4.8,4.3-7.5,6.1C111.6,289.3,109.6,290.3,107.6,291.2z
		 M65.1,180.1c-6.8,5.8-8.3,6.3-15.9,10.8l-3.3,1.9C54.3,187.2,56.4,185.5,65.1,180.1z M56.5,175.8c-4,3-8.2,5.8-12.5,8.4
		c2-1.5,4-2.9,6-4.2C52.1,178.5,54.3,177.2,56.5,175.8z M93.2,194.6c2.3-1.9,19.5-16.1,21.8-17.8C110.9,182.6,95.7,192.9,93.2,194.6
		z M131.9,263.6c-1.3,1-2.6,2-4,2.9C129.2,265.5,130.5,264.5,131.9,263.6z M113.1,270.8c-6.7,5.4-23,17.8-30.8,21.7
		C89,286.8,105.5,275.3,113.1,270.8L113.1,270.8z M129.2,254.4c-4.3,3-8.8,5.7-13.4,8.4c4.9-3.6,9.9-7.1,15.1-10.2l4.5-2.7
		C133.3,251.5,131.2,253,129.2,254.4L129.2,254.4z M64.3,289.4l10.4-7.4c-3.2,3.1-6.8,5.8-10.6,8.2C64.2,290,64.3,289.7,64.3,289.4
		L64.3,289.4z M97,258.3c-4.2,3-8.5,5.9-12.9,8.6c-2.3,1.4-4.6,2.7-6.9,4.1c7.6-5.6,15.2-11.3,23.1-16.6c4.3-2.9,8.8-5.6,13.2-8.3
		c-4.3,3.1-8.5,6.3-12.8,9.5L97,258.3z M157.3,207.2c-2-0.2-4,0.1-5.9,0.9l0.3-0.3c1.5-1.4-0.4-2.5-1.6-2.6
		c-2.9-0.3-5.8,0.5-8.1,2.2l-1.3,0.9c1.9-1.5,3.8-2.9,5.7-4.4c1.1-0.9,1.9-2.4,0.1-3.1c-1.4-0.4-3-0.5-4.4-0.1
		c0.5-0.5,1.1-1,1.6-1.5c1-0.9,2-2.4,0.1-3.1c-2.5-0.9-5.7,0.1-8,1.3c-3.3,1.7-6.6,3.5-9.8,5.3c3.8-3.2,7.3-6.6,10.6-10.2
		c1.3-1.5-0.3-2.5-1.6-2.6c-0.8-0.1-1.7-0.1-2.5,0c4.1-3.3,7.9-6.9,11.4-10.7c1.3-1.5-0.3-2.4-1.6-2.6c-2.9-0.3-5.8,0.5-8.1,2.2
		c-10.6,9.1-21.7,17.6-33.3,25.4c-2.7,1.7-5.3,3.4-8,5.1c13.3-9.3,26.2-19.3,37.2-31.4c1.3-1.4-0.3-2.5-1.6-2.6
		c-1.1-0.1-2.1-0.1-3.2,0.1c0.5-0.7,0.9-1.4,1.3-2.2c1.2-2.2-4-2-4.8-1.8c-0.5,0.1-1,0.2-1.5,0.4c0.7-0.6,1.3-1.2,1.9-1.8
		c1.4-1.4-0.4-2.5-1.6-2.6c-2.9-0.2-5.7,0.6-8.1,2.2c-5.6,4-11.1,8-16.7,12c-1.5,0.9-3,1.7-4.5,2.5c-9.4,5.3-18.4,11.2-27.6,16.8
		l-3.1,1.9l0.3-0.2c19.1-12.3,39.2-23.2,56.6-37.7c1.7-1.5,1.4-3.1-0.9-3.4c-2.9-0.3-5.8,0.5-8.1,2.2c-3.3,2.5-6.8,4.9-10.4,7
		c2.3-1.7,4.7-3.4,6.9-5.2c1.8-1.4,1.4-3.1-0.9-3.4c-2.9-0.3-5.8,0.5-8.1,2.2l-7.8,5.7c1.9-2.1,3.5-4.3,5-6.6c1-1.5-0.1-2.4-1.7-2.6
		c-2.4-0.2-4.9,0.3-7,1.5c-2.7,1.4-5.4,2.9-8.1,4.4c0.3-0.4,0.7-0.8,1-1.2c2.9-3.7-6.3-2.1-7.3-1.7c-9.7,3.4-18.9,8.6-27.5,14.2
		c-8.9,5.5-17.1,12-24.5,19.4c-1.5,1.4,0.1,2.2,1.6,2.5c-3.4,2.6-6.6,5.6-9.4,8.8c-1.3,1.5,0.3,2.5,1.6,2.6c2.4,0.3,4.9-0.3,7-1.5
		c0.6-0.3,1.1-0.7,1.7-1c-3.2,2.4-6.2,5.1-9,7.9c-1.4,1.4,0.4,2.5,1.7,2.6c2.4,0.2,4.8-0.4,7-1.5c1.1-0.5,2.2-1.1,3.3-1.6
		c-4.3,3.7-8.6,7.7-12.6,11.8c-1.4,1.4,0.4,2.5,1.6,2.6c0.7,0.1,1.3,0.1,2,0c-1.5,1.5-2.9,3.1-4.3,4.7s0.3,2.5,1.6,2.6
		c1,0.1,2.1,0.1,3.1-0.1c-1.3,0.9-2.7,1.8-4,2.8c-1.9,1.4-1.3,3.1,0.9,3.4c2.9,0.3,5.8-0.5,8.1-2.2l4-2.8
		c11.9-8,24.7-14.7,37.2-21.7c-4.6,3.6-14.6,8.7-19.4,12.1c-4.4,2.3-3.6,3-8.1,5.1c-7,3.3-16.8,7.1-19.9,14.9
		c-1.1,2.8,5.4,1.7,6.3,1.5c2-0.5,4-1.2,6-2c-2.6,1.9-5.2,3.9-7.8,5.8c-1.2,0.8-1.9,2.5-0.1,3.1c2.5,0.9,5.8-0.1,8-1.3l0.1-0.1
		c-2.7,2.5-5.2,5.3-7.4,8.3c-1.1,1.5,0.1,2.4,1.6,2.6c2.4,0.2,4.9-0.3,7-1.5c0.9-0.5,1.9-1,2.8-1.5c-2.4,2.1-4.7,4.2-6.9,6.4
		c-1.4,1.4,0.4,2.5,1.6,2.6c1.8,0.2,3.7-0.1,5.4-0.8c-2.1,2.5-3.6,5.6-4.2,8.8c-0.5,2.9,4.9,1.9,6.3,1.5c3.2-0.8,2.7,2.8,17.3-18
		c-1.8,1.9-11.6,18.4-13.3,20.5c-1.2,1.5,0.2,2.5,1.7,2.6c1.2,0.1,2.5,0.1,3.7-0.2c-0.5,0.5-1,1-1.4,1.6c-1.3,1.5,0.3,2.5,1.7,2.6
		c2.4,0.3,4.9-0.3,7-1.5l0.5-0.3c-1.1,1-2.2,2.1-3.3,3.2c-1.4,1.4,0.4,2.5,1.7,2.6c1.3,0.1,2.7,0,4-0.3c0.2,0,0.5-0.1,0.8-0.1
		l0.3,1.2c0.7,2.1,4.9,1.2,6.3,0.8l0.7-0.2c-1.2,1.5,0.2,2.4,1.7,2.6c0.8,0.1,1.7,0.1,2.5,0c-1,1.9,3.8,2.1,4.8,1.9
		c2.2-0.4,4.4-1,6.5-1.6c-0.6,0.3-1.2,0.7-1.8,1c-0.9,0.5-3.3,2.1-1.9,3.4s4.3,0.7,5.9,0.2s2.9-0.8,4.3-1.3
		c-0.8,0.7-1.3,1.6-0.5,2.4c1.8,1.6,5.5,0.5,7.4-0.3c10.6-4.1,21-8.5,30.3-14.4c1.8-0.9,3.6-1.9,5.4-2.9
		c11.1-6.2,22.6-14.7,26.8-27.4c0.7-2-1.9-2.1-4.5-1.7c2-2.1,3.8-4.4,5.4-6.9c1.1-1.9-0.1-2.5-1.9-2.5c2.7-2.7,4.8-6,6.2-9.5
		c0.4-1.1-0.7-1.6-1.6-1.8c0.7-1.3,1.2-2.7,1.6-4.2c0.6-2.3-3.6-2-4.8-1.8c-0.8,0.1-1.6,0.3-2.4,0.5c1.6-1.7,3.2-3.4,4.7-5.2
		c1.2-1.5-0.2-2.4-1.6-2.6c-0.5-0.1-0.9-0.1-1.4-0.1c1.9-2,3.5-4.3,4.8-6.7c1.3-2.3-3.8-1.8-6.4-1.3c2.9-2,5.8-4.3,8.5-6.6
		C159.8,209.1,159.6,207.5,157.3,207.2L157.3,207.2z"/>
	<path class="st1" d="M14.3,233.8c0-15.3,6.1-31.1,16.6-43.2c10.9-12.5,25.3-18.1,40.6-19.4c1.2-0.1,2.4-3,2.3-3.8
		c0-0.3-0.2-1-1.8-0.8c-12.2,1.1-23.9,5.6-33.7,13c1.5-1.2,3.1-2.4,4.7-3.5c11.6-7.7,25.1-11.7,39-11.6c9.5,0,18.9,1.8,27.6,5.5
		c17.3,7.4,30.6,21.9,37.4,41c2.8,10.1,3.6,20.7,2.4,31.1c-1.9,16.1-8.4,30.2-19,40.7c-12.2,11.8-27.9,19.3-44.8,21.1
		c-4.3,0.5-8.5,0.5-12.8,0.1c-2.9-0.6-5.7-1.4-8.4-2.4C35.8,291.2,14.3,262.1,14.3,233.8z M38,290.2c-3.7-2.9-7-6.2-9.9-9.8
		C31.1,284,34.4,287.2,38,290.2z M92.8,305.2c2.8-0.6,5.6-1.3,8.3-2.1c14.2-4.4,26.9-12.5,36.8-23.6c-6.8,8.9-15.8,16-26,20.6
		C105.8,302.8,99.4,304.6,92.8,305.2L92.8,305.2z M117.5,164.6l-0.8-0.5c-0.2-0.1-0.5-0.2-0.8-0.2c-1.1,0-2.9,0.7-3.1,1.5
		c-0.1,0.4,0.1,0.8,0.5,0.9c3.3,1.9,6.4,4,9.3,6.4c-11.8-7.4-26.2-12.3-40.8-11.9c-22.6,0.6-44.2,11.3-57.6,27.6
		C12.6,202.6,7.6,222.2,9,242.1s10.3,38,24.5,49.7c10.2,8.4,23.1,13.5,37.5,14.6c4.8,1,9.7,1.5,14.6,1.5c13,0,25.8-3.6,36.8-10.5
		c18.7-11.4,31-30.8,33.5-52.6c1.4-11.9-0.1-24-4.3-35.3C146.4,190.7,134.2,174.6,117.5,164.6L117.5,164.6z"/>
	<path class="st2" d="M35.2,215.3L35.2,215.3C35.1,215.3,35.1,215.2,35.2,215.3C35.1,215.2,35.2,215.2,35.2,215.3z"/>
	<path class="st2" d="M58.4,236.8L58.4,236.8c0,0.1-0.1,0.1-0.1,0.2C58.3,236.9,58.3,236.8,58.4,236.8z"/>
	<path class="st2" d="M129.5,251.9v0.2h-0.2C129.4,252,129.4,251.9,129.5,251.9z"/>
	<path class="st0" d="M107.6,447.2c4.6-2.9,9.1-6,13.5-9.1c-2.3,2.2-4.8,4.3-7.5,6.1C111.6,445.3,109.6,446.3,107.6,447.2z
		 M82.5,324c-6.8,5.8-25.8,18.5-33.4,22.9l-3.3,1.9C54.3,343.2,73.9,329.4,82.5,324z M61.2,328.8c-4,3-21.8,16.6-26.1,19.2
		c2-1.5,12.8-10.7,14.9-12C52.1,334.5,59,330.1,61.2,328.8L61.2,328.8z M99.3,346.4c2.3-1.9,13.4-11.9,15.8-13.6
		C110.9,338.6,101.7,344.7,99.3,346.4L99.3,346.4z M131.9,419.6c-1.3,1-2.6,2-4,2.9C129.2,421.5,130.5,420.6,131.9,419.6
		L131.9,419.6z M113,426.8c-6.7,5.4-23,17.8-30.8,21.7C92,440.7,102.3,433.4,113,426.8L113,426.8z M64.3,445.4l10.4-7.4
		c-3.2,3.1-6.8,5.8-10.6,8.2C64.2,446,64.3,445.7,64.3,445.4L64.3,445.4z M97,414.3c-4.2,3-8.5,5.9-12.9,8.6
		c-2.3,1.4-4.6,2.7-6.9,4.1c7.6-5.6,15.2-11.3,23.1-16.6c4.3-2.9,8.8-5.6,13.2-8.3c-4.3,3.1-8.5,6.3-12.8,9.5L97,414.3z
		 M157.3,363.2c-2-0.2-4,0.1-5.9,0.9l0.3-0.3c1.5-1.4-0.4-2.5-1.6-2.6c-2.9-0.3-5.8,0.5-8.1,2.2l-1.3,0.9c1.9-1.5,3.8-2.9,5.7-4.4
		c1.1-0.9,1.9-2.5,0.1-3.1c-1.4-0.4-3-0.5-4.4-0.1c0.5-0.5,1.1-1,1.6-1.5c1-0.9,2-2.4,0.1-3.1c-2.5-0.9-5.7,0.1-8,1.3
		c-3.3,1.7-6.6,3.5-9.8,5.3c3.8-3.2,7.3-6.6,10.6-10.2c1.3-1.5-0.3-2.5-1.6-2.6c-0.8-0.1-1.7-0.1-2.5,0c4.1-3.3,7.9-6.9,11.4-10.7
		c1.3-1.5-0.3-2.5-1.6-2.6c-2.9-0.3-5.8,0.5-8.1,2.2c-10.6,9.1-21.7,17.6-33.3,25.4c-2.7,1.7-5.3,3.4-8,5.1
		c13.3-9.3,26.2-19.3,37.2-31.4c1.3-1.5-0.3-2.5-1.6-2.6c-1.1-0.1-2.1-0.1-3.2,0.1c0.5-0.7,0.9-1.4,1.3-2.2c1.2-2.2-4-2-4.8-1.8
		c-0.5,0.1-1,0.2-1.5,0.4c0.6-0.6,1.3-1.2,1.9-1.8c1.4-1.4-0.4-2.5-1.6-2.6c-2.9-0.3-5.8,0.5-8.1,2.2c-5.6,4-11.1,8-16.7,12
		c-1.5,0.9-3.3,2.3-4.8,3.1c-9.4,5.3-18.1,10.6-27.3,16.2l-3.1,1.8l0.3-0.2c19.1-12.3,39.2-23.2,56.6-37.7c1.7-1.4,1.4-3-0.9-3.4
		c-2.9-0.3-5.8,0.5-8.1,2.2c-3.3,2.6-2.5,0.9-6.1,3.1c2.3-1.7,0.3,0.5,2.6-1.3c1.8-1.4,1.4-3.1-0.9-3.4c-2.9-0.3-5.8,0.5-8.1,2.2
		c-2.6,1.9-12.8,9.6-15.4,11.4c1.8-2,12.1-9.1,13.6-11.5c1-1.6-1-3.3-2.6-3.5c-2.4-0.2-4.9,0.3-7,1.5c-2.7,1.4-5.4,2.9-8.1,4.4
		c0.3-0.4,0.7-0.8,1-1.2c2.9-3.7-6.3-2.1-7.3-1.7c-9.7,3.4-18.9,8.6-27.5,14.2c-8.9,5.7-17.2,12.4-24.7,19.8
		c-1.4,1.5,0.1,2.2,1.6,2.5c-3.4,2.6-6.6,5.6-9.4,8.8c-1.3,1.5,0.3,2.5,1.6,2.6c2.4,0.2,4.9-0.3,7-1.5c0.6-0.3,1.1-0.7,1.7-1
		c-3.2,2.4-6.2,5.1-9,7.9c-1.4,1.4-3.1,7.1-1.8,7.2c2.4,0.3,8.3-5.1,10.4-6.1c1.1-0.5,2.2-1.1,3.3-1.6c-4.3,3.7-8.6,7.7-12.6,11.8
		c-1.4,1.4,0.4,2.5,1.6,2.6c0.7,0.1,1.3,0.1,2,0c-1.5,1.5-2.9,3.1-4.3,4.7s0.3,2.5,1.6,2.6c1,0.1,2.1,0.1,3.1-0.1
		c-1.3,0.9-2.7,1.8-4,2.8c-1.9,1.4-1.3,3.1,0.9,3.4c2.9,0.3,5.8-0.5,8.1-2.2l4-2.8c11.9-8,24.7-14.7,37.2-21.7
		c-4.6,3.6-14.6,8.7-19.4,12.1c-4.4,2.3-3.6,3-8.1,5.1c-7,3.3-16.8,7.1-19.9,14.9c-1.1,2.8,5.4,1.7,6.3,1.5c2-0.5,4-1.2,6-2
		c-2.6,1.9-5.2,3.9-7.8,5.8c-1.2,0.8-1.9,2.5-0.1,3.1c2.5,0.9-0.4,5.2,1.8,4.1L33.6,408c-2.7,2.5-12.7,9.9-14.9,12.9
		c-1.1,1.5,0.1,2.4,1.6,2.6c2.4,0.2,4.9-0.3,7-1.5c0.9-0.5,7.4-5.8,8.4-6.3c-2.3,2.1-11.8,9-14,11.2c-1.4,1.4,2,2.5,3.2,2.6
		c1.8,0.2,3.7-0.1,5.4-0.8c-2.1,2.5-3.6,5.6-4.2,8.8c-0.5,2.9,4.9,1.9,6.3,1.5c3.2-0.8,2.7,2.8,17.3-18
		c-1.8,1.9-11.6,18.4-13.3,20.5c-1.2,1.5,0.2,2.5,1.7,2.6c1.2,0.1,2.5,0.1,3.7-0.2c-0.5,0.5-1,1-1.4,1.6c-1.3,1.5,0.3,2.5,1.7,2.6
		c2.4,0.3,4.9-0.3,7-1.5l0.5-0.3c-1.1,1-2.2,2.1-3.3,3.2c-1.4,1.4,0.4,2.5,1.7,2.6c1.3,0.1,2.7,0,4-0.3c0.2,0,0.5-0.1,0.8-0.1
		l0.3,1.2c0.7,2.1,4.9,1.2,6.3,0.8l0.7-0.2c-1.2,1.5,0.2,2.4,1.7,2.6c0.8,0.1,1.7,0.1,2.5,0c-1,1.9,3.8,2.1,4.8,1.9
		c2.2-0.4,4.4-1,6.5-1.6c-0.6,0.3-1.2,0.7-1.8,1c-0.9,0.5-3.3,2.1-1.9,3.4s4.3,0.7,5.9,0.2s2.9-0.8,4.3-1.3
		c-0.8,0.7-1.3,1.6-0.5,2.4c1.8,1.6,5.5,0.5,7.4-0.3c10.6-4.1,21-8.5,30.3-14.4c1.8-0.9,3.6-1.9,5.4-2.9
		c11.1-6.2,22.6-14.7,26.8-27.4c0.7-2-1.9-2.1-4.5-1.7c2-2.1,3.8-4.4,5.4-6.9c1.1-1.9-0.1-2.5-1.9-2.5c2.7-2.7,4.8-6,6.2-9.5
		c0.4-1.1-0.7-1.6-1.6-1.8c0.7-1.3,1.2-2.7,1.6-4.2c0.6-2.3-3.6-2-4.8-1.8c-0.8,0.1-1.6,0.3-2.4,0.5c1.6-1.7,3.2-3.4,4.7-5.2
		c1.2-1.5-0.2-2.5-1.6-2.6c-0.5-0.1-0.9-0.1-1.4-0.1c1.9-2,3.5-4.3,4.8-6.7c1.3-2.3-3.8-1.8-6.4-1.3c2.9-2,5.7-4.2,8.5-6.5
		C159.8,365.1,159.6,363.5,157.3,363.2L157.3,363.2z"/>
	<path class="st1" d="M14.3,389.8c0-15.3,6.1-31.1,16.6-43.2c10.9-12.5,25.3-18.1,40.6-19.4c1.2-0.1,2.4-3,2.3-3.8
		c0-0.3-0.2-1-1.8-0.8c-12.2,1.1-23.9,5.6-33.7,13c1.5-1.2,3.1-2.4,4.7-3.5c11-7.5,24.9-10.6,39-10.6c9.6,0,19.1,0.9,27.6,4.5
		c17.3,7.4,31.6,19.9,38.4,39c2.8,10.1,3.6,20.7,2.4,31.1c-1.9,16.1-9.4,32.2-20,42.7c-12.2,11.8-27.9,19.3-44.8,21.1
		c-4.3,0.5-8.5,0.5-12.8,0.1c-2.9-0.6-5.7-1.4-8.4-2.4C35.8,447.2,14.3,418.1,14.3,389.8z M92.8,461.2c2.8-0.6,6.6-1.3,9.3-2.1
		c14.3-4.4,30.3-15.8,39.8-26.6c-6.7,8.8-19.8,19-30,23.6C105.8,458.8,99.4,460.5,92.8,461.2z M117.5,320.6l-0.8-0.5
		c-0.2-0.1-0.5-0.2-0.8-0.2c-1.1,0-2.9,0.7-3.1,1.5c-0.1,0.4,0.1,0.8,0.5,0.9c3.3,1.9,6.4,4,9.3,6.4c-11.8-7.4-26.2-12.3-40.8-11.9
		c-22.6,0.5-44.2,11.2-57.5,27.5C12.6,358.5,7.7,377.1,9,397.1c1.3,19.8,10.3,37,24.5,48.7c10.2,8.4,23.1,15.5,37.5,16.6
		c4.8,1,9.7,1.5,14.6,1.5c13,0,25.8-3.6,36.8-10.5c18.7-11.4,31-30.8,33.5-52.6c1.4-11.9-0.1-24-4.3-35.3
		C146.4,346.7,134.2,330.6,117.5,320.6z"/>
	<path class="st2" d="M35.2,371.3L35.2,371.3C35.1,371.2,35.1,371.3,35.2,371.3z"/>
	<path class="st2" d="M58.3,392.8L58.3,392.8c0,0.1-0.1,0.1-0.1,0.2C58.2,392.9,58.2,392.9,58.3,392.8z"/>
	<path class="st2" d="M129.5,407.9v0.2h-0.2L129.5,407.9z"/>
	<path class="st0" d="M107.3,603.2c4.6-2.9,9.1-6,13.5-9.1c-2.3,2.2-4.8,4.3-7.5,6.1C111.4,601.2,109.4,602.2,107.3,603.2z
		 M68.8,488.8c-6.2,5.3-12.8,10-19.9,14l-3.3,1.9C54,499.1,60.2,494.2,68.8,488.8z M61,484.8c-4,3-21.8,16.6-26.1,19.2
		c2-1.4,12.8-10.7,14.9-12C51.9,490.5,58.7,486.1,61,484.8L61,484.8z M99,502.3c2.3-1.9,13.4-11.9,15.8-13.6
		C110.7,494.6,101.4,500.6,99,502.3L99,502.3z M112.8,582.7c-6.7,5.4-23,17.8-30.8,21.7C88.7,598.7,105.2,587.2,112.8,582.7z
		 M96.8,570.3c-4.2,3-8.5,5.9-12.9,8.6c-2.3,1.4-4.6,2.7-6.9,4.1c7.6-5.7,15.2-11.3,23.1-16.6c4.3-2.9,8.8-5.6,13.2-8.3
		c-4.3,3.1-8.5,6.3-12.7,9.5L96.8,570.3z M157,519.1c-2-0.2-4,0.1-5.9,0.9l0.3-0.3c1.5-1.4-0.4-2.5-1.6-2.6
		c-2.9-0.3-5.8,0.5-8.1,2.2l-1.3,0.9c1.9-1.5,3.8-2.9,5.7-4.4c1.1-0.9,1.9-2.5,0.1-3.1c-1.4-0.4-3-0.5-4.4-0.1
		c0.5-0.5,1.1-1,1.6-1.5c1-0.9,2-2.4,0.1-3.1c-2.5-0.9-5.7,0.1-8,1.3c-3.3,1.7-6.6,3.5-9.8,5.3c3.8-3.2,7.3-6.6,10.6-10.2
		c1.3-1.5-0.3-2.5-1.6-2.6c-0.8-0.1-1.7-0.1-2.5,0c4.1-3.3,7.9-6.9,11.4-10.7c1.3-1.5-0.3-2.5-1.6-2.6c-2.9-0.3-5.8,0.5-8.1,2.2
		c-10.6,9.1-21.7,17.6-33.3,25.4c-2.7,1.7,10-7.9,7.4-6.2c13.3-9.3,10.9-8,21.9-20.1c1.3-1.5-0.3-2.5-1.6-2.6
		c-1.1-0.1-2.1-0.1-3.2,0.1c0.5-0.7,0.9-1.4,1.3-2.2c1.2-2.2-4-2-4.8-1.8c-0.5,0.1-1,0.2-1.5,0.4c0.6-0.6,1.3-1.2,1.9-1.8
		c1.4-1.4-0.4-2.5-1.6-2.6c-2.9-0.3-5.8,0.5-8.1,2.2c-5.6,4-11.1,8-16.7,12c-1.5,0.9-3.3,2.3-4.8,3.1c-9.4,5.3-18.1,10.6-27.3,16.2
		l-3.1,1.9l0.3-0.2c19.1-12.3,39.2-23.2,56.6-37.7c1.7-1.4,1.4-3-0.9-3.4c-2.9-0.3-5.8,0.5-8.1,2.2c-3.3,2.6-2.5,0.9-6.1,3.1
		c2.3-1.7,0.3,0.5,2.6-1.3c1.8-1.4,1.4-3.1-0.9-3.4c-2.7-0.3-3.9,0.6-6.1,2.2c-2.6,1.9-14.8,9.6-17.4,11.4c1.8-2,12.1-9.1,13.6-11.5
		c1-1.6-1-3.3-2.6-3.5c-2.4-0.2-4.9,0.3-7,1.5c-2.7,1.4-5.4,2.9-8.1,4.4c0.3-0.4,0.7-0.8,1-1.2c2.9-3.7-6.3-2.1-7.3-1.7
		c-9.7,3.6-19,8.4-27.5,14.2c-8.9,5.7-17.2,12.4-24.7,19.8c-1.5,1.5,0.1,2.2,1.6,2.5c-3.4,2.6-6.6,5.5-9.4,8.8
		c-1.3,1.5,0.3,2.5,1.6,2.6c2.4,0.2,4.9-0.3,7-1.5c0.6-0.3,1.1-0.7,1.7-1c-3.2,2.4-6.2,5.1-9,7.9c-1.4,1.4-3.1,7.1-1.8,7.2
		c2.4,0.3,8.3-5.1,10.4-6.1c1.1-0.5,13.9-10.5,14.9-11c-4.3,3.7-20.4,15.3-24.4,19.5c-1.4,1.4,0.5,4.2,1.8,4.4c0.7,0.1,1.3,0.1,2,0
		c-1.5,1.5-2.9,3.1-4.3,4.7s0.3,2.5,1.6,2.6c1,0.1,2.1,0.1,3.1-0.1c-1.3,0.9-2.7,1.8-4,2.8c-1.9,1.4-1.3,3.1,0.9,3.3
		c2.9,0.3,5.8-0.5,8.1-2.2l4-2.8c11.9-8,24.7-14.7,37.2-21.7c-4.6,3.6-14.6,8.7-19.4,12.1c-4.4,2.3-3.6,3-8.1,5.1
		c-7,3.3-16.8,7.1-19.9,14.9c-1.1,2.8,5.4,1.7,6.3,1.5c2.1-0.5,4.1-1.2,6-2.1c-2.6,2-5.2,3.9-7.8,5.8c-1.2,0.9-1.9,2.5-0.1,3.1
		c2.5,0.9-0.4,5.2,1.8,4.1l13.8-10.1c-2.7,2.5-12.7,9.9-14.9,12.9c-1.1,1.5,0.1,2.4,1.6,2.6c2.4,0.2,4.9-0.3,7-1.5
		c0.9-0.5,7.4-5.8,8.4-6.3c-2.4,2-11.8,9-14,11.2c-1.4,1.4,2,2.5,3.2,2.6c1.8,0.2,3.7-0.1,5.4-0.8c-2.1,2.5-3.6,5.6-4.2,8.8
		c-0.5,2.9,4.9,1.9,6.3,1.5c3.2-0.8,2.7,2.8,17.3-18c-1.8,1.9-11.6,18.4-13.3,20.4c-1.2,1.5,0.2,2.5,1.7,2.6
		c1.2,0.1,2.5,0.1,3.7-0.2c-0.5,0.5-1,1-1.4,1.6c-1.3,1.5,0.3,2.5,1.7,2.6c2.4,0.3,4.9-0.3,7-1.5l0.5-0.3c-1.1,1-2.2,2.1-3.3,3.2
		c-1.4,1.4,0.4,2.5,1.7,2.6c1.3,0.1,2.7,0,4-0.3c0.2,0,0.5-0.1,0.8-0.1l0.3,1.2c0.7,2.1,4.9,1.2,6.3,0.8l0.7-0.2
		c-1.2,1.5,0.2,2.4,1.7,2.6c0.8,0.1,1.7,0.1,2.5,0c-1,1.9,3.8,2.1,4.8,2c2.2-0.4,4.4-1,6.5-1.6c-0.6,0.3-1.2,0.7-1.8,1
		c-0.9,0.5-3.3,2.1-1.9,3.4s4.3,0.7,5.9,0.2s2.9-0.8,4.3-1.3c-0.8,0.7-1.3,1.6-0.5,2.4c1.8,1.6,5.5,0.5,7.4-0.3
		c10.6-4.1,21-8.4,30.3-14.4c1.8-0.9,3.6-1.8,5.4-2.8c11.1-6.2,22.6-14.7,26.8-27.4c0.7-2-1.9-2.1-4.5-1.7c2-2.1,3.8-4.4,5.4-6.9
		c1.1-1.9-0.1-2.5-1.9-2.5c2.7-2.7,4.8-6,6.2-9.5c0.4-1.1-0.7-1.6-1.6-1.8c0.7-1.3,1.2-2.7,1.6-4.2c0.6-2.3-3.6-2-4.8-1.8
		c-0.8,0.1-16,14.7-16.7,14.9c1.6-1.7,17.6-17.9,19.1-19.7c1.2-1.5-0.2-2.5-1.6-2.6c-0.5-0.1-0.9-0.1-1.4-0.1c1.9-2,3.5-4.3,4.8-6.7
		c1.3-2.3-3.8-1.8-6.4-1.3c2.9-2,5.7-4.2,8.5-6.5C159.6,521,159.4,519.4,157,519.1L157,519.1z"/>
	<path class="st1" d="M16,545.7c0-15.3,4.1-31.1,14.6-43.2c10.9-12.5,25.3-18.1,40.6-19.4c1.2-0.1,2.4-3,2.3-3.8
		c0-0.3-0.2-1-1.8-0.8c-12.2,1.1-23.9,5.6-33.7,13c1.5-1.2,3.1-2.4,4.7-3.5c11-7.5,24.9-10.6,39-10.6c9.6,0,19.1,0.9,27.6,4.5
		c17.3,7.4,31.6,19.9,38.4,39c2.8,10.1,3.6,20.7,2.4,31.1c-1.9,16.1-9.4,32.2-20,42.7c-12.2,11.8-27.9,19.3-44.8,21.1
		c-4.3,0.5-8.5,0.5-12.8,0.1c-2.9-0.6-5.7-1.4-8.4-2.4C35.6,603.1,16,574,16,545.7z M92.5,617.1c2.8-0.6,6.6-1.3,9.3-2.1
		c14.3-4.4,30.3-15.8,39.8-26.6c-6.7,8.8-19.8,19-30,23.6C105.6,614.8,99.1,616.6,92.5,617.1L92.5,617.1z M117.2,476.5l-0.8-0.5
		c-0.2-0.1-0.5-0.2-0.8-0.2c-1.1,0-2.9,0.7-3.1,1.5c-0.1,0.4,0.1,0.8,0.5,0.9c3.3,1.9,6.4,4,9.3,6.4c-11.8-7.4-26.2-12.3-40.8-11.9
		c-22.6,0.5-44.2,8.2-57.6,24.5C12.2,511.4,8.3,533,9.6,553c1.3,19.8,11.3,37,25.5,48.7c10.2,8.4,21.1,15.5,35.5,16.6
		c4.8,1,9.7,1.5,14.6,1.5c13,0,25.8-3.6,36.8-10.5c18.7-11.4,31-30.8,33.5-52.6c1.4-11.9-0.1-24-4.3-35.3
		C146.1,502.6,133.9,486.5,117.2,476.5L117.2,476.5z"/>
	<path class="st2" d="M58.1,548.7L58.1,548.7c0,0.1-0.1,0.1-0.1,0.2C58,548.8,58,548.8,58.1,548.7z"/>
	<path class="st2" d="M129.2,563.8v0.2H129C129.1,564,129.2,563.9,129.2,563.8z"/>
</g>
<g id="Camada_6">
	<path class="st3" d="M116.6,116.2l-0.9,0.2L116.6,116.2l0-0.2l-10.9-48.5c-0.6-2.6-1.1-5.2-1.7-7.8c-1.1-5.1-2.3-10.4-3.5-15.6
		c-0.7-2.9-1.1-3.9-4-4.4l-0.9-0.2h-0.1l0,0c-0.1-0.3-0.2-0.7-0.2-1c0-0.3-0.1-0.5-0.2-0.8c-0.3-1.4-1.6-2.4-3-2.3h-0.1l-60.6,1.3
		c-0.2-0.5-0.7-0.7-1.2-0.6c-0.2,0.1-0.4,0.2-0.5,0.4l-0.2,0.3H29c-1.2,0.1-2.3,0.7-3,1.7c-0.9,1.1-1.3,2.6-1,4v0.1
		c-1.1,0.2-2.1,0.7-2.7,1.7c-0.9,1.1-1.3,2.6-1,4l0.3,1.1c-0.1,0.2-0.1,0.5,0.1,0.7c0,0.1,0.1,0.2,0.2,0.2l17.6,74
		c0.2,0.9,0.9,1.7,1.8,2.1c0.2,0.5,0.5,1,1,1.3l0.2,0.1c0.6,0.6,1.5,0.8,2.3,0.8c0.2,0,0.6,0,1.2,0c3.1,0.1,6.2,0.1,9.3,0.1
		c1.5,0,3.1,0,4.6,0l38.4,0.4c0.8,0,1.8,0.1,2.8,0.2c1.2,0.1,2.5,0.2,3.7,0.2c1.3,0,2.6-0.2,3.9-0.6c1.1-0.4,2.2-1.1,2.9-2
		c0.1,0,0.2,0,0.3,0c0.5,0,0.8-0.4,0.9-0.8l0.3-3.4c1-0.4,1.9-1,2.7-1.8C116.6,119.6,117,117.8,116.6,116.2z"/>
	<path class="st2" d="M110.2,123.2c0-0.1,0-0.1,0-0.2L93.6,49.1c0-0.2-0.2-0.4-0.4-0.4h-3.6l-0.9-4L25.6,46l18.1,76.1h1.2l0.4,1.7
		c0,0.2,0.2,0.4,0.4,0.4l63.1,0.7C109.3,124.9,110.3,123.9,110.2,123.2z M47,122.1L47,122.1L47,122.1l59.9-1.4L90.1,50.6
		c0.6,0,1.1,0,1.7,0.1H92c0,0.1,0.1,0.2,0.1,0.3c1.3,2.8,1.5,6.9,2.2,10l8.2,36.6l5.6,25.2l-58-0.6C49.1,122.3,48,122.3,47,122.1
		L47,122.1z"/>
	<path class="st4" d="M113.9,117.5c0-0.1,0-0.1,0-0.2L97.4,43.4c0-0.2-0.2-0.4-0.4-0.4h-3.6l-0.9-4l-63.1,1.3l18.1,76.1h1.2l0.4,1.7
		c0,0.2,0.2,0.4,0.4,0.4l63.1,0.7C113.1,119.2,114,118.2,113.9,117.5z M50.7,116.4L50.7,116.4L50.7,116.4l59.8-1.4L93.9,44.9
		c0.6,0,1.1,0,1.7,0.1h0.2c0,0.1,0.1,0.2,0.1,0.3c1.3,2.8,1.5,6.9,2.2,10l8.2,36.6l5.6,25.1l-58-0.6
		C52.8,116.5,51.8,116.5,50.7,116.4z"/>
	<path class="st1" d="M48.8,57.2c10.3-0.7,20.7-1,31-1.1c1.8,0,3.4-4.1,1-4.1c-10.4,0.1-20.7,0.4-31,1.1
		C48.1,53.2,46.4,57.3,48.8,57.2z"/>
	<path class="st0" d="M44.4,68.4c14.6,0.3,29.1-0.1,43.6-1.2c1.8-0.1,3.4-4.2,1-4.1c-14.2,1.2-28.5,1.6-42.8,1.2
		C44.4,64.3,42.4,68.3,44.4,68.4L44.4,68.4z"/>
	<path class="st0" d="M46.5,81.3C62,80,77.5,78.6,93,77c1.8-0.2,3.4-4.3,1-4.1c-15.5,1.6-31,3-46.5,4.3
		C45.8,77.4,44.1,81.5,46.5,81.3L46.5,81.3z"/>
	<path class="st0" d="M49.5,94l44.6-4.3c1.8-0.2,3.4-4.3,1-4.1l-44.6,4.3C48.8,90.1,47.1,94.2,49.5,94L49.5,94z"/>
	<path class="st0" d="M53.2,105.7l39.3-0.9c1.6,0,3.1-3.7,0.9-3.7L54.1,102C52.6,102,51,105.8,53.2,105.7z"/>
	<path class="st4" d="M152.1,47.4c-0.3-4.4-2.9-8.6-7.8-12.8c-0.2-0.4-0.7-0.7-1.2-0.7c-0.3-0.2-1.1-0.7-2.6-1.7
		c-0.1-0.1-0.3-0.2-0.5-0.3c-1.3-0.6-2.6-1-4-1.2c-1.1-0.1-2.3-0.2-3.4-0.1c-0.4,0.1-0.8,0.1-1.2,0c-0.5,0-0.9-0.1-1.4-0.2
		c-0.5-0.2-1-0.3-1.6-0.3c-1.7,0-3.3,0.8-4.3,2.2c-0.4,0.5-0.8,1.1-1,1.7c-0.1,0.3-0.2,0.5-0.3,0.7v0.1c-0.2,0.2-0.4,0.4-0.6,0.5
		c-0.9,1.2-1.7,2.6-2.4,4c-0.4,1-0.9,2-1.5,2.9l-1.3,2c-1,1.5-2.1,3.1-3.2,4.5s-2.2,2.8-3.3,4.2c-0.6,0.7-1.1,1.4-1.7,2.1L94.1,73.7
		c-1.5,1.7-2.7,3.6-3.7,5.7c-0.7,2.2-1.2,4.5-1.4,6.8c0,0.6-0.2,1.3-0.2,2l-2,13.6c-0.3,1.8-0.7,4.3,0.5,5.9c0.4,0.5,0.9,0.9,1.6,1
		c0.2,0.9,0.8,1.8,1.6,2.3c0.3,0.2,0.6,0.3,1,0.4c1.5,0.3,3.3-0.3,5.3-1s4.3-1.4,6.7-2c4-1,8.2-2.1,11.7-4.1
		c2.3-1.3,3.8-4.1,5.2-6.6c0.5-0.9,1.1-1.8,1.5-2.6c3.4-5.1,7-10.1,10.5-15l0.8-1.2c0.8-1,1.5-1.9,2.3-2.8l0.4-0.4
		c0.6-0.7,1.1-1.5,1.4-2.4c0.1-0.5,0.4-0.9,0.7-1.3c1.4-2.2,3.1-4.4,4.9-6.7c1.8-2.1,3.4-4.4,4.9-6.7c0.2-0.4,0.4-0.7,0.7-1.1
		C150.3,54.5,152.3,51.3,152.1,47.4z"/>
	<path class="st4" d="M112,92.5c-0.7,0.3-1.4,0.7-2.1,1l-0.1-0.1c0.4-0.5,0.8-1.1,1.2-1.6c0.8-1.3,0.1-3.8-1.5-2.1
		c-0.1,0.1-0.2,0.2-0.3,0.3l0.1-0.2c1-1.7-0.4-3.9-1.8-1.8c-0.2,0.4-0.6,0.8-0.8,1.2c0,0-0.1-0.1-0.1-0.1c0.5-1.2,1.2-2.5,1.7-3.7
		c0.8-1.8-0.8-3-2-1.3c-0.6,0.9-1.2,1.8-1.9,2.8l-0.4-0.4c0.1-1,0.2-2.1,0.3-3.1c0.1-2-1.8-1.1-2.4,0.1c-0.1-1.5-1.6-0.8-2.3,0.3
		c0.1-0.8,0.1-1.6,0-2.4c0-2.5-2.4-0.5-2.6,1c-0.5,4.9-1.5,9.7-2.9,14.4c-0.7,2.4,2,1.8,2.5-0.1c0.1-0.2,0.1-0.3,0.1-0.5
		c-0.1,1.5-0.1,2.8-0.3,4.3c-0.1,2,1.6,1.1,2.3-0.2c0.3-0.1,0.6-0.2,0.7-0.5c-0.2,1.1,0.2,2.6,1.4,1.7c0.6-0.4,1.2-0.9,1.8-1.2
		c0.2-0.1,0.3-0.1,0.5-0.1l3.7-1.9c0.1,0.6,0.4,0.9,1.1,0.6l1.6-0.7c0.6-0.4,1.1-1,1.3-1.7c0.4-0.2,0.8-0.6,1.1-0.8
		C113.3,95.2,113.8,91.6,112,92.5z"/>
	<path class="st5" d="M143.7,45.6c-0.1-1-0.2-2-0.2-2.9s-0.9-1-1.6-0.5c-0.1-0.9-0.3-1.7-0.4-2.6s-0.8-1-1.3-0.7
		c-0.3-1.2-2.2,0-2.5,1.3c-0.1,0.9-0.3,1.7-0.5,2.5c0.2-1.9,0.4-3.8,0.6-5.7s-1.7-1.2-2.3,0c0.1-0.5,0.1-1.1,0.2-1.6
		c0.3-2.5-2.1-1.9-2.5,0.1l-0.1,0.2c-0.3-1.5-2.2-0.8-2.5,0.9c-0.4,2.2-0.7,4.3-1.2,6.5c-0.7,3.3-1.5,6.5-2.4,9.7
		c1.3-6.1,1.6-12.4,1-18.7c-0.3-2.1-2.3,0-2.5,1c-0.8,3.7-1.5,7.4-2.3,11.1c-0.4-1.3-2.2-0.5-2.4,1.1c-1.4,8-3.1,15.8-4.9,23.7
		l2.5-18.2c0.3-2.5-2.1-1.8-2.5,0.1l-1,4.4c-0.7,0.1-1.3,0.5-1.5,1.2c-0.4,1.2-0.8,2.3-1.2,3.5c-0.2-1.2-1.8-1-2.3,0.5l-1.9,5.9
		c-0.1-1.1-0.1-2.2-0.3-3.3c-0.2-1.8-2-0.4-2.3,0.5l-1.1,2.9c-0.5,0.2-0.8,0.6-1,1.1c-1,3.2-2,6.5-2.9,9.7c-0.7,2.2,1.5,3.1,2.2,0.9
		l0,0c0,0.1,0,0.2,0,0.4c0,1.2,0.7,1.4,1.4,1.1c0.1,1.4,1.8,1.9,2.4-0.1l1.5-4.8c-0.2,2.3-0.3,4.7-0.4,7c-0.1,1.5,1,1.4,1.8,0.8
		c-0.2,1.3-0.4,2.6-0.6,3.9c-0.4,2.3,1.9,1.9,2.4,0.1c-0.1,0.8-0.2,1.7-0.3,2.5c-0.4,2.6,2,1.8,2.5-0.1l1.8-6.4
		c-0.5,3.1-1,6.3-1.5,9.4c-0.3,2.5,2.1,1.8,2.5-0.1c1-4.8,1.9-9.6,3-14.4c-0.3,2.2-0.7,4.3-0.8,6.5s2.3,0.9,2.5-0.6
		c0.1-0.9,0.3-1.9,0.6-2.8c0.3,1,1.8,0.7,2.4-0.6c0.8-1.9,1.4-3.7,2.2-5.5c0.5,0.6,1.6,0.2,2.1-1c1.9-5.6,3.7-11.2,5.3-16.8
		l-1.4,12.9c-0.2,2.3,2.2,0.7,2.5-0.6c0.8-2.9,1.4-5.7,2.1-8.6c0.6,0.2,1.4-0.4,1.8-1.2c1-2.4,1.8-4.9,2.2-7.4
		c0.6-0.2,1-0.7,1.2-1.3c0.1,0.7,0.1,1.5,0.2,2.1c0.2,1.8,2,0.4,2.4-0.5c1.1-2.7,1.8-5.6,1.8-8.6C146,43.7,144.4,44.4,143.7,45.6z
		 M125.6,46.8c-0.7,8-3.1,16-4.9,24L125.6,46.8z"/>
	<path class="st3" d="M141.5,36.9c-5.5-4.3-11.9-4.3-17.3,0.2c-0.6,0.6-0.9,1.5-0.8,2.3c-2.5,3.7-4.9,7.3-7.5,11.1l-9.4,12
		c-3.8,4.8-7.6,9.7-11.4,14.4c-1.9,2.5-2.3,3.7-2.7,6.8c-1,6.6-1.9,13.2-3,19.8c-0.2,1.2,1.1,0.9,1.2,0c0.8-5.6,1.6-11.1,2.5-16.7
		c0.3-2.1,0.4-4.5,0.9-6.7v-0.1c0.4-0.5,0.8-1,1.2-1.5c3-3.8,6-7.7,9.1-11.5c-2.8,4-5.7,8-8.4,12v0.1c-0.7,0.2-1.3,0.9-1.3,1.7
		c-1,8-1.9,16-2.8,24c-0.4,1.2-0.2,2.6,0.9,2.1c6.9-2.9,14.3-4.4,21.3-7.2c0.4-0.2,0.6-0.5,0.8-0.8c0.2-0.3,0.4-0.6,0.4-1
		c-0.1,0.5,0.2-0.3,0.4-0.6c0.4-0.6,0.8-1.3,1.2-1.9c1.2-1.9,2.4-3.7,3.7-5.5c3.5-5.2,7.1-10.3,10.7-15.4c5.6-8,12.3-15.9,16.9-24.6
		c0.2-0.3,0.3-0.6,0.3-1l0.1-0.2C149.1,44.2,144.8,39.5,141.5,36.9z M125.6,40.7c0.2-0.2,0.3-0.5,0.3-0.8c0.2-0.3,0.5-0.7,0.7-1
		c3.7-2.2,8.4-2.1,11.9,0.4c-10.7,13.9-20.6,28.4-29.7,43.5c-2.6-2.3-5.9-3.8-9.3-4.4C108.4,65.9,117.1,53.3,125.6,40.7z
		 M94.6,102.7c0.1,0.1,0.1,0.1,0.2,0.3c-0.1,0.1-0.2,0-0.2,0.1C94.5,102.9,94.5,102.8,94.6,102.7L94.6,102.7z M113.3,96.8
		c-3.8,1.5-7.7,2.6-11.5,3.8c-1.2-2.6-3.6-4.3-6.4-4.6c0.5-4.8,1.2-9.6,1.7-14.3l0.1-0.1c0.2,0.2,0.4,0.3,0.6,0.3
		C105,82.7,112.6,89.3,113.3,96.8L113.3,96.8z M146,48.9c0,0.1,0,0.1,0,0.2c-4.8,8.9-11.7,17.1-17.5,25.3
		c-3.6,5.1-7.2,10.2-10.7,15.3c-0.8,1-1.6,2.2-2.5,3.4c-0.8-3.2-2.4-6.2-4.7-8.6c9.1-15.1,19-29.7,29.9-43.7
		C142.8,42.8,146.3,46.3,146,48.9z"/>
	<path class="st5" d="M95.2,95.6c0.7,0.3,2.2-1.1,1.3-1.4S94.4,95.3,95.2,95.6z"/>
	<path class="st3" d="M94.9,94.5c4.7-0.2,5.9,4.9,6.4,8.5c0.2,1.1,1.4-0.2,1.3-0.9c-0.6-4-2.2-9.7-7.3-9.3
		C94.6,92.8,94.1,94.6,94.9,94.5z"/>
	<path class="st3" d="M116.5,273.4l-0.9,0.2L116.5,273.4l0-0.2l-10.8-48.5c-0.6-2.6-1.1-5.2-1.7-7.8c-1.1-5.1-2.3-10.4-3.5-15.6
		c-0.7-2.9-1.1-3.9-4-4.4l-0.9-0.2h-0.1l0,0c-0.1-0.3-0.2-0.7-0.2-1c0-0.3-0.1-0.5-0.2-0.8c-0.3-1.4-1.6-2.4-3-2.3h-0.1l-60.6,1.3
		c-0.2-0.5-0.7-0.7-1.2-0.6c-0.2,0.1-0.4,0.2-0.5,0.4l-0.2,0.3h-0.7c-1.2,0.1-2.3,0.7-3,1.7c-0.9,1.1-1.3,2.6-1,4v0.1
		c-1.1,0.2-2.1,0.7-2.7,1.6c-0.9,1.1-1.3,2.6-1,4l0.3,1.1c-0.1,0.2-0.1,0.5,0.1,0.7c0,0.1,0.1,0.2,0.2,0.2l17.6,74
		c0.2,1,0.9,1.7,1.8,2.1c0.2,0.5,0.5,1,1,1.4l0.2,0.1c0.6,0.6,1.5,0.8,2.3,0.8c0.2,0,0.6,0,1.2,0c3.1,0.1,6.2,0.1,9.3,0.1
		c1.5,0,3.1,0,4.6,0l38.4,0.4c0.8,0,1.8,0.1,2.8,0.2c1.2,0.1,2.5,0.2,3.7,0.2c1.3,0,2.6-0.2,3.9-0.6c1.1-0.4,2.2-1.1,2.9-2
		c0.1,0,0.2,0,0.3,0c0.5,0,0.8-0.4,0.9-0.8l0.3-3.4c1-0.4,1.9-1,2.7-1.8C116.5,276.8,116.9,275.1,116.5,273.4z"/>
	<path class="st2" d="M110,280.4c0-0.1,0-0.1,0-0.2l-16.5-73.9c0-0.2-0.2-0.4-0.4-0.4h-3.6l-0.9-4l-63.1,1.4l18.1,76.1h1.2l0.4,1.7
		c0,0.2,0.2,0.4,0.4,0.4l63.1,0.6C109.2,282.1,110.1,281.1,110,280.4z M46.8,279.3L46.8,279.3L46.8,279.3l59.9-0.4L90,207.8
		c0.6,0,1.1,0,1.7,0.1h0.2c0,0.1,0.1,0.2,0.1,0.3c1.3,2.8,1.5,6.9,2.2,10l8.2,36.6L108,280l-58-0.6
		C48.9,279.5,47.9,279.5,46.8,279.3L46.8,279.3z"/>
	<path class="st4" d="M113.8,274.7c0-0.1,0-0.1,0-0.2l-16.5-73.9c0-0.2-0.2-0.4-0.4-0.4h-3.6l-0.9-4l-63.1,1.3l17.1,76.1h2.2
		l0.4,1.7c0,0.2,0.2,0.4,0.4,0.4l63.1,0.6C113,276.4,113.9,275.4,113.8,274.7z M50.6,273.6L50.6,273.6L50.6,273.6l59.9-1.4
		l-16.7-70.2c0.6,0,1.1,0,1.7,0.1h0.2c0,0.1,0.1,0.2,0.1,0.3c1.3,2.8,1.5,6.9,2.2,10l8.2,36.6l5.6,25.2l-58-0.6
		C52.7,273.8,51.6,273.8,50.6,273.6z"/>
	<path class="st1" d="M48.7,214.4c10.3-0.7,20.7-1,31-1.1c1.8,0,3.4-4.1,1-4.1c-10.4,0.1-20.7-0.6-31,0.1
		C47.9,209.4,46.3,214.5,48.7,214.4z"/>
	<path class="st0" d="M44.2,225.6c14.5,0.3,29.1-0.1,43.6-1.2c1.8-0.1,3.4-4.2,1-4.1c-14.2,1.1-28.5,0.6-42.8,0.2
		C44.2,220.5,42.3,225.5,44.2,225.6L44.2,225.6z"/>
	<path class="st0" d="M46.4,238.5c15.5-1.3,31-2.8,46.6-4.3c1.8-0.2,3.4-4.1,1-4.1c-17.6,0-31,3-46.5,4.3
		C45.6,234.6,44,238.7,46.4,238.5z"/>
	<path class="st0" d="M49.3,251.2l44.6-4.3c1.8-0.2,3.4-4.3,1-4.1l-44.6,4.3C48.6,247.3,46.9,251.4,49.3,251.2z"/>
	<path class="st0" d="M53.1,262.9l39.3-0.9c1.6,0,3.1-3.7,0.9-3.7c-13.1,0.3-26.2-0.4-39.3-0.1C52.4,258.3,50.9,263,53.1,262.9z"/>
	<path class="st4" d="M152,204.6c-0.3-4.4-2.9-8.6-7.8-12.8c-0.2-0.4-0.7-0.7-1.2-0.7c-0.3-0.2-1.1-0.7-2.6-1.7
		c-0.1-0.1-0.3-0.2-0.5-0.3c-1.3-0.6-2.6-1-4-1.2c-1.1-0.1-2.3-0.2-3.4-0.1c-0.4,0.1-0.8,0.1-1.2,0c-0.5,0-0.9-0.1-1.4-0.2
		c-0.5-0.2-1-0.3-1.6-0.3c-1.7,0-3.3,0.8-4.3,2.1c-0.4,0.5-0.8,1.1-1,1.8c-0.1,0.3-0.2,0.5-0.3,0.7v0.1c-0.2,0.2-0.4,0.4-0.6,0.5
		c-0.9,1.2-1.7,2.6-2.4,4c-0.4,1-0.9,2-1.5,2.9l-1.3,2c-1,1.5-2.1,3.1-3.2,4.5s-2.2,2.9-3.3,4.2c-0.6,0.7-1.1,1.4-1.7,2.1L94,230.9
		c-1.5,1.7-2.7,3.6-3.7,5.7c-0.7,2.2-1.2,4.5-1.4,6.8c0,0.6-0.2,1.3-0.2,2l-2,13.6c-0.3,1.9-0.7,4.3,0.5,5.9c0.4,0.5,0.9,0.9,1.6,1
		c0.2,0.9,0.8,1.8,1.6,2.3c0.3,0.2,0.6,0.3,1,0.4c1.5,0.3,3.3-0.3,5.3-1s4.3-1.4,6.7-2c4-1,8.2-2.1,11.7-4.1
		c2.3-1.3,3.8-4.1,5.2-6.6c0.5-0.9,1.1-1.9,1.5-2.6c3.4-5.1,7-10.1,10.5-15l0.8-1.2c0.8-1,1.5-1.9,2.3-2.8l0.4-0.4
		c0.6-0.7,1.1-1.5,1.4-2.4c0.1-0.5,0.4-0.9,0.7-1.3c1.4-2.2,3.1-4.4,4.9-6.7c1.8-2.1,3.4-4.4,4.9-6.7c0.2-0.4,0.4-0.7,0.7-1.1
		C150.1,211.7,152.1,208.5,152,204.6z"/>
	<path class="st4" d="M111.9,249.7c-0.7,0.3-1.4,0.7-2.1,1l-0.1-0.1c0.4-0.5,0.8-1.1,1.2-1.6c0.8-1.3,0.1-3.8-1.5-2.1
		c-0.1,0.1-0.2,0.2-0.3,0.4l0.1-0.2c1-1.7-0.4-3.9-1.8-1.8c-0.2,0.4-0.6,0.8-0.8,1.2c0,0-0.1-0.1-0.1-0.1c0.5-1.2,1.2-2.5,1.7-3.7
		c0.8-1.8-0.8-3-2-1.3c-0.6,0.9-1.2,1.8-1.9,2.8l-0.4-0.4c0.1-1,0.2-2.1,0.3-3.1c0.1-2-1.8-1.1-2.4,0.1c-0.1-1.5-1.6-0.8-2.3,0.3
		c0.1-0.8,0.1-1.6,0-2.4c0-2.5-2.4-0.5-2.6,1c-0.5,4.9-1.5,9.7-2.9,14.4c-0.7,2.5,2,1.8,2.5-0.1c0.1-0.2,0.1-0.3,0.1-0.5
		c-0.1,1.5-0.1,2.8-0.3,4.3c-0.1,2,1.6,1.1,2.3-0.2c0.3-0.1,0.6-0.2,0.7-0.5c-0.2,1.1,0.2,2.6,1.4,1.6c0.6-0.4,1.2-0.9,1.8-1.2
		c0.2-0.1,0.3-0.1,0.5-0.1l3.7-1.9c0.1,0.6,0.4,0.9,1.1,0.6l1.6-0.7c0.6-0.4,1.1-1,1.3-1.7c0.4-0.2,0.8-0.6,1.1-0.8
		C113.2,252.4,113.6,248.8,111.9,249.7z"/>
	<path class="st5" d="M143.6,202.9c-0.1-1-0.2-1.9-0.2-2.9s-0.9-1-1.6-0.5c-0.1-0.9-0.3-1.7-0.4-2.6s-0.8-1-1.3-0.6
		c-0.3-1.1-2.2,0-2.5,1.3c-0.1,0.9-0.3,1.7-0.5,2.5c0.2-1.9,0.4-3.8,0.6-5.7s-1.7-1.2-2.3,0c0.1-0.5,0.1-1.1,0.2-1.6
		c0.3-2.5-2.1-1.9-2.5,0.1l-0.1,0.2c-0.3-1.5-2.2-0.8-2.5,0.9c-0.4,2.2-0.7,4.3-1.2,6.5c-0.7,3.3-1.5,6.4-2.4,9.7
		c1.3-6.1,1.6-12.4,1-18.7c-0.3-2.1-2.3,0-2.5,1c-0.8,3.7-1.5,7.4-2.3,11.1c-0.4-1.3-2.2-0.5-2.4,1.1c-1.4,8-3.1,15.8-4.9,23.7
		l2.5-18.1c0.3-2.5-2.1-1.8-2.5,0.1l-1,4.4c-0.7,0.1-1.3,0.5-1.5,1.2c-0.4,1.1-0.8,2.3-1.2,3.5c-0.2-1.2-1.8-1.1-2.3,0.5l-1.9,5.9
		c-0.1-1.1-0.1-2.2-0.3-3.3c-0.2-1.8-2-0.4-2.3,0.5l-1.1,2.9c-0.5,0.2-0.8,0.6-1,1.1c-1,3.2-2,6.5-2.9,9.7c-0.7,2.2,1.5,3.1,2.2,0.9
		l0,0c0,0.1,0,0.2,0,0.4c0,1.2,0.7,1.4,1.4,1.1c0.1,1.4,1.8,1.9,2.4-0.1l1.5-4.8c-0.2,2.4-0.3,4.6-0.4,7c-0.1,1.5,1,1.4,1.8,0.8
		c-0.2,1.3-0.4,2.6-0.6,3.9c-0.4,2.3,1.9,1.9,2.4,0.1c-0.1,0.8-0.2,1.7-0.3,2.5c-0.4,2.6,2,1.8,2.5-0.1l1.8-6.4
		c-0.5,3.1-1,6.3-1.5,9.4c-0.3,2.5,2.1,1.8,2.5-0.1c1-4.8,1.9-9.6,3-14.4c-0.3,2.2-0.7,4.3-0.8,6.5s2.3,0.9,2.5-0.6
		c0.1-0.9,0.3-1.9,0.6-2.8c0.3,1,1.8,0.7,2.4-0.6c0.8-1.9,1.4-3.7,2.2-5.5c0.5,0.6,1.6,0.2,2.1-1c1.9-5.6,3.7-11.1,5.3-16.9
		l-1.4,12.9c-0.2,2.4,2.2,0.7,2.5-0.6c0.8-2.9,1.4-5.7,2.1-8.6c0.6,0.2,1.4-0.4,1.8-1.2c1-2.4,1.8-4.9,2.2-7.4
		c0.6-0.2,1-0.7,1.2-1.3c0.1,0.7,0.1,1.4,0.2,2.1c0.2,1.8,2,0.4,2.4-0.5c1.2-2.7,1.8-5.6,1.8-8.6
		C145.9,200.9,144.3,201.6,143.6,202.9z M125.5,204c-0.7,8.1-3.1,16-4.9,24L125.5,204z"/>
	<path class="st3" d="M141.4,194.1c-5.5-4.3-11.9-4.3-17.3,0.2c-0.6,0.6-0.9,1.5-0.8,2.3c-2.5,3.7-4.9,7.3-7.5,11.1l-9.4,12
		c-3.8,4.8-7.6,9.6-11.4,14.4c-1.9,2.5-2.3,3.6-2.7,6.9c-1,6.6-1.9,13.2-3,19.8c-0.2,1.2,1.1,1,1.2,0c0.8-5.6,1.6-11.1,2.5-16.6
		c0.3-2.1,0.4-4.5,0.9-6.7v-0.1c0.4-0.5,0.8-1,1.2-1.5c3-3.9,6-7.7,9.1-11.5c-2.8,4-5.7,8-8.4,12v0.1c-0.7,0.2-1.3,0.9-1.3,1.6
		c-1,8-1.9,16-2.8,24c-0.4,1.1-0.2,2.6,0.9,2.1c6.9-2.9,14.3-4.4,21.3-7.2c0.4-0.2,0.6-0.5,0.8-0.8c0.2-0.3,0.4-0.6,0.4-1
		c-0.1,0.5,0.2-0.3,0.4-0.6c0.4-0.6,0.8-1.3,1.2-1.9c1.2-1.9,2.4-3.7,3.7-5.5c3.5-5.2,7.1-10.3,10.7-15.4c5.6-8,12.3-15.9,16.9-24.6
		c0.2-0.3,0.3-0.6,0.3-1l0.1-0.2C148.9,201.5,144.7,196.7,141.4,194.1z M125.5,197.9c0.2-0.2,0.3-0.5,0.3-0.8
		c0.2-0.3,0.5-0.6,0.7-0.9c3.7-2.2,8.4-2.1,11.9,0.4c-10.7,13.9-20.6,28.4-29.7,43.4c-2.6-2.3-5.9-3.8-9.3-4.4
		C108.3,223.1,116.9,210.5,125.5,197.9L125.5,197.9z M94.4,259.9c0.1,0.1,0.1,0.1,0.2,0.3c-0.1,0-0.2,0-0.2,0.1
		C94.4,260.1,94.4,260,94.4,259.9L94.4,259.9z M113.1,254c-3.8,1.5-7.7,2.6-11.5,3.8c-1.2-2.6-3.6-4.3-6.4-4.6
		c0.5-4.8,1.2-9.6,1.7-14.3l0.1-0.1c0.2,0.2,0.4,0.3,0.6,0.3C104.8,239.9,112.5,246.6,113.1,254z M145.9,206.2c0,0.1,0,0.1,0,0.2
		c-4.8,8.9-11.7,17.1-17.5,25.3c-3.6,5.1-7.2,10.2-10.7,15.3c-0.8,1-1.6,2.2-2.5,3.4c-0.8-3.2-2.4-6.2-4.7-8.6
		c9.1-15.1,19-29.7,29.9-43.7C142.6,200,146.2,203.5,145.9,206.2L145.9,206.2z"/>
	<path class="st5" d="M95.1,252.8c0.7,0.3,2.2-1.1,1.3-1.4S94.2,252.5,95.1,252.8z"/>
	<path class="st3" d="M94.8,251.7c4.7-0.2,5.9,4.9,6.4,8.5c0.2,1.1,1.4-0.2,1.3-0.9c-0.6-4-2.2-9.7-7.3-9.3
		C94.4,250,93.9,251.8,94.8,251.7z"/>
	<path class="st3" d="M116.5,431.4l-0.9,0.2L116.5,431.4l0-0.2l-10.8-48.5c-0.6-2.6-1.1-5.2-1.7-7.8c-1.1-5.1-2.3-10.4-3.5-15.6
		c-0.7-2.9-1.1-3.9-4-4.4l-0.9-0.2h-0.1l0,0c-0.1-0.3-0.2-0.7-0.2-1c0-0.3-0.1-0.5-0.2-0.8c-0.3-1.4-1.6-2.4-3-2.3H92l-60.6,1.3
		c-0.2-0.5-0.7-0.7-1.2-0.6c-0.2,0.1-0.4,0.2-0.5,0.4l-0.2,0.3h-0.7c-1.2,0.1-2.3,0.7-3,1.7c-0.9,1.1-1.3,2.6-1,4v0.1
		c-1.1,0.2-2.1,0.7-2.7,1.6c-0.9,1.1-1.3,2.6-1,4l0.3,1.1c-0.1,0.2-0.1,0.5,0.1,0.7c0,0.1,0.1,0.2,0.2,0.2l17.6,74
		c0.2,1,0.9,1.7,1.9,2c0.2,0.5,0.5,1,1,1.4l0.2,0.1c0.6,0.6,1.5,0.8,2.3,0.8c0.2,0,0.6,0,1.2,0c3.1,0.1,6.2,0.1,9.3,0.1
		c1.5,0,3.1,0,4.6,0l38.4,0.4c0.8,0,1.8,0.1,2.8,0.2c1.2,0.1,2.5,0.2,3.7,0.2c1.3,0,2.6-0.2,3.9-0.6c1.1-0.4,2.2-1.1,2.9-2
		c0.1,0,0.2,0,0.3,0c0.5,0,0.8-0.4,0.9-0.8l0.3-3.4c1-0.4,1.9-1,2.7-1.8C116.6,434.7,116.9,433,116.5,431.4z"/>
	<path class="st2" d="M110.1,438.4c0-0.1,0-0.1,0-0.2l-16.5-73.9c0-0.2-0.2-0.4-0.4-0.4h-3.6l-0.9-4l-64.1,1.4l19.1,76.1h1.2
		l0.4,1.7c0,0.2,0.2,0.4,0.4,0.4c21,0.2,42.1,1.4,63.1,1.6C109.3,441.1,110.2,439.1,110.1,438.4z M46.9,437.3L46.9,437.3L46.9,437.3
		l59.9-1.4L90,365.8c0.6,0,1.1,0,1.7,0.1h0.2c0,0.1,0.1,0.2,0.1,0.3c1.3,2.8,1.5,6.9,2.2,10l8.2,36.6L108,438l-58-0.6
		C49,437.5,47.9,437.5,46.9,437.3z"/>
	<path class="st4" d="M113.8,432.7c0-0.1,0-0.1,0-0.2l-16.5-73.9c0-0.2-0.2-0.4-0.4-0.4h-3.6l-0.9-4l-63.1,1.4l18.1,76.1h1.2
		l0.4,1.7c0,0.2,0.2,0.4,0.4,0.4l63.1,0.6C113,434.4,113.9,433.3,113.8,432.7z M50.6,431.6L50.6,431.6c0,0,0,0-1,0.9l59.9-1.3
		l-15.7-71.2c0.6,0,1.1,0,1.7,0.1h0.2c0,0.1,0.1,0.2,0.1,0.3c1.3,2.8,1.5,6.9,2.2,10l8.2,36.5l5.6,25.2l-58-0.6
		C52.7,431.7,51.7,431.7,50.6,431.6L50.6,431.6z"/>
	<path class="st1" d="M48.8,372.3c10.3-0.7,20.7-1,31-1.1c1.8,0,3.4-4.1,1-4.1c-10.4,0.1-20.7,0.4-31,1.1
		C48,368.4,46.3,372.5,48.8,372.3z"/>
	<path class="st0" d="M44.3,383.5c14.5,0.3,29.1-0.1,43.6-1.2c1.8-0.1,3.4-4.2,1-4.1c-14.6,1.2-29.2,1.6-43.8,1.2
		C43.3,379.5,42.3,383.5,44.3,383.5L44.3,383.5z"/>
	<path class="st0" d="M46.4,396.5c15.5-1.3,31-2.8,46.6-4.3c1.8-0.2,3.4-4.3,1-4.1c-15.5,1.6-31,3-46.5,4.3
		C45.7,392.6,44,396.7,46.4,396.5z"/>
	<path class="st0" d="M49.4,409.2l44.6-4.3c1.8-0.2,3.4-4.3,1-4.1c-14.9,1.4-28.7,2.9-43.6,4.3C49.7,405.3,47,409.4,49.4,409.2
		L49.4,409.2z"/>
	<path class="st0" d="M53.1,421.9c13.1-0.3,26.2-1.6,39.3-1.9c1.6,0,3.1-3.7,0.9-3.7l-39.3,0.9c-1.6,0-3.1,3.7-0.9,3.7L53.1,421.9z"
		/>
	<path class="st4" d="M152,362.6c-0.3-4.4-2.9-8.6-7.8-12.8c-0.2-0.4-0.7-0.7-1.2-0.7c-0.3-0.2-1.1-0.7-2.6-1.7
		c-0.1-0.1-0.3-0.2-0.5-0.3c-1.3-0.6-2.6-1-4-1.2c-1.1-0.1-2.3-0.2-3.4-0.1c-0.4,0.1-0.8,0.1-1.2,0c-0.5,0-0.9-0.1-1.4-0.2
		c-0.5-0.2-1-0.3-1.6-0.3c-1.7,0-3.3,0.8-4.3,2.1c-0.4,0.5-0.8,1.1-1,1.8c-0.1,0.3-0.2,0.5-0.3,0.7v0.1c-0.2,0.2-0.4,0.4-0.6,0.5
		c-0.9,1.2-1.7,2.6-2.4,4c-0.4,1-0.9,2-1.5,2.9l-1.3,2c-1,1.5-2.1,3.1-3.2,4.5s-2.2,2.9-3.3,4.2c-0.6,0.7-1.1,1.4-1.7,2.1L94,388.9
		c-1.5,1.7-2.7,3.6-3.7,5.7c-0.7,2.2-1.2,4.5-1.4,6.8c0,0.6-0.2,1.3-0.2,2l-2,13.6c-0.3,1.9-0.7,4.3,0.5,5.9c0.4,0.5,0.9,0.9,1.6,1
		c0.2,0.9,0.8,1.8,1.6,2.3c0.3,0.2,0.6,0.3,1,0.4c1.5,0.3,3.3-0.3,5.3-1s4.3-1.4,6.7-2c4-1,8.2-2.1,11.7-4.1
		c2.3-1.3,3.8-4.1,5.2-6.6c0.5-0.9,1.1-1.9,1.5-2.6c3.4-5.1,7-10.1,10.5-15l0.8-1.2c0.8-1,1.5-1.9,2.3-2.8l0.4-0.4
		c0.6-0.7,1.1-1.5,1.4-2.4c0.1-0.5,0.4-0.9,0.7-1.3c1.4-2.2,3.1-4.4,4.9-6.7c1.8-2.1,3.4-4.4,4.9-6.7c0.2-0.4,0.4-0.7,0.7-1.1
		C150.2,369.7,152.2,366.5,152,362.6z"/>
	<path class="st4" d="M112,407.7c-0.7,0.3-1.4,0.7-2.1,1l-0.1-0.1c0.4-0.5,0.8-1.1,1.2-1.6c0.8-1.3,0.1-3.8-1.5-2.1
		c-0.1,0.1-0.2,0.2-0.3,0.4l0.1-0.2c1-1.7-0.4-3.9-1.8-1.8c-0.2,0.4-0.6,0.8-0.8,1.2c0,0-0.1-0.1-0.1-0.1c0.5-1.2,1.2-2.5,1.7-3.7
		c0.8-1.8-0.8-3-2-1.3c-0.6,0.9-1.2,1.8-1.9,2.8l-0.4-0.4c0.1-1,0.2-2.1,0.3-3.1c0.1-2-1.8-1.1-2.4,0.1c-0.1-1.5-1.6-0.8-2.3,0.3
		c0.1-0.8,0.1-1.6,0-2.4c0-2.5-2.4-0.5-2.6,1c-0.5,4.9-1.5,9.7-2.9,14.4c-0.7,2.5,2,1.8,2.5-0.1c0.1-0.2,0.1-0.3,0.1-0.5
		c-0.1,1.5-0.1,2.9-0.3,4.3c-0.1,2,1.6,1.1,2.3-0.2c0.3-0.1,0.6-0.2,0.7-0.5c-0.2,1.1,0.2,2.6,1.4,1.6c0.6-0.4,1.2-0.9,1.8-1.2
		c0.2-0.1,0.3-0.1,0.5-0.1l3.7-1.9c0.1,0.6,0.4,0.9,1.1,0.6l1.6-0.7c0.6-0.4,1.1-1,1.3-1.7c0.4-0.2,0.8-0.6,1.1-0.8
		C113.2,410.4,113.7,406.8,112,407.7z"/>
	<path class="st5" d="M143.6,360.8c-0.1-1-0.2-2-0.2-2.9s-0.9-1-1.6-0.5c-0.1-0.9-0.3-1.7-0.4-2.6s-0.8-1-1.3-0.6
		c-0.3-1.1-2.2,0-2.5,1.3c-0.1,0.9-0.3,1.7-0.5,2.5c0.2-1.9,0.4-3.8,0.6-5.7s-1.7-1.2-2.3,0c0.1-0.5,0.1-1.1,0.2-1.6
		c0.3-2.5-2.1-1.9-2.5,0.1L133,351c-0.3-1.5-2.2-0.8-2.5,0.9c-0.4,2.2-0.7,4.3-1.2,6.5c-0.7,3.3-1.5,6.5-2.4,9.7
		c1.3-6.1,1.6-12.4,1-18.7c-0.3-2.1-2.3,0-2.5,1c-0.8,3.7-1.5,7.4-2.3,11.1c-0.4-1.3-2.2-0.5-2.4,1.1c-1.4,8-3.1,15.8-4.9,23.7
		l2.5-18.1c0.3-2.5-2.1-1.8-2.5,0.1l-1,4.4c-0.7,0.1-1.3,0.5-1.5,1.2c-0.4,1.1-0.8,2.3-1.2,3.5c-0.2-1.2-1.8-1-2.3,0.5l-1.9,5.9
		c-0.1-1.1-0.1-2.2-0.3-3.3c-0.2-1.8-2-0.4-2.3,0.5l-1.1,2.9c-0.5,0.2-0.8,0.6-1,1.1c-1,3.2-2,6.5-2.9,9.7c-0.7,2.2,1.5,3.1,2.2,0.9
		l0,0c0,0.1,0,0.2,0,0.4c0,1.2,0.7,1.4,1.4,1.1c0.1,1.5,1.8,1.9,2.4-0.1l1.5-4.8c-0.2,2.4-0.3,4.6-0.4,7c-0.1,1.5,1,1.4,1.8,0.8
		c-0.2,1.3-0.4,2.6-0.6,3.9c-0.4,2.3,1.9,1.9,2.4,0.1c-0.1,0.8-0.2,1.7-0.3,2.5c-0.4,2.6,2,1.8,2.5-0.1l1.8-6.4
		c-0.5,3.1-1,6.3-1.5,9.4c-0.3,2.5,2.1,1.8,2.5-0.1c1-4.8,1.9-9.6,3-14.4c-0.3,2.2-0.7,4.3-0.8,6.5s2.3,0.9,2.5-0.6
		c0.1-0.9,0.3-1.9,0.6-2.8c0.3,1,1.8,0.7,2.4-0.6c0.8-1.9,1.4-3.7,2.2-5.5c0.5,0.6,1.6,0.2,2.1-1c1.9-5.5,3.7-11.1,5.3-16.9
		l-1.4,12.9c-0.2,2.4,2.2,0.7,2.5-0.6c0.8-2.9,1.4-5.7,2.1-8.6c0.6,0.2,1.4-0.4,1.8-1.2c1-2.4,1.8-4.9,2.2-7.4
		c0.6-0.2,1-0.7,1.2-1.3c0.1,0.7,0.1,1.5,0.2,2.1c0.2,1.8,2,0.4,2.4-0.5c1.2-2.7,1.8-5.6,1.8-8.6
		C145.9,358.9,144.4,359.6,143.6,360.8z M125.6,361.9c-0.7,8-3.1,16-4.9,24L125.6,361.9z"/>
	<path class="st3" d="M141.4,352.1c-5.5-4.3-11.9-4.3-17.3,0.2c-0.6,0.6-0.9,1.5-0.8,2.3c-2.5,3.7-4.9,7.3-7.5,11.1l-9.4,12
		c-3.8,4.8-7.6,9.6-11.4,14.4c-1.9,2.5-2.3,3.6-2.7,6.9c-1,6.6-1.9,13.2-3,19.8c-0.2,1.2,1.1,1,1.2,0c0.8-5.6,1.6-11.1,2.5-16.6
		c0.3-2.1,0.4-4.5,0.9-6.7v-0.1c0.4-0.5,0.8-1,1.2-1.5c3-3.9,6-7.7,9.1-11.5c-2.8,4-5.7,8-8.4,12v0.1c-0.7,0.2-1.3,0.9-1.3,1.6
		c-1,8-1.9,16-2.8,24c-0.4,1.1-0.2,2.6,0.9,2.1c6.9-2.9,14.3-4.4,21.3-7.2c0.4-0.2,0.6-0.5,0.8-0.8c0.2-0.3,0.4-0.6,0.4-1
		c-0.1,0.5,0.2-0.3,0.4-0.6c0.4-0.6,0.8-1.3,1.2-1.9c1.2-1.9,2.4-3.7,3.7-5.5c3.5-5.2,7.1-10.3,10.7-15.4c5.6-8,12.3-15.9,16.9-24.6
		c0.2-0.3,0.3-0.6,0.3-1l0.1-0.2C149,359.4,144.8,354.7,141.4,352.1z M125.5,355.9c0.2-0.2,0.3-0.5,0.3-0.8c0.2-0.3,0.5-0.6,0.7-1
		c3.7-2.2,8.4-2.1,11.9,0.4c-10.7,13.9-20.6,28.4-29.7,43.5c-2.6-2.3-5.9-3.8-9.3-4.4C108.3,381.1,117,368.5,125.5,355.9
		L125.5,355.9z M94.5,417.9c0.1,0.1,0.1,0.1,0.2,0.3c-0.1,0-0.2,0-0.2,0.1C94.4,418.1,94.4,418,94.5,417.9L94.5,417.9z M113.2,412
		c-3.8,1.5-7.7,2.6-11.5,3.8c-1.2-2.6-3.6-4.3-6.4-4.6c0.5-4.8,1.2-9.6,1.7-14.3l0.1,0c0.2,0.2,0.4,0.3,0.6,0.3
		C104.9,397.9,112.6,404.5,113.2,412z M146,364.1c0,0.1,0,0.1,0,0.2c-4.8,8.9-11.7,17.1-17.5,25.3c-3.6,5.1-7.2,10.2-10.7,15.3
		c-0.8,1-1.6,2.2-2.5,3.4c-0.8-3.2-2.4-6.2-4.7-8.5c9.1-15.1,19-29.7,29.9-43.7C142.7,358,146.3,361.5,146,364.1z"/>
	<path class="st5" d="M95.1,410.8c0.7,0.3,2.2-1.1,1.3-1.4S94.3,410.5,95.1,410.8z"/>
	<path class="st3" d="M94.9,409.7c4.7-0.2,5.9,4.9,6.4,8.5c0.2,1.1,1.4-0.2,1.3-0.9c-0.6-4-2.2-9.7-7.3-9.3
		C94.5,408,94,409.8,94.9,409.7z"/>
	<path class="st3" d="M114,585.1l-0.9,0.2L114,585.1l0-0.2l-10.8-48.5c-0.6-2.6-1.1-5.2-1.7-7.8c-1.1-5.1-2.3-10.4-3.5-15.7
		c-0.7-2.9-1.1-3.9-4-4.4l-0.9-0.2H93l0,0c-0.1-0.3-0.2-0.7-0.2-1c0-0.3-0.1-0.5-0.2-0.8c-0.3-1.4-1.6-2.4-3-2.3h-0.1l-60.6,1.3
		c-0.2-0.5-0.7-0.7-1.2-0.6c-0.2,0.1-0.4,0.2-0.5,0.4l-0.2,0.3h-0.7c-1.2,0.1-2.3,0.7-3,1.7c-0.9,1.1-1.3,2.6-1,4v0.1
		c-1.1,0.2-2.1,0.7-2.7,1.7c-0.9,1.1-1.3,2.6-1,4l0.3,1.1c-0.1,0.2-0.1,0.5,0.1,0.7c0,0.1,0.1,0.2,0.2,0.2l17.6,74
		c0.2,1,0.9,1.7,1.8,2.1c0.2,0.5,0.5,1,1,1.3l0.2,0.1c0.6,0.6,1.5,0.8,2.3,0.8c0.2,0,0.6,0,1.2,0c3.1,0.1,6.2,0.1,9.3,0.1
		c1.5,0,3.1-1,4.6-1l38.5,1.3c0.8,0,1.8,0.1,2.8,0.2c1.2,0.1,2.5,0.2,3.7,0.2c1.3,0,2.6-0.2,3.9-0.6c1.1-0.4,2.2-1.1,2.9-2
		c0.1,0,0.2,0,0.3,0c0.5,0,0.8-0.4,0.9-0.8l0.3-3.4c1-0.4,1.9-1,2.7-1.8C114,588.5,114.4,586.7,114,585.1z"/>
	<path class="st2" d="M107.5,592.1c0-0.1,0-0.1,0-0.2L91,518c0-0.2-0.2-0.4-0.4-0.4H87l-0.9-4L24,514.9L41,591h1.2l0.4,1.7
		c0,0.2,0.2,0.4,0.4,0.4l63.1,0.7C106.7,593.8,107.6,592.8,107.5,592.1z M44.3,591L44.3,591L44.3,591l59.9-1.4l-16.7-70.1
		c0.6,0,1.1,0,1.7,0.1h0.2c0,0.1,0.1,0.2,0.1,0.3c1.3,2.8,1.5,6.9,2.2,10l8.2,36.6l5.6,25.2l-58-0.6C46.5,591.2,45.4,591.2,44.3,591
		z"/>
	<path class="st4" d="M111.3,586.4c0-0.1,0-0.1,0-0.2l-16.5-73.9c0-0.2-0.2-0.4-0.4-0.4h-4.6l-0.9-4l-63.1,2.4l19.1,75.1H46l0.4,1.7
		c0,0.2,0.2,0.4,0.4,0.4l63.1,0.7C110.4,588.1,111.4,587.1,111.3,586.4z M48.1,585.3L48.1,585.3L48.1,585.3l59.9-3.4l-16.7-68.2
		c0.6,0,1.1,0,1.7,0.1h0.2c0,0.1,0.1,0.2,0.1,0.3c1.3,2.8,1.5,6.9,2.2,10l8.2,36.6l5.6,25.2l-58-0.6
		C50.2,585.5,49.1,585.5,48.1,585.3z"/>
	<path class="st1" d="M46.2,526.1c10.3-0.7,22.7-1.1,33-1.1c1.8,0,3.4-4.1,1-4.1c-10.4,0-22.7,0.4-33,1.1
		C45.5,522.1,43.8,526.2,46.2,526.1z"/>
	<path class="st0" d="M41.8,537.3c14.5,0.3,29.1-0.1,43.6-1.3c1.8-0.1,3.4-4.2,1-4.1c-14.2,1.2-28.5,1.6-42.8,1.2
		C41.7,533.2,39.8,537.2,41.8,537.3L41.8,537.3z"/>
	<path class="st0" d="M43.9,550.2c15.5-1.3,31-2.8,46.6-4.3c1.8-0.2,3.4-4.3,1-4.1c-15.5,1.6-31,3-46.5,4.3
		C43.1,546.3,41.5,550.4,43.9,550.2z"/>
	<path class="st0" d="M46.8,562.9l44.6-4.3c1.8-0.2,3.4-4.3,1-4.1c-14.8,1.5-29.7,1.9-44.6,3.3C46.1,558,44.5,563.1,46.8,562.9
		L46.8,562.9z"/>
	<path class="st0" d="M50.6,575.6c13.1-0.3,26.2-1.6,39.3-1.9c1.6,0,3.1-3.7,0.9-3.7L51.5,571c-1.6,0-3.1,3.7-0.9,3.7V575.6z"/>
	<path class="st4" d="M149.5,516.3c-0.3-4.4-2.9-8.6-7.8-12.8c-0.2-0.4-0.7-0.7-1.2-0.7c-0.3-0.2-1.1-0.7-2.6-1.7
		c-0.1-0.1-0.3-0.2-0.5-0.3c-1.3-0.6-2.6-1-4-1.2c-1.1-0.1-2.3-0.2-3.4-0.1c-0.4,0.1-0.8,0.1-1.2,0c-0.5,0-0.9-0.1-1.4-0.2
		c-0.5-0.2-1-0.3-1.6-0.3c-1.7,0-3.3,0.8-4.3,2.1c-0.4,0.5-0.8,1.1-1,1.8c-0.1,0.3-0.2,0.5-0.3,0.7v0.1c-0.2,0.2-0.4,0.4-0.6,0.5
		c-0.9,1.2-1.7,2.6-2.4,4c-0.4,1-0.9,2-1.5,2.9l-1.3,2c-1,1.5-2.1,3.1-3.2,4.5s-2.2,2.8-3.3,4.2c-0.6,0.7-1.1,1.4-1.7,2.1
		l-14.6,18.6c-1.5,1.7-2.7,3.6-3.7,5.7c-0.7,2.2-1.2,4.5-1.4,6.8c0,0.6-0.2,1.3-0.2,2l-2,13.6c-0.3,1.8-0.7,4.3,0.5,5.9
		c0.4,0.5,0.9,0.9,1.6,1c0.2,0.9,0.8,1.8,1.6,2.3c0.3,0.2,0.6,0.3,1,0.4c1.5,0.3,3.3-0.3,5.3-1s4.3-1.4,6.7-2c4-1,8.2-2.1,11.7-4.1
		c2.3-1.3,3.8-4.1,5.2-6.6c0.5-0.9,1.1-1.8,1.5-2.6c3.4-5.1,7-10.1,10.5-15l0.8-1.2c0.8-1,1.5-1.9,2.3-2.8l0.4-0.4
		c0.6-0.7,1.1-1.5,1.4-2.4c0.1-0.5,0.4-0.9,0.7-1.3c1.4-2.2,3.1-4.4,4.9-6.7c1.8-2.1,3.4-4.4,4.9-6.7c0.2-0.4,0.4-0.7,0.7-1.1
		C147.6,523.4,149.6,520.2,149.5,516.3z"/>
	<path class="st4" d="M109.4,561.4c-0.7,0.3-1.4,0.7-2.1,1l-0.1-0.1c0.4-0.5,0.8-1.1,1.2-1.6c0.8-1.3,0.1-3.8-1.5-2.1
		c-0.1,0.1-0.2,0.2-0.3,0.3l0.1-0.2c1-1.7-0.4-3.9-1.8-1.8c-0.2,0.4-0.6,0.8-0.8,1.2c0,0-0.1-0.1-0.1-0.1c0.5-1.2,1.2-2.5,1.7-3.7
		c0.8-1.8-0.8-3-2-1.3c-0.6,0.9-1.2,1.8-1.9,2.8l-0.4-0.4c0.1-1,0.2-2.1,0.3-3.1c0.1-2-1.8-1.1-2.4,0.1c-0.1-1.5-1.6-0.8-2.3,0.3
		c0.1-0.8,0.1-1.6,0-2.4c0-2.5-2.4-0.5-2.6,1c-0.5,4.9-1.5,9.7-2.9,14.5c-0.7,2.5,2,1.8,2.5-0.1c0.1-0.2,0.1-0.3,0.1-0.5
		c-0.1,1.5-0.1,2.8-0.3,4.3c-0.1,2,1.6,1.1,2.3-0.2c0.3-0.1,0.6-0.2,0.7-0.5c-0.2,1.1,0.2,2.6,1.4,1.7c0.6-0.4,1.2-0.9,1.8-1.2
		c0.2-0.1,0.3-0.1,0.5-0.1l3.7-1.9c0.1,0.6,0.4,0.9,1.1,0.6l1.6-0.7c0.6-0.4,1.1-1,1.3-1.7c0.4-0.2,0.8-0.6,1.1-0.8
		C110.7,564.1,111.1,560.5,109.4,561.4z"/>
	<path class="st5" d="M141.1,514.5c-0.1-1-0.2-2-0.2-2.9s-0.9-1-1.6-0.5c-0.1-0.9-0.3-1.7-0.4-2.6s-0.8-1-1.3-0.6
		c-0.3-1.1-2.2,0-2.5,1.3c-0.1,0.9-0.3,1.7-0.5,2.5c0.2-1.9,0.4-3.8,0.6-5.7s-1.7-1.2-2.3,0c0.1-0.5,0.1-1.1,0.2-1.6
		c0.3-2.5-2.1-1.9-2.5,0.1l-0.1,0.2c-0.3-1.5-2.2-0.8-2.5,0.9c-0.4,2.2-0.7,4.3-1.2,6.5c-0.7,3.3-1.5,6.5-2.4,9.7
		c1.3-6.1,1.6-12.4,1-18.7c-0.3-2.1-2.3,0-2.5,1c-0.8,3.7-1.5,7.4-2.3,11.1c-0.4-1.3-2.2-0.5-2.4,1.1c-1.4,8-3.1,15.8-4.9,23.7
		l2.5-18.2c0.3-2.5-2.1-1.8-2.5,0.1l-1,4.4c-0.7,0.1-1.3,0.5-1.5,1.2c-0.4,1.2-0.8,2.3-1.2,3.5c-0.2-1.2-1.8-1-2.3,0.5l-1.9,5.9
		c-0.1-1.1-0.1-2.2-0.3-3.3c-0.2-1.8-2-0.4-2.3,0.5l-1.1,2.9c-0.5,0.2-0.8,0.6-1,1.1c-1,3.2-2,6.5-2.9,9.7c-0.7,2.2,1.5,3.1,2.2,0.9
		l0,0c0,0.1,0,0.2,0,0.4c0,1.2,0.7,1.4,1.4,1.1c0.1,1.5,1.8,1.9,2.4-0.1l1.5-4.8c-0.2,2.3-0.3,4.7-0.4,7c-0.1,1.5,1,1.4,1.8,0.8
		c-0.2,1.3-0.4,2.6-0.6,3.9c-0.4,2.3,1.9,1.9,2.4,0.1c-0.1,0.8-0.2,1.7-0.3,2.5c-0.4,2.6,2,1.8,2.5-0.1l1.8-6.4
		c-0.5,3.1-1,6.3-1.5,9.4c-0.3,2.5,2.1,1.8,2.5-0.1c1-4.8,1.9-9.6,3-14.4c-0.3,2.2-0.7,4.3-0.8,6.5s2.3,0.9,2.5-0.6
		c0.1-0.9,0.3-1.9,0.6-2.8c0.3,1,1.8,0.7,2.4-0.6c0.8-1.9,1.4-3.7,2.2-5.5c0.5,0.6,1.6,0.2,2.1-1c1.9-5.5,3.7-11.2,5.3-16.8
		l-1.4,12.9c-0.2,2.3,2.2,0.7,2.5-0.6c0.8-2.9,1.4-5.7,2.1-8.6c0.6,0.2,1.4-0.4,1.8-1.2c1-2.4,1.8-4.9,2.2-7.4
		c0.6-0.2,1-0.7,1.2-1.3c0.1,0.7,0.1,1.5,0.2,2.1c0.2,1.8,2,0.4,2.4-0.5c1.2-2.7,1.8-5.6,1.8-8.6
		C143.4,512.6,141.8,513.3,141.1,514.5z M123,515.7c-0.7,8-3.1,16-4.9,24L123,515.7z"/>
	<path class="st3" d="M138.9,505.8c-5.5-4.3-11.9-4.3-17.3,0.2c-0.6,0.6-0.9,1.5-0.8,2.3c-2.5,3.7-4.9,7.3-7.5,11.1l-9.4,12
		c-3.8,4.8-7.6,9.7-11.4,14.4c-1.9,2.5-2.3,3.7-2.7,6.8c-1,6.6-1.9,13.2-3,19.8c-0.2,1.2,1.1,1,1.2,0c0.8-5.6,1.6-11.1,2.5-16.7
		c0.3-2.1,0.4-4.5,0.9-6.7v-0.1c0.4-0.5,0.8-1,1.2-1.5c3-3.8,6-7.7,9.1-11.5c-2.8,4-5.7,8-8.4,12v0.1c-0.7,0.2-1.2,0.9-1.3,1.6
		c-1,8-1.9,16-2.8,24c-0.4,1.2-0.2,2.6,0.9,2.1c6.9-2.9,14.3-4.4,21.3-7.2c0.4-0.2,0.6-0.5,0.8-0.8c0.2-0.3,0.4-0.6,0.4-1
		c-0.1,0.5,0.2-0.3,0.4-0.6c0.4-0.6,0.8-1.3,1.2-1.9c1.2-1.9,2.4-3.7,3.7-5.5c3.5-5.2,7.1-10.3,10.7-15.4c5.6-8,12.3-15.9,16.9-24.6
		c0.2-0.3,0.3-0.6,0.3-1l0.1-0.2C146.4,513.2,142.2,508.4,138.9,505.8z M123,509.6c0.2-0.2,0.3-0.5,0.3-0.8c0.2-0.3,0.5-0.6,0.7-1
		c3.7-2.2,8.4-2.1,11.9,0.4c-10.7,13.9-20.6,28.4-29.7,43.5c-2.6-2.3-5.9-3.8-9.3-4.4C105.8,534.9,114.4,522.2,123,509.6z
		 M91.9,571.6c0.1,0.1,0.1,0.1,0.2,0.3c-0.1,0-0.2,0-0.2,0.1C91.9,571.8,91.9,571.7,91.9,571.6L91.9,571.6z M110.6,565.7
		c-3.8,1.5-7.7,2.6-11.5,3.8c-1.2-2.6-3.6-4.3-6.4-4.6c0.5-4.8,1.2-9.6,1.7-14.3l0.1,0c0.2,0.2,0.4,0.3,0.6,0.3
		C102.3,551.6,110,558.3,110.6,565.7L110.6,565.7z M143.4,517.8c0,0.1,0,0.1,0,0.2c-4.8,8.9-11.7,17.1-17.5,25.3
		c-3.6,5.1-7.2,10.2-10.7,15.3c-0.8,1-1.6,2.2-2.5,3.4c-0.8-3.2-2.4-6.2-4.7-8.5c9.1-15.1,19-29.7,29.8-43.7
		C140.1,511.7,143.7,515.2,143.4,517.8L143.4,517.8z"/>
	<path class="st5" d="M92.6,564.5c0.7,0.3,2.2-1.1,1.3-1.4S91.8,564.2,92.6,564.5z"/>
	<path class="st3" d="M92.3,563.4c4.7-0.2,5.9,4.9,6.4,8.5c0.2,1.1,1.4-0.2,1.3-0.9c-0.6-4-2.2-9.7-7.3-9.3
		C91.9,561.7,91.4,563.5,92.3,563.4z"/>
</g>
</svg>
