<?xml version="1.0" encoding="UTF-8"?>
<svg width="107px" height="89px" viewBox="0 0 107 89" version="1.1" xmlns="http://www.w3.org/2000/svg" xmlns:xlink="http://www.w3.org/1999/xlink">
    <!-- Generator: Sketch 61.1 (89650) - https://sketch.com -->
    <title>Group 10</title>
    <desc>Created with Sketch.</desc>
    <defs>
        <polygon id="path-1" points="0.905942857 0.471538462 66.5790476 0.471538462 66.5790476 80.3943077 0.905942857 80.3943077"></polygon>
    </defs>
    <g id="Welcome" stroke="none" stroke-width="1" fill="none" fill-rule="evenodd">
        <g id="Desktop-HD-Copy-6" transform="translate(-624.000000, -470.000000)">
            <g id="Group-10" transform="translate(624.000000, 470.000000)">
                <path d="M47.8528903,46.8596396 C49.530548,46.2492016 51.26927,45.9439825 53.0079919,45.9439825 C55.174163,45.9439825 57.3371202,46.4194817 59.3618796,47.3640542 C63.0064464,49.0668551 65.7704036,52.0804913 67.1459544,55.8587816 C69.9806175,63.6563245 65.9439544,72.3084806 58.1405961,75.1454111 C54.3610454,76.5172903 50.2761737,76.3373717 46.6316069,74.6377837 C42.98704,72.9381956 40.2262967,69.9245594 38.8507459,66.1430563 C36.0128689,58.3455134 40.0527459,49.6933573 47.8528903,46.8596396 M35.1451149,67.4924457 C36.8774091,72.2570753 40.3644946,76.0674938 44.9668047,78.2104527 C47.5186443,79.4024133 50.2472486,80 52.9854946,80 C55.174163,80 57.3692592,79.617673 59.4904357,78.8465934 C64.253441,77.1180898 68.0554892,73.6289545 70.2055908,69.0281793 C72.3524784,64.4274041 72.5806656,59.270809 70.8483715,54.512605 C69.1160774,49.7415498 65.6289918,45.9375569 61.0331095,43.7913852 C56.4307994,41.6452135 51.2724839,41.4203153 46.5030507,43.1552445 C36.6620775,46.7311263 31.5648262,57.6483289 35.1451149,67.4924457" id="Fill-1" fill="#9FBDC9"></path>
                <path d="M63.0664678,39.5558398 C68.7756035,42.2285851 73.1053289,46.9718128 75.2604546,52.9130553 C79.7070243,65.1731756 73.3779653,78.7810628 61.1515217,83.2378086 C55.2281717,85.3961887 48.8212166,85.1162179 43.1120809,82.4434726 C37.4029452,79.7707273 33.0732197,75.0274996 30.918094,69.0862571 C28.7694597,63.1580364 29.0550787,56.731728 31.7197748,50.9988358 C34.3877166,45.2626882 39.1134139,40.9166285 45.0237813,38.7615038 C47.6592663,37.8011386 50.3856302,37.3225837 53.1055027,37.3225837 C56.5037205,37.3225837 59.8922013,38.071343 63.0664678,39.5558398 L63.0664678,39.5558398 Z M27.6594401,72.8528421 L5.8160726,80.994786 C4.19323697,79.673063 4.21595667,77.8369749 4.35227487,76.9221863 L26.1826597,68.7867533 L27.6594401,72.8528421 Z M79.3110524,51.4350695 C76.7632004,44.4097536 71.6415312,38.8005695 64.8872893,35.6395029 C58.1330475,32.4784363 50.5576508,32.1463778 43.5534922,34.6986705 C31.3497683,39.1489054 23.7873543,51.6141207 25.4036986,64.4830149 L1.14879734,73.4485941 L0.817738876,73.5625357 L0.330888188,75.1674851 C-0.31500039,77.3128434 -0.415616199,82.1016477 3.86217851,84.904612 L5.18965805,85.7738239 L29.9476383,76.63896 C32.7616353,80.8450342 36.6726692,84.2014293 41.2912594,86.3598095 C45.0432553,88.1177662 49.0516593,89 53.073046,89 C56.2862605,89 59.5124577,88.4368028 62.6218108,87.3006418 C69.619478,84.7516046 75.2052782,79.611209 78.3600707,72.8300538 C81.5181088,66.0488985 81.852413,58.450619 79.3110524,51.4350695 L79.3110524,51.4350695 Z" id="Fill-3" fill="#9FBDC9"></path>
                <g id="Group-7" transform="translate(40.000000, 0.000000)">
                    <mask id="mask-2" fill="white">
                        <use xlink:href="#path-1"></use>
                    </mask>
                    <g id="Clip-6"></g>
                    <path d="M60.3768,0.471538462 L7.10689524,0.471538462 C3.68746667,0.471538462 0.905942857,3.07553846 0.905942857,6.27076923 L0.905942857,32.1395385 C1.4208,31.9166154 1.94537143,31.7098462 2.47965714,31.516 C3.37660952,31.1896923 4.28975238,30.9086154 5.20289524,30.6695385 L5.20289524,6.27076923 C5.20289524,5.43723077 6.05775238,4.762 7.10689524,4.762 L60.3768,4.762 C61.4259429,4.762 62.2808,5.43723077 62.2808,6.27076923 L62.2808,74.5950769 C62.2808,75.4286154 61.4259429,76.1038462 60.3768,76.1038462 L40.0642286,76.1038462 C39.1899429,77.6255385 38.2055619,79.06 37.1078476,80.3943077 L60.3768,80.3943077 C63.7994667,80.3943077 66.5809905,77.7967692 66.5809905,74.5950769 L66.5809905,6.27076923 C66.5809905,3.07553846 63.7994667,0.471538462 60.3768,0.471538462" id="Fill-5" fill="#9FBDC9" mask="url(#mask-2)"></path>
                </g>
                <path d="M89.0569967,17.3738026 C84.6835309,13.1606313 78.9535717,10.8990297 72.883672,11.0034615 C62.1363212,11.1894807 53.0527178,18.9141719 51,29.2725031 C52.4218667,29.1909157 53.847002,29.2170237 55.2590627,29.3345095 C57.2202581,21.2736783 64.486487,15.3178011 72.9555825,15.1709438 C77.9337501,15.0828295 82.5883205,16.9299673 86.1544275,20.3729539 C89.7238031,23.812677 91.7340284,28.427258 91.8222822,33.3616615 C91.9464912,40.3096411 88.210414,46.6669281 82.2026188,49.927159 C82.689649,51.2684552 83.0753507,52.6293324 83.3727987,54 C91.2273863,50.1294957 96.1532554,42.1306709 95.9963597,33.2898647 C95.8917626,27.2393461 93.4271938,21.5869738 89.0569967,17.3738026" id="Fill-8" fill="#9FBDC9"></path>
            </g>
        </g>
    </g>
</svg>