<svg xmlns="http://www.w3.org/2000/svg" viewBox="0 0 168 624"><defs><style>.cls-1{fill:#009dff;}.cls-2{fill:#09519f;}.cls-3{fill:#f9c236;}.cls-4{fill:#fff;}.cls-5{fill:#ffba00;}.cls-6{fill:#042f70;}</style></defs><title>erro</title><g id="Camada_4" data-name="Camada 4"><path class="cls-1" d="M107.56,135.25c4.6-2.9,9.1-6,13.5-9.1a55.47,55.47,0,0,1-7.5,6.1ZM71.36,20.05c-6.8,5.8-14.7,10.4-22.3,14.8l-3.3,1.9C54.26,31.15,62.76,25.45,71.36,20.05Zm-14.9-.2c-4,3-8.3,5.8-12.5,8.4,2-1.5,4-2.9,6.1-4.2A70.58,70.58,0,0,1,56.46,19.85Zm44.9,12.8c2.3-1.9,4.6-3.7,7-5.4C106.16,29.15,103.76,31,101.36,32.65Zm30.5,75c-1.3,1-2.6,2-4,2.9C129.16,109.55,130.46,108.55,131.86,107.65Zm-28,13.7c-6.7,5.4-13.8,11.2-21.6,15.1A146.73,146.73,0,0,1,103.86,121.35Zm25.3-23c-4.3,3-8.8,5.7-13.4,8.3,4.9-3.6,9.9-7.1,15.1-10.2l4.5-2.7C133.26,95.45,131.16,97,129.16,98.35Zm-64.9,35,10.4-7.4a64,64,0,0,1-10.6,8.2C64.16,134,64.16,133.65,64.26,133.35Zm32.7-31c-4.2,3-8.5,5.9-12.9,8.6-2.3,1.4-4.6,2.7-6.9,4.1,7.6-5.7,15.2-11.3,23.1-16.6,4.3-2.9,8.8-5.6,13.2-8.3-4.3,3.1-8.5,6.3-12.8,9.5Zm60.2-51.2a12.19,12.19,0,0,0-5.9.9l.3-.3c1.5-1.4-.4-2.5-1.6-2.6a11.92,11.92,0,0,0-8.1,2.2l-1.3.9c1.9-1.5,3.8-2.9,5.7-4.4,1.1-.9,1.9-2.5.1-3.1a8.2,8.2,0,0,0-4.4-.1c.5-.5,1.1-1,1.6-1.5,1-.9,2-2.4.1-3.1-2.5-.9-5.7.1-8,1.3-3.3,1.7-6.6,3.5-9.8,5.3a113.25,113.25,0,0,0,10.6-10.2c1.3-1.5-.3-2.5-1.6-2.6a10.45,10.45,0,0,0-2.5,0,104.66,104.66,0,0,0,11.4-10.7c1.3-1.5-.3-2.5-1.6-2.6a11.64,11.64,0,0,0-8.1,2.2,370.48,370.48,0,0,1-33.3,25.4c-2.7,1.7-5.3,3.4-8,5.1C106.06,44,119,34,130,21.85c1.3-1.5-.3-2.5-1.6-2.6a11.56,11.56,0,0,0-3.2.1,15.92,15.92,0,0,0,1.3-2.2c1.2-2.2-4-2-4.8-1.8a8.33,8.33,0,0,0-1.5.4c.6-.6,1.3-1.2,1.9-1.8,1.4-1.4-.4-2.5-1.6-2.6a11.92,11.92,0,0,0-8.1,2.2c-5.6,4-11.1,8-16.7,12-1.5.9-3,1.7-4.5,2.5-9.4,5.3-18.4,11.2-27.6,16.8l-3.1,1.8.3-.2c19.1-12.3,39.2-23.2,56.6-37.7,1.7-1.4,1.4-3.1-.9-3.4a11.78,11.78,0,0,0-8.1,2.2,118.2,118.2,0,0,1-10.4,7c2.3-1.7,4.7-3.4,6.9-5.2,1.8-1.4,1.4-3.1-.9-3.4a12.32,12.32,0,0,0-8.1,2.2l-7.8,5.7a47.63,47.63,0,0,0,5-6.6c1-1.6-.1-2.4-1.7-2.6a12.2,12.2,0,0,0-7,1.5c-2.7,1.4-5.4,2.9-8.1,4.4.3-.4.7-.8,1-1.2,2.9-3.7-6.3-2.1-7.3-1.7a125.77,125.77,0,0,0-27.5,14.2,150.85,150.85,0,0,0-24.4,19.6c-1.5,1.5.1,2.2,1.6,2.5a71,71,0,0,0-9.4,8.8c-1.4,1.5.2,2.5,1.6,2.6a11.46,11.46,0,0,0,7-1.5c.6-.3,1.1-.7,1.7-1a74.85,74.85,0,0,0-9,7.9c-1.4,1.4.4,2.5,1.6,2.6a13.26,13.26,0,0,0,7-1.5c1.1-.5,2.2-1.1,3.3-1.6-4.3,3.7-8.6,7.7-12.6,11.8-1.4,1.4.4,2.5,1.6,2.6a6.69,6.69,0,0,0,2,0c-1.5,1.5-2.9,3.1-4.3,4.7s.3,2.5,1.6,2.6a10.75,10.75,0,0,0,3.1-.1c-1.3.9-2.7,1.8-4,2.8-1.9,1.4-1.3,3.1.9,3.3a11.78,11.78,0,0,0,8.1-2.2l4-2.8c11.9-8,24.7-14.7,37.2-21.7-4.6,3.6-9.3,7.2-14,10.6-4.4,2.3-8.9,4.5-13.4,6.6-7,3.3-16.8,7.1-19.9,14.9-1.1,2.8,5.4,1.7,6.3,1.5a35.74,35.74,0,0,0,6-2.1c-2.6,1.9-5.2,3.9-7.8,5.8-1.2.8-1.9,2.5-.1,3.1,2.5.9,5.8-.1,8-1.3l.1-.1a53.5,53.5,0,0,0-7.4,8.3c-1.1,1.5.1,2.4,1.7,2.6a12.2,12.2,0,0,0,7-1.5c.9-.5,1.9-1,2.8-1.5-2.3,2.1-4.6,4.2-6.9,6.4-1.4,1.4.4,2.5,1.7,2.6a10.75,10.75,0,0,0,5.3-.8,18.32,18.32,0,0,0-4.1,8.8c-.5,2.9,4.9,1.9,6.3,1.5a48.51,48.51,0,0,0,9.2-3.5c-1.8,1.9-3.5,3.9-5.2,6-1.2,1.5.2,2.5,1.7,2.6a11.83,11.83,0,0,0,3.7-.2,10.7,10.7,0,0,0-1.4,1.6c-1.3,1.5.3,2.5,1.7,2.6a11.46,11.46,0,0,0,7-1.5l.5-.3c-1.1,1-2.2,2.1-3.3,3.2-1.4,1.4.4,2.5,1.7,2.6a10.85,10.85,0,0,0,4-.3c.2,0,.5-.1.8-.1l.3,1.2c.7,2.1,4.9,1.2,6.3.8l.7-.2c-1.2,1.5.2,2.4,1.7,2.6a10.45,10.45,0,0,0,2.5,0c-1,1.9,3.8,2.1,4.8,1.9,2.2-.4,4.4-1,6.5-1.6-.6.3-1.2.7-1.8,1-.9.5-3.3,2.1-1.9,3.4s4.3.7,5.9.2,2.9-.8,4.3-1.3c-.8.7-1.3,1.6-.5,2.4,1.8,1.6,5.5.5,7.4-.3,10.6-4.1,21-8.4,30.3-14.4,1.8-.9,3.6-1.9,5.4-2.9,11.1-6.2,22.6-14.7,26.8-27.4.7-2-1.9-2.1-4.5-1.7a45.68,45.68,0,0,0,5.4-6.9c1.1-1.9-.1-2.5-1.9-2.5a30,30,0,0,0,6.2-9.5c.4-1.1-.7-1.6-1.6-1.8a19.22,19.22,0,0,0,1.6-4.2c.6-2.3-3.6-2-4.8-1.8a20.48,20.48,0,0,0-2.4.5c1.6-1.7,3.2-3.4,4.7-5.2,1.2-1.5-.2-2.4-1.6-2.6a6.6,6.6,0,0,0-1.4-.1,35.53,35.53,0,0,0,4.8-6.7c1.3-2.3-3.8-1.8-6.4-1.3,2.9-2,5.7-4.2,8.5-6.5C159.76,53.05,159.56,51.45,157.16,51.15Z"/><path class="cls-2" d="M14.26,77.75c0-15.3,6.1-31.1,16.6-43.2,10.9-12.4,25.3-20,40.6-21.3,1.2-.1,2.4-1,2.3-1.8,0-.3-.2-1-1.8-.8a65.91,65.91,0,0,0-33.7,13c1.5-1.2,3.1-2.4,4.7-3.5A69.86,69.86,0,0,1,82,8.55a71.18,71.18,0,0,1,27.6,5.5c17.3,7.4,30.6,21.9,37.4,41a81.45,81.45,0,0,1,2.4,31.1c-1.9,16.1-8.4,30.2-19,40.7A76.12,76.12,0,0,1,85.56,148a60.86,60.86,0,0,1-12.8.1,61.81,61.81,0,0,1-8.4-2.4C35.76,135.15,14.26,106.05,14.26,77.75ZM38,134.25a61.2,61.2,0,0,1-9.9-9.8A83.34,83.34,0,0,0,38,134.25Zm54.8,14.9c2.8-.6,5.6-1.3,8.3-2.1a81.34,81.34,0,0,0,36.8-23.6,68.13,68.13,0,0,1-26,20.6A57.56,57.56,0,0,1,92.76,149.15Zm24.7-140.5-.8-.5a1.55,1.55,0,0,0-.8-.2c-1.1,0-2.9.7-3.1,1.5a.79.79,0,0,0,.5.9,66.64,66.64,0,0,1,9.3,6.4,73.52,73.52,0,0,0-40.8-10.9c-22.6.5-43.2,10.2-56.5,26.5C13.56,46.55,7.56,66.15,9,86.15c1.3,19.8,10.3,38,24.5,49.7,10.2,8.4,23.1,13.5,37.5,14.6a71.64,71.64,0,0,0,14.6,1.5,69.3,69.3,0,0,0,36.8-10.5,71,71,0,0,0,33.5-52.6,76.38,76.38,0,0,0-4.3-35.3C146.16,34.35,134.06,18.35,117.46,8.65Z"/><path class="cls-3" d="M58.26,80.75h0c0,.1-.1.1-.1.2C58.16,80.85,58.26,80.85,58.26,80.75Z"/><path class="cls-3" d="M129.46,95.85v.2h-.2C129.36,96.05,129.36,96,129.46,95.85Z"/><path class="cls-2" d="M112.66,100.35c2.3-1.9,3.7-6.2.8-7.1C102.76,89.85,92,87,81,84.35a334.47,334.47,0,0,0,8.2-32.8c1.2-5.8-5.7-2.9-6.5,1.1-.1.3-.1.6-.2.9a2.24,2.24,0,0,0-2.4-1.9,3.81,3.81,0,0,0-2.9,1.9c-.2-3.7-5.9-1-6.6,2.5C68.86,64.35,67,72.65,65,81q-16-3.15-32.4-5.1c-2.5-.3-5.2,3.5-5.3,5.9-1.4,2.1-1.7,5.9.6,6.5,11.1,2.9,22.2,4.8,33.3,7.6-2.8,10.2-5.7,20.4-8.8,30.4-.6,1.8.3,3.5,2.3,3.5s3.7-2.8,4.3-4.5c0-.2.1-.3.1-.5-.3,1.9-.7,3.9-.9,5.8-.9,5.8,5.9,2.9,6.5-1.1.2-1.2.4-2.4.6-3.5a3.77,3.77,0,0,0,.9-1.5c3.6-8.1,6.8-16.4,9.8-24.7,11,2.8,21.9,5.7,32.9,8.5C112.16,109.15,116.26,101.65,112.66,100.35ZM81.76,57c-1.9,8.8-11.9,43.5-14.4,52.1-.3-.1-2.7,5.4-3,5.3C66.56,105.65,79,65.45,81.76,57Z"/><path class="cls-4" d="M109.66,94.35c2.3-1.9,3.7-6.2.8-7.1C99.76,83.85,89,82,78,79.35c3-9.9,5.8-21.8,8.2-33.8,1.2-5.8-5.7-2.9-6.5,1.1-.1.3-.1.6-.2.9a2.24,2.24,0,0,0-2.4-1.9,3.81,3.81,0,0,0-2.9,1.9c-.2-3.7-5.9-1-6.6,2.5C65.86,58.35,65,66.65,63,75c-10.7-2.1-22.5-3.8-33.4-5.1-2.5-.3-5.2,3.5-5.3,5.9-1.4,2.1-1.7,4.9.6,5.5,11.1,2.9,21.2,5.8,32.3,8.6-2.8,10.2-5.7,19.4-8.8,29.4-.6,1.8,1.3,4.5,3.3,4.5s3.7-2.8,4.3-4.5c0-.2.1-.3.1-.5-.3,1.9-.7,3.9-.9,5.8-.9,5.8,5.9,2.9,6.5-1.1.2-1.2.4-2.4.6-3.5a3.77,3.77,0,0,0,.9-1.5c3.6-8.1,6.8-16.4,9.8-24.7,11,2.8,21.9,5.7,32.9,8.5C109.16,103.15,113.26,95.65,109.66,94.35ZM78.76,51c-1.9,8.8-11.9,41.5-14.4,50.1-.3-.1-2.7,7.4-3,7.3C63.56,99.65,76,59.45,78.76,51Z"/><path class="cls-4" d="M150,16c-2-4.6-6.5-8.1-13.4-10.6a1.61,1.61,0,0,0-1.6-.3c-.4-.1-1.4-.3-3.5-.8a1.76,1.76,0,0,0-.6-.1,18.6,18.6,0,0,0-4.7.3,26.84,26.84,0,0,0-3.7,1.2,5,5,0,0,1-1.3.5,7.58,7.58,0,0,1-1.6.3,6.72,6.72,0,0,0-1.8.3,6.08,6.08,0,0,0-3.8,4,6.56,6.56,0,0,0-.4,2.3,2.77,2.77,0,0,1-.1.9v.1a5.9,5.9,0,0,1-.4.8,23.87,23.87,0,0,0-1,5.2,20.67,20.67,0,0,1-.5,3.7l-.6,2.7c-.5,2-1,4.1-1.6,6.1s-1.2,3.9-1.9,5.8c-.3,1-.6,1.9-1,2.9l-8.3,25.6a27.26,27.26,0,0,0-1.7,7.5,34.13,34.13,0,0,0,1.1,7.8c.2.7.3,1.5.5,2.2l3.2,15.4c.4,2.1,1,4.9,2.8,6.1a3,3,0,0,0,2.1.5,4.17,4.17,0,0,0,2.6,1.8,2.44,2.44,0,0,0,1.2,0c1.7-.3,3.4-1.6,5.3-3.2s4.1-3.2,6.4-4.8c3.9-2.7,7.9-5.5,10.9-9,2-2.3,2.5-5.9,3-9.1.2-1.2.4-2.4.6-3.4,1.6-6.8,3.5-13.6,5.3-20.2l.4-1.6c.4-1.4.9-2.6,1.4-3.9l.2-.6a7.17,7.17,0,0,0,.5-3.1,5,5,0,0,1,.2-1.7c.6-2.9,1.6-5.9,2.6-9.1a77.7,77.7,0,0,0,2.6-9.1c.1-.5.2-.9.3-1.4C150.76,24.25,151.66,20.05,150,16Z"/><path class="cls-4" d="M124.76,80c-.6.6-1.2,1.3-1.8,1.9l-.1-.1c.2-.7.4-1.5.6-2.2.4-1.7-1.4-4.1-2.4-1.7-.1.2-.1.3-.2.5v-.2c.4-2.2-1.9-4-2.6-1.2-.1.5-.3,1.1-.4,1.6a.1.1,0,0,1-.1-.1c.1-1.5.3-3.1.4-4.6.2-2.2-2-2.9-2.6-.6-.3,1.2-.6,2.4-.9,3.7l-.6-.3c-.3-1.1-.6-2.3-.9-3.4-.7-2.2-2.4-.5-2.5,1-.7-1.6-2-.2-2.3,1.2a20,20,0,0,0-1-2.6c-1-2.7-2.8.4-2.4,2.1a94,94,0,0,1,2.6,16.6c.2,2.9,2.8,1.1,2.6-1.1a1.27,1.27,0,0,0-.1-.6c.5,1.6,1,3.1,1.4,4.7.7,2.2,2.1.6,2.4-1.1a1.31,1.31,0,0,0,.6-.8c.2,1.3,1.2,2.7,2.2,1.2.5-.7.9-1.4,1.4-2a2.19,2.19,0,0,1,.5-.3l3.2-3.5c.3.6.8.8,1.4.2l1.4-1.4a2.91,2.91,0,0,0,.7-2.3c.3-.4.6-.9.9-1.3C127.16,82.35,126.26,78.35,124.76,80Z"/><path class="cls-5" d="M140.26,17.35c-.5-1-1-2-1.4-3s-1.4-.7-1.9.1c-.5-.9-1-1.7-1.5-2.6s-1.2-.8-1.6-.2c-.8-1.1-2.4.9-2.2,2.4a29.31,29.31,0,0,1,.5,2.9c-.5-2.1-1.1-4.2-1.6-6.3s-2.3-.6-2.5.9c-.1-.6-.3-1.2-.4-1.8-.7-2.8-3-1.2-2.6,1.1v.2c-.9-1.5-2.7,0-2.3,1.9.4,2.5.9,4.9,1.3,7.4.5,3.8.9,7.5,1.2,11.3a70.94,70.94,0,0,0-6.3-20.4c-1.1-2.1-2.5.9-2.3,2,.6,4.3,1.3,8.5,1.9,12.8-.9-1.2-2.5.3-2.2,2.1,1.6,9.1,2.9,18.1,4.1,27.3L116,35.05c-.6-2.8-2.9-1.1-2.6,1.1l.6,5.1a1.89,1.89,0,0,0-1.1,1.9c0,1.4.1,2.8.1,4.2-.7-1.2-2.4-.4-2.3,1.4.1,2.4.2,4.8.3,7.1-.5-1.1-1-2.3-1.6-3.4-.9-1.8-2.3.4-2.3,1.5v3.5a2.27,2.27,0,0,0-.6,1.6c.2,3.8.4,7.7.7,11.5.1,2.6,2.8,2.7,2.7.1h0c0,.1.1.2.1.4.5,1.3,1.3,1.2,1.9.6.7,1.5,2.6,1.3,2.5-1l-.3-5.7c.7,2.6,1.5,5.1,2.3,7.7.5,1.6,1.6,1.1,2.2.1.3,1.5.6,2.9.9,4.4.5,2.6,2.8,1.3,2.6-.8.2.9.4,1.9.6,2.8.6,2.9,2.8,1.1,2.6-1.1-.2-2.5-.4-5.1-.6-7.6.7,3.5,1.4,7.1,2.1,10.6.6,2.8,2.9,1.1,2.6-1.1-.8-5.5-1.7-11-2.5-16.6.5,2.5,1,4.9,1.7,7.3s2.8.1,2.5-1.6a30.62,30.62,0,0,1-.5-3.2c.7.9,2.2,0,2.3-1.6.1-2.3.1-4.5.2-6.8.8.4,1.8-.4,1.8-1.9-.1-6.7-.4-13.4-1-20.1l3.6,14.4c.7,2.6,2.6-.1,2.5-1.6-.3-3.4-.7-6.7-1.1-10,.7,0,1.4-1,1.5-2a42.94,42.94,0,0,0-.5-8.8,2.56,2.56,0,0,0,.8-1.9c.4.7.7,1.5,1.1,2.2.9,1.9,2.3-.4,2.3-1.5a25.85,25.85,0,0,0-1.4-9.9C142,14.35,140.56,15.75,140.26,17.35Zm-18.9,8.3c2.4,8.9,3,18.3,4.2,27.6Z"/><path class="cls-6" d="M134.46,8.85c-7.6-2.4-14.4.1-18.4,7a3.44,3.44,0,0,0,.1,2.8c-1.2,4.9-2.4,9.8-3.7,14.8L107.06,50c-2.2,6.6-4.3,13.3-6.5,19.9-1.1,3.4-1,4.8-.2,8.4,1.5,7.5,3.1,14.9,4.6,22.4.3,1.4,1.5.6,1.3-.5-1.3-6.3-2.6-12.5-3.9-18.8-.5-2.4-1.3-5-1.6-7.5v-.1c.2-.7.5-1.4.7-2.1,1.7-5.3,3.4-10.6,5.2-15.9-1.4,5.4-2.9,10.8-4.3,16.2v.1a2.24,2.24,0,0,0-.8,2.3c2.1,8.9,4.3,17.9,6.4,26.8,0,1.4.8,2.9,1.8,1.9,6.3-5.8,13.6-10.3,20-16.1a1.66,1.66,0,0,0,.5-1.2,2.46,2.46,0,0,0,.1-1.2c.1.6.1-.4.2-.8.2-.8.3-1.7.5-2.5.5-2.5,1.1-4.9,1.8-7.3,1.7-6.9,3.6-13.8,5.4-20.7,2.9-10.8,6.9-21.9,8.4-33a2.46,2.46,0,0,0-.1-1.2v-.3C145.46,13.75,139.06,10.35,134.46,8.85ZM119,19.15a1.7,1.7,0,0,0,0-1c.1-.4.3-.9.4-1.3a12.3,12.3,0,0,1,12.9-4.2,533,533,0,0,0-14.7,58.2,22.41,22.41,0,0,0-11.7-1.1C110.46,53,114.76,36.05,119,19.15Zm-8.9,78.6c.1.1.2.1.3.2-.1.1-.2.1-.2.2A.76.76,0,0,1,110.06,97.75Zm17.7-13.7c-3.5,3.1-7.2,5.8-10.8,8.6a9,9,0,0,0-8.7-2.4c-1.3-5.3-2.5-10.7-3.8-16l.1-.1a1.06,1.06,0,0,0,.8.1C113.36,72.25,124.16,76.35,127.76,84.05ZM144.06,20c0,.1,0,.1.1.2-1.7,11.4-5.8,22.9-8.8,34-1.8,6.9-3.7,13.7-5.4,20.6-.4,1.4-.8,3-1.3,4.6a22,22,0,0,0-8.4-7.3,505.88,505.88,0,0,1,14.8-58.5C138.16,14.65,143.36,17.05,144.06,20Z"/><path class="cls-5" d="M108,89.85c.9,0,1.9-2,.9-2s-1.9,2-.9,2Z"/><path class="cls-6" d="M107.26,88.85c4.9-2.1,8.2,2.9,10.2,6.6.6,1.1,1.4-.8,1-1.5-2.2-4.1-6.1-9.5-11.5-7.1-.8.3-.6,2.4.3,2Z"/><path class="cls-1" d="M107.59,291.23c4.6-2.9,9.1-6,13.5-9.1a55.47,55.47,0,0,1-7.5,6.1Q110.59,289.88,107.59,291.23Zm-42.5-111.1c-6.8,5.8-8.3,6.3-15.9,10.8l-3.3,1.9C54.29,187.23,56.39,185.53,65.09,180.13Zm-8.6-4.3a143.67,143.67,0,0,1-12.5,8.4q3-2.25,6-4.2C52.09,178.53,54.29,177.23,56.49,175.83Zm36.7,18.8c2.3-1.9,19.5-16.1,21.8-17.8C110.89,182.63,95.69,192.93,93.19,194.63Zm38.7,69c-1.3,1-2.6,2-4,2.9C129.19,265.53,130.49,264.53,131.89,263.63Zm-18.8,7.2c-6.7,5.4-23,17.8-30.8,21.7C89,286.83,105.49,275.33,113.09,270.83Zm16.1-16.4c-4.3,3-8.8,5.7-13.4,8.4,4.9-3.6,9.9-7.1,15.1-10.2l4.5-2.7C133.29,251.53,131.19,253,129.19,254.43Zm-64.9,35,10.4-7.4a64,64,0,0,1-10.6,8.2A1.88,1.88,0,0,0,64.29,289.43ZM97,258.33c-4.2,3-8.5,5.9-12.9,8.6-2.3,1.4-4.6,2.7-6.9,4.1,7.6-5.6,15.2-11.3,23.1-16.6,4.3-2.9,8.8-5.6,13.2-8.3-4.3,3.1-8.5,6.3-12.8,9.5Zm60.3-51.1a12.19,12.19,0,0,0-5.9.9l.3-.3c1.5-1.4-.4-2.5-1.6-2.6a11.92,11.92,0,0,0-8.1,2.2l-1.3.9c1.9-1.5,3.8-2.9,5.7-4.4,1.1-.9,1.9-2.4.1-3.1a8.2,8.2,0,0,0-4.4-.1c.5-.5,1.1-1,1.6-1.5,1-.9,2-2.4.1-3.1-2.5-.9-5.7.1-8,1.3-3.3,1.7-6.6,3.5-9.8,5.3a113.25,113.25,0,0,0,10.6-10.2c1.3-1.5-.3-2.5-1.6-2.6a10.44,10.44,0,0,0-2.5,0,104.66,104.66,0,0,0,11.4-10.7c1.3-1.5-.3-2.4-1.6-2.6a11.64,11.64,0,0,0-8.1,2.2,370.47,370.47,0,0,1-33.3,25.4c-2.7,1.7-5.3,3.4-8,5.1,13.3-9.3,26.2-19.3,37.2-31.4,1.3-1.4-.3-2.5-1.6-2.6a11.56,11.56,0,0,0-3.2.1,15.92,15.92,0,0,0,1.3-2.2c1.2-2.2-4-2-4.8-1.8a8.33,8.33,0,0,0-1.5.4c.7-.6,1.3-1.2,1.9-1.8,1.4-1.4-.4-2.5-1.6-2.6a12.48,12.48,0,0,0-8.1,2.2c-5.6,4-11.1,8-16.7,12-1.5.9-3,1.7-4.5,2.5-9.4,5.3-18.4,11.2-27.6,16.8l-3.1,1.9.3-.2c19.1-12.3,39.2-23.2,56.6-37.7,1.7-1.5,1.4-3.1-.9-3.4a11.78,11.78,0,0,0-8.1,2.2,118.2,118.2,0,0,1-10.4,7c2.3-1.7,4.7-3.4,6.9-5.2,1.8-1.4,1.4-3.1-.9-3.4a11.78,11.78,0,0,0-8.1,2.2l-7.8,5.7a47.63,47.63,0,0,0,5-6.6c1-1.5-.1-2.4-1.7-2.6a12.2,12.2,0,0,0-7,1.5c-2.7,1.4-5.4,2.9-8.1,4.4.3-.4.7-.8,1-1.2,2.9-3.7-6.3-2.1-7.3-1.7-9.7,3.4-18.9,8.6-27.5,14.2a140.19,140.19,0,0,0-24.5,19.4c-1.5,1.4.1,2.2,1.6,2.5a65.33,65.33,0,0,0-9.4,8.8c-1.3,1.5.3,2.5,1.6,2.6a11.46,11.46,0,0,0,7-1.5c.6-.3,1.1-.7,1.7-1a83.43,83.43,0,0,0-9,7.9c-1.4,1.4.4,2.5,1.7,2.6a13.26,13.26,0,0,0,7-1.5c1.1-.5,2.2-1.1,3.3-1.6-4.3,3.7-8.6,7.7-12.6,11.8-1.4,1.4.4,2.5,1.6,2.6a6.69,6.69,0,0,0,2,0c-1.5,1.5-2.9,3.1-4.3,4.7s.3,2.5,1.6,2.6a10.75,10.75,0,0,0,3.1-.1c-1.3.9-2.7,1.8-4,2.8-1.9,1.4-1.3,3.1.9,3.4a11.78,11.78,0,0,0,8.1-2.2l4-2.8c11.9-8,24.7-14.7,37.2-21.7-4.6,3.6-14.6,8.7-19.4,12.1-4.4,2.3-3.6,3-8.1,5.1-7,3.3-16.8,7.1-19.9,14.9-1.1,2.8,5.4,1.7,6.3,1.5a46.9,46.9,0,0,0,6-2c-2.6,1.9-5.2,3.9-7.8,5.8-1.2.8-1.9,2.5-.1,3.1,2.5.9,5.8-.1,8-1.3l.1-.1a53.5,53.5,0,0,0-7.4,8.3c-1.1,1.5.1,2.4,1.6,2.6a12.2,12.2,0,0,0,7-1.5c.9-.5,1.9-1,2.8-1.5-2.4,2.1-4.7,4.2-6.9,6.4-1.4,1.4.4,2.5,1.6,2.6a11.32,11.32,0,0,0,5.4-.8,19,19,0,0,0-4.2,8.8c-.5,2.9,4.9,1.9,6.3,1.5,3.2-.8,2.7,2.8,17.3-18-1.8,1.9-11.6,18.4-13.3,20.5-1.2,1.5.2,2.5,1.7,2.6a11.83,11.83,0,0,0,3.7-.2,10.7,10.7,0,0,0-1.4,1.6c-1.3,1.5.3,2.5,1.7,2.6a11.46,11.46,0,0,0,7-1.5l.5-.3c-1.1,1-2.2,2.1-3.3,3.2-1.4,1.4.4,2.5,1.7,2.6a10.85,10.85,0,0,0,4-.3c.2,0,.5-.1.8-.1l.3,1.2c.7,2.1,4.9,1.2,6.3.8l.7-.2c-1.2,1.5.2,2.4,1.7,2.6a10.45,10.45,0,0,0,2.5,0c-1,1.9,3.8,2.1,4.8,1.9,2.2-.4,4.4-1,6.5-1.6-.6.3-1.2.7-1.8,1-.9.5-3.3,2.1-1.9,3.4s4.3.7,5.9.2,2.9-.8,4.3-1.3c-.8.7-1.3,1.6-.5,2.4,1.8,1.6,5.5.5,7.4-.3,10.6-4.1,21-8.5,30.3-14.4,1.8-.9,3.6-1.9,5.4-2.9,11.1-6.2,22.6-14.7,26.8-27.4.7-2-1.9-2.1-4.5-1.7a45.68,45.68,0,0,0,5.4-6.9c1.1-1.9-.1-2.5-1.9-2.5a30,30,0,0,0,6.2-9.5c.4-1.1-.7-1.6-1.6-1.8a19.22,19.22,0,0,0,1.6-4.2c.6-2.3-3.6-2-4.8-1.8a20.48,20.48,0,0,0-2.4.5c1.6-1.7,3.2-3.4,4.7-5.2,1.2-1.5-.2-2.4-1.6-2.6a6.6,6.6,0,0,0-1.4-.1,35.53,35.53,0,0,0,4.8-6.7c1.3-2.3-3.8-1.8-6.4-1.3a102.38,102.38,0,0,0,8.5-6.6C159.79,209.13,159.59,207.53,157.29,207.23Z"/><path class="cls-2" d="M14.29,233.83c0-15.3,6.1-31.1,16.6-43.2,10.9-12.5,25.3-18.1,40.6-19.4,1.2-.1,2.4-3,2.3-3.8,0-.3-.2-1-1.8-.8a65.91,65.91,0,0,0-33.7,13c1.5-1.2,3.1-2.4,4.7-3.5a69.86,69.86,0,0,1,39-11.6,71.18,71.18,0,0,1,27.6,5.5c17.3,7.4,30.6,21.9,37.4,41a81.45,81.45,0,0,1,2.4,31.1c-1.9,16.1-8.4,30.2-19,40.7a76.12,76.12,0,0,1-44.8,21.1,60.86,60.86,0,0,1-12.8.1,61.81,61.81,0,0,1-8.4-2.4C35.79,291.23,14.29,262.13,14.29,233.83ZM38,290.23a61.2,61.2,0,0,1-9.9-9.8A83.34,83.34,0,0,0,38,290.23Zm54.8,15c2.8-.6,5.6-1.3,8.3-2.1a81.34,81.34,0,0,0,36.8-23.6,68.13,68.13,0,0,1-26,20.6A62,62,0,0,1,92.79,305.23Zm24.7-140.6-.8-.5a1.55,1.55,0,0,0-.8-.2c-1.1,0-2.9.7-3.1,1.5a.79.79,0,0,0,.5.9,66.64,66.64,0,0,1,9.3,6.4c-11.8-7.4-26.2-12.3-40.8-11.9-22.6.6-44.2,11.3-57.6,27.6-11.6,14.2-16.6,33.8-15.2,53.7s10.3,38,24.5,49.7c10.2,8.4,23.1,13.5,37.5,14.6a71.64,71.64,0,0,0,14.6,1.5,69.3,69.3,0,0,0,36.8-10.5,71,71,0,0,0,33.5-52.6,76.38,76.38,0,0,0-4.3-35.3A75.58,75.58,0,0,0,117.49,164.63Z"/><path class="cls-3" d="M35.19,215.33h0c-.1,0-.1-.1,0,0C35.09,215.23,35.19,215.23,35.19,215.33Z"/><path class="cls-3" d="M58.39,236.83h0c0,.1-.1.1-.1.2C58.29,236.93,58.29,236.83,58.39,236.83Z"/><path class="cls-3" d="M129.49,251.93v.2h-.2C129.39,252,129.39,251.93,129.49,251.93Z"/><path class="cls-2" d="M112.69,256.33c2.3-1.9,3.7-6.2.8-7.1-10.7-3.4-21.5-6.3-32.5-8.9,3.3-10.8,7-21.7,9.2-32.8,1.2-5.8-6.7-2.9-7.5,1.1-.1.3-.1.6-.2.9a2.24,2.24,0,0,0-2.4-1.9,3.81,3.81,0,0,0-2.9,1.9c-.2-3.7-5.9-1-6.6,2.5-1.7,8.3-3.6,16.6-5.6,24.9q-16-3.15-32.4-5.1c-2.5-.3-5.2,3.5-5.3,5.9-1.4,2.1-1.7,5.9.6,6.5,11.1,2.9,22.2,4.8,33.3,7.6-2.7,10.2-5.6,20.3-8.7,30.4-.6,1.8.3,3.5,2.3,3.5s3.7-2.8,4.3-4.5c0-.2.1-.3.1-.5-.3,1.9-.7,3.9-.9,5.8-.9,5.8,5.9,2.9,6.5-1.1.2-1.2.4-2.4.6-3.5a3.77,3.77,0,0,0,.9-1.5c3.6-8.1,6.8-16.4,9.8-24.7,11,2.8,21.9,6.7,32.9,9.5C112.19,266.13,116.29,257.63,112.69,256.33ZM81.79,213c-1.9,8.8-11.9,43.5-14.4,52.1-.3-.1-2.7,5.4-3,5.3C66.59,261.73,79,221.53,81.79,213Z"/><path class="cls-4" d="M109.69,250.33c2.3-1.9,3.7-6.2.8-7.1-10.7-3.4-21.5-5.3-32.5-7.9,3-9.9,6.8-21.8,9.2-33.8,1.2-5.8-6.3-4-7.1-.1-.1.3-.5,1.7-.6,2a2.24,2.24,0,0,0-2.4-1.9c-1.2,0-2.2,1.9-2.9,2.9-.2-3.7-5.9-2-6.6,1.5-1.7,8.3-2.6,16.6-4.6,24.9-10.7-2.1-22.5-4.8-33.4-6.1-2.5-.3-5.2,4.5-5.3,6.9-1.4,2.1-1.7,4.9.6,5.5,11.1,2.9,21.2,5.8,32.3,8.6-2.7,10.2-5.6,19.3-8.7,29.4-.6,1.8,1.3,4.5,3.3,4.5s3.7-2.8,4.3-4.5c0-.2.1-.3.1-.5-.3,1.9-.7,3.9-.9,5.8-.9,5.8,5.9,2.9,6.5-1.1.2-1.2,1.8-2.8,1.9-4,.4-.4.7.1,1-.5,3.6-8.1,5.4-16.9,8.4-25.2,11,2.8,21.9,5.7,32.9,8.5C109.19,259.13,113.29,251.63,109.69,250.33ZM78.79,207c-1.9,8.8-11.9,41.5-14.4,50.1-.3-.1-2.7,7.4-3,7.3C63.59,255.73,76,215.53,78.79,207Z"/><path class="cls-4" d="M150,171.93c-2-4.6-6.5-8.1-13.4-10.6a1.61,1.61,0,0,0-1.6-.3c-.4-.1-1.4-.3-3.5-.8a1.76,1.76,0,0,0-.6-.1,18.6,18.6,0,0,0-4.7.3,26.84,26.84,0,0,0-3.7,1.2,5,5,0,0,1-1.3.5,7.58,7.58,0,0,1-1.6.3,6.72,6.72,0,0,0-1.8.3,6.08,6.08,0,0,0-3.8,4,6.56,6.56,0,0,0-.4,2.3,2.77,2.77,0,0,1-.1.9v.1a5.9,5.9,0,0,1-.4.8c-.6,1.7-14.9,52.1-14.9,52.1a27.26,27.26,0,0,0-1.7,7.5,34.13,34.13,0,0,0,1.1,7.8c.2.7.3,1.5.5,2.2l3.2,15.4c.4,2.1,1,4.9,2.8,6.1a3,3,0,0,0,2.1.5,4.17,4.17,0,0,0,2.6,1.8,2.44,2.44,0,0,0,1.2,0c1.7-.3,3.4-1.6,5.3-3.2s4.1-3.2,6.4-4.8c3.9-2.7,7.9-5.5,10.9-9,2-2.3,2.5-5.9,3-9.1.2-1.2.4-2.4.6-3.4,1.6-6.8,3.5-13.6,5.3-20.2l.4-1.6c.4-1.4.9-2.6,1.4-3.9l.2-.6a7.17,7.17,0,0,0,.5-3.1,5,5,0,0,1,.2-1.7c.6-2.9,1.6-5.9,2.6-9.1a77.7,77.7,0,0,0,2.6-9.1c.1-.5.2-.9.3-1.4C150.79,180.23,151.79,176,150,171.93Z"/><path class="cls-4" d="M124.89,236c-.6.6-1.2,1.3-1.8,1.9l-.1-.1c.2-.7.4-1.5.6-2.2.4-1.7-1.4-4.1-2.4-1.7-.1.2-.1.3-.2.5v-.2c.4-2.2-1.9-4-2.6-1.2-.1.5-.3,1.1-.4,1.6a.1.1,0,0,1-.1-.1c.1-1.5.3-3.1.4-4.6.2-2.2-2-2.9-2.6-.6-.3,1.2-.6,2.4-.9,3.7l-.6-.3c-.3-1.1-.6-2.3-.9-3.4-.7-2.2-2.4-.5-2.5,1-.7-1.6-2-.2-2.3,1.2a20,20,0,0,0-1-2.6c-1-2.7-2.8.4-2.4,2.1a94,94,0,0,1,2.6,16.6c.2,2.9,2.8,1.1,2.6-1.1a1.27,1.27,0,0,0-.1-.6c.5,1.6,1,3.1,1.4,4.7.7,2.2,2.1.6,2.4-1.1a1.31,1.31,0,0,0,.6-.8c.2,1.3,1.2,2.7,2.2,1.2.5-.7.9-1.4,1.4-2a2.19,2.19,0,0,1,.5-.3l3.2-3.5c.3.6.8.8,1.4.2l1.4-1.4a2.91,2.91,0,0,0,.7-2.3c.3-.4.6-.9.9-1.3C127.19,238.33,126.29,234.43,124.89,236Z"/><path class="cls-5" d="M140.29,173.33c-.5-1-1-2-1.4-3s-1.4-.7-1.9.1c-.5-.9-1-1.7-1.5-2.6s-1.2-.8-1.6-.2c-.8-1.1-2.4.9-2.2,2.4a29.31,29.31,0,0,1,.5,2.9c-.5-2.1-1.1-4.2-1.6-6.3s-2.3-.6-2.5.9c-.1-.6-.3-1.2-.4-1.8-.7-2.8-3-1.2-2.6,1.1v.2c-.9-1.5-2.7,0-2.3,1.9.4,2.5.9,4.9,1.3,7.4.5,3.8.9,7.5,1.2,11.3a70.94,70.94,0,0,0-6.3-20.4c-1.1-2.1-2.5.9-2.3,2,.6,4.3,1.3,8.5,1.9,12.8-.9-1.2-3.5.3-3.2,2.1,1.6,9.1,3.9,18.1,5.1,27.3L116,191c-.6-2.8-2.9-1.1-2.6,1.1l.6,5.1a1.89,1.89,0,0,0-1.1,1.9c0,1.4.1,2.8.1,4.2-.7-1.2-2.4-.4-2.3,1.4.1,2.4.2,4.8.3,7.1-.5-1.1-1-2.3-1.6-3.4-.9-1.8-2.3.4-2.3,1.5v3.5a2.27,2.27,0,0,0-.6,1.6c.2,3.8.4,7.7.7,11.5.1,2.6,2.8,2.7,2.7.1h0c0,.1.1.2.1.4.5,1.3,1.3,1.2,1.9.6.7,1.5,2.6,1.3,2.5-1l-.3-5.7c.7,2.6,1.5,5.1,2.3,7.7.5,1.6,1.6,1.1,2.2.1.3,1.5.6,2.9.9,4.4.5,2.6,2.8,1.3,2.6-.8.2.9.4,1.9.6,2.8.6,2.9,2.8,1.1,2.6-1.1-.2-2.5-.4-5.1-.6-7.6.7,3.5,1.4,7.1,2.1,10.6.6,2.8,2.9,1.1,2.6-1.1-.8-5.5-1.7-11-2.5-16.6.5,2.5,1,4.9,1.7,7.3s2.8.1,2.5-1.6a30.62,30.62,0,0,1-.5-3.2c.7.9,2.2,0,2.3-1.6.1-2.3.1-4.5.2-6.8.8.4.5-2.4,1.8-1.9,4.5,1.6,0-12.8-1-20.1l3.6,14.4c.7,2.6,2.6-.1,2.5-1.6-.3-3.4-.7-6.7-1.1-10,.7,0,1.4-1,1.5-2a42.94,42.94,0,0,0-.5-8.8,2.56,2.56,0,0,0,.8-1.9c.4.7.7,1.5,1.1,2.2.9,1.9,2.3-.4,2.3-1.5a25.85,25.85,0,0,0-1.4-9.9C142,170.33,140.59,171.83,140.29,173.33Zm-18.9,8.3c2.4,8.9,3,18.3,4.2,27.6Z"/><path class="cls-6" d="M134.49,164.93c-7.6-2.4-14.4.1-18.4,7a3.44,3.44,0,0,0,.1,2.8c-1.2,4.9-2.4,9.8-3.7,14.8l-5.4,16.5c-2.2,6.6-4.3,13.3-6.5,19.9-1.1,3.4-1,4.8-.2,8.4,1.5,7.5,2.1,14.9,3.6,22.4.3,1.4,2.5.6,2.3-.5-1.3-6.3-2.6-12.5-3.9-18.8-.5-2.4-1.3-5-1.6-7.5v-.1c.2-.7.5-1.4.7-2.1,1.7-5.3,3.4-10.6,5.2-15.9-1.4,5.4-2.9,10.8-4.3,16.2v.1a2.24,2.24,0,0,0-.8,2.3c2.1,8.9,4.3,17.9,6.4,26.8,0,1.4,1.8,2.9,2.8,1.9,6.3-5.8,12.6-10.3,19-16.1a1.66,1.66,0,0,0,.5-1.2,2.46,2.46,0,0,0,.1-1.2c.1.6.1-.4.2-.8.2-.8.3-1.7.5-2.5.5-2.5,2.1-4.9,2.8-7.3,1.7-6.9,3.6-13.8,5.4-20.7,2.9-10.8,6.9-21.9,8.4-33,.1-.4-1-.8-1.1-1.2v-.3C145.49,169.73,139.09,166.33,134.49,164.93ZM119,175.13a1.7,1.7,0,0,0,0-1c.1-.4.3-.9.4-1.3,3.2-3.9,6.8-5.4,11.9-4.2a533,533,0,0,0-14.7,58.2,18.85,18.85,0,0,0-10.7-1.1Q112.79,200.68,119,175.13Zm-8.9,78.6c.1.1.2.1.3.2-.1.1-.2.1-.2.2C110.19,254,110.09,253.83,110.09,253.73Zm16.7-12.6c-3.5,3.1-6.2,4.8-9.8,7.6a9,9,0,0,0-8.7-2.4c-1.3-5.3-2.5-10.7-3.8-16l.1,1.9c.2.1.5-.8.8-.9C113.39,229.23,123.19,233.33,126.79,241.13Zm17.3-65.2c0,.1,0,.1.1.2-1.7,11.4-5.8,22.9-8.8,34-1.8,6.9-3.7,13.7-5.4,20.6-.4,1.4-.8,3-1.3,4.6a22,22,0,0,0-8.4-7.3,505.88,505.88,0,0,1,14.8-58.5C138.19,170.73,143.39,173.13,144.09,175.93Z"/><path class="cls-5" d="M108,245.83c.9,0,1.9-2,.9-2s-1.9,2-.9,2Z"/><path class="cls-6" d="M107.29,244.93c4.9-2.1,8.2,2.9,10.2,6.6.6,1.1,2.4-.8,2-1.5-2.2-4.1-7.1-9.5-12.5-7.1-.8.3-.6,2.4.3,2Z"/><path class="cls-1" d="M107.59,447.21c4.6-2.9,9.1-6,13.5-9.1a55.47,55.47,0,0,1-7.5,6.1Q110.59,445.86,107.59,447.21ZM82.49,324c-6.8,5.8-25.8,18.5-33.4,22.9l-3.3,1.9C54.29,343.21,73.89,329.41,82.49,324Zm-21.3,4.8c-4,3-21.8,16.6-26.1,19.2,2-1.5,12.8-10.7,14.9-12C52.09,334.51,59,330.11,61.19,328.81Zm38.1,17.6c2.3-1.9,13.4-11.9,15.8-13.6C110.89,338.61,101.69,344.71,99.29,346.41Zm32.6,73.2c-1.3,1-2.6,2-4,2.9C129.19,421.51,130.49,420.61,131.89,419.61Zm-18.9,7.2c-6.7,5.4-23,17.8-30.8,21.7A328.47,328.47,0,0,1,113,426.81Zm-48.7,18.6,10.4-7.4a64,64,0,0,1-10.6,8.2A1.88,1.88,0,0,0,64.29,445.41ZM97,414.31c-4.2,3-8.5,5.9-12.9,8.6-2.3,1.4-4.6,2.7-6.9,4.1,7.6-5.6,15.2-11.3,23.1-16.6,4.3-2.9,8.8-5.6,13.2-8.3-4.3,3.1-8.5,6.3-12.8,9.5Zm60.3-51.1a12.19,12.19,0,0,0-5.9.9l.3-.3c1.5-1.4-.4-2.5-1.6-2.6a11.92,11.92,0,0,0-8.1,2.2l-1.3.9c1.9-1.5,3.8-2.9,5.7-4.4,1.1-.9,1.9-2.5.1-3.1a8.2,8.2,0,0,0-4.4-.1c.5-.5,1.1-1,1.6-1.5,1-.9,2-2.4.1-3.1-2.5-.9-5.7.1-8,1.3-3.3,1.7-6.6,3.5-9.8,5.3a113.25,113.25,0,0,0,10.6-10.2c1.3-1.5-.3-2.5-1.6-2.6a10.44,10.44,0,0,0-2.5,0,104.65,104.65,0,0,0,11.4-10.7c1.3-1.5-.3-2.5-1.6-2.6a11.64,11.64,0,0,0-8.1,2.2,370.47,370.47,0,0,1-33.3,25.4c-2.7,1.7-5.3,3.4-8,5.1,13.3-9.3,26.2-19.3,37.2-31.4,1.3-1.5-.3-2.5-1.6-2.6a11.56,11.56,0,0,0-3.2.1,15.92,15.92,0,0,0,1.3-2.2c1.2-2.2-4-2-4.8-1.8a8.33,8.33,0,0,0-1.5.4c.6-.6,1.3-1.2,1.9-1.8,1.4-1.4-.4-2.5-1.6-2.6a11.92,11.92,0,0,0-8.1,2.2c-5.6,4-11.1,8-16.7,12-1.5.9-3.3,2.3-4.8,3.1-9.4,5.3-18.1,10.6-27.3,16.2l-3.1,1.8.3-.2c19.1-12.3,39.2-23.2,56.6-37.7,1.7-1.4,1.4-3-.9-3.4a11.78,11.78,0,0,0-8.1,2.2c-3.3,2.6-2.5.9-6.1,3.1,2.3-1.7.3.5,2.6-1.3,1.8-1.4,1.4-3.1-.9-3.4a11.78,11.78,0,0,0-8.1,2.2c-2.6,1.9-12.8,9.6-15.4,11.4,1.8-2,12.1-9.1,13.6-11.5,1-1.6-1-3.3-2.6-3.5a12.2,12.2,0,0,0-7,1.5c-2.7,1.4-5.4,2.9-8.1,4.4.3-.4.7-.8,1-1.2,2.9-3.7-6.3-2.1-7.3-1.7-9.7,3.4-18.9,8.6-27.5,14.2A152.11,152.11,0,0,0,18,353.61c-1.4,1.5.1,2.2,1.6,2.5a65,65,0,0,0-9.4,8.8c-1.3,1.5.3,2.5,1.6,2.6a12.2,12.2,0,0,0,7-1.5c.6-.3,1.1-.7,1.7-1a83.43,83.43,0,0,0-9,7.9c-1.4,1.4-3.1,7.1-1.8,7.2,2.4.3,8.3-5.1,10.4-6.1,1.1-.5,2.2-1.1,3.3-1.6-4.3,3.7-8.6,7.7-12.6,11.8-1.4,1.4.4,2.5,1.6,2.6a6.7,6.7,0,0,0,2,0c-1.5,1.5-2.9,3.1-4.3,4.7s.3,2.5,1.6,2.6a10.75,10.75,0,0,0,3.1-.1c-1.3.9-2.7,1.8-4,2.8-1.9,1.4-1.3,3.1.9,3.4a11.78,11.78,0,0,0,8.1-2.2l4-2.8c11.9-8,24.7-14.7,37.2-21.7-4.6,3.6-14.6,8.7-19.4,12.1-4.4,2.3-3.6,3-8.1,5.1-7,3.3-16.8,7.1-19.9,14.9-1.1,2.8,5.4,1.7,6.3,1.5a46.9,46.9,0,0,0,6-2c-2.6,1.9-5.2,3.9-7.8,5.8-1.2.8-1.9,2.5-.1,3.1,2.5.9-.4,5.2,1.8,4.1L33.59,408c-2.7,2.5-12.7,9.9-14.9,12.9-1.1,1.5.1,2.4,1.6,2.6a12.2,12.2,0,0,0,7-1.5c.9-.5,7.4-5.8,8.4-6.3-2.3,2.1-11.8,9-14,11.2-1.4,1.4,2,2.5,3.2,2.6a11.32,11.32,0,0,0,5.4-.8,19,19,0,0,0-4.2,8.8c-.5,2.9,4.9,1.9,6.3,1.5,3.2-.8,2.7,2.8,17.3-18-1.8,1.9-11.6,18.4-13.3,20.5-1.2,1.5.2,2.5,1.7,2.6a11.83,11.83,0,0,0,3.7-.2,10.7,10.7,0,0,0-1.4,1.6c-1.3,1.5.3,2.5,1.7,2.6a11.46,11.46,0,0,0,7-1.5l.5-.3c-1.1,1-2.2,2.1-3.3,3.2-1.4,1.4.4,2.5,1.7,2.6a10.85,10.85,0,0,0,4-.3c.2,0,.5-.1.8-.1l.3,1.2c.7,2.1,4.9,1.2,6.3.8l.7-.2c-1.2,1.5.2,2.4,1.7,2.6a10.45,10.45,0,0,0,2.5,0c-1,1.9,3.8,2.1,4.8,1.9,2.2-.4,4.4-1,6.5-1.6-.6.3-1.2.7-1.8,1-.9.5-3.3,2.1-1.9,3.4s4.3.7,5.9.2,2.9-.8,4.3-1.3c-.8.7-1.3,1.6-.5,2.4,1.8,1.6,5.5.5,7.4-.3,10.6-4.1,21-8.5,30.3-14.4,1.8-.9,3.6-1.9,5.4-2.9,11.1-6.2,22.6-14.7,26.8-27.4.7-2-1.9-2.1-4.5-1.7a45.68,45.68,0,0,0,5.4-6.9c1.1-1.9-.1-2.5-1.9-2.5a30,30,0,0,0,6.2-9.5c.4-1.1-.7-1.6-1.6-1.8a19.22,19.22,0,0,0,1.6-4.2c.6-2.3-3.6-2-4.8-1.8a20.48,20.48,0,0,0-2.4.5c1.6-1.7,3.2-3.4,4.7-5.2,1.2-1.5-.2-2.5-1.6-2.6a6.6,6.6,0,0,0-1.4-.1,35.53,35.53,0,0,0,4.8-6.7c1.3-2.3-3.8-1.8-6.4-1.3,2.9-2,5.7-4.2,8.5-6.5C159.79,365.11,159.59,363.51,157.29,363.21Z"/><path class="cls-2" d="M14.29,389.81c0-15.3,6.1-31.1,16.6-43.2,10.9-12.5,25.3-18.1,40.6-19.4,1.2-.1,2.4-3,2.3-3.8,0-.3-.2-1-1.8-.8a65.91,65.91,0,0,0-33.7,13c1.5-1.2,3.1-2.4,4.7-3.5,11-7.5,24.9-10.6,39-10.6,9.6,0,19.1.9,27.6,4.5,17.3,7.4,31.6,19.9,38.4,39a81.45,81.45,0,0,1,2.4,31.1c-1.9,16.1-9.4,32.2-20,42.7a76.12,76.12,0,0,1-44.8,21.1,60.86,60.86,0,0,1-12.8.1,61.81,61.81,0,0,1-8.4-2.4C35.79,447.21,14.29,418.11,14.29,389.81Zm78.5,71.4c2.8-.6,6.6-1.3,9.3-2.1,14.3-4.4,30.3-15.8,39.8-26.6-6.7,8.8-19.8,19-30,23.6A62.05,62.05,0,0,1,92.79,461.21Zm24.7-140.6-.8-.5a1.55,1.55,0,0,0-.8-.2c-1.1,0-2.9.7-3.1,1.5a.79.79,0,0,0,.5.9,66.64,66.64,0,0,1,9.3,6.4c-11.8-7.4-26.2-12.3-40.8-11.9-22.6.5-44.2,11.2-57.5,27.5-11.7,14.2-16.6,32.8-15.3,52.8,1.3,19.8,10.3,37,24.5,48.7,10.2,8.4,23.1,15.5,37.5,16.6a71.64,71.64,0,0,0,14.6,1.5,69.3,69.3,0,0,0,36.8-10.5,71,71,0,0,0,33.5-52.6,76.38,76.38,0,0,0-4.3-35.3A75.58,75.58,0,0,0,117.49,320.61Z"/><path class="cls-3" d="M35.19,371.31h0C35.09,371.21,35.09,371.31,35.19,371.31Z"/><path class="cls-3" d="M58.29,392.81h0c0,.1-.1.1-.1.2A.35.35,0,0,1,58.29,392.81Z"/><path class="cls-3" d="M129.49,407.91v.2h-.2Z"/><path class="cls-2" d="M112.69,412.31c2.3-1.9,3.7-6.2.8-7.1-10.7-3.4-21.5-6.3-32.5-8.9,3.3-10.8,7-21.7,9.2-32.8,1.2-5.8-6.7-2.9-7.5,1.1-.1.3-.1.6-.2.9a2.24,2.24,0,0,0-2.4-1.9,3.81,3.81,0,0,0-2.9,1.9c-.2-3.7-5.9-1-6.6,2.5-1.7,8.3-3.6,16.6-5.6,24.9q-16-3.15-32.4-5.1c-2.5-.3-5.2,3.5-5.3,5.9-1.4,2.1-1.7,5.9.6,6.5,11.1,2.9,22.2,4.8,33.3,7.6-2.7,10.2-5.6,20.3-8.7,30.4-.6,1.8.3,3.5,2.3,3.5s3.7-2.8,4.3-4.5c0-.2.1-.3.1-.5-.3,1.9-.7,3.9-.9,5.8-.9,5.8,5.9,2.9,6.5-1.1.2-1.2,1.7-2.6,1.9-3.8a5.71,5.71,0,0,0,1.1-1.6c3.6-8.1,6.9-18.3,9.9-26.6,11,2.8,20.4,9.1,31.3,11.9C112.19,422.11,116.29,413.61,112.69,412.31ZM81.79,369c-1.9,8.8-11.9,43.5-14.4,52.1-.3-.1-2.7,5.4-3,5.3C66.59,417.71,79,377.51,81.79,369Z"/><path class="cls-4" d="M109.69,406.31c2.3-1.9,3.7-6.2.8-7.1-10.7-3.4-21.5-5.3-32.5-7.9,3-9.9,6.8-21.8,9.2-33.8,1.2-5.8-6.3-4-7.1-.1-.1.3-.5,1.7-.6,2a2.24,2.24,0,0,0-2.4-1.9c-1.2,0-2.2,1.9-2.9,2.9-.2-3.7-5.9-2-6.6,1.5-1.7,8.3-3.6,16.6-5.6,24.9-10.7-2.1-21.5-4.8-32.4-6.1-2.5-.3-5.2,4.5-5.3,6.9-1.4,2.1-1.7,4.9.6,5.5,11.1,2.9,21.2,5.8,32.3,8.6-2.7,10.2-5.6,19.3-8.7,29.4-.6,1.8,1.3,4.5,3.3,4.5s3.7-2.8,4.3-4.5c0-.2.1-.3.1-.5-.3,1.9-.7,3.9-.9,5.8-.9,5.8,5.9,2.9,6.5-1.1.2-1.2,1.8-2.8,1.9-4,.4-.4,2.4.2,2.7-.4,3.6-8.1,6.7-19.2,9.6-27.5,11,2.8,19,7.8,29.9,10.6C109.19,415.11,113.29,407.61,109.69,406.31Zm-35.6-26c-1.9,8.8-7.2,24.1-9.7,32.7-.3-.1-2.7,7.4-3,7.3C63.59,411.71,71.29,388.91,74.09,380.31Z"/><path class="cls-4" d="M150,327.91c-2-4.6-6.5-8.1-13.4-10.6a1.61,1.61,0,0,0-1.6-.3c-.4-.1-1.4-.3-3.5-.8a1.76,1.76,0,0,0-.6-.1,18.6,18.6,0,0,0-4.7.3,26.84,26.84,0,0,0-3.7,1.2,5,5,0,0,1-1.3.5,7.58,7.58,0,0,1-1.6.3,6.72,6.72,0,0,0-1.8.3,6.08,6.08,0,0,0-3.8,4,6.56,6.56,0,0,0-.4,2.3,2.77,2.77,0,0,1-.1.9v.1a5.9,5.9,0,0,1-.4.8c-.6,1.7-14.9,52.1-14.9,52.1a27.26,27.26,0,0,0-1.7,7.5,34.13,34.13,0,0,0,1.1,7.8c.2.7.3,1.5.5,2.2l3.2,15.4c.4,2.1,1,4.9,2.8,6.1a3,3,0,0,0,2.1.5,4.17,4.17,0,0,0,2.6,1.8,2.44,2.44,0,0,0,1.2,0c1.7-.3,3.4-1.6,5.3-3.2s4.1-3.2,6.4-4.8c3.9-2.7,7.9-5.5,10.9-9,2-2.3,2.5-5.9,3-9.1.2-1.2.4-2.4.6-3.4,1.6-6.8,3.5-13.6,5.3-20.2l.4-1.6c.4-1.4.9-2.6,1.4-3.9l.2-.6a7.17,7.17,0,0,0,.5-3.1,5,5,0,0,1,.2-1.7c.6-2.9,1.6-5.9,2.6-9.1a77.7,77.7,0,0,0,2.6-9.1c.1-.5.2-.9.3-1.4C150.79,336.21,151.79,332,150,327.91Z"/><path class="cls-4" d="M124.89,392c-.6.6-1.2,1.3-1.8,1.9l-.1-.1c.2-.7.4-1.5.6-2.2.4-1.7-1.4-4.1-2.4-1.7-.1.2-.1.3-.2.5v-.2c.4-2.2-1.9-4-2.6-1.2-.1.5-.3,1.1-.4,1.6a.1.1,0,0,1-.1-.1c.1-1.5.3-3.1.4-4.6.2-2.2-2-2.9-2.6-.6-.3,1.2-.6,2.4-.9,3.7l-.6-.3c-.3-1.1-.6-2.3-.9-3.4-.7-2.2-2.4-.5-2.5,1-.7-1.6-2-.2-2.3,1.2a20,20,0,0,0-1-2.6c-1-2.7-2.8.4-2.4,2.1a94,94,0,0,1,2.6,16.6c.2,2.9,2.8,1.1,2.6-1.1a1.27,1.27,0,0,0-.1-.6c.5,1.6,1,3.1,1.4,4.7.7,2.2,2.1.6,2.4-1.1a1.31,1.31,0,0,0,.6-.8c.2,1.3,1.2,2.7,2.2,1.2.5-.7.9-1.4,1.4-2a2.19,2.19,0,0,1,.5-.3l3.2-3.5c.3.6.8.8,1.4.2l1.4-1.4a2.91,2.91,0,0,0,.7-2.3c.3-.4.6-.9.9-1.3C127.19,394.31,126.29,390.41,124.89,392Z"/><path class="cls-5" d="M140.29,329.41c-.5-1-1-2-1.4-3s-1.4-.7-1.9.1c-.5-.9-1-1.7-1.5-2.6s-1.2-.8-1.6-.2c-.8-1.1-2.4.9-2.2,2.4a29.31,29.31,0,0,1,.5,2.9c-.5-2.1-1.1-4.2-1.6-6.3s-2.3-.6-2.5.9c-.1-.6-.3-1.2-.4-1.8-.7-2.8-3-1.2-2.6,1.1v.2c-.9-1.5-1.9,3.9-2.3,1.9-.1-.4-1.7-2.5-1.3.2.6,3.7,3.5,14.7,3.8,18.5a70.94,70.94,0,0,0-6.3-20.4c-1.1-2.1-2.5.9-2.3,2,.6,4.3,1.3,8.5,1.9,12.8-.9-1.2-3.5.3-3.2,2.1,1.6,9.1,3.9,18.1,5.1,27.3-1.5-6.8-4-17.9-5.5-24.7-.6-2.8-1.9,3.2-1.6,5.4l.6,5.1a1.89,1.89,0,0,0-1.1,1.9c0,1.4.1,2.8.1,4.2-.7-1.2-2.4-.4-2.3,1.4.1,2.4.2,4.8.3,7.1-.5-1.1-1-2.3-1.6-3.4-.9-1.8-2.3.4-2.3,1.5v3.5a2.27,2.27,0,0,0-.6,1.6c.2,3.8.4,7.7.7,11.5.1,2.6,2.8,2.7,2.7.1h0c0,.1.1.2.1.4.5,1.3,1.3,1.2,1.9.6.7,1.5,3.9,2.5,3.8.3-.1-1.9-1.5-5.1-1.6-7,.7,2.6,1.5,5.1,2.3,7.7.5,1.6,1.6,1.1,2.2.1.3,1.5.6,2.9.9,4.4.5,2.6,2.8,1.3,2.6-.8.2.9.4,1.9.6,2.8.6,2.9,2.8,1.1,2.6-1.1-.2-2.5-.4-5.1-.6-7.6.7,3.5,1.4,7.1,2.1,10.6.6,2.8,2.9,1.1,2.6-1.1-.8-5.5-1.7-11-2.5-16.6.5,2.5,2.6,9.7,3.3,12.1s1.3-4.7.9-6.4a30.62,30.62,0,0,1-.5-3.2c.7.9,2.2,0,2.3-1.6.1-2.3.1-4.5.2-6.8.8.4.5-2.4,1.8-1.9,4.5,1.6,0-12.8-1-20.1l3.6,14.4c.7,2.6,2.6-.1,2.5-1.6-.3-3.4-.7-6.7-1.1-10,.7,0,1.4-1,1.5-2a42.94,42.94,0,0,0-.5-8.8,2.56,2.56,0,0,0,.8-1.9c.4.7.7,1.5,1.1,2.2.9,1.9,2.3-.4,2.3-1.5a25.85,25.85,0,0,0-1.4-9.9C142,326.31,140.59,327.81,140.29,329.41Zm-20.7,12.3c2.4,8.9,4.9,14.2,6,23.5C124.19,356,120.89,350.91,119.59,341.71Z"/><path class="cls-6" d="M134.49,320.91c-7.6-2.4-14.4.1-18.4,7a3.44,3.44,0,0,0,.1,2.8c-1.2,4.9-2.4,9.8-3.7,14.8l-5.4,16.5c-2.2,6.6-4.3,13.3-6.5,19.9-1.1,3.4-1,4.8-.2,8.4,1.5,7.5,2.1,14.9,3.6,22.4.3,1.4,2.5.6,2.3-.5-1.3-6.3-2.6-12.5-3.9-18.8-.5-2.4-1.3-5-1.6-7.5v-.1c.2-.7.5-1.4.7-2.1,1.7-5.3,3.4-10.6,5.2-15.9-1.4,5.4-2.9,10.8-4.3,16.2v.1a2.24,2.24,0,0,0-.8,2.3c2.1,8.9,4.3,17.9,6.4,26.8,0,1.4,2.8,2.9,3.8,1.9,6.3-5.8,11.6-10.3,18-16.1a1.66,1.66,0,0,0,.5-1.2,2.46,2.46,0,0,0,.1-1.2c.1.6.1-.4.2-.8.2-.8.3-1.7.5-2.5.5-2.5,2.1-4.9,2.8-7.3,1.7-6.9,3.6-13.8,5.4-20.7,2.9-10.8,6.9-21.9,8.4-33,.1-.4-1-.8-1.1-1.2v-.3C145.49,325.81,139.09,322.41,134.49,320.91ZM119,331.11a1.7,1.7,0,0,0,0-1c.1-.4.3-.9.4-1.3,3.2-3.9,6.8-5.4,11.9-4.2a533,533,0,0,0-14.7,58.2,18.85,18.85,0,0,0-10.7-1.1C110.49,365,114.79,348.11,119,331.11Zm-8.9,78.6c.1.1.2.1.3.2-.1.1-.2.1-.2.2C110.09,410,110.09,409.91,110.09,409.71Zm16.7-12.6c-3.5,3.1-6.2,4.8-9.8,7.6a9,9,0,0,0-8.7-2.4c-1.3-5.3-2.5-10.7-3.8-16l.1,1.9c.2.1.5-1.8.8-1.9C113.39,384.21,123.19,389.41,126.79,397.11Zm17.3-65.2c0,.1,0,.1.1.2-1.7,11.4-5.8,22.9-8.8,34-1.8,6.9-3.7,13.7-5.4,20.6-.4,1.4-.8,3-1.3,4.6a22,22,0,0,0-8.4-7.3,505.88,505.88,0,0,1,14.8-58.5C138.19,326.71,143.39,329.11,144.09,331.91Z"/><path class="cls-5" d="M108,401.91c.9,0,1.9-2,.9-2s-1.9,2-.9,2Z"/><path class="cls-6" d="M107.29,401.91c4.9-2.1,8.2,1.9,10.2,5.6.6,1.1,2.4-.8,2-1.5-2.2-4.1-7.1-9.5-12.5-7.1-.8.3-.6,2.5.3,2.1Z"/><path class="cls-1" d="M107.27,603.23c4.6-2.9,9.1-6,13.5-9.1a55.47,55.47,0,0,1-7.5,6.1Q110.42,601.73,107.27,603.23Zm-38.5-114.4a129.81,129.81,0,0,1-19.9,14l-3.3,1.9C54,499.13,60.17,494.23,68.77,488.83Zm-7.8-4c-4,3-21.8,16.6-26.1,19.2,2-1.4,12.8-10.7,14.9-12C51.87,490.53,58.67,486.13,61,484.83Zm38,17.5c2.3-1.9,13.4-11.9,15.8-13.6C110.67,494.63,101.37,500.63,99,502.33Zm13.8,80.4c-6.7,5.4-23,17.8-30.8,21.7C88.67,598.73,105.17,587.23,112.77,582.73Zm-16-12.4c-4.2,3-8.5,5.9-12.9,8.6-2.3,1.4-4.6,2.7-6.9,4.1,7.6-5.7,15.2-11.3,23.1-16.6,4.3-2.9,8.8-5.6,13.2-8.3-4.3,3.1-8.5,6.3-12.7,9.5Zm60.2-51.2a12.19,12.19,0,0,0-5.9.9l.3-.3c1.5-1.4-.4-2.5-1.6-2.6a11.92,11.92,0,0,0-8.1,2.2l-1.3.9c1.9-1.5,3.8-2.9,5.7-4.4,1.1-.9,1.9-2.5.1-3.1a8.2,8.2,0,0,0-4.4-.1c.5-.5,1.1-1,1.6-1.5,1-.9,2-2.4.1-3.1-2.5-.9-5.7.1-8,1.3-3.3,1.7-6.6,3.5-9.8,5.3a113.25,113.25,0,0,0,10.6-10.2c1.3-1.5-.3-2.5-1.6-2.6a10.45,10.45,0,0,0-2.5,0,104.65,104.65,0,0,0,11.4-10.7c1.3-1.5-.3-2.5-1.6-2.6a11.64,11.64,0,0,0-8.1,2.2,370.48,370.48,0,0,1-33.3,25.4c-2.7,1.7,10-7.9,7.4-6.2,13.3-9.3,10.9-8,21.9-20.1,1.3-1.5-.3-2.5-1.6-2.6a11.57,11.57,0,0,0-3.2.1,15.92,15.92,0,0,0,1.3-2.2c1.2-2.2-4-2-4.8-1.8a8.33,8.33,0,0,0-1.5.4c.6-.6,1.3-1.2,1.9-1.8,1.4-1.4-.4-2.5-1.6-2.6a11.92,11.92,0,0,0-8.1,2.2c-5.6,4-11.1,8-16.7,12-1.5.9-3.3,2.3-4.8,3.1-9.4,5.3-18.1,10.6-27.3,16.2l-3.1,1.9.3-.2c19.1-12.3,39.2-23.2,56.6-37.7,1.7-1.4,1.4-3-.9-3.4a11.78,11.78,0,0,0-8.1,2.2c-3.3,2.6-2.5.9-6.1,3.1,2.3-1.7.3.5,2.6-1.3,1.8-1.4,1.4-3.1-.9-3.4-2.7-.3-3.9.6-6.1,2.2-2.6,1.9-14.8,9.6-17.4,11.4,1.8-2,12.1-9.1,13.6-11.5,1-1.6-1-3.3-2.6-3.5a12.2,12.2,0,0,0-7,1.5c-2.7,1.4-5.4,2.9-8.1,4.4.3-.4.7-.8,1-1.2,2.9-3.7-6.3-2.1-7.3-1.7a125.77,125.77,0,0,0-27.5,14.2,152.11,152.11,0,0,0-24.7,19.8c-1.5,1.5.1,2.2,1.6,2.5a60.17,60.17,0,0,0-9.4,8.8c-1.3,1.5.3,2.5,1.6,2.6a12.2,12.2,0,0,0,7-1.5c.6-.3,1.1-.7,1.7-1a83.43,83.43,0,0,0-9,7.9c-1.4,1.4-3.1,7.1-1.8,7.2,2.4.3,8.3-5.1,10.4-6.1,1.1-.5,13.9-10.5,14.9-11-4.3,3.7-20.4,15.3-24.4,19.5-1.4,1.4.5,4.2,1.8,4.4a6.7,6.7,0,0,0,2,0c-1.5,1.5-2.9,3.1-4.3,4.7s.3,2.5,1.6,2.6a10.75,10.75,0,0,0,3.1-.1c-1.3.9-2.7,1.8-4,2.8-1.9,1.4-1.3,3.1.9,3.3a11.78,11.78,0,0,0,8.1-2.2l4-2.8c11.9-8,24.7-14.7,37.2-21.7-4.6,3.6-14.6,8.7-19.4,12.1-4.4,2.3-3.6,3-8.1,5.1-7,3.3-16.8,7.1-19.9,14.9-1.1,2.8,5.4,1.7,6.3,1.5a35.74,35.74,0,0,0,6-2.1c-2.6,2-5.2,3.9-7.8,5.8-1.2.9-1.9,2.5-.1,3.1,2.5.9-.4,5.2,1.8,4.1l13.8-10.1c-2.7,2.5-12.7,9.9-14.9,12.9-1.1,1.5.1,2.4,1.6,2.6a12.2,12.2,0,0,0,7-1.5c.9-.5,7.4-5.8,8.4-6.3-2.4,2-11.8,9-14,11.2-1.4,1.4,2,2.5,3.2,2.6a11.32,11.32,0,0,0,5.4-.8,19.46,19.46,0,0,0-4.2,8.8c-.5,2.9,4.9,1.9,6.3,1.5,3.2-.8,2.7,2.8,17.3-18-1.8,1.9-11.6,18.4-13.3,20.4-1.2,1.5.2,2.5,1.7,2.6a11.83,11.83,0,0,0,3.7-.2,10.7,10.7,0,0,0-1.4,1.6c-1.3,1.5.3,2.5,1.7,2.6a11.46,11.46,0,0,0,7-1.5l.5-.3c-1.1,1-2.2,2.1-3.3,3.2-1.4,1.4.4,2.5,1.7,2.6a10.85,10.85,0,0,0,4-.3c.2,0,.5-.1.8-.1l.3,1.2c.7,2.1,4.9,1.2,6.3.8l.7-.2c-1.2,1.5.2,2.4,1.7,2.6a10.46,10.46,0,0,0,2.5,0c-1,1.9,3.8,2.1,4.8,2,2.2-.4,4.4-1,6.5-1.6-.6.3-1.2.7-1.8,1-.9.5-3.3,2.1-1.9,3.4s4.3.7,5.9.2,2.9-.8,4.3-1.3c-.8.7-1.3,1.6-.5,2.4,1.8,1.6,5.5.5,7.4-.3,10.6-4.1,21-8.4,30.3-14.4,1.8-.9,3.6-1.8,5.4-2.8,11.1-6.2,22.6-14.7,26.8-27.4.7-2-1.9-2.1-4.5-1.7a45.67,45.67,0,0,0,5.4-6.9c1.1-1.9-.1-2.5-1.9-2.5a30,30,0,0,0,6.2-9.5c.4-1.1-.7-1.6-1.6-1.8a19.22,19.22,0,0,0,1.6-4.2c.6-2.3-3.6-2-4.8-1.8-.8.1-16,14.7-16.7,14.9,1.6-1.7,17.6-17.9,19.1-19.7,1.2-1.5-.2-2.5-1.6-2.6a6.6,6.6,0,0,0-1.4-.1,35.53,35.53,0,0,0,4.8-6.7c1.3-2.3-3.8-1.8-6.4-1.3,2.9-2,5.7-4.2,8.5-6.5C159.57,521,159.37,519.43,157,519.13Z"/><path class="cls-2" d="M16,545.73c0-15.3,4.1-31.1,14.6-43.2,10.9-12.5,25.3-18.1,40.6-19.4,1.2-.1,2.4-3,2.3-3.8,0-.3-.2-1-1.8-.8a65,65,0,0,0-33.7,13c1.5-1.2,3.1-2.4,4.7-3.5,11-7.5,24.9-10.6,39-10.6,9.6,0,19.1.9,27.6,4.5,17.3,7.4,31.6,19.9,38.4,39a81.45,81.45,0,0,1,2.4,31.1c-1.9,16.1-9.4,32.2-20,42.7a76.11,76.11,0,0,1-44.8,21.1,60.85,60.85,0,0,1-12.8.1,61.81,61.81,0,0,1-8.4-2.4C35.57,603.13,16,574,16,545.73Zm76.5,71.4c2.8-.6,6.6-1.3,9.3-2.1,14.3-4.4,30.3-15.8,39.8-26.6-6.7,8.8-19.8,19-30,23.6A56.92,56.92,0,0,1,92.47,617.13Zm24.7-140.6-.8-.5a1.55,1.55,0,0,0-.8-.2c-1.1,0-2.9.7-3.1,1.5a.79.79,0,0,0,.5.9,66.64,66.64,0,0,1,9.3,6.4c-11.8-7.4-26.2-12.3-40.8-11.9-22.6.5-44.2,8.2-57.6,24.5C12.17,511.43,8.27,533,9.57,553c1.3,19.8,11.3,37,25.5,48.7,10.2,8.4,21.1,15.5,35.5,16.6a71.64,71.64,0,0,0,14.6,1.5,69.3,69.3,0,0,0,36.8-10.5,71,71,0,0,0,33.5-52.6,76.38,76.38,0,0,0-4.3-35.3A75,75,0,0,0,117.17,476.53Z"/><path class="cls-3" d="M58.07,548.73h0c0,.1-.1.1-.1.2C58,548.83,58,548.83,58.07,548.73Z"/><path class="cls-3" d="M129.17,563.83v.2H129A.22.22,0,0,0,129.17,563.83Z"/><path class="cls-2" d="M112.37,568.33c2.3-1.9,3.7-6.2.8-7.1-10.7-3.4-21.5-6.3-32.5-8.9,3.3-10.8,7-19.7,9.2-30.8,1.2-5.8-6.7-4.9-7.5-.9-.1.3-.1.6-.2.9a2.24,2.24,0,0,0-2.4-1.9,3.81,3.81,0,0,0-2.9,1.9c-.2-3.7-5.9-1-6.6,2.5-1.7,8.3-3.6,16.6-5.6,24.9q-16-3.15-32.4-5.1c-2.5-.3-5.2,3.5-5.3,5.9-1.4,2.1-1.7,6.9.6,7.5,11.1,2.9,22.2,4.8,33.3,7.6-2.7,10.2-8.6,19.3-11.7,29.4-.6,1.8,3.3,3.5,5.3,3.5s3.7-2.8,4.3-4.5c0-.2.1-.3.1-.5-.3,1.9-.7,3.9-.9,5.8-.9,5.8,5.9,2.9,6.5-1.1.2-1.2,1.7-2.6,1.9-3.8.4-.4,2.9-1.1,3.1-1.6,3.6-8.1,4.9-18.3,7.9-26.6,11,2.8,20.4,9.1,31.3,11.9C111.87,578.13,116.07,569.63,112.37,568.33Zm-30.9-43.4c-1.9,8.8-11.9,43.5-14.4,52.1-.3-.1-2.7,5.4-3,5.3C66.37,573.63,78.77,533.43,81.47,524.93Z"/><path class="cls-4" d="M109.37,562.33c2.3-1.9,3.7-6.2.8-7.1-10.7-3.4-20.8-8.3-31.7-10.8a305.36,305.36,0,0,0,7.5-30.9c1.2-5.8-5.3-4-6.1-.1-.1.3-.5,1.7-.6,2a2.24,2.24,0,0,0-2.4-1.9c-1.2,0-2.2,1.9-2.9,2.9-.2-3.7-5.9-2-6.6,1.5-1.7,8.3-3.6,16.6-5.6,24.9-10.7-2.1-21.5-4.8-32.4-6.1-2.5-.3-5.2,4.5-5.3,6.9-1.4,2.1-.7,6.9,1.6,7.5,11.1,2.9,19.2,4.8,30.3,7.6-2.7,10.2-4.6,18.3-7.7,28.4-.6,1.8,1.3,4.5,3.3,4.5s3.7-2.8,4.3-4.5c0-.2.1-.3.1-.5-.3,1.9-.7,3.9-.9,5.8-.9,5.8,5.9,2.9,6.5-1.1.2-1.2,1.8-2.8,1.9-4,.4-.4,2.4.2,2.7-.4,3.6-8.1,6.7-19.2,9.6-27.5,11,2.8,19,7.8,29.9,10.6C108.87,571.13,113.07,563.63,109.37,562.33Zm-35.6-26c-1.9,8.8-7.2,24.1-9.7,32.7-.3-.1-2.7,7.4-3,7.3C63.37,567.63,71.07,544.83,73.77,536.33Z"/><path class="cls-4" d="M149.67,483.93c-2-4.6-6.5-8.1-13.4-10.6a1.61,1.61,0,0,0-1.6-.3c-.4-.1-1.4-.3-3.5-.8a1.76,1.76,0,0,0-.6-.1,18.6,18.6,0,0,0-4.7.3,26.84,26.84,0,0,0-3.7,1.2,5,5,0,0,1-1.3.5,7.58,7.58,0,0,1-1.6.3,6.72,6.72,0,0,0-1.8.3,6.08,6.08,0,0,0-3.8,4,6.56,6.56,0,0,0-.4,2.3,2.77,2.77,0,0,1-.1.9v.1a5.9,5.9,0,0,1-.4.8c-.6,1.7-14.9,52.1-14.9,52.1a27.26,27.26,0,0,0-1.7,7.5,34.13,34.13,0,0,0,1.1,7.8c.2.7.3,1.5.5,2.2l3.2,15.4c.4,2.1,1,4.9,2.8,6.1a3,3,0,0,0,2.1.5,4.17,4.17,0,0,0,2.6,1.8,2.44,2.44,0,0,0,1.2,0c1.7-.3,3.4-1.6,5.3-3.2s4.1-3.2,6.4-4.8c3.9-2.7,7.9-5.5,10.9-9,2-2.3,2.5-5.9,3-9.1.2-1.2.4-2.4.6-3.4,1.6-6.8,3.5-13.6,5.3-20.2l.4-1.6c.4-1.4.9-2.6,1.4-3.9l.2-.6a7.17,7.17,0,0,0,.5-3.1,5,5,0,0,1,.2-1.7c.6-2.9,1.6-5.9,2.6-9.1a77.7,77.7,0,0,0,2.6-9.1c.1-.5.2-.9.3-1.4C150.47,492.23,151.47,488,149.67,483.93Z"/><path class="cls-4" d="M124.57,547.93c-.6.6-1.2,1.3-1.8,1.9l-.1-.1c.2-.7.4-1.5.6-2.2.4-1.7-1.4-4.1-2.4-1.7-.1.2-.1.3-.2.5v-.2c.4-2.2-1.9-4-2.6-1.2-.1.5-.3,1.1-.4,1.6a.1.1,0,0,1-.1-.1c.1-1.5.3-3.1.4-4.6.2-2.2-2-2.9-2.6-.6-.3,1.2-.6,2.4-.9,3.7l-.6-.3c-.3-1.1-.6-2.3-.9-3.4-.7-2.2-2.4-.5-2.5,1-.7-1.6-2-.2-2.3,1.2a20,20,0,0,0-1-2.6c-1-2.7-2.8.4-2.4,2.1a94,94,0,0,1,2.6,16.6c.2,2.9,2.8,1.1,2.6-1.1a1.27,1.27,0,0,0-.1-.6c.5,1.6,1,3.1,1.4,4.7.7,2.2,2.1.6,2.4-1.1a1.31,1.31,0,0,0,.6-.8c.2,1.3,1.2,2.7,2.2,1.2.5-.7.9-1.4,1.4-2a2.19,2.19,0,0,1,.5-.3l3.2-3.5c.3.6.8.8,1.4.2l1.4-1.4a2.91,2.91,0,0,0,.7-2.3c.3-.4.6-.9.9-1.3C126.87,550.33,126.07,546.33,124.57,547.93Z"/><path class="cls-5" d="M140.07,485.33c-.5-1-1-2-1.4-3s-1.4-.7-1.9.1c-.5-.9-1-1.7-1.5-2.6s-1.2-.8-1.6-.2c-.8-1.1-2.4.9-2.2,2.4a29.31,29.31,0,0,1,.5,2.9c-.5-2.1-1.1-4.2-1.6-6.3s-2.3-.6-2.5.9c-.1-.6-.3-1.2-.4-1.8-.7-2.8-3-1.2-2.6,1.1v.2c-.9-1.5-1.9,3.9-2.3,1.9-.1-.4-1.7-2.5-1.3.2.6,3.7,3.5,14.7,3.8,18.5a70.94,70.94,0,0,0-6.3-20.4c-1.1-2.1-2.5.9-2.3,2,.6,4.3,1.3,8.5,1.9,12.8-.9-1.2-3.5.3-3.2,2.1,1.6,9.1,3.9,18.1,5.1,27.3-1.5-6.8-4-17.9-5.5-24.7-.6-2.8-1.9,3.2-1.6,5.4l.6,5.1a1.89,1.89,0,0,0-1.1,1.9c0,1.4.1,2.8.1,4.2-.7-1.2-2.4-.4-2.3,1.4.1,2.4,3.2,8.2,3.3,10.6-.5-1.1-3.9-8.7-4.5-9.8-.9-1.8-2.3,3.4-2.4,4.5v3.5a2.27,2.27,0,0,0-.6,1.6c.2,3.8.4,7.7.7,11.5.1,2.6,2.8,2.7,2.7.1h0c0,.1.1.2.1.4.5,1.3,1.3,1.2,1.9.6.7,1.5,3.1,2.5,3,.3-.1-1.9-2.9-10.1-3-12,.7,2.6,3.6,10.1,4.5,12.7.5,1.6,1.6,1.1,2.2.1.3,1.5.6,2.9.9,4.4.5,2.6,2.8,1.3,2.6-.8.2.9.4,1.9.6,2.8.6,2.9,1.1.7,1-1.5-.2-2.5.1-7.1-.1-9.6.7,3.5,2.5,9.5,3.2,13,.6,2.8,2.9,1.1,2.6-1.1-.8-5.5-1.7-11-2.5-16.6.5,2.5,2.6,9.7,3.3,12.1s1.3-4.7.9-6.4a30.62,30.62,0,0,1-.5-3.2c.7.9,2.2,0,2.3-1.6.1-2.3.1-4.5.2-6.8.8.4.5-2.4,1.8-1.9,4.5,1.6,0-12.8-1-20.1l3.6,14.4c.7,2.6,2.6-.1,2.5-1.6-.3-3.4-.7-6.7-1.1-10,.7,0,3.4-1.9,3.5-2.9.2-3-2.1-5.1-2.6-7.9a2.56,2.56,0,0,0,.8-1.9c.4.7.7,1.5,1.1,2.2.9,1.9,2.3-.4,2.3-1.5a25.85,25.85,0,0,0-1.4-9.9C141.77,482.33,140.27,483.73,140.07,485.33Zm-20.8,12.4c2.4,8.9,4.9,14.2,6,23.5C123.87,512,120.67,506.93,119.27,497.73Z"/><path class="cls-6" d="M134.27,475.83c-7.6-2.4-14.4.1-18.4,7a6.2,6.2,0,0,0,.1,3.8c-1.2,4.9-2.4,9.8-3.7,14.8l-5.4,16.5c-2.2,6.6-4.3,13.3-6.5,19.9a21.4,21.4,0,0,0-1.2,9.4c1.1,7.5,3.1,13.9,4.6,21.4.3,1.4,2.5.6,2.3-.5-1.3-6.3-3.6-12.5-4.9-18.8-.5-2.4-.3-5-.6-7.5v-.1c.2-.7.5-1.4.7-2.1,1.7-5.3,8.7-27.6,10.4-32.8-1.4,5.4-8.2,27.8-9.6,33.2v.1a2.24,2.24,0,0,0-.8,2.3c2.1,8.9,4.3,17.9,6.4,26.8,0,1.4,2.8,2.9,3.8,1.9,6.3-5.8,11.6-9.3,18-15.1a5.09,5.09,0,0,0,.5-2.2,2.46,2.46,0,0,0,.1-1.2c.1.6.1-.4.2-.8.2-.8.3-1.7.5-2.5.5-2.5,2.1-4.9,2.8-7.3,1.7-6.9,3.6-13.8,5.4-20.7,2.9-10.8,6.9-21.9,8.4-33,.1-.4-1-.8-1.1-1.2v-.3C145.17,481.73,138.77,477.33,134.27,475.83Zm-14.6,11.3c.1-.3-.9-.7-1-1,.1-.4.3-.9.4-1.3,3.2-3.9,6.8-5.4,11.9-4.2a533,533,0,0,0-14.7,58.2,18.85,18.85,0,0,0-10.7-1.1C110.17,520.93,115.57,504,119.67,487.13Zm-9.9,78.6c.1.1.2.1.3.2-.1.1-.2.1-.2.2C109.87,565.93,109.87,565.83,109.77,565.73Zm18.2-13c-3.5,3.1-7.7,5.1-11.3,7.9a9,9,0,0,0-8.7-2.4c-1.3-5.3-2.5-10.7-3.8-16l.1,1.9c.2.1.5-.8.8-.9C113.17,541.23,124.37,545,128,552.73Zm15.8-64.8c0,.1,0,.1.1.2-1.7,11.4-5.8,22.9-8.8,34-1.8,6.9-3.7,13.7-5.4,20.6-.4,1.4-.8,3-1.3,4.6A22,22,0,0,0,120,540c3.8-19.8,7.7-39.4,13.8-58.5C137,482.63,143.07,485,143.77,487.93Z"/><path class="cls-5" d="M107.67,557.83c.9,0,1.9-2,.9-2s-1.9,2-.9,2Z"/><path class="cls-6" d="M107.07,557.83c4.9-2.1,8.2,1.9,10.2,5.6.6,1.1,2.4-.8,2-1.5-2.2-4.1-8.1-8.5-13.5-6.1-.8.3.4,1.5,1.3,1.1Z"/></g></svg>