<svg xmlns="http://www.w3.org/2000/svg" viewBox="0 0 168 624"><defs><style>.cls-1{fill:#009dff;}.cls-2{fill:#f9c236;}.cls-3{fill:#fff;}.cls-4{fill:#ffba00;}.cls-5{fill:#042f70;}.cls-6{fill:#09519f;}</style></defs><title>jogador_jogando</title><g id="Camada_4" data-name="Camada 4"><path class="cls-1" d="M107.56,135.25c4.6-2.9,9.1-6,13.5-9.1a55.47,55.47,0,0,1-7.5,6.1ZM71.36,20.05c-6.8,5.8-14.7,10.4-22.3,14.8l-3.3,1.9C54.26,31.15,62.76,25.45,71.36,20.05Zm-14.9-.2c-4,3-8.3,5.8-12.5,8.4,2-1.5,4-2.9,6.1-4.2A70.58,70.58,0,0,1,56.46,19.85Zm44.9,12.8c2.3-1.9,4.6-3.7,7-5.4C106.16,29.15,103.76,31,101.36,32.65Zm30.5,75c-1.3,1-2.6,2-4,2.9C129.16,109.55,130.46,108.55,131.86,107.65Zm-28,13.7c-6.7,5.4-13.8,11.2-21.6,15.1A146.73,146.73,0,0,1,103.86,121.35Zm25.3-23c-4.3,3-8.8,5.7-13.4,8.3,4.9-3.6,9.9-7.1,15.1-10.2l4.5-2.7C133.26,95.45,131.16,97,129.16,98.35Zm-64.9,35,10.4-7.4a64,64,0,0,1-10.6,8.2C64.16,134,64.16,133.65,64.26,133.35Zm32.7-31c-4.2,3-8.5,5.9-12.9,8.6-2.3,1.4-4.6,2.7-6.9,4.1,7.6-5.7,15.2-11.3,23.1-16.6,4.3-2.9,8.8-5.6,13.2-8.3-4.3,3.1-8.5,6.3-12.8,9.5Zm60.2-51.2a12.19,12.19,0,0,0-5.9.9l.3-.3c1.5-1.4-.4-2.5-1.6-2.6a11.92,11.92,0,0,0-8.1,2.2l-1.3.9c1.9-1.5,3.8-2.9,5.7-4.4,1.1-.9,1.9-2.5.1-3.1a8.2,8.2,0,0,0-4.4-.1c.5-.5,1.1-1,1.6-1.5,1-.9,2-2.4.1-3.1-2.5-.9-5.7.1-8,1.3-3.3,1.7-6.6,3.5-9.8,5.3a113.25,113.25,0,0,0,10.6-10.2c1.3-1.5-.3-2.5-1.6-2.6a10.45,10.45,0,0,0-2.5,0,104.66,104.66,0,0,0,11.4-10.7c1.3-1.5-.3-2.5-1.6-2.6a11.64,11.64,0,0,0-8.1,2.2,370.48,370.48,0,0,1-33.3,25.4c-2.7,1.7-5.3,3.4-8,5.1C106.06,44,119,34,130,21.85c1.3-1.5-.3-2.5-1.6-2.6a11.56,11.56,0,0,0-3.2.1,15.92,15.92,0,0,0,1.3-2.2c1.2-2.2-4-2-4.8-1.8a8.33,8.33,0,0,0-1.5.4c.6-.6,1.3-1.2,1.9-1.8,1.4-1.4-.4-2.5-1.6-2.6a11.92,11.92,0,0,0-8.1,2.2c-5.6,4-11.1,8-16.7,12-1.5.9-3,1.7-4.5,2.5-9.4,5.3-18.4,11.2-27.6,16.8l-3.1,1.8.3-.2c19.1-12.3,39.2-23.2,56.6-37.7,1.7-1.4,1.4-3.1-.9-3.4a11.78,11.78,0,0,0-8.1,2.2,118.2,118.2,0,0,1-10.4,7c2.3-1.7,4.7-3.4,6.9-5.2,1.8-1.4,1.4-3.1-.9-3.4a12.32,12.32,0,0,0-8.1,2.2l-7.8,5.7a47.63,47.63,0,0,0,5-6.6c1-1.6-.1-2.4-1.7-2.6a12.2,12.2,0,0,0-7,1.5c-2.7,1.4-5.4,2.9-8.1,4.4.3-.4.7-.8,1-1.2,2.9-3.7-6.3-2.1-7.3-1.7a125.77,125.77,0,0,0-27.5,14.2,150.85,150.85,0,0,0-24.4,19.6c-1.5,1.5.1,2.2,1.6,2.5a71,71,0,0,0-9.4,8.8c-1.4,1.5.2,2.5,1.6,2.6a11.46,11.46,0,0,0,7-1.5c.6-.3,1.1-.7,1.7-1a74.85,74.85,0,0,0-9,7.9c-1.4,1.4.4,2.5,1.6,2.6a13.26,13.26,0,0,0,7-1.5c1.1-.5,2.2-1.1,3.3-1.6-4.3,3.7-8.6,7.7-12.6,11.8-1.4,1.4.4,2.5,1.6,2.6a6.69,6.69,0,0,0,2,0c-1.5,1.5-2.9,3.1-4.3,4.7s.3,2.5,1.6,2.6a10.75,10.75,0,0,0,3.1-.1c-1.3.9-2.7,1.8-4,2.8-1.9,1.4-1.3,3.1.9,3.3a11.78,11.78,0,0,0,8.1-2.2l4-2.8c11.9-8,24.7-14.7,37.2-21.7-4.6,3.6-9.3,7.2-14,10.6-4.4,2.3-8.9,4.5-13.4,6.6-7,3.3-16.8,7.1-19.9,14.9-1.1,2.8,5.4,1.7,6.3,1.5a35.74,35.74,0,0,0,6-2.1c-2.6,1.9-5.2,3.9-7.8,5.8-1.2.8-1.9,2.5-.1,3.1,2.5.9,5.8-.1,8-1.3l.1-.1a53.5,53.5,0,0,0-7.4,8.3c-1.1,1.5.1,2.4,1.7,2.6a12.2,12.2,0,0,0,7-1.5c.9-.5,1.9-1,2.8-1.5-2.3,2.1-4.6,4.2-6.9,6.4-1.4,1.4.4,2.5,1.7,2.6a10.75,10.75,0,0,0,5.3-.8,18.32,18.32,0,0,0-4.1,8.8c-.5,2.9,4.9,1.9,6.3,1.5a48.51,48.51,0,0,0,9.2-3.5c-1.8,1.9-3.5,3.9-5.2,6-1.2,1.5.2,2.5,1.7,2.6a11.83,11.83,0,0,0,3.7-.2,10.7,10.7,0,0,0-1.4,1.6c-1.3,1.5.3,2.5,1.7,2.6a11.46,11.46,0,0,0,7-1.5l.5-.3c-1.1,1-2.2,2.1-3.3,3.2-1.4,1.4.4,2.5,1.7,2.6a10.85,10.85,0,0,0,4-.3c.2,0,.5-.1.8-.1l.3,1.2c.7,2.1,4.9,1.2,6.3.8l.7-.2c-1.2,1.5.2,2.4,1.7,2.6a10.45,10.45,0,0,0,2.5,0c-1,1.9,3.8,2.1,4.8,1.9,2.2-.4,4.4-1,6.5-1.6-.6.3-1.2.7-1.8,1-.9.5-3.3,2.1-1.9,3.4s4.3.7,5.9.2,2.9-.8,4.3-1.3c-.8.7-1.3,1.6-.5,2.4,1.8,1.6,5.5.5,7.4-.3,10.6-4.1,21-8.4,30.3-14.4,1.8-.9,3.6-1.9,5.4-2.9,11.1-6.2,22.6-14.7,26.8-27.4.7-2-1.9-2.1-4.5-1.7a45.68,45.68,0,0,0,5.4-6.9c1.1-1.9-.1-2.5-1.9-2.5a30,30,0,0,0,6.2-9.5c.4-1.1-.7-1.6-1.6-1.8a19.22,19.22,0,0,0,1.6-4.2c.6-2.3-3.6-2-4.8-1.8a20.48,20.48,0,0,0-2.4.5c1.6-1.7,3.2-3.4,4.7-5.2,1.2-1.5-.2-2.4-1.6-2.6a6.6,6.6,0,0,0-1.4-.1,35.53,35.53,0,0,0,4.8-6.7c1.3-2.3-3.8-1.8-6.4-1.3,2.9-2,5.7-4.2,8.5-6.5C159.76,53.05,159.56,51.45,157.16,51.15Z"/><path class="cls-2" d="M58.26,80.75h0c0,.1-.1.1-.1.2C58.16,80.85,58.26,80.85,58.26,80.75Z"/><path class="cls-2" d="M129.46,95.85v.2h-.2C129.36,96.05,129.36,96,129.46,95.85Z"/><path class="cls-1" d="M107.59,291.23c4.6-2.9,26-20.8,30.41-23.9-2.3,2.2-21.71,19.1-24.41,20.9Q110.59,289.88,107.59,291.23ZM79,171.33C64.89,182.49,59.6,185.5,52,190L34.67,203C39.15,198.17,70.3,176.73,79,171.33Zm-22.51,4.5a143.67,143.67,0,0,1-12.5,8.4q3-2.25,6-4.2C52.09,178.53,54.29,177.23,56.49,175.83Zm36.7,18.8c2.3-1.9,24.8-21.1,27.1-22.8C112.47,181.9,95.69,192.93,93.19,194.63Zm38.7,69c-1.3,1-2.6,2-4,2.9C129.19,265.53,130.49,264.53,131.89,263.63Zm-18.8,7.2c-6.7,5.4-30.63,23.27-38.43,27.17C81.37,292.3,105.49,275.33,113.09,270.83Zm16.1-16.4c-4.3,3-8.8,5.7-13.4,8.4,4.9-3.6,9.9-7.1,15.1-10.2l4.5-2.7C133.29,251.53,131.19,253,129.19,254.43Zm-64.9,35,10.4-7.4a64,64,0,0,1-10.6,8.2A1.88,1.88,0,0,0,64.29,289.43ZM97,258.33c-4.2,3-8.5,5.9-12.9,8.6-2.3,1.4-4.6,2.7-6.9,4.1,7.6-5.6,15.2-11.3,23.1-16.6,4.3-2.9,8.8-5.6,13.2-8.3-4.3,3.1-8.5,6.3-12.8,9.5Zm60.3-51.1a12.19,12.19,0,0,0-5.9.9l.3-.3c1.5-1.4-.4-2.5-1.6-2.6a11.92,11.92,0,0,0-8.1,2.2l-1.3.9c1.9-1.5,3.8-2.9,5.7-4.4,1.1-.9,1.9-2.4.1-3.1a8.2,8.2,0,0,0-4.4-.1c.5-.5,1.1-1,1.6-1.5,1-.9,2-2.4.1-3.1-2.5-.9-5.7.1-8,1.3-3.3,1.7-6.6,3.5-9.8,5.3a113.25,113.25,0,0,0,10.6-10.2c1.3-1.5-.3-2.5-1.6-2.6a10.44,10.44,0,0,0-2.5,0,104.66,104.66,0,0,0,11.4-10.7c1.3-1.5-.3-2.4-1.6-2.6a11.64,11.64,0,0,0-8.1,2.2,370.47,370.47,0,0,1-33.3,25.4c-2.7,1.7-5.3,3.4-8,5.1,13.3-9.3,29.54-22.54,36.6-29.66,1.3-1.4.3-4.24-1-4.34a11.56,11.56,0,0,0-3.2.1,15.92,15.92,0,0,0,1.3-2.2c1.2-2.2-4-2-4.8-1.8a8.33,8.33,0,0,0-1.5.4c.7-.6,1.3-1.2,1.9-1.8,1.4-1.4-.4-2.5-1.6-2.6-2.7-.3-1.69-.67-4,.93-5.6,4-15.21,9.27-20.81,13.27-1.5.9-5.88,3.35-7.38,4.15-9.4,5.3-15.52,9.55-24.72,15.15l-3.1,1.9.3-.2c19.1-12.3,39.2-23.2,56.6-37.7,1.7-1.5,1.4-3.1-.9-3.4a11.78,11.78,0,0,0-8.1,2.2,118.2,118.2,0,0,1-10.4,7c2.3-1.7,4.7-3.4,6.9-5.2,1.8-1.4,1.4-3.1-.9-3.4a11.78,11.78,0,0,0-8.1,2.2l-7.8,5.7a47.63,47.63,0,0,0,5-6.6c1-1.5-.1-2.4-1.7-2.6a12.2,12.2,0,0,0-7,1.5c-2.7,1.4-5.4,2.9-8.1,4.4.3-.4.7-.8,1-1.2,2.9-3.7-6.3-2.1-7.3-1.7-9.7,3.4-18.9,8.6-27.5,14.2a140.19,140.19,0,0,0-24.5,19.4c-1.5,1.4.1,2.2,1.6,2.5a65.33,65.33,0,0,0-9.4,8.8c-1.3,1.5.3,2.5,1.6,2.6a11.46,11.46,0,0,0,7-1.5c.6-.3,1.1-.7,1.7-1a83.43,83.43,0,0,0-9,7.9c-1.4,1.4.4,2.5,1.7,2.6a13.26,13.26,0,0,0,7-1.5c1.1-.5,2.2-1.1,3.3-1.6-4.3,3.7-8.6,7.7-12.6,11.8-1.4,1.4.4,2.5,1.6,2.6a6.69,6.69,0,0,0,2,0c-1.5,1.5-2.9,3.1-4.3,4.7s.3,2.5,1.6,2.6a10.75,10.75,0,0,0,3.1-.1c-1.3.9-2.7,1.8-4,2.8-1.9,1.4-1.3,3.1.9,3.4a11.78,11.78,0,0,0,8.1-2.2l4-2.8c11.9-8,24.7-14.7,37.2-21.7-4.6,3.6-14.6,8.7-19.4,12.1-4.4,2.3-3.6,3-8.1,5.1-7,3.3-16.8,7.1-19.9,14.9-1.1,2.8-.36,6.16.54,6,2-.5,24-14.9,26-15.7-2.6,1.9-19.44,13.14-22,15-1.2.8-1.9,2.5-.1,3.1,2.5.9,5.8-.1,8-1.3l.1-.1a53.5,53.5,0,0,0-7.4,8.3c-1.1,1.5.1,2.4,1.6,2.6a12.2,12.2,0,0,0,7-1.5c.9-.5,1.9-1,2.8-1.5-2.4,2.1-4.7,4.2-6.9,6.4-1.4,1.4.4,2.5,1.6,2.6a11.32,11.32,0,0,0,5.4-.8,19,19,0,0,0-4.2,8.8c-.5,2.9,4.9,1.9,6.3,1.5,3.2-.8,2.7,2.8,17.3-18-1.8,1.9-11.6,18.4-13.3,20.5-1.2,1.5.2,2.5,1.7,2.6a11.83,11.83,0,0,0,3.7-.2,10.7,10.7,0,0,0-1.4,1.6c-1.3,1.5.3,2.5,1.7,2.6a11.46,11.46,0,0,0,7-1.5l.5-.3c-1.1,1-2.2,2.1-3.3,3.2-1.4,1.4.4,2.5,1.7,2.6a10.85,10.85,0,0,0,4-.3c.2,0,.5-.1.8-.1l.3,1.2c.7,2.1,4.9,1.2,6.3.8l.7-.2c-1.2,1.5.2,2.4,1.7,2.6a10.45,10.45,0,0,0,2.5,0c-1,1.9,3.8,2.1,4.8,1.9,2.2-.4,4.4-1,6.5-1.6-.6.3-1.2.7-1.8,1-.9.5-3.3,2.1-1.9,3.4s4.3.7,5.9.2,2.9-.8,4.3-1.3c-.8.7-1.3,1.6-.5,2.4,1.8,1.6,5.5.5,7.4-.3,10.6-4.1,21-8.5,30.3-14.4,1.8-.9,3.6-1.9,5.4-2.9,11.1-6.2,22.6-14.7,26.8-27.4.7-2-1.9-2.1-4.5-1.7a45.68,45.68,0,0,0,5.4-6.9c1.1-1.9-.1-2.5-1.9-2.5a30,30,0,0,0,6.2-9.5c.4-1.1-.7-1.6-1.6-1.8a19.22,19.22,0,0,0,1.6-4.2c.6-2.3-3.6-2-4.8-1.8a20.48,20.48,0,0,0-2.4.5c1.6-1.7,3.2-3.4,4.7-5.2,1.2-1.5-.2-2.4-1.6-2.6a6.6,6.6,0,0,0-1.4-.1,35.53,35.53,0,0,0,4.8-6.7c1.3-2.3-3.8-1.8-6.4-1.3a102.38,102.38,0,0,0,8.5-6.6C159.79,209.13,159.59,207.53,157.29,207.23Z"/><path class="cls-2" d="M35.19,215.33h0c-.1,0-.1-.1,0,0C35.09,215.23,35.19,215.23,35.19,215.33Z"/><path class="cls-2" d="M58.39,236.83h0c0,.1-.1.1-.1.2C58.29,236.93,58.29,236.83,58.39,236.83Z"/><path class="cls-2" d="M129.49,251.93v.2h-.2C129.39,252,129.39,251.93,129.49,251.93Z"/><path class="cls-1" d="M107.59,447.21c4.6-2.9,9.1-6,13.5-9.1a55.47,55.47,0,0,1-7.5,6.1Q110.59,445.86,107.59,447.21ZM82.49,324c-6.8,5.8-25.8,18.5-33.4,22.9l-3.3,1.9C54.29,343.21,73.89,329.41,82.49,324Zm-21.3,4.8c-4,3-21.8,16.6-26.1,19.2,2-1.5,12.8-10.7,14.9-12C52.09,334.51,59,330.11,61.19,328.81Zm38.1,17.6c2.3-1.9,13.4-11.9,15.8-13.6C110.89,338.61,101.69,344.71,99.29,346.41Zm32.6,73.2c-1.3,1-2.6,2-4,2.9C129.19,421.51,130.49,420.61,131.89,419.61Zm-18.9,7.2c-6.7,5.4-23,17.8-30.8,21.7A328.47,328.47,0,0,1,113,426.81Zm-48.7,18.6,10.4-7.4a64,64,0,0,1-10.6,8.2A1.88,1.88,0,0,0,64.29,445.41ZM97,414.31c-4.2,3-8.5,5.9-12.9,8.6-2.3,1.4-4.6,2.7-6.9,4.1,7.6-5.6,15.2-11.3,23.1-16.6,4.3-2.9,8.8-5.6,13.2-8.3-4.3,3.1-8.5,6.3-12.8,9.5Zm60.3-51.1a12.19,12.19,0,0,0-5.9.9l.3-.3c1.5-1.4-.4-2.5-1.6-2.6a11.92,11.92,0,0,0-8.1,2.2l-1.3.9c1.9-1.5,3.8-2.9,5.7-4.4,1.1-.9,1.9-2.5.1-3.1a8.2,8.2,0,0,0-4.4-.1c.5-.5,1.1-1,1.6-1.5,1-.9,2-2.4.1-3.1-2.5-.9-5.7.1-8,1.3-3.3,1.7-6.6,3.5-9.8,5.3a113.25,113.25,0,0,0,10.6-10.2c1.3-1.5-.3-2.5-1.6-2.6a10.44,10.44,0,0,0-2.5,0,104.65,104.65,0,0,0,11.4-10.7c1.3-1.5-.3-2.5-1.6-2.6a11.64,11.64,0,0,0-8.1,2.2,370.47,370.47,0,0,1-33.3,25.4c-2.7,1.7-5.3,3.4-8,5.1,13.3-9.3,26.2-19.3,37.2-31.4,1.3-1.5-.3-2.5-1.6-2.6a11.56,11.56,0,0,0-3.2.1,15.92,15.92,0,0,0,1.3-2.2c1.2-2.2-4-2-4.8-1.8a8.33,8.33,0,0,0-1.5.4c.6-.6,1.3-1.2,1.9-1.8,1.4-1.4-.4-2.5-1.6-2.6a11.92,11.92,0,0,0-8.1,2.2c-5.6,4-11.1,8-16.7,12-1.5.9-3.3,2.3-4.8,3.1-9.4,5.3-18.1,10.6-27.3,16.2l-3.1,1.8.3-.2c19.1-12.3,39.2-23.2,56.6-37.7,1.7-1.4,1.4-3-.9-3.4a11.78,11.78,0,0,0-8.1,2.2c-3.3,2.6-2.5.9-6.1,3.1,2.3-1.7.3.5,2.6-1.3,1.8-1.4,1.4-3.1-.9-3.4a11.78,11.78,0,0,0-8.1,2.2c-2.6,1.9-12.8,9.6-15.4,11.4,1.8-2,12.1-9.1,13.6-11.5,1-1.6-1-3.3-2.6-3.5a12.2,12.2,0,0,0-7,1.5c-2.7,1.4-5.4,2.9-8.1,4.4.3-.4.7-.8,1-1.2,2.9-3.7-6.3-2.1-7.3-1.7-9.7,3.4-18.9,8.6-27.5,14.2A152.11,152.11,0,0,0,18,353.61c-1.4,1.5.1,2.2,1.6,2.5a65,65,0,0,0-9.4,8.8c-1.3,1.5.3,2.5,1.6,2.6a12.2,12.2,0,0,0,7-1.5c.6-.3,1.1-.7,1.7-1a83.43,83.43,0,0,0-9,7.9c-1.4,1.4-3.1,7.1-1.8,7.2,2.4.3,8.3-5.1,10.4-6.1,1.1-.5,2.2-1.1,3.3-1.6-4.3,3.7-8.6,7.7-12.6,11.8-1.4,1.4.4,2.5,1.6,2.6a6.7,6.7,0,0,0,2,0c-1.5,1.5-2.9,3.1-4.3,4.7s.3,2.5,1.6,2.6a10.75,10.75,0,0,0,3.1-.1c-1.3.9-2.7,1.8-4,2.8-1.9,1.4-1.3,3.1.9,3.4a11.78,11.78,0,0,0,8.1-2.2l4-2.8c11.9-8,24.7-14.7,37.2-21.7-4.6,3.6-14.6,8.7-19.4,12.1-4.4,2.3-3.6,3-8.1,5.1-7,3.3-16.8,7.1-19.9,14.9-1.1,2.8,5.4,1.7,6.3,1.5a46.9,46.9,0,0,0,6-2c-2.6,1.9-5.2,3.9-7.8,5.8-1.2.8-1.9,2.5-.1,3.1,2.5.9-.4,5.2,1.8,4.1L33.59,408c-2.7,2.5-12.7,9.9-14.9,12.9-1.1,1.5.1,2.4,1.6,2.6a12.2,12.2,0,0,0,7-1.5c.9-.5,7.4-5.8,8.4-6.3-2.3,2.1-11.8,9-14,11.2-1.4,1.4,2,2.5,3.2,2.6a11.32,11.32,0,0,0,5.4-.8,19,19,0,0,0-4.2,8.8c-.5,2.9,4.9,1.9,6.3,1.5,3.2-.8,2.7,2.8,17.3-18-1.8,1.9-11.6,18.4-13.3,20.5-1.2,1.5.2,2.5,1.7,2.6a11.83,11.83,0,0,0,3.7-.2,10.7,10.7,0,0,0-1.4,1.6c-1.3,1.5.3,2.5,1.7,2.6a11.46,11.46,0,0,0,7-1.5l.5-.3c-1.1,1-2.2,2.1-3.3,3.2-1.4,1.4.4,2.5,1.7,2.6a10.85,10.85,0,0,0,4-.3c.2,0,.5-.1.8-.1l.3,1.2c.7,2.1,4.9,1.2,6.3.8l.7-.2c-1.2,1.5.2,2.4,1.7,2.6a10.45,10.45,0,0,0,2.5,0c-1,1.9,3.8,2.1,4.8,1.9,2.2-.4,4.4-1,6.5-1.6-.6.3-1.2.7-1.8,1-.9.5-3.3,2.1-1.9,3.4s4.3.7,5.9.2,2.9-.8,4.3-1.3c-.8.7-1.3,1.6-.5,2.4,1.8,1.6,5.5.5,7.4-.3,10.6-4.1,21-8.5,30.3-14.4,1.8-.9,3.6-1.9,5.4-2.9,11.1-6.2,22.6-14.7,26.8-27.4.7-2-1.9-2.1-4.5-1.7a45.68,45.68,0,0,0,5.4-6.9c1.1-1.9-.1-2.5-1.9-2.5a30,30,0,0,0,6.2-9.5c.4-1.1-.7-1.6-1.6-1.8a19.22,19.22,0,0,0,1.6-4.2c.6-2.3-3.6-2-4.8-1.8a20.48,20.48,0,0,0-2.4.5c1.6-1.7,3.2-3.4,4.7-5.2,1.2-1.5-.2-2.5-1.6-2.6a6.6,6.6,0,0,0-1.4-.1,35.53,35.53,0,0,0,4.8-6.7c1.3-2.3-3.8-1.8-6.4-1.3,2.9-2,5.7-4.2,8.5-6.5C159.79,365.11,159.59,363.51,157.29,363.21Z"/><path class="cls-2" d="M35.19,371.31h0C35.09,371.21,35.09,371.31,35.19,371.31Z"/><path class="cls-2" d="M58.29,392.81h0c0,.1-.1.1-.1.2A.35.35,0,0,1,58.29,392.81Z"/><path class="cls-2" d="M129.49,407.91v.2h-.2Z"/><path class="cls-1" d="M107.27,603.23c4.6-2.9,9.1-6,13.5-9.1a55.47,55.47,0,0,1-7.5,6.1Q110.42,601.73,107.27,603.23Zm-38.5-114.4a129.81,129.81,0,0,1-19.9,14L30,515.93C38.4,510.33,60.17,494.23,68.77,488.83Zm-7.8-4c-4,3-21.8,16.6-26.1,19.2,2-1.4,12.8-10.7,14.9-12C51.87,490.53,58.67,486.13,61,484.83Zm38,17.5c2.3-1.9,13.4-11.9,15.8-13.6C110.67,494.63,101.37,500.63,99,502.33Zm13.8,80.4c-6.7,5.4-23,17.8-30.8,21.7C88.67,598.73,105.17,587.23,112.77,582.73Zm-16-12.4c-4.2,3-8.5,5.9-12.9,8.6-2.3,1.4-4.6,2.7-6.9,4.1,7.6-5.7,15.2-11.3,23.1-16.6,4.3-2.9,8.8-5.6,13.2-8.3-4.3,3.1-8.5,6.3-12.7,9.5Zm60.2-51.2a12.19,12.19,0,0,0-5.9.9l.3-.3c1.5-1.4-.4-2.5-1.6-2.6a11.92,11.92,0,0,0-8.1,2.2l-1.3.9c1.9-1.5,3.8-2.9,5.7-4.4,1.1-.9,1.9-2.5.1-3.1a8.2,8.2,0,0,0-4.4-.1c.5-.5,1.1-1,1.6-1.5,1-.9,2-2.4.1-3.1-2.5-.9-5.7.1-8,1.3-3.3,1.7-6.6,3.5-9.8,5.3a113.25,113.25,0,0,0,10.6-10.2c1.3-1.5-.3-2.5-1.6-2.6a10.45,10.45,0,0,0-2.5,0,104.65,104.65,0,0,0,11.4-10.7c1.3-1.5-.3-2.5-1.6-2.6a11.64,11.64,0,0,0-8.1,2.2,370.48,370.48,0,0,1-33.3,25.4c-2.7,1.7,10-7.9,7.4-6.2,13.3-9.3,10.9-8,21.9-20.1,1.3-1.5-.3-2.5-1.6-2.6a11.57,11.57,0,0,0-3.2.1,15.92,15.92,0,0,0,1.3-2.2c1.2-2.2-4-2-4.8-1.8a8.33,8.33,0,0,0-1.5.4c.6-.6,1.3-1.2,1.9-1.8,1.4-1.4-.4-2.5-1.6-2.6a11.92,11.92,0,0,0-8.1,2.2c-5.6,4-11.1,8-16.7,12-1.5.9-3.3,2.3-4.8,3.1-9.4,5.3-18.1,10.6-27.3,16.2l-3.1,1.9.3-.2c19.1-12.3,39.2-23.2,56.6-37.7,1.7-1.4,1.4-3-.9-3.4a11.78,11.78,0,0,0-8.1,2.2c-3.3,2.6-2.5.9-6.1,3.1,2.3-1.7.3.5,2.6-1.3,1.8-1.4,1.4-3.1-.9-3.4-2.7-.3-3.9.6-6.1,2.2-2.6,1.9-14.8,9.6-17.4,11.4,1.8-2,12.1-9.1,13.6-11.5,1-1.6-1-3.3-2.6-3.5a12.2,12.2,0,0,0-7,1.5c-2.7,1.4-5.4,2.9-8.1,4.4.3-.4.7-.8,1-1.2,2.9-3.7-6.3-2.1-7.3-1.7a125.77,125.77,0,0,0-27.5,14.2,152.11,152.11,0,0,0-24.7,19.8c-1.5,1.5.1,2.2,1.6,2.5a60.17,60.17,0,0,0-9.4,8.8c-1.3,1.5.3,2.5,1.6,2.6a12.2,12.2,0,0,0,7-1.5c.6-.3,1.1-.7,1.7-1a83.43,83.43,0,0,0-9,7.9c-1.4,1.4-3.1,7.1-1.8,7.2,2.4.3,8.3-5.1,10.4-6.1,1.1-.5,13.9-10.5,14.9-11-4.3,3.7-20.4,15.3-24.4,19.5-1.4,1.4.5,4.2,1.8,4.4a6.7,6.7,0,0,0,2,0c-1.5,1.5-2.9,3.1-4.3,4.7s.3,2.5,1.6,2.6a10.75,10.75,0,0,0,3.1-.1c-1.3.9-2.7,1.8-4,2.8-1.9,1.4-1.3,3.1.9,3.3a11.78,11.78,0,0,0,8.1-2.2l4-2.8c11.9-8,24.7-14.7,37.2-21.7-4.6,3.6-14.6,8.7-19.4,12.1-4.4,2.3-3.6,3-8.1,5.1-7,3.3-16.8,7.1-19.9,14.9-1.1,2.8,5.4,1.7,6.3,1.5a35.74,35.74,0,0,0,6-2.1c-2.6,2-5.2,3.9-7.8,5.8-1.2.9-1.9,2.5-.1,3.1,2.5.9-.4,5.2,1.8,4.1l13.8-10.1c-2.7,2.5-12.7,9.9-14.9,12.9-1.1,1.5.1,2.4,1.6,2.6a12.2,12.2,0,0,0,7-1.5c.9-.5,7.4-5.8,8.4-6.3-2.4,2-11.8,9-14,11.2-1.4,1.4,2,2.5,3.2,2.6a11.32,11.32,0,0,0,5.4-.8,19.46,19.46,0,0,0-4.2,8.8c-.5,2.9,4.9,1.9,6.3,1.5,3.2-.8,2.7,2.8,17.3-18-1.8,1.9-11.6,18.4-13.3,20.4-1.2,1.5.2,2.5,1.7,2.6a11.83,11.83,0,0,0,3.7-.2,10.7,10.7,0,0,0-1.4,1.6c-1.3,1.5.3,2.5,1.7,2.6a11.46,11.46,0,0,0,7-1.5l.5-.3c-1.1,1-2.2,2.1-3.3,3.2-1.4,1.4.4,2.5,1.7,2.6a10.85,10.85,0,0,0,4-.3c.2,0,.5-.1.8-.1l.3,1.2c.7,2.1,4.9,1.2,6.3.8l.7-.2c-1.2,1.5.2,2.4,1.7,2.6a10.46,10.46,0,0,0,2.5,0c-1,1.9,3.8,2.1,4.8,2,2.2-.4,4.4-1,6.5-1.6-.6.3-1.2.7-1.8,1-.9.5-3.3,2.1-1.9,3.4s4.3.7,5.9.2,2.9-.8,4.3-1.3c-.8.7-1.3,1.6-.5,2.4,1.8,1.6,5.5.5,7.4-.3,10.6-4.1,21-8.4,30.3-14.4,1.8-.9,3.6-1.8,5.4-2.8,11.1-6.2,22.6-14.7,26.8-27.4.7-2-1.9-2.1-4.5-1.7a45.67,45.67,0,0,0,5.4-6.9c1.1-1.9-.1-2.5-1.9-2.5a30,30,0,0,0,6.2-9.5c.4-1.1-.7-1.6-1.6-1.8a19.22,19.22,0,0,0,1.6-4.2c.6-2.3-3.6-2-4.8-1.8-.8.1-16,14.7-16.7,14.9,1.6-1.7,17.6-17.9,19.1-19.7,1.2-1.5-.2-2.5-1.6-2.6a6.6,6.6,0,0,0-1.4-.1,35.53,35.53,0,0,0,4.8-6.7c1.3-2.3-3.8-1.8-6.4-1.3,2.9-2,5.7-4.2,8.5-6.5C159.57,521,159.37,519.43,157,519.13Z"/><path class="cls-2" d="M58.07,548.73h0c0,.1-.1.1-.1.2C58,548.83,58,548.83,58.07,548.73Z"/><path class="cls-2" d="M129.17,563.83v.2H129A.22.22,0,0,0,129.17,563.83Z"/></g><g id="Camada_6" data-name="Camada 6"><path class="cls-3" d="M80.72,23.75a20.67,20.67,0,0,0-15.06.15c0-1.78-.94-2.93-3.35-1.85-15.55,7-22,25.66-11.52,40a26.12,26.12,0,0,0,4.46,4.75A23.27,23.27,0,0,0,62.5,72C71,76,81,73.75,87.5,67.29a26.58,26.58,0,0,0,4.88-4.82C103.47,48.17,97.18,29.84,80.72,23.75ZM85,62.56c-.75.26-.5.45-1.25.6,5.64-4.64,7.43-13.9,7.4-20.68.05.17-.87.32-.82.5A20.36,20.36,0,0,1,85,62.56ZM67.54,32l.6,0c-.55.42.52-.45,0,0-1.24.88-9.29,4.38-13.46,12.11-.6,1.11.33-2.73,5.05-7.21A19.9,19.9,0,0,1,67.54,32ZM89.87,53.14c-.08.38-.2.74-.32,1.11C89.66,53.88,89.77,53.51,89.87,53.14Zm-.41,1.43c-.06.17-.12.34-.19.51C89.33,54.91,89.4,54.74,89.46,54.57Z"/><path class="cls-3" d="M16.16,108.88c.08.41.17.81.27,1.21.13.22.28.51.49.91a55,55,0,0,1,4.2,7.14A111.67,111.67,0,0,1,34.91,98.43c1.57,11.56-.41,20.88-1.38,33.73,3.23,1.67,8.52,4.23,11.75,5.92,1.66.87,3.32,1.76,5,2.61.49.25,4.88,2.31,4.77,2.35a59.82,59.82,0,0,0,9.89,2.75c.57.11,1.14.2,1.72.29l1.32.13c2.08,0,4.13.19,6.22.16,3.67-9.48,9.22-19.2,10.34-28.83,1.33-11.34,6.16-42.16-9.29-38.5-9.29.93-14.9-.79-23.6-5.26-.34-1-5.73-3.27-7-3.56C34,67.75,27.17,79.15,21.95,86.66c-3.13,4.5-6.18,9.16-9,14A38,38,0,0,1,16.16,108.88Z"/><path class="cls-3" d="M108.07,101.88A88.5,88.5,0,0,1,81.86,80.06C77.76,75,69,85.65,72.42,89.94c.36.45.75.88,1.12,1.32a4.47,4.47,0,0,0,.48,2.4,40.73,40.73,0,0,0,5.35,7.54C85,108.46,91.44,114.66,100.44,118c3.77,1.4,8.45-4.87,8.08-9.14C110,106.18,110.42,103.17,108.07,101.88Z"/><path class="cls-3" d="M93.22,122.93c2.44,4.14,7.17,7,14,8.59a1.57,1.57,0,0,0,1.57.08l3.47.38a2.65,2.65,0,0,0,.56,0,17.22,17.22,0,0,0,4.45-.81,16.87,16.87,0,0,0,3.37-1.61c.37-.22.75-.44,1.16-.65a5.1,5.1,0,0,1,1.52-.46A7.85,7.85,0,0,0,125,128a5.86,5.86,0,0,0,3.21-4.26,7.67,7.67,0,0,0,.14-2.26c0-.29,0-.59,0-.88v-.14a5.87,5.87,0,0,0,.24-.83,19.81,19.81,0,0,0,.31-5.13,24.65,24.65,0,0,1,.08-3.64c.11-.88.21-1.76.31-2.65.23-2,.46-4,.8-6s.73-3.86,1.12-5.74c.2-1,.4-1.93.59-2.89l5-25.44a24.51,24.51,0,0,0,.73-7.39,31.66,31.66,0,0,0-2-7.35c-.24-.68-.49-1.35-.71-2L130.06,37c-.63-1.92-1.5-4.54-3.38-5.48a3.25,3.25,0,0,0-2-.29,3.93,3.93,0,0,0-2.69-1.4,3.57,3.57,0,0,0-1.13.13c-1.57.44-3,1.89-4.74,3.69s-3.6,3.51-5.61,5.31c-3.4,3-6.91,6.2-9.38,9.89-1.64,2.45-1.75,5.94-1.85,9,0,1.18-.07,2.3-.19,3.27-.79,6.65-1.76,13.4-2.69,19.93l-.22,1.57a29.62,29.62,0,0,1-.89,3.86l-.15.56a8.34,8.34,0,0,0-.17,3,9.73,9.73,0,0,1,0,1.62,88.07,88.07,0,0,1-1.44,9c-.58,3-1.17,6-1.47,9,0,.45-.09.91-.14,1.37C91.49,115.11,91,119.24,93.22,122.93Z"/><path class="cls-3" d="M109.85,58.84l1.5-2.06.14.08c-.13.73-.24,1.46-.34,2.2-.21,1.65,1.76,3.74,2.5,1.36l.15-.49c0,.05,0,.11,0,.16-.09,2.12,2.25,3.62,2.59.85l.19-1.61.09,0,.11,4.46c.05,2.1,2.25,2.57,2.58.3.18-1.21.32-2.41.46-3.62l.63.21c.38,1.05.79,2.1,1.26,3.14.91,2,2.38.19,2.29-1.25.88,1.48,2-.06,2.07-1.44.41.8.81,1.6,1.22,2.4,1.3,2.5,2.63-.71,2-2.29a91.88,91.88,0,0,1-4.43-15.58c-.52-2.7-2.78-.75-2.37,1.34,0,.18.08.35.12.53q-1-2.14-1.92-4.3c-.9-2.07-2.08-.31-2.15,1.29a1.16,1.16,0,0,0-.48.86c-.33-1.2-1.42-2.46-2.25-.94-.38.7-.73,1.4-1.07,2.11a1.31,1.31,0,0,0-.4.39l-2.68,3.69c-.37-.5-.86-.68-1.38,0l-1.16,1.47a3,3,0,0,0-.43,2.29c-.22.45-.45.9-.72,1.37C107.35,56.87,108.63,60.52,109.85,58.84Z"/><path class="cls-4" d="M102.26,120.48,104,123.2c.66,1,1.38.47,1.78-.34.55.77,1.12,1.53,1.74,2.27s1.24.62,1.58,0c.92.92,2.19-1.15,1.78-2.5q-.41-1.37-.86-2.72l2.25,5.83c.77,2,2.24.33,2.28-1.17.19.54.38,1.09.58,1.63.95,2.57,3,.76,2.37-1.34l0-.16c1,1.31,2.53-.31,2-2.13q-1.07-3.44-2.09-6.89c-.95-3.53-1.74-7.1-2.45-10.68a66.21,66.21,0,0,0,8.41,18.81c1.26,1.86,2.25-1.15,2-2.21l-3.31-12c1,1,2.38-.55,1.85-2.28q-3.85-12.7-7-25.59l6.63,19c.91,2.62,2.87.75,2.37-1.34-.38-1.6-.79-3.19-1.19-4.79a1.78,1.78,0,0,0,.78-2c-.19-1.33-.39-2.65-.62-4,.85,1.06,2.36.13,2.07-1.61l-1.12-6.79c.59,1,1.22,2,1.92,3,1.1,1.58,2.15-.61,2.05-1.67s-.25-2.22-.43-3.31a2.08,2.08,0,0,0,.35-1.61l-2-11c-.44-2.45-3-2.27-2.57.25h0l-.17-.33c-.64-1.18-1.38-1-1.84-.36-.81-1.38-2.59-.93-2.23,1.2l.9,5.43q-1.46-3.56-3.12-7c-.7-1.46-1.68-.89-2.1.12L115.18,61c-.8-2.47-2.8-.92-2.44,1l-.92-2.63c-.93-2.65-2.78-.72-2.37,1.34q.72,3.62,1.49,7.22l-3.24-9.92c-.85-2.62-2.95-.75-2.37,1.34l4.29,15.55c-.74-2.29-1.56-4.56-2.5-6.77s-2.68.25-2.2,1.81c.3,1,.59,2,.86,3-.81-.8-2.1.23-2,1.8q.26,3.25.63,6.49c-.8-.26-1.71.63-1.53,2q1.24,9.64,3.24,19.14L101,89.07c-.93-2.41-2.5.36-2.19,1.81q1,4.77,2.2,9.47c-.67.11-1.22,1.16-1.16,2.13a38.27,38.27,0,0,0,1.52,8.31,2.68,2.68,0,0,0-.56,1.91l-1.27-2c-1.06-1.67-2.11.69-2.05,1.67a22.73,22.73,0,0,0,2.52,9.26C101,123.54,102.21,122,102.26,120.48Zm17.14-10.11c-3.3-8.24-5-17.13-7.14-25.86Z"/><path class="cls-5" d="M108.79,127.88c7.51,1.43,13.73-1.75,16.75-8.8a3.42,3.42,0,0,0-.4-2.66q.88-7.27,1.81-14.52l3.24-16.42,3.9-19.76c.68-3.42.42-4.66-.73-8.09l-7-20.86c-.43-1.29-1.53-.37-1.19.67L131.05,55a66.74,66.74,0,0,1,2.37,7v.1c-.09.69-.27,1.39-.41,2.08l-3.11,15.77q1.11-8,2.28-16s0-.1,0-.15a2.1,2.1,0,0,0,.45-2.32l-9.18-24.88c-.18-1.37-1.06-2.71-2-1.63-5.38,6.24-11.85,11.43-17.23,17.67a1.94,1.94,0,0,0-.38,1.2,2.62,2.62,0,0,0,0,1.18c-.15-.6,0,.41-.07.8-.07.82-.12,1.65-.2,2.47-.23,2.41-.53,4.81-.83,7.21-.86,6.81-1.84,13.6-2.81,20.39-1.52,10.64-4.09,21.72-4.25,32.49a2.66,2.66,0,0,0,.25,1.15,2.54,2.54,0,0,0,.08.27C97.76,124.51,104.27,127,108.79,127.88Zm13.67-11.56a2.48,2.48,0,0,0,.07.93l-.25,1.27A11.85,11.85,0,0,1,110.42,124a493.62,493.62,0,0,0,7.34-57.34,21.71,21.71,0,0,0,11.35-.32Q125.48,91.3,122.46,116.32Zm-.54-76.15-.33-.12.2-.21ZM106.57,55.26c2.95-3.32,6.18-6.36,9.36-9.45a8.62,8.62,0,0,0,8.56,1.32L130,62l-.08.13a1,1,0,0,0-.79,0C121.68,64.91,110.89,62.22,106.57,55.26ZM98.4,118.44c0-.06,0-.11-.07-.16.31-11.13,2.93-22.54,4.49-33.51,1-6.76,1.93-13.53,2.77-20.31.17-1.42.46-3,.68-4.58a21.21,21.21,0,0,0,8.91,6,485.23,485.23,0,0,1-7.43,57.65C104.57,122.8,99.36,121.07,98.4,118.44Z"/><path class="cls-4" d="M124.1,49.48c.9,0,1.86-2,.89-2s-1.86,2-.89,2Z"/><path class="cls-5" d="M125.56,48.29c-4.42,2.58-8.15-1.85-10.48-5.1-.71-1-1.24.88-.77,1.54,2.62,3.64,6.89,8.37,11.79,5.5.72-.42.28-2.43-.53-2Z"/><path class="cls-3" d="M145.73,84.09a7.06,7.06,0,0,0-.88-5.73c-2-2.79-5-5.59-8.71-5.38-5.09.28-8.63,4.52-11.47,8.34-4.57,6.15-10,16.57-6.67,24.29s12.68,6.1,18.19,1.92C143.1,102.29,147.16,92.7,145.73,84.09Z"/><path class="cls-5" d="M63.55,37.39a3.47,3.47,0,0,0-.74.35c-.58-.15-1.21.41-1.52.75-1.47,1.67-1.7,4.43.33,5.86,2.47,1.74,4.52-1.31,4.84-3.14C66.74,39.59,66.3,36.56,63.55,37.39Zm.31,2.68a1.17,1.17,0,0,1,.23.45,2,2,0,0,1-.3-.27s-.19-.28-.32-.44h.06C63.62,39.92,63.77,40,63.86,40.08Z"/><path class="cls-5" d="M82.21,41.2a3.47,3.47,0,0,0-.74.35c-.58-.15-1.21.41-1.52.75-1.47,1.67-1.7,4.43.33,5.86,2.47,1.74,4.52-1.31,4.84-3.14C85.4,43.4,85,40.37,82.21,41.2Zm.31,2.68a1.17,1.17,0,0,1,.23.45,2,2,0,0,1-.3-.27s-.19-.28-.32-.44h.06C82.28,43.73,82.43,43.77,82.52,43.88Z"/><path class="cls-5" d="M84.86,53.76,58.51,48.51a.45.45,0,0,0-.34,0,1.69,1.69,0,0,0-1.25,1.83,20.56,20.56,0,0,0,2.61,7.21.5.5,0,0,0,.15.22A12.88,12.88,0,0,0,70,63.84c6.35.49,11.88-3.26,15-8.55C85.23,54.91,85.6,53.91,84.86,53.76ZM68.2,61.14a11.66,11.66,0,0,1-6.32-4.28,7.52,7.52,0,0,1,7.85,1.45c.09.39.41.57,1,.14a5.23,5.23,0,0,1,7.54,1.44A12.86,12.86,0,0,1,68.2,61.14Z"/><path class="cls-3" d="M80.72,179.1c-5.29-2-9.63-2.67-14.18-.85,0-1.78-3-1.5-5.45-.42-15.55,7-20.72,25.23-10.29,39.58,1.32,1.82,2.07,3.91,3.7,5.26,1.87,2,4.77,3.15,7.83,4.38,7.08,2.83,19.21,2,25.33-3.71a31.31,31.31,0,0,0,5.42-5.12C104.18,203.91,97.18,185.19,80.72,179.1Zm4.48,39.15A17.22,17.22,0,0,1,81,221c9.13-5.19,10.1-16.35,10.07-23.14.05.17-.87.32-.82.5C92.17,205.14,90.26,213.42,85.19,218.25ZM66.8,186.83l.6,0c-.55.42.33,0-.19.49-1.24.88-9.1,3.89-13.26,11.62-.6,1.11.33-2.73,5.05-7.21A19.9,19.9,0,0,1,66.8,186.83ZM89.87,208.5c-.08.38-.2.74-.32,1.11C89.66,209.24,89.77,208.87,89.87,208.5Zm-.41,1.43c-.06.17-.12.34-.19.51C89.33,210.26,89.4,210.1,89.46,209.92Z"/><path class="cls-3" d="M16.16,264.24c.08.41.17.81.27,1.21.13.22.28.51.49.91a55,55,0,0,1,4.2,7.14c4.08-7.59,7.36-11.22,12.79-17.71,1.57,11.56.59,18.88-.38,31.73,3.23,1.67,8.52,4.23,11.75,5.92,1.66.87,3.32,1.76,5,2.61.49.25,4.88,2.31,4.77,2.35a59.82,59.82,0,0,0,9.89,2.75c.57.11,1.14.2,1.72.29l1.32.13c2.08,0,4.13.19,6.22.16,3.67-9.48,9.22-19.2,10.34-28.83,1.33-11.34,6.16-42.16-9.29-38.5-9.29.93-14.9-.79-23.6-5.26-.34-1-5.73-3.27-7-3.56C34,223.11,27.17,233.5,21.95,241c-3.13,4.5-6.18,9.16-9,14A46.4,46.4,0,0,1,16.16,264.24Z"/><path class="cls-3" d="M108.07,257.23a88.5,88.5,0,0,1-26.21-21.81C77.76,230.34,69,241,72.42,245.3c.36.45.75.88,1.12,1.32A4.47,4.47,0,0,0,74,249a40.73,40.73,0,0,0,5.35,7.54C85,263.82,91.44,270,100.44,273.36c3.77,1.4,8.45-4.87,8.08-9.14C110,261.53,110.42,258.53,108.07,257.23Z"/><path class="cls-3" d="M93.22,278.29c2.44,4.14,7.17,7,14,8.59a1.57,1.57,0,0,0,1.57.08l3.47.38a2.65,2.65,0,0,0,.56,0,17.22,17.22,0,0,0,4.45-.81,16.87,16.87,0,0,0,3.37-1.61c.37-.22.75-.44,1.16-.65a5.1,5.1,0,0,1,1.52-.46,7.85,7.85,0,0,0,1.69-.47,5.86,5.86,0,0,0,3.21-4.26,7.67,7.67,0,0,0,.14-2.26c0-.29,0-.59,0-.88v-.14a5.87,5.87,0,0,0,.24-.83,19.81,19.81,0,0,0,.31-5.13,24.65,24.65,0,0,1,.08-3.64c.11-.88.21-1.76.31-2.65.23-2,.46-4,.8-6s.73-3.86,1.12-5.74c.2-1,.4-1.93.59-2.89l5-25.44a24.51,24.51,0,0,0,.73-7.39,31.66,31.66,0,0,0-2-7.35c-.24-.68-.49-1.35-.71-2l-4.79-14.32c-.63-1.92-1.5-4.54-3.38-5.48a3.25,3.25,0,0,0-2-.29,3.93,3.93,0,0,0-2.69-1.4,3.57,3.57,0,0,0-1.13.13c-1.57.44-3,1.89-4.74,3.69s-3.6,3.51-5.61,5.31c-3.4,3-6.91,6.2-9.38,9.89-1.64,2.45-1.75,5.94-1.85,9,0,1.18-.07,2.3-.19,3.27-.79,6.65-1.76,13.4-2.69,19.93L96.14,238a29.62,29.62,0,0,1-.89,3.86l-.15.56a8.34,8.34,0,0,0-.17,3,9.73,9.73,0,0,1,0,1.62,88.07,88.07,0,0,1-1.44,9c-.58,3-1.17,6-1.47,9,0,.45-.09.91-.14,1.37C91.49,270.47,91,274.6,93.22,278.29Z"/><path class="cls-3" d="M109.85,214.2l1.5-2.06.14.08c-.13.73-.24,1.46-.34,2.2-.21,1.65,1.76,3.74,2.5,1.36l.15-.49c0,.05,0,.11,0,.16-.09,2.12,2.25,3.62,2.59.85l.19-1.61.09,0,.11,4.46c.05,2.1,2.25,2.57,2.58.3.18-1.21.32-2.41.46-3.62l.63.21c.38,1.05.79,2.1,1.26,3.14.91,2,2.38.19,2.29-1.25.88,1.48,2-.06,2.07-1.44.41.8.81,1.6,1.22,2.4,1.3,2.5,2.63-.71,2-2.29A91.88,91.88,0,0,1,124.87,201c-.52-2.7-2.78-.75-2.37,1.34,0,.18.08.35.12.53q-1-2.14-1.92-4.3c-.9-2.07-2.08-.31-2.15,1.29a1.16,1.16,0,0,0-.48.86c-.33-1.2-1.42-2.46-2.25-.94-.38.7-.73,1.4-1.07,2.11a1.31,1.31,0,0,0-.4.39L111.66,206c-.37-.5-.86-.68-1.38,0l-1.16,1.47a3,3,0,0,0-.43,2.29c-.22.45-.45.9-.72,1.37C107.35,212.23,108.63,215.88,109.85,214.2Z"/><path class="cls-4" d="M102.26,275.83l1.73,2.73c.66,1,1.38.47,1.78-.34.55.77,1.12,1.53,1.74,2.27s1.24.62,1.58,0c.92.92,2.19-1.15,1.78-2.5q-.41-1.37-.86-2.72l2.25,5.83c.77,2,2.24.33,2.28-1.17.19.54.38,1.09.58,1.63.95,2.57,3,.76,2.37-1.34l0-.16c1,1.31,4.53-.31,4-2.13-.71-2.29-3.41-4.59-4.09-6.89-.95-3.53-1.74-7.1-2.45-10.68a66.21,66.21,0,0,0,8.41,18.81c1.26,1.86,2.25-1.15,2-2.21l-3.31-12c1,1,2.38-.55,1.85-2.28q-3.85-12.7-7-25.59l6.63,19c.91,2.62,2.87.75,2.37-1.34-.38-1.6-.79-3.19-1.19-4.79a1.78,1.78,0,0,0,.78-2c-.19-1.33-.39-2.65-.62-4,.85,1.06,2.36.13,2.07-1.61l-1.12-6.79c.59,1,1.22,2,1.92,3,1.1,1.58,2.15-.61,2.05-1.67s-.25-2.22-.43-3.31a2.08,2.08,0,0,0,.35-1.61l-2-11c-.44-2.45-3-2.27-2.57.25h0l-.17-.33c-.64-1.18-1.38-1-1.84-.36-.81-1.38-2.59-.93-2.23,1.2l.9,5.43q-1.46-3.56-3.12-7c-.7-1.46-1.68-.89-2.1.12l-1.32-4.08c-.8-2.47-2.8-.92-2.44,1l-.92-2.63c-.93-2.65-2.78-.72-2.37,1.34q.72,3.62,1.49,7.22l-3.24-9.92c-.85-2.62-2.95-.75-2.37,1.34l4.29,15.55c-.74-2.29-1.56-4.56-2.5-6.77s-2.68.25-2.2,1.81c.3,1,.59,2,.86,3-.81-.8-2.1.23-2,1.8q.26,3.25.63,6.49c-.8-.26-1.71.63-1.53,2q1.24,9.64,3.24,19.14c-1.71-4.44-2.43-10.88-4.14-15.32-.93-2.41-3.5,2.36-3.19,3.81q1,4.77,2.2,9.47c-.67.11-1.22,1.16-1.16,2.13a38.27,38.27,0,0,0,1.52,8.31,2.68,2.68,0,0,0-.56,1.91l-1.27-2c-1.06-1.67-2.11.69-2.05,1.67A22.73,22.73,0,0,0,100,277C101,278.9,102.21,277.37,102.26,275.83Zm17.14-10.11c-3.3-8.24-5-17.13-7.14-25.86Z"/><path class="cls-5" d="M108.79,283.23c7.51,1.43,13.73-1.75,16.75-8.8a3.42,3.42,0,0,0-.4-2.66q.88-7.27,1.81-14.52l3.24-16.42,3.9-19.76c.68-3.42.42-4.66-.73-8.09l-7-20.86c-.43-1.29-1.53-.37-1.19.67l5.87,17.54a66.74,66.74,0,0,1,2.37,7v.1c-.09.69-.27,1.39-.41,2.08l-3.11,15.77q1.11-8,2.28-16s0-.1,0-.15a2.1,2.1,0,0,0,.45-2.32l-9.18-24.88c-.18-1.37-1.06-2.71-2-1.63-5.38,6.24-11.85,11.43-17.23,17.67a1.94,1.94,0,0,0-.38,1.2,2.62,2.62,0,0,0,0,1.18c-.15-.6,0,.41-.07.8-.07.82-.12,1.65-.2,2.47-.23,2.41-.53,4.81-.83,7.21-.86,6.81-1.84,13.6-2.81,20.39-1.52,10.64-4.09,21.72-4.25,32.49a2.66,2.66,0,0,0,.25,1.15,2.54,2.54,0,0,0,.08.27C97.76,279.86,104.27,282.37,108.79,283.23Zm13.67-11.56a2.48,2.48,0,0,0,.07.93l-.25,1.27c-2.62,4.14-5.84,6-10.86,5.51,3.56-18.94,5-38.12,6.34-57.34,3.75.88,6.71,1.81,10.35.68C125.69,239.34,124.47,255,122.46,271.68Zm-.54-76.15-.33-.12.2-.21Zm-15.35,16.09c2.95-3.32,6.18-7.36,9.36-10.45a8.62,8.62,0,0,0,8.56,1.32L130,217.35l-.08.13a1,1,0,0,0-.79,0C121.68,220.27,110.89,218.58,106.57,211.62ZM98.4,273.8c0-.06,0-.11-.07-.16.31-11.13,2.93-22.54,4.49-33.51,1-6.76,1.93-13.53,2.77-20.31.17-1.42.46-3,.68-4.58a21.21,21.21,0,0,0,8.91,6,485.23,485.23,0,0,1-7.43,57.65C104.57,278.16,99.36,276.43,98.4,273.8Z"/><path class="cls-4" d="M124.1,204.83c.9,0,1.86-2,.89-2s-1.86,2-.89,2Z"/><path class="cls-5" d="M125.56,203.65c-4.42,2.58-8.15-1.85-10.48-5.1-.71-1-1.24.88-.77,1.54,2.62,3.64,6.89,8.37,11.79,5.5.72-.42.28-2.43-.53-2Z"/><path class="cls-3" d="M145.73,240.45a7.06,7.06,0,0,0-.88-5.73c-2-2.79-5-5.59-8.71-5.38-5.09.28-8.63,4.52-11.47,8.34-4.57,6.15-10,16.57-6.67,24.29s12.68,6.1,18.19,1.92C143.1,258.65,147.16,249.06,145.73,240.45Z"/><path class="cls-5" d="M63.55,192.75a3.47,3.47,0,0,0-.74.35c-.58-.15-1.21.41-1.52.75-1.47,1.67-1.7,4.43.33,5.86,2.47,1.74,4.52-1.31,4.84-3.14C66.74,195,66.3,191.91,63.55,192.75Zm.31,2.68a1.17,1.17,0,0,1,.23.45,2,2,0,0,1-.3-.27s-.19-.28-.32-.44h.06C63.62,195.28,63.77,195.32,63.86,195.43Z"/><path class="cls-5" d="M82.21,196.56a3.47,3.47,0,0,0-.74.35c-.58-.15-1.21.41-1.52.75-1.47,1.67-1.7,4.43.33,5.86,2.47,1.74,4.52-1.31,4.84-3.14C85.4,198.76,85,195.72,82.21,196.56Zm.31,2.68a1.17,1.17,0,0,1,.23.45,2,2,0,0,1-.3-.27s-.19-.28-.32-.44h.06C82.28,199.09,82.43,199.13,82.52,199.24Z"/><path class="cls-5" d="M84.86,209.12l-26.35-5.25a.45.45,0,0,0-.34,0,1.69,1.69,0,0,0-1.25,1.83,20.56,20.56,0,0,0,2.61,7.21.5.5,0,0,0,.15.22A12.88,12.88,0,0,0,70,219.2c6.35.49,11.88-3.26,15-8.55C85.23,210.26,85.6,209.27,84.86,209.12ZM68.2,216.5a10,10,0,0,1-5.93-3.78c2.63-1.09,5.52-1.45,7.69.49l.76.61a5.23,5.23,0,0,1,7.54,1.44A12.86,12.86,0,0,1,68.2,216.5Z"/><path class="cls-3" d="M89.55,365c.11-.37.24-.73.32-1.11C89.77,364.23,89.66,364.6,89.55,365Z"/><path class="cls-3" d="M68,342.77l.09-.06h0Z"/><path class="cls-3" d="M80.72,334.47a20.67,20.67,0,0,0-15.06.15c0-1.78-.94-2.93-3.35-1.85-15.55,7-23,25.66-12.52,40a26.12,26.12,0,0,0,4.46,4.75c1.87,2,5.26,3.81,8.24,5.22,8.53,4,18.51,1.73,25-4.73a26.58,26.58,0,0,0,4.88-4.82C103.47,358.89,97.18,340.55,80.72,334.47Zm-12.58,8.25c-.21.16-.18.13-.09.06-1.46,1-9.28,4.47-13.36,12.06-.6,1.11.33-2.73,5.05-7.21a19.9,19.9,0,0,1,7.8-4.88l.58,0C68.26,342.6,68.41,342.48,68.14,342.71ZM85,373.28c-.75.26-.5.45-1.25.6,4.54-3.74,8.54-10.88,9.2-19.51C93.32,360.2,90.69,368.5,85,373.28Z"/><path class="cls-3" d="M16.16,419.6c.08.41.17.81.27,1.21.13.22.28.51.49.91,1.62,2.19,2.91,5.69,4.2,8.14a119.7,119.7,0,0,1,13.79-20.71c1.57,11.56-.41,20.88-1.38,33.73,3.23,1.67,8.52,4.23,11.75,5.92,1.66.87,3.32,1.76,5,2.61.49.25,4.88,2.31,4.77,2.35a59.82,59.82,0,0,0,9.89,2.75c.57.11,1.14.2,1.72.29l1.32.13c2.08,0,5.13,1.19,7.22,1.16,3.67-9.48,8.69-23.5,11.34-32.83,3.09-10.88,4.16-39.16-11.29-35.5-9.29.93-14.9-.79-23.6-5.26-.34-1-5.73-3.27-7-3.56-10.6-2.46-17.47,8.93-22.7,16.44-3.13,4.5-6.18,9.16-9,14A38,38,0,0,1,16.16,419.6Z"/><path class="cls-3" d="M108.07,412.59a88.5,88.5,0,0,1-26.21-21.81c-4.11-5.08-12.91,5.59-9.44,9.88.36.45.75.88,1.12,1.32a4.47,4.47,0,0,0,.48,2.4,40.73,40.73,0,0,0,5.35,7.54c5.59,7.26,12.07,13.46,21.08,16.81,3.77,1.4,8.45-4.87,8.08-9.14C110,416.89,110.42,413.89,108.07,412.59Z"/><path class="cls-3" d="M93.22,433.65c2.44,4.14,7.17,7,14,8.59a1.57,1.57,0,0,0,1.57.08l3.47.38a2.65,2.65,0,0,0,.56,0,17.22,17.22,0,0,0,4.45-.81,16.87,16.87,0,0,0,3.37-1.61c.37-.22.75-.44,1.16-.65a5.1,5.1,0,0,1,1.52-.46,7.85,7.85,0,0,0,1.69-.47,5.86,5.86,0,0,0,3.21-4.26,7.67,7.67,0,0,0,.14-2.26c0-.29,0-.59,0-.88v-.14a5.87,5.87,0,0,0,.24-.83,19.81,19.81,0,0,0,.31-5.13,24.65,24.65,0,0,1,.08-3.64c.11-.88.21-1.76.31-2.65.23-2,.46-4,.8-6s.73-3.86,1.12-5.74c.2-1,.4-1.93.59-2.89l5-25.44a24.51,24.51,0,0,0,.73-7.39,31.66,31.66,0,0,0-2-7.35c-.24-.68-.49-1.35-.71-2l-4.79-14.32c-.63-1.92-1.5-4.54-3.38-5.48a3.25,3.25,0,0,0-2-.29,3.93,3.93,0,0,0-2.69-1.4,3.57,3.57,0,0,0-1.13.13c-1.57.44-3,1.89-4.74,3.69s-3.6,3.51-5.61,5.31c-3.4,3-6.91,6.2-9.38,9.89-1.64,2.45-1.75,5.94-1.85,9,0,1.18-.07,2.3-.19,3.27-.79,6.65-1.76,13.4-2.69,19.93l-.22,1.57a29.62,29.62,0,0,1-.89,3.86l-.15.56a8.34,8.34,0,0,0-.17,3,9.73,9.73,0,0,1,0,1.62,88.07,88.07,0,0,1-1.44,9c-.58,3-1.17,6-1.47,9,0,.45-.09.91-.14,1.37C91.49,425.83,91,430,93.22,433.65Z"/><path class="cls-3" d="M109.85,369.56l1.5-2.06.14.08c-.13.73-.24,1.46-.34,2.2-.21,1.65,1.76,3.74,2.5,1.36l.15-.49c0,.05,0,.11,0,.16-.09,2.12,2.25,3.62,2.59.85l.19-1.61.09,0,.11,4.46c.05,2.1,2.25,2.57,2.58.3.18-1.21.32-2.41.46-3.62l.63.21c.38,1.05.79,2.1,1.26,3.14.91,2,2.38.19,2.29-1.25.88,1.48,2-.06,2.07-1.44.41.8.81,1.6,1.22,2.4,1.3,2.5,2.63-.71,2-2.29a91.88,91.88,0,0,1-4.43-15.58c-.52-2.7-2.78-.75-2.37,1.34,0,.18.08.35.12.53q-1-2.14-1.92-4.3c-.9-2.07-2.08-.31-2.15,1.29a1.16,1.16,0,0,0-.48.86c-.33-1.2-1.42-2.46-2.25-.94-.38.7-.73,1.4-1.07,2.11a1.31,1.31,0,0,0-.4.39l-2.68,3.69c-.37-.5-.86-.68-1.38,0l-1.16,1.47a3,3,0,0,0-.43,2.29c-.22.45-.45.9-.72,1.37C107.35,367.59,108.63,371.24,109.85,369.56Z"/><path class="cls-4" d="M102.26,431.19l1.73,2.73c.66,1,1.38.47,1.78-.34.55.77,1.12,1.53,1.74,2.27s1.24.62,1.58,0c.92.92,2.19-1.15,1.78-2.5q-.41-1.37-.86-2.72l2.25,5.83c.77,2,2.24.33,2.28-1.17.19.54.38,1.09.58,1.63.95,2.57,3,.76,2.37-1.34l0-.16c1,1.31,2.53-.31,2-2.13q-1.07-3.44-2.09-6.89c-.95-3.53-1.74-7.1-2.45-10.68,1.94,6.58,3.44,13,7.41,18.81,1.26,1.86,3.25-1.15,3-2.21l-3.31-12c1,1,2.38-.55,1.85-2.28q-3.85-12.7-7-25.59l6.63,19c.91,2.62,2.87.75,2.37-1.34-.38-1.6-.79-3.19-1.19-4.79a1.78,1.78,0,0,0,.78-2c-.19-1.33-.39-2.65-.62-4,.85,1.06,2.36.13,2.07-1.61l-1.12-6.79c.59,1,1.22,2,1.92,3,1.1,1.58,2.15-.61,2.05-1.67s-.25-2.22-.43-3.31a2.08,2.08,0,0,0,.35-1.61l-2-11c-.44-2.45-3-2.27-2.57.25h0l-.17-.33c-.64-1.18-1.38-1-1.84-.36-.81-1.38-2.59-.93-2.23,1.2.3,1.81,2.6,8.62,2.9,10.43-1-2.37-4-9.72-5.12-12-.7-1.46-1.68-.89-2.1.12l-1.32-4.08c-.8-2.47-2.8-.92-2.44,1l-.92-2.63c-.93-2.65-2.78-.72-2.37,1.34q.72,3.62,1.49,7.22l-3.24-9.92c-.85-2.62-2.95-.75-2.37,1.34,1.43,5.18,2.49,5,4.29,15.55-.74-2.29-2.56-6.56-3.5-8.77s-2.68-.75-2.2.81c.3,1,1.59,5,1.86,6-.81-.8-2.1.23-2,1.8q.26,3.25.63,6.49c-.8-.26-1.71.63-1.53,2q1.24,9.64,3.24,19.14c-1.71-4.44-2.43-10.88-4.14-15.32-.93-2.41-3.5,2.36-3.19,3.81q1,4.77,2.2,9.47c-.67.11-1.22,1.16-1.16,2.13a38.27,38.27,0,0,0,1.52,8.31,2.68,2.68,0,0,0-.56,1.91l-1.27-2c-1.06-1.67-2.11.69-2.05,1.67a22.73,22.73,0,0,0,2.52,9.26C101,434.26,102.21,432.73,102.26,431.19Zm17.14-10.11c-3.3-8.24-5-17.13-7.14-25.86Z"/><path class="cls-5" d="M108.79,438.6c7.51,1.43,13.73-1.75,16.75-8.8a3.42,3.42,0,0,0-.4-2.66q.88-7.27,1.81-14.52l3.24-16.42,3.9-19.76c.68-3.42.42-4.66-.73-8.09l-7-20.86c-.43-1.29-1.53-.37-1.19.67l5.87,17.54a66.74,66.74,0,0,1,2.37,7v.1c-.09.69-.27,1.39-.41,2.08l-3.11,15.77q1.11-8,2.28-16s0-.1,0-.15a2.1,2.1,0,0,0,.45-2.32l-9.18-24.88c-.18-1.37-1.06-2.71-2-1.63-5.38,6.24-11.85,10.43-17.23,16.67a6.38,6.38,0,0,0-.38,2.2,2.62,2.62,0,0,0,0,1.18c-.15-.6,0,.41-.07.8-.07.82-.12,1.65-.2,2.47-.23,2.41-.53,4.81-.83,7.21-.86,6.81-2.84,13.6-3.81,20.39-1.52,10.64-3.09,21.72-3.25,32.49a2.66,2.66,0,0,0,.25,1.15,2.54,2.54,0,0,0,.08.27C97.76,435.23,104.27,437.73,108.79,438.6ZM122.46,427a2.48,2.48,0,0,0,.07.93l-.25,1.27a11.85,11.85,0,0,1-11.86,5.51,493.62,493.62,0,0,0,7.34-57.34,21.71,21.71,0,0,0,11.35-.32Q125.48,402,122.46,427Zm-.54-76.15-.33-.12.2-.21ZM106.57,366c2.95-3.32,6.18-6.36,9.36-9.45a8.62,8.62,0,0,0,8.56,1.32L130,372.71l-.08.13a1,1,0,0,0-.79,0C121.68,375.63,110.89,372.94,106.57,366ZM98.4,429.16c0-.06,0-.11-.07-.16.31-11.13,2.93-22.54,4.49-33.51,1-6.76,1.93-13.53,2.77-20.31.17-1.42.46-3,.68-4.58a21.21,21.21,0,0,0,8.91,6,485.23,485.23,0,0,1-7.43,57.65C104.57,433.52,99.36,431.79,98.4,429.16Z"/><path class="cls-4" d="M124.1,360.2c.9,0,1.86-2,.89-2s-1.86,2-.89,2Z"/><path class="cls-5" d="M125.56,359c-4.42,2.58-8.15-1.85-10.48-5.1-.71-1-1.24.88-.77,1.54,2.62,3.64,6.89,8.37,11.79,5.5.72-.42.28-2.43-.53-2Z"/><path class="cls-3" d="M145.73,394.81a7.06,7.06,0,0,0-.88-5.73c-2-2.79-5-5.59-8.71-5.38-5.09.28-8.63,4.52-11.47,8.34-4.57,6.15-10,16.57-6.67,24.29s12.68,6.1,18.19,1.92C143.1,413,147.16,403.42,145.73,394.81Z"/><path class="cls-5" d="M63.55,348.11a3.47,3.47,0,0,0-.74.35c-.58-.15-1.21.41-1.52.75-1.47,1.67-1.7,4.43.33,5.86,2.47,1.74,5.52-1.31,5.84-3.14C67.74,350.31,66.3,347.28,63.55,348.11Zm.31,2.68a1.17,1.17,0,0,1,.23.45,2,2,0,0,1-.3-.27s-.19-.28-.32-.44h.06C63.62,350.64,63.77,350.68,63.86,350.79Z"/><path class="cls-5" d="M82.21,351.92a3.47,3.47,0,0,0-.74.35c-.58-.15-1.21.41-1.52.75-1.47,1.67-1.7,4.43.33,5.86,2.47,1.74,4.52-1.31,4.84-3.14C85.4,354.12,85,351.08,82.21,351.92Zm.31,2.68a1.17,1.17,0,0,1,.23.45,2,2,0,0,1-.3-.27s-.19-.28-.32-.44h.06C82.28,354.45,82.43,354.49,82.52,354.6Z"/><path class="cls-5" d="M84.86,364.48a120.14,120.14,0,0,0-26.35-5.25.45.45,0,0,0-.34,0A1.69,1.69,0,0,0,56.93,361a20.56,20.56,0,0,0,2.61,7.21.5.5,0,0,0,.15.22,12.88,12.88,0,0,0,10.3,6.1c6.35.49,11.88-3.26,15-8.55C85.23,365.63,85.58,364.7,84.86,364.48ZM68.2,371.86c-2.81-.8-3.84-2.31-5.32-4.28,2.63-1.09,4.68-.48,6.85,1.45.09.39,1.41.57,2,.14,2.61-1.9,4.84-1,6.54,1.44A12.86,12.86,0,0,1,68.2,371.86Z"/><path class="cls-3" d="M80.72,491a20.67,20.67,0,0,0-15.06.15c0-1.78-.94-2.93-3.35-1.85-15.55,7-22,27.66-11.52,42,1.32,1.82,2.83,2.39,4.46,3.75,1.87,2,4.26,2.81,7.24,4.22,8.53,4,19.51,1.73,26-4.73,1.77-1.36,2.42-2.95,3.88-4.82C103.47,515.43,97.18,497.09,80.72,491ZM85,529.82c-.75.26-.5.45-1.25.6,5.64-4.64,7.43-13.9,7.4-20.68.05.17-.87.32-.82.5A20.36,20.36,0,0,1,85,529.82ZM67.54,499.29l.6,0c-.55.42.52-.45,0,0-1.24.88-9.29,4.38-13.46,12.11-.6,1.11.33-2.73,5.05-7.21A19.9,19.9,0,0,1,67.54,499.29ZM89.87,520.4c-.08.38-.2.74-.32,1.11C89.66,521.14,89.77,520.77,89.87,520.4Zm-.41,1.43c-.06.17-.12.34-.19.51C89.33,522.17,89.4,522,89.46,521.83Z"/><path class="cls-3" d="M16.16,576.14c.08.41.17.81.27,1.21.13.22.28.51.49.91a55,55,0,0,1,4.2,7.14,111.67,111.67,0,0,1,13.79-19.71c1.57,11.56-.41,20.88-1.38,33.73,3.23,1.67,8.52,4.23,11.75,5.92,1.66.87,3.32,1.76,5,2.61.49.25,4.88,2.31,4.77,2.35A59.82,59.82,0,0,0,64.93,613c.57.11,1.14.2,1.72.29l1.32.13c2.08,0,4.13.19,6.22.16,3.67-9.48,7.44-19.58,10.34-28.83,3.8-12.12,6.16-42.16-9.29-38.5-9.29.93-14.9-1.79-23.6-6.26-.34-1-5.73-2.27-7-2.56C34,535,27.17,544.41,21.95,551.92c-3.13,4.5-6.18,9.16-9,14C14.34,568.52,15.39,573.26,16.16,576.14Z"/><path class="cls-3" d="M108.07,569.13a88.5,88.5,0,0,1-26.21-21.81c-4.11-5.08-12.91,5.59-9.44,9.88.36.45.75.88,1.12,1.32a4.47,4.47,0,0,0,.48,2.4,40.73,40.73,0,0,0,5.35,7.54c5.59,7.26,12.07,13.46,21.08,16.81,3.77,1.4,8.45-4.87,8.08-9.14C110,573.44,110.42,570.43,108.07,569.13Z"/><path class="cls-3" d="M93.22,590.19c2.44,4.14,7.17,7,14,8.59a1.57,1.57,0,0,0,1.57.08l3.47.38a2.65,2.65,0,0,0,.56,0,17.22,17.22,0,0,0,4.45-.81,16.87,16.87,0,0,0,3.37-1.61c.37-.22.75-.44,1.16-.65a5.1,5.1,0,0,1,1.52-.46,7.85,7.85,0,0,0,1.69-.47,5.86,5.86,0,0,0,3.21-4.26,7.67,7.67,0,0,0,.14-2.26c0-.29,0-.59,0-.88v-.14a5.87,5.87,0,0,0,.24-.83,19.81,19.81,0,0,0,.31-5.13,24.65,24.65,0,0,1,.08-3.64c.11-.88.21-1.76.31-2.65.23-2,.46-4,.8-6s.73-3.86,1.12-5.74c.2-1,.4-1.93.59-2.89l5-25.44a24.51,24.51,0,0,0,.73-7.39,31.66,31.66,0,0,0-2-7.35c-.24-.68-.49-1.35-.71-2l-4.79-14.32c-.63-1.92-1.5-4.54-3.38-5.48a3.25,3.25,0,0,0-2-.29,3.93,3.93,0,0,0-2.69-1.4,3.57,3.57,0,0,0-1.13.13c-1.57.44-3,1.89-4.74,3.69s-3.6,3.51-5.61,5.31c-3.4,3-6.91,6.2-9.38,9.89-1.64,2.45-1.75,5.94-1.85,9,0,1.18-.07,2.3-.19,3.27-.79,6.65-1.76,13.4-2.69,19.93l-.22,1.57a29.62,29.62,0,0,1-.89,3.86l-.15.56a8.34,8.34,0,0,0-.17,3A9.73,9.73,0,0,1,95,559a88.07,88.07,0,0,1-1.44,9c-.58,3-1.17,6-1.47,9,0,.45-.09.91-.14,1.37C91.49,582.37,91,586.5,93.22,590.19Z"/><path class="cls-3" d="M109.85,526.1l1.5-2.06.14.08c-.13.73-.24,1.46-.34,2.2-.21,1.65,1.76,3.74,2.5,1.36l.15-.49c0,.05,0,.11,0,.16-.09,2.12,2.25,3.62,2.59.85l.19-1.61.09,0,.11,4.46c.05,2.1,2.25,2.57,2.58.3.18-1.21.32-2.41.46-3.62l.63.21c.38,1.05.79,2.1,1.26,3.14.91,2,2.38.19,2.29-1.25.88,1.48,2-.06,2.07-1.44.41.8.81,1.6,1.22,2.4,1.3,2.5,2.63-.71,2-2.29a91.88,91.88,0,0,1-4.43-15.58c-.52-2.7-2.78-.75-2.37,1.34,0,.18.08.35.12.53q-1-2.14-1.92-4.3c-.9-2.07-2.08-.31-2.15,1.29a1.16,1.16,0,0,0-.48.86c-.33-1.2-1.42-2.46-2.25-.94-.38.7-.73,1.4-1.07,2.11a1.31,1.31,0,0,0-.4.39l-2.68,3.69c-.37-.5-.86-.68-1.38,0l-1.16,1.47a3,3,0,0,0-.43,2.29c-.22.45-.45.9-.72,1.37C107.35,524.13,108.63,527.78,109.85,526.1Z"/><path class="cls-4" d="M102.26,591.73c.58.91,1.16-2.18,1.73-1.27s1.38.47,1.78-.34c.55.77,1.12,1.53,1.74,2.27s1.24.62,1.58,0c.92.92,2.19-1.15,1.78-2.5q-.41-1.37-.86-2.72l2.25,5.83c.77,2,2.24.33,2.28-1.17.19.54.38,1.09.58,1.63.95,2.57,3,.76,2.37-1.34l0-.16c1,1.31,2.53-.31,2-2.13q-1.07-3.44-2.09-6.89c-.95-3.53-1.74-7.1-2.45-10.68,1.94,6.58,3.44,13,7.41,18.81,1.26,1.86,3.25-1.15,3-2.21l-3.31-12c1,1,2.38-.55,1.85-2.28q-3.85-12.7-7-25.59l6.63,19c.91,2.62,2.87.75,2.37-1.34-.38-1.6-.79-3.19-1.19-4.79a1.78,1.78,0,0,0,.78-2c-.19-1.33-.39-2.65-.62-4,.85,1.06,2.36.13,2.07-1.61l-1.12-6.79c.59,1,1.22,2,1.92,3,1.1,1.58,2.15-.61,2.05-1.67s-.25-2.22-.43-3.31a2.08,2.08,0,0,0,.35-1.61c-.65-3.65.7-7.3,0-11-.44-2.45-5-2.27-4.57.25h0l-.17-.33c-.64-1.18-1.38-1-1.84-.36-.81-1.38-2.59-.93-2.23,1.2l.9,5.43c-1-2.37-1-4.72-2.12-7-.7-1.46-2.68-.89-3.1.12l-1.32-4.08c-.8-2.47-2.8-.92-2.44,1l-.92-2.63c-.93-2.65-2.78-.72-2.37,1.34q.72,3.62,1.49,7.22l-3.24-9.92c-.85-2.62-2.95-.75-2.37,1.34l4.29,15.55c-.74-2.29-2.56-7.56-3.5-9.77s-1.68,3.25-1.2,4.81c.3,1-.41,2-.14,3-.81-.8-1.1.23-1,1.8q.26,3.25.63,6.49c-.8-.26-1.71.63-1.53,2q1.24,9.64,3.24,19.14c-1.71-4.44-2.43-9.88-4.14-14.32-.93-2.41-3.5,1.36-3.19,2.81q1,4.77,2.2,9.47c-.67.11-1.22,1.16-1.16,2.13a38.27,38.27,0,0,0,1.52,8.31,2.68,2.68,0,0,0-.56,1.91l-1.27-2c-1.06-1.67-2.11.69-2.05,1.67a22.73,22.73,0,0,0,2.52,9.26C101,590.8,102.21,593.27,102.26,591.73Zm17.14-14.11c-3.3-8.24-5-17.13-7.14-25.86Z"/><path class="cls-5" d="M108.79,596.14c7.51,1.43,13.73-2.75,16.75-9.8a3.42,3.42,0,0,0-.4-2.66q.88-7.27,1.81-14.52l3.24-16.42,3.9-19.76c.68-3.42.42-4.66-.73-8.09l-7-20.86c-.43-1.29-1.53-.37-1.19.67l5.87,17.54a66.74,66.74,0,0,1,2.37,7v.1c-.09.69-.27,1.39-.41,2.08l-3.11,15.77q1.11-8,2.28-16s0-.1,0-.15a2.1,2.1,0,0,0,.45-2.32l-9.18-24.88c-.18-1.37-1.06-2.71-2-1.63-5.38,6.24-11.85,11.43-17.23,17.67a1.94,1.94,0,0,0-.38,1.2,2.62,2.62,0,0,0,0,1.18c-.15-.6,0,.41-.07.8-.07.82-.12,1.65-.2,2.47-.23,2.41-.53,4.81-.83,7.21-.86,6.81-1.84,13.6-2.81,20.39-1.52,10.64-4.09,21.72-4.25,32.49a2.66,2.66,0,0,0,.25,1.15A2.54,2.54,0,0,0,96,587C97.76,591.77,104.27,595.28,108.79,596.14Zm13.67-12.56a2.48,2.48,0,0,0,.07.93l-.25,1.27a11.85,11.85,0,0,1-11.86,5.51,493.62,493.62,0,0,0,7.34-57.34,21.71,21.71,0,0,0,11.35-.32Q125.48,558.56,122.46,583.58Zm-.54-76.15-.33-.12.2-.21Zm-15.35,15.09c2.95-3.32,6.18-6.36,9.36-9.45a8.62,8.62,0,0,0,8.56,1.32L130,529.25l-.08.13a1,1,0,0,0-.79,0C121.68,532.17,110.89,529.48,106.57,522.52ZM98.4,585.7c0-.06,0-.11-.07-.16.31-11.13,2.93-22.54,4.49-33.51,1-6.76,1.93-13.53,2.77-20.31.17-1.42.46-3,.68-4.58a21.21,21.21,0,0,0,8.91,6,485.23,485.23,0,0,1-7.43,57.65C104.57,590.06,99.36,588.33,98.4,585.7Z"/><path class="cls-4" d="M124.1,516.74c.9,0,1.86-2,.89-2s-1.86,2-.89,2Z"/><path class="cls-5" d="M125.56,515.55c-4.42,2.58-8.15-1.85-10.48-5.1-.71-1-1.24.88-.77,1.54,2.62,3.64,6.89,8.37,11.79,5.5.72-.42.28-2.43-.53-2Z"/><path class="cls-3" d="M145.73,551.35a7.06,7.06,0,0,0-.88-5.73c-2-2.79-5-5.59-8.71-5.38-5.09.28-8.63,4.52-11.47,8.34-4.57,6.15-10,16.57-6.67,24.29s12.68,6.1,18.19,1.92C143.1,569.55,147.16,560,145.73,551.35Z"/><path class="cls-5" d="M63.55,504.65a3.47,3.47,0,0,0-.74.35c-.58-.15-1.21.41-1.52.75-1.47,1.67-1.9,4.78.33,5.86,2.75,1.33,4.59-.78,4.91-2.61C66.82,507.38,66.3,503.82,63.55,504.65Z"/><path class="cls-5" d="M82.21,508.46a3.47,3.47,0,0,0-.74.35c-.58-.15-.85.73-1.16,1.07-1.47,1.67-2.06,4.11,0,5.54,2.47,1.74,4.52-1.31,4.84-3.14C85.4,510.66,85,507.63,82.21,508.46Zm.31,2.68a1.17,1.17,0,0,1,.23.45,2,2,0,0,1-.3-.27s-.19-.28-.32-.44h.06C82.28,511,82.43,511,82.52,511.14Z"/><path class="cls-5" d="M85,521.91c-8.78-1.75-16.63-4.43-25.41-6.18-1.8-.67-1.44-.6-2-.42-.72,0-.79,1.64-.59,2.27a20.56,20.56,0,0,0,2.61,7.21.5.5,0,0,0,.15.22A12.88,12.88,0,0,0,70,531.1a15.73,15.73,0,0,0,15.12-7.66C85.34,523.06,85.71,522.06,85,521.91ZM68.2,528.4a11.66,11.66,0,0,1-6.32-4.28,7.52,7.52,0,0,1,7.85,1.45c.09.39.41.57,1,.14a5.23,5.23,0,0,1,7.54,1.44A12.86,12.86,0,0,1,68.2,528.4Z"/><path class="cls-6" d="M14.26,77.75c0-15.3,6.1-31.1,16.6-43.2,10.9-12.4,25.3-20,40.6-21.3,1.2-.1,2.4-1,2.3-1.8,0-.3-.2-1-1.8-.8a65.91,65.91,0,0,0-33.7,13c1.5-1.2,3.1-2.4,4.7-3.5A69.86,69.86,0,0,1,82,8.55a71.18,71.18,0,0,1,27.6,5.5c17.3,7.4,30.6,21.9,37.4,41a81.45,81.45,0,0,1,2.4,31.1c-1.9,16.1-8.4,30.2-19,40.7A76.12,76.12,0,0,1,85.56,148a60.86,60.86,0,0,1-12.8.1,61.81,61.81,0,0,1-8.4-2.4C35.76,135.15,14.26,106.05,14.26,77.75ZM38,134.25a61.2,61.2,0,0,1-9.9-9.8A83.34,83.34,0,0,0,38,134.25Zm54.8,14.9c2.8-.6,5.6-1.3,8.3-2.1a81.34,81.34,0,0,0,36.8-23.6,68.13,68.13,0,0,1-26,20.6A57.56,57.56,0,0,1,92.76,149.15Zm24.7-140.5-.8-.5a1.55,1.55,0,0,0-.8-.2c-1.1,0-2.9.7-3.1,1.5a.79.79,0,0,0,.5.9,66.64,66.64,0,0,1,9.3,6.4,73.52,73.52,0,0,0-40.8-10.9c-22.6.5-43.2,10.2-56.5,26.5C13.56,46.55,7.56,66.15,9,86.15c1.3,19.8,10.3,38,24.5,49.7,10.2,8.4,23.1,13.5,37.5,14.6a71.64,71.64,0,0,0,14.6,1.5,69.3,69.3,0,0,0,36.8-10.5,71,71,0,0,0,33.5-52.6,76.38,76.38,0,0,0-4.3-35.3C146.16,34.35,134.06,18.35,117.46,8.65Z"/><path class="cls-6" d="M14.29,233.83c0-15.3,6.1-31.1,16.6-43.2,10.9-12.5,25.3-18.1,40.6-19.4,1.2-.1,2.4-3,2.3-3.8,0-.3-.2-1-1.8-.8a65.91,65.91,0,0,0-33.7,13c1.5-1.2,3.1-2.4,4.7-3.5a69.86,69.86,0,0,1,39-11.6,71.18,71.18,0,0,1,27.6,5.5c17.3,7.4,30.6,21.9,37.4,41a81.45,81.45,0,0,1,2.4,31.1c-1.9,16.1-8.4,30.2-19,40.7a76.12,76.12,0,0,1-44.8,21.1,60.86,60.86,0,0,1-12.8.1,61.81,61.81,0,0,1-8.4-2.4C35.79,291.23,14.29,262.13,14.29,233.83ZM38,290.23a61.2,61.2,0,0,1-9.9-9.8A83.34,83.34,0,0,0,38,290.23Zm54.8,15c2.8-.6,5.6-1.3,8.3-2.1a81.34,81.34,0,0,0,36.8-23.6,68.13,68.13,0,0,1-26,20.6A62,62,0,0,1,92.79,305.23Zm24.7-140.6-.8-.5a1.55,1.55,0,0,0-.8-.2c-1.1,0-2.9.7-3.1,1.5a.79.79,0,0,0,.5.9,66.64,66.64,0,0,1,9.3,6.4c-11.8-7.4-26.2-12.3-40.8-11.9-22.6.6-44.2,11.3-57.6,27.6-11.6,14.2-16.6,33.8-15.2,53.7s10.3,38,24.5,49.7c10.2,8.4,23.1,13.5,37.5,14.6a71.64,71.64,0,0,0,14.6,1.5,69.3,69.3,0,0,0,36.8-10.5,71,71,0,0,0,33.5-52.6,76.38,76.38,0,0,0-4.3-35.3A75.58,75.58,0,0,0,117.49,164.63Z"/><path class="cls-6" d="M14.29,389.81c0-15.3,6.1-31.1,16.6-43.2,10.9-12.5,25.3-18.1,40.6-19.4,1.2-.1,2.4-3,2.3-3.8,0-.3-.2-1-1.8-.8a65.91,65.91,0,0,0-33.7,13c1.5-1.2,3.1-2.4,4.7-3.5,11-7.5,24.9-10.6,39-10.6,9.6,0,19.1.9,27.6,4.5,17.3,7.4,31.6,19.9,38.4,39a81.45,81.45,0,0,1,2.4,31.1c-1.9,16.1-9.4,32.2-20,42.7a76.12,76.12,0,0,1-44.8,21.1,60.86,60.86,0,0,1-12.8.1,61.81,61.81,0,0,1-8.4-2.4C35.79,447.21,14.29,418.11,14.29,389.81Zm78.5,71.4c2.8-.6,6.6-1.3,9.3-2.1,14.3-4.4,30.3-15.8,39.8-26.6-6.7,8.8-19.8,19-30,23.6A62.05,62.05,0,0,1,92.79,461.21Zm24.7-140.6-.8-.5a1.55,1.55,0,0,0-.8-.2c-1.1,0-2.9.7-3.1,1.5a.79.79,0,0,0,.5.9,66.64,66.64,0,0,1,9.3,6.4c-11.8-7.4-26.2-12.3-40.8-11.9-22.6.5-44.2,11.2-57.5,27.5-11.7,14.2-16.6,32.8-15.3,52.8,1.3,19.8,10.3,37,24.5,48.7,10.2,8.4,23.1,15.5,37.5,16.6a71.64,71.64,0,0,0,14.6,1.5,69.3,69.3,0,0,0,36.8-10.5,71,71,0,0,0,33.5-52.6,76.38,76.38,0,0,0-4.3-35.3A75.58,75.58,0,0,0,117.49,320.61Z"/><path class="cls-6" d="M16,545.73c0-15.3,4.1-31.1,14.6-43.2,10.9-12.5,25.3-18.1,40.6-19.4,1.2-.1,2.4-3,2.3-3.8,0-.3-.2-1-1.8-.8a65,65,0,0,0-33.7,13c1.5-1.2,3.1-2.4,4.7-3.5,11-7.5,24.9-10.6,39-10.6,9.6,0,19.1.9,27.6,4.5,17.3,7.4,31.6,19.9,38.4,39a81.45,81.45,0,0,1,2.4,31.1c-1.9,16.1-9.4,32.2-20,42.7a76.11,76.11,0,0,1-44.8,21.1,60.85,60.85,0,0,1-12.8.1,61.81,61.81,0,0,1-8.4-2.4C35.57,603.13,16,574,16,545.73Zm76.5,71.4c2.8-.6,6.6-1.3,9.3-2.1,14.3-4.4,30.3-15.8,39.8-26.6-6.7,8.8-19.8,19-30,23.6A56.92,56.92,0,0,1,92.47,617.13Zm24.7-140.6-.8-.5a1.55,1.55,0,0,0-.8-.2c-1.1,0-2.9.7-3.1,1.5a.79.79,0,0,0,.5.9,66.64,66.64,0,0,1,9.3,6.4c-11.8-7.4-26.2-12.3-40.8-11.9-22.6.5-44.2,8.2-57.6,24.5C12.17,511.43,8.27,533,9.57,553c1.3,19.8,11.3,37,25.5,48.7,10.2,8.4,21.1,15.5,35.5,16.6a71.64,71.64,0,0,0,14.6,1.5,69.3,69.3,0,0,0,36.8-10.5,71,71,0,0,0,33.5-52.6,76.38,76.38,0,0,0-4.3-35.3A75,75,0,0,0,117.17,476.53Z"/></g></svg>