<svg xmlns="http://www.w3.org/2000/svg" viewBox="0 0 168 624"><defs><style>.cls-1{fill:#009dff;}.cls-2{fill:#09519f;}.cls-3{fill:#f9c236;}.cls-4{fill:#fff;}.cls-5{fill:#042f70;}</style></defs><title>inativo</title><g id="Camada_6" data-name="Camada 6"><path class="cls-1" d="M150.76,93.65a31,31,0,0,0,5.69-8.29,3.17,3.17,0,0,1-.31-.94c-.1-.65-.22-1.3-.33-1.95l-.45-.13c.11-.21.21-.42.31-.63-.35-1.84-.76-3.67-1.2-5.49a11.49,11.49,0,0,0-2.31.12,20.47,20.47,0,0,0-2.4.5c1.29-1.37,2.57-2.75,3.8-4.18q-.49-1.83-1-3.66a8.09,8.09,0,0,0-1.1-.06c.28-.31.55-.64.82-1-.66-2.37-1.33-4.74-1.95-7.13l-.47.09.41-.3a103.41,103.41,0,0,1-2.41-11.55,12.88,12.88,0,0,0-6,2.25l-1.3.9c1.9-1.5,3.8-2.9,5.7-4.4,1.1-.9,1.9-2.5.1-3.1a8.2,8.2,0,0,0-4.4-.1c.5-.5,1.1-1,1.6-1.5,1-.9,2-2.4.1-3.1-2.5-.9-5.7.1-8,1.3-3.3,1.7-6.6,3.5-9.8,5.3a113.24,113.24,0,0,0,10.6-10.2c1.3-1.5-.3-2.5-1.6-2.6a10.45,10.45,0,0,0-2.5,0c2-1.62,3.89-3.28,5.76-5q-2.94-2.26-5.82-4.59a377.87,377.87,0,0,1-31.54,23.9c-2.7,1.7-5.3,3.4-8,5.1,13.2-9.23,26-19.16,37-31.14l-.18-.15a2.87,2.87,0,0,1-1.11-2.7h-.07a11.56,11.56,0,0,0-3.2.1,15.92,15.92,0,0,0,1.3-2.2c1.2-2.2-4-2-4.8-1.8a8.33,8.33,0,0,0-1.5.4c.6-.6,1.3-1.2,1.9-1.8a1.32,1.32,0,0,0,.49-1.22L120,12.12l-2.82-.64a13.2,13.2,0,0,0-4.82,2.07c-5.6,4-11.1,8-16.7,12-1.5.9-3,1.7-4.5,2.5-9.4,5.3-18.4,11.2-27.6,16.8l-3.1,1.8.3-.2C78.88,34.79,97.9,24.37,114.65,11c-2.92-.59-5.86-1.1-8.81-1.52-2.57,1.82-5.25,3.47-7.88,5.12,2.3-1.7,4.7-3.4,6.9-5.2l.05,0c-2.8-.38-5.6-.67-8.4-.85l-1-.06-7.47,5.46a48.28,48.28,0,0,0,4.39-5.67c-1.87-.14-3.74-.32-5.6-.61a20.94,20.94,0,0,1-3.42-.92c-2.39,1.26-4.78,2.57-7.17,3.9.3-.4.7-.8,1-1.2,2.9-3.7-6.3-2.1-7.3-1.7a125.77,125.77,0,0,0-27.5,14.2,150.85,150.85,0,0,0-24.4,19.6c-1.5,1.5.1,2.2,1.6,2.5a71,71,0,0,0-9.4,8.8c-1.4,1.5.2,2.5,1.6,2.6a11.46,11.46,0,0,0,7-1.5c.6-.3,1.1-.7,1.7-1a74.86,74.86,0,0,0-9,7.9c-1.4,1.4.4,2.5,1.6,2.6a13.26,13.26,0,0,0,7-1.5c1.1-.5,2.2-1.1,3.3-1.6-4.3,3.7-8.6,7.7-12.6,11.8-1.4,1.4.4,2.5,1.6,2.6a6.7,6.7,0,0,0,2,0c-1.5,1.5-2.9,3.1-4.3,4.7s.3,2.5,1.6,2.6a10.75,10.75,0,0,0,3.1-.1c-1.3.9-2.7,1.8-4,2.8-1.9,1.4-1.3,3.1.9,3.3a11.78,11.78,0,0,0,8.1-2.2l4-2.8c11.9-8,24.7-14.7,37.2-21.7-4.6,3.6-9.3,7.2-14,10.6-4.4,2.3-8.9,4.5-13.4,6.6-7,3.3-16.8,7.1-19.9,14.9-1.1,2.8,5.4,1.7,6.3,1.5a35.74,35.74,0,0,0,6-2.1c-2.6,1.9-5.2,3.9-7.8,5.8-1.2.8-1.9,2.5-.1,3.1,2.5.9,5.79-.1,8-1.3a53.31,53.31,0,0,0-7.29,8.2c-1.1,1.5.1,2.4,1.7,2.6a12.2,12.2,0,0,0,7-1.5c.9-.5,1.9-1,2.8-1.5-2.3,2.1-4.6,4.2-6.9,6.4-1.4,1.4.4,2.5,1.7,2.6a10.75,10.75,0,0,0,5.3-.8,18.32,18.32,0,0,0-4.1,8.8c-.5,2.9,4.9,1.9,6.3,1.5a48.51,48.51,0,0,0,9.2-3.5c-1.8,1.9-3.5,3.9-5.2,6-1.2,1.5.2,2.5,1.7,2.6a11.83,11.83,0,0,0,3.7-.2,10.7,10.7,0,0,0-1.4,1.6c-1.3,1.5.3,2.5,1.7,2.6a11.46,11.46,0,0,0,7-1.5l.5-.3c-1.1,1-2.2,2.1-3.3,3.2-1.4,1.4.4,2.5,1.7,2.6a10.85,10.85,0,0,0,4-.3c.2,0,.5-.1.8-.1l.3,1.2c.7,2.1,4.9,1.2,6.3.8l.7-.2c-1.2,1.5.2,2.4,1.7,2.6a10.46,10.46,0,0,0,2.5,0c-1,1.9,3.8,2.1,4.8,1.9,2.2-.4,4.4-1,6.5-1.6-.6.3-1.2.7-1.8,1-.9.5-3.3,2.1-1.9,3.4s4.3.7,5.9.2,2.9-.8,4.3-1.3c-.8.7-1.3,1.6-.5,2.4,1.8,1.6,5.5.5,7.4-.3,10.6-4.1,21-8.4,30.3-14.4,1.8-.9,3.6-1.9,5.4-2.9,11.1-6.2,22.6-14.7,26.8-27.4.7-2-1.9-2.1-4.5-1.7a45.68,45.68,0,0,0,5.4-6.9C153.76,94.25,152.56,93.65,150.76,93.65Zm-42.4-66.4c-2.2,1.9-4.6,3.7-7,5.4C103.66,30.75,106,29,108.36,27.25Zm-58.3-3.2a70.58,70.58,0,0,1,6.4-4.2c-4,3-8.3,5.8-12.5,8.4C46,26.75,48,25.35,50.06,24.05Zm-4.3,12.7c8.5-5.6,17-11.3,25.6-16.7-6.8,5.8-14.7,10.4-22.3,14.8Zm18.3,97.4c.1-.2.1-.5.2-.8l10.4-7.4A64,64,0,0,1,64.06,134.15Zm13.1-19.1c7.6-5.7,15.2-11.3,23.1-16.6,4.3-2.9,8.8-5.6,13.2-8.3-4.3,3.1-8.5,6.3-12.8,9.5l-3.7,2.7c-4.2,3-8.5,5.9-12.9,8.6C81.76,112.35,79.46,113.65,77.16,115.05Zm5.1,21.4a146.72,146.72,0,0,1,21.6-15.1C97.16,126.75,90.06,132.55,82.26,136.45Zm31.3-4.2-6,3c4.6-2.9,9.1-6,13.5-9.1A55.47,55.47,0,0,1,113.56,132.25Zm14.3-21.7c1.3-1,2.6-2,4-2.9C130.56,108.65,129.26,109.65,127.86,110.55Zm1.3-12.2c-4.3,3-8.8,5.7-13.4,8.3,4.9-3.6,9.9-7.1,15.1-10.2l4.5-2.7C133.26,95.45,131.16,97,129.16,98.35Z"/><path class="cls-2" d="M14.26,77.75c0-15.3,6.1-31.1,16.6-43.2,10.9-12.4,25.3-20,40.6-21.3,1.2-.1,2.4-1,2.3-1.8,0-.3-.2-1-1.8-.8a65.91,65.91,0,0,0-33.7,13c1.5-1.2,3.1-2.4,4.7-3.5A69.86,69.86,0,0,1,82,8.55a71.18,71.18,0,0,1,27.6,5.5c17.3,7.4,30.6,21.9,37.4,41a81.45,81.45,0,0,1,2.4,31.1c-1.9,16.1-8.4,30.2-19,40.7A76.12,76.12,0,0,1,85.56,148a60.86,60.86,0,0,1-12.8.1,61.81,61.81,0,0,1-8.4-2.4C35.76,135.15,14.26,106.05,14.26,77.75ZM38,134.25a61.2,61.2,0,0,1-9.9-9.8A83.34,83.34,0,0,0,38,134.25Zm54.8,14.9c2.8-.6,5.6-1.3,8.3-2.1a81.34,81.34,0,0,0,36.8-23.6,68.13,68.13,0,0,1-26,20.6A57.56,57.56,0,0,1,92.76,149.15Zm24.7-140.5-.8-.5a1.55,1.55,0,0,0-.8-.2c-1.1,0-2.9.7-3.1,1.5a.79.79,0,0,0,.5.9,66.64,66.64,0,0,1,9.3,6.4,73.52,73.52,0,0,0-40.8-10.9c-22.6.5-43.2,10.2-56.5,26.5C13.56,46.55,7.56,66.15,9,86.15c1.3,19.8,10.3,38,24.5,49.7,10.2,8.4,23.1,13.5,37.5,14.6a71.64,71.64,0,0,0,14.6,1.5,69.3,69.3,0,0,0,36.8-10.5,71,71,0,0,0,33.5-52.6,76.38,76.38,0,0,0-4.3-35.3C146.16,34.35,134.06,18.35,117.46,8.65Z"/><path class="cls-3" d="M58.26,80.75h0c0,.1-.1.1-.1.2C58.16,80.85,58.26,80.85,58.26,80.75Z"/><path class="cls-3" d="M129.46,95.85v.2h-.2C129.36,96.05,129.36,96,129.46,95.85Z"/><path class="cls-4" d="M134.25,115.93c-2.09-2.48-4.8-3.9-7.42-5.28-.62-.32-1.23-.65-1.83-1a33.84,33.84,0,0,1-8.89-7.41c-1.63-1.85-3.21-3.84-4.74-5.76l-1.57-2a32.17,32.17,0,0,0,.75-5.64,4.77,4.77,0,0,0,0-.63,6.48,6.48,0,0,0-.06-1C109.83,74.9,102.34,64.91,91,61.14,79.36,57.3,66.12,61.48,58,71.55A31.76,31.76,0,0,0,51.34,87a37.88,37.88,0,0,0-16.06,26c-.91,7.23.47,12.89,4,16.38a13.23,13.23,0,0,0,8,3.44c3.89.49,7.8.7,11.45.84,2.38.1,4.85.14,7.45.14,4.55,0,9.5-.15,15.14-.45,1.43-.08,2.9-.12,4.37-.17,5-.16,10.26-.33,15.17-1.62a16.91,16.91,0,0,0,6.2-3c7.76,4.62,14.54,5.94,20.7,4.06,4.12-1.26,7.47-4.39,8.52-8A9.2,9.2,0,0,0,134.25,115.93Z"/><path class="cls-4" d="M66.18,134.85c-2.61,0-5.06,0-7.49-.15-3.67-.15-7.61-.35-11.54-.85a14.16,14.16,0,0,1-8.6-3.73c-3.75-3.72-5.23-9.67-4.28-17.22a39.13,39.13,0,0,1,16.13-26.5c.88-5.65,1.24-11,4.85-15.48,8.34-10.39,23-14.7,35-10.73,11.77,3.9,20.53,14.23,21.25,27a6.89,6.89,0,0,1,.06,1.12,5.41,5.41,0,0,1,0,.72,32.68,32.68,0,0,1-.67,5.27l1.27,1.6c1.53,1.92,3.1,3.89,4.71,5.72a32.85,32.85,0,0,0,8.62,7.2c.6.33,1.2.65,1.81,1,2.7,1.42,5.5,2.89,7.72,5.52h0a10.17,10.17,0,0,1,2.25,9.65c-1.15,3.9-4.75,7.29-9.19,8.65-6.3,1.93-13.15.68-20.93-3.82a17.91,17.91,0,0,1-6,2.81c-5,1.32-10.3,1.49-15.39,1.65-1.47,0-2.93.1-4.35.17C75.69,134.7,70.72,134.85,66.18,134.85Zm16-74.12A30.18,30.18,0,0,0,58.82,72.18a30.83,30.83,0,0,0-6.49,15l-.06.44-.37.25a37,37,0,0,0-15.63,25.34c-.87,6.91.42,12.29,3.7,15.55a12.31,12.31,0,0,0,7.44,3.16c3.85.49,7.74.69,11.36.84,6.58.26,13.6.17,22.5-.3,1.44-.08,2.91-.12,4.39-.17,5-.16,10.14-.33,15-1.59a15.79,15.79,0,0,0,5.83-2.86l.54-.43.59.35c7.51,4.47,14,5.76,19.9,4,3.81-1.17,6.89-4,7.86-7.3a8.23,8.23,0,0,0-1.85-7.8h0c-2-2.33-4.59-3.71-7.12-5-.62-.33-1.25-.66-1.86-1a34.83,34.83,0,0,1-9.15-7.62c-1.64-1.87-3.23-3.86-4.76-5.78l-1.58-2-.3-.38.11-.47a31.26,31.26,0,0,0,.73-5.46,4.72,4.72,0,0,0,0-.57,5.77,5.77,0,0,0,0-.92c-.68-12-7.91-21.65-18.89-25.28A27,27,0,0,0,82.14,60.73Z"/><path class="cls-3" d="M132.79,118.25l-.2.09c-1.11.61-2.23,1.13-3.36,1.61,1.15-1.64,2-5.65-1.26-4.42L124,117c1.2-1.37,2.17-6.22-1.11-4.62-3.09,1.51-6.21,2.95-9.36,4.32q2.25-1.82,4.54-3.59a6.13,6.13,0,0,0,1.76-4.5q-.77-.46-1.52-1a3.79,3.79,0,0,0-.68.23l-7.48,3.35,6.62-4.68a20.23,20.23,0,0,1-3.73-3.69c-2.34,1.39-4.69,2.77-7,4.15q2.47-2,5.11-3.87a5,5,0,0,0,1.22-1.26,17.35,17.35,0,0,1-1.89-3.83,3.57,3.57,0,0,0-.42.25A84,84,0,0,0,98.48,108c-.9.9-1.86,2.79-1.2,4.07q-3.18,1.82-6.38,3.61c1.08-2.06,1.57-5.44-1.34-4l-10,5c.85-2,.78-4.5-1.79-3.41l-4.29,1.81c1.51-1.71,2.55-6.25-.84-4.84l-12.21,5.09,12.67-9c1.72-1.23,3.06-7-.44-5.23q-10.57,5.42-21.36,10.36c2.35-2,4.75-3.88,7.24-5.69,1.7-1.24,3.29-6.7-.44-5.23l-5.81,2.3,10.17-9.09c1.65-1.47,2.18-5.69-1.06-4.68a87.54,87.54,0,0,0-16.61,7.13c-2.27,1.26-3.67,7.53-.22,5.61,1.77-1,3.57-1.88,5.39-2.74l-10.26,9.16c-1.54,1.37-2.19,6,1.06,4.68l4-1.58c-2.25,2.06-4.45,4.16-6.58,6.35-1.31,1.36-2.27,6.12,1.06,4.68q4.57-2,9.1-4L41,123.53c-1.73,1.23-3.24,6.76.44,5.23l8.21-3.42c-1.84,1.39-2.82,6.54.62,5.09l11.24-4.76-.62.55c-1.4,1.3-2.14,6.26,1.06,4.68l9.71-4.81c-1.49,1.36-3,7,.52,5.15,4.91-2.49,9.77-5.09,14.59-7.74-.65,1.89-.48,5,1.91,3.91,4.78-2.14,9.56-5.28,14.33-7.41-1,.87-8.37,6.47-9.33,7.36-1.51,1.41,4.22,1.18,7.5-.05q6.29-2.36,12.42-5.07c-.88,1.85-1,4.69,1.73,3.64l5.07-1.93c-.83,1.63-1.54,4.57.93,4.05q1.54-.32,3-.75c-.68,1.6-.87,3.69,1.28,3.43a24.61,24.61,0,0,0,6.94-1.88A49.52,49.52,0,0,0,132.79,118.25Z"/><path class="cls-3" d="M104.9,86.68l-7.6,4.88,5.21-4.44c2-1.68,2.15-7-1-4.4-2,1.65-4.08,3.25-6.15,4.83q2.21-2.16,4.37-4.38c1.26-1.29,1.47-4.2.1-4.47.57-1.94,0-4-2.26-2.28q-6.87,5.16-14,10l11.49-9.5c2-1.67,2.13-6.93-1-4.4l-.63.51a1.84,1.84,0,0,0-.09-.9,1.63,1.63,0,0,0-2.77-.54c-.52.45-1.06.87-1.59,1.31.85-2,.57-4.51-2.09-2.78L86,70.7c.5-1.78,0-3.52-2.41-2.09-3.06,1.84-6.12,3.69-9.15,5.58l1.06-1c1.2-1.17,2-5.73-1-4.25A114.17,114.17,0,0,0,56.79,80.07c-2.12,1.63-2.19,6.84,1,4.4.65-.5,1.31-1,2-1.44l-5.46,5.32c-1.57,1.53-1.37,5.53.93,4.31-.23,1.57.42,2.83,2.45,1.54-1,2-.64,4.66,2.09,3l1.34-.82c-1.86,1.49-3.71,3-5.58,4.46h0a32.93,32.93,0,0,0,3.37,5.81l.13-.06q2.9-1.64,5.77-3.33c-1.83,1.77-2.09,6.55,1.16,4.23l.69-.49c-1.12,1.84-1.51,5.41,1.07,3.94,1.28-.73,2.54-1.47,3.8-2.22-1.13,2.05-1.07,5.17,1.85,3.3l2.75-1.77c-.87,2-.44,4.63,2.12,2.84,3.06-2.14,6.14-.61,9.22-2.71-1.34,2-1.28,1.72,1.76-.09l.6-.36c.11,1.49,1.39,2.44,3.25.67a83.39,83.39,0,0,0,6-6.34c1-1.18,1.43-3.37.64-4.13q1.62-2,3.11-4.06a3.47,3.47,0,0,0,.62-2.37l1.29-1Q104.83,89.67,104.9,86.68Z"/><path class="cls-5" d="M132.9,118.14c-2.3-2.72-5.67-4.1-8.71-5.8a36.64,36.64,0,0,1-9.57-8c-2.49-2.83-4.76-5.82-7.13-8.73a30.09,30.09,0,0,0,1-6.43,2.8,2.8,0,0,0,0-.45,4.23,4.23,0,0,0-.05-.81c-.59-11.18-7.35-20.82-18.19-24.4-11.18-3.7-23.5.76-30.74,9.77A30,30,0,0,0,53.1,88.8,35.74,35.74,0,0,0,37,114c-.61,4.9-.36,10.93,3.37,14.64a11.1,11.1,0,0,0,6.78,2.83c3.76.48,7.57.68,11.36.83,7.54.3,15.06.1,22.59-.3,6.3-.33,13.13-.13,19.27-1.74a14.43,14.43,0,0,0,6.59-3.69c6.06,3.86,13.35,6.92,20.47,4.74C133.19,129.6,137.42,123.5,132.9,118.14ZM81.56,69.68C92.89,70.77,103,80.11,103.29,91.55c-.31,12.06-12.66,21.19-24.5,20.09-11.13-1-20.7-10.48-20.73-21.88C58,77.7,70,68.56,81.56,69.68ZM92.11,126c-11,.62-22,1.16-33,.91q-4-.09-8.09-.36c-2.54-.17-5.94.06-7.5-2.33-2.16-3.31-1.33-8.86-.43-12.43a33.84,33.84,0,0,1,10-16.7,25.74,25.74,0,0,0,3.65,10.51,25.28,25.28,0,0,0,2.42,3.27c-.79.14-1.56.3-2.29.47-1.93.44-5.86.94-7,2.79a.56.56,0,0,0,.2.76c1.75,1.2,5.4.85,7.43,1a48.62,48.62,0,0,0,7.45,0,27.24,27.24,0,0,0,21.56,3.3,29,29,0,0,0,10.79-5.59c6.25.66,9.44,6.26,6.91,10.48C101.9,125.88,96,125.8,92.11,126Zm38.66-.63c-.33.86-2.68,1.38-3.4,1.55-6.19,1.45-12.45-1.51-17.65-4.89a10.78,10.78,0,0,0-8.95-13.86,30.77,30.77,0,0,0,4.68-7.07c5,6.14,9.74,12.48,17,16.35,2.54,1.35,5.48,2.66,7.24,5C130.24,123.16,131.11,124.51,130.78,125.39Z"/><path class="cls-5" d="M73.23,105.3c.65,2.6,5.47,3.57,7.68,3.51,3.35-.09,7.29-.55,10.05-2.61,2.19-1.64,3.33-4.28,1.23-6.51C89.68,97,84.6,97,81.37,98a12.45,12.45,0,0,0-3.06,1.37C76.17,100.47,72.64,102.93,73.23,105.3Zm7.91-1.67a5,5,0,0,1,1.92.45c.11.06.24.49.32.39.32-.39,1-1.27,1.68-1.34a3,3,0,0,1,3.31,2l0,0a17.07,17.07,0,0,1-4.17,1.3,12.86,12.86,0,0,1-5.73-.24A3.66,3.66,0,0,1,81.14,103.63Z"/><path class="cls-5" d="M72.19,97.66a4.74,4.74,0,0,0,.7-.16,4.18,4.18,0,0,0,2.9-4.16.4.4,0,0,0-.17-.34c-.28-.2-.83,0-1.13.06l-.13,0,0,.14a4.23,4.23,0,0,1-1.14,1.82,3.93,3.93,0,0,1-2.82,1,4.9,4.9,0,0,1-2-.72l-.5-.26-.15.13c-.37.32-.25.57-.18.66A5.11,5.11,0,0,0,72.19,97.66Z"/><path class="cls-5" d="M89.76,93.14a4.74,4.74,0,0,0,.71-.05,5.11,5.11,0,0,0,4-3.06c0-.11.08-.38-.37-.58l-.19-.08-.4.4a4.9,4.9,0,0,1-1.74,1.3,3.93,3.93,0,0,1-3-.16,4.23,4.23,0,0,1-1.62-1.4l-.08-.12h-.14c-.32,0-.89,0-1.1.28a.4.4,0,0,0-.06.38A4.18,4.18,0,0,0,89.76,93.14Z"/><path class="cls-5" d="M51.07,61.81c-3.92,1.8-7.9,4-12,5.71,3.38-4.53,6.36-9.47,9.55-14,1.14-1.63-.54-5.36-2.77-4.58-5.52,1.94-10.93,4.19-16.37,6.34-2.08.82-.22,6.21,1.94,5.5,3.45-1.13,12.32-6.19,12.32-6.19-3.28,4.55-8.94,10.88-11.42,15.81-.77,1.53,1.38,3.71,2.86,2.8,1.13-.69,11.64-4,17.43-5.94C55.11,66.4,53.35,60.76,51.07,61.81Z"/><path class="cls-5" d="M131.25,57.22c-4.68,1.74-9.45,3.92-14.3,5.54,4.28-4.93,8.15-10.36,12.22-15.33,1.46-1.78-.16-6.22-2.8-5.52-6.53,1.75-13,3.88-19.41,5.88-2.47.77-.79,7.13,1.76,6.5,4.07-1,14.74-6.07,14.74-6.07-4.17,5-11.24,11.76-14.52,17.22-1,1.7,1.26,4.39,3.05,3.48,1.36-.7,13.76-3.61,20.6-5.34C135.51,62.86,134,56.21,131.25,57.22Z"/><path class="cls-5" d="M88,38.82C82.68,41,77.26,43.6,71.74,45.6c4.78-5.78,9.06-12.14,13.6-18C87,25.56,85,20.5,82,21.39c-7.45,2.2-14.77,4.83-22.12,7.31-2.82,1-.7,8.21,2.21,7.42,4.65-1.27,16.75-7.39,16.75-7.39-4.65,5.82-12.57,13.83-16.18,20.2-1.12,2,1.58,5,3.61,3.91,1.55-.84,15.7-4.55,23.51-6.72C93.06,45.18,91.1,37.58,88,38.82Z"/><path class="cls-1" d="M147.72,260.19a45.68,45.68,0,0,0,5.4-6.9c1.1-1.9-.1-2.5-1.9-2.5a32.85,32.85,0,0,0,4.8-6.52c0-1.23,0-2.47,0-3.7,0-.34,0-.68,0-1l-.22-.06c.07-.14.14-.28.2-.41q-.07-2.79-.34-5.62a10.62,10.62,0,0,0-3.07,0,20.47,20.47,0,0,0-2.4.5c1.6-1.7,3.2-3.4,4.7-5.2a2.82,2.82,0,0,0,.18-.25c-.09-.6-.18-1.19-.28-1.79a3.38,3.38,0,0,0-1.5-.56,6.6,6.6,0,0,0-1.4-.1c.78-.87,1.54-1.81,2.26-2.77q-.57-2.8-1.3-5.58a25.36,25.36,0,0,0-2.56.35q1.13-.78,2.23-1.59c-.78-2.81-1.67-5.58-2.67-8.28-.48-.65-.95-1.3-1.39-1.94-1.47.23-2.51,1.06-4.17,2.22L128.25,220c1.9-1.5,16.57-13.51,18.47-15a4.13,4.13,0,0,0,.59-.6,3,3,0,0,1-.19-2.38l-.3-.12a8.2,8.2,0,0,0-4.4-.1c.5-.5,1.1-1,1.6-1.5,1-.9,2-2.4.1-3.1-2.5-.9-1.6-4.08-3.9-2.88-3.3,1.7-10.7,7.68-13.9,9.48a113.24,113.24,0,0,0,10.6-10.2c1.3-1.5-.3-2.5-1.6-2.6a10.45,10.45,0,0,0-2.5,0c1.87-1.54,3.69-3.15,5.47-4.8a50.18,50.18,0,0,0-4.74-5.48c-6,5.13-12.11,10-18.4,14.65A192.37,192.37,0,0,0,131.5,180a1.29,1.29,0,0,0,.33-.91,41.4,41.4,0,0,0-3.4-2.72,11.26,11.26,0,0,0-2.81.13,14.53,14.53,0,0,0,.89-1.43,40.07,40.07,0,0,0-4.61-2.52,7.27,7.27,0,0,0-1.27.35c.21-.21.44-.42.67-.64l-.07,0a59.54,59.54,0,0,0-6.77-2.48,13.15,13.15,0,0,0-1.63,1c-5.6,4-11.1,8-16.7,12-1.5.9-3,1.7-4.5,2.5-9.4,5.3-18.4,11.2-27.6,16.8l-3.1,1.8.3-.2c17.51-11.28,35.86-21.38,52.2-34.16-2.75-.79-5.56-1.44-8.38-2-2.18,1.48-4.41,2.88-6.61,4.26,2-1.45,4-2.9,5.89-4.4-2.87-.56-5.75-1-8.62-1.54L88.52,171a48.24,48.24,0,0,0,4.42-5.72c-2.05-.36-4.1-.74-6.12-1.17a3.17,3.17,0,0,1-1.73-.95l-.27.13c-2.7,1.4-5.4,2.9-8.1,4.4.3-.4.7-.8,1-1.2,2.9-3.7-6.3-2.1-7.3-1.7A125.77,125.77,0,0,0,42.92,179a150.85,150.85,0,0,0-24.4,19.6c-1.5,1.5.1,2.2,1.6,2.5a71,71,0,0,0-9.4,8.8c-1.4,1.5.2,2.5,1.6,2.6a11.46,11.46,0,0,0,7-1.5c.6-.3,1.1-.7,1.7-1a74.86,74.86,0,0,0-9,7.9c-1.4,1.4.4,2.5,1.6,2.6a13.26,13.26,0,0,0,7-1.5c1.1-.5,2.2-1.1,3.3-1.6-4.3,3.7-8.6,7.7-12.6,11.8-1.4,1.4.4,2.5,1.6,2.6a6.69,6.69,0,0,0,2,0c-1.5,1.5-2.9,3.1-4.3,4.7s.3,2.5,1.6,2.6a10.75,10.75,0,0,0,3.1-.1c-1.3.9-2.7,1.8-4,2.8-1.9,1.4-1.3,3.1.9,3.3a11.78,11.78,0,0,0,8.1-2.2l4-2.8C36.22,232.09,67,215,79.54,208c-4.6,3.6-30.09,17.85-34.79,21.25-4.4,2.3-6.13,4.24-10.63,6.34-7,3.3-16.8,7.1-19.9,14.9-1.1,2.8,5.4,1.7,6.3,1.5a35.74,35.74,0,0,0,6-2.1c-2.6,1.9-5.2,3.9-7.8,5.8-1.2.8-1.9,2.5-.1,3.1,2.5.9,5.8-.1,8-1.3l9-7.21c-2.7,2.5-14.1,12.31-16.3,15.41-1.1,1.5.1,2.4,1.7,2.6a12.2,12.2,0,0,0,7-1.5c.9-.5,22.86-16.25,23.76-16.75-2.3,2.1-25.56,19.45-27.86,21.65-1.4,1.4.4,2.5,1.7,2.6a10.75,10.75,0,0,0,5.3-.8,18.32,18.32,0,0,0-4.1,8.8c-.5,2.9,4.9,1.9,6.3,1.5a48.51,48.51,0,0,0,9.2-3.5c-1.8,1.9-3.5,3.9-5.2,6-1.2,1.5.2,2.5,1.7,2.6a11.83,11.83,0,0,0,3.7-.2,10.7,10.7,0,0,0-1.4,1.6c-1.3,1.5.3,2.5,1.7,2.6a11.46,11.46,0,0,0,7-1.5l.5-.3c-1.1,1-2.2,2.1-3.3,3.2-1.4,1.4.4,2.5,1.7,2.6a10.85,10.85,0,0,0,4-.3c.2,0,.5-.1.8-.1l.3,1.2c.7,2.1,4.9,1.2,6.3.8l.7-.2c-1.2,1.5.2,2.4,1.7,2.6a10.45,10.45,0,0,0,2.5,0c-1,1.9,3.8,2.1,4.8,1.9,2.2-.4,4.4-1,6.5-1.6-.6.3-1.2.7-1.8,1-.9.5-3.3,2.1-1.9,3.4s4.3.7,5.9.2,2.9-.8,4.3-1.3c-.8.7-1.3,1.6-.5,2.4,1.8,1.6,5.5.5,7.4-.3,10.6-4.1,21-8.4,30.3-14.4,1.8-.9,3.6-1.9,5.4-2.9,11.1-6.2,22.6-14.7,26.8-27.4C152.92,259.89,150.32,259.79,147.72,260.19Zm-97.2-79a70.58,70.58,0,0,1,6.4-4.2c-4,3-8.3,5.8-12.5,8.4C46.42,183.89,48.42,182.49,50.52,181.19Zm-4.3,12.7c8.5-5.6,27.75-18,36.35-23.39-6.8,5.8-25.45,17.09-33,21.49Zm18.3,97.4c.1-.2.1-.5.2-.8l10.4-7.4A64,64,0,0,1,64.52,291.29Zm44.3-106.9c-2.2,1.9-4.6,3.7-7,5.4C104.12,187.89,106.42,186.09,108.82,184.39Zm-31.2,87.8c7.6-5.7,15.2-11.3,23.1-16.6,4.3-2.9,8.8-5.6,13.2-8.3-4.3,3.1-8.5,6.3-12.8,9.5l-3.7,2.7c-4.2,3-8.5,5.9-12.9,8.6C82.22,269.49,79.92,270.79,77.62,272.19Zm5.1,21.4a146.73,146.73,0,0,1,21.6-15.1C97.62,283.89,90.52,289.69,82.72,293.59Zm31.3-4.2-6,3c4.6-2.9,9.1-6,13.5-9.1A55.47,55.47,0,0,1,114,289.39Zm14.3-21.7c1.3-1,2.6-2,4-2.9C131,265.79,129.72,266.79,128.32,267.69Zm5.13-14.17c-4.3,3-12.63,7.67-17.23,10.27,4.9-3.6,9.9-7.1,15.1-10.2l14.93-11.34C144.15,243.95,135.45,252.12,133.45,253.52Z"/><path class="cls-1" d="M83.29,220.24c-.28.21-.53.39-.72.51Z"/><path class="cls-2" d="M14.72,234.89c0-15.3,6.1-31.1,16.6-43.2,10.9-12.4,25.3-20,40.6-21.3,1.2-.1,2.4-1,2.3-1.8,0-.3-.2-1-1.8-.8a65.91,65.91,0,0,0-33.7,13c1.5-1.2,3.1-2.4,4.7-3.5a69.86,69.86,0,0,1,39-11.6,71.18,71.18,0,0,1,27.6,5.5c17.3,7.4,30.6,21.9,37.4,41a81.45,81.45,0,0,1,2.4,31.1c-1.9,16.1-8.4,30.2-19,40.7A76.12,76.12,0,0,1,86,305.09a60.86,60.86,0,0,1-12.8.1,61.81,61.81,0,0,1-8.4-2.4C36.22,292.29,14.72,263.19,14.72,234.89Zm23.7,56.5a61.2,61.2,0,0,1-9.9-9.8A83.34,83.34,0,0,0,38.42,291.39Zm54.8,14.9c2.8-.6,5.6-1.3,8.3-2.1a81.34,81.34,0,0,0,36.8-23.6,68.13,68.13,0,0,1-26,20.6A57.56,57.56,0,0,1,93.22,306.29Zm24.7-140.5-.8-.5a1.55,1.55,0,0,0-.8-.2c-1.1,0-2.9.7-3.1,1.5a.79.79,0,0,0,.5.9,66.64,66.64,0,0,1,9.3,6.4A73.52,73.52,0,0,0,82.22,163c-22.6.5-43.2,10.2-56.5,26.5C14,203.69,8,223.29,9.42,243.29c1.3,19.8,10.3,38,24.5,49.7,10.2,8.4,23.1,13.5,37.5,14.6a71.64,71.64,0,0,0,14.6,1.5,69.3,69.3,0,0,0,36.8-10.5,71,71,0,0,0,33.5-52.6,76.38,76.38,0,0,0-4.3-35.3C146.62,191.49,134.52,175.49,117.92,165.79Z"/><path class="cls-3" d="M58.72,237.89h0c0,.1-.1.1-.1.2C58.62,238,58.72,238,58.72,237.89Z"/><path class="cls-3" d="M129.92,253v.2h-.2C129.82,253.19,129.82,253.09,129.92,253Z"/><path class="cls-4" d="M134.71,273.07c-2.09-2.48-4.8-3.9-7.42-5.28-.62-.32-1.23-.65-1.83-1a33.84,33.84,0,0,1-8.89-7.41c-1.63-1.85-3.21-3.84-4.74-5.76l-1.57-2A32.17,32.17,0,0,0,111,246a4.77,4.77,0,0,0,0-.63,6.48,6.48,0,0,0-.06-1C110.29,232,102.8,222,91.42,218.28c-11.61-3.84-24.84.34-32.92,10.41a31.76,31.76,0,0,0-6.7,15.44,37.88,37.88,0,0,0-16.06,26c-.91,7.23.47,12.89,4,16.38a13.23,13.23,0,0,0,8,3.44c3.89.49,7.8.7,11.45.84,2.38.1,4.85.14,7.45.14,4.55,0,9.5-.15,15.14-.45,1.43-.08,2.9-.12,4.37-.17,5-.16,10.26-.33,15.17-1.62a16.91,16.91,0,0,0,6.2-3c7.76,4.62,14.54,5.94,20.7,4.06,4.12-1.26,7.47-4.39,8.52-8A9.2,9.2,0,0,0,134.71,273.07Z"/><path class="cls-4" d="M66.64,292c-2.61,0-5.06,0-7.49-.15-3.67-.15-7.61-.35-11.54-.85a14.16,14.16,0,0,1-8.6-3.73c-3.75-3.72-5.23-9.67-4.28-17.22a39.13,39.13,0,0,1,16.13-26.5,32.84,32.84,0,0,1,6.85-15.48c8.34-10.39,22-14.7,34-10.73,11.77,3.9,19.53,14.23,20.25,27a6.89,6.89,0,0,1,.06,1.12,5.41,5.41,0,0,1,0,.72,32.68,32.68,0,0,1-.67,5.27l1.27,1.6c1.53,1.92,3.1,3.89,4.71,5.72a32.85,32.85,0,0,0,8.62,7.2c.6.33,1.2.65,1.81,1,2.7,1.42,5.5,2.89,7.72,5.52h0a10.17,10.17,0,0,1,2.25,9.65c-1.15,3.9-4.75,7.29-9.19,8.65-6.3,1.93-13.15.68-20.93-3.82a17.91,17.91,0,0,1-6,2.81c-5,1.32-10.3,1.49-15.39,1.65-1.47,0-2.93.1-4.35.17C76.15,291.84,71.18,292,66.64,292Zm16-74.12a30.18,30.18,0,0,0-23.33,11.45,30.83,30.83,0,0,0-6.49,15l-.06.44-.37.25A37,37,0,0,0,36.72,270.3c-.87,6.91.42,12.29,3.7,15.55A12.31,12.31,0,0,0,47.87,289c3.85.49,7.74.69,11.36.84,6.58.26,13.6.17,22.5-.3,1.44-.08,2.91-.12,4.39-.17,5-.16,10.14-.33,15-1.59a15.79,15.79,0,0,0,5.83-2.86l.54-.43.59.35c7.51,4.47,14,5.76,19.9,4,3.81-1.17,6.89-4,7.86-7.3a8.23,8.23,0,0,0-1.85-7.8h0c-2-2.33-4.59-3.71-7.12-5-.62-.33-1.25-.66-1.86-1a34.83,34.83,0,0,1-9.15-7.62c-1.64-1.87-3.23-3.86-4.76-5.78l-1.58-2-.3-.38.11-.47A31.26,31.26,0,0,0,110,246a4.72,4.72,0,0,0,0-.57,5.77,5.77,0,0,0,0-.92c-.68-12-7.91-21.65-18.89-25.28A27,27,0,0,0,82.6,217.87Z"/><path class="cls-3" d="M133.25,275.39l-.2.09c-1.11.61-2.23,1.13-3.36,1.61,1.15-1.64,2-5.65-1.26-4.42l-3.93,1.5c1.2-1.37,2.17-6.22-1.11-4.62-3.09,1.51-6.21,2.95-9.36,4.32q2.25-1.82,4.54-3.59a6.13,6.13,0,0,0,1.76-4.5q-.77-.46-1.52-1a3.79,3.79,0,0,0-.68.23l-7.48,3.35,6.62-4.68a20.23,20.23,0,0,1-3.73-3.69c-2.34,1.39-4.69,2.77-7,4.15q2.47-2,5.11-3.87a5,5,0,0,0,1.22-1.26,17.35,17.35,0,0,1-1.89-3.83,3.57,3.57,0,0,0-.42.25,84,84,0,0,0-11.59,9.7c-.9.9-1.86,2.79-1.2,4.07q-3.18,1.82-6.38,3.61c1.08-2.06,1.57-5.44-1.34-4l-10,5c.85-2,.78-4.5-1.79-3.41l-4.29,1.81c1.51-1.71,2.55-6.25-.84-4.84l-12.21,5.09,12.67-9c1.72-1.23,3.06-7-.44-5.23q-10.57,5.42-21.36,10.36c2.35-2,4.75-3.88,7.24-5.69,1.7-1.24,3.29-6.7-.44-5.23L52.74,260l10.17-9.09c1.65-1.47,2.18-5.69-1.06-4.68a87.54,87.54,0,0,0-16.61,7.13c-2.27,1.26-3.67,7.53-.22,5.61,1.77-1,3.57-1.88,5.39-2.74l-10.26,9.16c-1.54,1.37-2.19,6,1.06,4.68l4-1.58c-2.25,2.06-4.45,4.16-6.58,6.35-1.31,1.36-2.27,6.12,1.06,4.68q4.57-2,9.1-4l-7.32,5.21c-1.73,1.23-3.24,6.76.44,5.23l8.21-3.42c-1.84,1.39-2.82,6.54.62,5.09L62,282.81l-.62.55c-1.4,1.3-2.14,6.26,1.06,4.68l9.71-4.81c-1.49,1.36-3,7,.52,5.15,4.91-2.49,9.77-5.09,14.59-7.74-.65,1.89-.48,5,1.91,3.91,4.78-2.14,9.56-5.28,14.33-7.41-1,.87-8.37,6.47-9.33,7.36-1.51,1.41,4.22,1.18,7.5-.05q6.29-2.36,12.42-5.07c-.88,1.85-1,4.69,1.73,3.64l5.07-1.93c-.83,1.63-1.54,4.57.93,4.05q1.54-.32,3-.75c-.68,1.6-.87,3.69,1.28,3.43a24.61,24.61,0,0,0,6.94-1.88A49.52,49.52,0,0,0,133.25,275.39Z"/><path class="cls-3" d="M105.36,243.82l-7.6,4.88,5.21-4.44c2-1.68,2.15-7-1-4.4-2,1.65-4.08,3.25-6.15,4.83q2.21-2.16,4.37-4.38c1.26-1.29,1.47-4.2.1-4.47.57-1.94,0-4-2.26-2.28q-6.87,5.16-14,10L95.55,234c2-1.67,2.13-6.93-1-4.4l-.63.51a1.84,1.84,0,0,0-.09-.9,1.63,1.63,0,0,0-2.77-.54c-.52.45-1.06.87-1.59,1.31.85-2,.57-4.51-2.09-2.78l-.94.61c.5-1.78,0-3.52-2.41-2.09C81,227.59,70.89,236,67.86,237.89c.35-.34,7.73-7.25,8.09-7.59,1.2-1.17,2-5.73-1-4.25a114.17,114.17,0,0,0-17.73,11.15c-2.12,1.63-2.19,6.84,1,4.4.65-.5,1.31-1,2-1.44l-5.46,5.32c-1.57,1.53-1.37,5.53.93,4.31-.23,1.57.42,2.83,2.45,1.54-1,2-.64,4.66,2.09,3l1.34-.82c-1.86,1.49-3.71,3-5.58,4.46h0a32.93,32.93,0,0,0,3.37,5.81l.13-.06q2.9-1.64,5.77-3.33c-1.83,1.77-2.09,6.55,1.16,4.23l.69-.49C66,266,65.57,269.52,68.15,268c1.28-.73,2.54-1.47,3.8-2.22-1.13,2.05-1.07,5.17,1.85,3.3l2.75-1.77c-.87,2-.44,4.63,2.12,2.84,3.06-2.14,6.14-.61,9.22-2.71-1.34,2-1.28,1.72,1.76-.09l.6-.36c.11,1.49,1.39,2.44,3.25.67a83.39,83.39,0,0,0,6-6.34c1-1.18,1.43-3.37.64-4.13q1.62-2,3.11-4.06a3.47,3.47,0,0,0,.62-2.37l1.29-1Q105.29,246.81,105.36,243.82Z"/><path class="cls-5" d="M133.36,275.28c-2.3-2.72-5.67-4.1-8.71-5.8a36.64,36.64,0,0,1-9.57-8c-2.49-2.83-4.76-5.82-7.13-8.73a30.09,30.09,0,0,0,1-6.43,2.8,2.8,0,0,0,0-.45,4.23,4.23,0,0,0-.05-.81c-.59-11.18-8.13-18.75-19-22.34-11.18-3.7-22.72-1.3-30,7.71a30,30,0,0,0-6.41,15.48,35.74,35.74,0,0,0-16.08,25.24c-.61,4.9-.36,10.93,3.37,14.64a11.1,11.1,0,0,0,6.78,2.83c3.76.48,7.57.68,11.36.83,7.54.3,15.06.1,22.59-.3,6.3-.33,13.13-.13,19.27-1.74a14.43,14.43,0,0,0,6.59-3.69c6.06,3.86,13.35,6.92,20.47,4.74C133.65,286.74,137.88,280.64,133.36,275.28ZM82,225.82c11.33,1.09,20.44,11.43,20.73,22.88-.31,12.06-11.66,21.19-23.5,20.09-11.13-1-20.7-10.48-20.73-21.88C58.49,234.84,70.44,224.7,82,225.82Zm10.56,57.34c-11,.62-22,1.16-33,.91q-4-.09-8.09-.36c-2.54-.17-5.94.06-7.5-2.33-2.16-3.31-3.33-8.86-2.43-12.43,1.61-6.42,7.17-14.27,12-18.7.44,3.66,1.62,9.24,3.65,12.51A45.5,45.5,0,0,0,60.66,267c-.79.14-2.56-.7-3.29-.53-1.93.44-5.86.94-7,2.79a.56.56,0,0,0,.2.76c1.75,1.2,5.4.85,7.43,1a85.55,85.55,0,0,0,9.88-.21,26.58,26.58,0,0,0,21.34,2.76c4-1.1,5.46-2.34,8.57-4.89,6.25.66,9.44,6.26,6.91,10.48C102.36,283,96.51,282.94,92.57,283.16Zm38.66-.63c-.33.86-2.68,1.38-3.4,1.55-6.19,1.45-12.45-1.51-17.65-4.89a10.78,10.78,0,0,0-8.95-13.86,30.77,30.77,0,0,0,4.68-7.07c5,6.14,9.74,12.48,17,16.35,2.54,1.35,5.48,2.66,7.24,5C130.7,280.3,131.57,281.65,131.24,282.53Z"/><path class="cls-5" d="M73.69,262.44c.65,2.6,5.47,3.57,7.68,3.51,3.35-.09,7.29-.55,10.05-2.61,2.19-1.64,3.33-4.28,1.23-6.51-2.52-2.69-7.6-2.68-10.83-1.73a12.45,12.45,0,0,0-3.06,1.37C76.63,257.61,73.1,260.07,73.69,262.44Zm7.91-1.21a5,5,0,0,1,1.92.45.25.25,0,0,0,.32-.07c.32-.39,1-1.27,1.68-1.34a3,3,0,0,1,3.31,2l0,0a17.07,17.07,0,0,1-4.17,1.3,16.09,16.09,0,0,1-6.42-.52C79,260.85,81.55,261.23,81.6,261.23Z"/><path class="cls-5" d="M72.65,254.8a4.74,4.74,0,0,0,.7-.16,4.18,4.18,0,0,0,2.9-4.16.4.4,0,0,0-.17-.34c-.28-.2-.83,0-1.13.06l-.13,0,0,.14a4.23,4.23,0,0,1-1.14,1.82,3.93,3.93,0,0,1-2.82,1,4.9,4.9,0,0,1-2-.72l-.5-.26-.15.13c-.37.32-.25.57-.18.66A5.11,5.11,0,0,0,72.65,254.8Z"/><path class="cls-5" d="M90.22,250.28a4.74,4.74,0,0,0,.71-.05,5.11,5.11,0,0,0,4-3.06c0-.11.08-.38-.37-.58l-.19-.08-.4.4a4.9,4.9,0,0,1-1.74,1.3,3.93,3.93,0,0,1-3-.16,4.23,4.23,0,0,1-1.62-1.4l-.08-.12h-.14c-.32,0-.89,0-1.1.28a.4.4,0,0,0-.06.38A4.18,4.18,0,0,0,90.22,250.28Z"/><path class="cls-5" d="M51.53,218.95c-3.92,1.8-8.7,2.83-12.78,4.55,3.38-4.53,7.15-8.32,10.35-12.86,1.14-1.63-.54-5.36-2.77-4.58-5.52,1.94-14.08,4.15-16.08,4.15-2.24,0-.51,8.4,1.65,7.69,3.45-1.13,12.32-6.19,12.32-6.19-3.28,4.55-8.94,10.88-11.42,15.81-.77,1.53,1.38,3.71,2.86,2.8,1.13-.69,11.64-4,17.43-5.94C55.57,223.54,53.81,217.9,51.53,218.95Z"/><path class="cls-5" d="M131.71,213.36c-4.68,1.74-8.45,3.92-13.3,5.54,4.28-4.93,6.15-9.36,10.22-14.33,1.46-1.78-.16-6.22-2.8-5.52-6.53,1.75-12,3.88-18.41,5.88-2.47.77-.79,7.13,1.76,6.5,4.07-1,12.74-5.07,12.74-5.07a130.56,130.56,0,0,0-11.52,16.22c-1,1.7,1.26,4.39,3.05,3.48,1.36-.7,12.76-3.61,19.6-5.34C136,220,134.43,212.35,131.71,213.36Z"/><path class="cls-5" d="M88.46,196c-5.32,2.13-8.74,3.77-14.26,5.77,4.78-5.78,7.06-11.14,11.6-17,1.63-2.08-.36-7.14-3.37-6.25-7.45,2.2-14.77,5.83-22.12,8.31-2.82,1-.7,7.21,2.21,6.42,4.65-1.27,16.75-7.39,16.75-7.39-4.65,5.82-12.57,13.83-16.18,20.2-1.12,2,1.58,5,3.61,3.91,1.55-.84,15.7-3.55,23.51-5.72C93.52,203.32,91.56,194.72,88.46,196Z"/><path class="cls-1" d="M146.54,414.63a45.68,45.68,0,0,0,5.4-6.9c1.1-1.9-.1-2.5-1.9-2.5a32.85,32.85,0,0,0,4.8-6.52c0-1.23,0-2.47,0-3.7,0-.34,0-.68,0-1l-.22-.06c.07-.14.14-.28.2-.41q-.07-2.79-.34-5.62a10.62,10.62,0,0,0-3.07,0,20.47,20.47,0,0,0-2.4.5c1.6-1.7,3.2-3.4,4.7-5.2a2.82,2.82,0,0,0,.18-.25c-.09-.6-.18-1.19-.28-1.79a3.38,3.38,0,0,0-1.5-.56,6.6,6.6,0,0,0-1.4-.1c.78-.87,1.54-1.81,2.26-2.77q-.57-2.8-1.3-5.58a25.36,25.36,0,0,0-2.56.35q1.13-.78,2.23-1.59c-.78-2.81-1.67-5.58-2.67-8.28-.48-.65-.95-1.3-1.39-1.94-1.47.23-2.51,1.06-4.17,2.22l-16.07,11.51c1.9-1.5,16.57-13.51,18.47-15a4.13,4.13,0,0,0,.59-.6,3,3,0,0,1-.19-2.38l-.3-.12a8.2,8.2,0,0,0-4.4-.1c.5-.5,1.1-1,1.6-1.5,1-.9,2-2.4.1-3.1-2.5-.9-1.6-4.08-3.9-2.88-3.3,1.7-10.7,7.68-13.9,9.48a113.24,113.24,0,0,0,10.6-10.2c1.3-1.5-.3-2.5-1.6-2.6a10.45,10.45,0,0,0-2.5,0c1.87-1.54,3.69-3.15,5.47-4.8a50.18,50.18,0,0,0-4.74-5.48c-6,5.13-12.11,10-18.4,14.65a192.37,192.37,0,0,0,16.35-15.36,1.29,1.29,0,0,0,.33-.91,41.4,41.4,0,0,0-3.4-2.72,11.26,11.26,0,0,0-2.81.13,14.53,14.53,0,0,0,.89-1.43,40.07,40.07,0,0,0-4.61-2.52,7.27,7.27,0,0,0-1.27.35c.21-.21.44-.42.67-.64l-.07,0a59.54,59.54,0,0,0-6.77-2.48,13.15,13.15,0,0,0-1.63,1c-5.6,4-11.1,8-16.7,12-1.5.9-3,1.7-4.5,2.5-9.4,5.3-18.4,11.2-27.6,16.8l-3.1,1.8.3-.2c17.51-11.28,35.86-21.38,52.2-34.16-2.75-.79-5.56-1.44-8.38-2-2.18,1.48-4.41,2.88-6.61,4.26,2-1.45,4-2.9,5.89-4.4-2.87-.56-5.75-1-8.62-1.54l-7.17,5.24a48.24,48.24,0,0,0,4.42-5.72c-2.05-.36-4.1-.74-6.12-1.17a3.17,3.17,0,0,1-1.73-.95l-.27.13c-2.7,1.4-5.4,2.9-8.1,4.4.3-.4.7-.8,1-1.2,2.9-3.7-6.3-2.1-7.3-1.7a125.77,125.77,0,0,0-27.5,14.2A150.85,150.85,0,0,0,17.34,353c-1.5,1.5.1,2.2,1.6,2.5a71,71,0,0,0-9.4,8.8c-1.4,1.5.2,2.5,1.6,2.6a11.46,11.46,0,0,0,7-1.5c.6-.3,1.1-.7,1.7-1a74.86,74.86,0,0,0-9,7.9c-1.4,1.4.4,2.5,1.6,2.6a13.26,13.26,0,0,0,7-1.5c1.1-.5,2.2-1.1,3.3-1.6-4.3,3.7-8.6,7.7-12.6,11.8-1.4,1.4.4,2.5,1.6,2.6a6.69,6.69,0,0,0,2,0c-1.5,1.5-2.9,3.1-4.3,4.7s.3,2.5,1.6,2.6a10.75,10.75,0,0,0,3.1-.1c-1.3.9-2.7,1.8-4,2.8-1.9,1.4-1.3,3.1.9,3.3a11.78,11.78,0,0,0,8.1-2.2l4-2.8c11.9-8,42.72-25.09,55.22-32.09-4.6,3.6-30.09,17.85-34.79,21.25-4.4,2.3-6.13,4.24-10.63,6.34-7,3.3-16.8,7.1-19.9,14.9-1.1,2.8,5.4,1.7,6.3,1.5a35.74,35.74,0,0,0,6-2.1c-2.6,1.9-5.2,3.9-7.8,5.8-1.2.8-1.9,2.5-.1,3.1,2.5.9,5.8-.1,8-1.3l9-7.21c-2.7,2.5-14.1,12.31-16.3,15.41-1.1,1.5.1,2.4,1.7,2.6a12.2,12.2,0,0,0,7-1.5c.9-.5,22.86-16.25,23.76-16.75-2.3,2.1-25.56,19.45-27.86,21.65-1.4,1.4.4,2.5,1.7,2.6a10.75,10.75,0,0,0,5.3-.8,18.32,18.32,0,0,0-4.1,8.8c-.5,2.9,4.9,1.9,6.3,1.5a48.51,48.51,0,0,0,9.2-3.5c-1.8,1.9-3.5,3.9-5.2,6-1.2,1.5.2,2.5,1.7,2.6a11.83,11.83,0,0,0,3.7-.2,10.7,10.7,0,0,0-1.4,1.6c-1.3,1.5.3,2.5,1.7,2.6a11.46,11.46,0,0,0,7-1.5l.5-.3c-1.1,1-2.2,2.1-3.3,3.2-1.4,1.4.4,2.5,1.7,2.6a10.85,10.85,0,0,0,4-.3c.2,0,.5-.1.8-.1l.3,1.2c.7,2.1,4.9,1.2,6.3.8l.7-.2c-1.2,1.5.2,2.4,1.7,2.6a10.45,10.45,0,0,0,2.5,0c-1,1.9,3.8,2.1,4.8,1.9,2.2-.4,4.4-1,6.5-1.6-.6.3-1.2.7-1.8,1-.9.5-3.3,2.1-1.9,3.4s4.3.7,5.9.2,2.9-.8,4.3-1.3c-.8.7-1.3,1.6-.5,2.4,1.8,1.6,5.5.5,7.4-.3,10.6-4.1,21-8.4,30.3-14.4,1.8-.9,3.6-1.9,5.4-2.9,11.1-6.2,22.6-14.7,26.8-27.4C151.74,414.33,149.14,414.23,146.54,414.63Zm-97.2-79a70.58,70.58,0,0,1,6.4-4.2c-4,3-8.3,5.8-12.5,8.4C45.24,338.33,47.24,336.93,49.34,335.63ZM45,348.33c8.5-5.6,27.75-18,36.35-23.39-6.8,5.8-25.45,17.09-33,21.49Zm18.3,97.4c.1-.2.1-.5.2-.8l10.4-7.4A64,64,0,0,1,63.34,445.73Zm44.3-106.9c-2.2,1.9-4.6,3.7-7,5.4C102.94,342.33,105.24,340.53,107.64,338.83Zm-31.2,87.8c7.6-5.7,15.2-11.3,23.1-16.6,4.3-2.9,8.8-5.6,13.2-8.3-4.3,3.1-8.5,6.3-12.8,9.5l-3.7,2.7c-4.2,3-8.5,5.9-12.9,8.6C81,423.93,78.74,425.23,76.44,426.63Zm5.1,21.4a146.73,146.73,0,0,1,21.6-15.1C96.44,438.33,89.34,444.13,81.54,448Zm31.3-4.2-6,3c4.6-2.9,9.1-6,13.5-9.1A55.47,55.47,0,0,1,112.84,443.83Zm14.3-21.7c1.3-1,2.6-2,4-2.9C129.84,420.23,128.54,421.23,127.14,422.13ZM132.26,408c-4.3,3-12.63,7.67-17.23,10.27,4.9-3.6,9.9-7.1,15.1-10.2l14.93-11.34C143,398.39,134.26,406.56,132.26,408Z"/><path class="cls-1" d="M82.1,374.68c-.28.21-.53.39-.72.51Z"/><path class="cls-2" d="M13.54,389.33c0-15.3,6.1-31.1,16.6-43.2,10.9-12.4,25.3-20,40.6-21.3,1.2-.1,2.4-1,2.3-1.8,0-.3-.2-1-1.8-.8a65.91,65.91,0,0,0-33.7,13c1.5-1.2,3.1-2.4,4.7-3.5a69.86,69.86,0,0,1,39-11.6,71.18,71.18,0,0,1,27.6,5.5c17.3,7.4,30.6,21.9,37.4,41a81.45,81.45,0,0,1,2.4,31.1c-1.9,16.1-8.4,30.2-19,40.7-11.9,11.7-27.8,17.2-44.8,19.1a60.86,60.86,0,0,1-12.8.1,61.81,61.81,0,0,1-8.4-2.4C35,444.73,13.54,417.63,13.54,389.33Zm23.7,56.5a61.2,61.2,0,0,1-9.9-9.8A83.34,83.34,0,0,0,37.24,445.83ZM92,460.73c2.8-.6,5.6-1.3,8.3-2.1a81.34,81.34,0,0,0,36.8-23.6,68.13,68.13,0,0,1-26,20.6A57.56,57.56,0,0,1,92,460.73Zm24.7-140.5-.8-.5a1.55,1.55,0,0,0-.8-.2c-1.1,0-2.9.7-3.1,1.5a.79.79,0,0,0,.5.9,66.64,66.64,0,0,1,9.3,6.4A73.52,73.52,0,0,0,81,317.43c-22.6.5-43.2,10.2-56.5,26.5-11.7,14.2-17.7,33.8-16.3,53.8,1.3,19.8,10.3,38,24.5,49.7,10.2,8.4,23.1,13.5,37.5,14.6a71.64,71.64,0,0,0,14.6,1.5,69.3,69.3,0,0,0,36.8-10.5,71,71,0,0,0,33.5-52.6,76.38,76.38,0,0,0-4.3-35.3C145.44,345.93,133.34,329.93,116.74,320.23Z"/><path class="cls-3" d="M57.54,392.33h0c0,.1-.1.1-.1.2C57.44,392.43,57.54,392.43,57.54,392.33Z"/><path class="cls-3" d="M128.74,407.43v.2h-.2C128.64,407.63,128.64,407.53,128.74,407.43Z"/><path class="cls-4" d="M133.52,427.51c-2.09-2.48-4.8-3.9-7.42-5.28-.62-.32-1.23-.65-1.83-1a33.84,33.84,0,0,1-8.89-7.41c-1.63-1.85-3.21-3.84-4.74-5.76l-1.57-2a32.17,32.17,0,0,0,.75-5.64,4.77,4.77,0,0,0,0-.63,6.48,6.48,0,0,0-.06-1c-.69-12.33-8.18-22.32-19.57-26.09-11.61-3.84-24.84.34-32.92,10.41a31.76,31.76,0,0,0-6.7,15.44,37.88,37.88,0,0,0-16.06,26c-.91,7.23.47,12.89,4,16.38a13.23,13.23,0,0,0,8,3.44c3.89.49,7.8.7,11.45.84,2.38.1,4.85.14,7.45.14,4.55,0,9.5-.15,15.14-.45,1.43-.08,2.9-.12,4.37-.17,5-.16,10.26-.33,15.17-1.62a16.91,16.91,0,0,0,6.2-3c7.76,4.62,14.54,5.94,20.7,4.06,4.12-1.26,7.47-4.39,8.52-8A9.2,9.2,0,0,0,133.52,427.51Z"/><path class="cls-4" d="M65.46,446.43c-2.61,0-5.06,0-7.49-.15-3.67-.15-7.61-.35-11.54-.85a14.16,14.16,0,0,1-8.6-3.73c-3.75-3.72-5.23-9.67-4.28-17.22A39.13,39.13,0,0,1,49.69,398a32.84,32.84,0,0,1,6.85-15.48c8.34-10.39,22-14.7,34-10.73,11.77,3.9,19.53,14.23,20.25,27a6.89,6.89,0,0,1,.06,1.12,5.41,5.41,0,0,1,0,.72,32.68,32.68,0,0,1-.67,5.27l1.27,1.6c1.53,1.92,3.1,3.89,4.71,5.72a32.85,32.85,0,0,0,8.62,7.2c.6.33,1.2.65,1.81,1,2.7,1.42,5.5,2.89,7.72,5.52h0a10.17,10.17,0,0,1,2.25,9.65c-1.15,3.9-4.75,7.29-9.19,8.65-6.3,1.93-13.15.68-20.93-3.82a17.91,17.91,0,0,1-6,2.81c-5,1.32-10.3,1.49-15.39,1.65-1.47,0-2.93.1-4.35.17C75,446.28,70,446.43,65.46,446.43Zm16-74.12a30.18,30.18,0,0,0-23.33,11.45,30.83,30.83,0,0,0-6.49,15l-.06.44-.37.25a37,37,0,0,0-15.63,25.34c-.87,6.91.42,12.29,3.7,15.55a12.31,12.31,0,0,0,7.44,3.16c3.85.49,7.74.69,11.36.84,6.58.26,13.6.17,22.5-.3,1.44-.08,2.91-.12,4.39-.17,5-.16,10.14-.33,15-1.59a15.79,15.79,0,0,0,5.83-2.86l.54-.43.59.35c7.51,4.47,14,5.76,19.9,4,3.81-1.17,6.89-4,7.86-7.3a8.23,8.23,0,0,0-1.85-7.8h0c-2-2.33-4.59-3.71-7.12-5-.62-.33-1.25-.66-1.86-1a34.83,34.83,0,0,1-9.15-7.62c-1.64-1.87-3.23-3.86-4.76-5.78l-1.58-2-.3-.38.11-.47a31.26,31.26,0,0,0,.73-5.46,4.72,4.72,0,0,0,0-.57,5.77,5.77,0,0,0,0-.92c-.68-12-7.91-21.65-18.89-25.28A27,27,0,0,0,81.42,372.31Z"/><path class="cls-3" d="M132.07,429.83l-.2.09c-1.11.61-2.23,1.13-3.36,1.61,1.15-1.64,2-5.65-1.26-4.42l-3.93,1.5c1.2-1.37,2.17-6.22-1.11-4.62-3.09,1.51-6.21,2.95-9.36,4.32q2.25-1.82,4.54-3.59a6.13,6.13,0,0,0,1.76-4.5q-.77-.46-1.52-1a3.79,3.79,0,0,0-.68.23l-7.48,3.35,6.62-4.68a20.23,20.23,0,0,1-3.73-3.69c-2.34,1.39-4.69,2.77-7,4.15q2.47-2,5.11-3.87a5,5,0,0,0,1.22-1.26,17.35,17.35,0,0,1-1.89-3.83,3.57,3.57,0,0,0-.42.25,84,84,0,0,0-11.59,9.7c-.9.9-1.86,2.79-1.2,4.07q-3.18,1.82-6.38,3.61c1.08-2.06,1.57-5.44-1.34-4l-10,5c.85-2,.78-4.5-1.79-3.41l-4.29,1.81c1.51-1.71,2.55-6.25-.84-4.84L59.7,426.92l12.67-9c1.72-1.23,3.06-7-.44-5.23Q61.37,418.08,50.57,423c2.35-2,4.75-3.88,7.24-5.69,1.7-1.24,3.29-6.7-.44-5.23l-5.81,2.3,10.17-9.09c1.65-1.47,2.18-5.69-1.06-4.68a87.54,87.54,0,0,0-16.61,7.13c-2.27,1.26-3.67,7.53-.22,5.61,1.77-1,3.57-1.88,5.39-2.74L39,419.8c-1.54,1.37-2.19,6,1.06,4.68l4-1.58c-2.25,2.06-4.45,4.16-6.58,6.35-1.31,1.36-2.27,6.12,1.06,4.68q4.57-2,9.1-4l-7.32,5.21c-1.73,1.23-3.24,6.76.44,5.23L49,436.91c-1.84,1.39-2.82,6.54.62,5.09l11.24-4.76-.62.55c-1.4,1.3-2.14,6.26,1.06,4.68L71,437.66c-1.49,1.36-3,7,.52,5.15,4.91-2.49,9.77-5.09,14.59-7.74-.65,1.89-.48,5,1.91,3.91,4.78-2.14,9.56-5.28,14.33-7.41-1,.87-8.37,6.47-9.33,7.36-1.51,1.41,4.22,1.18,7.5-.05q6.29-2.36,12.42-5.07c-.88,1.85-1,4.69,1.73,3.64l5.07-1.93c-.83,1.63-1.54,4.57.93,4.05q1.54-.32,3-.75c-.68,1.6-.87,3.69,1.28,3.43a24.61,24.61,0,0,0,6.94-1.88A49.52,49.52,0,0,0,132.07,429.83Z"/><path class="cls-3" d="M104.17,398.25l-7.6,4.88,5.21-4.44c2-1.68,2.15-7-1-4.4-2,1.65-4.08,3.25-6.15,4.83Q96.86,397,99,394.75c1.26-1.29,1.47-4.2.1-4.47.57-1.94,0-4-2.26-2.28q-6.87,5.16-14,10l11.49-9.5c2-1.67,2.13-6.93-1-4.4l-.63.51a1.84,1.84,0,0,0-.09-.9,1.63,1.63,0,0,0-2.77-.54c-.52.45-1.06.87-1.59,1.31.85-2,.57-4.51-2.09-2.78l-.94.61c.5-1.78,0-3.52-2.41-2.09-3.06,1.84-13.15,10.26-16.18,12.14.35-.34,7.73-7.25,8.09-7.59,1.2-1.17,2-5.73-1-4.25a114.17,114.17,0,0,0-17.73,11.15c-2.12,1.63-2.19,6.84,1,4.4.65-.5,1.31-1,2-1.44l-5.46,5.32c-1.57,1.53-1.37,5.53.93,4.31-.23,1.57.42,2.83,2.45,1.54-1,2-.64,4.66,2.09,3l1.34-.82c-1.86,1.49-3.71,3-5.58,4.46h0a32.93,32.93,0,0,0,3.37,5.81l.13-.06q2.9-1.64,5.77-3.33c-1.83,1.77-2.09,6.55,1.16,4.23l.69-.49c-1.12,1.84-1.51,5.41,1.07,3.94,1.28-.73,2.54-1.47,3.8-2.22-1.13,2.05-1.07,5.17,1.85,3.3l2.75-1.77c-.87,2-.44,4.63,2.12,2.84,3.06-2.14,6.14-.61,9.22-2.71-1.34,2-1.28,1.72,1.76-.09l.6-.36c.11,1.49,1.39,2.44,3.25.67a83.39,83.39,0,0,0,6-6.34c1-1.18,1.43-3.37.64-4.13q1.62-2,3.11-4.06a3.47,3.47,0,0,0,.62-2.37l1.29-1Q104.11,401.25,104.17,398.25Z"/><path class="cls-5" d="M132.17,429.72c-2.3-2.72-5.67-4.1-8.71-5.8a36.64,36.64,0,0,1-9.57-8c-2.49-2.83-4.76-5.82-7.13-8.73a30.09,30.09,0,0,0,1-6.43,2.8,2.8,0,0,0,0-.45,4.23,4.23,0,0,0-.05-.81c-.59-11.18-8.13-18.75-19-22.34-11.18-3.7-22.72-1.3-30,7.71a30,30,0,0,0-6.41,15.48A35.74,35.74,0,0,0,36.3,425.61c-.61,4.9-.36,10.93,3.37,14.64a11.1,11.1,0,0,0,6.78,2.83c3.76.48,7.57.68,11.36.83,7.54.3,15.06.1,22.59-.3,6.3-.33,13.13-.13,19.27-1.74a14.43,14.43,0,0,0,6.59-3.69c6.06,3.86,13.35,6.92,20.47,4.74C132.47,441.17,136.7,435.08,132.17,429.72ZM80.83,380.25c11.33,1.09,20.44,11.43,20.73,22.88-.31,12.06-11.66,21.19-23.5,20.09-11.13-1-20.7-10.48-20.73-21.88C57.31,389.28,69.26,379.14,80.83,380.25ZM91.39,438.6c-11,.62-22,.16-33-.09q-4-.09-8.09-.36c-2.54-.17-5.94.06-7.5-2.33-2.16-3.31-3.33-8.86-2.43-12.43,1.61-6.42,7.17-14.27,12-18.7.44,3.66,1.62,9.24,3.65,12.51a45.5,45.5,0,0,0,3.42,4.27c-.79.14-2.56-.7-3.29-.53-1.93.44-5.86.94-7,2.79a.56.56,0,0,0,.2.76c1.75,1.2,5.4.85,7.43,1a103.71,103.71,0,0,0,10.88-.21c6.59,3.39,13,3.77,20.34,1.76,4-1.1,5.46-1.34,8.57-3.89,6.25.66,9.44,6.26,6.91,10.48C101.17,437.46,95.32,438.37,91.39,438.6ZM130.05,437c-.33.86-2.68,1.38-3.4,1.55C120.47,440,114.21,437,109,433.63a10.78,10.78,0,0,0-8.95-13.86,30.77,30.77,0,0,0,4.68-7.07,58.82,58.82,0,0,0,18,15.35c2.54,1.35,5.48,2.66,7.24,5C130.52,433.74,130.39,436.09,130.05,437Z"/><path class="cls-5" d="M72.88,416.75c.65,2.6,5.1,3.69,7.32,3.63,3.35-.09,7.29-.55,10.05-2.61,2.19-1.64,3.1-5,1-7.19-2.52-2.69-8.37-3-11.61-2a12.45,12.45,0,0,0-3.06,1.37C74.44,411,72.29,414.38,72.88,416.75Zm7.55-1.09a5,5,0,0,1,1.92.45.25.25,0,0,0,.32-.07c.32-.39,1-1.27,1.68-1.34,1.28-.35,3.62.33,4.17,1.69h0a25.37,25.37,0,0,1-5,1.64,12.86,12.86,0,0,1-5.73-.24A2.74,2.74,0,0,1,80.42,415.66Z"/><path class="cls-5" d="M71.46,409.24a4.74,4.74,0,0,0,.7-.16,4.18,4.18,0,0,0,2.9-4.16.4.4,0,0,0-.17-.34c-.28-.2-.83,0-1.13.06l-.13,0,0,.14a4.23,4.23,0,0,1-1.14,1.82,3.93,3.93,0,0,1-2.82,1,4.9,4.9,0,0,1-2-.72l-.5-.26-.15.13c-.37.32-.25.57-.18.66A5.11,5.11,0,0,0,71.46,409.24Z"/><path class="cls-5" d="M89,404.72a4.74,4.74,0,0,0,.71-.05,5.11,5.11,0,0,0,4-3.06c0-.11.08-.38-.37-.58l-.5-.27-.29.42A4.47,4.47,0,0,1,91,402.45a3.7,3.7,0,0,1-2.92,0,4.23,4.23,0,0,1-1.62-1.4l-.08-.12h-.14c-.32,0-.89,0-1.1.28a.4.4,0,0,0-.06.38A4.18,4.18,0,0,0,89,404.72Z"/><path class="cls-5" d="M50.34,373.39c-3.92,1.8-8.7,2.83-12.78,4.55,3.38-4.53,7.15-8.32,10.35-12.86,1.14-1.63-.54-5.36-2.77-4.58-5.52,1.94-14.08,4.15-16.08,4.15-2.24,0-.51,8.4,1.65,7.69C34.17,371.2,43,366.13,43,366.13c-3.28,4.55-8.94,10.88-11.42,15.81-.77,1.53,1.38,3.71,2.86,2.8,1.13-.69,11.64-4,17.43-5.94C54.39,378,52.63,372.34,50.34,373.39Z"/><path class="cls-5" d="M130.53,367.8c-4.68,1.74-7.45,3.92-12.3,5.54,4.28-4.93,9.22-14.33,9.22-14.33,1.46-1.78-.16-5.22-2.8-4.52-6.53,1.75-12,2.88-18.41,4.88-2.47.77-.79,7.13,1.76,6.5,4.07-1,11.74-5.07,11.74-5.07-4.17,5-7.24,10.76-10.52,16.22-1,1.7,1.26,4.39,3.05,3.48,1.36-.7,12.76-3.61,19.6-5.34C134.79,374.44,133.25,366.78,130.53,367.8Z"/><path class="cls-5" d="M87.28,350.4c-5.32,2.13-8.74,3.77-14.26,5.77,4.78-5.78,7.06-11.14,11.6-17,1.63-2.08-.36-7.14-3.37-6.25-7.45,2.2-14.77,5.83-22.12,8.31-2.82,1-.7,7.21,2.21,6.42,4.65-1.27,16.75-7.39,16.75-7.39-4.65,5.82-12.57,13.83-16.18,20.2-1.12,2,1.58,5,3.61,3.91,1.55-.84,15.7-3.55,23.51-5.72C92.34,357.75,90.38,349.16,87.28,350.4Z"/><path class="cls-1" d="M147.62,570.81a45.68,45.68,0,0,0,5.4-6.9c1.1-1.9-.1-2.5-1.9-2.5a32.85,32.85,0,0,0,4.8-6.52c0-1.23,0-2.47,0-3.7,0-.34,0-.68,0-1l-.22-.06c.07-.14.14-.28.2-.41q-.07-2.79-.34-5.62a10.62,10.62,0,0,0-3.07,0,20.47,20.47,0,0,0-2.4.5c1.6-1.7,3.2-3.4,4.7-5.2a2.82,2.82,0,0,0,.18-.25c-.09-.6-.18-1.19-.28-1.79a3.38,3.38,0,0,0-1.5-.56,6.6,6.6,0,0,0-1.4-.1c.78-.87,1.54-1.81,2.26-2.77q-.57-2.8-1.3-5.58a25.36,25.36,0,0,0-2.56.35q1.13-.78,2.23-1.59c-.78-2.81-1.67-5.58-2.67-8.28-.48-.65-.95-1.3-1.39-1.94-1.47.23-2.51,1.06-4.17,2.22l-16.07,11.51c1.9-1.5,16.57-13.51,18.47-15a4.13,4.13,0,0,0,.59-.6,3,3,0,0,1-.19-2.38l-.3-.12a8.2,8.2,0,0,0-4.4-.1c.5-.5,1.1-1,1.6-1.5,1-.9,2-2.4.1-3.1-2.5-.9-1.6-4.08-3.9-2.88-3.3,1.7-10.7,7.68-13.9,9.48a113.24,113.24,0,0,0,10.6-10.2c1.3-1.5-.3-2.5-1.6-2.6a10.45,10.45,0,0,0-2.5,0c1.87-1.54,3.69-3.15,5.47-4.8a50.18,50.18,0,0,0-4.74-5.48c-6,5.13-12.11,10-18.4,14.65a192.37,192.37,0,0,0,16.35-15.36,1.29,1.29,0,0,0,.33-.91,41.4,41.4,0,0,0-3.4-2.72,11.26,11.26,0,0,0-2.81.13,14.53,14.53,0,0,0,.89-1.43,40.07,40.07,0,0,0-4.61-2.52,7.27,7.27,0,0,0-1.27.35c.21-.21.44-.42.67-.64l-.07,0a59.54,59.54,0,0,0-6.77-2.48,13.15,13.15,0,0,0-1.63,1c-5.6,4-11.1,8-16.7,12-1.5.9-3,1.7-4.5,2.5-9.4,5.3-18.4,11.2-27.6,16.8l-3.1,1.8.3-.2c17.51-11.28,35.86-21.38,52.2-34.16-2.75-.79-5.56-1.44-8.38-2-2.18,1.48-4.41,2.88-6.61,4.26,2-1.45,4-2.9,5.89-4.4-2.87-.56-5.75-1-8.62-1.54l-7.17,5.24a48.24,48.24,0,0,0,4.42-5.72c-2.05-.36-4.1-.74-6.12-1.17a3.17,3.17,0,0,1-1.73-.95l-.27.13c-2.7,1.4-5.4,2.9-8.1,4.4.3-.4.7-.8,1-1.2,2.9-3.7-6.3-2.1-7.3-1.7a125.77,125.77,0,0,0-27.5,14.2,150.85,150.85,0,0,0-24.4,19.6c-1.5,1.5.1,2.2,1.6,2.5a71,71,0,0,0-9.4,8.8c-1.4,1.5.2,2.5,1.6,2.6a11.46,11.46,0,0,0,7-1.5c.6-.3,1.1-.7,1.7-1a74.86,74.86,0,0,0-9,7.9c-1.4,1.4.4,2.5,1.6,2.6a13.26,13.26,0,0,0,7-1.5c1.1-.5,2.2-1.1,3.3-1.6-4.3,3.7-8.6,7.7-12.6,11.8-1.4,1.4.4,2.5,1.6,2.6a6.69,6.69,0,0,0,2,0c-1.5,1.5-2.9,3.1-4.3,4.7s.3,2.5,1.6,2.6a10.75,10.75,0,0,0,3.1-.1c-1.3.9-2.7,1.8-4,2.8-1.9,1.4-1.3,3.1.9,3.3a11.78,11.78,0,0,0,8.1-2.2l4-2.8c11.9-8,42.72-25.09,55.22-32.09-4.6,3.6-30.09,17.85-34.79,21.25-4.4,2.3-6.13,4.24-10.63,6.34-7,3.3-16.8,7.1-19.9,14.9-1.1,2.8,5.4,1.7,6.3,1.5a35.74,35.74,0,0,0,6-2.1c-2.6,1.9-5.2,3.9-7.8,5.8-1.2.8-1.9,2.5-.1,3.1,2.5.9,5.8-.1,8-1.3l9-7.21c-2.7,2.5-14.1,12.31-16.3,15.41-1.1,1.5.1,2.4,1.7,2.6a12.2,12.2,0,0,0,7-1.5c.9-.5,22.86-16.25,23.76-16.75-2.3,2.1-25.56,19.45-27.86,21.65-1.4,1.4.4,2.5,1.7,2.6a10.75,10.75,0,0,0,5.3-.8,18.32,18.32,0,0,0-4.1,8.8c-.5,2.9,4.9,1.9,6.3,1.5a48.51,48.51,0,0,0,9.2-3.5c-1.8,1.9-3.5,3.9-5.2,6-1.2,1.5.2,2.5,1.7,2.6a11.83,11.83,0,0,0,3.7-.2,10.7,10.7,0,0,0-1.4,1.6c-1.3,1.5.3,2.5,1.7,2.6a11.46,11.46,0,0,0,7-1.5l.5-.3c-1.1,1-2.2,2.1-3.3,3.2-1.4,1.4.4,2.5,1.7,2.6a10.85,10.85,0,0,0,4-.3c.2,0,.5-.1.8-.1l.3,1.2c.7,2.1,4.9,1.2,6.3.8l.7-.2c-1.2,1.5.2,2.4,1.7,2.6a10.45,10.45,0,0,0,2.5,0c-1,1.9,3.8,2.1,4.8,1.9,2.2-.4,4.4-1,6.5-1.6-.6.3-1.2.7-1.8,1-.9.5-3.3,2.1-1.9,3.4s4.3.7,5.9.2,2.9-.8,4.3-1.3c-.8.7-1.3,1.6-.5,2.4,1.8,1.6,5.5.5,7.4-.3,10.6-4.1,21-8.4,30.3-14.4,1.8-.9,3.6-1.9,5.4-2.9,11.1-6.2,22.6-14.7,26.8-27.4C152.82,570.51,150.22,570.41,147.62,570.81Zm-97.2-79a70.58,70.58,0,0,1,6.4-4.2c-4,3-8.3,5.8-12.5,8.4C46.32,494.51,48.32,493.11,50.42,491.81Zm-4.3,12.7c8.5-5.6,27.75-18,36.35-23.39-6.8,5.8-25.45,17.09-33,21.49Zm18.3,97.4c.1-.2.1-.5.2-.8l10.4-7.4A64,64,0,0,1,64.42,601.91ZM108.72,495c-2.2,1.9-4.6,3.7-7,5.4C104,498.51,106.32,496.71,108.72,495Zm-31.2,87.8c7.6-5.7,15.2-11.3,23.1-16.6,4.3-2.9,8.8-5.6,13.2-8.3-4.3,3.1-8.5,6.3-12.8,9.5l-3.7,2.7c-4.2,3-8.5,5.9-12.9,8.6C82.12,580.11,79.82,581.41,77.52,582.81Zm5.1,21.4a146.73,146.73,0,0,1,21.6-15.1C97.52,594.51,90.42,600.31,82.62,604.21Zm31.3-4.2-6,3c4.6-2.9,9.1-6,13.5-9.1A55.47,55.47,0,0,1,113.92,600Zm14.3-21.7c1.3-1,2.6-2,4-2.9C130.92,576.41,129.62,577.41,128.22,578.31Zm5.13-14.17c-4.3,3-12.63,7.67-17.23,10.27,4.9-3.6,9.9-7.1,15.1-10.2l14.93-11.34C144.05,554.57,135.35,562.74,133.35,564.14Z"/><path class="cls-1" d="M83.19,530.86c-.28.21-.53.39-.72.51Z"/><path class="cls-2" d="M14.62,545.51c0-15.3,6.1-28.1,16.6-40.2,10.9-12.4,25.3-20,40.6-21.3,1.2-.1,2.4-4,2.3-4.8,0-.3-.2-1-1.8-.8a65.91,65.91,0,0,0-33.7,13c1.5-1.2,3.1-2.4,4.7-3.5a69.86,69.86,0,0,1,39-11.6,71.18,71.18,0,0,1,27.6,5.5c17.3,7.4,30.6,21.9,37.4,41a81.45,81.45,0,0,1,2.4,31.1c-1.9,16.1-8.4,30.2-19,40.7a76.12,76.12,0,0,1-44.8,21.1,60.86,60.86,0,0,1-12.8.1,61.81,61.81,0,0,1-8.4-2.4C36.12,602.91,14.62,573.81,14.62,545.51ZM38.32,602a61.2,61.2,0,0,1-9.9-9.8A83.34,83.34,0,0,0,38.32,602Zm54.8,14.9c2.8-.6,5.6-1.3,8.3-2.1a81.34,81.34,0,0,0,36.8-23.6,68.13,68.13,0,0,1-26,20.6A57.56,57.56,0,0,1,93.12,616.91Zm24.7-140.5-.8-.5a1.55,1.55,0,0,0-.8-.2c-1.1,0-2.9.7-3.1,1.5a.79.79,0,0,0,.5.9,66.64,66.64,0,0,1,9.3,6.4,73.52,73.52,0,0,0-40.8-10.9c-22.6.5-43.2,10.2-56.5,26.5-11.7,14.2-17.7,33.8-16.3,53.8,1.3,19.8,10.3,38,24.5,49.7,10.2,8.4,23.1,13.5,37.5,14.6a71.64,71.64,0,0,0,14.6,1.5,69.3,69.3,0,0,0,36.8-10.5,71,71,0,0,0,33.5-52.6,76.38,76.38,0,0,0-4.3-35.3C146.52,502.11,134.42,486.11,117.82,476.41Z"/><path class="cls-3" d="M58.62,548.51h0c0,.1-.1.1-.1.2C58.52,548.61,58.62,548.61,58.62,548.51Z"/><path class="cls-3" d="M129.82,563.61v.2h-.2C129.72,563.81,129.72,563.71,129.82,563.61Z"/><path class="cls-4" d="M134.61,583.69c-2.09-2.48-4.8-3.9-7.42-5.28-.62-.32-1.23-.65-1.83-1a33.84,33.84,0,0,1-8.89-7.41c-1.63-1.85-3.21-3.84-4.74-5.76l-1.57-2a32.17,32.17,0,0,0,.75-5.64,4.77,4.77,0,0,0,0-.63,6.48,6.48,0,0,0-.06-1c-.69-12.33-8.18-22.32-19.57-26.09-11.61-3.84-24.84.34-32.92,10.41a31.76,31.76,0,0,0-6.7,15.44,37.88,37.88,0,0,0-16.06,26c-.91,7.23.47,12.89,4,16.38a13.23,13.23,0,0,0,8,3.44c3.89.49,7.8.7,11.45.84,2.38.1,4.85.14,7.45.14,4.55,0,9.5-.15,15.14-.45,1.43-.08,2.9-.12,4.37-.17,5-.16,10.26-.33,15.17-1.62a16.91,16.91,0,0,0,6.2-3c7.76,4.62,14.54,5.94,20.7,4.06,4.12-1.26,7.47-4.39,8.52-8A9.2,9.2,0,0,0,134.61,583.69Z"/><path class="cls-4" d="M66.54,602.61c-2.61,0-5.06,0-7.49-.15-3.67-.15-7.61-.35-11.54-.85a14.16,14.16,0,0,1-8.6-3.73c-3.75-3.72-5.23-9.67-4.28-17.22a39.13,39.13,0,0,1,16.13-26.5,32.84,32.84,0,0,1,6.85-15.48c8.34-10.39,22-14.7,34-10.73,11.77,3.9,19.53,14.23,20.25,27a6.89,6.89,0,0,1,.06,1.12,5.41,5.41,0,0,1,0,.72,32.68,32.68,0,0,1-.67,5.27l1.27,1.6c1.53,1.92,3.1,3.89,4.71,5.72a32.85,32.85,0,0,0,8.62,7.2c.6.33,1.2.65,1.81,1,2.7,1.42,5.5,2.89,7.72,5.52h0a10.17,10.17,0,0,1,2.25,9.65c-1.15,3.9-4.75,7.29-9.19,8.65-6.3,1.93-13.15.68-20.93-3.82a17.91,17.91,0,0,1-6,2.81c-5,1.32-10.3,1.49-15.39,1.65-1.47,0-2.93.1-4.35.17C76.05,602.46,71.08,602.61,66.54,602.61Zm16-74.12a30.18,30.18,0,0,0-23.33,11.45,30.83,30.83,0,0,0-6.49,15l-.06.44-.37.25a37,37,0,0,0-15.63,25.34c-.87,6.91.42,12.29,3.7,15.55a12.31,12.31,0,0,0,7.44,3.16c3.85.49,7.74.69,11.36.84,6.58.26,13.6.17,22.5-.3,1.44-.08,2.91-.12,4.39-.17,5-.16,10.14-.33,15-1.59a15.79,15.79,0,0,0,5.83-2.86l.54-.43.59.35c7.51,4.47,14,5.76,19.9,4,3.81-1.17,6.89-4,7.86-7.3a8.23,8.23,0,0,0-1.85-7.8h0c-2-2.33-4.59-3.71-7.12-5-.62-.33-1.25-.66-1.86-1a34.83,34.83,0,0,1-9.15-7.62c-1.64-1.87-3.23-3.86-4.76-5.78l-1.58-2-.3-.38.11-.47a31.26,31.26,0,0,0,.73-5.46,4.72,4.72,0,0,0,0-.57,5.77,5.77,0,0,0,0-.92c-.68-12-7.91-21.65-18.89-25.28A27,27,0,0,0,82.5,528.49Z"/><path class="cls-3" d="M133.15,586l-.2.09c-1.11.61-2.23,1.13-3.36,1.61,1.15-1.64,2-5.65-1.26-4.42l-3.93,1.5c1.2-1.37,2.17-6.22-1.11-4.62-3.09,1.51-6.21,2.95-9.36,4.32q2.25-1.82,4.54-3.59a6.13,6.13,0,0,0,1.76-4.5q-.77-.46-1.52-1a3.79,3.79,0,0,0-.68.23L110.56,579l6.62-4.68a20.23,20.23,0,0,1-3.73-3.69c-2.34,1.39-4.69,2.77-7,4.15q2.47-2,5.11-3.87a5,5,0,0,0,1.22-1.26,17.35,17.35,0,0,1-1.89-3.83,3.57,3.57,0,0,0-.42.25,84,84,0,0,0-11.59,9.7c-.9.9-1.86,2.79-1.2,4.07q-3.18,1.82-6.38,3.61c1.08-2.06,1.57-5.44-1.34-4l-10,5c.85-2,.78-4.5-1.79-3.41l-4.29,1.81c1.51-1.71,2.55-6.25-.84-4.84L60.78,583.1l12.67-9c1.72-1.23,3.06-7-.44-5.23q-10.57,5.42-21.36,10.36c2.35-2,4.75-3.88,7.24-5.69,1.7-1.24,3.29-6.7-.44-5.23l-5.81,2.3,10.17-9.09c1.65-1.47,2.18-5.69-1.06-4.68a87.54,87.54,0,0,0-16.61,7.13c-2.27,1.26-3.67,7.53-.22,5.61,1.77-1,3.57-1.88,5.39-2.74L40.07,576c-1.54,1.37-2.19,6,1.06,4.68l4-1.58c-2.25,2.06-4.45,4.16-6.58,6.35-1.31,1.36-2.27,6.12,1.06,4.68q4.57-2,9.1-4l-7.32,5.21c-1.73,1.23-3.24,6.76.44,5.23L50,593.09c-1.84,1.39-2.82,6.54.62,5.09l11.24-4.76-.62.55c-1.4,1.3-2.14,6.26,1.06,4.68L72,593.85c-1.49,1.36-3,7,.52,5.15,4.91-2.49,9.77-5.09,14.59-7.74-.65,1.89-.48,5,1.91,3.91,4.78-2.14,9.56-5.28,14.33-7.41-1,.87-8.37,6.47-9.33,7.36-1.51,1.41,4.22,1.18,7.5-.05q6.29-2.36,12.42-5.07c-.88,1.85-1,4.69,1.73,3.64l5.07-1.93c-.83,1.63-1.54,4.57.93,4.05q1.54-.32,3-.75c-.68,1.6-.87,3.69,1.28,3.43a24.61,24.61,0,0,0,6.94-1.88A49.52,49.52,0,0,0,133.15,586Z"/><path class="cls-3" d="M105.26,554.43l-7.6,4.88,5.21-4.44c2-1.68,2.15-7-1-4.4-2,1.65-4.08,3.25-6.15,4.83q2.21-2.16,4.37-4.38c1.26-1.29,1.47-4.2.1-4.47.57-1.94,0-4-2.26-2.28q-6.87,5.16-14,10l11.49-9.5c2-1.67,2.13-6.93-1-4.4l-.63.51a1.84,1.84,0,0,0-.09-.9,1.63,1.63,0,0,0-2.77-.54c-.52.45-1.06.87-1.59,1.31.85-2,.57-4.51-2.09-2.78l-.94.61c.5-1.78,0-3.52-2.41-2.09-3.06,1.84-13.15,10.26-16.18,12.14.35-.34,7.73-7.25,8.09-7.59,1.2-1.17,2-5.73-1-4.25a114.17,114.17,0,0,0-17.73,11.15c-2.12,1.63-2.19,6.84,1,4.4.65-.5,1.31-1,2-1.44l-5.46,5.32c-1.57,1.53-1.37,5.53.93,4.31C55.34,562,56,563.24,58,562c-1,2-.64,4.66,2.09,3l1.34-.82c-1.86,1.49-3.71,3-5.58,4.46h0a32.93,32.93,0,0,0,3.37,5.81l.13-.06q2.9-1.64,5.77-3.33c-1.83,1.77-2.09,6.55,1.16,4.23l.69-.49c-1.12,1.84-1.51,5.41,1.07,3.94,1.28-.73,2.54-1.47,3.8-2.22-1.13,2.05-1.07,5.17,1.85,3.3L76.45,578c-.87,2-.44,4.63,2.12,2.84,3.06-2.14,6.14-.61,9.22-2.71-1.34,2-1.28,1.72,1.76-.09l.6-.36c.11,1.49,1.39,2.44,3.25.67a83.39,83.39,0,0,0,6-6.34c1-1.18,1.43-3.37.64-4.13q1.62-2,3.11-4.06a3.47,3.47,0,0,0,.62-2.37l1.29-1Q105.19,557.43,105.26,554.43Z"/><path class="cls-5" d="M133.26,585.9c-2.3-2.72-5.67-4.1-8.71-5.8a36.64,36.64,0,0,1-9.57-8c-2.49-2.83-4.76-5.82-7.13-8.73a30.09,30.09,0,0,0,1-6.43,2.8,2.8,0,0,0,0-.45,4.23,4.23,0,0,0-.05-.81c-.59-11.18-8.13-18.75-19-22.34-11.18-3.7-22.72-1.3-30,7.71a30,30,0,0,0-6.41,15.48,35.74,35.74,0,0,0-16.08,25.24c-.61,4.9-.36,10.93,3.37,14.64a11.1,11.1,0,0,0,6.78,2.83c3.76.48,7.57.68,11.36.83,7.54.3,15.06.1,22.59-.3,6.3-.33,13.13-.13,19.27-1.74a14.43,14.43,0,0,0,6.59-3.69c6.06,3.86,13.35,6.92,20.47,4.74C133.55,597.35,137.78,591.26,133.26,585.9ZM81.92,536.43c11.33,1.09,20.44,11.43,20.73,22.88-.31,12.06-11.66,21.19-23.5,20.09-11.13-1-20.7-10.48-20.73-21.88C58.39,545.46,70.34,535.32,81.92,536.43Zm10.56,58.34c-11,.62-22,.16-33-.09q-4-.09-8.09-.36c-2.54-.17-5.94.06-7.5-2.33-2.16-3.31-3.33-8.86-2.43-12.43,1.61-6.42,7.17-14.27,12-18.7.44,3.66,1.62,9.24,3.65,12.51a45.5,45.5,0,0,0,3.42,4.27c-.79.14-2.56-.7-3.29-.53-1.93.44-5.86.94-7,2.79a.56.56,0,0,0,.2.76c1.75,1.2,5.4.85,7.43,1a103.71,103.71,0,0,0,10.88-.21c6.59,3.39,13,3.77,20.34,1.76,4-1.1,5.46-1.34,8.57-3.89,6.25.66,9.44,6.26,6.91,10.48C102.26,593.64,96.41,594.55,92.47,594.78Zm38.66-1.63c-.33.86-2.68,1.38-3.4,1.55-6.19,1.45-12.45-1.51-17.65-4.89a10.78,10.78,0,0,0-8.95-13.86,30.77,30.77,0,0,0,4.68-7.07,58.82,58.82,0,0,0,18,15.35c2.54,1.35,5.48,2.66,7.24,5C131.6,589.92,131.47,592.27,131.14,593.15Z"/><path class="cls-5" d="M73.59,573.06c.65,2.6,5.47,3.57,7.68,3.51,3.35-.09,7.29-.55,10.05-2.61,2.19-1.64,3.33-4.28,1.23-6.51-2.52-2.69-8.6-3.68-11.83-2.73a12.45,12.45,0,0,0-3.06,1.37C75.53,567.23,73,570.68,73.59,573.06Zm7.91-1.21a5,5,0,0,1,1.92.45.25.25,0,0,0,.32-.07c.32-.39,1-1.27,1.68-1.34a3,3,0,0,1,3.31,2l0,0a17.07,17.07,0,0,1-4.17,1.3,12.86,12.86,0,0,1-5.73-.24A2,2,0,0,1,81.5,571.85Z"/><path class="cls-5" d="M72.55,565.42a4.74,4.74,0,0,0,.7-.16,4.18,4.18,0,0,0,2.9-4.16.4.4,0,0,0-.17-.34c-.28-.2-.83,0-1.13.06l-.13,0,0,.14a4.23,4.23,0,0,1-1.14,1.82,3.48,3.48,0,0,1-2.69.86,4.55,4.55,0,0,1-2-.62l-.53-.32L68,563c-.37.32-.25.57-.18.66A5.11,5.11,0,0,0,72.55,565.42Z"/><path class="cls-5" d="M90.12,560.9a4.74,4.74,0,0,0,.71-.05,5.11,5.11,0,0,0,4-3.06c0-.11.08-.38-.37-.58l-.19-.08-.4.4a4.9,4.9,0,0,1-1.74,1.3,3.93,3.93,0,0,1-3-.16,4.16,4.16,0,0,1-1.44-1.54h-.41c-.32,0-.89,0-1.1.28a.4.4,0,0,0-.06.38A4.18,4.18,0,0,0,90.12,560.9Z"/><path class="cls-5" d="M51.43,529.57c-3.92,1.8-6.7,2.83-10.78,4.55C44,529.59,45.8,525.8,49,521.25c1.14-1.63-.54-5.36-2.77-4.58-5.52,1.94-14.08,4.15-16.08,4.15-2.24,0-.51,8.4,1.65,7.69,3.45-1.13,12.32-6.19,12.32-6.19-3.28,4.55-8.94,10.88-11.42,15.81-.77,1.53,1.38,3.71,2.86,2.8,1.13-.69,11.64-4,17.43-5.94C55.47,534.16,53.71,528.52,51.43,529.57Z"/><path class="cls-5" d="M131.61,524c-4.68,1.74-7.45,3.92-12.3,5.54,4.28-4.93,8.22-14.33,8.22-14.33,1.46-1.78.84-5.22-1.8-4.52-6.53,1.75-12,3.88-18.41,5.88-2.47.77-.79,6.13,1.76,5.5,3.4-.84,8.61-3.81,10.24-4.77a.1.1,0,0,1,.12.16c-3.92,4.86-6,10.47-9.15,15.76-1,1.7,1.26,4.39,3.05,3.48,1.36-.7,12.76-3.61,19.6-5.34C135.87,530.62,134.33,523,131.61,524Z"/><path class="cls-5" d="M88.36,506.58c-5.32,2.13-8.74,3.77-14.26,5.77,4.78-5.78,7.06-11.14,11.6-17,1.63-2.08-.36-7.14-3.37-6.25-7.45,2.2-14.77,5.83-22.12,8.31-2.82,1-.7,7.21,2.21,6.42,4.65-1.27,16.75-7.39,16.75-7.39-4.65,5.82-12.57,13.83-16.18,20.2-1.12,2,1.58,5,3.61,3.91,1.55-.84,15.7-3.55,23.51-5.72C93.42,513.93,91.46,505.34,88.36,506.58Z"/></g></svg>