<?xml version="1.0" encoding="UTF-8"?>
<svg width="524px" height="110px" viewBox="0 0 524 110" version="1.1" xmlns="http://www.w3.org/2000/svg" xmlns:xlink="http://www.w3.org/1999/xlink">
    <!-- Generator: Sketch 60.1 (88133) - https://sketch.com -->
    <title>Group 8</title>
    <desc>Created with Sketch.</desc>
    <defs>
        <polygon id="path-1" points="0 0.260203046 523.81687 0.260203046 523.81687 110 0 110"></polygon>
    </defs>
    <g id="Welcome" stroke="none" stroke-width="1" fill="none" fill-rule="evenodd">
        <g id="Desktop-HD-Copy-23" transform="translate(-632.000000, -403.000000)">
            <g id="Group-8" transform="translate(632.000000, 403.000000)">
                <path d="M133.999154,70.4745544 C130.828539,70.4745544 128.249295,67.8952798 128.249295,64.7232177 C128.249295,61.5531297 130.828539,58.9730092 133.999154,58.9730092 C137.171179,58.9730092 139.750987,61.5531297 139.750987,64.7232177 C139.750987,67.8952798 137.171179,70.4745544 133.999154,70.4745544 M133.999154,52 C127.383813,52 122,57.383312 122,63.999859 C122,70.617252 127.383813,76 133.999154,76 C140.616469,76 146,70.617252 146,63.999859 C146,57.383312 140.616469,52 133.999154,52" id="Fill-1" fill="#F4F4F4"></path>
                <path d="M479.18915,49.0336183 C476.032312,47.6184436 472.75382,47 469.901255,47 C466.219769,47 463.24667,48.029292 462.153746,49.7036214 C460.355232,52.4577169 461.122907,53.6210638 461.412079,54.0590488 C463.132008,56.6652498 469.58216,58.7539554 477.399585,57.7379603 C479.990385,57.4009235 483.365081,56.6508674 486.997906,55.0286402 C487,55.0278261 487.000702,55.0248411 486.999024,55.0229416 C484.471708,51.8143077 481.303124,49.981229 479.18915,49.0336183" id="Fill-3" fill="#F4F4F4"></path>
                <g id="Group-7">
                    <mask id="mask-2" fill="white">
                        <use xlink:href="#path-1"></use>
                    </mask>
                    <g id="Clip-6"></g>
                    <path d="M454.630558,71.7120152 C462.141967,76.0757208 472.565725,77.6905431 482.558199,75.9872183 C481.078637,80.4277005 476.85601,83.8896294 471.548909,84.9279289 C466.024913,86.0089442 460.94306,84.2469898 458.286029,80.3294264 L458.267931,80.3040203 C457.064569,78.7207462 456.328964,76.5483858 455.617026,74.4463807 C455.293493,73.4918376 454.980262,72.5671675 454.630558,71.7120152 L454.630558,71.7120152 Z M501.126231,59.1362792 C501.125674,59.1376751 501.125117,59.1387919 501.124838,59.1401878 C502.63809,65.3965076 502.477159,72.8804162 499.780313,81.593868 C497.738885,88.1913553 493.199965,94.0032081 487.001062,97.9587411 C481.470384,101.486838 474.883353,103.404579 468.348388,103.404579 C468.016781,103.404579 467.685731,103.399553 467.354403,103.389503 C460.618413,103.187929 454.388605,100.974528 449.338214,96.9888426 C447.222445,95.3192995 445.337493,93.3457208 443.707859,91.108868 C443.705074,91.108868 443.704239,91.108868 443.701733,91.1091472 C442.612526,92.8412284 441.422528,94.3708985 440.134802,95.6925736 C436.089533,99.844934 428.092826,101.561102 423.071113,100.946888 C417.307391,100.241381 399.248324,97.5742995 399.248324,58.6555178 L399.248324,58.6552386 C399.14809,55.459934 401.937096,52.7881066 405.123695,52.6878782 C408.318369,52.5882081 410.975121,55.0967107 411.075077,58.2920152 L411.075077,58.2970406 C411.075077,82.8932081 417.840579,88.2966091 423.546109,88.2966091 C426.632197,88.2966091 434.865567,85.971533 437.671,75.9967107 C437.712764,75.8423198 437.752022,75.726736 437.810214,75.5533604 C437.84975,75.435264 437.910169,75.2563046 437.948313,75.1426751 C438.531897,73.2232589 440.095823,71.6645533 442.181799,71.1846294 C445.2548,70.4777259 448.325017,72.3742487 449.078441,75.4439188 C450.412386,80.8808223 452.90236,85.0683604 456.479036,87.8909492 C459.572641,90.3324467 463.452245,91.6901371 467.698817,91.8174467 C472.271427,91.9539695 476.922832,90.6660761 480.802715,88.1902386 C483.558031,86.4327513 487.173965,83.2659239 488.753204,78.1623706 C490.263393,73.2835635 490.720849,69.1501878 490.478061,65.6558731 C490.475833,65.6547563 490.474998,65.654198 490.47277,65.652802 C486.662773,67.3156447 482.636158,68.4483096 478.502906,69.0030558 C476.583429,69.2613046 474.695971,69.3866599 472.863642,69.3866599 C463.260131,69.3872183 455.130892,65.9375736 451.330082,59.9866853 C448.140977,54.993132 448.399635,48.8255939 452.038679,43.0659492 C457.417057,34.5543503 471.277999,32.3565838 483.594505,38.0634619 C488.266235,40.2274467 492.701023,43.5961269 496.05635,48.1725736 C496.058577,48.1728528 496.059412,48.1728528 496.06164,48.1728528 C500.638705,43.7237157 504.04554,37.9791472 506.207527,31.0516599 C507.160027,28.0004162 510.398692,26.3015584 513.441623,27.2563807 C516.484275,28.211203 518.178783,31.4587157 517.226562,34.5099594 C514.038292,44.7240457 508.622605,53.0075482 501.126231,59.1362792 L501.126231,59.1362792 Z M392.661572,103.692142 C388.182513,103.692142 384.551823,100.051254 384.551823,95.5599594 C384.551823,91.0689442 388.182513,87.4280558 392.661572,87.4280558 C397.140352,87.4280558 400.771321,91.0689442 400.771321,95.5599594 C400.771321,100.051254 397.140352,103.692142 392.661572,103.692142 L392.661572,103.692142 Z M359.393697,63.2529036 C357.392362,64.4961269 355.633816,66.1438934 354.248362,68.1286396 C352.890473,70.0734619 350.671408,71.2348832 348.314243,71.2348832 C344.32995,71.2348832 341.088779,67.9845787 341.088779,63.989401 C341.088779,59.9939442 344.32995,56.7444772 348.314243,56.7444772 C350.245136,56.7444772 352.057419,57.4954924 353.39554,58.837269 C353.47879,58.9221421 353.561482,59.0070152 353.639721,59.0921675 C355.267963,60.8714315 357.233659,62.279934 359.393697,63.2529036 L359.393697,63.2529036 Z M378.029665,84.1082335 C371.243559,93.8270406 360.134592,99.6291218 348.314243,99.6291218 C328.322613,99.6291218 312.058566,83.3200863 312.058566,63.2732843 C312.058566,43.2264822 328.322613,26.9180051 348.314243,26.9180051 C357.997942,26.9180051 367.103346,30.6984873 373.950428,37.5651117 C374.313497,37.9288934 374.667657,38.2993756 375.031283,38.6949848 C379.291497,43.3518376 378.978824,50.6165838 374.335772,54.8895533 C372.221674,56.8352132 369.477495,57.9056193 366.610809,57.9056193 C363.415021,57.9056193 360.344804,56.5523959 358.184766,54.1932589 C358.052792,54.0486396 353.766405,49.6159746 348.314243,49.8418376 C340.93453,50.147269 334.919389,55.8669898 334.919389,63.2732843 C334.919389,70.6795787 340.927848,76.7050102 348.314243,76.7050102 C352.682766,76.7050102 356.790124,74.5577766 359.302095,70.961 C361.439023,67.8999848 364.94303,66.0724213 368.67479,66.0724213 C371.026386,66.0724213 373.289164,66.7888173 375.22117,68.1453909 C380.384046,71.7695279 381.644486,78.9306954 378.029665,84.1082335 L378.029665,84.1082335 Z M396.102654,35.6295025 C396.102654,30.6808985 400.117574,26.6555685 405.053253,26.6555685 C409.988097,26.6555685 414.00246,30.6808985 414.00246,35.6295025 L414.00246,35.9229289 C414.00246,40.8706954 409.988097,44.8965838 405.053253,44.8965838 C400.117574,44.8965838 396.102654,40.8706954 396.102654,35.9229289 L396.102654,35.6295025 Z M304.199123,87.8091472 C304.199123,94.1288426 299.070773,99.2709239 292.768573,99.2709239 C286.466095,99.2709239 281.338022,94.1288426 281.338022,87.8091472 L281.338022,46.9762538 C281.338022,40.7623706 286.296254,35.6906447 292.453115,35.5220152 C292.676692,35.5306701 292.900826,35.5393249 293.126352,35.5393249 C293.217954,35.5393249 293.307608,35.5337411 293.398654,35.5323452 C299.409062,35.8617868 304.199123,40.8679036 304.199123,46.9762538 L304.199123,87.8091472 Z M263.834418,54.1734365 L262.763865,54.1734365 L262.763865,89.6333604 C262.763865,95.9536142 257.635793,101.095695 251.331922,101.095695 C245.029723,101.095695 239.90165,95.9536142 239.90165,89.6333604 L239.90165,54.1734365 L239.187485,54.1734365 C232.88445,54.1734365 227.756934,49.0321929 227.756934,42.7116599 C227.756934,36.3911269 232.88445,31.2490457 239.187485,31.2490457 L239.90165,31.2490457 L239.90165,26.5933096 C239.90165,20.2736142 245.029723,15.1318122 251.331922,15.1318122 C257.635793,15.1318122 262.763865,20.2736142 262.763865,26.5933096 L262.763865,31.2490457 L263.834418,31.2490457 C270.137174,31.2490457 275.265247,36.3911269 275.265247,42.7116599 C275.265247,49.0321929 270.137174,54.1734365 263.834418,54.1734365 L263.834418,54.1734365 Z M218.82666,54.1298832 C218.612271,54.1287665 218.280664,54.1256954 217.865808,54.1256954 C214.527744,54.1256954 211.845376,54.3219645 210.315976,54.6779289 C203.184063,56.3351878 202.730505,64.2208477 202.866656,67.5353655 C202.871389,67.6640711 202.876122,67.7550863 202.871389,67.8321421 L202.871389,87.331736 C202.871389,93.6514315 197.743317,98.7935127 191.44056,98.7935127 C185.138082,98.7935127 180.01001,93.6514315 180.01001,87.331736 L180.01001,40.2899848 C180.01001,33.9702893 185.138082,28.8282081 191.44056,28.8282081 C195.178445,28.8282081 199.930084,31.2917614 200.768428,36.6803655 C205.538722,32.0413807 211.453629,29.9823706 214.990211,29.9823706 C218.785731,29.9823706 221.282945,30.5533096 221.368422,30.5739695 C222.705151,30.8478528 223.948328,31.4020406 225.062316,32.162269 C222.88056,35.101 221.587544,38.7407716 221.587544,42.6778782 C221.587544,46.3782335 222.729931,49.8144772 224.678086,52.6546548 C223.015597,53.5949594 221.097791,54.1323959 219.056362,54.1323959 L218.82666,54.1298832 Z M173.08469,86.9908477 C173.08469,93.310264 167.956617,98.452066 161.652469,98.452066 C157.679312,98.452066 154.207047,95.8793503 152.17954,91.5044772 C148.423,96.1015838 141.641349,98.8108223 133.730675,98.8108223 C114.593259,98.8108223 99.0233316,83.1975228 99.0233316,64.0069898 C99.0233316,44.8170152 114.593259,29.2031574 133.730675,29.2031574 C140.584439,29.2031574 145.674367,31.3113046 151.046063,36.4321675 C152.68767,32.4397817 156.727091,29.9201117 161.652469,29.9201117 C167.956617,29.9201117 173.08469,35.0624721 173.08469,41.3824467 L173.08469,86.9908477 Z M43.678407,68.1883858 C38.6327492,65.4291726 35.200577,60.0595533 35.200577,53.9015076 C35.200577,44.9356701 42.4750446,37.6413299 51.4156206,37.6413299 C51.7505685,37.6413299 52.0983241,37.6360254 52.4594442,37.6301624 L52.6237163,37.6282081 C52.9603348,37.6229036 53.3119883,37.6170406 53.6803475,37.6170406 C55.0825069,37.6170406 56.6394718,37.7167107 58.5945877,38.1729036 C57.8548066,38.1698325 57.2792976,38.1678782 56.9265303,38.1664822 L56.7227216,38.1648071 C56.5979862,38.1589442 56.4721371,38.1564315 56.3471233,38.1564315 C46.6108023,38.1564315 38.6887131,46.1001624 38.6887131,55.8639188 C38.6887131,60.6489188 40.591763,64.9978274 43.678407,68.1883858 L43.678407,68.1883858 Z M88.6285303,78.7039949 C80.5850468,91.5053147 67.3683858,98.5548071 51.4156206,98.5548071 C26.4671509,98.5548071 6.16952922,78.201736 6.16952922,53.1848325 C6.16952922,28.1676497 26.4671509,7.81485787 51.4156206,7.81485787 C62.3831467,7.81485787 76.1594463,9.07287817 85.4174293,18.8751624 C87.5167705,21.0969391 88.6271382,24.0069137 88.5422179,27.0679289 C88.4603603,30.1289442 87.1935165,32.9730305 84.9755654,35.0775482 C83.1863921,36.777802 81.0260755,37.6390964 78.5547556,37.6390964 C75.3355802,37.6390964 71.9309724,36.1987665 69.0247492,34.7891472 C61.6224835,31.1987919 57.1136334,30.7146802 53.6803475,30.7146802 C53.2549107,30.7146802 52.8486854,30.7213807 52.4613932,30.727802 C52.0994378,30.7331066 51.7505685,30.7378528 51.4156206,30.7378528 C39.0721073,30.7378528 29.031187,40.8084365 29.031187,53.1848325 C29.031187,65.5617868 39.073221,75.6312538 51.4156206,75.6312538 C56.9173422,75.6312538 64.4554803,74.0605431 69.2118523,66.6031574 C64.9012423,66.5919898 60.2434336,66.5746802 57.8155484,66.5643503 C57.2653762,66.6361015 56.7967832,66.6684873 56.3471233,66.6684873 C50.0120691,66.6684873 44.8581031,61.5004416 44.8581031,55.1472437 C44.8581031,48.7946041 50.0120691,43.6262792 56.3471233,43.6262792 C56.393899,43.6262792 56.4415101,43.6282335 56.487729,43.6321421 L56.5205834,43.6343756 C57.0170191,43.6363299 68.7602434,43.6877005 74.9917226,43.6877005 C80.8684857,43.6877005 86.2727577,47.1339949 89.4498905,52.9059239 C93.0260096,59.4040203 94.1594867,69.9020406 88.6285303,78.7039949 L88.6285303,78.7039949 Z M281.694688,17.8421675 C281.694688,11.5216345 286.82276,6.38011168 293.126352,6.38011168 C299.42883,6.38011168 304.556902,11.5216345 304.556902,17.8421675 L304.556902,18.2000863 C304.556902,24.5197817 299.42883,29.6618629 293.126352,29.6618629 C286.82276,29.6618629 281.694688,24.5197817 281.694688,18.2000863 L281.694688,17.8421675 Z M523.473912,30.0479797 C522.468233,25.4913553 519.274673,22.3658477 513.982607,20.7582843 L513.870401,20.732599 C503.581402,19.1632843 501.402987,25.3562284 499.095104,31.9137919 C498.308269,34.1486904 497.49721,36.4531066 496.342851,38.6698579 C488.18215,30.984934 474.885023,26.928335 463.696426,28.776 C457.667642,29.7713046 449.54592,32.877269 445.093312,42.0108985 C441.237096,49.6042487 441.961563,58.3673959 446.835431,64.9129543 C444.782031,64.3551371 442.559625,64.3350355 440.396524,64.8747056 C436.855765,65.7577766 433.992698,68.0136142 432.535967,71.0760254 C432.099115,72.0517868 431.729085,73.110467 431.33344,74.2414569 C430.426324,76.8362284 429.488303,79.5189442 427.83361,80.5879543 L427.718063,80.6789695 C426.551731,81.7803655 425.488139,82.1882589 424.557079,81.8906447 C423.212275,81.4609746 418.894426,80.2610254 418.416645,68.0691726 C418.34147,66.1561777 417.953899,62.3279543 417.813572,60.5475736 C417.508972,56.6933858 417.245859,53.3626751 415.333621,51.2453147 C414.550683,50.1553655 413.614889,49.2251117 412.570509,48.4690711 C416.860794,45.8949594 419.74001,41.1909239 419.74001,35.8229797 L419.74001,35.5301117 C419.74001,27.4090964 413.151865,20.8023959 405.053253,20.8023959 C396.954362,20.8023959 390.365104,27.4090964 390.365104,35.5301117 L390.365104,35.8229797 C390.365104,41.3106954 393.376016,46.1037919 397.826953,48.6374213 C395.15795,50.6640457 393.049142,54.0148579 392.960603,58.8590457 C392.820554,66.497066 393.453697,72.3354416 394.971961,79.3022944 C395.218926,80.434401 395.227835,81.4601371 392.573589,81.3459492 C391.895897,81.3166345 390.879916,81.3347817 390.365104,81.4386396 C388.702894,81.717269 387.073259,82.2996548 385.562513,83.1986396 C386.311482,80.6292741 386.470186,77.9018883 385.992683,75.1862284 C385.175499,70.5399848 382.606173,66.4939949 378.758588,63.7934112 C377.848688,63.1549086 376.888949,62.6071421 375.892736,62.1556954 C376.816558,61.5786142 377.692211,60.913868 378.507446,60.1642487 C385.657179,53.5846294 386.137187,42.3989695 379.568811,35.2227259 C379.146437,34.7603909 378.733529,34.3290457 378.313104,33.9074721 C370.300248,25.8730051 359.646787,21.4484365 348.314243,21.4484365 C331.25306,21.4484365 317.151835,31.6170152 310.301691,46.2087665 C309.835882,40.6311523 306.774575,35.784731 302.333383,32.8892741 C307.255976,29.8008985 310.539189,24.3184873 310.539189,18.0789188 L310.539189,17.7212792 C310.539189,8.09348731 302.728471,0.260035533 293.126352,0.260035533 C283.523397,0.260035533 275.712122,8.09348731 275.712122,17.7212792 L275.712122,18.0789188 C275.712122,24.1660508 278.836911,29.5331574 283.560985,32.6589442 C282.232609,33.4800355 281.023121,34.4745025 279.958694,35.6082843 C277.903344,30.9129036 273.867264,27.2795533 268.916271,25.7789188 C268.50754,16.4085381 260.77673,8.9117868 251.331922,8.9117868 C241.850084,8.9117868 234.095051,16.4696802 233.743954,25.8933858 C232.09121,26.433335 230.547332,27.2156193 229.148513,28.1930558 C227.349317,26.8551878 225.306496,25.8660254 223.104137,25.3397563 C221.811678,24.8930558 219.509085,24.3101117 216.282671,24.3101117 C211.795816,24.3101117 207.059213,25.3997817 202.150819,27.557066 C198.983153,24.8732335 195.21297,23.3583604 191.44056,23.3583604 C184.939285,23.3583604 179.25408,26.9140964 176.206694,32.1851624 C173.035687,27.519934 167.695453,24.4499848 161.652469,24.4499848 C157.168677,24.4499848 153.115612,25.8897563 150.031196,28.4314822 C145.13199,25.2121675 139.910645,23.7335888 133.730675,23.7335888 C115.918294,23.7335888 100.733153,35.2188173 95.1459543,51.1905939 C95.0487832,51.0032589 94.9516121,50.8150863 94.8510999,50.6327766 C92.8648002,47.0239949 90.199695,44.0902893 87.1008002,41.9832589 C87.8419734,41.4871421 88.5486217,40.9212284 89.216847,40.2869137 C92.6320351,37.0444264 94.5829745,32.6625736 94.7096589,27.9551878 C94.8391275,23.2424975 93.1304198,18.7609746 89.8967662,15.336736 C79.0208427,3.82219289 63.6193634,2.34445178 51.4156206,2.34445178 C23.0650489,2.34445178 -0.000139213603,25.4729289 -0.000139213603,53.9015076 C-0.000139213603,82.3295279 23.0650489,105.457447 51.4156206,105.457447 C69.5651764,105.457447 84.6342136,97.3813807 93.8476482,82.7184365 C94.5094697,81.6653401 95.0927747,80.5924213 95.6053592,79.5061015 C101.532518,94.8242995 116.386609,105.713462 133.730675,105.713462 C140.369493,105.713462 146.399113,104.108411 151.143234,101.176381 C154.077578,103.862168 157.723861,105.354706 161.652469,105.354706 C167.846917,105.354706 173.300471,102.127294 176.438345,97.2638426 C179.537519,102.317701 185.102165,105.696152 191.44056,105.696152 C201.145419,105.696152 209.040779,97.7783858 209.040779,88.048132 L209.040779,68.6144264 C209.043006,68.4455178 209.040779,68.2470152 209.031034,67.9971421 C208.940267,65.7946294 209.16802,62.0110761 211.710896,61.4200355 C212.486316,61.2391218 214.563383,61.0280558 217.865808,61.0280558 C218.246418,61.0280558 218.552966,61.0311269 218.7771,61.0325228 L219.056362,61.0355939 C223.023115,61.0355939 226.68666,59.7153147 229.637153,57.4921421 C230.900934,58.3140711 232.274137,58.9804924 233.73226,59.4581827 L233.73226,89.6004162 C233.73226,99.3312284 241.627342,107.248437 251.331922,107.248437 C261.037338,107.248437 268.933255,99.3312284 268.933255,89.6004162 L268.933255,59.5709746 C271.249213,58.8668629 273.363032,57.6939949 275.168354,56.166 L275.168354,88.5255431 C275.168354,98.2569137 283.062879,106.173563 292.768573,106.173563 C302.473431,106.173563 310.368235,98.2569137 310.368235,88.5255431 L310.368235,83.0889188 C317.460054,96.4061777 332.075255,106.457218 348.314243,106.53232 C359.912129,106.53232 370.920305,101.758208 378.854923,93.5143503 C378.427259,97.1069391 379.365559,100.865924 381.689034,103.924706 C386.399465,110.124629 395.405472,111.455518 401.538388,106.667447 C403.680607,104.99567 405.202211,102.813259 406.071461,100.422015 C411.013823,105.029452 418.858509,107.643208 425.436909,107.812675 C432.208537,107.987447 438.694498,105.541761 443.762152,100.913665 C450.387327,106.776888 459.068409,110.000112 468.27015,110.000112 L468.360639,110.000112 C480.39287,109.726787 491.014311,105.109579 498.267618,96.9986142 C505.876477,88.4898071 509.476262,76.475797 508.418518,63.1456954 C514.054719,57.8891472 525.986717,41.4296294 523.473912,30.0479797 L523.473912,30.0479797 Z" id="Fill-5" fill="#F4F4F4" mask="url(#mask-2)"></path>
                </g>
            </g>
        </g>
    </g>
</svg>