<svg id="Camada_1" data-name="Camada 1" xmlns="http://www.w3.org/2000/svg" viewBox="0 0 168 624"><defs><style>.cls-1{fill:#009dff;}.cls-2{fill:#09519f;}.cls-3{fill:#fff;}.cls-4{fill:#ffba00;}.cls-5{fill:#042f70;}</style></defs><title>reportar</title><path class="cls-1" d="M103.54,135.85c4.6-2.9,9.1-6,13.5-9.1a55.47,55.47,0,0,1-7.5,6.1C107.64,133.85,105.54,134.85,103.54,135.85ZM67.44,20.65c-6.8,5.7-14.7,10.4-22.3,14.8l-3.4,2C50.24,31.75,58.74,26,67.44,20.65Zm-15-.2a142.45,142.45,0,0,1-12.5,8.3c2-1.5,4-2.8,6.1-4.2S50.24,21.75,52.44,20.45Zm44.9,12.7c2.3-1.9,4.6-3.7,7-5.4A59.44,59.44,0,0,1,97.34,33.15Zm30.5,75c-1.3,1-2.7,2-4,2.9C125.14,110,126.54,109.15,127.84,108.15Zm-28,13.7c-6.7,5.4-13.8,11.2-21.6,15.1A163.63,163.63,0,0,1,99.84,121.85Zm25.3-22.9c-4.3,3-8.8,5.7-13.4,8.3,4.9-3.6,9.9-7.1,15.1-10.2l4.5-2.7A66.16,66.16,0,0,1,125.14,98.95Zm-64.8,35c3.5-2.4,6.9-4.9,10.4-7.4a64,64,0,0,1-10.6,8.2A3.09,3.09,0,0,1,60.34,133.95Zm32.7-31c-4.2,3-8.5,5.9-12.9,8.6-2.3,1.4-4.6,2.7-6.9,4.1,7.6-5.7,15.2-11.3,23.1-16.6,4.3-2.9,8.8-5.6,13.2-8.2-4.3,3.1-8.5,6.3-12.8,9.5A22.55,22.55,0,0,0,93,102.95Zm60.2-51.2a12.19,12.19,0,0,0-5.9.9l.3-.3c1.5-1.4-.4-2.5-1.6-2.6a11.92,11.92,0,0,0-8.1,2.2l-1.3.9c1.9-1.5,3.8-2.9,5.7-4.4,1.1-.9,1.9-2.4.1-3.1a8.2,8.2,0,0,0-4.4-.1c.6-.5,1.1-1,1.6-1.5,1-.9,2-2.4.1-3.1-2.5-.9-5.7.1-8,1.3-3.3,1.7-6.6,3.5-9.8,5.3A113.25,113.25,0,0,0,132.54,37c1.3-1.5-.3-2.5-1.6-2.6a10.45,10.45,0,0,0-2.5,0,104.66,104.66,0,0,0,11.4-10.7c1.3-1.5-.3-2.5-1.6-2.6a11.64,11.64,0,0,0-8.1,2.2,370.48,370.48,0,0,1-33.3,25.4c-2.7,1.7-5.3,3.4-8,5.1,13.3-9.3,26.2-19.3,37.2-31.4,1.3-1.5-.3-2.5-1.6-2.6a11.56,11.56,0,0,0-3.2.1,15.92,15.92,0,0,0,1.3-2.2c1.2-2.2-4-2-4.8-1.8a8.33,8.33,0,0,0-1.5.4c.7-.6,1.3-1.2,1.9-1.8,1.4-1.4-.4-2.5-1.6-2.6a11.92,11.92,0,0,0-8.1,2.2c-5.6,4-11.1,8-16.7,12-1.5.9-3,1.7-4.5,2.5-9.4,5.3-18.4,11.2-27.6,16.8L56.54,47l.3-.2c19.1-12.3,39.2-23.2,56.6-37.7,1.7-1.5,1.4-3.1-.9-3.4a11.78,11.78,0,0,0-8.1,2.2,118.2,118.2,0,0,1-10.4,7c2.3-1.7,4.7-3.4,6.9-5.2,1.8-1.4,1.4-3.1-.9-3.4a12.32,12.32,0,0,0-8.1,2.2l-7.8,5.7a54.45,54.45,0,0,0,5-6.6c1-1.6-.1-2.4-1.7-2.6a12.2,12.2,0,0,0-7,1.5c-2.7,1.4-5.4,2.9-8.1,4.4.3-.4.7-.8,1-1.2C76.24,6,67,7.65,66,8c-9.7,3.4-18.9,8.6-27.5,14.2A152.88,152.88,0,0,0,14,42c-1.5,1.5.1,2.2,1.6,2.5a65.33,65.33,0,0,0-9.4,8.8c-1.3,1.5.3,2.5,1.6,2.6a11.46,11.46,0,0,0,7-1.5c.6-.3,1.1-.7,1.7-1a83.43,83.43,0,0,0-9,7.9c-1.4,1.4.4,2.5,1.6,2.6a13.06,13.06,0,0,0,7-1.5c1.1-.5,2.2-1.1,3.3-1.6-4.3,3.7-8.6,7.7-12.6,11.8-1.4,1.4.4,2.5,1.6,2.6a6.69,6.69,0,0,0,2,0c-1.5,1.5-2.9,3.1-4.3,4.7s.3,2.4,1.6,2.6a10.75,10.75,0,0,0,3.1-.1c-1.3.9-2.7,1.8-4,2.8-1.9,1.4-1.3,3.1.9,3.3a11.78,11.78,0,0,0,8.1-2.2l4-2.8c11.9-8.1,24.7-14.7,37.2-21.7-4.6,3.6-9.3,7.2-14,10.6-4.4,2.3-8.9,4.5-13.4,6.6-7,3.3-16.8,7.1-19.9,14.9-1.1,2.8,5.4,1.7,6.3,1.5a32.88,32.88,0,0,0,6-2.1c-2.6,1.9-5.2,3.9-7.8,5.8-1.2.8-1.9,2.5-.1,3.1,2.5.9,5.8-.1,8-1.3l.1-.1a58.52,58.52,0,0,0-7.4,8.3c-1.1,1.5.1,2.4,1.6,2.6a12.2,12.2,0,0,0,7-1.5c.9-.5,1.9-1,2.8-1.5-2.4,2.1-4.7,4.2-6.9,6.4-1.4,1.4.4,2.5,1.6,2.6a11.32,11.32,0,0,0,5.4-.8,19.46,19.46,0,0,0-4.2,8.8c-.5,2.9,4.9,1.9,6.3,1.5a48.51,48.51,0,0,0,9.2-3.5c-1.8,1.9-3.5,3.9-5.2,6-1.2,1.5.2,2.4,1.7,2.6a11.83,11.83,0,0,0,3.7-.2,10.7,10.7,0,0,0-1.4,1.6c-1.3,1.5.3,2.5,1.7,2.6a11.46,11.46,0,0,0,7-1.5l.5-.3c-1.1,1-2.2,2.1-3.3,3.2-1.4,1.4.4,2.5,1.7,2.6a10.85,10.85,0,0,0,4-.3c.2,0,.5-.1.8-.1l.3,1.2c.7,2.1,4.9,1.2,6.3.8l.7-.2c-1.2,1.5.3,2.4,1.7,2.6a10.45,10.45,0,0,0,2.5,0c-1,1.9,3.8,2.1,4.8,1.9,2.2-.4,4.4-1,6.5-1.6-.6.3-1.2.7-1.8,1-.9.5-3.3,2.1-1.9,3.4s4.3.7,5.9.2,2.9-.8,4.3-1.3c-.8.7-1.3,1.6-.5,2.4,1.8,1.6,5.5.5,7.4-.2,10.6-4.1,21-8.5,30.3-14.4,1.8-.9,3.6-1.9,5.4-2.9,11.1-6.2,22.6-14.7,26.8-27.4.7-2-1.9-2.1-4.5-1.7a45.68,45.68,0,0,0,5.4-6.9c1.1-1.9-.1-2.5-1.9-2.5a32.13,32.13,0,0,0,6.3-9.5c.4-1.1-.7-1.6-1.6-1.8a19.22,19.22,0,0,0,1.6-4.2c.6-2.3-3.6-2-4.8-1.8a20.48,20.48,0,0,0-2.4.5c1.6-1.7,3.2-3.4,4.7-5.3,1.2-1.5-.2-2.4-1.6-2.6a6.6,6.6,0,0,0-1.4-.1,40.67,40.67,0,0,0,4.8-6.7c1.3-2.3-3.8-1.8-6.4-1.3a102.38,102.38,0,0,0,8.5-6.6C155.84,53.65,155.54,52,153.24,51.75Z"/><path class="cls-2" d="M114.54,108.95c-7.9-13.2-17.6-25.3-26.4-37.8-5.5-7.7-11-15.4-16.4-23.2-2.8-4-6.2-8.1-8.5-12.6a2.22,2.22,0,0,0-2.5-1.2c.1-1.6-2.3-1.3-3.2.5-.4.8-.8,1.7-1.2,2.5a3.74,3.74,0,0,0-.6,1c-.1.3-.2.5-.3.8C45,59.75,35.34,78,27,100.15c-1,2.8,2.6,4.2,3.4,2l.4-2.9c5-13.4,10.3-24.9,16-36.6-5.8,16.6-11.4,33.4-17.3,50.1a27.65,27.65,0,0,0,5.1,6.7c8.6-23.9,16.4-48.2,25.2-72.1,1.5,2.1,3,4.1,4.4,6.1,5.4,7.8,10.9,15.5,16.4,23.2,7.8,11,16.3,21.9,23.7,33.4-19,5-38.8,6.8-58.1,10-4,.7-7,8.3-1.2,7.3,11.7-1.9,23.5-3.4,35.3-5.3-10.3,2.4-20.7,4.4-30.7,7.4-.8.2.5,2.2,1.6,2a276.15,276.15,0,0,0,51.8-14.2c2.4-.6,4.8-1.3,7.2-2C112,114.85,116.24,111.85,114.54,108.95Z"/><path class="cls-2" d="M65.84,67.45c-.8-.8-2.2-.9-3.8.4-3.2,2.7-3,6.1-2.2,10.1a147,147,0,0,0,4.1,14.8c1.2,3.5,4.3,1.9,4.3-.7.2-6.8-.1-15.9-.6-22.7A1.66,1.66,0,0,0,65.84,67.45Z"/><path class="cls-2" d="M63.34,106.45a3.89,3.89,0,0,0,1.1,3.6,4.14,4.14,0,0,0,4.3.2c2.6-1.1,5.7-3.4,6.5-6.5.8-2.8-.7-5.8-3.5-5.5a3.47,3.47,0,0,0-3.4.4A11.15,11.15,0,0,0,63.34,106.45Z"/><path class="cls-2" d="M136.64,122.75a67.89,67.89,0,0,1-25.7,20.2,62.68,62.68,0,0,1-18.5,5,65.29,65.29,0,0,0,7.6-2A81.56,81.56,0,0,0,136.64,122.75Zm-100.1,10.2a61,61,0,0,1-9.5-9.5A106.46,106.46,0,0,0,36.54,132.95Zm33.9-120.8c1.2-.1,2.3-1,2.3-1.8,0-.3-.2-.9-1.4-.9h-.4A65.45,65.45,0,0,0,38,21.85c1.3-1,2.6-2,3.9-2.9,11-7.5,24.9-11.6,39.1-11.6a70.32,70.32,0,0,1,27.5,5.5c17.3,7.4,30.6,21.9,37.4,40.8a81.81,81.81,0,0,1,2.4,31.2c-1.9,16.1-8.4,30.2-19,40.7a76.12,76.12,0,0,1-44.8,21.1,61.81,61.81,0,0,1-12.9.1,60.47,60.47,0,0,1-8.3-2.4c-28.6-10.2-50.2-39.4-50.1-67.6,0-15.3,6.1-31,16.6-43.2C40.74,21,55.14,13.45,70.44,12.15Zm80,40.3a75.52,75.52,0,0,0-34-44.9l-.8-.5a1.88,1.88,0,0,0-.8-.2c-1,0-2.8.7-3.1,1.6-.1.2-.1.6.5,1a56.77,56.77,0,0,1,9.1,6.3,74,74,0,0,0-40.7-10.9c-22.6.5-43.2,10.2-56.5,26.5C12.44,45.55,6.54,65.15,7.94,85s10.3,38,24.5,49.7a66.64,66.64,0,0,0,37.5,14.6,71.64,71.64,0,0,0,14.6,1.5,70.11,70.11,0,0,0,36.8-10.4,71,71,0,0,0,33.5-52.6A78,78,0,0,0,150.44,52.45Z"/><path class="cls-3" d="M110.54,106.95c-7.9-13.2-17.6-25.3-26.4-37.8-5.5-7.7-11-15.4-16.4-23.2-2.8-4-6.2-8.1-8.5-12.6a2.22,2.22,0,0,0-2.5-1.2c.1-1.6-2.3-1.3-3.2.5-.4.8-.8,1.7-1.2,2.5a3.74,3.74,0,0,0-.6,1c-.1.3-.2.5-.3.8C41,57.75,31.34,76,23,98.15c-1,2.8,2.6,4.2,3.4,2l.4-2.9c5-13.4,10.3-24.9,16-36.6-5.8,16.6-11.4,33.4-17.3,50.1a27.65,27.65,0,0,0,5.1,6.7c8.6-23.9,16.4-48.2,25.2-72.1,1.5,2.1,3,4.1,4.4,6.1,5.4,7.8,10.9,15.5,16.4,23.2,7.8,11,16.3,21.9,23.7,33.4-19,5-38.8,6.8-58.1,10-4,.7-7,8.3-1.2,7.3,11.7-1.9,23.5-3.4,35.3-5.3-10.3,2.4-20.7,4.4-30.7,7.4-.8.2.5,2.2,1.6,2A276.15,276.15,0,0,0,99,115.25c2.4-.6,4.8-1.3,7.2-2C108,112.85,112.24,109.85,110.54,106.95Z"/><path class="cls-3" d="M61.84,65.45c-.8-.8-2.2-.9-3.8.4-3.2,2.7-3,6.1-2.2,10.1a147,147,0,0,0,4.1,14.8c1.2,3.5,4.3,1.9,4.3-.7.2-6.8-.1-15.9-.6-22.7A1.66,1.66,0,0,0,61.84,65.45Z"/><path class="cls-3" d="M59.34,104.45a3.89,3.89,0,0,0,1.1,3.6,4.14,4.14,0,0,0,4.3.2c2.6-1.1,5.7-3.4,6.5-6.5.8-2.8-.7-5.8-3.5-5.5a3.47,3.47,0,0,0-3.4.4A11.15,11.15,0,0,0,59.34,104.45Z"/><path class="cls-3" d="M162.34,52.45c.2-5-2.4-10.2-7.5-15.3a1.54,1.54,0,0,0-1.3-.9c-.3-.3-1.1-.9-2.8-2.3-.3-.2-.4-.3-.5-.3a17.85,17.85,0,0,0-4.3-1.8,18.13,18.13,0,0,0-3.9-.5,7.08,7.08,0,0,1-1.4-.1,4.71,4.71,0,0,1-1.6-.4,8.45,8.45,0,0,0-1.7-.5,5.93,5.93,0,0,0-5.2,2,11.54,11.54,0,0,0-1.4,1.9c-.2.3-.3.5-.5.8l-.1.1a3.19,3.19,0,0,0-.7.6,18.83,18.83,0,0,0-3.1,4.3,35.29,35.29,0,0,1-2.1,3.2c-.6.7-1.2,1.4-1.7,2.1-1.3,1.6-2.7,3.3-4.1,4.8s-2.8,3-4.2,4.4c-.7.7-1.4,1.5-2.1,2.2l-18.6,19.5a24,24,0,0,0-4.8,6.1,32.08,32.08,0,0,0-2.4,7.6c-.2.7-.3,1.5-.5,2.2L82,107.35c-.5,2-1.2,4.8-.1,6.7a3.64,3.64,0,0,0,1.6,1.4,4.14,4.14,0,0,0,1.6,2.7,3.7,3.7,0,0,0,1.1.5c1.6.5,3.7,0,6.2-.6s5.1-1.1,7.9-1.5c4.7-.8,9.5-1.6,13.7-3.5,2.8-1.2,4.8-4.2,6.6-6.9a33.93,33.93,0,0,1,2-2.8c4.4-5.4,9-10.8,13.5-16l1.1-1.3a26.47,26.47,0,0,1,2.9-2.9l.4-.4a7.83,7.83,0,0,0,1.8-2.5,6.71,6.71,0,0,1,.9-1.4,80.32,80.32,0,0,1,6.3-7.1,84.16,84.16,0,0,0,6.3-7.1c.3-.4.6-.7.9-1.1C159.54,60.25,162.24,56.95,162.34,52.45Z"/><path class="cls-3" d="M112,99.45c-.8.3-1.6.7-2.5,1l-.1-.1c.5-.6,1-1.1,1.5-1.7,1.1-1.3.5-4.3-1.4-2.6-.1.1-.3.2-.4.3l.1-.1c1.3-1.8,0-4.4-1.8-2.2-.4.4-.7.9-1.1,1.3a.1.1,0,0,0-.1-.1c.8-1.3,1.6-2.6,2.4-4,1.1-1.9-.5-3.5-2.1-1.7-.8,1-1.6,1.9-2.4,2.9a2.18,2.18,0,0,0-.4-.5,19.68,19.68,0,0,0,.6-3.5c.3-2.3-2-1.5-2.7-.2.1-1.8-1.8-1-2.6.1.1-.9.2-1.9.3-2.8.2-2.9-2.7-.8-3,.9a90.31,90.31,0,0,1-4.8,16.1c-1,2.7,2,2.2,2.8.1.1-.2.1-.4.2-.5-.2,1.6-.5,3.2-.7,4.8-.4,2.3,1.7,1.4,2.6.1a1.06,1.06,0,0,0,.9-.5c-.4,1.2-.1,2.9,1.5,2.1a23.92,23.92,0,0,0,2.1-1.3,1.49,1.49,0,0,0,.6-.1c1.5-.6,2.9-1.2,4.4-1.7a.8.8,0,0,0,1.2.8l1.8-.6a2.89,2.89,0,0,0,1.6-1.8c.4-.3.9-.5,1.4-.8C113.14,102.55,114,98.65,112,99.45Z"/><path class="cls-4" d="M153,49.55v-3.4c0-1.3-1-1.2-1.7-.7a15.26,15.26,0,0,0-.3-3c-.1-1.1-.7-1.2-1.4-.9-.3-1.3-2.6-.2-3,1.2-.3,1-.5,1.9-.8,2.9.4-2.1.8-4.2,1.3-6.4s-1.8-1.5-2.6-.2c.1-.6.3-1.2.4-1.8.6-2.8-2.2-2.3-2.8-.1v.2c-.1-1.7-2.4-1.1-2.9.8-.7,2.4-1.3,4.8-2,7.2-1.1,3.6-2.4,7.2-3.8,10.7a68.45,68.45,0,0,0,3.1-21.2c-.1-2.3-2.6-.2-2.9.9-1.3,4.1-2.5,8.2-3.8,12.4-.3-1.4-2.4-.8-2.9,1-2.5,8.9-5.2,17.6-8.1,26.3l4.8-20.4c.7-2.8-2.1-2.3-2.8-.1-.6,1.6-1.1,3.2-1.6,4.9-.6-.1-1.3.3-1.8,1.3-.6,1.3-1.1,2.5-1.7,3.8-.2-1.4-2-1.4-2.7.3-.9,2.2-1.9,4.4-2.8,6.6a22.85,22.85,0,0,0,0-3.7c-.1-2-2.2-.7-2.7.3s-1,2.1-1.5,3.1a2.33,2.33,0,0,0-1.2,1.2c-1.5,3.6-2.9,7.1-4.4,10.7-1,2.4,1.4,3.7,2.4,1.2h0V85c-.1,1.4.6,1.7,1.4,1.3-.1,1.7,1.8,2.3,2.6.2.7-1.8,1.5-3.5,2.2-5.3-.5,2.6-.9,5.3-1.2,7.9-.2,1.7,1,1.7,1.9,1.1-.4,1.4-.7,2.9-1.1,4.3-.7,2.6,1.9,2.4,2.7.5a28.64,28.64,0,0,1-.7,2.8c-.7,2.8,2,2.2,2.8.1l2.7-7.2-2.7,10.5c-.7,2.8,2.2,2.3,2.8.1,1.6-5.3,3.3-10.7,4.9-16-.6,2.4-1.2,4.9-1.6,7.3s2.5,1.3,2.9-.4c.3-1,.6-2.1.9-3.1.3,1.2,2,1,2.7-.5,1.1-2,2.1-4,3.1-6,.6.7,1.8.4,2.5-.9q4.35-9.15,7.8-18.6c-1,4.8-1.9,9.7-2.9,14.5-.5,2.6,2.4,1.1,2.9-.4,1.2-3.2,2.3-6.3,3.3-9.5.6.3,1.7-.3,2.2-1.2a40.52,40.52,0,0,0,3.3-8.1,3.05,3.05,0,0,0,1.6-1.4v2.5c0,2.1,2.2.6,2.7-.3a22.86,22.86,0,0,0,2.9-9.5C155.84,47.55,153.94,48.25,153,49.55Zm-20.6-.6c-1.7,9.1-5.1,17.8-8.1,26.7Q128.24,62.15,132.44,48.95Z"/><path class="cls-5" d="M151.44,39.45c-5.8-5.4-13-6.1-19.6-1.6a3.31,3.31,0,0,0-1.1,2.6c-3.2,3.9-6.4,7.8-9.7,11.7l-12,12.6c-4.8,5.1-9.6,10.1-14.4,15.2-2.5,2.6-3,3.9-3.9,7.5-1.8,7.4-3.7,14.8-5.5,22.2-.3,1.4,1.1,1.2,1.4.1,1.5-6.2,3.1-12.4,4.6-18.6.6-2.4,1-5.1,1.8-7.5l.1-.1c.5-.6,1-1.1,1.5-1.6l11.5-12.1c-3.6,4.3-7.3,8.5-10.9,12.8l-.1.1a2.12,2.12,0,0,0-1.7,1.8c-1.9,9-3.9,18-5.8,26.9-.6,1.3-.6,3,.8,2.5,8.2-2.5,16.8-3.4,25-5.9a1.89,1.89,0,0,0,1-.8,2.07,2.07,0,0,0,.6-1c-.2.6.3-.3.5-.7.5-.7,1-1.4,1.6-2.1,1.5-2,3.1-3.9,4.7-5.9,4.5-5.5,9.2-10.9,13.8-16.3,7.3-8.5,15.7-16.8,21.8-26.1a3,3,0,0,0,.4-1.1c0-.1.1-.2.1-.3C159.24,48.55,154.94,42.75,151.44,39.45ZM133,41.95a4.05,4.05,0,0,0,.5-.9c.3-.3.6-.7.9-1,4.6-2.2,9.4-1.5,13.5,1.8A513.87,513.87,0,0,0,109.54,88a21.86,21.86,0,0,0-10.1-6Q116.39,62.25,133,41.95ZM91.14,109c.1.1.1.2.2.3a.37.37,0,0,0-.3.1A.6.6,0,0,1,91.14,109Zm21.8-4.7c-4.4,1.3-9,2.1-13.5,3.1a8.74,8.74,0,0,0-6.8-5.9c1.2-5.4,2.3-10.7,3.5-16.1a.1.1,0,0,0,.1-.1,1,1,0,0,0,.7.4C105,87.45,113,95.85,112.94,104.35Zm42.4-50.8v.2c-6.5,9.6-15.1,18.1-22.6,26.9-4.6,5.4-9.2,10.8-13.7,16.3-.9,1.1-2.1,2.4-3.1,3.6a21.21,21.21,0,0,0-4.5-10.3A489.34,489.34,0,0,1,150,43.85C152.34,46.25,155.94,50.65,155.34,53.55Z"/><path class="cls-4" d="M92.94,101.35c.9,0,1.9-2,.9-2s-1.8,2-.9,2Z"/><path class="cls-5" d="M92.44,99.95c5.3.2,6.1,6.2,6.4,10.3.1,1.3,1.6-.1,1.5-.9-.3-4.7-1.4-11.2-7.3-11.4-.9-.1-1.6,1.9-.6,2Z"/><path class="cls-1" d="M103.64,291.7c4.6-2.9,19.9-15.8,24.4-19-2.3,2.2-15.7,14.1-18.3,16C107.74,289.7,105.74,290.7,103.64,291.7ZM74.24,173.2c-6.8,5.8-21.4,13.7-29,18.1l-3.3,1.9C50.44,187.6,65.54,178.6,74.24,173.2Zm-21.7,3.1A143.67,143.67,0,0,1,40,184.7q3-2.25,6-4.2C48.24,179,50.34,177.6,52.54,176.3Zm45,12.8c2.3-1.9,4.6-3.7,7-5.4C102.24,185.6,99.94,187.4,97.54,189.1ZM128,264c-1.3,1-2.7,2-4,2.9C125.34,266,126.64,265,128,264Zm-28,13.8c-6.7,5.4-13.8,11.2-21.6,15.1A141.61,141.61,0,0,1,100,277.8Zm25.3-23c-4.3,3-8.8,5.7-13.4,8.3,4.9-3.6,9.9-7.1,15.1-10.2l4.5-2.7C129.44,251.9,127.34,253.4,125.34,254.8Zm-64.9,35,10.4-7.4a64,64,0,0,1-10.6,8.2A3.09,3.09,0,0,1,60.44,289.8Zm32.7-31c-4.2,3-8.5,5.9-12.9,8.6-2.3,1.4-4.6,2.7-6.9,4.1,7.6-5.6,15.2-11.3,23.1-16.6,4.3-2.9,8.8-5.6,13.2-8.2-4.3,3.1-8.5,6.3-12.7,9.5C95.64,257,94.34,257.9,93.14,258.8Zm60.2-51.2a12.19,12.19,0,0,0-5.9.9l.3-.3c1.5-1.4-.4-2.5-1.6-2.6a11.92,11.92,0,0,0-8.1,2.2l-1.3.9c1.9-1.4,3.8-2.9,5.7-4.4,1.1-.9,1.9-2.4.1-3.1a8.2,8.2,0,0,0-4.4-.1c.6-.5,1.1-1,1.6-1.5,1-.9,2-2.4.1-3.1-2.5-.9-5.7.1-8,1.3-3.3,1.7-6.6,3.5-9.8,5.3a113.25,113.25,0,0,0,10.6-10.2c1.3-1.5-.3-2.5-1.6-2.6a10.44,10.44,0,0,0-2.5,0,104.66,104.66,0,0,0,11.4-10.7c1.3-1.5-.3-2.4-1.6-2.6a11.64,11.64,0,0,0-8.1,2.2c-10.6,9.2-21.7,18.6-33.2,26.6-2.7,1.7-14.3,8.8-17,10.5,13.3-9.3,35.1-25.9,46.1-38,1.3-1.4-.3-2.5-1.6-2.6a11.56,11.56,0,0,0-3.2.1,15.92,15.92,0,0,0,1.3-2.2c1.2-2.2-4-2-4.8-1.8a8.33,8.33,0,0,0-1.5.4c.6-.6,1.3-1.2,1.9-1.8,1.4-1.4-.4-2.5-1.7-2.6a11.92,11.92,0,0,0-8.1,2.2c-5.6,4-9.5,7.7-15.1,11.7-1.5.9-4.7,2-6.1,2.8-9.4,5.3-18.4,11.2-27.6,16.8l-3.1,1.8.3-.2c19.1-12.3,39.2-23.2,56.6-37.7,1.7-1.5,1.4-3.1-.9-3.4a11.38,11.38,0,0,0-8,2.2,118.2,118.2,0,0,1-10.4,7c2.3-1.7,4.7-3.4,6.9-5.2,1.8-1.4,1.4-3.1-.9-3.4a11.78,11.78,0,0,0-8.1,2.2l-7.8,5.7a47.63,47.63,0,0,0,5-6.6c1-1.6-.1-2.4-1.7-2.6a12.2,12.2,0,0,0-7,1.5c-2.7,1.4-5.4,2.9-8.1,4.4.3-.4.7-.8,1-1.2,2.9-3.7-6.3-2.1-7.3-1.7-9.7,3.4-18.9,8.6-27.5,14.2a152.11,152.11,0,0,0-24.7,19.8c-1.5,1.5.1,2.2,1.6,2.5a60.18,60.18,0,0,0-9.4,8.8c-1.3,1.5.3,2.5,1.6,2.6a12.2,12.2,0,0,0,7-1.5c.6-.3,1.1-.7,1.7-1a83.43,83.43,0,0,0-9,7.9c-1.4,1.4.4,2.5,1.6,2.6a13.06,13.06,0,0,0,7-1.5c1.1-.5,8.2-6,9.3-6.6-4.3,3.7-14.6,12.6-18.6,16.8-1.4,1.4.4,2.5,1.6,2.6a6.69,6.69,0,0,0,2,0c-1.5,1.5-2.9,3.1-4.3,4.7s.3,2.4,1.6,2.6a10.75,10.75,0,0,0,3.1-.1c-1.3.9-2.7,1.8-4,2.8-1.9,1.4-1.3,3.1.9,3.4a11.78,11.78,0,0,0,8.1-2.2l4-2.8c11.9-8.1,24.7-14.7,37.2-21.7-4.6,3.6-9.3,7.2-14,10.6-4.4,2.3-8.9,4.5-13.4,6.6-7,3.3-16.8,7.1-19.9,14.9-1.1,2.8,5.4,1.7,6.3,1.5,2.1-.5,10.9-5.2,12.8-6-2.6,2-12,7.8-14.6,9.7-1.2.9-1.9,2.5-.1,3.1,2.5.9,5.8-.1,8-1.3l.1-.1a58.52,58.52,0,0,0-7.4,8.3c-1.1,1.5.1,2.4,1.6,2.6a12.2,12.2,0,0,0,7-1.5c.9-.5,1.9-1,2.8-1.5-2.4,2.1-4.7,4.2-6.9,6.4-1.4,1.4.4,2.5,1.6,2.6a11.32,11.32,0,0,0,5.4-.8A18.87,18.87,0,0,0,22,282c-.5,2.9,4.9,1.9,6.3,1.5a48.51,48.51,0,0,0,9.2-3.5c-1.8,1.9-3.5,3.9-5.2,6-1.2,1.5.2,2.4,1.7,2.6a11.83,11.83,0,0,0,3.7-.2,10.7,10.7,0,0,0-1.4,1.6c-1.3,1.5.3,2.5,1.7,2.6a11.46,11.46,0,0,0,7-1.5l.5-.3c-1.1,1-2.2,2.1-3.3,3.2-1.4,1.4.4,2.5,1.6,2.6a10.85,10.85,0,0,0,4-.3c.2,0,.5-.1.8-.1l.3,1.2c.7,2.1,4.9,1.2,6.3.8l.7-.2c-1.2,1.5.3,2.4,1.7,2.6a10.45,10.45,0,0,0,2.5,0c-1,1.9,3.8,2.1,4.8,1.9,2.2-.4,4.4-1,6.5-1.6-.6.3-1.2.7-1.8,1-.9.5-3.3,2.1-1.9,3.4s4.3.7,5.9.2,2.9-.8,4.3-1.3c-.8.7-1.3,1.6-.5,2.4,1.8,1.6,5.5.5,7.4-.2,10.6-4.1,21-8.5,30.3-14.4,1.8-.9,3.6-1.9,5.4-2.9,11.1-6.2,22.6-14.7,26.8-27.4.7-2-1.9-2.1-4.5-1.7a45.68,45.68,0,0,0,5.4-6.9c1.1-1.9-.1-2.5-1.9-2.5a32.13,32.13,0,0,0,6.3-9.5c.4-1.1-.7-1.6-1.6-1.8a19.22,19.22,0,0,0,1.6-4.2c.6-2.3-3.6-2-4.8-1.8-.8.1-3.7,5.1-4.5,5.3,1.6-1.7,5.3-8.2,6.8-10,1.2-1.5-.2-2.4-1.6-2.6a6.6,6.6,0,0,0-1.4-.1,40.67,40.67,0,0,0,4.8-6.7c1.3-2.3-3.8-1.8-6.4-1.3,2.9-2,5.7-4.2,8.5-6.5C155.94,209.5,155.74,207.9,153.34,207.6Z"/><path class="cls-2" d="M114.64,264.9c-7.9-13.2-17.6-25.3-26.4-37.8-5.5-7.7-11-15.4-16.4-23.2-2.8-4-6.2-8.1-8.5-12.6a2.22,2.22,0,0,0-2.5-1.2c.1-1.6-2.3-1.3-3.2.5-.4.8-.8,1.7-1.2,2.5a3.74,3.74,0,0,0-.6,1c-.1.3-.2.5-.3.8-10.4,20.8-20.1,39.1-28.4,61.2-1,2.8,2.6,4.2,3.4,2l.4-2.9c5-13.4,10.3-24.9,16-36.6-5.8,16.6-11.4,33.4-17.3,50.1a37.6,37.6,0,0,0,6.1,7.7c8.6-23.9,15.4-49.2,24.2-73.1,1.5,2.1,3,4.1,4.4,6.1,5.4,7.8,10.9,15.5,16.4,23.2,7.8,11,16.3,21.9,23.7,33.4-19,5-38.8,6.8-58.1,10-4,.7-7,8.3-1.2,7.3,11.7-1.9,23.5-3.4,35.3-5.3-10.3,2.4-20.7,4.4-30.7,7.4-.8.2.5,2.2,1.6,2a276.15,276.15,0,0,0,51.8-14.2c2.4-.6,4.8-1.3,7.2-2C112.24,270.7,116.34,267.7,114.64,264.9Z"/><path class="cls-2" d="M65.94,223.3c-.8-.8-2.2-.9-3.8.4-3.2,2.7-3,6.1-2.2,10.1,1.1,5,1.5,10,3.1,14.8,1.2,3.5,5.3,1.9,5.3-.7.2-6.8-.1-15.9-.6-22.7A1.66,1.66,0,0,0,65.94,223.3Z"/><path class="cls-2" d="M63.44,262.3a3.89,3.89,0,0,0,1.1,3.6,4.14,4.14,0,0,0,4.3.2c2.6-1.1,5.7-3.4,6.5-6.5.8-2.8-.7-5.8-3.5-5.5a3.47,3.47,0,0,0-3.4.4A11.36,11.36,0,0,0,63.44,262.3Z"/><path class="cls-2" d="M136.74,278.6A67.13,67.13,0,0,1,111,298.8a62.68,62.68,0,0,1-18.5,5,65.3,65.3,0,0,0,7.6-2A81.56,81.56,0,0,0,136.74,278.6Zm-100,10.2a61,61,0,0,1-9.5-9.5A94.66,94.66,0,0,0,36.74,288.8ZM70.64,168c1.2-.1,2.3-1,2.3-1.8,0-.3-.2-.9-1.4-.9h-.4a65.45,65.45,0,0,0-32.9,12.4c1.3-1,2.6-2,3.9-2.9,11-7.5,24.9-11.6,39.1-11.6a70.32,70.32,0,0,1,27.5,5.5c17.3,7.3,30.6,21.9,37.4,40.8,2.8,10.1,2.6,20.6,1.4,31.2-1.9,16.1-7.4,30.2-18,40.7a76.12,76.12,0,0,1-44.8,21.1,61.81,61.81,0,0,1-12.9.1,60.47,60.47,0,0,1-8.3-2.4c-28.6-10.3-50.2-39.5-50.2-67.7,0-15.3,6.1-30,16.6-42.2C40.84,178,55.34,169.4,70.64,168Zm79.9,40.3c-5.4-19.2-17.5-36.1-34-45.9l-.8-.5c-.2-.1-.5.8-.8.8-1,0-2.8.7-3.1,1.6-.1.2-.1.6.5,1a63.43,63.43,0,0,1,9.1,6.2,74,74,0,0,0-40.7-10.9c-22.6.5-43.2,10.2-56.5,26.5C12.54,201.3,6.64,220.9,8,240.9c1.3,19.8,10.3,38,24.5,49.7A66.64,66.64,0,0,0,70,305.2a71.64,71.64,0,0,0,14.6,1.5,70.11,70.11,0,0,0,36.8-10.4,71,71,0,0,0,33.5-52.6A78.22,78.22,0,0,0,150.54,208.3Z"/><path class="cls-3" d="M110.64,262.9c-7.9-13.2-17.6-25.3-26.4-37.8-5.5-7.7-11-15.4-16.4-23.2-2.8-4-6.2-8.1-8.5-12.6a2.22,2.22,0,0,0-2.5-1.2c.1-1.6-2.3-1.3-3.2.5-.4.8-.8,1.7-1.2,2.5a3.74,3.74,0,0,0-.6,1c-.1.3-.2.5-.3.8-10.4,20.8-21.1,39.1-29.4,61.2-1,2.8,3.6,4.2,4.4,2l.4-2.9c5-13.4,10.3-24.9,16-36.6-5.8,16.6-11.4,33.4-17.3,50.1a27.65,27.65,0,0,0,5.1,6.7c8.6-23.9,16.4-47.2,25.2-71.1,1.5,2.1,3,4.1,4.4,6.1,5.4,7.8,10.9,15.5,16.4,23.2,7.8,11,16.3,20.9,23.7,32.4-19,5-38.8,6.8-58.1,10-4,.7-7,8.3-1.2,7.3,11.7-1.9,31.8-6.1,43.6-8-10.3,2.4-29,7.1-39,10.1-.8.2.5,2.2,1.6,2a276.15,276.15,0,0,0,51.8-14.2c2.4-.6,4.8-1.3,7.2-2C108.24,268.7,112.34,265.7,110.64,262.9Z"/><path class="cls-3" d="M61.94,221.3c-.8-.8-2.2-.9-3.8.4-3.2,2.7-3,6.1-2.2,10.1A147,147,0,0,0,60,246.6c1.2,3.5,4.3,1.9,4.3-.7.2-6.8.9-14.9.4-21.7A3.51,3.51,0,0,0,61.94,221.3Z"/><path class="cls-3" d="M59.44,260.3a3.89,3.89,0,0,0,1.1,3.6,4.14,4.14,0,0,0,4.3.2c2.6-1.1,5.7-3.4,6.5-6.5.8-2.8-.7-5.8-3.5-5.5a3.47,3.47,0,0,0-3.4.4A11.36,11.36,0,0,0,59.44,260.3Z"/><path class="cls-3" d="M162.44,208.3c.2-5-2.4-10.2-7.5-15.3a1.54,1.54,0,0,0-1.3-.9c-.3-.3-1.1-.9-2.8-2.3-.3-.2-.4-.3-.5-.3a17.85,17.85,0,0,0-4.3-1.8,18.13,18.13,0,0,0-3.9-.5,7.08,7.08,0,0,1-1.4-.1,4.71,4.71,0,0,1-1.6-.4,8.45,8.45,0,0,0-1.7-.5,5.93,5.93,0,0,0-5.2,2,11.55,11.55,0,0,0-1.4,1.9c-.2.3-.3.5-.5.8l-.1.1a3.19,3.19,0,0,0-.7.6,18.83,18.83,0,0,0-3.1,4.3,35.29,35.29,0,0,1-2.1,3.2c-.6.7-1.2,1.4-1.7,2.1-1.3,1.6-2.7,3.3-4.1,4.8s-2.8,3-4.2,4.4c-.7.7-1.4,1.5-2.1,2.2l-18.5,19.5a24,24,0,0,0-4.8,6.1,32.08,32.08,0,0,0-2.4,7.6c-.2.7-.3,1.5-.5,2.2l-3.8,15.2c-.5,2-1.2,4.8-.1,6.7a3.64,3.64,0,0,0,1.6,1.4,4.14,4.14,0,0,0,1.6,2.7,3.7,3.7,0,0,0,1.1.5c1.6.5,3.7,0,6.2-.6s5.1-1.1,7.9-1.5c4.7-.8,9.5-1.6,13.7-3.5,2.8-1.2,4.8-4.2,6.6-6.9a33.93,33.93,0,0,1,2-2.8c4.4-5.4,9-10.8,13.5-16l1.1-1.3a26.46,26.46,0,0,1,2.9-2.9l.4-.4a7.83,7.83,0,0,0,1.8-2.5,6.71,6.71,0,0,1,.9-1.4,80.32,80.32,0,0,1,6.3-7.1,84.16,84.16,0,0,0,6.3-7.1c.3-.4.6-.7.9-1.1C159.64,216.2,162.34,212.8,162.44,208.3Z"/><path class="cls-3" d="M112.24,255.3c-.8.3-1.6.7-2.5,1l-.1-.1c.5-.6,1-1.1,1.5-1.7,1.1-1.3.5-4.3-1.4-2.6-.1.1-.3.2-.4.3l.1-.1c1.3-1.8,0-4.4-1.8-2.2-.4.4-.7.9-1.1,1.3a.1.1,0,0,0-.1-.1c.8-1.3,1.6-2.6,2.4-4,1.1-1.9-.5-3.5-2.1-1.7-.8,1-1.6,1.9-2.4,2.9a2.18,2.18,0,0,0-.4-.5,19.68,19.68,0,0,0,.6-3.5c.3-2.3-2-1.5-2.7-.2.1-1.8-1.8-1-2.6.1.1-.9.2-1.9.3-2.8.2-2.9-2.7-.8-3,.9a90.31,90.31,0,0,1-4.8,16.1c-1,2.7,2,2.2,2.8.1.1-.2.1-.4.2-.5-.2,1.6-.5,3.2-.7,4.8-.4,2.3,1.7,1.4,2.6.1a1.06,1.06,0,0,0,.9-.5c-.4,1.2-.1,2.9,1.5,2.1a23.92,23.92,0,0,0,2.1-1.3,1.49,1.49,0,0,0,.6-.1c1.5-.6,2.9-1.2,4.4-1.7a.8.8,0,0,0,1.2.8l1.8-.6a2.89,2.89,0,0,0,1.6-1.8c.4-.3.9-.5,1.4-.8C113.34,258.4,114.24,254.5,112.24,255.3Z"/><path class="cls-4" d="M153.14,205.5v-3.4c0-1.3-1-1.2-1.7-.7a15.26,15.26,0,0,0-.3-3c-.1-1.1-.7-1.2-1.4-.9-.3-1.3-2.6-.2-3,1.2-.3,1-.5,1.9-.8,2.9.4-2.1.8-4.2,1.3-6.4s-1.8-1.5-2.6-.2c.1-.6.3-1.2.4-1.8.6-2.8-2.2-2.3-2.8-.1v.2c-.1-1.7-2.4-1.1-2.9.8-.7,2.4-1.3,4.8-2,7.2-1.1,3.6-2.4,7.2-3.8,10.7a68.45,68.45,0,0,0,3.1-21.2c-.1-2.3-2.6-.2-2.9.9-1.3,4.1-2.5,8.2-3.8,12.4-.3-1.4-2.4-.8-2.9,1-2.5,8.9-5.2,17.6-8.1,26.3,1.6-6.8,4.2-17.6,5.8-24.4.7-2.8-3.1,1.7-3.8,3.9-.6,1.6-1.1,3.2-1.6,4.9-.6-.1-1.3.3-1.8,1.3-.6,1.3-1.1,2.5-1.7,3.8-.2-1.4-2-1.4-2.7.3-.9,2.2-1.9,4.4-2.8,6.6a22.85,22.85,0,0,0,0-3.7c-.1-2-2.2-.7-2.7.3s-1,2.1-1.5,3.1a2.33,2.33,0,0,0-1.2,1.2c-1.5,3.6-2.9,7.1-4.4,10.7-1,2.4,1.4,3.7,2.4,1.2h0v.4c-.1,1.4.6,1.7,1.4,1.3-.1,1.7,1.8,2.3,2.6.2.7-1.8,3.4-12.2,4.2-14-.5,2.6-2.8,14-3.1,16.6-.2,1.7,1,1.7,1.9,1.1-.4,1.4-.7,2.9-1.1,4.3-.7,2.6,1.9,2.4,2.7.5a28.64,28.64,0,0,1-.7,2.8c-.7,2.8,2,2.2,2.8.1l2.7-7.2-2.7,10.5c-.7,2.8,2.2,2.3,2.8.1,1.6-5.3,3.3-10.7,4.9-16-.6,2.4-1.2,4.9-1.6,7.3s2.5,1.3,2.9-.4c.3-1,.6-2.1.9-3.1.3,1.2,2,1,2.7-.5,1.1-2,2.1-4,3.1-6,.6.7,2.8.4,3.5-.9,2.9-6.1,4.5-12.3,6.8-18.6-1,4.8-1.9,9.7-2.9,14.5-.5,2.6,2.4,1.1,2.9-.4,1.2-3.2,2.3-6.3,3.3-9.5.6.3,1.7-.3,2.2-1.2,1.4-2.6,1.7-6.9,2.5-9.7.6-.2,2.1.8,2.4.2v2.5c0,2.1,2.2.6,2.7-.3a22.86,22.86,0,0,0,2.9-9.5C156,203.5,154,204.1,153.14,205.5Zm-20.6-.7c-1.7,9.1-5.1,17.8-8.1,26.7Z"/><path class="cls-5" d="M151.54,195.3c-5.8-5.4-13-6.1-19.6-1.6a3.31,3.31,0,0,0-1.1,2.6c-3.2,3.9-31.3,33.4-36.1,38.5-2.5,2.6-3,3.9-3.9,7.5-1.8,7.4-3.7,15.8-5.5,23.2-.3,1.4,1.1,1.2,1.4.1,1.5-6.2,3.1-12.4,4.6-18.6.6-2.4,1-5.1,1.8-7.5l.1-.1c.5-.6,1-1.1,1.5-1.6l11.5-12.1c-3.6,4.3-7.3,8.5-10.9,12.8l-.1.1a2.12,2.12,0,0,0-1.7,1.8c-1.9,9-3.9,18-5.8,26.9-.6,1.3.4,3,1.8,2.5,8.2-2.5,15.8-3.4,24-5.9a1.89,1.89,0,0,0,1-.8,2.07,2.07,0,0,0,.6-1c-.2.6.3-.3.5-.7.5-.7,1-1.4,1.6-2.1,1.5-2,3.1-3.9,4.7-5.9,4.5-5.5,9.2-10.9,13.8-16.3,7.3-8.5,15.7-16.8,21.8-26.1a3,3,0,0,0,.4-1.1c0-.1.1-.2.1-.3C159.34,204.4,155,198.6,151.54,195.3Zm-18.4,2.6a4.05,4.05,0,0,0,.5-.9c.3-.3.6-.7.9-1,4.6-2.2,9.4-1.5,13.5,1.8a513.87,513.87,0,0,0-38.4,46.2c-2.8-2.9-5.3-5-9.1-6C111.84,224.7,122.14,211.4,133.14,197.9Zm-41.9,67c.1.1.1.2.2.3a.37.37,0,0,0-.3.1C91.14,265.2,91.24,265.1,91.24,264.9Zm21.9-4.6c-4.4,1.3-9,2.1-13.5,3.1a8.74,8.74,0,0,0-6.8-5.9c1.2-5.4,2.3-10.7,3.5-16.1a.1.1,0,0,0,.1-.1,1,1,0,0,0,.7.4C105.24,243.4,113.14,251.7,113.14,260.3Zm42.3-50.9v.2c-6.5,9.6-15.1,18.1-22.6,26.9-4.6,5.4-9.2,10.8-13.7,16.3-.9,1.1-2.1,2.4-3.1,3.6-.5-3.7-2.1-6.3-4.5-9.3,11.9-16.2,25.8-33.8,39.6-48.4C153.44,201.1,156,206.6,155.44,209.4Z"/><path class="cls-4" d="M93.14,257.2c.9,0,1.9-2,.9-2s-1.9,2-.9,2Z"/><path class="cls-5" d="M92.54,255.8c5.3.2,6.1,6.2,6.4,10.3.1,1.3,1.6-.1,1.5-.9-.3-4.7-1.4-11.2-7.3-11.4-.8-.1-1.6,2-.6,2Z"/><path class="cls-1" d="M103.69,447.65c4.6-2.9,27.1-23,31.5-26.1-2.3,2.2-22.8,21.3-25.5,23.1Q106.69,446.3,103.69,447.65Zm-35.3-114.9c-6.8,5.8-15.6,10.1-23.2,14.6l-3.3,1.9C50.39,343.65,59.79,338.15,68.39,332.75Zm-4.5-6.4c-4,3-19.6,11.6-23.9,14.2l6-4.2C48.19,334.95,61.69,327.75,63.89,326.35ZM97.49,345c2.3-1.9,4.6-3.7,7-5.4A72.5,72.5,0,0,1,97.49,345ZM128,420c-1.3,1-2.7,2-4,2.9C125.29,421.95,126.59,420.95,128,420Zm-28,13.7c-6.7,5.4-22.7,18.2-30.5,22.1C76.19,450.25,92.39,438.25,100,433.75Zm25.3-22.9c-4.3,3-8.8,5.7-13.4,8.4,4.9-3.6,9.9-7.1,15.1-10.2l4.5-2.7C129.39,407.95,127.29,409.35,125.29,410.85Zm-67.9,38.7c3.5-2.5,9.9-8.6,13.3-11.1-3.3,3-9.5,10-13.3,12.2A4.05,4.05,0,0,0,57.39,449.55Zm35.7-34.8c-4.2,3-8.5,5.9-12.9,8.6-2.3,1.4-4.6,2.7-6.9,4.1,7.6-5.7,15.2-11.3,23.1-16.6,4.3-2.9,8.8-5.6,13.2-8.2-4.3,3.1-8.5,6.3-12.8,9.5C95.59,412.95,94.29,413.85,93.09,414.75Zm60.2-51.1a12.19,12.19,0,0,0-5.9.9l.3-.3c1.5-1.4-.4-2.5-1.6-2.6a11.92,11.92,0,0,0-8.1,2.2l-1.3.9c1.9-1.4,3.8-2.9,5.7-4.4,1.1-.9,1.9-2.4.1-3.1a8.2,8.2,0,0,0-4.4-.1c.6-.5,1.1-1,1.6-1.5,1-.9,2-2.4.1-3.1-2.5-.9-5.7.1-8,1.3-3.3,1.7-6.6,3.5-9.8,5.3a113.25,113.25,0,0,0,10.6-10.2c1.3-1.5-.3-2.5-1.6-2.6a10.44,10.44,0,0,0-2.5,0,104.65,104.65,0,0,0,11.4-10.7c1.3-1.5-.3-2.4-1.6-2.6-2.6-.3-6.3-1-8.3.7-10.6,9.2-20.9,18.4-32.4,26.4-2.7,1.7-14.9,10.5-17.5,12.2,13.3-9.3,35.1-25.9,46.1-38,1.3-1.5-.3-2.5-1.6-2.6a11.56,11.56,0,0,0-3.2.1,15.92,15.92,0,0,0,1.3-2.2c1.2-2.2-4-2-4.8-1.8a8.33,8.33,0,0,0-1.5.4c.7-.6,1.3-1.2,1.9-1.8,1.4-1.4-.4-2.5-1.6-2.6a11.92,11.92,0,0,0-8.1,2.2c-5.6,4-9.5,7.7-15.1,11.7-1.5.9-4.7,2-6.1,2.8-9.4,5.3-18.4,11.2-27.6,16.8l-3.1,1.8.3-.2c19.1-12.3,39.2-23.2,56.6-37.7,1.7-1.4,1.4-3-.9-3.4a11.78,11.78,0,0,0-8.1,2.2,118.2,118.2,0,0,1-10.4,7c2.3-1.7,4.7-3.4,6.9-5.2,1.8-1.4,1.4-3.1-.9-3.4a12.32,12.32,0,0,0-8.1,2.2l-7.8,5.7a47.63,47.63,0,0,0,5-6.6c1-1.6-.1-2.4-1.7-2.6a12.2,12.2,0,0,0-7,1.5c-2.7,1.4-5.4,2.9-8.1,4.4.3-.4.7-.8,1-1.2,2.9-3.7-6.3-2.1-7.3-1.7-9.7,3.4-18.9,8.6-27.5,14.2A152.11,152.11,0,0,0,14,354.15c-1.5,1.5.1,2.2,1.6,2.5a65,65,0,0,0-9.4,8.8c-1.3,1.5.3,2.5,1.6,2.6a12.2,12.2,0,0,0,7-1.5c.6-.3,1.1-.7,1.7-1a74.85,74.85,0,0,0-9,7.9c-1.4,1.4.4,2.5,1.6,2.6a13.26,13.26,0,0,0,7-1.5c1.1-.5,8.2-6,9.3-6.6-4.3,3.7-14.6,12.6-18.6,16.8-1.4,1.4.4,2.5,1.6,2.6a6.69,6.69,0,0,0,2,0c-1.5,1.5-2.9,3.1-4.3,4.7s.3,2.4,1.6,2.6a10.75,10.75,0,0,0,3.1-.1c-1.3.9-2.7,1.8-4,2.8-1.9,1.4-1.3,3.1.9,3.4a11.78,11.78,0,0,0,8.1-2.2l4-2.8c11.9-8.1,24.7-14.7,37.2-21.7-4.6,3.6-9.3,7.2-14,10.6-4.4,2.3-8.9,4.5-13.4,6.6-7,3.3-16.8,7.1-19.9,14.9-1.1,2.8,5.4,1.7,6.3,1.5,2.1-.5,10.9-5.2,12.8-6-2.6,1.9-12,7.8-14.6,9.7-1.2.9-1.9,2.5-.1,3.1,2.5.9,5.8-.1,8-1.3l.1-.1a58.52,58.52,0,0,0-7.4,8.3c-1.1,1.5.1,2.4,1.7,2.6a12.2,12.2,0,0,0,7-1.5c.9-.5,1.9-1,2.8-1.5-2.3,2.1-4.6,4.2-6.9,6.4-1.4,1.4.4,2.5,1.6,2.6a11.15,11.15,0,0,0,5.4-.8,17.9,17.9,0,0,0-4.1,8.8c-.5,2.9,4.9,1.9,6.3,1.5a48.51,48.51,0,0,0,9.2-3.5c-1.8,1.9-3.5,3.9-5.2,6-1.2,1.5.2,2.5,1.7,2.6a11.83,11.83,0,0,0,3.7-.2,10.7,10.7,0,0,0-1.4,1.6c-1.3,1.5.3,2.5,1.7,2.6a11.46,11.46,0,0,0,7-1.5l.5-.3c-1.1,1-2.2,2.1-3.3,3.2-1.4,1.4.4,2.5,1.7,2.6a10.85,10.85,0,0,0,4-.3c.2,0,.5-.1.8-.1l.3,1.2c.7,2.1,4.9,1.2,6.3.8l.7-.2c-1.2,1.5.3,2.4,1.7,2.6a10.45,10.45,0,0,0,2.5,0c-1,1.9,3.8,2.1,4.8,2,2.2-.4,4.4-1,6.5-1.6-.6.3-1.2.7-1.8,1-.9.5-3.3,2.1-1.9,3.4s4.3.7,5.9.2,2.9-.8,4.3-1.3c-.8.7-1.3,1.6-.5,2.4,1.8,1.6,5.5.5,7.4-.2,10.6-4.1,21-8.5,30.3-14.4,1.8-.9,3.6-1.9,5.4-2.9,11.1-6.2,22.6-14.7,26.8-27.4.7-2-1.9-2.1-4.5-1.7a45.68,45.68,0,0,0,5.4-6.9c1.1-1.9-.1-2.5-1.9-2.5a32.13,32.13,0,0,0,6.3-9.5c.4-1.1-.7-1.6-1.6-1.8a19.22,19.22,0,0,0,1.6-4.2c.6-2.3-3.6-2-4.8-1.8-.8.1-3.7,5.1-4.5,5.3,1.6-1.7,5.3-8.2,6.8-10,1.2-1.5-.2-2.4-1.6-2.6a6.6,6.6,0,0,0-1.4-.1,40.67,40.67,0,0,0,4.8-6.7c1.3-2.3-3.8-1.8-6.4-1.3,2.9-2,5.7-4.2,8.5-6.5C155.89,365.55,155.69,363.95,153.29,363.65Z"/><path class="cls-2" d="M114.59,420.85c-7.9-13.2-16.6-25.3-25.4-37.8-5.5-7.7-11-15.4-16.4-23.2-2.8-4-7.2-8.1-9.5-12.6a2.22,2.22,0,0,0-2.5-1.2c.1-1.6-2.3-1.3-3.2.5-.4.8-.8,1.7-1.2,2.5a3.74,3.74,0,0,0-.6,1c-.1.3-.2.5-.3.8-10.3,20.8-20,39.2-28.3,61.2-1,2.8,2.6,4.2,3.4,2l.4-2.9c5-13.4,10.3-24.9,16-36.6-5.8,16.6-11.4,33.4-17.3,50.1a37.6,37.6,0,0,0,6.1,7.7c8.6-23.9,15.4-49.2,24.2-73.1,1.5,2.1,3,4.1,4.4,6.1,5.4,7.8,10.9,15.5,16.4,23.2,7.8,11,16.3,21.9,23.7,33.4-19,5-38.8,6.8-58.1,10-4,.7-7,8.3-1.2,7.3,11.7-1.9,23.5-3.4,35.3-5.3-10.3,2.4-20.7,4.4-30.7,7.4-.8.2.5,2.2,1.6,2a296.23,296.23,0,0,0,53.8-14.2c2.4-.6,4.8-1.3,7.2-2A4.32,4.32,0,0,0,114.59,420.85Z"/><path class="cls-2" d="M65.89,379.35c-.8-.8-2.2-.9-3.8.4-3.2,2.7-3,6.1-2.2,10.1,1.1,5,1.5,10,3.1,14.8,1.2,3.5,5.3,1.9,5.3-.7.2-6.8-.1-15.9-.6-22.7C67.69,379.85,66.89,379.25,65.89,379.35Z"/><path class="cls-2" d="M63.39,418.35a3.89,3.89,0,0,0,1.1,3.6,4.14,4.14,0,0,0,4.3.2c2.6-1.1,5.7-3.4,6.5-6.5.8-2.8-.7-5.8-3.5-5.5a3.47,3.47,0,0,0-3.4.4A11,11,0,0,0,63.39,418.35Z"/><path class="cls-2" d="M136.69,434.55a67.89,67.89,0,0,1-25.7,20.2,62.68,62.68,0,0,1-18.5,5,65.3,65.3,0,0,0,7.6-2A81.56,81.56,0,0,0,136.69,434.55Zm-100,10.2a61,61,0,0,1-9.5-9.5A85.22,85.22,0,0,0,36.69,444.75ZM71.19,325c1.2-.1,1.8-2,1.7-2.8,0-.3-.2-.9-1.4-.9h-.4a65.45,65.45,0,0,0-32.9,12.4c1.3-1,2.6-2,3.9-2.9,11-7.5,24.9-11.6,39.1-11.6a71.18,71.18,0,0,1,27.6,5.5c17.3,7.4,29.5,22.1,36.4,41.1a80.42,80.42,0,0,1,2.4,30.9c-1.9,16.1-7.4,30.2-18,40.7a76.12,76.12,0,0,1-44.8,21.1,61.81,61.81,0,0,1-12.9.1,60.47,60.47,0,0,1-8.3-2.4c-28.6-10.3-50.2-39.5-50.2-67.7,0-15.3,5.3-28.2,15.9-40.3C40.09,335.75,55.79,326.35,71.19,325Zm79.4,39.2c-5.4-19.2-17.5-36.1-34-45.9l-.8-.5c-.2-.1-.5.8-.8.8-1,0-2.8.7-3.1,1.6-.1.2-.1.6.5,1a63.42,63.42,0,0,1,9.1,6.2,74,74,0,0,0-40.7-10.9c-22.6.6-43.2,10.3-56.6,26.6-11.7,14.2-17.6,33.8-16.2,53.8,1.3,19.8,10.3,38,24.5,49.7,10.2,8.4,22.7,15,37,16.1,4.8,1,10.2,0,15.1,0a70.11,70.11,0,0,0,36.8-10.4,71,71,0,0,0,33.5-52.6A79.82,79.82,0,0,0,150.59,364.25Z"/><path class="cls-3" d="M110.59,418.85c-7.9-13.2-17.6-25.3-26.4-37.8-5.5-7.7-11-15.4-16.4-23.2-2.8-4-6.2-8.1-8.5-12.6a2.22,2.22,0,0,0-2.5-1.2c.1-1.6-2.3-1.3-3.2.5-.4.8-.8,1.7-1.2,2.5a3.74,3.74,0,0,0-.6,1c-.1.3-1.6,1.3-1.7,1.5-10.4,20.8-19.7,38.4-28,60.4-1,2.8,3.6,4.2,4.4,2l.4-2.9c5-13.4,15-36.4,20.7-48-5.8,16.6-16.1,44.8-22,61.5a27.65,27.65,0,0,0,5.1,6.7c8.6-23.9,16.4-47.2,25.2-71.1,1.5,2.1,3,4.1,4.4,6.1,5.4,7.8,10.9,15.5,16.4,23.2,7.8,11,16.3,20.9,23.7,32.4-19,5-38.8,6.8-58.1,10-4,.7-7,8.3-1.2,7.3,11.7-1.9,31.8-6.1,43.6-8-10.3,2.4-29,7.1-39,10.1-.8.2.5,2.2,1.6,2A276.15,276.15,0,0,0,99.09,427c2.4-.6,4.8-1.3,7.2-2C108.19,424.65,112.39,421.65,110.59,418.85Z"/><path class="cls-3" d="M61.89,377.35c-.8-.8-2.2-.9-3.8.4-3.2,2.7-3,6.1-2.2,10.1,1.1,5,1.5,10,3.1,14.8,1.2,3.5,5.3,1.9,5.3-.7.2-6.8.9-14.9.4-21.7C64.69,378.85,62.89,377.25,61.89,377.35Z"/><path class="cls-3" d="M59.39,415.35a3.89,3.89,0,0,0,1.1,3.6c1.2,1,2.9,1.8,4.3,1.2,2.6-1.1,5.7-3.4,6.5-6.5.8-2.8-.7-5.8-3.5-5.5a3.47,3.47,0,0,0-3.4.4C61.89,410.25,59.79,411.85,59.39,415.35Z"/><path class="cls-3" d="M162.39,364.35c.2-5-2.4-10.2-7.5-15.3a1.54,1.54,0,0,0-1.3-.9c-.3-.3-1.1-.9-2.8-2.3-.3-.2-.4-.3-.5-.3a17.85,17.85,0,0,0-4.3-1.8,18.13,18.13,0,0,0-3.9-.5,7.08,7.08,0,0,1-1.4-.1,4.71,4.71,0,0,1-1.6-.4,8.45,8.45,0,0,0-1.7-.5,5.93,5.93,0,0,0-5.2,2,11.54,11.54,0,0,0-1.4,1.9c-.2.3-.3.5-.5.8l-.1.1a3.19,3.19,0,0,0-.7.6,18.83,18.83,0,0,0-3.1,4.3,35.29,35.29,0,0,1-2.1,3.2c-.6.7-1.2,1.4-1.7,2.1-1.3,1.6-2.7,3.3-4.1,4.8s-2.8,3-4.2,4.4c-.7.7-1.4,1.5-2.1,2.2l-18.5,19.5a24,24,0,0,0-4.8,6.1,32.08,32.08,0,0,0-2.4,7.6c-.2.7-.3,1.5-.5,2.2l-3.8,15.2c-.5,2-1.2,4.8-.1,6.7a3.64,3.64,0,0,0,1.6,1.4,4.14,4.14,0,0,0,1.6,2.7,3.7,3.7,0,0,0,1.1.5c1.6.5,3.7,0,6.2-.6s5.1-1.1,7.9-1.5c4.7-.8,9.5-1.6,13.7-3.5,2.8-1.2,4.8-4.2,6.6-6.9a33.93,33.93,0,0,1,2-2.8c4.4-5.4,9-10.8,13.5-16l1.1-1.3a26.46,26.46,0,0,1,2.9-2.9l.4-.4a7.83,7.83,0,0,0,1.8-2.5,6.71,6.71,0,0,1,.9-1.4,80.32,80.32,0,0,1,6.3-7.1,84.16,84.16,0,0,0,6.3-7.1c.3-.4.6-.7.9-1.1C159.59,372.15,162.29,368.75,162.39,364.35Z"/><path class="cls-3" d="M112.19,411.25c-.8.3-1.6.7-2.5,1l-.1-.1c.5-.6,1-1.1,1.5-1.7,1.1-1.3.5-4.3-1.4-2.6-.1.1-.3.2-.4.3l.1-.1c1.3-1.8,0-4.4-1.8-2.2-.4.4-.7.9-1.1,1.3a.1.1,0,0,0-.1-.1c.8-1.3,1.6-2.6,2.4-4,1.1-1.9-.5-3.5-2.1-1.7-.8,1-1.6,1.9-2.4,2.9a2.18,2.18,0,0,0-.4-.5,19.68,19.68,0,0,0,.6-3.5c.3-2.3-2-1.5-2.7-.2.1-1.8-1.8-1-2.6.1.1-.9.2-1.9.3-2.8.2-2.9-2.7-.8-3,.9a90.31,90.31,0,0,1-4.8,16.1c-1,2.7,2,2.2,2.8.1.1-.2.1-.4.2-.5-.2,1.6-.5,3.2-.7,4.8-.4,2.3,1.7,1.4,2.6.1a1.06,1.06,0,0,0,.9-.5c-.4,1.2-.1,2.9,1.5,2.1a23.92,23.92,0,0,0,2.1-1.3,1.49,1.49,0,0,0,.6-.1c1.5-.6,2.9-1.2,4.4-1.7a.8.8,0,0,0,1.2.8l1.8-.6a2.89,2.89,0,0,0,1.6-1.8c.4-.3.9-.5,1.4-.8C113.29,414.35,114.19,410.45,112.19,411.25Z"/><path class="cls-4" d="M152.59,364.75c0-1.1.6-5.6.6-6.7,0-1.3-1-1.2-1.7-.7a15.26,15.26,0,0,0-.3-3c-.1-1.1-.7-1.2-1.4-.9-.3-1.3-2.6-.2-3,1.2-.3,1-.5,1.9-.8,2.9.4-2.1.8-4.2,1.3-6.4s-1.8-1.5-2.6-.2c.1-.6.3-1.2.4-1.8.6-2.8-2.2-2.3-2.8-.1v.2c-.1-1.7-3.1-1.8-3.6.2-.7,2.4-.7,3.4-1.4,5.8-1.1,3.6-2.3,9.3-3.7,12.8a68.45,68.45,0,0,0,3.1-21.2c-.1-2.3-2.6-.2-2.9.9-1.3,4.1-2.5,8.2-3.8,12.4-.3-1.4-2.9-.8-3.4,1-2.5,8.9-4.6,17.6-7.6,26.3,1.6-6.8,4.2-17.6,5.8-24.4.7-2.8-3.1,1.7-3.8,3.9-.6,1.6-1.1,3.2-1.6,4.9-.6-.1-1.3.3-1.8,1.3-.6,1.3-1.1,2.5-1.7,3.8-.2-1.4-2-1.4-2.7.3-.9,2.2-1.9,4.4-2.8,6.6a22.85,22.85,0,0,0,0-3.7c-.1-2-2.2-.7-2.7.3s-1,2.1-1.5,3.1a2.33,2.33,0,0,0-1.2,1.2c-1.5,3.6-2.9,7.1-4.4,10.7-1,2.4,1.4,3.7,2.4,1.2h0v.4c-.1,1.4.6,1.7,1.4,1.3-.1,1.7,1.8,2.3,2.6.2.7-1.8,3.4-12.2,4.2-14-.5,2.6-2.8,14-3.1,16.6-.2,1.7,1,1.7,1.9,1.1-.4,1.4-.7,2.9-1.1,4.3-.7,2.6,1.9,2.4,2.7.5a28.64,28.64,0,0,1-.7,2.8c-.7,2.8,2,2.2,2.8.1l2.7-7.2-2.7,10.5c-.7,2.8,2.2,2.3,2.8.1,1.6-5.3,3.3-10.7,4.9-16-.6,2.4-1.2,4.9-1.6,7.3s2.5,1.3,2.9-.4c.3-1,.6-2.1.9-3.1.3,1.2,2,1,2.7-.5,1.1-2,2.1-4,3.1-6,.6.7,2.8.4,3.5-.9,2.9-6.1,4.5-12.3,6.8-18.6-1,4.8-1.9,9.7-2.9,14.5-.5,2.6,2.4,1.1,2.9-.4,1.2-3.2,2.3-6.3,3.3-9.5.6.3,1.7-.3,2.2-1.2a57,57,0,0,0,3.7-9.7c.6-.2,1.6-3.2,1.9-3.9,0,.8-.7,5.7-.7,6.5,0,2.1,2.2.6,2.7-.3a22.86,22.86,0,0,0,2.9-9.5C156,359.45,153.49,363.45,152.59,364.75Zm-22.2,0a141.11,141.11,0,0,1-6.1,22.7C127.09,378.55,127.69,373.65,130.39,364.75Z"/><path class="cls-5" d="M151.59,351.35c-5.8-5.4-13-6.1-19.6-1.6-.7.5-1.6,1-1.6,1.9-3.2,3.9-30.8,34.1-35.6,39.1-2.5,2.6-3,3.9-3.9,7.5-1.8,7.4-4.7,15.8-6.5,23.2-.3,1.4,1.8.5,2.1-.6,1.5-6.2,3.5-13.3,5-19.5a44.25,44.25,0,0,1,1.8-5.9l.1-.1c.5-.6,1-1.1,1.5-1.6l11.5-12.1c-3.6,4.3-7.3,8.5-10.9,12.8l-.1.1a2.12,2.12,0,0,0-1.7,1.8c-1.9,9-3.9,18-5.8,26.9-.6,1.3.4,3,1.8,2.5,8.2-2.5,15.8-3.4,24-5.9a1.89,1.89,0,0,0,1-.8,2.07,2.07,0,0,0,.6-1c-.2.6.3-.3.5-.7.5-.7,1-1.4,1.6-2.1,1.5-2,3.1-3.9,4.7-5.9,4.5-5.5,9.2-10.9,13.8-16.3,7.3-8.5,16.7-16.8,22.8-26.1.2-.4-.6-.8-.6-1.1,0-.1.1-.2.1-.3C159.29,360.45,155,354.55,151.59,351.35Zm-18.5,2.5a4.05,4.05,0,0,0,.5-.9c.3-.3.6-.7.9-1,4.6-2.2,9.4-1.5,13.5,1.8a513.87,513.87,0,0,0-38.4,46.2c-2.8-2.9-5.3-5-9.1-6C111.89,380.75,122.09,367.35,133.09,353.85Zm-41.9,67.1c.1.1.1.2.2.3a.37.37,0,0,0-.3.1A.76.76,0,0,0,91.19,420.95Zm21.9-4.7c-4.4,1.3-9,2.1-13.5,3.1a8.74,8.74,0,0,0-6.8-5.9c1.2-5.4,2.3-10.7,3.5-16.1a.1.1,0,0,0,.1-.1,1,1,0,0,0,.7.4C105.19,399.35,113.09,407.75,113.09,416.25Zm42.3-50.9v.2c-6.5,9.6-15.1,18.1-22.6,26.9-4.6,5.4-9.2,10.8-13.7,16.3-.9,1.1-2.1,2.4-3.1,3.6-.5-3.7-2.1-6.3-4.5-9.3,11.9-16.2,25.8-33.8,39.6-48.4C153.39,357.15,156,362.55,155.39,365.35Z"/><path class="cls-4" d="M93.09,413.15c.9,0,1.9-2,.9-2s-1.9,2-.9,2Z"/><path class="cls-5" d="M92.49,411.75c5.3.2,6.1,6.2,6.4,10.3.1,1.3,1.6-.1,1.5-.9-.3-4.7-1-12.6-6.9-12.8-.8,0-2,3.4-1,3.4Z"/><path class="cls-1" d="M103.69,603.26c4.6-2.9,27.1-23,31.5-26.1-2.3,2.2-22.8,21.3-25.5,23.1Q106.69,601.91,103.69,603.26Zm-35.3-114.8c-6.8,5.8-15.6,10.1-23.2,14.6l-3.3,1.9C50.39,499.26,59.79,493.76,68.39,488.46Zm-4.5-6.4c-4,3.1-19.6,11.6-23.9,14.2,2-1.5,4-2.8,6-4.2C48.19,490.66,61.69,483.36,63.89,482.06Zm33.6,18.6c2.3-1.9,4.6-3.7,7-5.4A59.44,59.44,0,0,1,97.49,500.66Zm30.5,75c-1.3,1-2.7,2-4,2.9C125.29,577.56,126.59,576.66,128,575.66Zm-28,13.7c-6.7,5.4-22.7,18.2-30.5,22.1C76.19,605.86,92.39,593.86,100,589.36Zm25.3-22.9c-4.3,3-8.8,5.7-13.4,8.3,4.9-3.6,9.9-7.1,15.1-10.2l4.5-2.7C129.39,563.56,127.29,565.06,125.29,566.46Zm-67.9,38.7c3.5-2.4,9.9-8.6,13.3-11.1-3.3,3-9.5,10-13.3,12.2A4.05,4.05,0,0,0,57.39,605.16Zm35.7-34.8c-4.2,3-8.5,5.9-12.9,8.6-2.3,1.4-4.6,2.7-6.9,4.1,7.6-5.6,15.2-11.3,23.1-16.6,4.3-2.9,8.8-5.6,13.2-8.2-4.3,3.1-8.5,6.3-12.8,9.5C95.59,568.56,94.29,569.46,93.09,570.36Zm60.2-51.1a12.19,12.19,0,0,0-5.9.9l.3-.3c1.5-1.4-.4-2.5-1.6-2.6a11.92,11.92,0,0,0-8.1,2.2l-1.3.9c1.9-1.5,3.8-2.9,5.7-4.4,1.1-.9,1.9-2.4.1-3.1a8.2,8.2,0,0,0-4.4-.1c.6-.5,1.1-1,1.6-1.5,1-.9,2-2.4.1-3.1-2.5-.9-5.7.1-8,1.3-3.3,1.7-6.6,3.5-9.8,5.3a113.25,113.25,0,0,0,10.6-10.2c1.3-1.5-.3-2.5-1.6-2.6a10.45,10.45,0,0,0-2.5,0,104.65,104.65,0,0,0,11.4-10.7c1.3-1.5-.3-2.5-1.6-2.6-2.6-.3-6.3-1-8.3.7-10.6,9.2-20.9,18.4-32.4,26.4-2.7,1.7-14.9,10.5-17.5,12.2,13.3-9.3,35.1-25.9,46.1-38,1.3-1.5-.3-2.5-1.6-2.6a11.57,11.57,0,0,0-3.2.1,15.92,15.92,0,0,0,1.3-2.2c1.2-2.2-4-2-4.8-1.8a8.33,8.33,0,0,0-1.5.4c.7-.6,1.3-1.2,1.9-1.8,1.4-1.4-.4-2.5-1.6-2.6a11.92,11.92,0,0,0-8.1,2.2c-5.6,4-9.5,7.7-15.1,11.7-1.5.9-4.7,2-6.1,2.8-9.4,5.3-18.4,11.2-27.6,16.8l-3.1,1.8.3-.2c19.1-12.3,39.2-23.2,56.6-37.7,1.7-1.4,1.4-3-.9-3.4a11.78,11.78,0,0,0-8.1,2.2,118.19,118.19,0,0,1-10.4,7c2.3-1.7,4.7-3.4,6.9-5.2,1.8-1.4,1.4-3.1-.9-3.4a12.32,12.32,0,0,0-8.1,2.2l-7.8,5.7a47.63,47.63,0,0,0,5-6.6c1-1.6-.1-2.4-1.7-2.6a12.2,12.2,0,0,0-7,1.5c-2.7,1.4-5.4,2.9-8.1,4.4.3-.4.7-.8,1-1.2,2.9-3.7-6.3-2.1-7.3-1.7A125.77,125.77,0,0,0,38.69,490,152.11,152.11,0,0,0,14,509.76c-1.5,1.5.1,2.2,1.6,2.5a71,71,0,0,0-9.4,8.8c-1.3,1.5.3,2.5,1.6,2.6a12.2,12.2,0,0,0,7-1.5c.6-.3,1.1-.7,1.7-1a74.85,74.85,0,0,0-9,7.9c-1.4,1.4.4,2.5,1.6,2.6a13.26,13.26,0,0,0,7-1.5c1.1-.5,8.2-6,9.3-6.6-4.3,3.7-14.6,12.6-18.6,16.8-1.4,1.4.4,2.5,1.6,2.6a6.7,6.7,0,0,0,2,0c-1.5,1.5-2.9,3.1-4.3,4.7s.3,2.5,1.6,2.6a10.75,10.75,0,0,0,3.1-.1c-1.3.9-2.7,1.8-4,2.8-1.9,1.4-1.3,3.1.9,3.3a11.78,11.78,0,0,0,8.1-2.2l4-2.8c11.9-8.1,24.7-14.7,37.2-21.7-4.6,3.6-9.3,7.2-14,10.6-4.4,2.3-8.9,4.5-13.4,6.6-7,3.3-16.8,7.1-19.9,14.9-1.1,2.8,5.4,1.7,6.3,1.5,2.1-.5,10.9-5.2,12.8-6-2.6,2-12,7.8-14.6,9.7-1.2.8-1.9,2.5-.1,3.1,2.5.9,5.8-.1,8-1.3l.1-.1a58.52,58.52,0,0,0-7.4,8.3c-1.1,1.5.1,2.4,1.7,2.6a12.2,12.2,0,0,0,7-1.5c.9-.5,1.9-1,2.8-1.5-2.3,2-4.6,4.2-6.9,6.4-1.4,1.4.4,2.5,1.6,2.6a11.15,11.15,0,0,0,5.4-.8,17.83,17.83,0,0,0-4.1,8.9c-.5,2.9,4.9,1.9,6.3,1.5a48.51,48.51,0,0,0,9.2-3.5c-1.8,1.9-3.5,3.9-5.2,6-1.2,1.5.2,2.4,1.7,2.6A11.83,11.83,0,0,0,38,600a10.7,10.7,0,0,0-1.4,1.6c-1.3,1.5.3,2.5,1.7,2.6a11.46,11.46,0,0,0,7-1.5l.5-.3c-1.1,1-2.2,2.1-3.3,3.2-1.4,1.4.4,2.5,1.7,2.6a10.85,10.85,0,0,0,4-.3c.2,0,.5-.1.8-.1l.3,1.2c.7,2.1,4.9,1.2,6.3.8l.7-.2c-1.2,1.5.3,2.4,1.7,2.6a10.46,10.46,0,0,0,2.5,0c-1,1.9,3.8,2.1,4.8,1.9,2.2-.4,4.4-1,6.5-1.6-.6.3-1.2.7-1.8,1-.9.5-3.3,2.1-1.9,3.4s4.3.7,5.9.2,2.9-.8,4.3-1.3c-.8.7-1.3,1.6-.5,2.4,1.8,1.6,5.5.5,7.4-.2,10.6-4.1,21-8.5,30.3-14.4,1.8-.9,3.6-1.9,5.4-2.9,11.1-6.2,22.6-14.7,26.8-27.4.7-2-1.9-2.1-4.5-1.7a45.67,45.67,0,0,0,5.4-6.9c1.1-1.9-.1-2.5-1.9-2.5a32.13,32.13,0,0,0,6.3-9.5c.4-1.1-.7-1.6-1.6-1.8a19.22,19.22,0,0,0,1.6-4.2c.6-2.3-3.6-2-4.8-1.8-.8.1-3.7,5.1-4.5,5.3,1.6-1.7,5.3-8.2,6.8-10,1.2-1.5-.2-2.4-1.6-2.6a6.6,6.6,0,0,0-1.4-.1,40.67,40.67,0,0,0,4.8-6.7c1.3-2.3-3.8-1.8-6.4-1.3,2.9-2,5.7-4.2,8.5-6.5C155.89,521.16,155.69,519.56,153.29,519.26Z"/><path class="cls-2" d="M114.59,576.46c-7.9-13.2-16.6-25.3-25.4-37.8-5.5-7.7-11-15.4-16.4-23.2-2.8-4-7.2-8.1-9.5-12.6a2.22,2.22,0,0,0-2.5-1.2c.1-1.6-2.3-1.3-3.2.5-.4.8-.8,1.7-1.2,2.5a3.74,3.74,0,0,0-.6,1c-.1.3-.2.5-.3.8-10.3,20.9-20,39.2-28.3,61.3-1,2.8,2.6,4.2,3.4,2l.4-2.9c5-13.4,10.3-24.9,16-36.6-5.8,16.6-11.4,33.4-17.3,50.1a37.6,37.6,0,0,0,6.1,7.7c8.6-23.9,15.4-49.2,24.2-73.1,1.5,2.1,3,4.1,4.4,6.1,5.4,7.8,10.9,15.5,16.4,23.2,7.8,11,16.3,21.9,23.7,33.4-19,5-38.8,6.8-58.1,10-4,.7-7,8.3-1.2,7.3,11.7-1.9,23.5-3.4,35.3-5.3-10.3,2.4-20.7,4.4-30.7,7.4-.8.2.5,2.2,1.6,2a296.23,296.23,0,0,0,53.8-14.2c2.4-.6,4.8-1.3,7.2-2A4.4,4.4,0,0,0,114.59,576.46Z"/><path class="cls-2" d="M65.89,535c-.8-.8-2.2-.9-3.8.4-3.2,2.7-3,6.1-2.2,10.1,1.1,5,1.5,10,3.1,14.8,1.2,3.5,5.3,1.9,5.3-.7.2-6.8-.1-15.9-.6-22.7A1.66,1.66,0,0,0,65.89,535Z"/><path class="cls-2" d="M63.39,574a3.89,3.89,0,0,0,1.1,3.6,4.14,4.14,0,0,0,4.3.2c2.6-1.1,5.7-3.4,6.5-6.5.8-2.8-.7-5.8-3.5-5.5a3.47,3.47,0,0,0-3.4.4A11.15,11.15,0,0,0,63.39,574Z"/><path class="cls-2" d="M136.69,590.26a67.89,67.89,0,0,1-25.7,20.2,62.68,62.68,0,0,1-18.5,5,65.3,65.3,0,0,0,7.6-2A82.42,82.42,0,0,0,136.69,590.26Zm-100,10.1a61,61,0,0,1-9.5-9.5A85.23,85.23,0,0,0,36.69,600.36Zm34.5-119.7c1.2-.1,1.8-2,1.7-2.8,0-.3-.2-.9-1.4-.9h-.4a65.45,65.45,0,0,0-32.9,12.4c1.3-1,2.6-2,3.9-2.9,11-7.5,24.9-11.6,39.1-11.6a71.18,71.18,0,0,1,27.6,5.5c17.3,7.4,29.5,22.1,36.4,41.1a80.42,80.42,0,0,1,2.4,30.9c-1.9,16.1-7.4,30.2-18,40.7a76.11,76.11,0,0,1-44.8,21.1,61.81,61.81,0,0,1-12.9.1,60.47,60.47,0,0,1-8.3-2.4c-28.6-10.3-50.2-39.5-50.2-67.7,0-15.3,5.3-28.2,15.9-40.3C40.09,491.46,55.79,482,71.19,480.66Zm79.4,39.3c-5.4-19.2-17.5-36.1-34-45.9l-.8-.5c-.2-.1-.5.8-.8.8-1,0-2.8.7-3.1,1.6-.1.2-.1.6.5,1a63.42,63.42,0,0,1,9.1,6.2,74,74,0,0,0-40.7-10.9c-22.6.6-43.2,10.2-56.6,26.5C12.49,513,6.59,532.56,8,552.56c1.3,19.8,10.3,38,24.5,49.7,10.2,8.4,22.7,15,37,16.1,4.8,1,10.2,0,15.1,0a70.11,70.11,0,0,0,36.8-10.4,71,71,0,0,0,33.5-52.6A79.38,79.38,0,0,0,150.59,520Z"/><path class="cls-3" d="M110.59,574.46c-7.9-13.2-17.6-25.3-26.4-37.8-5.5-7.7-11-15.4-16.4-23.2-2.8-4-6.2-8.1-8.5-12.6a2.22,2.22,0,0,0-2.5-1.2c.1-1.6-2.3-1.3-3.2.5-.4.8-.8,1.7-1.2,2.5a3.74,3.74,0,0,0-.6,1c-.1.3-1.6,1.3-1.7,1.5-10.4,20.8-19.7,38.4-28,60.4-1,2.8,3.6,4.2,4.4,2l.4-2.9c5-13.4,15-36.4,20.7-48-5.8,16.6-16.1,44.8-22,61.5a27.65,27.65,0,0,0,5.1,6.7c8.6-23.9,16.4-47.2,25.2-71.1,1.5,2.1,3,4.1,4.4,6.1,5.4,7.8,10.9,15.5,16.4,23.2,7.8,11,16.3,20.9,23.7,32.4-19,5-38.8,6.8-58.1,10-4,.7-7,8.3-1.2,7.3,11.7-1.9,31.8-6.1,43.6-8-10.3,2.4-29,7.1-39,10.1-.8.2.5,2.2,1.6,2a276.15,276.15,0,0,0,51.8-14.2c2.4-.6,4.8-1.3,7.2-2C108.19,580.36,112.39,577.36,110.59,574.46Z"/><path class="cls-3" d="M61.89,533c-.8-.8-2.2-.9-3.8.4-3.2,2.7-3,6.1-2.2,10.1,1.1,5,1.5,10,3.1,14.8,1.2,3.5,5.3,1.9,5.3-.7.2-6.8.9-14.9.4-21.7A3.51,3.51,0,0,0,61.89,533Z"/><path class="cls-3" d="M59.39,571a3.89,3.89,0,0,0,1.1,3.6c1.2,1,2.9,1.8,4.3,1.2,2.6-1.1,5.7-3.4,6.5-6.5.8-2.8-.7-5.8-3.5-5.5a3.47,3.47,0,0,0-3.4.4C61.89,565.86,59.79,567.56,59.39,571Z"/><path class="cls-3" d="M162.39,520c.2-5-2.4-10.2-7.5-15.3a1.54,1.54,0,0,0-1.3-.9c-.3-.3-1.1-.9-2.8-2.3-.3-.2-.4-.3-.5-.3a17.84,17.84,0,0,0-4.3-1.8,18.13,18.13,0,0,0-3.9-.5,7.09,7.09,0,0,1-1.4-.1,4.71,4.71,0,0,1-1.6-.4,8.44,8.44,0,0,0-1.7-.5,5.93,5.93,0,0,0-5.2,2,11.54,11.54,0,0,0-1.4,1.9c-.2.3-.3.5-.5.8l-.1.1a3.19,3.19,0,0,0-.7.6,18.83,18.83,0,0,0-3.1,4.3,35.29,35.29,0,0,1-2.1,3.2c-.6.7-1.2,1.4-1.7,2.1-1.3,1.6-2.7,3.3-4.1,4.8s-2.8,3-4.2,4.4c-.7.7-1.4,1.5-2.1,2.2l-18.6,19.5a24,24,0,0,0-4.8,6.1,32.08,32.08,0,0,0-2.4,7.6c-.2.7-.3,1.5-.5,2.2l-3.8,15.2c-.5,2-1.2,4.8-.1,6.7a3.64,3.64,0,0,0,1.6,1.4,4.14,4.14,0,0,0,1.6,2.7,3.7,3.7,0,0,0,1.1.5c1.6.5,3.7,0,6.2-.6s5.1-1.1,7.9-1.5c4.7-.8,9.5-1.6,13.7-3.5,2.8-1.2,4.8-4.2,6.6-6.9a33.93,33.93,0,0,1,2-2.8c4.4-5.4,9-10.8,13.5-16l1.1-1.3a26.47,26.47,0,0,1,2.9-2.9l.4-.4a7.83,7.83,0,0,0,1.8-2.5,6.71,6.71,0,0,1,.9-1.4,80.31,80.31,0,0,1,6.3-7.1,84.16,84.16,0,0,0,6.3-7.1c.3-.4.6-.7.9-1.1C159.59,527.76,162.29,524.46,162.39,520Z"/><path class="cls-3" d="M112.19,567c-.8.3-1.6.7-2.5,1l-.1-.1c.5-.6,1-1.1,1.5-1.7,1.1-1.3.5-4.3-1.4-2.6-.1.1-.3.2-.4.3l.1-.1c1.3-1.8,0-4.4-1.8-2.2-.4.4-.7.9-1.1,1.3a.1.1,0,0,0-.1-.1c.8-1.3,1.6-2.6,2.4-4,1.1-1.9-.5-3.5-2.1-1.7-.8,1-1.6,1.9-2.4,2.9a2.18,2.18,0,0,0-.4-.5,19.68,19.68,0,0,0,.6-3.5c.3-2.3-2-1.5-2.7-.2.1-1.8-1.8-1-2.6.1.1-.9.2-1.9.3-2.8.2-2.9-2.7-.8-3,.9a90.31,90.31,0,0,1-4.8,16.1c-1,2.7,2,2.2,2.8.1.1-.2.1-.4.2-.5-.2,1.6-.5,3.2-.7,4.8-.4,2.3,1.7,1.4,2.6.1a1.06,1.06,0,0,0,.9-.5c-.4,1.2-.1,2.9,1.5,2.1a23.93,23.93,0,0,0,2.1-1.3,1.49,1.49,0,0,0,.6-.1c1.5-.6,2.9-1.2,4.4-1.7a.8.8,0,0,0,1.2.8l1.8-.6a2.89,2.89,0,0,0,1.6-1.8c.4-.3.9-.5,1.4-.8C113.29,570.06,114.19,566.16,112.19,567Z"/><path class="cls-4" d="M152.59,520.46c0-1.1.6-5.6.6-6.7,0-1.3-1-1.2-1.7-.7a15.26,15.26,0,0,0-.3-3c-.1-1.1-.7-1.2-1.4-.9-.3-1.3-2.6-.2-3,1.2-.3,1-.5,1.9-.8,2.9.4-2.1.8-4.2,1.3-6.4s-1.8-1.5-2.6-.2c.1-.6.3-1.2.4-1.8.6-2.8-2.2-2.3-2.8-.1v.2c-.1-1.7-3.1-1.8-3.6.2-.7,2.4-.7,3.4-1.4,5.8-1.1,3.6-2.3,9.3-3.7,12.8a68.45,68.45,0,0,0,3.1-21.2c-.1-2.3-2.6-.2-2.9.9-1.3,4.1-2.5,8.2-3.8,12.4-.3-1.4-2.9-.8-3.4,1-2.5,8.9-4.6,17.6-7.6,26.3,1.6-6.8,4.2-17.6,5.8-24.4.7-2.8-3.1,1.7-3.8,3.9-.6,1.6-1.1,3.2-1.6,4.9-.6-.1-1.3.3-1.8,1.3-.6,1.3-1.1,2.5-1.7,3.8-.2-1.4-2-1.4-2.7.3-.9,2.2-1.9,4.4-2.8,6.6a22.85,22.85,0,0,0,0-3.7c-.1-2-2.2-.7-2.7.3s-1,2.1-1.5,3.1a2.33,2.33,0,0,0-1.2,1.2c-1.5,3.6-2.9,7.1-4.4,10.7-1,2.4,1.4,3.7,2.4,1.2h0v.4c-.1,1.4.6,1.7,1.4,1.3-.1,1.7,1.8,2.3,2.6.2.7-1.8,3.4-12.2,4.2-14-.5,2.6-2.8,14-3.1,16.6-.2,1.7,1,1.7,1.9,1.1-.4,1.4-.7,2.9-1.1,4.3-.7,2.6,1.9,2.4,2.7.5a28.63,28.63,0,0,1-.7,2.8c-.7,2.8,2,2.2,2.8.1l2.7-7.2-2.7,10.5c-.7,2.8,2.2,2.3,2.8.2,1.6-5.3,3.3-10.7,4.9-16-.6,2.4-1.2,4.9-1.6,7.3s2.5,1.3,2.9-.4c.3-1,.6-2.1.9-3.1.3,1.2,2,1,2.7-.5,1.1-2,2.1-4,3.1-6,.6.7,2.8.4,3.5-.9,2.9-6.1,4.5-12.3,6.8-18.6-1,4.8-1.9,9.7-2.9,14.5-.5,2.6,2.4,1.1,2.9-.4,1.2-3.2,2.3-6.3,3.3-9.5.6.3,1.7-.3,2.2-1.2a57,57,0,0,0,3.7-9.7c.6-.2,1.6-3.2,1.9-3.9,0,.8-.7,5.7-.7,6.5,0,2.1,2.2.6,2.7-.3a22.86,22.86,0,0,0,2.9-9.5C156,515.06,153.49,519.06,152.59,520.46Zm-22.2,0a141.11,141.11,0,0,1-6.1,22.7C127.09,534.16,127.69,529.26,130.39,520.46Z"/><path class="cls-5" d="M151.59,507c-5.8-5.4-13-6.1-19.6-1.6-.7.5-1.6,1-1.6,1.9-3.2,3.9-30.8,34.1-35.6,39.1-2.5,2.6-3,3.9-3.9,7.5-1.8,7.4-4.7,15.8-6.5,23.2-.3,1.4,1.8.5,2.1-.6,1.5-6.2,3.5-13.3,5-19.5a44.25,44.25,0,0,1,1.8-5.9l.1-.1c.5-.6,1-1.1,1.5-1.6l11.5-12.1c-3.6,4.3-7.3,8.5-10.9,12.8l-.1.1a2.12,2.12,0,0,0-1.7,1.8c-1.9,9-3.9,18-5.8,26.9-.6,1.3.4,3,1.8,2.5,8.2-2.5,15.8-3.4,24-5.9a1.89,1.89,0,0,0,1-.8,2.07,2.07,0,0,0,.6-1c-.2.6.3-.3.5-.7.5-.7,1-1.4,1.6-2.1,1.5-2,3.1-3.9,4.7-5.9,4.5-5.5,9.2-10.9,13.8-16.3,7.3-8.5,16.7-16.8,22.8-26.1.2-.4-.6-.8-.6-1.1,0-.1.1-.2.1-.3C159.29,516.06,155,510.26,151.59,507Zm-18.5,2.5a4.05,4.05,0,0,0,.5-.9c.3-.3.6-.7.9-1,4.6-2.2,9.4-1.5,13.5,1.8a513.86,513.86,0,0,0-38.4,46.2c-2.8-2.9-5.3-5-9.1-6C111.89,536.36,122.09,523,133.09,509.46Zm-41.9,67.1c.1.1.1.2.2.3a.37.37,0,0,0-.3.1A.6.6,0,0,0,91.19,576.56Zm21.9-4.7c-4.4,1.3-9,2.1-13.5,3.1a8.74,8.74,0,0,0-6.8-5.9c1.2-5.4,2.3-10.7,3.5-16.1a.1.1,0,0,0,.1-.1,1,1,0,0,0,.7.4C105.19,555,113.09,563.36,113.09,571.86Zm42.3-50.8v.2c-6.5,9.6-15.1,18.1-22.6,26.9-4.6,5.4-9.2,10.8-13.7,16.3-.9,1.1-2.1,2.4-3.1,3.6-.5-3.7-2.1-6.3-4.5-9.3,11.9-16.2,25.8-33.8,39.6-48.4C153.39,512.76,156,518.16,155.39,521.06Z"/><path class="cls-4" d="M93.09,568.86c.9,0,1.9-2,.9-2s-1.9,2-.9,2Z"/><path class="cls-5" d="M92.49,567.46c5.3.2,6.1,6.2,6.4,10.3.1,1.3,1.6-.1,1.5-.9-.3-4.7-1-12.6-6.9-12.8-.8-.1-2,3.3-1,3.4Z"/></svg>