<?xml version="1.0" encoding="utf-8"?>
<!-- Generator: Adobe Illustrator 21.1.0, SVG Export Plug-In . SVG Version: 6.00 Build 0)  -->
<svg version="1.1" id="Layer_1" xmlns="http://www.w3.org/2000/svg" xmlns:xlink="http://www.w3.org/1999/xlink" x="0px" y="0px"
	 viewBox="0 0 152 248" style="enable-background:new 0 0 152 248;" xml:space="preserve">
<style type="text/css">
	.st0{fill:#F9A928;}
	.st1{fill:#032E6F;}
</style>
<g>
	<g>
		<g>
			<g>
				<path class="st0" d="M145,30.7c0-14.3-1.5-23.5-14.5-23.5L18.6,14.1c-13,0-15.3,6.2-15.3,20.5s12.8,20.2,25.8,20.2L132,59.2
					C147,60.1,145,30.7,145,30.7z"/>
				<path class="st1" d="M130.6,9.2L18.8,16.1h-0.1c-10.6,0-13.3,3.8-13.3,18.5c0,8.8,6.2,18.2,23.8,18.2l103,4.4l0.5,0
					c2.1,0,3.9-0.8,5.3-2.3c5.1-5.5,5.4-19.2,5-24v-0.1C143,15.9,141.2,9.3,130.6,9.2z M132.6,61.3c-0.2,0-0.5,0-0.7,0L29,56.8
					C8.6,56.8,1.3,44.9,1.3,34.7c0-6.2,0.4-12.6,3.1-16.7c2.6-3.9,7.1-5.8,14.1-5.8l111.8-6.9h0.1c15.2,0,16.5,12,16.5,25.4
					c0.1,1.5,1.1,19.3-6.1,27C138.6,60,135.9,61.3,132.6,61.3z"/>
			</g>
			<g>
				<path class="st1" d="M135,1.7L23.7,11.6C10,11.6,8.8,16.3,8.8,30.6c0,13,9.1,20.8,24.5,20.8l100.2,7.4c11,0,16.1-8.8,16.1-27.7
					C149.7,5.2,142.2,1.7,135,1.7z M133.5,59.7L133.5,59.7L33.3,52.3c-15.9,0-25.4-8.1-25.4-21.8c0-14.5,1.4-19.9,15.8-19.9
					l111.3-9.9c13.9,0,15.7,15.3,15.7,30.3C150.7,50.4,145.1,59.7,133.5,59.7z"/>
			</g>
		</g>
	</g>
</g>
<g>
	<g>
		<g>
			<path class="st0" d="M145,92.2c0-14.3-1.5-23.5-14.5-23.5L18.6,75.6c-13,0-15.3,6.2-15.3,20.5s12.8,20.2,25.8,20.2l102.9,4.4
				C147,121.6,145,92.2,145,92.2z"/>
			<path class="st1" d="M129.6,71.7L18.8,77.6h-0.1c-10.6,0-15.3,3.8-15.3,18.5c0,8.8,8.2,20.2,25.8,20.2l103,2.4l0.5,0
				c2.1,0,3.9-0.8,5.3-2.3c5.1-5.5,5.4-19.2,5-24.1v-0.1C143,77.4,140.2,71.8,129.6,71.7z M132.6,122.8c-0.2,0-0.5,0-0.7,0L29,118.3
				c-20.4,0-27.7-11.9-27.7-22.2c0-6.2,0.4-11.6,3.1-15.7c2.6-3.9,7.1-5.8,14.1-5.8l111.8-7.9h0.1c15.2,0,16.5,12,16.5,25.4
				c0.1,1.5,1.1,19.3-6.1,27C138.6,121.6,135.9,122.8,132.6,122.8z"/>
		</g>
		<path class="st1" d="M133.5,121.2l-100.2-6.4c-15.3,0-25.5-8.8-25.5-21.8c0-14.3,2.1-18.8,15.8-20.9L136,65.2
			c7.3,0,13.7,3.5,13.7,29.3C149.7,113.4,144.5,121.2,133.5,121.2z M135.9,63.2L23.6,71.1C8.7,72.9,6.8,78.6,6.8,93.1
			c0,13.6,10.5,22.8,26.4,22.8l100.2,6.4h0c11.6,0,17.2-8.4,17.2-27.7C150.7,79.6,149.8,63.2,135.9,63.2z"/>
	</g>
</g>
<g>
	<g>
		<g>
			<path class="st0" d="M145.5,152.9c0-14.3-1.5-23.5-14.5-23.5l-111.9,6.9c-13,0-15.3,6.2-15.3,20.5S16.7,177,29.6,177l102.9,4.4
				C147.5,182.3,145.5,152.9,145.5,152.9z"/>
			<path class="st1" d="M125.1,130.4l-105.8,6.9l-0.1,0c-10.6,0-14.3,4.8-14.3,19.5c0,8.8,7.2,19.2,24.8,19.2l104,3.4
				c0.2,0-1.6,0-1.5,0h1c2.1,0,4.8-0.8,6.3-2.3c5.1-5.5,5.4-19.2,5-24.1v-3.1C144.5,135.1,138,130.7,125.1,130.4z M133.1,183.4
				c-0.2,0-0.5,0-0.7,0L29.5,178c-20.4,0-27.7-10.9-27.7-21.2c0-6.2,0.4-11.6,3.1-15.7c2.6-4,7.1-5.8,14.1-5.8l111.8-8.9h0.1
				c15.2,0,16.5,13,16.5,26.4c0.1,1.5,1.1,19.3-6.1,27C139.1,182.2,136.4,183.4,133.1,183.4z"/>
		</g>
		<g>
			<path class="st1" d="M135.8,127.6l-111.4,5.6c-13.7-0.2-15.9,5.4-16.1,19.8c-0.1,13,6.9,20.8,22.2,21l103.1,8.6
				c11,0.1,15.2-7.6,15.5-26.5C149.5,130.2,143.1,127.7,135.8,127.6z M133.7,183.6L133.7,183.6L30.5,175c-15.9-0.2-23.3-8.4-23.2-22
				c0.2-14.5,2.6-20.9,17-20.8l111.4-5.6c13.9,0.2,14.6,14.5,14.4,29.5C149.9,175.4,145.2,183.7,133.7,183.6z"/>
		</g>
	</g>
</g>
<g>
	<g>
		<g>
			<path class="st0" d="M145.5,215.7c0-14.3-1.5-23.5-14.5-23.5l-111.9,6.9c-13,0-15.3,6.2-15.3,20.5s12.8,20.2,25.8,20.2l102.9,4.4
				C147.5,245.1,145.5,215.7,145.5,215.7z"/>
			<path class="st1" d="M128.1,194.2l-108.8,5.9l-0.1,0c-10.6,0-13.3,4.8-13.3,19.5c0,8.8,6.2,19.2,23.8,19.2l103,3.4l0.5,0
				c2.1,0,4.9-0.8,6.3-2.3c5.1-5.5,5.4-19.2,5-24.1v-0.1C144.5,200.9,142,194.2,128.1,194.2z M133.1,246.3c-0.2,0-0.5,0-0.7,0
				l-103.9-4.4c-20.4,0-26.7-11.9-26.7-22.2c0-6.2,1.4-12.6,4.1-16.7c2.6-3.9,7.1-5.8,14.1-5.8l110.8-6.9h0.1
				c15.2,0,16.5,12,16.5,25.4c0.1,1.5,1.1,19.3-6.1,27C139.1,245,136.4,246.3,133.1,246.3z"/>
		</g>
		<g>
			<path class="st1" d="M132.5,187.7l-108.3,8.9c-13.7,0-14.8,4.6-14.8,18.9c0,13,9.1,20.8,24.5,20.8l100.2,7.4
				c11,0,15.1-7.8,15.1-26.7C149.2,191.2,139.7,187.7,132.5,187.7z M134,244.7L134,244.7l-100.2-7.4c-15.9,0-25.4-8.1-25.4-21.8
				c0-14.5,1.4-19.9,15.8-19.9l108.3-8.9c13.9,0,17.7,15.3,17.7,30.3C150.2,236.4,145.6,244.7,134,244.7z"/>
		</g>
	</g>
</g>
</svg>
