<?xml version="1.0" encoding="utf-8"?>
<!-- Generator: Adobe Illustrator 21.1.0, SVG Export Plug-In . SVG Version: 6.00 Build 0)  -->
<svg version="1.1" id="Layer_1" xmlns="http://www.w3.org/2000/svg" xmlns:xlink="http://www.w3.org/1999/xlink" x="0px" y="0px"
	 viewBox="0 0 136 192" style="enable-background:new 0 0 136 192;" xml:space="preserve">
<style type="text/css">
	.st0{fill:#16B7FF;}
	.st1{fill:#032E6F;}
</style>
<g>
	<g>
		<g>
			<g>
				<path class="st0" d="M6,24.6C6,14.8,7.5,8.1,19.2,8.1l100.6,4.8c11.6,0,13.8,4.3,13.8,14.2S125.8,41,110.3,41l-92.5,3
					C6.2,44,6,34.5,6,24.6z"/>
				<path class="st1" d="M19.1,9.6c-9.9,0-11.6,4.8-11.6,15c0,11.1,0.7,17.9,10.3,17.9l92.5-3c19.3,0,21.7-6.6,21.7-12.4
					c0-8.6-1.2-12.7-12.2-12.7L19.1,9.6z M17.8,45.5C4.5,45.5,4.5,33.9,4.5,24.6c0-9.1,1.1-18,14.7-18l100.6,4.8h0
					c12.7,0,15.2,5.5,15.2,15.7c0,13.8-14.1,15.4-24.7,15.4L17.8,45.5L17.8,45.5z"/>
			</g>
			<g>
				<path class="st1" d="M15.1,4.5C3.6,4.5,2,14.6,2,24.6c0,12.9,4.6,18.9,14.5,18.9l90.1-5.1c13.8,0,22-5.3,22-14.2
					c0-9.8-1-12.9-13.2-12.9L15.1,4.5z M16.5,44.5C6.1,44.5,1,38,1,24.6C1,14.1,2.7,3.5,15.2,3.5l100.1,6.8h0
					c13,0,14.2,3.8,14.2,13.9c0,9.5-8.6,15.2-22.9,15.2L16.5,44.5L16.5,44.5z"/>
			</g>
		</g>
	</g>
</g>
<g>
	<g>
		<g>
			<path class="st0" d="M5.5,72.6c0-9.8,1.5-16.5,13.2-16.5l100.6,4.8c11.6,0,13.8,4.3,13.8,14.2S125.3,89,109.8,89l-92.5,3
				C5.7,92,5.5,82.5,5.5,72.6z"/>
			<path class="st1" d="M20.6,57.6c-9.9,0-13.6,4.8-13.6,15c0,11.1,2.7,16.9,12.3,16.9l90.5-2c19.3,0,21.7-6.6,21.7-12.4
				c0-8.6-1.2-12.7-12.2-12.7L20.6,57.6z M17.3,93.5C4,93.5,4,81.9,4,72.6c0-9.1,1.1-18,14.7-18l100.6,5.8h0
				c12.7,0,15.2,4.5,15.2,14.7c0,13.8-14.1,15.4-24.7,15.4L17.3,93.5L17.3,93.5z"/>
		</g>
		<g>
			<path class="st1" d="M16.6,52.5C5.1,52.5,1.5,62.7,1.5,72.6c0,12.9,4.6,19.9,14.5,19.9l90.1-6.1c13.8,0,23-5.3,23-14.2
				c0-9.8-2-13.9-14.2-13.9L16.6,52.5z M16,93.5C5.6,93.5,0.5,86,0.5,72.6c0-10.4,3.7-21.1,16.2-21.1l98.1,5.8h0
				c13,0,15.2,4.8,15.2,14.9c0,9.5-9.6,15.2-23.9,15.2L16,92.5C16,92.5,16,93.5,16,93.5z"/>
		</g>
	</g>
</g>
<g>
	<g>
		<g>
			<path class="st0" d="M5.5,119.6c0-9.9,1.5-16.5,13.2-16.5l100.6,4.8c11.6,0,13.8,4.3,13.8,14.2s-7.7,13.9-23.2,13.9l-92.5,3
				C5.7,139,5.5,129.5,5.5,119.6z"/>
			<path class="st1" d="M18.6,104.6c-9.9,0-11.6,4.8-11.6,15c0,11.1,0.7,17.9,10.3,17.9l92.5-2c19.3,0,21.7-7.6,21.7-13.4
				c0-8.6-1.2-12.7-12.2-12.7L18.6,104.6z M17.3,140.5C4,140.5,3,129.9,3,120.6c0-9.1,1.1-18,14.7-18l101.6,3.8h0
				c12.7,0,15.2,5.5,15.2,15.7c0,13.8-14.1,15.4-24.7,15.4L17.3,140.5L17.3,140.5z"/>
		</g>
		<g>
			<path class="st1" d="M15.6,99.5c-11.6,0-14.1,10.2-14.1,20.1c0,12.9,4.6,19.9,14.5,19.9l90.1-6.1c13.8,0,22-5.3,22-14.2
				c0-9.8-1-13.9-13.2-13.9L15.6,99.5z M16,140.5c-10.4,0-15.5-7.5-15.5-20.9c0-10.4,2.7-21.1,15.2-21.1l99.1,5.8h0
				c13,0,14.2,4.8,14.2,14.9c0,9.5-8.6,15.2-22.9,15.2L16,140.5L16,140.5L16,140.5z"/>
		</g>
	</g>
</g>
<g>
	<g>
		<g>
			<g>
				<path class="st0" d="M5.5,168.6c0-9.9,1.5-16.5,13.2-16.5l100.6,4.8c11.6,0,13.8,4.3,13.8,14.2s-7.7,13.9-23.2,13.9l-92.5,3
					C5.7,188,5.5,178.5,5.5,168.6z"/>
				<path class="st1" d="M18.6,153.6c-9.9,0-11.6,4.8-11.6,15c0,11.1,0.7,17.9,10.3,17.9l92.5-2c19.3,0,21.7-7.6,21.7-13.4
					c0-8.6-1.2-12.7-12.2-12.7L18.6,153.6z M17.3,189.5C4,189.5,3,177.9,3,168.6c0-9.1,2.1-18,15.7-18l100.6,4.8h0
					c12.7,0,15.2,5.5,15.2,15.7c0,13.8-14.1,15.4-24.7,15.4l-93.5,3H17.3z"/>
			</g>
			<g>
				<path class="st1" d="M15.6,148.5c-11.6,0-14.1,10.1-14.1,20.1c0,12.9,4.6,18.9,14.5,18.9l90.1-4.1c13.8,0,24-5.3,24-14.2
					c0-9.8-3-13.9-15.2-13.9L15.6,148.5z M16,188.5c-10.4,0-15.5-6.5-15.5-19.9c0-10.4,2.7-21.1,15.2-21.1l99.1,6.8h0
					c13,0,16.2,4.8,16.2,14.9c0,9.5-10.6,15.2-24.9,15.2L16,188.5L16,188.5z"/>
			</g>
		</g>
	</g>
</g>
</svg>
