<svg xmlns="http://www.w3.org/2000/svg" width="114" height="456" viewBox="0 0 114 456"><g fill="#7797AB"><path d="M61.23 36.33c.14.59.87 1.02 1.75 1.02.41 0 .82-.09 1.19-.27 1.74-.84 3.62-1.6 5.93-2.4-.23 2.79-1.43 5.48-2.59 8.11-.61 1.37-1.24 2.8-1.72 4.21-.14.39-.03.67.09.83.23.31.69.47 1.38.47.62 0 1.28-.13 1.55-.24l1.3-.58c3.35-1.49 6.82-3.02 9.91-5.16.82-.57.87-1.06.78-1.37-.21-.65-1.14-.87-1.87-.87-.63 0-1.2.15-1.6.43-1.97 1.36-4.08 2.43-6.13 3.37l.55-1.27c1.45-3.36 2.95-6.82 2.68-10.66-.02-.28-.21-.94-1.57-.94-.33 0-.71.04-.95.12-3.59 1.1-6.7 2.29-9.52 3.65-1.19.57-1.24 1.21-1.16 1.55zM74.9 16.42c.68 0 1.73-.15 2.19-.38 2.42-1.16 5.11-2.24 8.22-3.29-.02 4.1-1.73 7.99-3.37 11.76-.77 1.75-1.56 3.56-2.17 5.36-.09.25 0 .42.06.5.18.24.51.27.76.27.84 0 2.27-.43 2.45-.52l1.77-.78c4.2-1.86 8.54-3.78 12.41-6.46.17-.12.59-.4.47-.77-.11-.33-.53-.38-.89-.38-.82 0-2.28.29-2.72.6-3 2.07-6.35 3.67-9.33 5.01.45-1.1.93-2.23 1.41-3.32 1.86-4.25 3.79-8.64 3.44-13.41-.01-.2-.15-.54-.88-.54-.58 0-1.33.19-1.5.24-4.73 1.44-8.82 3.01-12.5 4.77-.58.29-.95.55-.87.91.09.39.61.43 1.05.43zm-28.98-5.06c.41 0 .82-.09 1.19-.27 3.25-1.52 6.7-2.88 10.54-4.13-.12 4.57-2.08 8.92-3.98 13.14-.91 2.02-1.85 4.12-2.56 6.19-.14.39-.04.66.07.81.23.31.68.46 1.36.46.6 0 1.3-.12 1.58-.25l1.94-.84c4.98-2.17 10.12-4.4 14.73-7.51.81-.56.88-1.03.78-1.34-.19-.62-1.12-.85-1.85-.85-.64 0-1.21.16-1.61.42-3.66 2.47-7.59 4.31-11.65 6.08.48-1.13.98-2.27 1.48-3.38 2.18-4.91 4.43-9.98 4.02-15.56-.02-.28-.21-.91-1.53-.91-.4 0-.78.05-.98.12-5.26 1.57-9.88 3.31-14.1 5.31-1.19.55-1.24 1.19-1.17 1.51.13.58.86 1 1.74 1z"/><path fill-rule="evenodd" clip-rule="evenodd" d="M109.72 102.47H97.35c4.49-2.9 6.39-7.59 5.23-13.03-1.52-7.07-6.89-12.05-11.08-14.95-4.21-4-9.11-6.96-13.17-7.94l.01-.08.02-.45a.604.604 0 0 0-.18-.48c-.18-.19-.5-.26-.83-.2-4.13-12.52-15.86-21.93-27.4-21.93-1.85 0-3.67.24-5.45.71.59-.42.67-.82.59-1.1-.12-.52-.75-.86-1.58-.86-.45 0-.89.1-1.29.29-17.29 8.29-24.68 24.05-18.88 40.18-7.19 3.78-9.96 12.23-11.87 20.85H5.96c-.84 0-2.81.88-2.81 1.68 0 .65.97.65 1.29.65h9.82c.23.04.55.03.81 0h9.25c.34 0 .81-.12 1.31-.35.35.7.84 1.32 1.49 1.91 3.28 2.94 7.44 3.31 10.69 3.31 1.38 0 2.79-.07 4.15-.15l1.33-.06c2.75-.13 5.56-.21 8.27-.28 6.76-.18 13.77-.37 20.59-1.4l1.22-.18c4.58-.68 9.76-1.45 14.42-3.14.19.07.44.1.72.1h19.88c1.22 0 2.76-1.21 2.76-2.17 0-.28-.14-.93-1.43-.93zm-14.15 0h-1.8c2.59-1.79 4.43-3.96 5.63-6.61 1.39-3.1 1.18-6.29.29-9.15 1.22 2.94 1.64 6.03 1.08 8.78-.63 3.09-2.43 5.51-5.2 6.98zm-48.33-5.34h.04c5 0 10.31-.94 14.97-2.65l.58-.03c-3.45 1.9-7.55 2.9-11.95 2.9-1.22 0-2.43-.08-3.64-.22zm15.18-5.53c-.66.05-1.28.34-1.68.78-.78.33-1.71.71-2.74 1.05-2.81.92-5.69 1.39-8.56 1.39-3.32 0-6.51-.62-9.5-1.83a.638.638 0 0 0-.08-.14c-.15-.19-.42-.28-.87-.26-6.26-2.85-10.73-8.11-12.62-14.8-2.66-9.47-.04-18.76 7.38-26.18.31.17.76.22 1.12.22.77 0 1.83-.21 2.3-.66 3.62-3.36 7.71-5.07 12.15-5.07 10.37 0 21.52 10.16 24.34 22.19 2.38 10.12-1.72 18.61-11.24 23.31zm-26.45 3.76c4.27 2.18 9.08 3.34 13.9 3.34 4.97 0 9.97-1.23 14.46-3.56.56-.28 1.13-.62 1.72-1 2.18-.28 4.37-.7 6.48-1.1 3.1-.59 6.31-1.2 9.5-1.38 1.3-.07 2.24-1.04 2.21-1.84 0-.25-.14-1.07-1.58-1.07l-.25.01c-2.13.12-4.2.43-6.17.78 1.22-.87 2.44-1.6 3.44-2.16.22-.13.95-.6.9-1.13-.02-.18-.13-.42-.56-.56-.77-.25-1.98-.04-2.83.44-1.85 1.07-4.25 2.52-6.41 4.42l-.6.11c.32-.35.63-.72.94-1.12 5.99-4.91 8.59-11.93 7.34-19.79.87.27 1.72.55 2.51.85 4.6 2.61 7.87 7.03 10.47 11 3.3 5.04 4.11 9.91 2.35 14.07-2.11 4.98-7.71 8.59-15.77 10.18-6.94 1.37-14.11 1.64-21.04 1.91-1.74.06-3.49.13-5.24.22-1.04.04-2.09.11-3.15.17-2.42.14-4.94.28-7.41.28-2.38 0-4.45-.13-6.34-.42-2.84-.42-4.43-1.57-4.76-3.43-.53-3.1 2.7-7.45 5.89-9.22zm-10.75-8.59c1.96 3.24 4.82 5.78 8.5 7.55-4.17 2.05-8.65 5.53-8.6 9.16h-7.31c.39-5.35 3.22-12.86 7.41-16.71zm-1.2-2.41c-5.9 3.72-9.68 12.33-10.43 19.12h-.41c1.78-8.12 4.32-16.08 10.54-19.75l.01.02c.07.19.16.35.25.52l.04.09z"/><path fill-rule="evenodd" clip-rule="evenodd" d="M63.95 79.42c-.36-.07-.71-.02-1.11.12-.3-.13-.62-.18-1.02-.14-3.95.33-7.98 2.57-10.03 5.58-1.19 1.73-.94 3.04-.54 3.84.93 1.82 3.52 2.71 5.67 2.78h.32c4.03 0 7.81-2.55 10-4.94.73-.8 1.9-2.41 1.47-4.26-.46-2.03-2.93-2.67-4.76-2.98zm-.48 5.88c-1.1 1.2-2.79 2.22-4.4 2.64 0-1.26.37-2.4 1.03-3.1.52-.55 1.21-.82 2.03-.82h.19l.19.01c.41 0 1.14-.07 1.76-.48.03.07.06.15.06.23.01.25-.13.72-.86 1.52z"/><path d="M43.37 80.84c-.22 1.34-1 2.73-1.96 2.73-.34 0-.69-.17-1.06-.49-.21-.18-.48-.27-.79-.27-.62 0-1.41.36-1.63.96-.14.36-.03.73.3 1.02.78.68 1.7 1.02 2.73 1.02.66 0 1.33-.14 2.02-.42 1.67-.67 2.88-2.4 3.23-4.63.05-.35-.07-.57-.18-.7-.57-.66-2.49-.3-2.66.78zm19.12-8.48c-.27 1.37-1.09 2.84-2.53 2.84-.38 0-.79-.11-1.22-.31-.58-.29-1.33-.22-1.88.17-.29.21-.56.61-.53 1 .02.26.17.47.43.6.92.45 1.86.67 2.8.67 2.84 0 5.16-2.03 5.77-5.04a.76.76 0 0 0-.15-.67c-.53-.65-2.47-.31-2.69.74zM42.43 74.8c.83-.38.82-.91.78-1.11-.14-.67-1.19-1.07-2-.71-4.11 1.81-6.87 4.73-8.94 9.46-.17.4-.09.69.02.85.19.29.58.45 1.06.45.59 0 1.35-.26 1.59-.82 1.84-4.19 4.08-6.62 7.49-8.12zm9.3-4.6c.27 0 .54-.07.79-.2 4.22-2.17 7.82-3.19 11.32-3.19l.37.01c.79 0 1.76-.75 1.77-1.36 0-.2-.09-.65-.97-.68-4.41-.09-8.87 1.08-13.7 3.58-.81.42-.79.92-.74 1.12.11.43.58.72 1.16.72z"/></g><g fill="#7797AB"><path d="M61.73 150.8c.14.58.87 1.02 1.75 1.02.41 0 .82-.1 1.19-.27 1.74-.84 4.63-1.6 6.93-2.41-.23 2.79-2.43 5.49-3.59 8.11-.61 1.38-1.24 2.8-1.72 4.21-.14.4-.03.67.09.83.23.32.69.47 1.38.47.62 0 1.28-.12 1.55-.24l1.3-.58c3.35-1.48 6.82-2.02 9.91-4.16.82-.56.88-2.05.78-2.36-.2-.65-1.14-.88-1.86-.88-.64 0-1.21.16-1.61.44-1.97 1.36-4.08 2.42-6.12 3.36l.55-1.26c1.44-3.36 3.94-6.83 3.67-10.66-.02-.28-.21-.94-1.56-.94-.34 0-.72.04-.96.12-3.58 1.1-7.7 2.29-10.52 3.65-1.18.56-1.24 1.21-1.16 1.55zm13.67-19.91c.68 0 1.73-.15 2.19-.38 2.42-1.16 5.11-2.24 8.22-3.29-.02 4.1-1.72 7.99-3.37 11.76-.76 1.74-1.56 3.56-2.17 5.36-.09.25 0 .42.06.5.18.24.52.27.76.27.84 0 2.27.57 2.45.48l1.77-.79c4.2-1.86 8.55-3.77 12.41-6.46.18-.11.59-1.39.47-1.76-.11-.34-.53-.38-.89-.38-.81 0-2.27.29-2.72.59-3 2.08-7.34 3.68-10.33 5.02.45-1.11.91-2.24 1.41-3.33 1.02-2.2 3.79-9.63 3.44-14.4-.01-.2-.14-.54-.88-.54-.57 0-1.33.18-1.5.23-4.73 1.45-7.82 4.02-11.5 5.78-.58.28-.95.54-.87.91.09.38.61.43 1.05.43zm-28.98-5.07c.42 0 .83-.08 1.2-.26 3.24-1.53 6.69-2.89 10.53-4.14-.12 4.57-2.08 8.93-3.97 13.15-.91 2.02-1.86 4.11-2.57 6.18-.14.4-.04.66.08.82.22.31.67.46 1.35.46.6 0 1.3-.12 1.58-.25l1.94-.84c4.98-2.17 10.12-4.4 14.73-7.51.81-.56.88-1.04.78-1.34-.19-.62-1.11-1.85-1.85-1.85-.64 0-1.2.15-1.61.42-3.66 2.47-8.59 5.3-12.64 7.08.47-1.14.98-2.28 1.47-3.39 2.18-4.9 5.43-10.97 5.02-16.55-.02-.28-.21-.92-1.53-.92-.4 0-.77.06-.98.13-5.26 1.57-9.87 4.31-14.1 6.3-1.19.56-1.24 1.19-1.17 1.52.14.58.86.99 1.74.99z"/><path fill-rule="evenodd" clip-rule="evenodd" d="M110.22 216.94H97.85c4.49-2.9 5.4-7.6 4.23-13.03-1.52-7.07-5.89-13.05-10.08-15.95-4.21-4.01-9.11-5.96-13.17-6.95l.01-.07.02-.45c.01-.2-.05-.36-.17-.48-.19-.19-.51-.27-.84-.2-4.13-12.53-15.86-21.93-27.4-21.93-1.84 0-3.66.23-5.44.7.58-.41.66-.81.58-1.1-.11-.51-1.75-1.85-2.58-1.85-.45 0-.89.1-1.29.29-17.28 8.29-23.68 25.04-17.88 41.18-7.18 3.78-10.83 10.52-11.87 20.85l-5.51 1c-.84 0-2.81-.12-2.81.68 0 .65.97.65 1.29.65h9.82c.23.03.55.03.81 0h9.25c.34 0 .81-.13 1.31-.36.35.7.84 1.33 1.49 1.91 3.28 2.94 7.44 3.32 10.69 3.32 1.39 0 2.79-.08 4.15-.15l1.33-.07c2.75-.12 5.56-.2 8.27-.27 6.77-.19 13.77-.37 20.59-1.4l1.22-.18c4.58-.69 9.77-1.45 14.42-3.14.2.06.44.09.72.09h19.88c1.22 0 2.76-1.21 2.76-2.16 0-.28-.14-.93-1.43-.93zm-14.15 0h-1.79c2.58-1.79 4.43-3.97 5.62-6.62 1.39-3.09 1.18-6.29.29-9.15 1.23 2.94 1.64 6.04 1.08 8.78-.63 3.1-2.42 5.51-5.2 6.99zm-48.33-5.35h.04c5 0 10.31-.94 14.97-2.64l.58-.03c-3.45 1.89-7.55 2.89-11.95 2.89-1.21 0-2.43-.07-3.64-.22zm15.18-5.52c-.66.05-1.27.34-1.68.78-.78.33-1.71.7-2.74 1.05-2.81.91-5.68 1.39-8.56 1.39-3.32 0-7.51-.62-10.5-1.83-.02-.06-.05-.1-.08-.14-.14-.2-.41-.28-.86-.26-6.26-2.85-10.74-8.11-12.62-14.8-2.67-9.47.95-18.76 8.37-26.18.32.17.76.21 1.12.21.78 0 .83-.21 1.3-.65 3.63-3.37 9.71-5.07 14.15-5.07 10.37 0 20.53 10.16 23.35 22.19 2.37 10.12-1.73 18.61-11.25 23.31zm-26.45 4.76c4.28 2.18 9.08 2.33 13.9 2.33 4.97 0 9.98-1.22 14.47-3.55.55-.29 1.12-.62 1.72-1.01 2.17-.27 4.36-.69 6.48-1.09 3.1-.59 6.3-1.2 9.49-1.39 1.3-.07 2.24-1.03 2.22-1.84-.01-.25-.15-1.06-1.59-1.06h-.24c-2.13.13-4.21.44-6.17.78 1.21-.86 2.44-1.59 3.43-2.16.22-.12.95-.59.9-1.12-.02-.18-.13-.43-.56-.56-.77-.25-1.98.96-2.83 1.44-1.85 1.07-4.25 1.52-6.41 3.42l-.59.11c.31-.36.62-.72.93-1.12 5.99-4.91 8.59-11.93 7.34-19.79.87.26 1.72.55 2.51.84 4.6 2.62 7.88 5.03 10.48 9.01 3.29 5.04 4.1 11.91 2.34 16.07-2.11 4.97-7.71 8.59-15.76 10.18-6.95 1.37-14.12 1.64-21.05 1.9-1.74.07-3.49.14-5.24.22-1.04.05-2.09.11-3.15.17-2.42.14-4.94.29-7.4.29-2.38 0-4.46-.13-6.35-.42-2.84-.43-4.43-1.58-4.75-3.43-.54-3.1 2.69-6.45 5.88-8.22zm-10.75-9.6c1.96 3.24 3.82 5.79 7.5 7.56-4.17 2.04-7.65 5.53-7.6 9.16h-7.31c.03-7.67 3.22-12.87 7.41-16.72zm-1.19-2.41c-5.91 3.73-8.69 12.33-9.44 19.13h-1.41c1-7.67 4.33-16.08 10.54-19.76l.01.03c.07.18.16.35.25.51l.05.09z"/><path fill-rule="evenodd" clip-rule="evenodd" d="M64.46 193.89c-.37-.07-.72-.03-1.11.11-.31-.12-.63-.17-1.03-.14-3.95.34-8.98 2.58-11.03 5.59-1.18 1.72-.94 3.03-.54 3.83.94 1.83 4.52 2.71 6.67 2.79h.32c4.03 0 7.82-2.55 10.01-4.95.72-.8 1.89-2.41 1.46-4.26-.46-2.03-2.93-2.66-4.75-2.97zm-.48 5.87c-1.11 1.21-3.8 2.22-5.4 2.65-.01-1.26.36-2.4 1.02-3.1.53-.55 1.21-.82 2.03-.82h1.38c.42 0 1.14-.06 1.76-.47.04.06.06.14.06.22.01.26-.13.72-.85 1.52z"/><path d="M44.87 195.3c-.21 1.35-2 2.74-2.96 2.74-.33 0-.69-.17-1.06-.5a1.23 1.23 0 0 0-.79-.26c-.61 0-1.41.36-1.63.96-.14.36-.03.72.3 1.02.78.67 1.7 1.01 2.74 1.01.65 0 1.32-.13 2.01-.41 1.67-.67 2.88-2.4 3.23-4.64a.833.833 0 0 0-.18-.69c-.57-.66-1.49-.31-1.66.77zm19.12-8.47c-.27 1.37-2.09 2.83-3.53 2.83-.38 0-.79-.1-1.22-.31-.58-.28-1.33-.21-1.88.18-.29.21-.56.61-.53 1 .02.26.17.47.43.59.92.45 1.86.67 2.8.67 2.84 0 5.17-2.03 5.78-5.04a.81.81 0 0 0-.16-.67c-.53-.64-1.47-.3-1.69.75zm-21.06 2.44c.84-.38.82-.91.78-1.11-.14-.67-1.19-1.07-2-.71-4.11 1.81-5.86 4.72-7.93 9.46-.18.4-1.09.69-.98.85.19.28.57.45 1.05.45.59 0 1.35-.26 1.59-.83 1.84-4.18 4.08-6.62 7.49-8.11zm9.3-4.6c.27 0 .54-.07.79-.2 4.22-2.18 7.82-3.19 11.32-3.19l.37.01c.8 0 1.76-.75 1.77-1.36 0-.2-.09-.66-.97-.68-4.4-.09-8.87.08-13.7 2.58-.81.42-.79 1.92-.73 2.12.1.42.57.72 1.15.72z"/></g><g fill="#7797AB"><path d="M61.73 264.38c.14.59 1.87 1.02 2.75 1.02.41 0 .82-.09 1.19-.27 1.74-.84 3.63-1.6 5.93-2.4-.23 2.79-2.43 5.49-3.59 8.11-.61 1.37-1.24 2.8-1.72 4.21-.14.4-.03.67.09.83.23.32.69.47 1.38.47.62 0 1.28-.12 1.55-.24l1.3-.58c3.35-1.49 6.82-2.02 9.91-4.16.82-.56.88-2.06.78-2.36-.2-.65-1.14-.88-1.86-.88-.64 0-1.21.16-1.61.43-1.97 1.36-5.08 2.43-7.12 3.37l.55-1.26c1.44-3.36 4.94-6.83 4.67-10.66-.02-.28-.21-.94-1.56-.94-.34 0-.72.04-.96.11-3.58 1.11-7.7 2.29-10.52 3.65-1.18.57-1.24 1.21-1.16 1.55zm13.67-19.91c.68 0 1.73-.14 2.19-.37 2.42-1.16 4.11-2.24 7.22-3.29-.02 4.1-1.72 7.98-3.37 11.75-.76 1.75-.56 3.57-1.17 5.37-.09.25 0 .42.06.5.18.24.52.27.76.27.84 0 2.27.56 2.45.48l1.77-.79c4.2-1.86 8.55-3.78 12.41-6.46.18-.12.59-1.39.47-1.76-.11-.34-.53-1.38-.89-1.38-.81 0-2.27.28-2.72.59-3 2.07-7.34 4.67-10.33 6.02.45-1.11.91-2.24 1.41-3.33 1.02-2.2 3.79-9.63 3.44-14.41-.01-.2-.14-.54-.88-.54-.57 0-1.33.19-1.5.24-4.73 1.45-7.82 4.01-11.5 5.78-.58.28-.95.54-.87.91.09.38.61.42 1.05.42zm-28.98-5.06c.42 0 .83-.09 1.2-.26 3.24-1.53 6.69-2.89 10.53-4.14-.12 4.57-2.08 8.93-3.97 13.14-.91 2.02-1.86 4.12-2.57 6.19-.14.4-.04.66.08.82.22.3.67.46 1.35.46.6 0 1.3-.13 1.58-.25l1.94-.85c4.98-2.16 10.12-4.4 14.73-7.5.81-.56.88-1.04.78-1.34-.19-.63-1.11-1.85-1.85-1.85-.64 0-1.2.15-1.61.41-3.66 2.47-7.59 5.31-11.64 7.09.47-1.14.98-2.28 1.47-3.39 2.18-4.9 4.43-10.98 4.02-16.55-.02-.28-.21-.92-1.53-.92-.4 0-.77.06-.98.13-5.26 1.57-9.87 4.31-14.1 6.3-1.19.56-1.24 1.19-1.17 1.51.14.58.86 1 1.74 1z"/><path fill-rule="evenodd" clip-rule="evenodd" d="M110.22 330.53H97.85c4.49-2.9 5.4-7.6 4.23-13.03-1.52-7.07-5.89-13.05-10.08-15.96-4.21-4-9.11-5.95-13.17-6.94l.01-.07.02-.46a.597.597 0 0 0-.17-.47c-.19-.2-.51-.27-.84-.2-4.13-12.53-15.86-21.93-27.4-21.93-1.84 0-3.66.23-5.44.7.58-.42.66-.81.58-1.1-.11-.52-1.75-1.85-2.58-1.85-.45 0-.89.09-1.29.28-17.28 8.3-23.68 25.05-17.88 41.18-7.18 3.79-10.83 10.53-11.87 20.86H6.46c-.84 0-2.81.88-2.81 1.68 0 .64.97.64 1.29.64h9.82c.23.04.55.03.81 0h9.25c.34 0 .81-.12 1.31-.35.35.7.84 1.32 1.49 1.91 3.28 2.94 7.44 3.31 10.69 3.31 1.39 0 2.79-.07 4.15-.14l1.33-.07c2.75-.12 5.56-.2 8.27-.28 6.77-.18 13.77-.36 20.59-1.39l1.22-.19c4.58-.68 9.77-1.44 14.42-3.13.2.06.44.09.72.09h19.88c1.22 0 2.76-1.21 2.76-2.16 0-.29-.14-.93-1.43-.93zm-14.15 0h-1.79c2.58-1.79 4.43-3.97 5.62-6.62 1.39-3.1 1.18-6.29.29-9.15 1.23 2.94 1.64 6.03 1.08 8.78-.63 3.09-2.42 5.51-5.2 6.99zm-48.33-5.35h.04c5 0 10.31-.94 14.97-2.64l.58-.03c-3.45 1.89-7.55 2.89-11.95 2.89-1.21 0-2.43-.07-3.64-.22zm15.18-5.53c-.66.06-1.27.34-1.68.78-.78.34-1.71.71-2.74 1.05-2.81.92-5.68 1.39-8.56 1.39-3.32 0-7.51-.61-10.5-1.83-.02-.05-.05-.09-.08-.14-.14-.19-.41-.28-.86-.25-6.26-2.85-10.74-8.11-12.62-14.81-2.67-9.47.95-18.75 8.37-26.17.32.16.76.21 1.12.21.78 0 .83-.21 1.3-.66 3.63-3.36 9.71-5.06 14.15-5.06 10.37 0 20.53 10.16 23.35 22.18 2.37 10.13-1.73 18.61-11.25 23.31zm-26.45 5.77c4.28 2.18 9.08 1.33 13.9 1.33 4.97 0 9.98-1.22 14.47-3.55.55-.29 1.12-.62 1.72-1.01 2.17-.27 4.36-.69 6.48-1.09 3.1-.59 6.3-1.2 9.49-1.39 1.3-.07 2.24-1.03 2.22-1.84-.01-.25-.15-1.07-1.59-1.07l-.24.01c-2.13.13-7.21.44-9.17.78 1.21-.87 5.44-2.59 6.43-3.16.22-.13.95-.59.9-1.12-.02-.19-.13-.43-.56-.56-.77-.25-1.98.95-2.83 1.44-1.85 1.06-4.25 2.52-6.41 4.41l-.59.11c.31-.35.62-.72.93-1.11 5.99-4.92 7.59-10.93 6.34-18.8.87.27 2.72.56 3.51.85 4.6 2.62 7.88 4.03 10.48 8.01 3.29 5.04 4.1 11.91 2.34 16.07-2.11 4.97-7.71 8.58-15.76 10.18-6.95 1.37-14.12 1.64-21.05 1.9-1.74.07-3.49.13-5.24.22-1.04.05-2.09.11-3.15.17-2.42.14-4.94.29-7.4.29-2.38 0-4.46-.13-6.35-.42-2.84-.43-4.43-1.58-4.75-3.43-.54-3.1 2.69-5.45 5.88-7.22zm-10.75-9.6c1.96 3.24 3.82 4.78 7.5 6.56-4.17 2.04-7.65 5.52-7.6 9.16h-7.31c.03-7.67 3.22-11.87 7.41-15.72zm-1.19-3.41c-5.91 3.73-8.69 12.33-9.44 19.13h-1.41c1-7.67 4.33-16.09 10.54-19.76l.01.03c.07.18.16.34.25.51l.05.09z"/><path fill-rule="evenodd" clip-rule="evenodd" d="M63.46 307.47c-.37-.06-.72-.02-1.11.12-.31-.12-.63-.18-1.03-.14-3.95.33-7.98 2.57-10.03 5.59-1.18 1.72-.94 3.03-.54 3.83.94 1.82 5.52 2.71 7.67 2.78h-.68c4.03 0 7.82-2.54 10.01-4.94.72-.8 1.89-2.41 1.46-4.26-.46-2.03-3.93-2.67-5.75-2.98zm.52 5.88c-1.11 1.21-3.8 2.22-5.4 2.65-.01-1.27.36-2.41 1.02-3.1.53-.55 1.21-.83 2.03-.83h1.19l.19.01c.42 0 1.14-.07 1.76-.48.04.07.06.15.06.23.01.26-.13.72-.85 1.52z"/><path d="M44.87 308.89c-.21 1.35-2.24 3.32-3.19 3.32-.34 0-1.46.25-1.83-.08a1.23 1.23 0 0 0-.79-.26c-.61 0-.41-.64-.63-.05-.14.36-.03.73.3 1.02.78.68 1.7 1.02 2.74 1.02.65 0 1.32-.13 2.01-.41 1.67-.67 2.88-2.41 3.23-4.64a.857.857 0 0 0-.18-.7c-.57-.65-1.49-.3-1.66.78zm19.12-8.48c-.27 1.38-2.09 2.84-3.53 2.84-.38 0-.79-.1-1.22-.31-.58-.29-1.33-.21-1.88.18-.29.2-.56.61-.53 1 .02.25.17.47.43.59.92.45 1.86.67 2.8.67 2.84 0 5.17-2.03 5.78-5.04a.81.81 0 0 0-.16-.67c-.53-.64-1.47-.31-1.69.74zm-21.06 2.44c.84-.37.82-.9.78-1.11-.14-.67-.19-1.06-1-.7-4.11 1.81-7.86 4.72-9.93 9.45-.18.41-.09.69.02.86.19.28.57.44 1.05.44.59 0 1.35-.25 1.59-.82 1.84-4.19 4.08-6.62 7.49-8.12zm9.3-4.6c.27 0 .54-.06.79-.2 4.22-2.17 7.82-3.18 11.32-3.18h.37c.8 0 1.76-.75 1.77-1.35 0-.2-.09-.66-.97-.68-4.4-.1-8.87 1.08-13.7 3.58-.81.42-.79.92-.73 1.11.1.43.57.72 1.15.72z"/></g><g fill="#7797AB"><path d="M61.73 378.06c.14.59.87 1.02 1.75 1.02.41 0 .82-.09 1.19-.27 1.74-.84 3.62-1.6 5.93-2.4-.23 2.79-1.43 5.49-2.59 8.11-.61 1.37-1.24 2.8-1.72 4.21-.14.4-.03.67.09.83.23.32.69.47 1.38.47.62 0 1.28-.12 1.55-.24l1.3-.58c3.35-1.49 6.82-3.02 9.91-5.16.82-.56.87-1.06.78-1.37-.21-.64-1.14-.87-1.87-.87-.63 0-1.2.15-1.6.43-1.97 1.36-4.08 2.43-6.13 3.37l.55-1.27c1.45-3.35 2.95-6.82 2.68-10.66-.02-.27-.21-.93-1.57-.93-.33 0-.71.04-.95.11-3.59 1.1-6.7 2.29-9.52 3.65-1.19.57-1.24 1.21-1.16 1.55zm13.67-19.91c.68 0 1.73-.14 2.19-.37 2.42-1.16 5.11-2.24 8.22-3.29-.02 4.1-1.73 7.98-3.37 11.75-.77 1.75-1.56 3.57-2.17 5.36-.09.25 0 .42.06.5.18.25.51.28.76.28.84 0 2.27-.44 2.45-.53l1.77-.78c4.2-1.86 8.54-3.78 12.41-6.46.17-.12.59-.4.47-.76-.11-.34-.53-.39-.89-.39-.82 0-2.28.29-2.72.6-3 2.07-6.35 3.67-9.33 5.02.45-1.11.93-2.24 1.41-3.33 1.86-4.25 3.79-8.63 3.44-13.41-.01-.2-.15-.54-.88-.54-.58 0-1.33.19-1.5.24-4.73 1.45-8.82 3.01-12.5 4.78-.58.28-.95.54-.87.91.09.38.61.42 1.05.42zm-28.98-5.06c.41 0 .82-.09 1.19-.26 3.25-1.53 6.7-2.89 10.54-4.14-.12 4.57-2.08 8.93-3.98 13.14-.91 2.02-1.85 4.12-2.56 6.19-.14.4-.04.66.07.81.23.31.68.47 1.36.47.6 0 1.3-.13 1.58-.25l1.94-.85c4.98-2.16 10.12-4.4 14.73-7.51.81-.55.88-1.03.78-1.33-.19-.63-1.12-.86-1.85-.86-.64 0-1.21.16-1.61.42-3.66 2.47-7.59 4.31-11.65 6.09.48-1.14.98-2.28 1.48-3.39 2.18-4.91 4.43-9.98 4.02-15.55-.02-.28-.21-.92-1.53-.92-.4 0-.78.06-.98.12-5.26 1.58-9.88 3.32-14.1 5.31-1.19.56-1.24 1.19-1.17 1.51.13.58.86 1 1.74 1z"/><path fill-rule="evenodd" clip-rule="evenodd" d="M110.22 444.21H97.85c4.49-2.9 6.39-7.6 5.23-13.04-1.52-7.06-6.89-12.05-11.08-14.95-4.21-4-9.11-6.96-13.17-7.94l.01-.07.02-.46a.604.604 0 0 0-.18-.48c-.18-.19-.5-.26-.83-.19-4.13-12.53-15.86-21.93-27.4-21.93-1.85 0-3.67.23-5.45.7.59-.42.67-.81.59-1.1-.12-.52-.75-.85-1.58-.85-.45 0-.89.09-1.29.28-17.29 8.3-24.68 24.05-18.88 40.18-7.19 3.79-9.96 12.23-11.87 20.85l-5.51 1c-.84 0-2.81-.11-2.81.69 0 .64.97.64 1.29.64h9.82c.23.04.55.03.81 0h9.25c.34 0 .81-.12 1.31-.35.35.7.84 1.32 1.49 1.91 3.28 2.94 7.44 3.31 10.69 3.31 1.38 0 2.79-.07 4.15-.14l1.33-.07c2.75-.12 5.56-.2 8.27-.28 6.76-.18 13.77-.37 20.59-1.39l1.22-.19c4.58-.68 9.76-1.44 14.42-3.13.19.06.44.09.72.09l19.88-1c1.22 0 2.76-.21 2.76-1.17 0-.28-.14-.92-1.43-.92zm-14.15 0h-1.8c2.59-1.79 4.43-3.97 5.63-6.62 1.39-3.1 1.18-6.29.29-9.15 1.22 2.94 1.64 6.03 1.08 8.78-.63 3.09-2.43 5.51-5.2 6.99zm-48.33-5.35h.04c5 0 10.31-.94 14.97-2.65l.58-.03c-3.45 1.9-7.55 2.9-11.95 2.9-1.22 0-2.43-.07-3.64-.22zm15.18-5.53c-.66.05-1.28.34-1.68.78-.78.33-1.71.71-2.74 1.05-2.81.92-5.69 1.39-8.56 1.39-3.32 0-6.51-.62-9.5-1.83-.02-.05-.05-.09-.08-.14-.15-.19-.42-.28-.87-.25-6.26-2.85-10.73-8.12-12.62-14.81-2.66-9.47-1.04-16.76 6.38-24.18.31.17.76.22 1.12.22.77 0 1.83-.21 2.3-.66 3.62-3.36 8.71-6.07 13.15-6.07 10.37 0 22.52 9.17 25.34 21.19 2.38 10.13-2.72 18.61-12.24 23.31zm-26.45 3.77c4.27 2.18 9.08 3.33 13.9 3.33 4.97 0 9.97-1.23 14.46-3.55.56-.29 1.13-.62 1.72-1.01 2.18-.27 4.37-1.69 6.48-2.1 3.1-.58 6.31-1.19 9.5-1.38 1.3-.07 2.24-.03 2.21-.84 0-.25-.14-1.07-1.58-1.07l-.25.01c-2.13.13-4.2.43-6.17.78 1.22-.87 2.44-1.6 3.44-2.16.22-.13.95-.6.9-1.12-.02-.19-.13-.43-.56-.56-.77-.25-1.98-.05-2.83.44-1.85 1.06-4.25 2.52-6.41 4.41l-.6.11c.32-.35.63-.72.94-1.11 5.99-4.92 8.59-11.93 7.34-19.8.87.27 1.72.56 2.51.85 4.6 2.61 7.87 7.03 10.47 11 3.3 5.04 4.11 9.92 2.35 14.08-2.11 4.97-7.71 8.58-15.77 10.18-6.94 1.36-14.11 2.64-21.04 2.9-1.74.07-3.49.13-5.24.22-1.04.04-2.09-.89-3.15-.83-2.42.14-4.94.29-7.41.29-2.38 0-4.45-.14-6.34-.42-2.84-.43-4.43-1.58-4.76-3.43-.53-3.1 2.7-7.45 5.89-9.22zm-9.75-9.6c1.96 3.24 3.82 6.78 7.5 8.55-4.17 2.05-8.65 5.53-8.6 9.16h-6.31c.39-5.34 3.22-13.86 7.41-17.71zm-2.2-1.41c-5.9 3.73-9.68 12.33-10.43 19.12h-.41c1.78-8.12 4.32-16.08 10.54-19.75l.01.03c.07.18.16.34.25.51l.04.09z"/><path fill-rule="evenodd" clip-rule="evenodd" d="M64.45 421.15c-.36-.06-.71-.02-1.11.12-.3-.12-.62-.18-1.02-.14-3.95.33-7.98 2.57-10.03 5.58-1.19 1.73-.94 3.04-.54 3.84.93 1.82 3.52 2.71 5.67 2.78h.32c4.03 0 7.81-2.54 10-4.94.73-.8 1.9-2.41 1.47-4.26-.46-2.03-2.93-2.67-4.76-2.98zm-.48 5.88c-1.1 1.21-2.79 2.22-4.4 2.64 0-1.26.37-2.4 1.03-3.09.52-.56 1.21-.83 2.03-.83h.19l.19.01c.41 0 1.14-.07 1.76-.48.03.07.06.15.06.23.01.26-.13.72-.86 1.52z"/><path d="M43.87 422.57c-.22 1.35-1 2.73-1.96 2.73-.34 0-.69-.16-1.06-.49a1.23 1.23 0 0 0-.79-.26c-.62 0-1.41.36-1.63.95-.14.36-.03.73.3 1.02.78.68 1.7 1.02 2.73 1.02.66 0 1.33-.13 2.02-.41 1.67-.67 2.88-2.41 3.23-4.64.05-.35-.07-.57-.18-.7-.57-.65-2.49-.3-2.66.78zm19.12-8.48c-.27 1.38-1.09 2.84-2.53 2.84-.38 0-.79-.1-1.22-.31-.58-.29-1.33-.21-1.88.18-.29.2-.56.61-.53.99.02.26.17.47.43.6.92.45 1.86.67 2.8.67 2.84 0 5.16-2.03 5.77-5.04a.779.779 0 0 0-.15-.67c-.53-.65-2.47-.31-2.69.74zm-20.06 2.44c.83-.37.82-.9.78-1.11-.14-.67-1.19-1.06-2-.7-4.11 1.8-6.87 4.72-8.94 9.45-.17.41-.09.69.02.85.19.29.58.45 1.06.45.59 0 1.35-.25 1.59-.82 1.84-4.19 4.08-6.62 7.49-8.12zm9.3-4.6c.27 0 .54-.06.79-.2 4.22-2.17 7.82-3.18 11.32-3.18h.37c.79 0 1.76-.75 1.77-1.36 0-.19-.09-.65-.97-.67-4.41-.1-8.87 1.08-13.7 3.58-.81.41-.79.91-.74 1.11.11.43.58.72 1.16.72z"/></g></svg>