<?xml version="1.0" encoding="utf-8"?>
<!-- Generator: Adobe Illustrator 24.0.1, SVG Export Plug-In . SVG Version: 6.00 Build 0)  -->
<svg version="1.1" id="Camada_1" xmlns="http://www.w3.org/2000/svg" xmlns:xlink="http://www.w3.org/1999/xlink" x="0px" y="0px"
	 viewBox="0 0 31.2 28.7" style="enable-background:new 0 0 31.2 28.7;" xml:space="preserve">
<style type="text/css">
	.st0{fill:#0D76F6;}
	.st1{clip-path:url(#SVGID_2_);}
</style>
<g>
	<title>Group 6</title>
	<desc>Created with Sketch.</desc>
</g>
<path class="st0" d="M29,9.2L29,9.2c-0.2-1.9-1.3-5.2-5.3-6.6c-0.5-0.2-1-0.3-1.6-0.4C20.7,2,19.1,2.5,18,3.5L7,13.2
	c-0.4,0.3-0.7,0.8-0.8,1.1l-3.5,8.7c-0.4,1.1-0.1,2.3,0.6,3.1c0.4,0.4,0.8,0.7,1.3,0.9c0.6,0.2,1.2,0.2,1.8,0.1l9-2.5
	c0.5-0.1,1-0.4,1.4-0.8l10.5-9.8C28.6,12.8,29.3,11,29,9.2z"/>
<g>
	<defs>
		<path id="SVGID_1_" d="M27.3,9.5c-0.2-1.5-1-4.1-4.1-5.1c-0.4-0.1-0.9-0.3-1.3-0.3c-1-0.2-2,0.1-2.7,0.8L8.2,14.5
			c-0.2,0.2-0.3,0.4-0.4,0.6l-3.5,8.6c-0.2,0.5-0.1,1,0.3,1.4c0.2,0.2,0.4,0.3,0.6,0.4c0.2,0.1,0.5,0.1,0.8,0l9-2.5
			c0.2-0.1,0.5-0.2,0.7-0.4l10.5-9.7C27,11.9,27.5,10.7,27.3,9.5 M24.9,5.8c0,0-0.1-0.1-0.1-0.1C24.8,5.7,24.8,5.8,24.9,5.8
			 M24.1,5.2c0,0-0.1,0-0.1-0.1C24,5.2,24,5.2,24.1,5.2 M9.6,16c0.7,0.2,2.2,0.7,3.1,1.7c0.9,0.9,1.2,2.4,1.2,3.1
			c0,0.2-0.1,0.4-0.3,0.4l-4.9,1.3c-0.1-0.5-0.7-1.4-1.5-1.6l2.1-4.8C9.4,16,9.5,16,9.6,16 M26.5,8.3c0,0,0,0.1,0,0.1
			C26.6,8.3,26.6,8.3,26.5,8.3"/>
	</defs>
	<use xlink:href="#SVGID_1_"  style="overflow:visible;fill-rule:evenodd;clip-rule:evenodd;fill:#00D0FE;"/>
	<clipPath id="SVGID_2_">
		<use xlink:href="#SVGID_1_"  style="overflow:visible;"/>
	</clipPath>
	<g class="st1">
		<defs>
			
				<rect id="SVGID_3_" x="-376.8" y="-441.6" transform="matrix(0.3235 -0.9462 0.9462 0.3235 184.816 15.3921)" width="960" height="640"/>
		</defs>
		<use xlink:href="#SVGID_3_"  style="overflow:visible;fill:#00D0FE;"/>
		<clipPath id="SVGID_4_">
			<use xlink:href="#SVGID_3_"  style="overflow:visible;"/>
		</clipPath>
	</g>
</g>
</svg>
