<?xml version="1.0" encoding="utf-8"?>
<!-- Generator: Adobe Illustrator 24.0.0, SVG Export Plug-In . SVG Version: 6.00 Build 0)  -->
<svg version="1.1" id="Camada_1" xmlns="http://www.w3.org/2000/svg" xmlns:xlink="http://www.w3.org/1999/xlink" x="0px" y="0px"
	 viewBox="0 0 180 180" style="enable-background:new 0 0 180 180;" xml:space="preserve">
<style type="text/css">
	.st0{fill:#002043;}
	.st1{fill:#FFFFFF;}
	.st2{clip-path:url(#SVGID_2_);}
	.st3{fill:#FCFCFC;}
	.st4{fill:#3F8214;}
	.st5{fill:#BC2F2F;}
	.st6{clip-path:url(#SVGID_4_);}
	.st7{clip-path:url(#SVGID_6_);}
	.st8{clip-path:url(#SVGID_8_);}
	.st9{fill:#006699;}
	.st10{clip-path:url(#SVGID_10_);}
	.st11{fill:#081C2D;}
	.st12{fill:#FFC303;}
	.st13{clip-path:url(#SVGID_12_);}
	.st14{clip-path:url(#SVGID_14_);}
	.st15{clip-path:url(#SVGID_16_);}
	.st16{clip-path:url(#SVGID_18_);}
	.st17{clip-path:url(#SVGID_20_);}
	.st18{fill:none;}
	.st19{clip-path:url(#SVGID_22_);}
	.st20{clip-path:url(#SVGID_24_);}
	.st21{clip-path:url(#SVGID_26_);}
	.st22{clip-path:url(#SVGID_28_);}
	.st23{clip-path:url(#SVGID_30_);fill:#BC2F2F;}
	.st24{fill:#F9C623;}
	.st25{clip-path:url(#SVGID_32_);}
	.st26{clip-path:url(#SVGID_34_);}
	.st27{clip-path:url(#SVGID_36_);}
</style>
<g>
	<g>
		<circle class="st0" cx="90" cy="90" r="74.15"/>
		<path class="st0" d="M89.99,176.3c-47.59,0-86.29-38.7-86.29-86.29S42.41,3.7,89.99,3.7s86.3,38.72,86.3,86.3
			S137.58,176.3,89.99,176.3z M89.99,27.99c-34.19,0-62.01,27.82-62.01,62.02c0,34.19,27.82,62.01,62.01,62.01
			c34.2,0,62.02-27.82,62.02-62.01C152.01,55.81,124.19,27.99,89.99,27.99z"/>
	</g>
	<g>
		<circle class="st1" cx="90" cy="90" r="74.15"/>
	</g>
	<g>
		<defs>
			<circle id="SVGID_1_" cx="90" cy="90" r="65.45"/>
		</defs>
		<clipPath id="SVGID_2_">
			<use xlink:href="#SVGID_1_"  style="overflow:visible;"/>
		</clipPath>
		<g class="st2">
			<g>
				
					<rect x="64.1" y="-35.77" transform="matrix(-1.836970e-16 1 -1 -1.836970e-16 132.011 -42.7432)" class="st3" width="46.56" height="160.81"/>
			</g>
			<g>
				
					<rect x="64.1" y="11.18" transform="matrix(-1.836970e-16 1 -1 -1.836970e-16 178.9645 4.2104)" class="st4" width="46.56" height="160.81"/>
			</g>
			<g>
				
					<rect x="64.1" y="58.14" transform="matrix(-1.836970e-16 1 -1 -1.836970e-16 225.918 51.1639)" class="st5" width="46.56" height="160.81"/>
			</g>
		</g>
	</g>
</g>
</svg>
