<svg id="Camada_1" data-name="Camada 1" xmlns="http://www.w3.org/2000/svg" xmlns:xlink="http://www.w3.org/1999/xlink" viewBox="0 0 192.42 190.07"><defs><style>.cls-1{fill:none;}.cls-2{fill:#002043;}.cls-3{fill:#fff;}.cls-4{clip-path:url(#clip-path);}.cls-5{fill:#bc2f2f;}.cls-6{fill:#f9c623;}</style><clipPath id="clip-path"><circle class="cls-1" cx="96.21" cy="95.04" r="70.4"/></clipPath></defs><title>CHINA</title><circle class="cls-2" cx="96.21" cy="95.04" r="79.76"/><path class="cls-2" d="M96.2,187.86A92.83,92.83,0,1,1,189,95,92.92,92.92,0,0,1,96.2,187.86Zm0-159.53A66.71,66.71,0,1,0,162.91,95,66.77,66.77,0,0,0,96.2,28.33Z"/><circle class="cls-3" cx="96.21" cy="95.04" r="79.76"/><g class="cls-4"><polygon class="cls-5" points="-32.28 -18 -32.28 32.52 -32.28 83.03 -32.28 110.46 -32.28 160.96 -32.28 211.47 219.05 211.47 219.05 160.96 219.05 110.46 219.05 83.03 219.05 32.52 219.05 -18 -32.28 -18"/></g><polygon class="cls-6" points="61.45 58.43 66.53 68.72 77.9 70.38 69.67 78.39 71.62 89.71 61.45 84.36 51.29 89.71 53.23 78.39 45.01 70.38 56.37 68.72 61.45 58.43"/><polygon class="cls-6" points="92.23 50.6 94.68 55.57 100.16 56.36 96.2 60.23 97.13 65.68 92.23 63.11 87.34 65.68 88.27 60.23 84.31 56.36 89.78 55.57 92.23 50.6"/><polygon class="cls-6" points="100.16 73.2 102.61 78.16 108.09 78.96 104.13 82.82 105.06 88.28 100.16 85.7 95.26 88.28 96.2 82.82 92.23 78.96 97.71 78.16 100.16 73.2"/><polygon class="cls-6" points="92.23 95.04 94.68 100 100.16 100.8 96.2 104.66 97.13 110.11 92.23 107.54 87.34 110.11 88.27 104.66 84.31 100.8 89.78 100 92.23 95.04"/><polygon class="cls-6" points="72.65 101.81 75.1 106.77 80.58 107.57 76.61 111.43 77.55 116.89 72.65 114.31 67.75 116.89 68.69 111.43 64.72 107.57 70.2 106.77 72.65 101.81"/></svg>