<svg id="Camada_1" data-name="Camada 1" xmlns="http://www.w3.org/2000/svg" xmlns:xlink="http://www.w3.org/1999/xlink" viewBox="0 0 192.42 190.07"><defs><style>.cls-1{fill:none;}.cls-2{fill:#002043;}.cls-3{fill:#fff;}.cls-4{clip-path:url(#clip-path);}.cls-5{fill:#bc2f2f;}.cls-6{fill:#069;}</style><clipPath id="clip-path"><circle class="cls-1" cx="96.21" cy="95.04" r="70.4"/></clipPath></defs><title>chines_tradicional</title><circle class="cls-2" cx="96.21" cy="95.04" r="79.76"/><path class="cls-2" d="M96.2,187.86A92.83,92.83,0,1,1,189,95,92.92,92.92,0,0,1,96.2,187.86Zm0-159.53A66.71,66.71,0,1,0,162.91,95,66.77,66.77,0,0,0,96.2,28.33Z"/><circle class="cls-3" cx="96.21" cy="95.04" r="79.76"/><g class="cls-4"><rect class="cls-5" x="7.88" y="0.29" width="171.02" height="172.98" transform="translate(180.16 -6.61) rotate(90)"/><rect class="cls-6" x="-41.3" y="-47.11" width="118.61" height="172.98" transform="translate(57.38 21.38) rotate(90)"/></g><polygon class="cls-3" points="70.87 40.36 76.51 54.64 91.19 50.14 83.54 63.45 96.21 72.13 81.03 74.45 82.14 89.76 70.87 79.34 59.59 89.76 60.71 74.45 45.53 72.13 58.2 63.45 50.55 50.14 65.23 54.64 70.87 40.36"/></svg>