<?xml version="1.0" encoding="utf-8"?>
<!-- Generator: Adobe Illustrator 24.2.0, SVG Export Plug-In . SVG Version: 6.00 Build 0)  -->
<svg version="1.1" id="Camada_1" xmlns="http://www.w3.org/2000/svg" xmlns:xlink="http://www.w3.org/1999/xlink" x="0px" y="0px"
	 viewBox="0 0 192.4 190.1" style="enable-background:new 0 0 192.4 190.1;" xml:space="preserve">
<style type="text/css">
	.st0{fill:#002043;}
	.st1{fill:#FFFFFF;}
	.st2{clip-path:url(#SVGID_2_);}
	.st3{fill:#005099;}
	.st4{fill:#CC3232;}
	.st5{fill:#0057B0;}
</style>
<circle class="st0" cx="96.2" cy="95.1" r="79.8"/>
<path class="st0" d="M3.3,95.1c0-51.3,41.5-92.8,92.8-92.9S189,43.7,189,95c0,51.3-41.5,92.8-92.8,92.9C45,187.8,3.4,146.3,3.3,95.1
	z M162.9,95.1c0-36.8-29.9-66.7-66.7-66.7c-36.8,0-66.7,29.9-66.7,66.7s29.9,66.7,66.7,66.7c0,0,0,0,0,0
	C133,161.7,162.8,131.9,162.9,95.1z"/>
<circle class="st1" cx="96.2" cy="95.1" r="79.8"/>
<g>
	<defs>
		<circle id="SVGID_1_" cx="96.2" cy="95.1" r="70.4"/>
	</defs>
	<clipPath id="SVGID_2_">
		<use xlink:href="#SVGID_1_"  style="overflow:visible;"/>
	</clipPath>
	<g class="st2">
		<rect x="6.9" y="21.2" class="st1" width="173" height="50.1"/>
		<rect x="6.9" y="72.1" class="st3" width="173" height="50.1"/>
		<rect x="6.9" y="122.2" class="st4" width="173" height="50.1"/>
	</g>
</g>
<g>
	<path class="st4" d="M51.5,65.2l-1.1,30.2c-0.5,14.4,7.9,27.7,21.3,33c1.3,0.5,2.6,1,4,1.4v0.1c0,0,0.1,0,0.1,0c0,0,0.1,0,0.1,0
		l0-0.1c0.6-0.2,1.2-0.3,1.9-0.5c14.6-4.5,24-18.6,23.5-33.8l-1.1-30.3H51.5z"/>
	<polygon class="st1" points="92,91.7 78.5,91.7 78.5,85.8 88.6,85.8 88.6,80.3 78.5,80.3 78.5,70.5 73.1,70.5 73.1,80.3 63,80.3 
		63,85.8 73.1,85.8 73.1,91.7 59.6,91.7 59.6,97.3 73.1,97.3 73.1,109.1 78.5,109.1 78.5,97.3 92,97.3 	"/>
	<path class="st5" d="M97.5,112c0,0-4.7-7.2-13.2-1.4c0,0-3.5-4.6-8.4-4.5c-4.9-0.1-8.4,4.5-8.4,4.5c-8.5-5.8-13.2,1.4-13.2,1.4
		c6,13.2,18.7,17.1,21.4,17.8l0,0.1c0,0,0.1,0,0.2,0c0.1,0,0.2,0,0.2,0l0-0.1C78.7,129.1,91.5,125.2,97.5,112z"/>
</g>
<path class="st1" d="M103.8,68.7c0-0.8-0.3-6.5-0.3-6.5l0-0.5l-0.5,0c-0.6,0-6.3,0-15.5,0c-14.4,0-36,0-36,0l-3.4,0l-1.2,33.6
	c-0.3,8.9,2.5,17.7,8,24.7c7,9.3,19.6,13.4,20.9,13.4l0.3,0c0.2,0,24.4-5.5,28.3-30.7C105,97.8,104.4,82.7,103.8,68.7z M50.9,95.4
	L52,65.7c3.3,0,22.4,0,35.5,0c8.3,0,11.2,0,12.2,0c0,0.5,0.1,1.5,0.1,3.1c0.4,8.4,1.3,28.1,0.6,33.2c-3.2,21.2-22.9,26.8-24.6,27.3
	c-1.1-0.3-11.6-3.8-17.7-11.8C53.1,111.2,50.6,103.4,50.9,95.4z"/>
</svg>
