<svg id="Camada_1" data-name="Camada 1" xmlns="http://www.w3.org/2000/svg" xmlns:xlink="http://www.w3.org/1999/xlink" viewBox="0 0 192.42 190.07"><defs><style>.cls-1{fill:none;}.cls-2{fill:#002043;}.cls-3{fill:#bc2f2f;}.cls-4{fill:#fff;}.cls-5{clip-path:url(#clip-path);}</style><clipPath id="clip-path"><circle class="cls-1" cx="96.21" cy="95.04" r="70.4"/></clipPath></defs><title>turkish</title><circle class="cls-2" cx="96.21" cy="95.04" r="79.76"/><path class="cls-2" d="M189,95A92.83,92.83,0,1,1,96.22,2.21,92.92,92.92,0,0,1,189,95ZM29.51,95A66.7,66.7,0,1,0,96.22,28.33,66.78,66.78,0,0,0,29.51,95Z"/><circle class="cls-3" cx="96.21" cy="95.04" r="74.62"/><path class="cls-4" d="M96.21,25.55A69.49,69.49,0,1,1,26.73,95,69.57,69.57,0,0,1,96.21,25.55m0-10.28A79.77,79.77,0,1,0,176,95,79.77,79.77,0,0,0,96.21,15.27Z"/><g class="cls-5"><rect class="cls-1" x="73.99" y="-43.66" width="50.08" height="172.98" transform="translate(56.2 141.86) rotate(-90)"/></g><polygon class="cls-4" points="102.46 81.58 105.66 88.06 112.81 89.1 107.64 94.15 108.86 101.27 102.46 97.91 96.06 101.27 97.28 94.15 92.11 89.1 99.26 88.06 102.46 81.58"/><path class="cls-4" d="M80.78,113.31A21.89,21.89,0,1,1,95.22,75.1a26.62,26.62,0,1,0,0,32.66A21.74,21.74,0,0,1,80.78,113.31Z"/></svg>