<svg id="Camada_1" data-name="Camada 1" xmlns="http://www.w3.org/2000/svg" viewBox="0 0 1917 443"><defs><style>.cls-1{fill:#231f20;}</style></defs><title>logo_gio_lines</title><path class="cls-1" d="M498.14,210.74a42.56,42.56,0,1,0,42.55,42.56A42.6,42.6,0,0,0,498.14,210.74Zm0,65.51a20.39,20.39,0,1,1,20.39-20.39A20.4,20.4,0,0,1,498.14,276.25Z"/><path class="cls-1" d="M1737.32,198a80.51,80.51,0,0,0-33.22-7.49c-13.16,0-23.79,3.79-27.7,10-6.43,10.15-3.68,14.44-2.65,16.05,6.15,9.61,29.21,17.3,57.17,13.56a121,121,0,0,0,34.32-10,0,0,0,0,0,0,0A75.1,75.1,0,0,0,1737.32,198Z"/><path class="cls-1" d="M1897.94,131.66c-3.61-16.32-15.08-27.52-34.09-33.27l-.4-.1c-37-5.62-44.78,16.57-53.07,40.05-2.83,8-5.74,16.26-9.88,24.2-29.31-27.52-77.07-42-117.26-35.44-21.65,3.57-50.82,14.69-66.81,47.41-13.85,27.2-11.25,58.59,6.25,82a46,46,0,0,0-23.12-.14c-12.72,3.17-23,11.25-28.23,22.22-1.57,3.49-2.9,7.28-4.32,11.33-3.26,9.3-6.63,18.91-12.57,22.74l-.42.32c-4.19,3.95-8,5.41-11.35,4.34-4.83-1.54-20.34-5.84-22.06-49.5-.26-6.86-1.66-20.57-2.16-27-1.09-13.8-2-25.73-8.91-33.31a43.77,43.77,0,0,0-9.92-10,52.76,52.76,0,0,0,25.75-45.29v-1a52.76,52.76,0,1,0-105.51,0v1a52.76,52.76,0,0,0,26.81,45.89c-9.59,7.26-17.16,19.27-17.48,36.62a293.66,293.66,0,0,0,7.22,73.22c.89,4.06.92,7.73-8.61,7.32a42.57,42.57,0,0,0-7.94.33,49.9,49.9,0,0,0-17.24,6.31,63.29,63.29,0,0,0-34.73-75.37,64.24,64.24,0,0,0,9.39-7.14,63.28,63.28,0,0,0,3.81-89.33c-1.52-1.66-3-3.21-4.51-4.72a151.4,151.4,0,0,0-107.74-44.62c-61.28,0-111.93,36.42-136.53,88.69a63.24,63.24,0,0,0-28.62-47.71,62.54,62.54,0,0,0,29.47-53V87.51a62.54,62.54,0,0,0-125.08,0v1.28A62.5,62.5,0,0,0,1036.27,141a63.65,63.65,0,0,0-12.94,10.57,63.52,63.52,0,0,0-39.66-35.21,63.22,63.22,0,0,0-126.33.41,62.94,62.94,0,0,0-16.5,8.24,59.49,59.49,0,0,0-21.71-10.22,75.56,75.56,0,0,0-24.5-3.69c-16.11,0-33.13,3.9-50.75,11.63-11.38-9.61-24.92-15-38.47-15a63.25,63.25,0,0,0-54.72,31.62,63.21,63.21,0,0,0-52.27-27.71c-16.1,0-30.66,5.16-41.74,14.26C539.09,114.34,520.33,109,498.14,109c-64,0-118.52,41.14-138.58,98.35-.35-.67-.7-1.34-1.06-2a89.37,89.37,0,0,0-27.84-31,57.21,57.21,0,0,0,7.6-6.08A63.2,63.2,0,0,0,340.7,79c-39.06-41.25-94.38-46.54-138.21-46.54-101.82,0-184.66,82.84-184.66,184.67s82.84,184.66,184.66,184.66c65.19,0,119.31-28.92,152.4-81.44a111.15,111.15,0,0,0,6.32-11.51,147,147,0,0,0,136.93,93.87c23.84,0,45.5-5.75,62.53-16.25a55.51,55.51,0,0,0,37.75,15,63.2,63.2,0,0,0,53.1-29,63.2,63.2,0,0,0,117.1-33V269.8c0-.61,0-1.32,0-2.21-.33-7.89.49-21.44,9.62-23.56,2.79-.65,10.25-1.4,22.11-1.4h4.27a63,63,0,0,0,38-12.69,63.06,63.06,0,0,0,14.71,7V345a63.22,63.22,0,0,0,126.43,0V237.41a63.25,63.25,0,0,0,22.39-12.2V341.12a63.22,63.22,0,0,0,126.43,0V321.64c25.47,47.7,78,83.7,136.29,84A152.56,152.56,0,0,0,1378.52,359a51.49,51.49,0,0,0,10.19,37.28c16.91,22.21,49.26,27,71.29,9.83a50,50,0,0,0,16.28-22.37c17.75,16.5,45.92,25.86,69.55,26.47a93.68,93.68,0,0,0,65.82-24.71c23.79,21,55,32.54,88,32.54h.32c43.22-1,81.37-17.51,107.42-46.56,27.33-30.48,40.26-73.51,36.46-121.26C1864.11,231.38,1907,172.43,1897.94,131.66ZM1029.56,87.94a41.06,41.06,0,0,1,82.12,0v1.28a41.06,41.06,0,0,1-82.12,0Zm-693.41,218C307.26,351.79,259.79,377,202.49,377,112.89,377,40,304.14,40,214.53S112.89,52,202.49,52c39.39,0,88.87,4.51,122.12,39.62a41.06,41.06,0,0,1-1.58,58A32.52,32.52,0,0,1,300,158.85c-11.57,0-23.79-5.16-34.23-10.21-26.59-12.86-42.78-14.59-55.11-14.59-1.53,0-3,0-4.38,0l-3.76,0a80.4,80.4,0,0,0,0,160.8c19.76,0,46.84-5.62,63.92-32.34-15.48,0-32.21-.1-40.93-.13a41.25,41.25,0,1,1-5.27-82.16,4.26,4.26,0,0,1,.5,0h.12c1.78,0,44,.2,66.34.2,21.11,0,40.52,12.34,51.93,33C351.94,236.81,356,274.41,336.15,305.94ZM174.7,268.27a58.23,58.23,0,0,1,27.79-109.41c1.21,0,2.45,0,3.75,0h.59c1.21,0,2.47,0,3.8,0a75,75,0,0,1,17.65,2l-6,0h-.74c-.44,0-.9,0-1.34,0A63.4,63.4,0,0,0,174.7,268.27Zm464.78,67.35a41.11,41.11,0,0,1-41.06,41.05c-14.27,0-26.74-9.21-34-24.88C550.9,368.25,526.55,378,498.14,378a124.67,124.67,0,0,1,0-249.33c24.61,0,42.89,7.56,62.19,25.9,5.89-14.3,20.4-23.33,38.09-23.33a41.11,41.11,0,0,1,41.06,41.06Zm164.29-117.7-3.45,0c-12,0-21.63.71-27.12,2-25.61,5.94-27.24,34.18-26.76,46.05a10.26,10.26,0,0,1,0,1.07v69.84a41.06,41.06,0,0,1-82.11,0V168.35a41.11,41.11,0,0,1,41.06-41.06c13.42,0,30.49,8.83,33.5,28.13,17.13-16.62,38.38-24,51.08-24a111.47,111.47,0,0,1,22.91,2.11,36.78,36.78,0,0,1,13.26,5.69,63.07,63.07,0,0,0-1.38,73.4,41,41,0,0,1-20.19,5.3Zm161.65.15h-3.85v127a41.06,41.06,0,1,1-82.11,0v-127H876.9a41.06,41.06,0,1,1,0-82.11h2.56V119.29a41.06,41.06,0,1,1,82.11,0V136h3.85a41.06,41.06,0,0,1,0,82.11Zm145,120.48a41.06,41.06,0,0,1-82.11,0V192.3a41.1,41.1,0,0,1,39.92-41c.81,0,1.61.06,2.42.06.33,0,.65,0,1,0a41.11,41.11,0,0,1,38.79,41Zm330.08-186.9a32.15,32.15,0,0,1,64.29,0v1a32.15,32.15,0,1,1-64.29,0Zm-64.91,173.64a130.23,130.23,0,1,1-14.65-166.7c1.3,1.3,2.58,2.63,3.88,4a41.05,41.05,0,1,1-60.5,55.51c-.48-.51-15.87-16.39-35.45-15.58-26.51,1.09-48.11,21.58-48.11,48.11a48.11,48.11,0,0,0,87.57,27.53,41.05,41.05,0,0,1,67.26,47.09Zm-66.93-74.7a63.24,63.24,0,0,0-18.48,17.47,26,26,0,1,1-21.31-40.78,25.68,25.68,0,0,1,18.25,7.5l.87.91A63.17,63.17,0,0,0,1308.63,250.59Zm119.48,144.85a29.13,29.13,0,1,1,29.13-29.13A29.13,29.13,0,0,1,1428.11,395.44Zm389.56-159.59h0c5.44,22.41,4.86,49.22-4.83,80.43-7.33,23.63-23.63,44.45-45.9,58.61a125.91,125.91,0,0,1-67,19.51c-1.19,0-2.38,0-3.57-.05-24.19-.72-46.57-8.65-64.71-22.93a107,107,0,0,1-20.22-21.06h0a99.38,99.38,0,0,1-12.81,16.42c-14.53,14.87-43.25,21-61.29,18.82-20.7-2.53-85.56-12.08-85.56-151.48h0c-.36-11.45,9.66-21,21.1-21.38a20.73,20.73,0,0,1,21.38,20.08h0c0,88.1,24.3,107.46,44.79,107.46,11.08,0,40.65-8.33,50.73-44.06.15-.55.29-1,.5-1.59.14-.42.36-1.06.49-1.47a20.74,20.74,0,0,1,40,1.08c4.79,19.47,13.73,34.47,26.58,44.58,11.11,8.75,25,13.61,40.3,14.07a83.92,83.92,0,0,0,47.06-13c9.9-6.3,22.88-17.64,28.56-35.92,5.42-17.48,7.06-32.28,6.19-44.8h0a161.24,161.24,0,0,1-43,12,153.22,153.22,0,0,1-20.25,1.37c-34.49,0-63.69-12.35-77.34-33.66-11.46-17.89-10.53-40,2.54-60.61,19.32-30.49,69.1-38.36,113.34-17.92a115.76,115.76,0,0,1,44.76,36.21h0c16.44-15.93,28.68-36.51,36.45-61.32a20.73,20.73,0,1,1,39.57,12.38C1864.05,184.23,1844.6,213.9,1817.67,235.85Zm-167,45c27,15.63,64.42,21.42,100.31,15.32-5.32,15.9-20.48,28.3-39.54,32-19.84,3.87-38.1-2.44-47.64-16.47l-.06-.09c-4.33-5.67-7-13.45-9.53-21C1653.06,287.27,1651.94,284,1650.68,280.89Z"/></svg>