<?xml version="1.0" encoding="utf-8"?>
<!-- Generator: Adobe Illustrator 24.0.1, SVG Export Plug-In . SVG Version: 6.00 Build 0)  -->
<svg version="1.1" id="Camada_1" xmlns="http://www.w3.org/2000/svg" xmlns:xlink="http://www.w3.org/1999/xlink" x="0px" y="0px"
	 viewBox="0 0 262 330" style="enable-background:new 0 0 262 330;" xml:space="preserve">
<style type="text/css">
	.st0{clip-path:url(#SVGID_2_);}
	.st1{fill:#EF6100;}
	.st2{fill:none;stroke:#012442;stroke-width:48;stroke-linecap:round;stroke-linejoin:round;stroke-miterlimit:10;}
	.st3{fill:none;stroke:#FFBB71;stroke-width:30;stroke-linecap:round;stroke-linejoin:round;stroke-miterlimit:10;}
	.st4{fill:#FFBB71;}
	.st5{fill:#83D9FD;}
	.st6{fill:none;stroke:#012442;stroke-width:8;stroke-linecap:round;stroke-miterlimit:10;}
	.st7{fill:#012442;}
	.st8{fill:#F7E9DE;}
	.st9{fill:#012442;stroke:#012442;stroke-width:3;stroke-linecap:round;stroke-linejoin:round;stroke-miterlimit:10;}
	.st10{fill:#FFFFFF;}
	.st11{fill:none;stroke:#012442;stroke-width:6;stroke-linecap:round;stroke-linejoin:round;stroke-miterlimit:10;}
	.st12{fill:#C67552;}
	.st13{fill:#DD2B0E;}
	.st14{fill:#FF8A0B;}
	.st15{fill:#FFB024;}
	.st16{fill:none;stroke:#012442;stroke-width:8;stroke-linecap:round;stroke-linejoin:round;stroke-miterlimit:10;}
	.st17{fill:none;stroke:#012442;stroke-width:3;stroke-linecap:round;stroke-linejoin:round;stroke-miterlimit:10;}
	.st18{display:none;}
	.st19{display:inline;fill:#FFFFFF;}
	.st20{display:inline;opacity:0.33;fill:none;stroke:#000000;stroke-miterlimit:10;enable-background:new    ;}
</style>
<g id="Camada_5">
	<g>
		<g>
			<g>
				<defs>
					<path id="SVGID_1_" d="M286.1-19.4H-24.1v217.8h23.8c0,0.2,0,0.4,0,0.6c0,72.4,59.7,131,132.1,131c72.4,0,131-58.7,131-131.1
						c0-0.2,0-0.4,0-0.6h23.3V-9.4L286.1-19.4z"/>
				</defs>
				<clipPath id="SVGID_2_">
					<use xlink:href="#SVGID_1_"  style="overflow:visible;"/>
				</clipPath>
				<g class="st0">
					<circle class="st1" cx="131.1" cy="199" r="131.1"/>
					<path class="st2" d="M189.4,254c0,0,26.9,22.6,41.2,85"/>
					<path class="st3" d="M189.4,254c0,0,26.9,22.6,41.2,85"/>
					<path class="st2" d="M72.6,254c0,0-26.9,22.6-41.2,85"/>
					<path class="st3" d="M72.6,254c0,0-26.9,22.6-41.2,85"/>
					<path class="st4" d="M165.6,237.3l-1-5.9h-67l-1,5.9c-0.3,1.6-0.4,3.2-0.4,4.7c0,17.5,15.6,31.6,34.8,31.6S166,259.4,166,242
						C166,240.4,165.9,238.8,165.6,237.3z"/>
					<path class="st5" d="M172.5,245.9c-4.7,2.8-9.6,5.1-14.6,7.2c0,0.3,0,0.7,0,1c0,13.6-12.5,24.6-27.9,24.6
						c-14.2,0-26-9.5-27.6-21.6c-6-2.5-11.4-6.3-15.8-11.8c-34.3,34.3-32.5,127.1-32.5,127.1l156.9-0.9
						C211,371.5,212.5,286.6,172.5,245.9z"/>
					<g>
						<g>
							<path class="st5" d="M181.9,293.9l48.4-24.6c-0.3-0.7-22.5-47-56.5-41.1l-7,1.1c-10.8,4.4-9.6,19.3-5.3,30.1L181.9,293.9z"/>
						</g>
					</g>
					<g>
						<path class="st6" d="M202.1,285.3l30.2-14c-0.3-0.7-25.6-54.2-62.5-42"/>
					</g>
					<g>
						<g>
							<path class="st5" d="M80,293.9l-48.4-24.6c0.3-0.7,22.5-47,56.5-41.1l7,1.1c10.8,4.4,9.6,19.3,5.3,30.1L80,293.9z"/>
						</g>
					</g>
					<g>
						<path class="st6" d="M63.9,286.2l-34.2-14.9c0.3-0.7,25.6-54.2,62.5-42"/>
					</g>
					<g>
						<path class="st7" d="M157.7,238.4c0.2,1.3,0.3,2.7,0.3,4.1c0,15.4-12.5,27.9-27.9,27.9s-27.8-12.5-27.8-27.9
							c0-1.4,0.1-2.7,0.3-4.1H157.7 M164.6,230.4h-6.9h-55.1h-6.9l-1,6.8c-0.2,1.7-0.4,3.5-0.4,5.2c0,19.8,16.1,35.9,35.8,35.9
							s35.9-16.1,35.9-35.9c0-1.7-0.1-3.5-0.4-5.2L164.6,230.4L164.6,230.4z"/>
					</g>
					<path class="st6" d="M193.5,266.8c0,0,13,39.5,14.6,95.2"/>
					<path class="st6" d="M70.1,266.8c0,0-13,39.5-14.6,95.2"/>
					<g>
						<path class="st4" d="M209.1,175.3c0.1,41-34.4,70.8-79.5,70.9l0,0c-45.1,0.2-77.8-29.4-78-70.4l-0.3-49
							c-0.1-15.1,1.2-25.7,9.1-37.1c19.3-27.9,73-25.7,78-25.3c20.4,1.3,45.1,7.5,57.8,25.2c7.5,10.4,12.2,27.5,12.2,46.9
							L209.1,175.3z"/>
					</g>
					<g>
						<path class="st7" d="M129.2,65.1c28.8,0,57.8,10.4,71.1,32.8c9.4,15.7,7.7,51.4,7.7,51.4c0.4,0,0.6,0,0.7,0c0,0,0,0,0.1,0
							c9.4,0,16.9,7.6,17,16.9c0,9.4-7.5,17-16.9,17c-0.1,0-0.5,0-1.1,0c-4.2,36.4-35.1,62-76.9,62.1c-0.1,0-0.2,0-0.4,0
							c-42.1,0-73.3-25.9-77.2-62.8c-1.4,0-2.3,0-2.4,0c0,0,0,0-0.1,0c-9.1,0-16.6-7.4-16.6-16.6c0-9.2,7.4-16.6,16.5-16.7
							c0.1,0,0.8,0,1.9,0l-0.1-7.3c0-4.5-0.3-35.3,7.1-47.1C71.6,75.6,100.3,65.1,129.2,65.1 M129.2,57.1c-15.7,0-31,2.9-44.2,8.3
							c-14.4,5.9-25.6,14.7-32.3,25.3c-5.6,8.9-8.3,26-8.3,50.8v0.5v0.1v0c-4.2,1.1-8.1,3.3-11.2,6.5c-4.6,4.7-7.2,10.9-7.2,17.4
							c0,12,8.7,22,20.1,24.1c7.2,37.6,40.9,63.2,84.1,63.2h0.4c22.3-0.1,42.2-6.7,57.6-19.3c13.6-11.1,22.8-26.4,26.3-43.5
							c4.4-1.1,8.5-3.4,11.9-6.7c4.7-4.7,7.3-11,7.2-17.7c0-11.1-7.4-20.6-17.6-23.7c0-12-1.1-35.5-9-48.7
							c-7.1-12-18.7-21.7-33.5-28C160.5,60.1,145.1,57.1,129.2,57.1L129.2,57.1z"/>
					</g>
					<g>
						<g>
							<path class="st8" d="M208.9,157.6c5.8,0,10.6,4.7,10.6,10.5s-4.7,10.6-10.5,10.6c-5.8,0-10.6-4.7-10.6-10.5
								C198.4,162.4,203.1,157.7,208.9,157.6"/>
						</g>
					</g>
					<g>
						<path class="st4" d="M83,165.8c0,8.4,5,15.4-3.1,16.5c-0.7,0.1-29.6,0.2-30.4,0.2c-9.2,0-16.6-7.4-16.7-16.6
							c0-9.2,7.4-16.6,16.5-16.7c0.8,0,24.1,0,24.8,0.1C82.4,150.4,83,157.4,83,165.8z"/>
					</g>
					<g>
						<path class="st4" d="M174.5,166.4c0,8.6-5,15.8,3.3,16.8c0.7,0.1,30.3,0,31,0c9.4,0,16.9-7.6,16.9-17c0-9.4-7.6-16.9-17-16.9
							c-0.8,0-24.6,0.1-25.3,0.2C175,150.7,174.4,157.8,174.5,166.4z"/>
					</g>
					<g>
						<path class="st9" d="M168,178.9c-24.7,2.9-52.5,2.9-75.3-0.4c0,0,6.9,33.8,37.6,33.8C164.9,212.4,168,178.9,168,178.9z"/>
						<path class="st10" d="M103.7,191.7c0.2,0.1,0.5,0.1,0.7,0.2c0.2,0,0.5,0,0.7,0c15,0.1,30.2,2.4,45.2,1.6
							c4.9-1.2,9.8-2.6,14.8-3.7c2.4-6,2.9-10.8,2.9-10.8c-24.7,3-52.5,3-75.3-0.4c0,0,1.2,6,4.9,12.9
							C99.5,191.1,101.5,191.1,103.7,191.7z"/>
						<path class="st11" d="M168,178.9c-24.7,2.9-52.5,2.9-75.3-0.4c0,0,6.9,33.8,37.6,33.8C164.9,212.4,168,178.9,168,178.9z"/>
						<g>
							<path class="st12" d="M130.8,226.6c-4.6,0-9.4-0.5-14-1.4c-1.6-0.3-2.7-1.9-2.3-3.5c0.3-1.6,1.9-2.7,3.5-2.3
								c9.2,1.9,18.7,1.7,27.3-0.5c1.6-0.4,3.2,0.6,3.6,2.2s-0.6,3.2-2.2,3.6C141.6,225.9,136.2,226.6,130.8,226.6z"/>
						</g>
						<g>
							<g>
								<circle class="st12" cx="198.6" cy="175.4" r="4.3"/>
							</g>
							<g>
								<circle class="st12" cx="179.4" cy="181.1" r="4.3"/>
							</g>
							<g>
								<circle class="st12" cx="191.5" cy="190" r="4.3"/>
							</g>
						</g>
						<g>
							<g>
								<circle class="st12" cx="62.5" cy="178.4" r="4.3"/>
							</g>
							<g>
								<circle class="st12" cx="82.1" cy="182.3" r="4.3"/>
							</g>
							<g>
								<circle class="st12" cx="70.9" cy="192.3" r="4.3"/>
							</g>
						</g>
						<path class="st13" d="M146.9,206c-1.3-2.4-3.8-4.2-6.6-4.7c-2.8-0.5-7.7,0.4-9.8,2.3c-2.3-2.8-4.9-2.4-8.5-2.4
							c-2.4,0.1-7.5,1.8-7.5,3.2c0,3.1,6.8,4.4,9.3,5C131.6,211.1,140,210,146.9,206z"/>
						<path class="st14" d="M134.5,84.8c12.3,2.7,25-2.6,31.7-11.5s6.8-20.5,1.6-30.1s-15.1-17-26.4-21.8c1.7,5.5,1.5,9.5,1.5,15.2
							C123,28.5,98.7,26.1,85,33c4.9,0.9,9.2,8.1,11,12C81.6,43.7,60.9,54.7,55.6,64c-6.1,10.8-8.5,22.6-3.5,33.8
							c-4-8.9,16.6-19.9,29.7-23.2C100.7,69.9,117.6,81.1,134.5,84.8z"/>
						<path class="st15" d="M144.7,23c-1.2-0.6-2.8,0.3-2.5,1.5c0.7,3.4,0.8,6.5,0.7,10.1c0,1-1.3,1.7-2.4,1.3
							c-18-6.9-39.1-9-52.6-4c-1.2,0.4-1.3,1.7-0.3,2.4c3,1.9,5.7,5.7,7.3,8.8c0.5,0.9-0.3,2-1.5,2C79.2,44.9,60.6,55.2,55.6,64
							c-6.1,10.8-8.5,22.6-3.5,33.8c-2.4-5.4,4.2-11.6,12.8-16.3c4.3-16.3,25.5-29.6,45.5-28.2c1-0.1,1.9-0.2,2.8-0.2
							c1.8-0.1,3-1.5,2.4-2.9c-1.2-2.8-2.7-6-4.4-8.3c-0.9-1.3-0.1-2.9,1.6-3.3c10.6-2.2,22.4-1.2,38.3,4.8c1.8,0.7,3.8-0.4,3.8-2
							c0-2.6-0.1-4.9-0.5-7.4c-0.3-1.8,1.9-3,3.8-2.2c0,0,0,0,0.1,0C154.4,28.3,149.7,25.4,144.7,23z"/>
						<path class="st16" d="M135.4,84.8c12.3,2.7,25-2.6,31.7-11.5s6.8-20.5,1.6-30.1s-15.1-17-26.4-21.8c1.7,5.5,1.5,9.5,1.5,15.2
							c-19.9-8.2-44.2-10.6-58-3.7c4.9,0.9,9.2,8.1,11,12c-14.4-1.3-34.1,10.6-39.4,19.9c-6.1,10.8-7,16.3-4.5,33
							C67.5,78.3,84,74,93.6,73C113.2,71.1,118.4,81.1,135.4,84.8z"/>
					</g>
					<path class="st17" d="M98.3,190.9c0,0,33.4,5.5,64.8,0"/>
					<path class="st7" d="M91,127.1l-20.7,3.2c-2.6,0.4-5.1-1.4-5.5-4l-0.1-0.6c-0.4-2.6,1.4-5.1,4-5.5l20.7-3.2
						c2.6-0.4,5.1,1.4,5.5,4l0.1,0.6C95.5,124.2,93.7,126.7,91,127.1z"/>
					<g id="olho_2_">
						<g>
							<path class="st7" d="M91.6,147.2c0,5.8-4.6,10.5-10.4,10.5c-5.8,0-10.5-4.6-10.5-10.4c0-5.8,4.6-10.5,10.4-10.5
								C86.9,136.8,91.6,141.5,91.6,147.2z"/>
						</g>
					</g>
					<g id="olho_1_">
						<g>
							<path class="st7" d="M188.4,147.2c0,5.8-4.6,10.5-10.4,10.5c-5.8,0-10.5-4.6-10.5-10.4c0-5.8,4.6-10.5,10.4-10.5
								C183.7,136.8,188.4,141.5,188.4,147.2z"/>
						</g>
					</g>
					<path class="st7" d="M167.8,127.1l20.7,3.2c2.6,0.4,5.1-1.4,5.5-4l0.1-0.6c0.4-2.6-1.4-5.1-4-5.5l-20.7-3.2
						c-2.6-0.4-5.1,1.4-5.5,4l-0.1,0.6C163.3,124.2,165.1,126.7,167.8,127.1z"/>
				</g>
			</g>
		</g>
	</g>
</g>
<g id="Camada_4" class="st18">
	<path class="st19" d="M285.3,0.3H-25v207.8h24.8c0,0.2,0,0.4,0,0.6c0,72.4,58.7,131,131.1,131c72.4,0,131-58.7,131-131
		c0-0.2,0-0.4,0-0.6h23.3L285.3,0.3L285.3,0.3z"/>
</g>
<g id="Camada_3" class="st18">
	<circle class="st20" cx="130.9" cy="207.5" r="131.1"/>
	<path class="st19" d="M285.1,1.1H-25.2v207.8h24.9c0,0.2,0,0.4,0,0.6c0,72.4,58.7,131.1,131.1,131.1c72.4,0,131-58.7,131-131.1
		c0-0.2,0-0.4,0-0.6h23.3L285.1,1.1L285.1,1.1z"/>
</g>
</svg>
