<?xml version="1.0" encoding="utf-8"?>
<!-- Generator: Adobe Illustrator 24.0.1, SVG Export Plug-In . SVG Version: 6.00 Build 0)  -->
<svg version="1.1" id="Camada_1" xmlns="http://www.w3.org/2000/svg" xmlns:xlink="http://www.w3.org/1999/xlink" x="0px" y="0px"
	 viewBox="0 0 262 330" style="enable-background:new 0 0 262 330;" xml:space="preserve">
<style type="text/css">
	.st0{clip-path:url(#SVGID_2_);}
	.st1{fill:#FFBF1F;}
	.st2{fill:none;stroke:#012442;stroke-width:48;stroke-linecap:round;stroke-linejoin:round;}
	.st3{fill:none;stroke:#DD8064;stroke-width:30;stroke-linecap:round;stroke-linejoin:round;}
	.st4{fill:#DD8064;}
	.st5{fill:#83D9FD;}
	.st6{fill:none;stroke:#012442;stroke-width:8;stroke-linecap:round;stroke-miterlimit:10;}
	.st7{fill:#012442;}
	.st8{fill:#F7E9DE;}
	.st9{fill:#AF543F;}
	.st10{fill:none;stroke:#012442;stroke-width:8;stroke-linecap:round;stroke-linejoin:round;}
	.st11{fill:none;stroke:#012442;stroke-width:25;stroke-linecap:round;stroke-linejoin:round;}
	.st12{fill:#344E89;}
	.st13{fill:none;stroke:#344E89;stroke-width:10;stroke-linecap:round;stroke-linejoin:round;}
</style>
<title>11-01</title>
<g id="Camada_5">
	<g>
		<defs>
			<path id="SVGID_1_" d="M286.1-19.4H-24.1v217.8h23.8c0,0.2,0,0.4,0,0.6c0,72.4,59.7,131.1,132.1,131.1c72.4,0,131-58.7,131-131.1
				c0-0.2,0-0.4,0-0.6h23.3V-9.4V-19.4z"/>
		</defs>
		<clipPath id="SVGID_2_">
			<use xlink:href="#SVGID_1_"  style="overflow:visible;"/>
		</clipPath>
		<g class="st0">
			<circle class="st1" cx="131.8" cy="199.3" r="131.1"/>
			<path class="st2" d="M190.4,247c0,0,26.9,22.6,41.2,85"/>
			<path class="st3" d="M190.4,247c0,0,26.9,22.6,41.2,85"/>
			<path class="st2" d="M73.6,247c0,0-26.9,22.6-41.2,85"/>
			<path class="st3" d="M73.6,247c0,0-26.9,22.6-41.2,85"/>
			<path class="st4" d="M166.6,230.2l-1-5.9h-67l-1,5.9c-0.3,1.6-0.4,3.1-0.4,4.7c0,17.5,15.6,31.6,34.8,31.6S167,252.4,167,235
				C167,233.4,166.9,231.8,166.6,230.2z"/>
			<path class="st5" d="M173.5,238.9c-4.7,2.8-9.5,5.1-14.6,7.2c0,0.3,0,0.7,0,1c0,13.6-12.5,24.6-27.9,24.6
				c-14.2,0-26-9.5-27.6-21.6c-6.2-2.5-11.6-6.6-15.8-11.8c-34.2,34.3-32.4,127.2-32.4,127.2l156.8-0.8
				C212,364.6,213.5,279.6,173.5,238.9z"/>
			<path class="st5" d="M182.9,286.9l48.4-24.5c-0.3-0.7-22.5-47-56.5-41.1l-7,1.1c-10.8,4.4-9.6,19.3-5.3,30.1L182.9,286.9z"/>
			<path class="st6" d="M203.1,278.3l30.2-14c-0.3-0.7-25.6-54.2-62.5-42"/>
			<path class="st5" d="M81,286.9l-48.4-24.5c0.3-0.7,22.5-47,56.5-41.1l7,1.1c10.8,4.4,9.6,19.3,5.3,30.1L81,286.9z"/>
			<path class="st6" d="M64.9,279.2l-34.2-14.8c0.3-0.7,25.6-54.2,62.5-42"/>
			<path class="st7" d="M158.7,231.4c0.2,1.3,0.3,2.7,0.3,4.1c0,15.4-12.5,27.8-27.9,27.8c-15.4,0-27.8-12.5-27.8-27.8
				c0-1.4,0.1-2.7,0.3-4.1H158.7 M165.6,223.4H96.6l-1,6.9c-0.3,1.7-0.4,3.5-0.4,5.2c0,19.8,16.1,35.8,35.9,35.8
				c19.8,0,35.8-16,35.8-35.8c0-1.7-0.1-3.5-0.4-5.2L165.6,223.4L165.6,223.4z"/>
			<path class="st6" d="M194.5,259.8c0,0,13,39.5,14.6,95.2"/>
			<path class="st6" d="M71.1,259.8c0,0-13,39.5-14.6,95.2"/>
			<path class="st4" d="M210.1,168.2c0.1,41-34.4,70.7-79.4,70.9l0,0c-45.1,0.2-77.8-29.4-78-70.4l-0.3-49
				c-0.1-15.1,1.2-25.7,9.1-37.1c19.3-27.9,73-25.7,78-25.3c20.4,1.3,45.1,7.5,57.8,25.2c7.5,10.4,12.1,27.5,12.1,46.9L210.1,168.2z
				"/>
			<path class="st7" d="M130.2,58.1c28.8,0,57.8,10.4,71.1,32.8c9.4,15.7,7.7,51.4,7.7,51.4h0.7c9.4,0.6,16.5,8.7,15.8,18.1
				c-0.6,8.5-7.3,15.2-15.8,15.8h-1.1c-4.2,36.4-35.1,62-76.9,62.1h-0.4c-42.1,0-73.3-25.9-77.2-62.8h-2.4h-0.1
				c-9.2,0-16.6-7.4-16.6-16.6s7.4-16.6,16.6-16.6h2l-0.1-7.3c0-4.5-0.3-35.3,7.1-47.1C72.7,68.6,101.3,58.1,130.2,58.1 M130.2,50.1
				c-15.1-0.1-30.1,2.7-44.2,8.3c-14.4,5.9-25.6,14.7-32.3,25.3c-5.6,8.9-8.3,26-8.3,50.8v0.6C34.6,138,27,147.8,27.1,159
				c0.1,11.8,8.5,21.9,20.1,24.1c7.2,37.6,40.9,63.3,84.1,63.3h0.4c22.3-0.1,42.2-6.7,57.6-19.3c13.6-11,22.9-26.4,26.3-43.5
				c13.4-3.3,21.6-16.9,18.3-30.3c-2.1-8.4-8.4-15.2-16.7-17.8c0-12-1.1-35.5-9-48.7c-7.1-12-18.7-21.7-33.5-28
				c-13.1-5.7-28.5-8.7-44.5-8.7L130.2,50.1z"/>
			<path class="st8" d="M209.9,150.6c5.8,0,10.6,4.7,10.6,10.5c0,5.8-4.7,10.6-10.5,10.6c-5.8,0-10.6-4.7-10.6-10.5
				C199.4,155.4,204.1,150.7,209.9,150.6C209.9,150.6,209.9,150.6,209.9,150.6"/>
			<path class="st4" d="M84,158.8c0,8.4,5,15.4-3.1,16.5c-0.7,0.1-29.6,0.2-30.4,0.2c-9.2,0-16.6-7.4-16.7-16.6s7.4-16.6,16.5-16.7
				c0.8,0,24.1,0,24.8,0.1C83.4,143.4,84,150.4,84,158.8z"/>
			<path class="st4" d="M175.5,159.4c0,8.6-5,15.8,3.3,16.8c0.7,0.1,30.3,0,31,0c9.4-0.7,16.4-8.8,15.7-18.2
				c-0.6-8.5-7.4-15.2-15.9-15.7c-0.8,0-24.6,0.1-25.3,0.2C176,143.7,175.4,150.8,175.5,159.4z"/>
			<circle class="st9" cx="199.6" cy="168.4" r="4.3"/>
			<circle class="st9" cx="180.4" cy="174.1" r="4.3"/>
			<circle class="st9" cx="192.5" cy="183" r="4.3"/>
			<circle class="st9" cx="63.5" cy="171.4" r="4.3"/>
			<circle class="st9" cx="83.1" cy="175.3" r="4.3"/>
			<circle class="st9" cx="71.9" cy="185.3" r="4.3"/>
			<path class="st7" d="M69.8,113.2l20.7-3.2c2.6-0.4,5.1,1.4,5.5,4l0.1,0.6c0.4,2.6-1.4,5.1-4,5.5l-20.7,3.2
				c-2.6,0.4-5.1-1.4-5.5-4l-0.1-0.6C65.3,116.1,67.1,113.6,69.8,113.2z"/>
			<g id="olho">
				<path class="st7" d="M92.6,140.2c0,5.8-4.6,10.5-10.4,10.5c-5.8,0-10.5-4.6-10.5-10.4c0-5.8,4.6-10.5,10.4-10.5
					C87.9,129.8,92.6,134.5,92.6,140.2z"/>
			</g>
			<g id="olho-2">
				<path class="st7" d="M189.4,140.2c0,5.8-4.6,10.5-10.4,10.5c-5.8,0-10.5-4.6-10.5-10.4c0-5.8,4.6-10.5,10.4-10.5c0,0,0,0,0,0
					C184.7,129.8,189.3,134.5,189.4,140.2z"/>
			</g>
			<path class="st7" d="M189.5,123.3l-20.7-3.2c-2.6-0.4-4.4-2.9-4-5.5l0.1-0.6c0.4-2.6,2.9-4.4,5.5-4l20.7,3.2
				c2.6,0.4,4.4,2.9,4,5.5l-0.1,0.6C194.6,121.9,192.1,123.7,189.5,123.3z"/>
			<path class="st10" d="M98.7,181.6c20.7,12.9,48.7,13.9,68.7-0.9"/>
			<path class="st9" d="M132.8,210c-4.7,0-9.5-0.5-14.1-1.4c-1.9-0.4-3.1-2.2-2.7-4.1c0.4-1.9,2.2-3.1,4.1-2.7
				c8.9,1.9,18.2,1.7,27.1-0.5c1.9-0.5,3.8,0.6,4.3,2.5c0.5,1.9-0.6,3.8-2.5,4.3c0,0,0,0-0.1,0C143.6,209.4,138.2,210.1,132.8,210z"
				/>
			<path class="st7" d="M41.6,273.1c-3.3-0.1-6.2-2-7.7-4.9C7,215.4,9.8,143.9,41,90.1c2.6-4.4,6.9-7.6,11.9-8.7
				c2.1-0.6,4.3-0.8,6.6-0.8c4.8,0,9.5,1.2,13.6,3.6c4.3,2.5,5.7,8,3.2,12.3c-2.5,4.3-8,5.7-12.3,3.2c-1.4-0.7-3-1.1-4.6-1.1
				c-0.6,0-1.3,0.1-1.9,0.2c-0.4,0.1-0.7,0.2-1,0.4C28.3,147.8,25.6,212.5,49.9,260c2.3,4.4,0.5,9.8-3.9,12.1c0,0,0,0,0,0
				c-1.3,0.6-2.7,1-4.1,1L41.6,273.1z"/>
			<path class="st7" d="M59.4,84.6c4.1,0,8,1,11.6,3c2.3,1.6,2.9,4.7,1.3,6.9c-1.4,2.1-4.1,2.8-6.3,1.7c-2-1.1-4.3-1.7-6.6-1.7
				c-1,0-2,0.1-2.9,0.3c-1.4,0.3-2.6,1.1-3.4,2.2c-28.9,49.8-31.6,116-6.7,164.7c1.3,2.5,0.3,5.5-2.2,6.7c-0.7,0.4-1.5,0.5-2.3,0.5
				h-0.2c-1.8-0.1-3.5-1.1-4.3-2.7c-26.3-51.6-23.5-121.6,7-174.2c2.1-3.5,5.5-6,9.5-6.9C55.8,84.7,57.6,84.5,59.4,84.6 M59.5,76.5
				c-2.6,0-5.1,0.3-7.6,1c-6,1.4-11.2,5.3-14.4,10.6C5.7,143,2.8,216.1,30.3,270c2.1,4.2,6.4,6.9,11.2,7.1h0.4
				c2.1,0,4.1-0.5,5.9-1.4c6.4-3.3,8.9-11.1,5.7-17.5C30,212.3,32.4,149.9,59.2,102.6h0.2c0.9,0,1.7,0.2,2.5,0.6
				c6.2,3.7,14.1,1.7,17.8-4.5c3.7-6.2,1.7-14.1-4.5-17.8c-0.1,0-0.1-0.1-0.2-0.1C70.3,78,64.9,76.5,59.5,76.5L59.5,76.5z"/>
			<path class="st11" d="M59.7,61.6c13.8-0.3,28.2,7.3,35.5,19.2c1,1.5,2.4,4.2,0.4,5.5"/>
			<path class="st12" d="M41.7,269.1c-1.8-0.1-3.5-1.1-4.3-2.7c-26.3-51.6-23.5-121.6,7-174.2c2.1-3.5,5.5-6,9.5-6.9
				c5.8-1.4,11.9-0.6,17.1,2.4c2.5,1.2,3.5,4.2,2.3,6.7c-1.2,2.5-4.2,3.5-6.7,2.3c-0.2-0.1-0.4-0.2-0.6-0.4
				c-2.9-1.6-6.3-2.1-9.5-1.3c-1.4,0.3-2.6,1.1-3.4,2.2c-28.9,49.8-31.6,116-6.7,164.7c1.3,2.5,0.3,5.5-2.2,6.7
				C43.5,268.9,42.6,269.1,41.7,269.1L41.7,269.1z"/>
			<path class="st11" d="M169.1,41.9c9.5,9.1,14.6,21.6,20.6,33.3c15.1,29.7,36.2,55.9,62.1,76.9"/>
			<path class="st11" d="M92.1,48.4c13.8,0.1,22.9,8.1,29.9,20.1c0.9,1.5,2.3,4.3,0.2,5.5"/>
			<path class="st11" d="M125.3,38.4c13.5,2.2,21.5,11.3,26.7,24.3c0.7,1.7,1.6,4.6-0.6,5.5"/>
			<path class="st13" d="M169.1,41.9c9.5,9.1,14.6,21.6,20.6,33.3c15.1,29.7,36.2,55.9,62.1,76.9"/>
			<path class="st13" d="M59.7,61.6c13.8-0.3,28.2,7.3,35.5,19.2c1,1.5,2.4,4.2,0.4,5.5"/>
			<path class="st13" d="M92.1,48.4c13.8,0.1,22.9,8.1,29.9,20.1c0.9,1.5,2.3,4.3,0.2,5.5"/>
			<path class="st13" d="M125.3,38.4c13.5,2.2,21.5,11.3,26.7,24.3c0.7,1.7,1.6,4.6-0.6,5.5"/>
			<path class="st7" d="M46.6,231c-3.3-13-5.1-26.4-5.6-39.8l-0.3-8.3l6.7,5c1.1,0.9,2.3,1.6,3.6,2.2l1.4,0.7l0.5,1.5
				c1.7,4.9,4,9.5,6.8,13.9l0.5,0.7l0.1,0.9c0.6,4.6,1.4,9.3,2.4,13.8l0.5,2.5l-2,1.6c-2.8,2.2-5.5,4.6-8,7.1l-5,5.2L46.6,231z"/>
			<path class="st7" d="M45.1,191c1.3,1,2.7,1.9,4.2,2.6c1.8,5.2,4.3,10.1,7.2,14.7c0.6,4.8,1.4,9.4,2.5,14.1
				c-3,2.3-5.8,4.8-8.5,7.5C47.3,217.3,45.5,204.2,45.1,191 M36.5,174.7l0.5,16.6c0.4,13.7,2.4,27.3,5.7,40.6l3.5,13.9l10-10.3
				c2.3-2.4,4.8-4.7,7.5-6.7l4-3.1l-1.1-5c-1-4.4-1.8-8.9-2.3-13.4l-0.2-1.8l-1-1.5c-2.6-4.1-4.7-8.4-6.3-13l-1.1-3l-2.9-1.5
				c-1.1-0.5-2.1-1.2-3-1.9L36.5,174.7L36.5,174.7z"/>
			<path class="st12" d="M59,222.5c-1-4.7-1.8-9.4-2.5-14.1c-3-4.6-5.4-9.5-7.2-14.7c-1.5-0.8-2.9-1.6-4.2-2.6
				c0.4,13.1,2.2,26.2,5.4,38.9C53.1,227.3,56,224.8,59,222.5z"/>
			<path class="st7" d="M221.6,272.3c-5,0-9-4.1-9-9c0-1.4,0.3-2.7,0.9-3.9c12.1-24.8,17.2-55.2,14.4-85.9l-0.2-2l1.4-1.3
				c2.5-2.3,4.4-5.1,5.6-8.3l1.3-3.6l3.7,1.2c0.7,0.2,1.5,0.5,2.2,0.7l2.5,0.7l0.4,2.6c4.9,36.8-0.5,73.7-15.2,103.8
				c-1.4,2.9-4.4,4.8-7.6,5L221.6,272.3z"/>
			<path class="st7" d="M238.6,163.3c0.8,0.3,1.6,0.5,2.4,0.7c4.6,35.2-0.1,71.4-14.9,101.5c-0.8,1.6-2.4,2.7-4.2,2.8h-0.3
				c-0.8,0-1.5-0.2-2.2-0.5c-2.5-1.2-3.5-4.2-2.3-6.7c0,0,0,0,0,0c12.8-26.2,17.6-57.2,14.9-88C234.9,170.4,237.2,167,238.6,163.3
				 M233.8,153.2l-2.7,7.2c-1,2.6-2.5,4.9-4.6,6.8l-2.9,2.7l0.4,3.9c2.7,29.9-2.3,59.7-14.1,83.8c-3.1,6.5-0.5,14.2,6,17.4
				c1.8,0.9,3.7,1.3,5.7,1.3h0.7c4.7-0.3,8.9-3,11-7.3c15-30.8,20.6-68.5,15.6-106.1l-0.7-5.2l-5.1-1.4c-0.6-0.2-1.2-0.4-2-0.6
				L233.8,153.2L233.8,153.2z"/>
			<path class="st12" d="M241,164c-0.8-0.2-1.6-0.5-2.4-0.7c-1.4,3.8-3.7,7.2-6.6,9.9c2.8,30.7-2.1,61.8-14.9,88
				c-1.2,2.5-0.2,5.5,2.3,6.7c0,0,0,0,0,0c0.8,0.4,1.6,0.5,2.4,0.5c1.8-0.1,3.4-1.2,4.2-2.8C240.8,235.4,245.6,199.2,241,164z"/>
			<path class="st7" d="M210.7,232.8c-2.5-2.6-5.2-5-8-7.1l-2-1.6l0.5-2.5c1-4.5,1.8-9.1,2.4-13.8l0.1-0.9l0.5-0.7
				c2.8-4.3,5.1-9,6.8-13.8l0.5-1.5l1.4-0.7c1.3-0.6,2.5-1.4,3.6-2.2l6.7-5l-0.3,8.3c-0.4,13.4-2.3,26.8-5.6,39.8l-1.8,7
				L210.7,232.8z"/>
			<path class="st7" d="M219,191c-0.4,13.1-2.2,26.2-5.4,38.9c-2.6-2.7-5.5-5.2-8.5-7.5c1-4.7,1.8-9.4,2.5-14.1
				c3-4.6,5.4-9.5,7.2-14.7C216.2,192.9,217.6,192,219,191 M227.5,174.7l-13.3,10c-0.9,0.7-1.9,1.3-3,1.9l-2.9,1.5l-1.1,3
				c-1.6,4.6-3.8,9-6.4,13.1l-0.9,1.5l-0.2,1.8c-0.6,4.5-1.4,9-2.3,13.4l-1.1,5l4,3.1c2.7,2.1,5.2,4.3,7.6,6.7l10,10.3l3.5-13.9
				c3.4-13.3,5.3-26.9,5.7-40.7L227.5,174.7L227.5,174.7z"/>
			<path class="st12" d="M205.1,222.5c1-4.7,1.8-9.4,2.5-14.1c3-4.6,5.4-9.5,7.2-14.7c1.5-0.8,2.9-1.6,4.2-2.6
				c-0.4,13.1-2.2,26.2-5.4,38.9C210.9,227.3,208.1,224.8,205.1,222.5z"/>
		</g>
	</g>
</g>
</svg>
