<?xml version="1.0" encoding="utf-8"?>
<!-- Generator: Adobe Illustrator 24.0.1, SVG Export Plug-In . SVG Version: 6.00 Build 0)  -->
<svg version="1.1" id="Camada_1" xmlns="http://www.w3.org/2000/svg" xmlns:xlink="http://www.w3.org/1999/xlink" x="0px" y="0px"
	 viewBox="0 0 262 330" style="enable-background:new 0 0 262 330;" xml:space="preserve">
<style type="text/css">
	.st0{clip-path:url(#SVGID_2_);}
	.st1{fill:#EF6100;}
	.st2{fill:none;stroke:#012442;stroke-width:48;stroke-linecap:round;stroke-linejoin:round;stroke-miterlimit:10;}
	.st3{fill:none;stroke:#DD8064;stroke-width:30;stroke-linecap:round;stroke-linejoin:round;stroke-miterlimit:10;}
	.st4{fill:#DD8064;}
	.st5{fill:#83D9FD;}
	.st6{fill:none;stroke:#012442;stroke-width:8;stroke-linecap:round;stroke-miterlimit:10;}
	.st7{fill:#012442;}
	.st8{fill:#F7E9DE;}
	.st9{fill:#AF543F;}
	.st10{fill:#FFFFFF;}
	.st11{fill:#EF5B70;}
	.st12{fill:#2F61DD;}
	.st13{fill:#299EED;}
	.st14{fill:none;stroke:#012442;stroke-width:6;stroke-linecap:round;stroke-linejoin:round;stroke-miterlimit:10;}
	.st15{display:none;}
	.st16{display:inline;fill:#FFFFFF;}
	.st17{display:inline;opacity:0.33;fill:none;stroke:#000000;stroke-miterlimit:10;enable-background:new    ;}
</style>
<g id="Camada_5">
	<g>
		<g>
			<g>
				<defs>
					<path id="SVGID_1_" d="M285.7-9.4H-24.5v207.8h23.8c0,0.2,0,0.4,0,0.6C-0.7,271.3,59,330,131.4,330c72.4,0,131-58.7,131-131.1
						c0-0.2,0-0.4,0-0.6h23.3L285.7-9.4L285.7-9.4z"/>
				</defs>
				<clipPath id="SVGID_2_">
					<use xlink:href="#SVGID_1_"  style="overflow:visible;"/>
				</clipPath>
				<g class="st0">
					<circle class="st1" cx="131" cy="199.1" r="131"/>
					<path class="st2" d="M190.9,245.8c0,0,26.9,22.6,41.2,85.1"/>
					<path class="st3" d="M190.9,245.8c0,0,26.9,22.6,41.2,85.1"/>
					<path class="st2" d="M74.1,245.8c0,0-26.9,22.6-41.2,85.1"/>
					<path class="st3" d="M74.1,245.8c0,0-26.9,22.6-41.2,85.1"/>
					<path class="st4" d="M167.2,229l-1-5.9h-67l-1,5.9c-0.3,1.6-0.4,3.2-0.4,4.7c0,17.4,15.6,31.6,34.8,31.6s34.9-14.2,34.9-31.6
						C167.5,232.1,167.4,230.6,167.2,229z"/>
					<path class="st5" d="M174,237.6c-4.7,2.8-9.6,5.1-14.6,7.2c0,0.3,0,0.7,0,1c0,13.6-12.5,24.6-27.9,24.6
						c-14.2,0-26-9.5-27.6-21.6c-6-2.5-11.4-6.3-15.8-11.8c-34.3,34.3-32.5,127.1-32.5,127.1l156.9-0.9
						C212.6,363.2,214.1,278.3,174,237.6z"/>
					<g>
						<g>
							<path class="st5" d="M183.4,285.6l48.4-24.6c-0.3-0.7-22.5-47-56.5-41.1l-7,1.1c-10.8,4.4-9.6,19.3-5.3,30.1L183.4,285.6z"/>
						</g>
					</g>
					<g>
						<path class="st6" d="M203.6,277.1l30.2-14c-0.3-0.7-25.6-54.2-62.5-42"/>
					</g>
					<g>
						<g>
							<path class="st5" d="M81.6,285.6l-48.4-24.6c0.3-0.7,22.5-47,56.5-41.1l7,1.1c10.8,4.4,9.6,19.3,5.3,30.1L81.6,285.6z"/>
						</g>
					</g>
					<g>
						<path class="st6" d="M65.4,278l-34.2-14.9c0.3-0.7,25.6-54.2,62.5-42"/>
					</g>
					<g>
						<path class="st7" d="M159.2,230.2c0.2,1.3,0.3,2.7,0.3,4.1c0,15.4-12.5,27.9-27.9,27.9s-27.8-12.5-27.8-27.9
							c0-1.4,0.1-2.7,0.3-4.1H159.2 M166.1,222.2h-6.9h-55.1h-6.9l-1,6.8c-0.2,1.7-0.4,3.5-0.4,5.2c0,19.8,16.1,35.9,35.8,35.9
							s35.9-16.1,35.9-35.9c0-1.7-0.1-3.5-0.4-5.2L166.1,222.2L166.1,222.2z"/>
					</g>
					<path class="st6" d="M195.1,258.5c0,0,13,39.5,14.6,95.2"/>
					<path class="st6" d="M71.6,258.5c0,0-13,39.5-14.6,95.2"/>
					<g>
						<path class="st4" d="M210.7,167c0.1,41-34.4,70.8-79.5,70.9l0,0c-45.1,0.2-77.8-29.4-78-70.4l-0.3-49
							c-0.1-15.1,1.2-25.7,9.1-37.1c19.3-27.9,73-25.7,78-25.3c20.4,1.3,45.1,7.5,57.8,25.2c7.5,10.4,12.2,27.5,12.2,46.9L210.7,167
							z"/>
					</g>
					<g>
						<path class="st7" d="M130.7,56.9c28.8,0,57.8,10.4,71.1,32.8c9.4,15.7,7.7,51.4,7.7,51.4c0.4,0,0.6,0,0.7,0c0,0,0,0,0.1,0
							c9.4,0,16.9,7.6,17,16.9c0,9.4-7.5,17-16.9,17c-0.1,0-0.5,0-1.1,0c-4.2,36.4-35.1,62-76.9,62.1c-0.1,0-0.2,0-0.4,0
							c-42.1,0-73.3-25.9-77.2-62.8c-1.4,0-2.3,0-2.4,0c0,0,0,0-0.1,0c-9.1,0-16.6-7.4-16.6-16.6c0-9.2,7.4-16.6,16.5-16.7
							c0.1,0,0.8,0,1.9,0l-0.1-7.3c0-4.5-0.3-35.3,7.1-47.1C73.2,67.4,101.8,56.9,130.7,56.9 M130.7,48.9L130.7,48.9
							c-15.7,0-31,2.9-44.2,8.3c-14.4,5.9-25.6,14.7-32.3,25.3c-5.6,8.9-8.3,26-8.3,50.8v0.5v0.1v0c-4.2,1.1-8.1,3.3-11.2,6.5
							c-4.6,4.7-7.2,10.9-7.2,17.4c0,12,8.7,22,20.1,24.1c7.2,37.6,40.9,63.2,84.1,63.2h0.4c22.3-0.1,42.2-6.7,57.6-19.3
							c13.6-11.1,22.8-26.4,26.3-43.5c4.4-1.1,8.5-3.4,11.9-6.7c4.7-4.7,7.3-11,7.2-17.7c0-11.1-7.4-20.6-17.6-23.7
							c0-12-1.1-35.5-9-48.7c-7.1-12-18.7-21.7-33.5-28C162.1,51.9,146.7,48.9,130.7,48.9L130.7,48.9L130.7,48.9z"/>
					</g>
					<g>
						<g>
							<path class="st8" d="M210.5,149.4c5.8,0,10.6,4.7,10.6,10.5s-4.7,10.6-10.5,10.6c-5.8,0-10.6-4.7-10.6-10.5
								C199.9,154.1,204.6,149.4,210.5,149.4"/>
						</g>
					</g>
					<g>
						<path class="st4" d="M84.6,157.6c0,8.4,5,15.4-3.1,16.5c-0.7,0.1-29.6,0.2-30.4,0.2c-9.2,0-16.6-7.4-16.7-16.6
							c0-9.2,7.4-16.6,16.5-16.7c0.8,0,24.1,0,24.8,0.1C83.9,142.2,84.6,149.1,84.6,157.6z"/>
					</g>
					<g>
						<path class="st4" d="M176,158.1c0,8.6-5,15.8,3.3,16.8c0.7,0.1,30.3,0,31,0c9.4,0,16.9-7.6,16.9-17c0-9.4-7.6-16.9-17-16.9
							c-0.8,0-24.6,0.1-25.3,0.2C176.6,142.4,176,149.6,176,158.1z"/>
					</g>
					<g>
						<g>
							<circle class="st9" cx="200.1" cy="167.1" r="4.3"/>
						</g>
						<g>
							<circle class="st9" cx="181" cy="172.8" r="4.3"/>
						</g>
						<g>
							<circle class="st9" cx="193" cy="181.8" r="4.3"/>
						</g>
					</g>
					<g>
						<g>
							<circle class="st9" cx="64" cy="170.1" r="4.3"/>
						</g>
						<g>
							<circle class="st9" cx="83.6" cy="174" r="4.3"/>
						</g>
						<g>
							<circle class="st9" cx="72.5" cy="184" r="4.3"/>
						</g>
					</g>
					<g id="olho_10_">
						<g>
							<path class="st7" d="M93.1,139c0,5.8-4.6,10.5-10.4,10.5c-5.8,0-10.5-4.6-10.5-10.4c0-5.8,4.6-10.5,10.4-10.5
								C88.4,128.6,93.1,133.2,93.1,139z"/>
						</g>
					</g>
					<g id="olho_4_">
						<g>
							<path class="st7" d="M189.9,139c0,5.8-4.6,10.5-10.4,10.5c-5.8,0-10.5-4.6-10.5-10.4c0-5.8,4.6-10.5,10.4-10.5
								C185.2,128.6,189.9,133.2,189.9,139z"/>
						</g>
					</g>
					<g>
						<path class="st9" d="M131.3,218.7c-4.7-0.1-9.4-0.7-14.1-1.7c-1.9-0.4-3.1-2.3-2.6-4.2c0.4-1.9,2.3-3.1,4.2-2.6
							c9.1,2.1,18.5,2.1,27.1,0.1c1.9-0.4,3.8,0.7,4.2,2.6s-0.7,3.8-2.6,4.2C142.2,218.2,136.8,218.8,131.3,218.7z"/>
					</g>
					<g>
						<g id="boca_12_">
							<g>
								<g>
									<g>
										<path class="st7" d="M132.7,196.9c13.4-0.1,24.7-9.3,27.7-21.8c0.9-3.5-1.9-6.9-5.5-6.9l-44.6,0.2c-3.6,0-6.4,3.4-5.5,6.9
											C108,187.7,119.3,196.9,132.7,196.9z"/>
									</g>
								</g>
								<g>
									<path class="st10" d="M159.9,176.8c0.5-1.7,0.9-3.5,1.1-5.6c0.2-2.3-1.6-4.2-3.9-4.2l-49.2,0.2c-2.3,0-4.1,2-3.8,4.2
										c0.2,2.1,0.6,3.9,1.1,5.6L159.9,176.8z"/>
								</g>
							</g>
							<g>
								<path class="st11" d="M133.8,197c-13.2,0.1-18.7-6.5-18.7-6.5c4.4-3.2,11.1-5.2,18.7-5.2c6.6,0,13.8,1.5,18.1,3.9
									C151.9,189.2,147,196.9,133.8,197z"/>
							</g>
						</g>
						<g>
							<path class="st7" d="M157.2,167c2.3,0,4.1,2,3.9,4.2c-0.1,1.3-2,9.7-9.7,18.7c-1.6,1.9-6.8,7.1-17.5,7.1c0,0,0,0-0.1,0
								c-2.2,0-10-0.5-14.4-3.3c-6.3-4-11.8-9.4-14.1-16.7c0,0-1.2-3.5-1.2-5.6c0-2.3,1.6-4.2,3.8-4.2L157.2,167
								C157.2,167,157.2,167,157.2,167 M157.2,160L157.2,160L157.2,160l-49.2,0.2c-6,0-10.8,4.9-10.8,11.2c0,3,1.1,6.7,1.5,7.9
								c2.6,8,8.3,14.9,17,20.4c6.9,4.3,17.6,4.4,18.1,4.4h0h0.1c13.5-0.1,20.4-6.7,22.9-9.6c8.4-9.9,11-19.6,11.3-22.5
								c0.3-3-0.7-6.1-2.8-8.3C163.2,161.3,160.2,160,157.2,160L157.2,160z"/>
						</g>
					</g>
					<path class="st12" d="M77.4,90.9C66.4,79.6,57.3,73.9,50.6,73.9c-3.6,0-6.6,1.6-8.8,4.7c-4.9,6.8-5.3,19.5-4.7,28.9
						c0.6,10.5,2.8,22.6,5.5,30.7l0.3,0.9l0.9-0.2c20.9-4.6,32.3-20.5,34-47.2l0-0.4L77.4,90.9z"/>
					<path class="st13" d="M42.2,113.3c-0.6-9.4-0.2-22.1,4.7-28.9c2.2-3.1,5.2-4.7,8.8-4.7c5.7,0,12.9,4,21.6,11.9c0,0,0,0,0,0
						l0-0.4l-0.3-0.3C66,79.7,57,74,50.3,74c-3.6,0-6.6,1.6-8.8,4.7c-4.9,6.8-5.3,19.4-4.7,28.9c0.6,10.5,2.8,22.6,5.5,30.7l0.3,0.9
						l0.9-0.2c0.9-0.2,1.8-0.4,2.7-0.7C44.1,130.7,42.7,121.6,42.2,113.3z"/>
					<g>
						<g>
							<path class="st7" d="M50.3,76.1c6,0,14.4,4.7,26.1,16.6c-1.5,24-11,41.4-33.2,46.3C37.2,121.1,31.9,76.1,50.3,76.1
								 M50.3,70.1c-5.2,0-9.7,2.3-12.9,6.8c-4.6,6.4-6.5,17.2-5.7,32.1c0.6,10.9,2.9,23.5,5.7,32c0.8,2.5,3.2,4.1,5.7,4.1
								c0.4,0,0.9-0.1,1.3-0.1c12.2-2.7,21.7-8.9,28.1-18.5c5.7-8.5,9-19.7,9.8-33.2c0.1-1.7-0.5-3.4-1.7-4.6
								C68.5,76.2,58.6,70.1,50.3,70.1L50.3,70.1z"/>
						</g>
					</g>
					<path class="st12" d="M227.7,78.4c-1.4-5.8-11.7-18-26.3-17.5c-2.4-6.8-2.8-33.2-78-30.3C70,32.6,29,62.3,73.2,85.2
						c35.8,18.5,76.3,11.5,114.8-1.3c4.9,31.9,15.1,49.3,19.9,55c0.3,0,0.5-0.1,0.8-0.1c3.3-0.1,6.2,0.5,8.8,1.3
						C225.9,115.4,231.1,92.4,227.7,78.4z"/>
					<path class="st13" d="M123.9,40.8c75.2-2.8,68.6,24.5,71,31.3c20.4-5,26.1,10.5,26.3,16.5c0.4,11.1-3.1,45.4-3,48.5
						c0.9-7.5,11.9-54.2,10.6-59.5c-1.4-5.8-11.7-18-26.3-17.5c-2.4-6.8-2.8-33.2-78-30.3c-41,1.5-74.7,19.4-68,38
						C63,53.7,91.1,42.1,123.9,40.8z"/>
					<path class="st14" d="M228.9,77c-1.4-5.8-11.7-18-26.3-17.5c-2.4-6.8-2.8-33.2-78-30.3c-53.3,2-94.3,31.7-50.1,54.6
						c35.8,18.5,76.3,11.5,114.8-1.3c4.9,31.9,15.1,49.3,19.9,55c0.3,0,0.5-0.1,0.8-0.1c3.3-0.1,6.2,0.5,8.8,1.3
						C227,113.9,232.3,91,228.9,77z"/>
				</g>
			</g>
		</g>
	</g>
</g>
<g id="Camada_4" class="st15">
	<path class="st16" d="M285.3-6H-25v207.8h24.8c0,0.2,0,0.4,0,0.6c0,72.4,58.7,131,131.1,131c72.4,0,131-58.7,131-131
		c0-0.2,0-0.4,0-0.6h23.3L285.3-6L285.3-6z"/>
</g>
<g id="Camada_3" class="st15">
	<circle class="st17" cx="130.9" cy="201.1" r="131.1"/>
	<path class="st16" d="M285.1-5.2H-25.2v207.8h24.9c0,0.2,0,0.4,0,0.6c0,72.4,58.7,131.1,131.1,131.1c72.4,0,131-58.7,131-131
		c0-0.2,0-0.4,0-0.6h23.3L285.1-5.2L285.1-5.2z"/>
</g>
</svg>
