<?xml version="1.0" encoding="utf-8"?>
<!-- Generator: Adobe Illustrator 24.0.1, SVG Export Plug-In . SVG Version: 6.00 Build 0)  -->
<svg version="1.1" id="Camada_1" xmlns="http://www.w3.org/2000/svg" xmlns:xlink="http://www.w3.org/1999/xlink" x="0px" y="0px"
	 viewBox="0 0 262 330" style="enable-background:new 0 0 262 330;" xml:space="preserve">
<style type="text/css">
	.st0{display:none;}
	.st1{display:inline;fill:#FFFFFF;}
	.st2{display:inline;opacity:0.33;fill:none;stroke:#000000;stroke-miterlimit:10;enable-background:new    ;}
	.st3{clip-path:url(#SVGID_2_);}
	.st4{fill:#FFBF1F;}
	.st5{fill:none;stroke:#012442;stroke-width:48;stroke-linecap:round;stroke-linejoin:round;stroke-miterlimit:10;}
	.st6{fill:none;stroke:#FFBB71;stroke-width:30;stroke-linecap:round;stroke-linejoin:round;stroke-miterlimit:10;}
	.st7{fill:#FFBB71;}
	.st8{fill:#E86969;stroke:#012442;stroke-width:3;stroke-linecap:round;stroke-linejoin:round;stroke-miterlimit:10;}
	.st9{fill:#E86969;}
	.st10{fill:none;stroke:#012442;stroke-width:8;stroke-linecap:round;stroke-miterlimit:10;}
	.st11{fill:#012442;}
	.st12{fill:#F7E9DE;}
	.st13{fill:#D69051;}
	.st14{fill:#E28674;}
	.st15{fill:#FFFFFF;}
	.st16{fill:none;stroke:#012442;stroke-width:7;stroke-linecap:round;stroke-linejoin:round;stroke-miterlimit:10;}
	.st17{fill:#276AD6;stroke:#012442;stroke-width:8;stroke-linecap:round;stroke-linejoin:round;stroke-miterlimit:10;}
	.st18{fill:#276AD6;}
	.st19{fill:#299EED;}
	.st20{fill:none;stroke:#012442;stroke-width:8;stroke-linecap:round;stroke-linejoin:round;stroke-miterlimit:10;}
</style>
<g id="Camada_4" class="st0">
	<path class="st1" d="M285.3-6H-25v207.8h24.8c0,0.2,0,0.4,0,0.6c0,72.4,58.7,131.1,131.1,131.1c72.4,0,131-58.7,131-131.1
		c0-0.2,0-0.4,0-0.6h23.3L285.3-6L285.3-6z"/>
</g>
<g id="Camada_3" class="st0">
	<circle class="st2" cx="130.9" cy="201.1" r="131.1"/>
	<path class="st1" d="M285.1-5.2H-25.2v207.8h24.9c0,0.2,0,0.4,0,0.6c0,72.4,58.7,131.1,131.1,131.1c72.4,0,131-58.7,131-131.1
		c0-0.2,0-0.4,0-0.6h23.3L285.1-5.2L285.1-5.2z"/>
</g>
<g id="Camada_7">
</g>
<g id="Camada_3_1_" class="st0">
	<circle class="st2" cx="481.6" cy="242.7" r="131.1"/>
</g>
<g>
	<defs>
		<path id="SVGID_1_" d="M282.9-0.6H-20.3v194h20.1v4.9H0c0,0.2,0,0.4,0,0.5c0,72.4,58.7,131.1,131,131.1
			c72.4,0,131.1-58.7,131.1-131.1c0-0.2,0-0.4,0-0.5h0.1v-4.9H283L282.9-0.6L282.9-0.6z"/>
	</defs>
	<clipPath id="SVGID_2_">
		<use xlink:href="#SVGID_1_"  style="overflow:visible;"/>
	</clipPath>
	<g id="Camada_5" class="st3">
		<g>
			<g>
				<g>
					<circle class="st4" cx="130.7" cy="198.7" r="131.1"/>
				</g>
				<g>
					<path class="st5" d="M190.3,246.4c0,0,26.9,22.6,41.2,85"/>
				</g>
				<g>
					<path class="st6" d="M190.3,246.4c0,0,26.9,22.6,41.2,85"/>
				</g>
				<g>
					<path class="st5" d="M73.5,246.4c0,0-26.9,22.6-41.2,85"/>
				</g>
				<g>
					<path class="st6" d="M73.5,246.4c0,0-26.9,22.6-41.2,85"/>
				</g>
				<g>
					<path class="st7" d="M166.6,229.7l-1-5.9h-67l-1,5.9c-0.3,1.6-0.4,3.2-0.4,4.7c0,17.4,15.6,31.6,34.8,31.6s34.9-14.2,34.9-31.6
						C167,232.8,166.8,231.2,166.6,229.7z"/>
				</g>
				<g>
					<path class="st8" d="M173.4,238.3c-4.7,2.8-9.6,5.1-14.6,7.2c0,0.3,0,0.7,0,1c0,13.6-12.5,24.6-27.9,24.6
						c-14.2,0-26-9.5-27.6-21.6c-6-2.5-11.4-6.3-15.8-11.8c-34.3,34.3-32.5,127.1-32.5,127.1l156.9-0.9
						C212,363.9,213.5,279,173.4,238.3z"/>
				</g>
				<g>
					<g>
						<g>
							<path class="st9" d="M182.9,286.3l48.4-24.6c-0.3-0.7-22.5-47-56.5-41.1l-7,1.1c-10.8,4.4-9.6,19.3-5.3,30.1L182.9,286.3z"/>
						</g>
					</g>
				</g>
				<g>
					<g>
						<path class="st10" d="M203,277.7l30.2-14c-0.3-0.7-25.6-54.2-62.5-42"/>
					</g>
				</g>
				<g>
					<g>
						<g>
							<path class="st9" d="M81,286.3l-48.4-24.6c0.3-0.7,22.5-47,56.5-41.1l7,1.1c10.8,4.4,9.6,19.3,5.3,30.1L81,286.3z"/>
						</g>
					</g>
				</g>
				<g>
					<g>
						<path class="st10" d="M64.8,278.6l-34.2-14.9c0.3-0.7,25.6-54.2,62.5-42"/>
					</g>
				</g>
				<g>
					<g>
						<path class="st11" d="M158.6,230.9c0.2,1.3,0.3,2.7,0.3,4.1c0,15.4-12.5,27.9-27.9,27.9s-27.8-12.5-27.8-27.9
							c0-1.4,0.1-2.7,0.3-4.1H158.6 M165.5,222.9h-6.9h-55.1h-6.9l-1,6.8c-0.2,1.7-0.4,3.5-0.4,5.2c0,19.8,16.1,35.9,35.8,35.9
							s35.9-16.1,35.9-35.9c0-1.7-0.1-3.5-0.4-5.2L165.5,222.9L165.5,222.9z"/>
					</g>
				</g>
				<g>
					<path class="st10" d="M194.5,259.2c0,0,13,39.5,14.6,95.2"/>
				</g>
				<g>
					<path class="st10" d="M71,259.2c0,0-13,39.5-14.6,95.2"/>
				</g>
				<g>
					<g>
						<path class="st11" d="M130.1,57.5c28.8,0,57.8,10.4,71.1,32.8c9.4,15.7,7.7,51.4,7.7,51.4c0.4,0,0.6,0,0.7,0c0,0,0,0,0.1,0
							c9.4,0,16.9,7.6,17,16.9c0,9.4-7.5,17-16.9,17c-0.1,0-0.5,0-1.1,0c-4.2,36.4-35.1,62-76.9,62.1c-0.1,0-0.2,0-0.4,0
							c-42.1,0-73.3-25.9-77.2-62.8c-1.4,0-2.3,0-2.4,0c0,0,0,0-0.1,0c-9.1,0-16.6-7.4-16.6-16.6c0-9.2,7.4-16.6,16.5-16.7
							c0.1,0,0.8,0,1.9,0l-0.1-7.3c0-4.5-0.3-35.3,7.1-47.1C72.6,68,101.2,57.5,130.1,57.5 M130.1,49.5L130.1,49.5
							c-15.7,0-31,2.9-44.2,8.3c-14.4,5.9-25.6,14.7-32.3,25.3c-5.6,8.9-8.3,26-8.3,50.8v0.5v0.1v0c-4.2,1.1-8.1,3.3-11.2,6.5
							c-4.6,4.7-7.2,10.9-7.2,17.4c0,12,8.7,22,20.1,24.1c7.2,37.6,40.9,63.2,84.1,63.2h0.4c22.3-0.1,42.2-6.7,57.6-19.3
							c13.6-11.1,22.8-26.4,26.3-43.5c4.4-1.1,8.5-3.4,11.9-6.7c4.7-4.7,7.3-11,7.2-17.7c0-11.1-7.4-20.6-17.6-23.7
							c0-12-1.1-35.5-9-48.6c-7.1-12-18.7-21.7-33.5-28C161.5,52.5,146.1,49.5,130.1,49.5L130.1,49.5L130.1,49.5z"/>
					</g>
				</g>
				<g>
					<g>
						<g>
							<path class="st12" d="M209.9,150c5.8,0,10.6,4.7,10.6,10.5s-4.7,10.6-10.5,10.6c-5.8,0-10.6-4.7-10.6-10.5
								C199.3,154.8,204,150.1,209.9,150"/>
						</g>
					</g>
				</g>
				<g>
					<path class="st7" d="M209.6,141.7l-0.2-12.8c0-19.3-4.6-36.4-12.2-46.8c-12.7-17.7-37.4-23.9-57.8-25.3
						c-4.9-0.3-58.6-2.5-78,25.3c-7.9,11.4-9.1,22-9.1,37.1l0.1,22.5c-1.2,0-2,0-2.1,0c-9.2,0-16.6,7.5-16.5,16.7
						c0,9.2,7.5,16.6,16.7,16.6c0.1,0,1.1,0,2.5,0c3.5,37.4,35,63.8,77.6,63.6c42.1-0.1,75-26.1,79-62.9c0,0,0.1,0,0.1,0
						c9.4,0,16.9-7.6,16.9-17C226.6,149.3,219,141.7,209.6,141.7z"/>
				</g>
				<g>
					<g>
						<path class="st13" d="M131.7,221.7c-3.9-0.1-7.8-0.7-11.6-1.9c-1.6-0.5-2.5-2.7-2.1-4.9c0.4-2.2,1.9-3.6,3.5-3.1
							c7.5,2.3,13.5,3,22.4-0.1c1.6-0.6,3.1,0.8,3.5,3c0.4,2.2-0.6,4.4-2.2,4.9C140.7,221.1,136.2,221.8,131.7,221.7z"/>
					</g>
				</g>
				<g>
					<path class="st11" d="M69.4,139.7l4.2-0.1l-2.4-6.3h11.7c0.2,0,0.4,0,0.6,0c5.8,0,10.4,4.7,10.4,10.5c0,5.8-4.7,10.4-10.5,10.4
						c-4.3,0-8.1-2.7-9.6-6.5L69.4,139.7z"/>
				</g>
				<g>
					
						<ellipse transform="matrix(0.9667 -0.2558 0.2558 0.9667 -37.3243 53.1246)" class="st14" cx="185.6" cy="170" rx="12.4" ry="11.1"/>
				</g>
				<g>
					
						<ellipse transform="matrix(0.2558 -0.9667 0.9667 0.2558 -108.4906 199.1631)" class="st14" cx="75.1" cy="170" rx="11.1" ry="12.4"/>
				</g>
				<g>
					<path class="st11" d="M193,139.7l-4.2-0.1l2.4-6.3h-11.7c-0.2,0-0.4,0-0.6,0c-5.8,0-10.4,4.7-10.4,10.5
						c0,5.8,4.7,10.4,10.5,10.4c4.4,0,8.1-2.7,9.6-6.5L193,139.7z"/>
				</g>
				<g>
					<g>
						<path class="st9" d="M163.3,176.3c-5.5,7.1-21.9-6.9-31.1,2.2c-8.7-9.1-25.4,4.8-30.9-1.9c-0.2,0.1-0.3,0.1-0.5,0.2
							c10.9,35.8,50.7,37.5,62.9-0.4C163.6,176.3,163.4,176.3,163.3,176.3z"/>
					</g>
				</g>
				<g>
					<path class="st15" d="M112.2,182.3c3.9,7.8,12.7,11.6,20.5,11.6c8.5,0,18.4-7,19.4-11.6L112.2,182.3z"/>
				</g>
				<g>
					<path class="st16" d="M65.7,123c8.9-5.2,19.9-6.9,29.9-4.2"/>
				</g>
				<g>
					<path class="st16" d="M197.6,123c-8.9-5.2-19.9-6.9-29.9-4.2"/>
				</g>
				<g>
					<g>
						<path class="st17" d="M177.8,75.5c-2.6-9.6-10.6-18.5-18.6-24.3c-39.1-28.2-54,19.5-38.6,17.3C137.6,66,163.3,68.6,177.8,75.5
							z"/>
						<path class="st18" d="M232.7,167.5c-1.2-4.5,1.2-10.1,7.2-10.1c4.8,0.1,9.4-1,13.6-3c-1.4-2-2.6-4-3.8-6
							c-6.1-10.3-9.3-21.6-11.2-33.3c-2.4-14-3.6-28-6.8-41.8c-2.2-9.6-3.9-21.3-11.5-28.3c-1.9-1.7-2.6-3.8-2.4-5.7
							c-5-6.8-10.7-12.7-16.8-17.6c-2.4-1.2-4.7-2.4-7.1-3.5c-13-6.2-27.3-9.7-41.7-10.1c-2.7-0.1-5.1,0.5-7.7,1
							c-4,0.6-8,0.7-12.1,0.6c-7.5,0-12.9,1.6-19.4,5.3c-5.8,3.3-11.6,7.2-16.5,11.8c-3.9,3.7-6.2,8.3-8.9,12.9
							c-1.8,3.1-5.5,4.4-8.8,3.6c-17.7-4.2-33.4,6.1-45.7,17.9c-0.6,0.6-1.3,1.1-2,1.4c-2.1,3.6-4,7.3-5.7,11
							c-3.8,8.4-7.6,17.2-8.5,26.4c-1.2,12.4,0.9,30.4,2.9,48.9c2.2,12,3.3,24.2,3.9,36.2c0.9,18.8-1.4,37.2-14.5,51.2
							c1,1.1,2.7,1.6,4.3,3.4c5.6,6.3,13.2,16.5,18.8,22.8c7.3-16.8,22.7-30.5,38.9-39.1C60,211.3,53.3,195,52.5,178.3
							c-10.7-2.3-20.9-10.4-21.9-21.3c-0.4-4.5,0.8-8.9,2.5-13.1c0.2,0.8,0.4,1.6,0.5,2.5c0.4-1.7,2.4-2.9,4-3.6
							c4.6-1.9,9.5-3.1,14.5-3.5c33.3-20.8,23.2-85.9,66.8-70.8c0,0,8.5-42,44.7-13c29.6,23.7,25.3,102,57.5,129.3
							c0.2,0,0.4,0,0.6,0.1c6.4,0.9,12.8,2,18.5-0.2c-1.7-4.3-3.6-8.5-6.2-12.4C232.9,170.7,232.5,169,232.7,167.5z"/>
						<path class="st19" d="M233.7,170.2c-11.3-7.6-19.8-19.2-20.7-31.9c-1.8-23.8,13.3-51.3,21-47.9c-0.9-3.4-1.6-6.8-2.1-10.3
							c-0.5-3.4-0.6-6.8-0.8-10.3c-4.9-18.1-10.9-30.7-26.6-45.2c-7.3,10.9-3.1,25.8-5.6,37.9c-5.2,13.5-15,3.3-18.7-4.3
							c-5.3-7.9-11.3-15.9-18.7-21.7c-25.8-19.6-54.3,2.2-43.2,31.8c0.2,0.1,0.5,0.2,0.7,0.2c0.8-13.5,17.8-38.9,50.6-3.9
							c21.9,30.4,14.2,75.2,35.6,107.7c4.5,7.1,11.4,13.1,19.4,17.1c0.7-0.5,1.5-1,2.4-1.3c2.9-1.1,5.9-2.2,8.9-3.1
							c-0.4-1-0.8-2-1-3.1C234,178.2,233.7,174.2,233.7,170.2z"/>
						<path class="st19" d="M77.9,47.1c-5.2-0.7-14.3-6.1-19.8-4.9c-1.9,0.9-3.6,1.8-4.8,2.6c-4.3,2.7-8.5,5.8-12.6,8.7
							c-2.3,1.6-4.7,3.3-6.9,5.2c-10.3,15.6-16.6,34.9-17,45.4c-0.4,55.7,20.5,98.8-7.8,128.9c0.8,1.1,6.4,6.3,6.9,7.5
							c1,2.4,12.8,0.1,19.7-19.4C49.2,182.5,2.5,74.4,77.9,47.1z"/>
						<path class="st19" d="M91.5,62.5c-1.4-5.7-3-9.6-6.2-14.4c-0.3-0.5-0.6-0.9-1-1.3c-2.5,0.5-5.2-0.1-6.9-2.1
							c-2.3-2.8-3.8-3.3-7.8-2.9c-3.9,0.5-8.2,2.3-11.9,4.2c-7.6,3.9-14.8,9-21,14.9c-0.2,0.8-0.4,1.6-0.6,2.4
							c-0.1,0.9,0,3.9,0.6,5.6c0.7,2.3,2.3,4.8,4.1,6.8c0.2,0.3,1.6,1.4,1.6,1.5c0.7,0.5,1.5,0.9,2.3,1.3c0.4,0.2,0.7,0.3,1.1,0.5
							c0.1,0,0.4,0.1,0.7,0.3c1.2,0.4,2.4,0.8,3.6,1.2c5,1.6,10.1,2.8,15,4.7c5.8,2.2,11,5.5,14.7,9.8c3.7-9.5,7.5-18,13.3-23.3
							C92.8,68.6,92.3,65.5,91.5,62.5z"/>
						<path class="st20" d="M52.2,139.4c33.3-20.8,24.1-81.6,66.8-70.8c0,0,17.7-37.4,45.7-13.1c36.2,31.4-0.1,141,77,130.7
							c-3.6-0.9-10.5-18.1-11.8-30.8c6.8,3.6,11.3,5.2,23.9-0.1c-25-25.2-22.1-84.2-31.9-103C193-2.6,134.2-0.9,104.7,22.3
							c-9.4,7.4-15.1,17.3-17.1,29.1c-26.8-28.2-77,19.2-72.4,78.1c1.1,13.9,26,81.4-2.7,104.3c5,11.2,10.7,18,21.3,24.1
							c12.9-18.7,19.8-28.2,37.9-35.3c-12.1-11.3-16.8-27.9-20.9-43.9c-7.3-0.5-14-4.9-16.7-11.8C24.6,142.8,47.2,139.8,52.2,139.4z
							"/>
					</g>
				</g>
				<g>
					<path class="st18" d="M227.9,186.7c-0.9-0.2-1.8-0.4-2.8-0.6c-4.5,0.9-7,2-12.8-3.1c-4,14.4-12.4,27.6-24,37
						c18.4,8,34.3,21.8,44.8,38.9c5.6-2.4,10.7-7.8,16.1-11.6C234.7,232.1,230.1,207.9,227.9,186.7z"/>
				</g>
				<g>
					<path class="st20" d="M232,256.5c7.9-2.6,14.6-8.4,19-15.5c-7.8-4.3-27.3-35.9-22.2-54.4c-11.2,1-3.5,1-16.4-3.6
						c-3.3,17.1-10.4,28.6-22,38c17.4,7.5,29.8,20.2,40,36.1C230.9,256.9,231.4,256.7,232,256.5z"/>
				</g>
			</g>
		</g>
	</g>
</g>
</svg>
