<?xml version="1.0" encoding="utf-8"?>
<!-- Generator: Adobe Illustrator 24.0.1, SVG Export Plug-In . SVG Version: 6.00 Build 0)  -->
<svg version="1.1" xmlns="http://www.w3.org/2000/svg" xmlns:xlink="http://www.w3.org/1999/xlink" x="0px" y="0px"
	 viewBox="0 0 262 330" style="enable-background:new 0 0 262 330;" xml:space="preserve">
<style type="text/css">
	.st0{clip-path:url(#SVGID_2_);}
	.st1{fill:#FFBF1F;}
	.st2{fill:none;stroke:#012442;stroke-width:48;stroke-linecap:round;stroke-linejoin:round;}
	.st3{fill:none;stroke:#FFBB71;stroke-width:30;stroke-linecap:round;stroke-linejoin:round;}
	.st4{fill:#FFBB71;}
	.st5{fill:#E86969;stroke:#012442;stroke-width:3;stroke-linecap:round;stroke-linejoin:round;}
	.st6{fill:#E86969;}
	.st7{fill:none;stroke:#012442;stroke-width:8;stroke-linecap:round;stroke-miterlimit:10;}
	.st8{fill:#012442;}
	.st9{fill:#F7E9DE;}
	.st10{fill:#2F61DD;}
	.st11{fill:#D69051;}
	.st12{fill:#E28674;}
	.st13{fill:#FFFFFF;}
	.st14{fill:none;stroke:#012442;stroke-width:7;stroke-linecap:round;stroke-linejoin:round;}
	.st15{fill:#299EED;}
	.st16{display:none;}
	.st17{display:inline;}
	.st18{fill:#2BB2FC;}
	.st19{fill:none;stroke:#2BB2FC;stroke-miterlimit:10;}
</style>
<g id="Camada_1">
	<g>
		<title>22-01</title>
		<g id="Camada_5">
			<g>
				<defs>
					<path id="SVGID_1_" d="M285.5-9.3H-24.8v207.8H-11c0,0.2,0,0.4,0,0.6c-1.6,34.5,13.5,34.4,19.9,49.7
						C29.6,298,77.7,330,131.1,330.1c72.4,0,131-58.6,131.1-131c0-0.2,0-0.4,0-0.6h23.3V-9.3z"/>
				</defs>
				<clipPath id="SVGID_2_">
					<use xlink:href="#SVGID_1_"  style="overflow:visible;"/>
				</clipPath>
				<g class="st0">
					<circle class="st1" cx="131" cy="198.5" r="131.1"/>
					<path class="st2" d="M190.7,246.2c0,0,26.9,22.6,41.2,85.1"/>
					<path class="st3" d="M190.7,246.2c0,0,26.9,22.6,41.2,85.1"/>
					<path class="st2" d="M73.8,246.2c0,0-26.9,22.6-41.2,85.1"/>
					<path class="st3" d="M73.8,246.2c0,0-26.9,22.6-41.2,85.1"/>
					<path class="st4" d="M166.9,229.5l-1-5.9h-67l-1,5.9c-0.3,1.6-0.4,3.1-0.4,4.7c0,17.4,15.6,31.6,34.9,31.6s34.9-14.2,34.9-31.6
						C167.2,232.6,167.1,231,166.9,229.5z"/>
					<path class="st5" d="M173.7,238.1c-4.7,2.7-9.6,5.1-14.6,7.2c0,0.3,0,0.7,0,1c0,13.6-12.5,24.6-27.8,24.6
						c-14.2,0-26-9.5-27.6-21.6c-6.2-2.5-11.6-6.6-15.8-11.8c-34.2,34.3-32.4,127.2-32.4,127.2l156.9-0.8
						C212.3,363.7,213.8,278.8,173.7,238.1z"/>
					<path class="st6" d="M183.1,286.1l48.4-24.6c-0.3-0.7-22.5-47-56.5-41.1l-7,1.1c-10.8,4.4-9.6,19.3-5.3,30.1L183.1,286.1z"/>
					<path class="st7" d="M203.3,277.5l30.2-14c-0.3-0.7-25.6-54.2-62.5-42"/>
					<path class="st6" d="M81.3,286.1l-48.4-24.5c0.3-0.7,22.5-47,56.5-41.1l7,1.1c10.8,4.4,9.6,19.3,5.3,30.1L81.3,286.1z"/>
					<path class="st7" d="M65.1,278.4l-34.2-14.9c0.3-0.7,25.6-54.2,62.5-42"/>
					<path class="st8" d="M158.9,230.6c0.2,1.3,0.3,2.7,0.3,4.1c0.3,15.4-11.9,28.1-27.3,28.4s-28.1-11.9-28.4-27.3
						c0-0.4,0-0.7,0-1.1c0-1.4,0.1-2.7,0.3-4.1H158.9 M165.8,222.6H96.9l-1,6.9c-0.3,1.7-0.4,3.5-0.4,5.2
						c-0.3,19.8,15.4,36.1,35.2,36.4c19.8,0.3,36.1-15.4,36.4-35.2c0-0.4,0-0.8,0-1.2c0-1.7-0.1-3.5-0.4-5.2L165.8,222.6z"/>
					<path class="st7" d="M194.8,259c0,0,13,39.5,14.6,95.2"/>
					<path class="st7" d="M71.4,259c0,0-13,39.5-14.6,95.2"/>
					<path class="st8" d="M130.4,57.3c28.8,0,57.8,10.4,71.1,32.8c9.4,15.7,7.7,51.4,7.7,51.4h0.7c9.4,0.6,16.5,8.7,15.8,18.1
						c-0.6,8.5-7.3,15.2-15.8,15.8h-1.1c-4.2,36.4-35.1,62-77,62.1h-0.4c-42.1,0-73.3-25.9-77.2-62.8h-2.4l0,0
						c-9.2,0-16.6-7.4-16.6-16.6s7.4-16.6,16.6-16.6h1.9l-0.1-7.3c0-4.5-0.3-35.3,7.1-47.1C72.9,67.8,101.5,57.3,130.4,57.3
						 M130.4,49.3c-15.1-0.1-30.1,2.7-44.1,8.3C71.8,63.5,60.7,72.3,54,82.9c-5.5,8.9-8.3,26-8.3,50.8v0.6
						c-10.9,2.9-18.4,12.7-18.4,23.9c0.1,11.8,8.5,21.9,20.1,24.1c7.2,37.6,40.9,63.2,84.1,63.2h0.4c22.3-0.1,42.2-6.7,57.6-19.3
						c13.6-11,22.9-26.4,26.3-43.5c13.4-3.3,21.6-16.9,18.3-30.3c-2.1-8.4-8.4-15.2-16.7-17.8c0-12-1.1-35.5-8.9-48.6
						c-7.1-12-18.7-21.7-33.5-28C161.8,52.3,146.4,49.3,130.4,49.3L130.4,49.3z"/>
					<path class="st9" d="M210.2,149.8c5.8,0,10.6,4.7,10.6,10.5c0,5.8-4.7,10.6-10.5,10.6c-5.8,0-10.6-4.7-10.6-10.5c0,0,0,0,0,0
						C199.6,154.6,204.4,149.9,210.2,149.8C210.2,149.8,210.2,149.8,210.2,149.8"/>
					<path class="st4" d="M209.9,141.5l-0.2-12.8c0-19.4-4.6-36.4-12.2-46.8c-12.7-17.7-37.4-23.9-57.8-25.2
						c-4.9-0.3-58.6-2.5-78,25.3c-7.9,11.4-9.1,22-9.1,37.1l0.1,22.5h-2.1c-9.2,0-16.6,7.5-16.6,16.7c0,9.2,7.5,16.6,16.7,23.6h2.5
						c3.5,30.4,35,56.8,77.6,56.6c42.1-0.1,75-26.1,79-62.9h0.1c9.4-0.7,15.4-8.8,14.8-18.2C224.1,148.8,218.4,142.1,209.9,141.5
						L209.9,141.5z"/>
					<path class="st10" d="M248.3,186.3c6.7-4.6,8.9-13.9,8.9-21.9c-0.1-8.2-4.3-15.9-11.2-20.4c2.5-4.4,3.9-9.6,5.1-14.6
						c1.2-5,1-10.5-1.7-14.8c-3-4.7-8.6-7.3-14.2-8c2.1-6.5-0.3-13.2-3.3-19.3s-9.3-10.8-16.1-10.7c1.6-6.7-1.5-13.7-6.4-18.6
						c-5.1-4.9-12.3-6.9-19.1-5.3c0.4-7.7-2.1-16.7-8.5-21c-4.9-3.3-16.6-3.7-21.4-0.3c0.9-2.5-0.8-5.6-2.9-7.3s-4.8-2.4-7.4-3
						c-2.9-0.9-5.8-1.4-8.8-1.4c-6.5,0.3-12.3,4.2-14.9,10.2c-2.4,5.9-3.5,15.2,1,19.7c-5.1,5.1-5.1,14-0.9,19.7s11.9,8.5,19.1,7.6
						c-5,5.3-4.5,14.5,0.2,20.2s12.6,8,19.9,7.2c0.5,6.1,3.5,12.9,9,15.7c5.6,2.7,12.3,2.4,17.6-0.8c-2.6,6.8,0.8,15.6,6.7,19.8
						s13.6,5.3,20.8,4.6c6.8-0.6,10.7,6,12.4,12.5c2.9,11.5-4.1,23.2-15.6,26.1c-0.2,0.1-0.4,0.1-0.7,0.2c-0.4,6.9-6.2,23.3-19.6,37
						c15,7.1,27.7,17.6,33.9,32.9c6.8-1.4,12.4-1.7,14.8-8.3c2.4-6.7,1.2-14.2-3.2-19.8c7.5-2.3,12.7-8.9,14.2-16.6
						C257.4,199.6,254.5,191.5,248.3,186.3z"/>
					<path class="st11" d="M132,221.5c-3.9-0.1-7.9-0.7-11.6-1.9c-1.6-0.5-2.5-2.7-2.1-4.9s1.9-3.6,3.5-3.1c7.5,2.4,13.5,3,22.4-0.1
						c1.6-0.6,3.1,0.8,3.5,3s-0.6,4.4-2.2,4.9C141.1,220.9,136.5,221.6,132,221.5z"/>
					<path class="st8" d="M69.8,139.5l4.2-0.1l-2.4-6.3h11.7c0.2,0,0.4,0,0.6,0c5.8,0,10.4,4.7,10.4,10.5c0,5.8-4.7,10.4-10.5,10.4
						c-4.2,0-8-2.6-9.6-6.5L69.8,139.5z"/>
					
						<ellipse transform="matrix(0.9667 -0.2558 0.2558 0.9667 -37.2606 53.1944)" class="st12" cx="185.9" cy="169.8" rx="12.4" ry="11.1"/>
					
						<ellipse transform="matrix(0.2558 -0.9667 0.9667 0.2558 -108.041 199.3254)" class="st12" cx="75.4" cy="169.8" rx="11.1" ry="12.4"/>
					<path class="st8" d="M193.3,139.5l-4.2-0.1l2.4-6.3h-11.7h-0.6c-5.8,0-10.4,4.7-10.4,10.5c0,5.8,4.7,10.4,10.5,10.4
						c4.2,0,8-2.6,9.6-6.5L193.3,139.5z"/>
					<path class="st6" d="M164.6,176.1c-5.5,7.1-21.9-6.9-31.1,2.2c-8.7-9.1-25.4,4.8-30.9-1.9l-0.5,0.2
						c10.9,35.8,50.7,37.5,62.9-0.4L164.6,176.1z"/>
					<path class="st13" d="M113.5,182.1c4,7.8,12.7,11.7,20.5,11.7c8.5,0,18.4-7,19.4-11.6L113.5,182.1z"/>
					<path class="st14" d="M67,122.8c9-5.3,19.8-6.8,29.9-4.2"/>
					<path class="st14" d="M172.6,117.9c-1.2,0.2-2.4,0.4-3.5,0.7"/>
					<path class="st15" d="M250.3,186.3c6.7-4.6,8.9-13.9,8.9-21.9c-0.1-8.2-4.3-15.9-11.2-20.4c2.5-4.4,3.9-9.6,5.1-14.6
						c1.2-5,1-10.5-1.7-14.8c-3-4.7-8.6-7.3-14.2-8c2.1-6.5-0.3-13.2-3.3-19.3s-9.3-10.8-16.1-10.7c1.6-6.7-1.5-13.7-6.4-18.6
						c-5.1-4.9-12.3-6.9-19.1-5.3c0.4-7.7-2.1-16.7-8.5-21c-4.9-3.3-16.6-3.7-21.4-0.3c0.9-2.5-0.8-5.6-2.9-7.3s-4.8-2.4-7.4-3
						c-2.9-0.9-5.8-1.4-8.8-1.4c-6.5,0.3-12.3,4.2-14.9,10.2c-1.2,3.1-1.9,6.3-2.1,9.6c3-1.9,6.4-2.9,9.9-2.9c6.6,0,12.7,3.5,16,9.1
						c3.5-3,7.9-4.8,12.5-4.8c10.6,0,18.5,8.7,19,19c0.1,1.7-0.1,3.4-0.6,5c1.6-0.5,3.2-0.7,4.9-0.7c10.6,0,18.5,8.7,19,19
						c0,0.1,0,0.2,0,0.3c2.6,3.4,4.1,7.5,4.3,11.7c0.1,3-0.6,6-2.1,8.7c2.3,1.7,4.2,3.9,5.6,6.5c1.4-0.3,2.8-0.5,4.2-0.5
						c10.6,0,18.5,8.7,19,19c0.1,3.5-0.8,6.9-2.7,9.8c4.8,3.7,7.6,9.3,7.9,15.3c0.1,5.3-2.1,10.4-6.2,13.9c4.3,3.7,6.8,9,7,14.6
						c0.3,6.9-3.9,13.1-9.6,16.4c1.1,2.4,1.8,5.1,1.9,7.8c0.4,7.8-5.1,14.8-12.1,17.6c0,0.2,0,0.3,0,0.5c0.1,4.5-1.5,8.8-4.5,12.2
						c4.8,5.5,8.6,11.7,11.3,18.5c6.8-1.4,13.4-4.7,15.8-11.3c2.4-6.7,1.2-14.1-3.1-19.8c7.5-2.3,12.7-8.9,14.2-16.6
						C259.4,199.6,256.5,191.5,250.3,186.3z"/>
					<path class="st14" d="M231.1,255.2c17.2-2.8,21.2-19.2,12.6-31c16.3-5.1,19.3-27.8,6.6-37.9c12.7-9.7,11.7-33.7-2.3-42.4
						c8.6-16.6,9.2-34.5-10.8-37.4c3.1-11.9-5.4-30-19.4-30.1c3-13.7-11.8-27.6-25.6-23.8c3.1-17-12.1-28.6-29.9-21.3
						c1.3-7.9-8-12-14.7-13.3c-17.1-4.4-26.8,20.2-18.3,31.5c-11.4,13.7,3.4,29.7,18.1,27.3c-11.2,14.6,5.3,29.7,20.1,27.3
						c1,15.2,15,21.6,26.6,14.8c-4.7,31.4,28.4,25.5,31.1,30.6"/>
					<path class="st10" d="M134.2,43.7c-0.1-8.4-5.5-16.7-13.4-19.6s-17.7-0.2-22.4,6.8c0.1-2.7-4.7-4.3-7.1-5.4
						c-8.2-3.7-17.9-4.9-26.3-1.6c-8.4,3.3-15,11.9-14.2,20.9c-8.4-1.5-16.8,2.8-21.2,10.1c-4.4,7.6-3.8,17,1.5,24
						c-5.5-0.8-10.6,0.5-14.7,3.4c-1.5,2.3-3,4.5-4.1,7c-2.3,4.7-1.7,9.1-1,14.1c1.1,7.8-0.9,13.5-3.3,20.8
						c-1.2,3.6-1.4,7.3,0.2,10.9c1.3,3,3.8,5.5,4.7,8.7c1.7,5.8-3.8,9.6-6.4,14.1c-0.6,1.1-1.6,1.7-2.7,1.9
						c-5.9,13,0.7,26.1,12.4,35.2c1.3,1,1.5,2.8,0.9,4.3c0.6,1.7,0.2,3.6-1.8,4.7c-10.1,5.8-5,19-1,27.3c0.8,1.6,1.6,3.2,2.5,4.8
						c1.5,1,3.1,1.9,4.7,2.9c2.4,1.5,2.4,4.4,1,6.2c0.4,0.7,0.8,1.4,1.2,2.1c2.3,3.5,4.8,6.9,7.2,10.3c0.5,0.7,0.7,1.4,0.7,2
						c6.8-16.4,18.7-30.2,34-39.2c1.1-0.6,2.8-1.1,3.4,0c-8-11-14.5-25.5-16.4-39c-10.7-0.1-20-10-20.2-20.8s6.8-19.1,16.5-23.7
						c10.8-5.2,15.7-20,10.2-30.6c6.5,4,14.3,3,20.7-1.2c6.5-4.4,10-12,9.1-19.8c7.4,4.8,18.3,6.3,25.6,1.3
						c7.4-5.2,11-14.3,9.3-23.2C131,58.9,134.3,52.1,134.2,43.7z"/>
					<path class="st15" d="M119.7,25.1c-7.9-3-17.7-0.2-22.4,6.8c0.1-2.7-4.7-4.3-7.1-5.4c-8.2-3.7-17.9-4.9-26.3-1.6
						c-8.4,3.3-15,11.9-14.2,20.9c-8.4-1.5-16.8,2.8-21.2,10.1c-4.4,7.6-3.8,17,1.5,24c-5.2-0.7-10,0.4-14.1,2.9
						c-1.9,3-3.2,6.2-4.1,9.7c-1.3,4.7-0.5,8.5-0.4,13.2c0.2,7.2-2.6,11.9-5.2,18.5c-1.6,4.1-2.3,7.9-0.9,12.2
						c1,3.2,3.1,5.8,4.5,8.8c1.2,2.6,1.5,4.9,1.1,7.1c2.4-5.1,7.3-9,12.7-10.4c-2.8-3.4-4.4-7.7-4.6-12.1c-0.4-8.2,5.6-15.4,13.2-18
						c-0.9-2.2-1.4-4.6-1.6-7c-0.5-10.3,9-19,19-19c0.5,0,1,0,1.5,0.1c-0.1-0.3-0.2-0.7-0.3-1.1c-0.2-1.7-0.5-3.4-0.7-5
						c-0.1-2.5,0.5-5.1,1.6-7.3c0.8-2.3,2.1-4.4,3.9-6.1c0.2-0.2,0.3-0.3,0.5-0.5l0.1-0.1c2.3-2.3,5.2-4,8.4-4.9l5-0.7h0.2
						c-0.1-0.8-0.2-1.6-0.2-2.4c-0.5-10.2,9-19,19-19c4.2,0,8.3,1.4,11.5,4c2.5-8.1,9.9-13.6,18.3-13.8c3.8,0,7.4,1.1,10.5,3.3
						C126.6,29,123.4,26.5,119.7,25.1z"/>
					<path class="st15" d="M17.7,204.3c-9.9,3.5-5.2,19.3-0.8,25.4c3.8,5.2,7.5,9.4,8.4,16c0.7,5-0.4,11.1,3.4,14.7
						c0.5,0.3,1,0.5,1.5,0.8c2.8-6.8,6.5-13.3,11-19.2c-8.2-2.1-13.9-9.7-14.3-18.4c-0.1-4.8,1.7-9.4,5-12.8h-0.1
						C26,210.9,21.1,208.3,17.7,204.3z"/>
					<path class="st14" d="M47.8,136.6c10.8-5.2,15.7-20,10.2-30.6c6.5,4,14.3,3,20.7-1.2c6.5-4.4,10-12,9.1-19.8
						c7.4,4.8,18.3,6.3,25.6,1.3c7.4-5.2,11-14.3,9.3-23.2c7.3-4.2,10.6-11,10.5-19.4s-5.5-16.7-13.4-19.6s-17.7-0.2-22.4,6.8
						c0.1-2.7-4.7-4.3-7.1-5.4c-8.2-3.6-17.9-4.9-26.3-1.6s-15,11.9-14.2,20.9c-8.4-1.5-16.8,2.8-21.2,10.1c-4.4,7.6-3.8,17,1.5,24
						C17.8,77.1,4.4,99,17.2,112.5c-4,2-16.6,6.6-11,24.8c0.9,4.3,6.8,11.5,9.6,12.4c-9.4,2.8-14.1,18.1-11,27.3
						c2.4,9.4,10.9,19,20.5,22.1c-1.2,1.7-21,7.1-15.3,24.6c2.2,8.6,12.3,14.8,14.6,15.3c-3.6,10.7,1.6,19.3,5.5,21.2
						c6.7-16.8,18.8-30.8,34.3-40c1.1-0.6,2.8-1.1,3.4,0c-8-11.1-14.5-25.5-16.4-39.1c-10.7-0.1-20-10-20.2-20.8
						S38.1,141.2,47.8,136.6z"/>
				</g>
			</g>
		</g>
	</g>
</g>
<g id="Camada_2" class="st16">
	<g class="st17">
		<g>
			<path class="st18" d="M261,1v328H1V1H261 M262,0H0v330h262V0L262,0z"/>
		</g>
		<line class="st19" x1="1.4" y1="139.5" x2="261.1" y2="139.5"/>
		<line class="st19" x1="0.8" y1="201.8" x2="261.1" y2="201.8"/>
		<line class="st19" x1="261.4" y1="242.8" x2="1.1" y2="242.8"/>
		<ellipse class="st19" cx="131" cy="161.8" rx="84.3" ry="80.6"/>
		<ellipse class="st19" cx="83.8" cy="139.5" rx="12.5" ry="12.5"/>
		<ellipse class="st19" cx="179.7" cy="139.5" rx="12.5" ry="12.5"/>
		<ellipse class="st19" cx="131" cy="198.7" rx="131" ry="131.3"/>
		<line class="st19" x1="131" y1="329.3" x2="131" y2="1.1"/>
		<line class="st19" x1="47" y1="329.3" x2="47" y2="1.1"/>
		<line class="st19" x1="215" y1="329.3" x2="215" y2="1.1"/>
	</g>
</g>
</svg>
