<?xml version="1.0" encoding="utf-8"?>
<!-- Generator: Adobe Illustrator 24.0.1, SVG Export Plug-In . SVG Version: 6.00 Build 0)  -->
<svg version="1.1" xmlns="http://www.w3.org/2000/svg" xmlns:xlink="http://www.w3.org/1999/xlink" x="0px" y="0px"
	 viewBox="0 0 262 330" style="enable-background:new 0 0 262 330;" xml:space="preserve">
<style type="text/css">
	.st0{clip-path:url(#SVGID_2_);}
	.st1{fill:#22A1FF;}
	.st2{fill:none;stroke:#012442;stroke-width:48;stroke-linecap:round;stroke-linejoin:round;stroke-miterlimit:10;}
	.st3{fill:none;stroke:#FFBB71;stroke-width:30;stroke-linecap:round;stroke-linejoin:round;stroke-miterlimit:10;}
	.st4{fill:#FFBB71;}
	.st5{fill:#EF6100;}
	.st6{fill:none;stroke:#012442;stroke-width:8;stroke-linecap:round;stroke-miterlimit:10;}
	.st7{fill:#012442;}
	.st8{fill:#C67552;}
	.st9{fill:#FFFFFF;}
	.st10{fill:#BC265F;}
	.st11{fill:#F7957F;}
	.st12{fill:none;stroke:#012442;stroke-width:7;stroke-linecap:round;stroke-linejoin:round;stroke-miterlimit:10;}
	.st13{fill:#FF8A0B;}
	.st14{fill:#EF7114;}
	.st15{fill:none;stroke:#012442;stroke-width:8;stroke-linecap:round;stroke-linejoin:round;stroke-miterlimit:10;}
	.st16{fill:#FFB024;}
	.st17{display:none;}
	.st18{display:inline;}
	.st19{fill:#2BB2FC;}
	.st20{fill:none;stroke:#2BB2FC;stroke-miterlimit:10;}
</style>
<g id="Camada_1">
	<g id="fundo">
	</g>
	<g id="corpos">
	</g>
	<g id="acessorios">
		<g>
			<g>
				<defs>
					<path id="SVGID_1_" d="M285.9,198.3V-9.4H-24.4v207.8H0.4c0,0.2,0,0.4,0,0.6c0,72.4,58.7,131,131.1,131
						c43.6,0,82.1-21.2,106-53.9c0.2,0,0.3,0,0.5,0c26.3,0.1,47.6-18.6,47.6-41.9c0-15.2-9.2-28.5-23-35.9l0,0L285.9,198.3
						L285.9,198.3z"/>
				</defs>
				<clipPath id="SVGID_2_">
					<use xlink:href="#SVGID_1_"  style="overflow:visible;"/>
				</clipPath>
				<g class="st0">
					<circle class="st1" cx="131.5" cy="198.5" r="131.1"/>
					<path class="st2" d="M189.4,252.7c0,0,26.9,22.6,41.2,85"/>
					<path class="st3" d="M189.4,252.7c0,0,26.9,22.6,41.2,85"/>
					<path class="st2" d="M72.6,252.7c0,0-26.9,22.6-41.2,85"/>
					<path class="st3" d="M72.6,252.7c0,0-26.9,22.6-41.2,85"/>
					<path class="st4" d="M164.7,233.1l-1-5.9h-67l-1,5.9c-0.3,1.6-0.4,3.2-0.4,4.7c0,17.5,15.6,31.6,34.8,31.6s34.9-14.2,34.9-31.6
						C165.1,236.3,165,234.7,164.7,233.1z"/>
					<path class="st5" d="M172.5,244.5c-4.7,2.8-9.6,5.1-14.6,7.2c0,0.3,0,0.7,0,1c0,13.6-12.5,24.6-27.9,24.6
						c-14.2,0-26-9.5-27.6-21.6c-6-2.5-11.4-6.3-15.8-11.8C52.4,278.1,54.2,371,54.2,371l156.9-0.9
						C211.1,370.1,212.6,285.2,172.5,244.5z"/>
					<g>
						<g>
							<path class="st5" d="M181.9,292.5l48.4-24.6c-0.3-0.7-22.5-47-56.5-41.1l-7,1.1c-10.8,4.4-9.6,19.3-5.3,30.1L181.9,292.5z"/>
						</g>
					</g>
					<g>
						<path class="st6" d="M202.1,283.9l30.2-14c-0.3-0.7-25.6-54.2-62.5-42"/>
					</g>
					<g>
						<g>
							<path class="st5" d="M80.1,292.5L31.7,268c0.3-0.7,22.5-47,56.5-41.1l7,1.1c10.8,4.4,9.6,19.3,5.3,30.1L80.1,292.5z"/>
						</g>
					</g>
					<g>
						<path class="st6" d="M63.9,284.9L29.7,270c0.3-0.7,25.6-54.2,62.5-42"/>
					</g>
					<g>
						<path class="st7" d="M157.7,237.1c0.2,1.3,0.3,2.7,0.3,4.1c0,15.4-12.5,27.9-27.9,27.9s-27.9-12.5-27.9-27.9
							c0-1.4,0.1-2.7,0.3-4.1H157.7 M164.6,229.1h-6.9h-55.1h-6.9l-1,6.8c-0.2,1.7-0.4,3.5-0.4,5.2c0,19.8,16.1,35.9,35.9,35.9
							s35.9-16.1,35.9-35.9c0-1.7-0.1-3.5-0.4-5.2L164.6,229.1L164.6,229.1z"/>
					</g>
					<path class="st6" d="M193.6,265.4c0,0,13,39.5,14.6,95.2"/>
					<path class="st6" d="M70.1,265.4c0,0-13,39.5-14.6,95.2"/>
					<g>
						<path class="st4" d="M209.2,173.9c0.1,41-34.4,70.8-79.5,70.9l0,0c-45.1,0.2-77.8-29.4-78-70.4l-0.3-43
							c-0.1-15.1,4.2-25.7,12.1-37.1c19.3-27.9,70-25.7,75-25.3c20.4,1.3,45.1,7.5,57.8,25.2c7.5,10.4,12.2,21.5,12.2,40.9
							L209.2,173.9z"/>
					</g>
					<g>
						<path class="st7" d="M131.3,68.7c28.1,0,56.1,9.9,69.1,31.8c9.4,15.7,9.7,47.4,9.7,47.4c0.4,0,2.6,0,2.7,0c0,0,0,0,0.1,0
							c9.3,0,12.9,7.6,13,16.9c0,9.4-7.5,17-16.9,17c-0.1,0-0.5,0-1.1,0c-4.2,36.4-35.1,62-76.9,62.1c-0.1,0-0.2,0-0.4,0
							c-42.1,0-73.3-25.9-77.2-62.8c-1.4,0-2.3,0-2.4,0c0,0,0,0-0.1,0c-9.1,0-16.6-7.4-16.6-16.6c0-9.2,7.4-16.6,16.5-16.7
							c0.1,0,0.8,0,1.9,0l-0.1-7.3c0-4.5-0.3-29.3,7.1-41.1C72,79.8,101.7,68.7,131.3,68.7 M131.3,60.7L131.3,60.7
							c-34.5,0-65.3,13.6-78.5,34.6c-5.5,8.9-8.3,23.9-8.3,44.8v0.5v0.1v0c-4.2,1.1-8.1,3.3-11.2,6.5c-4.6,4.7-7.2,10.9-7.2,17.4
							c0,12,8.7,22,20.1,24.1c7.2,37.6,40.9,63.2,84.1,63.2h0.4c22.3-0.1,42.2-6.7,57.6-19.3c13.6-11.1,22.8-26.4,26.3-43.5
							c4.5-1.1,8.5-3.4,11.9-6.7c4.7-4.7,7.3-11,7.2-17.7c0-13.2-6-22.2-16-24.4c-0.7-11-3-31.4-10.5-44
							C193.9,74.1,165.5,60.7,131.3,60.7L131.3,60.7z"/>
					</g>
					<g>
						<path class="st4" d="M83.1,164.4c0,8.4,5,15.4-3.1,16.5c-0.7,0.1-29.6,0.2-30.4,0.2c-9.2,0-16.6-7.4-16.7-16.6
							c0-9.2,7.4-16.6,16.5-16.7c0.8,0,24.1,0,24.8,0.1C82.4,149.1,83.1,156,83.1,164.4z"/>
					</g>
					<g>
						<path class="st4" d="M174.5,165c0,8.6-5,15.8,3.3,16.8c0.7,0.1,30.3,0,31,0c9.4,0,16.9-7.6,16.9-17c0-9.4-7.6-16.9-17-16.9
							c-0.8,0-24.6,0.1-25.3,0.2C175.1,149.3,174.5,156.4,174.5,165z"/>
					</g>
					<path class="st8" d="M78,135.2c9.1-13.5,27.1,0.2,24.8,14C84.8,140.1,62.5,158.2,78,135.2z"/>
					<g>
						<path class="st7" d="M101.2,144.7c-7.5-4.2-17.9-4.3-26-0.4l-6.6,0.1l3.8,6.3c0.7,1.6,2.2,2.5,3.7,2.5c0.6,0,1.2-0.1,1.8-0.5
							c5.9-3.2,14.2-3.2,19.6-0.2c2,1.1,4.5,0.3,5.5-1.9C104,148.5,103.2,145.8,101.2,144.7z"/>
					</g>
					<path class="st8" d="M182,134.9c-9.1-13.5-27.1,0.2-24.8,14C175.3,139.8,197.6,157.9,182,134.9z"/>
					<g>
						<path class="st7" d="M159.3,144.7c7.5-4.2,17.9-4.3,26-0.4l6.6,0.1l-3.8,6.3c-0.7,1.6-2.2,2.5-3.7,2.5c-0.6,0-1.2-0.1-1.8-0.5
							c-5.9-3.2-14.2-3.2-19.6-0.2c-2,1.1-4.5,0.3-5.5-1.9C156.5,148.5,157.3,145.8,159.3,144.7z"/>
					</g>
					<g>
						<g>
							<path class="st9" d="M129.7,206.2c-9.2,0-20.9-5.5-26.1-17.8c-0.5-1.2-0.4-2.6,0.4-3.8c0.7-1.1,2-1.8,3.3-1.8l43.6,0
								c1.2,0,2.3,0.5,3.1,1.4s1.1,2.1,0.9,3.2C153.5,195.6,141.1,206.2,129.7,206.2z"/>
							<path class="st10" d="M107.2,186.8l43.6,0c-1,6.1-11.9,15.4-21.2,15.4C121.2,202.2,111.6,197,107.2,186.8 M107.2,178.8
								c-2.7,0-5.2,1.3-6.7,3.6c-1.5,2.2-1.8,5.1-0.7,7.5c5.1,12.1,17.1,20.3,29.8,20.3c12.4,0,27.4-11.4,29.1-22.1
								c0.4-2.3-0.3-4.7-1.8-6.5s-3.8-2.8-6.1-2.8L107.2,178.8L107.2,178.8L107.2,178.8z"/>
						</g>
					</g>
					<path class="st7" d="M111.7,193.8c0,0,19.1,1.1,35.7-0.6C147.4,193.2,131.1,213.3,111.7,193.8z"/>
					
						<ellipse transform="matrix(0.9667 -0.2558 0.2558 0.9667 -38.7217 52.8072)" class="st11" cx="183.6" cy="175.3" rx="12.4" ry="11.1"/>
					
						<ellipse transform="matrix(0.2558 -0.9667 0.9667 0.2558 -112.7218 204.0991)" class="st11" cx="76.2" cy="175.3" rx="11.1" ry="12.4"/>
					<path class="st12" d="M72.1,123.4c6.9-4,15-5.9,23-5.3"/>
					<path class="st12" d="M187.1,123.4c-6.9-4-15-5.9-23-5.3"/>
					<g>
						<path class="st13" d="M36.1,148.1c-0.5,0-0.9-0.1-1.4-0.2c-1.1-0.4-2-1.3-2.4-2.4c-3.4-9.6-5.9-27.4-6.6-47.8
							c-0.3-9.6-0.8-32.3,2.9-37.2c14.2-18.9,31.1-30.7,50.1-34.9c0.3-0.1,0.6-0.1,0.9-0.1c0.4,0,0.8,0.1,1.2,0.2
							c10.9,3.4,13.4,6.2,19.9,13.5l1,1.1c0.9,1,1.2,2.4,0.9,3.7c-1.8,6.8-1.5,14.5-1.1,21.9c0.1,2.2,0.2,4.6,0.2,6.8
							c0,2.2-1.7,4-3.9,4.1c-13.6,0.4-25,5.5-33.8,15.1c-9.1,9.9-9.8,22.5-10.6,35.8c-0.3,4.7-0.6,9.5-1.2,14.3
							c-0.2,1.8-1.7,3.2-3.4,3.4c-0.2,0-0.6,0.1-1.1,0.1c-1.7,0.1-6.3,0.2-9.6,2.2C37.5,147.9,36.8,148.1,36.1,148.1z"/>
						<path class="st7" d="M79.7,29.4c10.4,3.2,11.9,5.3,19.2,13.4c-2.6,9.5-1.2,20.1-1.1,29.9c-14,0.4-26.8,5.6-36.6,16.3
							c-13.4,14.6-10.3,33.8-12.8,52.2c-0.8,0.1-7.3-0.2-12.2,2.8c-7.5-21-8.2-76.1-4.3-81.3C44.1,46.4,59.7,33.9,79.7,29.4
							 M79.7,21.4c-0.6,0-1.2,0.1-1.7,0.2C57.9,26.1,40.2,38.3,25.5,58c-1.2,1.6-4.9,6.6-3.7,39.8c0.4,10,1.8,34.6,6.8,49
							c0.8,2.2,2.6,4,4.8,4.8c0.9,0.3,1.8,0.5,2.7,0.5c1.4,0,2.8-0.4,4.1-1.1c2.5-1.5,6.3-1.6,7.7-1.6c0.6,0,1,0,1.5-0.1
							c3.6-0.5,6.4-3.3,6.9-6.9c0.7-4.9,0.9-9.9,1.2-14.6c0.8-13.1,1.4-24.5,9.5-33.3c8-8.8,18.5-13.4,31-13.8
							c4.4-0.1,7.8-3.8,7.8-8.1c0-2.3-0.1-4.7-0.2-6.9c-0.3-7.2-0.6-14.5,1-20.7c0.7-2.6,0-5.4-1.8-7.4l-1-1.1
							C96.5,28.3,93.5,25.3,82,21.8C81.3,21.5,80.5,21.4,79.7,21.4L79.7,21.4z"/>
					</g>
					<g>
						<path class="st13" d="M249.9,213.3c-1.2-7.9-0.4-15.9,0.8-23.9c0.3-7.2,0.5-14.5,0.7-21.7c0.1-5.6,0.2-11.3,0.3-16.9
							c0.2-4.9,0.9-9.9,0.1-14.7c-0.3-1.7,0.4-3,1.4-4c-0.5-6.7-1.1-13.3-1.8-19.9c-0.1-0.9,0.1-1.7,0.5-2.3
							c-2.7-11.1-6.5-22-12-32.2c-19.8-37.1-56.9-57-113.4-61c-0.1,0-0.2,0-0.3,0c-0.2,0-0.4,0-0.6,0c-1.2,0.2-29.5,5.1-27,57.5
							c0.1,2.1,1.9,3.8,4,3.8h0.2c2.2-0.1,3.9-2,3.8-4.2c-0.2-4.8,1.5-9.4,4.9-13c3.4-3.6,8.1-5.6,12.8-5.6c3.9,0,9.4,1.4,14.1,8
							c4.4,7.7,8.4,15.5,12.4,23.1c16.8,32.4,32.7,63,72.5,85c-1.9,5.2-6.7,9.3-12.2,10.1c-2,0.3-3.5,2-3.5,4
							c0.3,19.8-5.6,30.1-17.3,43.2c-0.8,0.9-1.1,2-1,3.1s0.7,2.2,1.7,2.8c0.6,0.4,1.2,0.8,1.9,1.3c7,5,19.9,14.2,35.3,19.3
							c0.1-2.9,0.3-5.9-0.1-8.8c-0.3-2.4,1-5.5,4-5.3c4.2,0.4,8.7,0.9,12.9,0.1c1.7-0.3,3.8,0.5,4.8,1.9c0.6,0.2,1.3,0.4,1.9,0.6
							C249.5,234,249.6,223.3,249.9,213.3z"/>
						<path class="st7" d="M126.2,19.6c174.3,12.2,96.4,169.2,119.1,216.1c2.5,5.2-17.1-1.9-21.7-10.2c-0.3,4.1-3.2,7.2-1.7,19.9
							c-15.1-4.4-20.7-9.5-28.6-15.1c11.4-12.8,18.7-24.1,18.4-46c8.1-1.1,15-8,16.3-16.1c-50.3-26.7-62.8-67.4-86.1-108.2
							c-4.9-7-11.3-9.9-17.5-9.9c-11.4,0-22.2,9.9-21.6,22.8C100.3,23.6,126.2,19.6,126.2,19.6 M126.2,9.6c-0.4,0-0.8,0-1.2,0.1
							c-1.4,0.2-33,8.7-30.4,64.7c0.2,4.3,3.7,7.6,8,7.6c0.1,0,0.3,0,0.4,0c4.4-0.2,7.8-4,7.6-8.4c-0.2-3.7,1.2-7.3,3.8-10
							c2.6-2.8,6.3-4.4,9.9-4.4c4.1,0,7.8,2.1,10.8,6.2c4.3,7.6,8.3,15.3,12.2,22.8c8.7,16.8,17,32.8,28.6,47.8
							c11.7,15.1,25.5,27.3,42,37c-1.8,2.4-4.5,4.1-7.4,4.5c-4,0.6-7,4-6.9,8.1c0.3,18.4-5.2,28.1-16.3,40.5c-1.5,1.7-2.2,4-2,6.2
							c0.3,2.3,1.5,4.3,3.3,5.6c0.6,0.4,18.2,16.6,40.4,19.6c4.8-0.4,2.6-11.4,2.5-13c7,4,19.7,5.3,19.8,5.3c4.6,0,6.9-2.4,7.9-4.3
							c1.4-2.6-2.8-9.8-4.5-12.3c-11.9-29.4,12.1-118.2-12.3-160.3c-9.6-17.9-22.4-33.2-40-43.5c-19.8-11.5-45.3-17.5-75.7-19.6
							C126.6,9.7,126.4,9.6,126.2,9.6L126.2,9.6z"/>
					</g>
					<g>
						<path class="st14" d="M135.1,75.7c2.5,0,4.9,0.1,7.4,0.1c-1.4-4.3-2.7-8.7-4.9-12.6c-2.7-4.8-7.2-9-12.7-9.4
							c-3.5-0.2-6.9,1.1-9.8,2.8c-5,2.9-9.1,7.2-12,12.1c-0.8,1.3-2.4,4.3-3.5,7.3C111.3,73.8,123.1,75.5,135.1,75.7z"/>
					</g>
					<path class="st15" d="M243.2,176.8c-56.3-13.1-88.5-79.2-98.8-104.6c-3.7-9.2-8.8-20.2-18.6-21.4c-6.2-0.7-12.2,3-15.9,8
						s-6.6,13.1-8.3,19c7.1-0.2,23.8-2,43.4,0.1"/>
					<path class="st16" d="M124.8,40.5c10.8,0.4,20.5,7.2,27.4,15.6c6.9,8.4,11.5,18.3,16.9,27.7c13.1,22.7,31.7,43,55.6,53.7
						c-4.6-10.1-6.4-22.6-5.8-33.7c5.7,9.6,20.4,22.9,24.8,24.7c-1.5-63.1-33-106.2-117.5-109.4c0,0-16.1,4.5-21.8,29.7
						C109.8,43.4,117.2,40.2,124.8,40.5z"/>
				</g>
			</g>
		</g>
	</g>
</g>
<g id="Camada_2" class="st17">
	<g class="st18">
		<g>
			<path class="st19" d="M261,1v328H1V1H261 M262,0H0v330h262V0L262,0z"/>
		</g>
		<line class="st20" x1="1.4" y1="139.5" x2="261.1" y2="139.5"/>
		<line class="st20" x1="0.8" y1="201.8" x2="261.1" y2="201.8"/>
		<line class="st20" x1="261.4" y1="242.8" x2="1.1" y2="242.8"/>
		<ellipse class="st20" cx="131" cy="161.8" rx="84.3" ry="80.6"/>
		<ellipse class="st20" cx="83.8" cy="139.5" rx="12.5" ry="12.5"/>
		<ellipse class="st20" cx="179.7" cy="139.5" rx="12.5" ry="12.5"/>
		<ellipse class="st20" cx="131" cy="198.7" rx="131" ry="131.3"/>
		<line class="st20" x1="131" y1="329.3" x2="131" y2="1.1"/>
		<line class="st20" x1="47" y1="329.3" x2="47" y2="1.1"/>
		<line class="st20" x1="215" y1="329.3" x2="215" y2="1.1"/>
	</g>
</g>
</svg>
