<?xml version="1.0" encoding="utf-8"?>
<!-- Generator: Adobe Illustrator 24.0.1, SVG Export Plug-In . SVG Version: 6.00 Build 0)  -->
<svg version="1.1" xmlns="http://www.w3.org/2000/svg" xmlns:xlink="http://www.w3.org/1999/xlink" x="0px" y="0px"
	 viewBox="0 0 262 330" style="enable-background:new 0 0 262 330;" xml:space="preserve">
<style type="text/css">
	.st0{clip-path:url(#SVGID_2_);}
	.st1{fill:#22A1FF;}
	.st2{fill:none;stroke:#012442;stroke-width:48;stroke-linecap:round;stroke-linejoin:round;stroke-miterlimit:10;}
	.st3{fill:none;stroke:#FFBB71;stroke-width:30;stroke-linecap:round;stroke-linejoin:round;stroke-miterlimit:10;}
	.st4{fill:#FFBB71;}
	.st5{fill:#0C5AA8;}
	.st6{fill:none;stroke:#012442;stroke-width:8;stroke-linecap:round;stroke-miterlimit:10;}
	.st7{fill:#012442;}
	.st8{fill:#C67552;}
	.st9{fill:#FFFFFF;}
	.st10{fill:#BC265F;}
	.st11{fill:#ED8472;}
	.st12{fill:none;stroke:#012442;stroke-width:7;stroke-linecap:round;stroke-linejoin:round;stroke-miterlimit:10;}
	.st13{fill:#FF8A0B;}
	.st14{fill:#FFBF1F;}
	.st15{fill:none;stroke:#012442;stroke-width:8;stroke-linecap:round;stroke-linejoin:round;stroke-miterlimit:10;}
	.st16{display:none;}
	.st17{display:inline;fill:#FFFFFF;}
	.st18{display:inline;opacity:0.33;fill:none;stroke:#000000;stroke-miterlimit:10;enable-background:new    ;}
	.st19{display:inline;}
	.st20{fill:#2BB2FC;}
	.st21{fill:none;stroke:#2BB2FC;stroke-miterlimit:10;}
</style>
<g id="Camada_1">
	<g id="Camada_7">
	</g>
	<g id="Camada_8">
	</g>
	<g id="Camada_5">
		<g>
			<g>
				<defs>
					<path id="SVGID_1_" d="M285.1-9.6H-25.2v207.8h24.9c0,0.2,0,0.4,0,0.6c0,7.3,0.6,14.4,1.7,21.4c-7.9,2.1-13.7,9.8-13.7,18.9
						c0,10.8,8.1,19.5,18.1,19.5c2.6,0,5.1-0.6,7.4-1.7c21.4,43.2,66,73,117.5,73c50.2,0,93.8-28.2,115.8-69.7
						c3.3,1.9,7.2,2.9,11.5,2.9c11.6,0,21-8,21-17.9c0-9.7-9-17.6-20.3-17.9c2-9.2,3.1-18.7,3.1-28.5c0-0.2,0-0.4,0-0.6h23.3
						L285.1-9.6L285.1-9.6z"/>
				</defs>
				<clipPath id="SVGID_2_">
					<use xlink:href="#SVGID_1_"  style="overflow:visible;"/>
				</clipPath>
				<g class="st0">
					<circle class="st1" cx="130.9" cy="199.2" r="131.1"/>
					<path class="st2" d="M188.9,253.4c0,0,26.9,22.6,41.2,85.1"/>
					<path class="st3" d="M188.9,253.4c0,0,26.9,22.6,41.2,85.1"/>
					<path class="st2" d="M72.1,253.4c0,0-26.9,22.6-41.2,85.1"/>
					<path class="st3" d="M72.1,253.4c0,0-26.9,22.6-41.2,85.1"/>
					<path class="st4" d="M164.2,233.8l-1-5.9h-67l-1,5.9c-0.3,1.6-0.4,3.2-0.4,4.7c0,17.5,15.6,31.6,34.8,31.6s34.9-14.2,34.9-31.6
						C164.6,237,164.5,235.4,164.2,233.8z"/>
					<path class="st5" d="M172,245.2c-4.7,2.8-9.6,5.1-14.6,7.2c0,0.3,0,0.7,0,1c0,13.6-12.5,24.6-27.9,24.6
						c-14.2,0-26-9.5-27.6-21.6c-6-2.5-11.4-6.3-15.8-11.8c-34.3,34.3-32.5,127.1-32.5,127.1l156.9-0.9
						C210.5,370.8,212,285.9,172,245.2z"/>
					<g>
						<g>
							<path class="st5" d="M181.4,293.2l48.4-24.6c-0.3-0.7-22.5-47-56.5-41.1l-7,1.1c-10.8,4.4-9.6,19.3-5.3,30.1L181.4,293.2z"/>
						</g>
					</g>
					<g>
						<path class="st6" d="M201.6,284.6l30.2-14c-0.3-0.7-25.6-54.2-62.5-42"/>
					</g>
					<g>
						<g>
							<path class="st5" d="M79.6,293.2l-48.4-24.6c0.3-0.7,22.5-47,56.5-41.1l7,1.1c10.8,4.4,9.6,19.3,5.3,30.1L79.6,293.2z"/>
						</g>
					</g>
					<g>
						<path class="st6" d="M63.4,285.6l-34.2-14.9c0.3-0.7,25.6-54.2,62.5-42"/>
					</g>
					<g>
						<path class="st7" d="M157.2,237.8c0.2,1.3,0.3,2.7,0.3,4.1c0,15.4-12.5,27.8-27.9,27.8s-27.8-12.5-27.8-27.9
							c0-1.4,0.1-2.7,0.3-4.1L157.2,237.8 M164.1,229.8h-6.9h-55.1h-6.9l-1,6.8c-0.2,1.7-0.4,3.5-0.4,5.2
							c0,19.8,16.1,35.8,35.8,35.8s35.9-16.1,35.9-35.9c0-1.7-0.1-3.5-0.4-5.2L164.1,229.8L164.1,229.8z"/>
					</g>
					<path class="st6" d="M193,266.1c0,0,13,39.5,14.6,95.2"/>
					<path class="st6" d="M69.6,266.1c0,0-13,39.5-14.6,95.2"/>
					<g>
						<path class="st4" d="M176,165.7c0,8.6-5,15.8,3.3,16.8c0.7,0.1,30.3,0,31,0c9.4,0,16.9-7.6,16.9-17c0-9.4-7.6-16.9-17-16.9
							c-0.8,0-24.6,0.1-25.3,0.2C176.5,150,175.9,157.1,176,165.7z"/>
					</g>
					<g>
						<path class="st4" d="M210.6,174.6c0.1,41-36.4,70.8-81.5,70.9l0,0c-45.1,0.2-77.8-29.4-78-70.4l-0.3-43
							c-0.1-15.1,4.2-25.7,12.1-37.1c19.3-27.9,70-25.7,75-25.3c20.4,1.3,45.1,7.5,57.8,25.2c7.5,10.4,15.2,21.5,15.2,40.9
							L210.6,174.6z"/>
					</g>
					<g>
						<path class="st7" d="M130.7,69.4c28.1,0,56.1,9.9,69.1,31.8c9.4,15.7,9.7,47.4,9.7,47.4c0.4,0,2.6,0,2.7,0c0,0,0,0,0.1,0
							c9.3,0,12.9,7.6,13,16.9c0,9.4-7.5,17-16.9,17c-0.1,0-0.5,0-1.1,0c-4.2,36.4-35.2,62-76.9,62.1c-0.1,0-0.2,0-0.4,0
							c-42.1,0-73.3-25.9-77.2-62.8c-1.4,0-2.3,0-2.4,0c0,0,0,0-0.1,0c-9.1,0-16.6-7.4-16.6-16.6c0-9.2,7.4-16.6,16.5-16.7
							c0.1,0,0.8,0,1.9,0l-0.1-7.3c0-4.5-0.3-29.3,7.1-41.1C71.4,80.5,101.1,69.4,130.7,69.4 M130.7,61.4
							c-34.5,0-65.3,13.6-78.5,34.6c-5.5,8.9-8.3,23.9-8.3,44.8v0.5v0.1v0c-4.2,1.1-8.1,3.3-11.2,6.5c-4.6,4.7-7.2,10.9-7.2,17.4
							c0,12,8.7,22,20.1,24.1c7.2,37.6,40.9,63.2,84.1,63.2h0.4c22.3-0.1,42.2-6.7,57.6-19.3c13.6-11.1,22.8-26.4,26.3-43.6
							c4.5-1.1,8.5-3.4,11.9-6.7c4.7-4.7,7.3-11,7.2-17.7c-0.1-13.2-6.1-22.2-16-24.4c-0.7-11-3-31.4-10.5-44
							C193.4,74.8,165,61.4,130.7,61.4l0,8L130.7,61.4L130.7,61.4L130.7,61.4z"/>
					</g>
					<g>
						<path class="st4" d="M82.6,165.1c0,8.4,5,15.4-3.1,16.5c-0.7,0.1-29.6,0.2-30.4,0.2c-9.2,0-16.6-7.4-16.7-16.6
							c0-9.2,7.4-16.6,16.5-16.7c0.8,0,24.1,0,24.8,0.1C81.9,149.8,82.5,156.7,82.6,165.1z"/>
					</g>
					<path class="st8" d="M77.5,135.9c9.1-13.5,27.2,0.2,24.8,14C84.3,140.8,62,158.9,77.5,135.9z"/>
					<g>
						<path class="st7" d="M100.7,145.4c-7.5-4.2-17.9-4.3-26-0.4l-6.6,0.1l3.8,6.3c0.7,1.6,2.2,2.5,3.7,2.5c0.6,0,1.2-0.1,1.8-0.5
							c5.9-3.2,14.2-3.2,19.7-0.2c2,1.1,4.5,0.3,5.5-1.9C103.5,149.2,102.7,146.5,100.7,145.4z"/>
					</g>
					<path class="st8" d="M181.5,135.6c-9.1-13.5-27.1,0.2-24.8,14C174.7,140.5,197.1,158.6,181.5,135.6z"/>
					<g>
						<path class="st7" d="M158.8,145.4c7.5-4.2,17.9-4.3,26-0.4l6.6,0.1l-3.8,6.3c-0.7,1.6-2.2,2.5-3.7,2.5c-0.6,0-1.2-0.1-1.8-0.5
							c-5.9-3.2-14.2-3.2-19.6-0.2c-2,1.1-4.5,0.3-5.5-1.9C156,149.2,156.7,146.5,158.8,145.4z"/>
					</g>
					<g>
						<g>
							<path class="st9" d="M129.1,206.9c-9.2,0-20.9-5.5-26.1-17.8c-0.5-1.2-0.4-2.6,0.3-3.8c0.7-1.1,2-1.8,3.3-1.8l43.7,0
								c1.2,0,2.3,0.5,3.1,1.4c0.8,0.9,1.1,2.1,0.9,3.2C153,196.3,140.5,206.9,129.1,206.9z"/>
							<path class="st10" d="M106.7,187.5l43.6,0c-1,6.1-11.9,15.4-21.2,15.4C120.6,202.9,111,197.7,106.7,187.5 M106.7,179.5
								c-2.7,0-5.2,1.3-6.7,3.6c-1.5,2.2-1.8,5.1-0.7,7.5c5.1,12.1,17.1,20.3,29.8,20.3c12.4,0,27.4-11.4,29.1-22.1
								c0.4-2.3-0.3-4.7-1.8-6.5s-3.8-2.8-6.1-2.8L106.7,179.5L106.7,179.5L106.7,179.5z"/>
						</g>
					</g>
					<path class="st7" d="M111.2,194.5c0,0,19.1,1.1,35.7-0.6C146.9,193.9,130.6,214,111.2,194.5z"/>
					
						<ellipse transform="matrix(0.9667 -0.2558 0.2558 0.9667 -38.9178 52.6971)" class="st11" cx="183.1" cy="176" rx="12.4" ry="11.1"/>
					
						<ellipse transform="matrix(0.2558 -0.9667 0.9667 0.2558 -113.8029 204.1067)" class="st11" cx="75.7" cy="176" rx="11.1" ry="12.4"/>
					<path class="st12" d="M71.5,124.2c6.9-4,15-5.9,23-5.3"/>
					<path class="st12" d="M186.5,124.2c-6.9-4-15-5.9-23-5.3"/>
					<g>
						<path class="st13" d="M163.4,71.1c13.3,7.8,23,21.5,26,36.7c6.6,1.1,13.2,2.1,19.9,3.2c-0.7,11.2,0.1,22.6,2.4,33.6
							c27.4,6.8,18.8,40.4-2.6,43.3c-0.6,14.9-7.4,29.5-17.8,40.4c26.4,24.3,40.1,18.1,63.3,20.7c-25.3-66.7,9.6-154.4-44.4-211.9
							c-11.5-14-45.4-40.7-57.6-16C4.2-38,15.5,139.2,14.7,167.9c-1.1,38.6-6.3,78.7-6.3,78.7c51.3,15,26.2-10,61.2-18.8
							c-10.6-11.3-17.8-25.6-20.7-40.8c-25.6-5.1-24-37.8-1.1-40.1c-3.4-43.7,2.8-38.1,35.7-42C86.6,91.7,93,79.2,101.9,69
							c0.9,10.4,1,20.9,0.4,31.4c22.8-1.1,45.6-0.5,68.3,2C170.5,91.6,168,80.9,163.4,71.1z"/>
					</g>
					<path class="st14" d="M27.7,195.6c0-28.7-4.8-141.6,39.1-165.4s90.9,5.5,90.9,5.5s5.5-15.3,21.4-8.6
						c15.9,6.7,44.4,31.8,51.8,106.2c0,0,1.2,31.7,0,62.2c-0.7,18.4,4.1,39.1,8,52.6c4.4,0.1,8.9,0.3,13.6,0.9
						c-25.3-66.7,11.6-154.4-42.4-211.9c-11.5-14-45.4-40.7-57.6-16C4.2-38,15.5,139.2,14.7,167.9c-1.1,38.6-8.3,78.7-8.3,78.7
						c3.6,1.1,9.9,1.9,12.9,2.6C25.3,234.5,27.7,212.7,27.7,195.6z"/>
					<g>
						<path class="st15" d="M53.9,62.7c0,0-14.2,25.6-15.5,51.8c0,0,17.6-6.5,45.7-10.5c2.8-26.2,18.5-38.1,18.5-38.1
							c-0.4,5.7-1.3,21.7-1.8,36.6c19.5-1.9,44.7-3.1,69.8,0.9c0.4,0.1-2-18.8-6.4-29.9c-1.5-3.8,18.4,6.8,30.1,34.5
							c0.1,0.3,15.7,4,23.7,6.6c0,0-5.3-29.2-23.6-51.2"/>
					</g>
					<path class="st15" d="M148,21.1c0,0-33.3-26.9-80.9-3.7s-55.1,89.1-52.6,144c2.4,54.9-7.9,87.2-7.9,87.2l34,2.4
						c0,0,19.5-21.4,31.7-20.8c0,0-18.7-15.3-23.4-43.3c0,0-19.2-1.1-20.3-20.2c-1.2-20.7,21.1-20.1,21.1-20.1s2.4-30.5,3.1-34.2"/>
					<path class="st15" d="M150.4,21.1l11-9.1c0,0,30.6-9.4,64,49.5c24.2,42.7,18.4,109.8,18.4,109.8s-7,44.4,9.4,77.4h-34.4
						c0,0-20.8-18.8-28.1-21.2c0,0,15.9-18.9,18.3-41.5c0,0,16.9,2.4,20.3-15c2.4-12.3-5.1-22.2-17.9-24c0,0-1.2-23.6-4.9-32.1"/>
				</g>
			</g>
		</g>
	</g>
	<g id="Camada_4" class="st16">
		<path class="st17" d="M285.3-10H-25v207.8h24.8c0,0.2,0,0.4,0,0.6c0,72.4,58.7,131.1,131.1,131.1c72.4,0,131-58.7,131-131.1
			c0-0.2,0-0.4,0-0.6h23.3L285.3-10L285.3-10z"/>
	</g>
	<g id="Camada_3" class="st16">
		<circle class="st18" cx="130.9" cy="197.2" r="131.1"/>
		<path class="st17" d="M285.1-9.1H-25.2v207.8h24.9c0,0.2,0,0.4,0,0.6c0,72.4,58.7,131.1,131.1,131.1c72.4,0,131-58.7,131-131.1
			c0-0.2,0-0.4,0-0.6h23.3L285.1-9.1L285.1-9.1z"/>
	</g>
</g>
<g id="Camada_2" class="st16">
	<g class="st19">
		<g>
			<path class="st20" d="M261,1v328H1V1H261 M262,0H0v330h262V0L262,0z"/>
		</g>
		<line class="st21" x1="1.4" y1="139.5" x2="261.1" y2="139.5"/>
		<line class="st21" x1="0.8" y1="201.8" x2="261.1" y2="201.8"/>
		<line class="st21" x1="261.4" y1="242.8" x2="1.1" y2="242.8"/>
		<ellipse class="st21" cx="131" cy="161.8" rx="84.3" ry="80.6"/>
		<ellipse class="st21" cx="83.8" cy="139.5" rx="12.5" ry="12.5"/>
		<ellipse class="st21" cx="179.7" cy="139.5" rx="12.5" ry="12.5"/>
		<ellipse class="st21" cx="131" cy="198.7" rx="131" ry="131.3"/>
		<line class="st21" x1="131" y1="329.3" x2="131" y2="1.1"/>
		<line class="st21" x1="47" y1="329.3" x2="47" y2="1.1"/>
		<line class="st21" x1="215" y1="329.3" x2="215" y2="1.1"/>
	</g>
</g>
</svg>
