<?xml version="1.0" encoding="utf-8"?>
<!-- Generator: Adobe Illustrator 24.0.1, SVG Export Plug-In . SVG Version: 6.00 Build 0)  -->
<svg version="1.1" id="Camada_1" xmlns="http://www.w3.org/2000/svg" xmlns:xlink="http://www.w3.org/1999/xlink" x="0px" y="0px"
	 viewBox="0 0 262 330" style="enable-background:new 0 0 262 330;" xml:space="preserve">
<style type="text/css">
	.st0{display:none;}
	.st1{display:inline;fill:#FFFFFF;}
	.st2{display:inline;opacity:0.33;fill:none;stroke:#000000;stroke-miterlimit:10;enable-background:new    ;}
	.st3{clip-path:url(#SVGID_2_);}
	.st4{fill:#22A1FF;}
	.st5{fill:#012442;}
	.st6{fill:#FFBB71;}
	.st7{fill:#F26B6B;}
	.st8{fill:#C67552;}
	.st9{fill:#FFFFFF;}
	.st10{fill:#E05F5F;}
	.st11{fill:#F7957F;}
	.st12{fill:#F7C23C;}
	.st13{fill:#FF8A0B;}
	.st14{fill:#FFC522;}
</style>
<g id="Camada_7">
</g>
<g id="Camada_4" class="st0">
	<path class="st1" d="M285.3-10H-25v207.8h24.8c0,0.2,0,0.4,0,0.6c0,72.4,58.7,131.1,131.1,131.1c72.4,0,131-58.7,131-131.1
		c0-0.2,0-0.4,0-0.6h23.3L285.3-10L285.3-10z"/>
</g>
<g id="Camada_3" class="st0">
	<circle class="st2" cx="130.9" cy="197.2" r="131.1"/>
	<path class="st1" d="M285.1-9.1H-25.2v207.8h24.9c0,0.2,0,0.4,0,0.6c0,72.4,58.7,131.1,131.1,131.1c72.4,0,131-58.7,131-131.1
		c0-0.2,0-0.4,0-0.6h23.3L285.1-9.1L285.1-9.1z"/>
</g>
<g>
	<defs>
		<path id="SVGID_1_" d="M285.1-19.4H-25.1v217.8h23.8c0,0.2,0,0.4,0,0.6c0,72.4,59.7,131,132.1,131s132-58.7,132-131.1
			c0-0.2,0-0.2,0-0.4l22.3-0.2V-9.4L285.1-19.4z"/>
	</defs>
	<clipPath id="SVGID_2_">
		<use xlink:href="#SVGID_1_"  style="overflow:visible;"/>
	</clipPath>
	<g id="Camada_8" class="st3">
		<g>
			<g>
				<g>
					<circle class="st4" cx="130.7" cy="199" r="131.1"/>
				</g>
			</g>
			<g>
				<g>
					<path class="st5" d="M229.9,362.2c-11,0-20.8-7.5-23.4-18.7c-11.9-52.3-33.3-72.1-33.5-72.3c0.2,0.2,0.3,0.3,0.3,0.3l30.8-36.8
						c3.4,2.8,33.6,29.8,49.1,98.1c2.9,12.9-5.1,25.8-18.1,28.7C233.4,362,231.6,362.2,229.9,362.2z"/>
				</g>
			</g>
			<g>
				<g>
					<path class="st6" d="M229.9,353.2c-6.8,0-13-4.7-14.6-11.7c-6.7-29.2-16.2-48.6-23-59.8c-7.4-12-13.2-17.2-13.3-17.2l0.1,0.1
						l19.3-23c1.3,1.1,31,26.6,46.2,93.2c1.8,8.1-3.2,16.1-11.3,18C232.1,353.1,231,353.2,229.9,353.2z"/>
				</g>
			</g>
			<g>
				<g>
					<path class="st5" d="M30.7,362.2c-1.8,0-3.6-0.2-5.4-0.6c-12.9-2.9-21-15.8-18.1-28.7c15.6-68.3,45.8-95.3,49.1-98.1l30.8,36.8
						c0,0,0.1-0.1,0.3-0.3c-0.2,0.2-21.6,20-33.5,72.3C51.6,354.7,41.7,362.2,30.7,362.2z"/>
				</g>
			</g>
			<g>
				<g>
					<path class="st6" d="M30.7,353.2c-1.1,0-2.2-0.1-3.3-0.4c-8.1-1.8-13.1-9.9-11.3-18c15.2-66.6,44.9-92.2,46.2-93.2l19.3,23
						l0.1-0.1c-0.1,0.1-5.9,5.3-13.3,17.2c-6.8,11.1-16.4,30.5-23,59.8C43.7,348.5,37.6,353.2,30.7,353.2z"/>
				</g>
			</g>
			<g>
				<g>
					<path class="st6" d="M164,233.7l-1-5.9h-67l-1,5.9c-0.3,1.6-0.4,3.2-0.4,4.7c0,17.5,15.6,31.6,34.8,31.6s34.9-14.2,34.9-31.6
						C164.4,236.8,164.3,235.2,164,233.7z"/>
				</g>
			</g>
			<g>
				<g>
					<path class="st7" d="M171.8,245c-4.7,2.8-9.6,5.1-14.6,7.2c0,0.3,0,0.7,0,1c0,13.6-12.5,24.6-27.9,24.6
						c-14.2,0-26-9.5-27.6-21.6c-6-2.5-11.4-6.3-15.8-11.8c-34.3,34.3-32.5,127.1-32.5,127.1l156.9-0.9
						C210.4,370.6,211.9,285.7,171.8,245z"/>
				</g>
			</g>
			<g>
				<g>
					<g>
						<g>
							<path class="st7" d="M181.2,293.1l48.4-24.6c-0.3-0.7-22.5-47-56.5-41.1l-7,1.1c-10.8,4.4-9.6,19.3-5.3,30.1L181.2,293.1z"/>
						</g>
					</g>
				</g>
			</g>
			<g>
				<g>
					<g>
						<path class="st5" d="M201.4,288.5c-1.5,0-3-0.9-3.6-2.3c-0.9-2-0.1-4.4,2-5.3l26.4-12.2c-6.1-11.2-27.6-45.7-55.8-36.3
							c-2.1,0.7-4.4-0.4-5.1-2.5c-0.7-2.1,0.4-4.4,2.5-5.1c16.7-5.5,33.7,0.4,49.2,17.2c11.8,12.8,18.3,27.1,18.3,27.2l1.3,3.5
							l-33.6,15.5C202.5,288.4,202,288.5,201.4,288.5z"/>
					</g>
				</g>
			</g>
			<g>
				<g>
					<g>
						<g>
							<path class="st7" d="M79.4,293.1L31,268.5c0.3-0.7,22.5-47,56.5-41.1l7,1.1c10.8,4.4,9.6,19.3,5.3,30.1L79.4,293.1z"/>
						</g>
					</g>
				</g>
			</g>
			<g>
				<g>
					<g>
						<path class="st5" d="M63.2,289.4c-0.5,0-1.1-0.1-1.6-0.3l-37.7-16.4l1.3-3.5c0-0.1,6.6-14.4,18.3-27.2
							c15.5-16.8,32.5-22.8,49.2-17.2c2.1,0.7,3.2,3,2.5,5.1c-0.7,2.1-3,3.2-5.1,2.5c-28.1-9.3-49.6,24.9-55.8,36.2l30.3,13.2
							c2,0.9,3,3.2,2.1,5.3C66.2,288.5,64.7,289.4,63.2,289.4z"/>
					</g>
				</g>
			</g>
			<g>
				<g>
					<g>
						<path class="st5" d="M157,237.6c0.2,1.3,0.3,2.7,0.3,4.1c0,15.4-12.5,27.8-27.9,27.8s-27.8-12.5-27.8-27.9
							c0-1.4,0.1-2.7,0.3-4.1L157,237.6 M163.9,229.6H157h-55.1h-6.9l-1,6.8c-0.2,1.7-0.4,3.5-0.4,5.2c0,19.8,16.1,35.8,35.8,35.8
							s35.8-16.1,35.8-35.9c0-1.7-0.1-3.5-0.4-5.2L163.9,229.6L163.9,229.6z"/>
					</g>
				</g>
			</g>
			<g>
				<g>
					<path class="st5" d="M207.4,365.1c-2.2,0-3.9-1.7-4-3.9c-1.5-54.4-14.2-93.7-14.4-94.1c-0.7-2.1,0.5-4.4,2.6-5
						c2.1-0.7,4.4,0.5,5,2.6c0.5,1.6,13.2,40.7,14.8,96.3c0.1,2.2-1.7,4-3.9,4.1C207.5,365.1,207.5,365.1,207.4,365.1z"/>
				</g>
			</g>
			<g>
				<g>
					<path class="st5" d="M54.8,365.1c0,0-0.1,0-0.1,0c-2.2-0.1-3.9-1.9-3.9-4.1c1.6-55.6,14.2-94.7,14.8-96.3
						c0.7-2.1,2.9-3.2,5-2.6c2.1,0.7,3.2,2.9,2.6,5c-0.1,0.4-12.8,39.7-14.4,94.1C58.8,363.4,57,365.1,54.8,365.1z"/>
				</g>
			</g>
			<g>
				<g>
					<g>
						<path class="st6" d="M208.5,174.4c0.1,41-34.4,70.8-79.5,70.9l0,0c-45.1,0.2-77.8-29.4-78-70.4l-0.3-43
							c-0.1-15.1,4.2-25.7,12.1-37.1c19.3-27.9,70-25.7,75-25.3c20.4,1.3,45.1,7.5,57.8,25.2c7.5,10.4,12.2,21.5,12.2,40.8
							L208.5,174.4z"/>
					</g>
				</g>
			</g>
			<g>
				<g>
					<g>
						<path class="st5" d="M130.5,69.2c28.1,0,56.1,9.9,69.1,31.8c9.4,15.7,9.7,47.4,9.7,47.4c0.4,0,2.6,0,2.7,0c0,0,0,0,0.1,0
							c9.3,0,12.9,7.6,13,16.9c0,9.4-7.5,17-16.9,17c-0.1,0-0.5,0-1.1,0c-4.2,36.4-35.2,62-76.9,62.1c-0.1,0-0.2,0-0.4,0
							c-42.1,0-73.3-25.9-77.2-62.8c-1.4,0-2.3,0-2.4,0c0,0,0,0-0.1,0c-9.1,0-16.6-7.4-16.6-16.6c0-9.2,7.4-16.6,16.5-16.7
							c0.1,0,0.8,0,1.9,0l-0.1-7.3c0-4.5-0.3-29.3,7.1-41.1C71.3,80.3,101,69.2,130.5,69.2 M130.5,61.2c-34.5,0-65.3,13.6-78.5,34.6
							c-5.5,8.9-8.3,23.9-8.3,44.8v0.5v0.1v0c-4.2,1.1-8.1,3.3-11.2,6.5c-4.6,4.7-7.2,10.9-7.2,17.4c0,12,8.7,22,20.1,24.1
							c7.2,37.6,40.9,63.2,84.1,63.2h0.4c22.3-0.1,42.2-6.7,57.6-19.3c13.6-11.1,22.8-26.4,26.3-43.5c4.4-1.1,8.5-3.4,11.9-6.7
							c4.7-4.7,7.3-11,7.2-17.7c-0.1-13.2-6.1-22.2-16-24.4c-0.7-11-3-31.4-10.5-44C193.2,74.6,164.8,61.3,130.5,61.2l0,8
							L130.5,61.2C130.5,61.2,130.5,61.2,130.5,61.2L130.5,61.2z"/>
					</g>
				</g>
			</g>
			<g>
				<g>
					<g>
						<path class="st6" d="M82.4,167c0,8.4,5,15.4-3.1,16.5c-1.3,0.2-29.1,0.2-30.4,0.2c-9.2,0-16.6-7.4-16.7-16.6
							c0-9.2,7.4-16.6,16.5-16.7c0.8,0,24.1,0,24.8,0.1C81.7,151.6,82.3,158.5,82.4,167z"/>
					</g>
				</g>
			</g>
			<g>
				<g>
					<g>
						<path class="st6" d="M173.8,165.5c0,8.6-5,15.8,3.3,16.8c0.7,0.1,30.3,0,31,0c9.4,0,16.9-7.6,16.9-17c0-9.4-7.6-16.9-17-16.9
							c-0.8,0-24.6,0.1-25.3,0.2C174.4,149.8,173.7,157,173.8,165.5z"/>
					</g>
				</g>
			</g>
			<g>
				<g>
					<path class="st8" d="M77.3,135.7c9.1-13.5,27.2,0.2,24.8,14C84.1,140.6,61.8,158.7,77.3,135.7z"/>
				</g>
			</g>
			<g>
				<g>
					<g>
						<path class="st5" d="M100.5,145.2c-7.5-4.2-17.9-4.3-26-0.4l-6.6,0.1l3.8,6.3c0.7,1.6,2.2,2.5,3.7,2.5c0.6,0,1.2-0.1,1.8-0.5
							c5.9-3.2,14.2-3.2,19.7-0.2c2,1.1,4.5,0.3,5.5-1.9C103.3,149,102.5,146.3,100.5,145.2z"/>
					</g>
				</g>
			</g>
			<g>
				<g>
					<path class="st8" d="M181.3,135.4c-9.1-13.5-27.1,0.2-24.8,14C174.6,140.3,196.9,158.4,181.3,135.4z"/>
				</g>
			</g>
			<g>
				<g>
					<g>
						<path class="st5" d="M158.6,145.2c7.5-4.2,17.9-4.3,26-0.4l6.6,0.1l-3.8,6.3c-0.7,1.6-2.2,2.5-3.7,2.5c-0.6,0-1.2-0.1-1.8-0.5
							c-5.9-3.2-14.2-3.2-19.6-0.2c-2,1.1-4.5,0.3-5.5-1.9C155.8,149,156.6,146.3,158.6,145.2z"/>
					</g>
				</g>
			</g>
			<g>
				<g>
					<g>
						<g>
							<path class="st9" d="M129,206.7c-9.2,0-20.9-5.5-26.1-17.8c-0.5-1.2-0.4-2.6,0.3-3.8c0.7-1.1,2-1.8,3.3-1.8l43.7,0
								c1.2,0,2.3,0.5,3.1,1.4s1.1,2.1,0.9,3.2C152.8,196.1,140.3,206.7,129,206.7z"/>
						</g>
						<g>
							<path class="st10" d="M106.5,187.3l43.6,0c-1,6.2-11.9,15.4-21.2,15.4C120.5,202.7,110.9,197.5,106.5,187.3 M106.5,179.3
								c-2.7,0-5.2,1.3-6.7,3.6c-1.5,2.2-1.8,5.1-0.7,7.5c5.1,12.1,17.1,20.3,29.8,20.3c12.4,0,27.4-11.4,29.1-22.1
								c0.4-2.3-0.3-4.7-1.8-6.5s-3.8-2.8-6.1-2.8L106.5,179.3C106.5,179.3,106.5,179.3,106.5,179.3L106.5,179.3z"/>
						</g>
					</g>
				</g>
			</g>
			<g>
				<g>
					<path class="st5" d="M111,194.3c0,0,19.1,1.1,35.7-0.6C146.7,193.7,130.4,213.8,111,194.3z"/>
				</g>
			</g>
			<g>
				<g>
					
						<ellipse transform="matrix(0.9667 -0.2558 0.2558 0.9667 -38.8782 52.643)" class="st11" cx="182.9" cy="175.8" rx="12.4" ry="11.1"/>
				</g>
			</g>
			<g>
				<g>
					
						<ellipse transform="matrix(0.2558 -0.9667 0.9667 0.2558 -113.7511 203.7919)" class="st11" cx="75.5" cy="175.8" rx="11.1" ry="12.4"/>
				</g>
			</g>
			<g>
				<g>
					<path class="st5" d="M71.4,127.5c-1.2,0-2.4-0.6-3-1.7c-1-1.7-0.4-3.8,1.2-4.8c7.5-4.4,16.4-6.5,25-5.8
						c1.9,0.1,3.4,1.8,3.2,3.8c-0.1,1.9-1.8,3.4-3.8,3.2c-7.2-0.5-14.7,1.2-21,4.9C72.6,127.3,72,127.5,71.4,127.5z"/>
				</g>
			</g>
			<g>
				<g>
					<path class="st5" d="M186.4,127.5c-0.6,0-1.2-0.2-1.8-0.5c-6.3-3.7-13.7-5.4-21-4.9c-1.9,0.2-3.6-1.3-3.8-3.2
						c-0.1-1.9,1.3-3.6,3.2-3.8c8.6-0.6,17.5,1.4,25,5.8c1.7,1,2.2,3.1,1.2,4.8C188.7,126.8,187.6,127.5,186.4,127.5z"/>
				</g>
			</g>
			<g>
				<g>
					<path class="st12" d="M115,29.2c-1.5,71.8-65.9,101.1-82.9,139c1,9.9,8.2,16.3,18.1,17.1c3.8,15.2,10.5,28.8,20.3,41.1
						c-11.3,7.1-22.6,12.2-31,27.1c-2-4.2-59.8-116.6,13.4-219.6C72.7,5.8,112.8,2.8,115,29.2z"/>
				</g>
			</g>
			<g>
				<g>
					<g>
						<path class="st13" d="M106.6,29.7c-0.7-0.7-1.3-1.3-2-1.9c-0.8-0.6-2.2-1.6-4-2.5c-3.1-1.5-6.5-1.9-9.9-1.7
							C80.8,24.4,71.6,29.8,64,37C56.7,45.4,51,55.4,46.1,65.4c-5.2,10.8-9.4,22.1-13,33.6c-4.4,22.3-5,45.8-4.2,68.2
							c0.9,26.4,4.8,53.9,15.9,78.2c7.6-9.2,16.6-13.5,25.6-19.2C60.6,214,54,200.4,50.2,185.2c-9.9-0.7-17.1-7.2-18.1-17.1
							c14.8-32.9,65.2-59.3,79.2-112.6c0.4-3.2,0.6-6.4,0.6-9.5c-0.1-5.6-0.9-10.2-4.2-14.9C107.7,31.2,106.7,29.9,106.6,29.7z"/>
					</g>
				</g>
			</g>
			<g>
				<g>
					<path class="st5" d="M40.6,257.5c0,0-0.1,0-0.1,0c-1.3-0.1-2.5-0.8-3-2l-0.2-0.5c-9.8-20.1-55.1-125.5,14-222.6
						C65.7,12.1,88.7,5.3,103,9.2c9.8,2.7,15.8,10.1,16.7,20.3c0,0.1,0,0.2,0,0.4c-1,48.1-28.9,77.1-53.4,102.6
						c-12.1,12.6-23.5,24.5-29.4,36.8c1.1,7.5,6.7,12.4,14.7,13c1.5,0.1,2.8,1.2,3.1,2.6c3.7,14.9,10.2,27.9,19.6,39.7
						c0.6,0.8,0.9,1.8,0.7,2.8c-0.2,1-0.7,1.9-1.6,2.4c-1.8,1.1-3.5,2.2-5.3,3.2c-9.2,5.6-17.9,10.8-24.6,22.7
						C43.1,256.8,41.9,257.5,40.6,257.5z M94.2,15c-13.9,0-29.1,10-37.3,21.4c-62.1,87.4-28.4,181.9-15.8,210.3
						c7-9.7,15.4-14.8,23.6-19.7c0.6-0.4,1.2-0.7,1.8-1.1c-8.3-11.1-14.2-23.3-17.9-37c-10.5-1.7-17.7-9.3-18.8-19.9
						c-0.1-0.6,0-1.2,0.3-1.8c6.2-13.8,18.3-26.4,31.1-39.7c23.7-24.6,50.5-52.4,51.5-97.7c-0.8-9.1-6.7-12.6-11.5-13.9
						C98.9,15.3,96.6,15,94.2,15z"/>
				</g>
			</g>
			<g>
				<g>
					<path class="st14" d="M224.4,179.1C217.9,113,127,95.3,114.7,67.7c-7.2-16.1-4.9-34.8,6.1-48.5c4.1-5,12.8-11.6,22.6-12.2
						c27-1.4,59.7,16.2,76,46c37,67.9,27.1,164.1,6.3,203.5c-8.8-9.4-21.1-27.6-37.1-28.8c18.9-16.7,23.4-41.1,22.8-41.3
						C209.7,185.8,218.9,188.1,224.4,179.1z"/>
				</g>
			</g>
			<g>
				<g>
					<g>
						<path class="st13" d="M188.6,227.8c11.2,0.8,20.6,10,28.2,18.7c76.2-217.6-106-258.9-95.3-186.3c1.9,12.5,3,14.7,13.4,22
							c22.5,15.9,56.7,34.5,76.1,61.5c14.5,21.1,18.9,41.7,0.5,43.1C211.3,189.9,206.3,211.4,188.6,227.8z"/>
					</g>
				</g>
			</g>
			<g>
				<g>
					<path class="st5" d="M225,260.2c-1,0-1.9-0.4-2.6-1.1c-1.6-1.7-3.4-3.8-5.2-5.9c-8-9.3-18-21-29.6-21.8c-1.4-0.1-2.6-1-3.1-2.4
						c-0.5-1.3-0.1-2.8,1-3.7c15.5-13.7,20.9-33.2,21.6-37.8c-0.2-0.6-0.2-1.2-0.1-1.6c0.1-0.7,0.7-2.9,3.8-3c1.5,0,5.9-0.1,9.3-4.6
						c-4.6-39.5-41.4-61.1-71.1-78.4c-17.9-10.5-33.3-19.5-38.2-30.5c-7.8-17.4-5.3-37.4,6.6-52.2c5-6.2,14.8-12.8,25.1-13.5
						c30-1.5,63.4,18.6,79.3,47.8c37.8,69.3,27.7,166.3,6.3,206.8c-0.5,1-1.5,1.7-2.6,1.8C225.3,260.2,225.1,260.2,225,260.2z
						 M195,225.9c11.3,3.9,20.6,14.6,27.6,22.8c0.5,0.6,1.1,1.2,1.6,1.8c9.5-20.7,15.5-52.6,15.9-84.9c0.5-41.6-8.1-81-24.4-110.8
						c-14.7-27-45.3-45.6-72.7-44.2c-8.1,0.5-16.1,6-20,10.9c-10.2,12.7-12.4,29.9-5.7,44.9c4,9,18.6,17.5,35.4,27.4
						c31.4,18.4,70.4,41.2,74.7,85c0.1,0.8-0.1,1.5-0.5,2.2c-2.2,3.5-6.1,7.7-12.9,8.7C212.4,197.1,206.9,213,195,225.9z
						 M209.2,189.8c0.1,0,0.2,0.1,0.3,0.1C209.5,189.9,209.3,189.8,209.2,189.8z"/>
				</g>
			</g>
		</g>
	</g>
</g>
</svg>
