<?xml version="1.0" encoding="utf-8"?>
<!-- Generator: Adobe Illustrator 24.0.1, SVG Export Plug-In . SVG Version: 6.00 Build 0)  -->
<svg version="1.1" xmlns="http://www.w3.org/2000/svg" xmlns:xlink="http://www.w3.org/1999/xlink" x="0px" y="0px"
	 viewBox="0 0 262 330" style="enable-background:new 0 0 262 330;" xml:space="preserve">
<style type="text/css">
	.st0{clip-path:url(#SVGID_2_);}
	.st1{fill:#EF6100;}
	.st2{fill:none;stroke:#012442;stroke-width:48;stroke-linecap:round;stroke-linejoin:round;stroke-miterlimit:10;}
	.st3{fill:none;stroke:#FFBB71;stroke-width:30;stroke-linecap:round;stroke-linejoin:round;stroke-miterlimit:10;}
	.st4{fill:#FFBB71;}
	.st5{fill:#0C5AA8;}
	.st6{fill:none;stroke:#012442;stroke-width:8;stroke-linecap:round;stroke-miterlimit:10;}
	.st7{fill:#012442;}
	.st8{fill:#C67552;}
	.st9{fill:#FFFFFF;}
	.st10{fill:#E05F5F;}
	.st11{fill:#F7957F;}
	.st12{fill:none;stroke:#012442;stroke-width:7;stroke-linecap:round;stroke-linejoin:round;stroke-miterlimit:10;}
	.st13{fill:#FFBD29;}
	.st14{fill:#FCE960;}
	.st15{display:none;}
	.st16{display:inline;fill:#FFFFFF;}
	.st17{display:inline;opacity:0.33;fill:none;stroke:#000000;stroke-miterlimit:10;enable-background:new    ;}
	.st18{display:inline;}
	.st19{fill:#2BB2FC;}
	.st20{fill:none;stroke:#2BB2FC;stroke-miterlimit:10;}
</style>
<g id="Camada_1">
	<g id="Camada_7">
	</g>
	<g id="Camada_8">
		<g>
			<g>
				<defs>
					<path id="SVGID_1_" d="M285.1-9.4H-25.2v207.8h24.9c0,0.2,0,0.4,0,0.6c0,72.4,58.7,131,131.1,131c72.4,0,131-58.7,131-131.1
						c0-0.2,0-0.4,0-0.6h23.3L285.1-9.4L285.1-9.4z"/>
				</defs>
				<clipPath id="SVGID_2_">
					<use xlink:href="#SVGID_1_"  style="overflow:visible;"/>
				</clipPath>
				<g class="st0">
					<circle class="st1" cx="131" cy="198.6" r="131.1"/>
					<path class="st2" d="M191,252.7c0,0,26.9,22.6,41.2,85.1"/>
					<path class="st3" d="M191,252.7c0,0,26.9,22.6,41.2,85.1"/>
					<path class="st2" d="M74.1,252.7c0,0-26.9,22.6-41.2,85.1"/>
					<path class="st3" d="M74.1,252.7c0,0-26.9,22.6-41.2,85.1"/>
					<path class="st4" d="M166.3,233.2l-1-5.9h-67l-1,5.9c-0.3,1.6-0.4,3.2-0.4,4.7c0,17.5,15.6,31.6,34.8,31.6s34.9-14.2,34.9-31.6
						C166.7,236.3,166.5,234.7,166.3,233.2z"/>
					<path class="st5" d="M174.1,244.5c-4.7,2.8-9.6,5.1-14.6,7.2c0,0.3,0,0.7,0,1c0,13.6-12.5,24.6-27.9,24.6
						c-14.2,0-26-9.5-27.6-21.6c-6-2.5-11.4-6.3-15.8-11.8C54,278.1,55.7,371,55.7,371l156.9-0.9
						C212.6,370.2,214.1,285.2,174.1,244.5z"/>
					<g>
						<g>
							<path class="st5" d="M183.5,292.6l48.4-24.6c-0.3-0.7-22.5-47-56.5-41.1l-7,1.1c-10.8,4.4-9.6,19.3-5.3,30.1L183.5,292.6z"/>
						</g>
					</g>
					<g>
						<path class="st6" d="M203.6,284l30.2-14c-0.3-0.7-25.6-54.2-62.5-42"/>
					</g>
					<g>
						<g>
							<path class="st5" d="M81.6,292.6L33.2,268c0.3-0.7,22.5-47,56.5-41.1l7,1.1c10.8,4.4,9.6,19.3,5.3,30.1L81.6,292.6z"/>
						</g>
					</g>
					<g>
						<path class="st6" d="M65.4,284.9L31.2,270c0.3-0.7,25.6-54.2,62.5-42"/>
					</g>
					<g>
						<path class="st7" d="M159.2,237.1c0.2,1.3,0.3,2.7,0.3,4.1c0,15.4-12.5,27.8-27.9,27.8s-27.8-12.5-27.8-27.9
							c0-1.4,0.1-2.7,0.3-4.1L159.2,237.1 M166.1,229.1h-6.9h-55.1h-6.9l-1,6.8c-0.2,1.7-0.4,3.5-0.4,5.2
							c0,19.8,16.1,35.8,35.8,35.8s35.9-16.1,35.9-35.9c0-1.7-0.1-3.5-0.4-5.2L166.1,229.1L166.1,229.1z"/>
					</g>
					<path class="st6" d="M195.1,265.4c0,0,13,39.5,14.6,95.2"/>
					<path class="st6" d="M71.7,265.4c0,0-13,39.5-14.6,95.2"/>
					<g>
						<path class="st4" d="M210.7,173.9c0.1,41-34.4,70.8-79.5,70.9l0,0c-45.1,0.2-77.8-29.4-78-70.4l-0.3-43
							c-0.1-15.1,4.2-25.7,12.1-37.1c19.3-27.9,70-25.7,75-25.3c20.4,1.3,45.1,7.5,57.8,25.2c7.5,10.4,12.2,21.5,12.2,40.9
							L210.7,173.9z"/>
					</g>
					<g>
						<path class="st7" d="M132.8,68.8c28.1,0,56.1,9.9,69.1,31.8c9.4,15.7,9.7,47.4,9.7,47.4c0.4,0,2.6,0,2.7,0c0,0,0,0,0.1,0
							c9.3,0,12.9,7.6,13,16.9c0,9.4-7.5,17-16.9,17c-0.1,0-0.5,0-1.1,0c-4.2,36.4-35.2,62-76.9,62.1c-0.1,0-0.2,0-0.4,0
							c-42.1,0-73.3-25.9-77.2-62.8c-1.4,0-2.3,0-2.4,0c0,0,0,0-0.1,0c-9.1,0-16.6-7.4-16.6-16.6c0-9.2,7.4-16.6,16.5-16.7
							c0.1,0,0.8,0,1.9,0l-0.1-7.3c0-4.5-0.3-29.3,7.1-41.1C73.5,79.8,103.2,68.8,132.8,68.8 M132.8,60.8L132.8,60.8
							c-34.5,0-65.3,13.6-78.5,34.6c-5.5,8.9-8.3,23.9-8.3,44.8v0.5v0.1v0c-4.2,1.1-8.1,3.3-11.2,6.5c-4.6,4.7-7.2,10.9-7.2,17.4
							c0,12,8.7,22,20.1,24.1C55,226.4,88.6,252,131.9,252h0.4c22.3-0.1,42.2-6.7,57.6-19.3c13.6-11.1,22.8-26.4,26.3-43.5
							c4.4-1.1,8.5-3.4,11.9-6.7c4.7-4.7,7.3-11,7.2-17.7c-0.1-13.2-6.1-22.2-16-24.4c-0.7-11-3-31.4-10.5-44
							C195.4,74.1,167,60.8,132.8,60.8L132.8,60.8z"/>
					</g>
					<g>
						<path class="st4" d="M84.6,164.5c0,8.4,5,15.4-3.1,16.5c-0.7,0.1-29.6,0.2-30.4,0.2c-9.2,0-16.6-7.4-16.7-16.6
							c0-9.2,7.4-16.6,16.5-16.7c0.8,0,24.1,0,24.8,0.1C83.9,149.1,84.6,156.1,84.6,164.5z"/>
					</g>
					<g>
						<path class="st4" d="M176,165.1c0,8.6-5,15.8,3.3,16.8c0.7,0.1,30.3,0,31,0c9.4,0,16.9-7.6,16.9-17c0-9.4-7.6-16.9-17-16.9
							c-0.8,0-24.6,0.1-25.3,0.2C176.6,149.4,176,156.5,176,165.1z"/>
					</g>
					<path class="st8" d="M79.6,135.2c9.1-13.5,27.2,0.2,24.8,14C86.3,140.1,64,158.2,79.6,135.2z"/>
					<g>
						<path class="st7" d="M102.8,144.7c-7.5-4.2-17.9-4.3-26-0.4l-6.6,0.1l3.8,6.3c0.7,1.6,2.2,2.5,3.7,2.5c0.6,0,1.2-0.1,1.8-0.5
							c5.9-3.2,14.2-3.2,19.7-0.2c2,1.1,4.5,0.3,5.5-1.9C105.6,148.5,104.8,145.8,102.8,144.7z"/>
					</g>
					<path class="st8" d="M183.6,134.9c-9.1-13.5-27.1,0.2-24.8,14C176.8,139.8,199.1,157.9,183.6,134.9z"/>
					<g>
						<path class="st7" d="M160.8,144.7c7.5-4.2,17.9-4.3,26-0.4l6.6,0.1l-3.8,6.3c-0.7,1.6-2.2,2.5-3.7,2.5c-0.6,0-1.2-0.1-1.8-0.5
							c-5.9-3.2-14.2-3.2-19.6-0.2c-2,1.1-4.5,0.3-5.5-1.9C158,148.5,158.8,145.8,160.8,144.7z"/>
					</g>
					<g>
						<g>
							<path class="st9" d="M131.2,206.2c-9.2,0-20.9-5.5-26.1-17.8c-0.5-1.2-0.4-2.6,0.3-3.8c0.7-1.1,2-1.8,3.3-1.8l43.7,0
								c1.2,0,2.3,0.5,3.1,1.4c0.8,0.9,1.1,2.1,0.9,3.2C155,195.6,142.6,206.2,131.2,206.2z"/>
							<path class="st10" d="M108.8,186.8l43.6,0c-1,6.1-11.9,15.4-21.2,15.4C122.7,202.2,113.1,197,108.8,186.8 M108.8,178.8
								c-2.7,0-5.2,1.3-6.7,3.6c-1.5,2.2-1.8,5.1-0.7,7.5c5.1,12.1,17.1,20.3,29.8,20.3c12.4,0,27.4-11.4,29.1-22.1
								c0.4-2.3-0.3-4.7-1.8-6.5s-3.8-2.8-6.1-2.8L108.8,178.8L108.8,178.8L108.8,178.8z"/>
						</g>
					</g>
					<path class="st7" d="M113.3,193.8c0,0,19.1,1.1,35.7-0.6C149,193.2,132.6,213.3,113.3,193.8z"/>
					
						<ellipse transform="matrix(0.9667 -0.2558 0.2558 0.9667 -38.6776 53.2033)" class="st11" cx="185.2" cy="175.3" rx="12.4" ry="11.1"/>
					
						<ellipse transform="matrix(0.2558 -0.9667 0.9667 0.2558 -111.6133 205.6058)" class="st11" cx="77.7" cy="175.3" rx="11.1" ry="12.4"/>
					<path class="st12" d="M73.6,123.5c6.9-4,15-5.9,23-5.3"/>
					<path class="st12" d="M188.6,123.5c-6.9-4-15-5.9-23-5.3"/>
					<path class="st13" d="M56.1,28.8C43.2,38-2,98.2,22,251.4c1.6-0.9,12.3-18.2,14.8-20.6c0.2,0.8,3.9,9.1,6.2,14.1
						c5.5-7.2,12.9-12.9,20.5-17.7c2.5-1.5,5.1-3,7.7-4.3c-9-11.7-15.2-24.7-18.8-39.1c-9.9-0.7-19.1-10.2-20.1-20.1
						c35.4-34.2,43.7-57.2,58.4-97.1c0.8,13.6,4.6,26.8,11.5,38.5c14.3-25.7,26-51.3,31-77.4C112.3,7.9,80.8,10.9,56.1,28.8z"/>
					<path class="st14" d="M103.2,72.5c3.8-2.5,8.1-6.8,10.6-10.4c8.6-12.4,8.5-26.4,9.9-41.3c-20.2-11.6-46.4-7.3-67.6,8
						c-8.2,5.9-29.6,32.6-37.8,91C29,106,37,95.5,47.5,81.7c2.6,7.6,7.4,19.3,7.1,23c18.3-21.2,26.7-42.1,36.2-65.5
						C94.4,48,101.5,63.2,103.2,72.5z"/>
					<path class="st12" d="M56.1,30.6C43.2,39.9-2,100.1,22,253.2c1.6-0.9,12.3-18.2,14.8-20.6c0.2,0.8,3.9,9.1,6.2,14.1
						c5.5-7.2,12.9-12.9,20.5-17.7c2.5-1.5,5.1-3,7.7-4.3c-9-11.7-15.2-24.7-18.8-39.1c-9.9-0.7-19.1-10.2-20.1-20.1
						c35.4-34.2,43.7-57.2,58.4-97.1c0.8,13.6,4.6,26.8,11.5,38.5c14.3-25.7,26-51.3,31-77.4C112.3,9.7,80.8,12.8,56.1,30.6z"/>
					<path class="st13" d="M238.9,116.2c-5-26.6-13.2-53.1-29.2-74.9s-38-34.9-65-36c-9.8,0.6-18.5,7.2-22.6,12.2
						C111.1,31.2,108.9,49.9,116,66c8,17.9,21.8,35.5,39.1,49c4.6-8.6,9.5-16.7,15.1-24.7c24.1,25.4,42.9,54.4,55.6,87
						c-5.6,9-14.8,6.8-13.1,7.4c0.6,0.2-3.8,24-22.1,40.7c6.2,6.5,11,14.7,14,23.2l13-10.5c-0.4,0.1,12.2,5.8,20.9,15.2
						C250.9,202.8,248.6,167.3,238.9,116.2z"/>
					<path class="st14" d="M115.3,45.9c6.6,13.3,18.9,22.9,31.7,30.5c0.5-8.9,1.9-18.6,3.7-27.3c22.4,10.2,41,26.8,53.1,48.2
						c1-2,0.7-4.8,0.9-7.1c0.5-7.5,0.8-15,0.9-22.5c13.8,14.1,21.3,32.3,27.5,51c7.3,21.6,11.7,44,13.9,66.7
						c-0.2-21.8-3.2-43.5-8-69.3c-5-26.6-13.2-53.1-29.2-74.9s-38-34.9-65-36c-9.8,0.6-18.5,7.2-22.6,12.2
						c-5.1,6.3-8.3,13.6-9.6,21.3C113.3,41.2,114.2,43.6,115.3,45.9z"/>
					<path class="st12" d="M238.9,118.1c-5-26.6-13.2-53.1-29.2-74.9s-38-34.9-65-36c-9.8,0.6-18.5,7.2-22.6,12.2
						C111.1,33,108.9,51.8,116,67.9c8,17.9,21.8,35.5,39.1,49c4.6-8.6,9.5-16.7,15.1-24.7c24.1,25.4,42.9,54.4,55.6,87
						c-5.6,9-14.8,6.8-13.1,7.4c0.6,0.2-3.8,24-22.1,40.7c6.2,6.5,11,14.7,14,23.2l13-10.5c-0.4,0.1,12.2,5.8,20.9,15.2
						C250.9,204.6,248.6,169.1,238.9,118.1z"/>
				</g>
			</g>
		</g>
	</g>
	<g id="Camada_4" class="st15">
		<path class="st16" d="M285.3-10H-25v207.8h24.8c0,0.2,0,0.4,0,0.6c0,72.4,58.7,131.1,131.1,131.1c72.4,0,131-58.7,131-131.1
			c0-0.2,0-0.4,0-0.6h23.3L285.3-10L285.3-10z"/>
	</g>
	<g id="Camada_3" class="st15">
		<circle class="st17" cx="130.9" cy="197.2" r="131.1"/>
		<path class="st16" d="M285.1-9.1H-25.2v207.8h24.9c0,0.2,0,0.4,0,0.6c0,72.4,58.7,131.1,131.1,131.1c72.4,0,131-58.7,131-131.1
			c0-0.2,0-0.4,0-0.6h23.3L285.1-9.1L285.1-9.1z"/>
	</g>
</g>
<g id="Camada_2" class="st15">
	<g class="st18">
		<g>
			<path class="st19" d="M261,1v328H1V1H261 M262,0H0v330h262V0L262,0z"/>
		</g>
		<line class="st20" x1="1.4" y1="139.5" x2="261.1" y2="139.5"/>
		<line class="st20" x1="0.8" y1="201.8" x2="261.1" y2="201.8"/>
		<line class="st20" x1="261.4" y1="242.8" x2="1.1" y2="242.8"/>
		<ellipse class="st20" cx="131" cy="161.8" rx="84.3" ry="80.6"/>
		<ellipse class="st20" cx="83.8" cy="139.5" rx="12.5" ry="12.5"/>
		<ellipse class="st20" cx="179.7" cy="139.5" rx="12.5" ry="12.5"/>
		<ellipse class="st20" cx="131" cy="198.7" rx="131" ry="131.3"/>
		<line class="st20" x1="131" y1="329.3" x2="131" y2="1.1"/>
		<line class="st20" x1="47" y1="329.3" x2="47" y2="1.1"/>
		<line class="st20" x1="215" y1="329.3" x2="215" y2="1.1"/>
	</g>
</g>
</svg>
