<?xml version="1.0" encoding="utf-8"?>
<!-- Generator: Adobe Illustrator 24.0.1, SVG Export Plug-In . SVG Version: 6.00 Build 0)  -->
<svg version="1.1" xmlns="http://www.w3.org/2000/svg" xmlns:xlink="http://www.w3.org/1999/xlink" x="0px" y="0px"
	 viewBox="0 0 262 330" style="enable-background:new 0 0 262 330;" xml:space="preserve">
<style type="text/css">
	.st0{clip-path:url(#SVGID_2_);}
	.st1{fill:#FFBF1F;}
	.st2{fill:none;stroke:#012442;stroke-width:48;stroke-linecap:round;stroke-linejoin:round;stroke-miterlimit:10;}
	.st3{fill:none;stroke:#FFBB71;stroke-width:30;stroke-linecap:round;stroke-linejoin:round;stroke-miterlimit:10;}
	.st4{fill:#FFBB71;}
	.st5{fill:#EF6100;stroke:#012442;stroke-width:3;stroke-linecap:round;stroke-linejoin:round;stroke-miterlimit:10;}
	.st6{fill:#EF6100;}
	.st7{fill:none;stroke:#012442;stroke-width:8;stroke-linecap:round;stroke-miterlimit:10;}
	.st8{fill:#012442;}
	.st9{fill:#FFFFFF;}
	.st10{fill:#E05F5F;}
	.st11{fill:#F7957F;}
	.st12{fill:#276AD6;}
	.st13{fill:#215EB7;}
	.st14{fill:none;stroke:#012442;stroke-width:8;stroke-linecap:round;stroke-linejoin:round;stroke-miterlimit:10;}
	.st15{fill:#299EED;}
	.st16{fill:#2DB5F9;}
	.st17{fill:none;stroke:#FFFFFF;stroke-width:6;stroke-linecap:round;stroke-linejoin:round;stroke-miterlimit:10;}
	.st18{display:none;}
	.st19{display:inline;opacity:0.33;fill:none;stroke:#000000;stroke-miterlimit:10;enable-background:new    ;}
	.st20{display:inline;}
	.st21{fill:#2BB2FC;}
	.st22{fill:none;stroke:#2BB2FC;stroke-miterlimit:10;}
</style>
<g id="Camada_1">
	<g id="Camada_7">
	</g>
	<g id="Camada_8">
		<g>
			<g>
				<defs>
					<path id="SVGID_1_" d="M282.4-0.5H-20.8v194H0.3v4.9h-0.8c0,0.2,0,0.4,0,0.5c0,72.4,58.7,131.1,131.1,131.1
						c45.2,0,86.1-22.9,109.7-57.8c0.8-1.2,43.6-2.4,44.4-3.6C297.2,248.4,282.4-0.5,282.4-0.5z"/>
				</defs>
				<clipPath id="SVGID_2_">
					<use xlink:href="#SVGID_1_"  style="overflow:visible;"/>
				</clipPath>
				<g class="st0">
					<circle class="st1" cx="131" cy="198.9" r="131.1"/>
					<path class="st2" d="M189.5,253.8c0,0,26.9,22.6,41.2,85"/>
					<path class="st3" d="M189.5,253.8c0,0,26.9,22.6,41.2,85"/>
					<path class="st2" d="M72.7,253.8c0,0-26.9,22.6-41.2,85"/>
					<path class="st3" d="M72.7,253.8c0,0-26.9,22.6-41.2,85"/>
					<path class="st4" d="M164.8,234.3l-1-5.9h-67l-1,5.9c-0.3,1.6-0.4,3.2-0.4,4.7c0,17.4,15.6,31.6,34.8,31.6s34.8-14.2,34.8-31.6
						C165.2,237.4,165.1,235.8,164.8,234.3z"/>
					<path class="st5" d="M172.6,245.6c-4.7,2.8-9.6,5.1-14.6,7.2c0,0.3,0,0.7,0,1c0,13.6-12.5,24.6-27.9,24.6
						c-14.2,0-26-9.5-27.6-21.6c-6-2.5-11.4-6.3-15.8-11.8c-34.2,34.3-32.5,127.2-32.5,127.2l156.9-0.9
						C211.1,371.3,212.7,286.3,172.6,245.6z"/>
					<g>
						<g>
							<path class="st6" d="M182,293.7l48.4-24.6c-0.3-0.7-22.5-47-56.5-41.1l-7,1.1c-10.8,4.4-9.6,19.3-5.3,30.1L182,293.7z"/>
						</g>
					</g>
					<g>
						<path class="st7" d="M202.2,285.1l30.2-14c-0.3-0.7-25.6-54.2-62.5-42"/>
					</g>
					<g>
						<g>
							<path class="st6" d="M80.2,293.7l-48.4-24.6c0.3-0.7,22.5-47,56.5-41.1l7,1.1c10.8,4.4,9.6,19.3,5.3,30.1L80.2,293.7z"/>
						</g>
					</g>
					<g>
						<path class="st7" d="M64,286l-34.2-14.9c0.3-0.7,25.6-54.2,62.5-42"/>
					</g>
					<g>
						<path class="st8" d="M157.8,238.2c0.2,1.3,0.3,2.7,0.3,4.1c0,15.4-12.5,27.9-27.9,27.9s-27.8-12.5-27.8-27.9
							c0-1.4,0.1-2.7,0.3-4.1H157.8 M164.7,230.2h-6.9h-55.1h-6.9l-1,6.8c-0.2,1.7-0.4,3.5-0.4,5.2c0,19.8,16.1,35.9,35.8,35.9
							s35.8-16.1,35.8-35.9c0-1.7-0.1-3.5-0.4-5.2L164.7,230.2L164.7,230.2z"/>
					</g>
					<path class="st7" d="M193.6,266.5c0,0,13,39.5,14.6,95.2"/>
					<path class="st7" d="M70.2,266.5c0,0-13,39.5-14.6,95.2"/>
					<g>
						<path class="st4" d="M209.3,175c0.1,41-34.4,70.8-79.5,70.9l0,0c-45.1,0.2-77.8-29.4-78-70.4l-0.3-43
							c-0.1-15.1,4.2-25.7,12.1-37.1c19.3-27.9,70-25.7,75-25.3c20.4,1.3,45.1,7.5,57.8,25.2c7.5,10.4,12.2,21.5,12.2,40.8
							L209.3,175z"/>
					</g>
					<g>
						<path class="st8" d="M131.3,69.9c28.1,0,56.1,9.9,69.1,31.8c9.4,15.7,9.7,47.4,9.7,47.4c0.4,0,2.6,0,2.7,0c0,0,0,0,0.1,0
							c9.3,0,12.9,7.6,13,16.9c0,9.4-7.5,17-16.9,17c-0.1,0-0.5,0-1.1,0c-4.2,36.4-35.1,62-76.9,62.1c-0.1,0-0.2,0-0.4,0
							c-42.1,0-73.3-25.9-77.2-62.8c-1.4,0-2.3,0-2.4,0c0,0,0,0-0.1,0c-9.1,0-16.6-7.4-16.6-16.6c0-9.2,7.4-16.6,16.5-16.7
							c0.1,0,0.8,0,1.9,0l-0.1-7.3c0-4.5-0.3-29.3,7.1-41.1C72,80.9,101.7,69.9,131.3,69.9 M131.3,61.9c-34.5,0-65.3,13.6-78.5,34.6
							c-5.5,8.9-8.3,23.9-8.3,44.8v0.5v0.1v0c-4.2,1.1-8.1,3.3-11.2,6.5c-4.6,4.7-7.2,10.9-7.2,17.4c0,12,8.7,22,20.1,24.1
							c7.2,37.6,40.9,63.2,84.1,63.2h0.4c22.3-0.1,42.2-6.7,57.6-19.3c13.6-11.1,22.8-26.4,26.3-43.5c4.4-1.1,8.5-3.4,11.9-6.7
							c4.7-4.7,7.3-11,7.2-17.7c-0.1-13.2-6.1-22.2-16-24.4c-0.7-11-3-31.4-10.5-44C194,75.2,165.6,61.9,131.3,61.9l0,8L131.3,61.9
							L131.3,61.9L131.3,61.9z"/>
					</g>
					<g>
						<path class="st4" d="M83.2,165.6c0,8.4,5,15.4-3.1,16.5c-0.7,0.1-29.6,0.2-30.4,0.2c-9.2,0-16.6-7.4-16.7-16.6
							c0-9.2,7.4-16.6,16.5-16.7c0.8,0,24.1,0,24.8,0.1C82.5,150.2,83.1,157.2,83.2,165.6z"/>
					</g>
					<g>
						<path class="st4" d="M174.6,166.2c0,8.6-5,15.8,3.3,16.8c0.7,0.1,30.3,0,31,0c9.4,0,16.9-7.6,16.9-17c0-9.4-7.6-16.9-17-16.9
							c-0.8,0-24.6,0.1-25.3,0.2C175.2,150.5,174.5,157.6,174.6,166.2z"/>
					</g>
					<g>
						<g>
							<path class="st9" d="M129.8,207.3c-9.2,0-20.9-5.5-26.1-17.8c-0.5-1.2-0.4-2.6,0.3-3.8c0.7-1.1,2-1.8,3.3-1.8l43.6,0
								c1.2,0,2.3,0.5,3.1,1.4s1.1,2.1,0.9,3.2C153.6,196.7,141.1,207.3,129.8,207.3z"/>
							<path class="st10" d="M107.3,187.9l43.6,0c-1,6.2-11.9,15.4-21.2,15.4C121.2,203.3,111.7,198.1,107.3,187.9 M107.3,179.9
								c-2.7,0-5.2,1.3-6.7,3.6c-1.5,2.2-1.8,5.1-0.7,7.5c5.1,12.1,17.1,20.3,29.8,20.3c12.4,0,27.4-11.4,29.1-22.1
								c0.4-2.3-0.3-4.7-1.8-6.5s-3.8-2.8-6.1-2.8L107.3,179.9L107.3,179.9L107.3,179.9z"/>
						</g>
					</g>
					<path class="st8" d="M111.8,194.9c0,0,19.1,1.1,35.7-0.6C147.5,194.3,131.2,214.4,111.8,194.9z"/>
					
						<ellipse transform="matrix(0.9667 -0.2558 0.2558 0.9667 -41.3122 53.1675)" class="st11" cx="183.7" cy="185.4" rx="12.4" ry="11.1"/>
					
						<ellipse transform="matrix(0.2558 -0.9667 0.9667 0.2558 -122.4697 211.723)" class="st11" cx="76.3" cy="185.4" rx="11.1" ry="12.4"/>
					<g>
						<path class="st12" d="M35.2,148.4c-0.5,0-0.9-0.1-1.4-0.2c-1.1-0.4-2-1.3-2.4-2.4c-3.4-9.6-5.9-27.4-6.6-47.8
							c-0.3-9.6-0.8-32.3,2.9-37.2C41.9,41.8,58.7,30,77.8,25.8c0.3-0.1,0.6-0.1,0.9-0.1c0.4,0,0.8,0.1,1.2,0.2
							c10.9,3.4,13.4,6.1,19.9,13.5l1,1.1c0.9,1,1.2,2.4,0.9,3.7c-1.8,6.8-1.5,14.5-1.2,21.9c0.1,2.2,0.2,4.6,0.2,6.8
							c0,2.2-1.7,4-3.9,4.1c-13.6,0.4-25,5.5-33.8,15.1c-9.1,9.9-9.8,22.5-10.6,35.8c-0.3,4.7-0.6,9.5-1.2,14.3
							c-0.2,1.8-1.7,3.2-3.4,3.4c-0.2,0-0.6,0.1-1.1,0.1c-1.7,0.1-6.3,0.2-9.6,2.2C36.6,148.2,35.9,148.4,35.2,148.4z"/>
						<path class="st8" d="M78.7,29.7c10.4,3.2,11.9,5.3,19.2,13.4c-2.6,9.5-1.2,20.1-1.1,29.9c-14,0.4-26.8,5.6-36.6,16.3
							c-13.4,14.6-10.3,33.8-12.8,52.2c-0.8,0.1-7.3-0.2-12.2,2.8c-7.5-21-8.2-76.1-4.3-81.3C43.2,46.7,58.7,34.1,78.7,29.7
							 M78.7,21.7c-0.6,0-1.2,0.1-1.7,0.2c-20.1,4.5-37.7,16.7-52.5,36.4c-1.2,1.6-4.9,6.6-3.7,39.8c0.4,9.9,1.8,34.6,6.8,49
							c0.8,2.2,2.6,4,4.8,4.8c0.9,0.3,1.8,0.5,2.7,0.5c1.4,0,2.8-0.4,4.1-1.1c2.5-1.5,6.3-1.6,7.7-1.6c0.6,0,1,0,1.5-0.1
							c3.6-0.5,6.4-3.3,6.9-6.9c0.7-4.9,0.9-9.9,1.2-14.6c0.8-13.1,1.4-24.5,9.5-33.3c8-8.8,18.5-13.4,31-13.8
							c4.4-0.1,7.8-3.8,7.8-8.1c0-2.3-0.2-4.7-0.2-6.9c-0.3-7.2-0.6-14.5,1-20.7c0.7-2.6,0-5.4-1.8-7.4l-1-1.1
							c-7.2-8.1-10.3-11.1-21.7-14.6C80.3,21.8,79.5,21.7,78.7,21.7L78.7,21.7z"/>
					</g>
					<g>
						<path class="st12" d="M234,252.7c3.9-1.5-4.2-11.2-5.5-13.4c-2.1-3.5,2.1-7.9,5.7-5.7c6.5,4.1,16.2,8.7,24,6.1
							c-0.3-1.6-0.8-3.1-1.2-4.4c-2.3-6.9-5.5-13.3-7.4-20.4c-2.3-8.1-3.5-16.4-4.9-24.7c-1.2-7.1-2.6-14.4-0.7-21.5
							c0.6-2.2,2.4-3.1,4.2-2.9c-0.5-9.3-0.6-18.4-0.8-27.2c-1.1-63.3-1.9-113.3-121.8-121.7c-0.1,0-0.2,0-0.3,0c-0.2,0-0.4,0-0.6,0
							c-1.2,0.2-29.5,5.1-27,57.5l8-0.4c-0.2-4.8,1.5-9.4,4.9-13c3.4-3.6,8.1-5.6,12.8-5.6c3.8,0,9.4,1.4,14.1,8
							c4.4,7.7,8.4,15.5,12.4,23.1c16.8,32.4,32.7,63,72.5,85c-1.9,5.2-6.7,9.3-12.2,10c-2,0.3-3.5,2-3.5,4
							c0.3,19.8-5.6,30.1-17.3,43.2c-1.5,1.6-1.3,4.2,0.3,5.6c10.8,9.8,24.9,16.6,42,20.4C232,254,232.8,253.2,234,252.7z"/>
						<path class="st8" d="M125.2,20.9c174.3,12.2,82,104.5,127.3,216.4c-16.9-4.2-14.5-3.1-27.7-14.4c-0.3,4.1,0,9.4,5.3,25.9
							c-21.3-4-28.9-9-37.9-17.1c11.4-12.8,18.7-24.1,18.4-46c8.1-1.1,15-8,16.3-16.1c-50.3-26.7-62.8-67.4-86.1-108.2
							c-4.9-7-11.3-9.9-17.5-9.9c-11.4,0-22.2,9.9-21.6,22.8C99.3,24.9,125.2,20.9,125.2,20.9 M125.2,12.9c-0.4,0-0.8,0-1.2,0.1
							c-1.4,0.2-33,5.7-30.4,61.7l8-0.4l8-0.4c-0.2-3.7,1.2-7.3,3.8-10c2.6-2.8,6.3-4.4,9.9-4.4c4.1,0,7.8,2.1,10.8,6.2
							c4.3,7.6,8.3,15.3,12.2,22.8c8.7,16.8,17,32.7,28.6,47.8c11.7,15.1,25.5,27.3,42,37c-1.8,2.4-4.5,4.1-7.4,4.5
							c-4,0.6-7,4-6.9,8.1c0.3,18.4-5.2,28.1-16.3,40.5c-2.9,3.3-2.7,8.3,0.6,11.2c12.2,11,22.2,15.5,41.8,19.1
							c0.5,0.1,1,0.1,1.5,0.1c2.3,0,4.5-1,6-2.7c1.9-2.1,2.5-5.1,1.6-7.7c-0.4-1.2-0.7-2.3-1.1-3.4c3.5,1.9,6.9,2.3,14,4.1
							c0.6,0.2,1.3,0.2,1.9,0.2c2.3,0,4.5-1,6-2.8c2-2.3,2.5-5.5,1.4-8.2c-14.5-35.9-11.1-66.9-11.6-97.7c-0.5-33,2-61.5-14.4-84.1
							c-8.8-12.1-21.4-21.3-38.4-28c-17.8-7-40.7-11.4-69.7-13.5C125.6,12.9,125.4,12.9,125.2,12.9L125.2,12.9z"/>
					</g>
					<g>
						<path class="st13" d="M134.1,76c2.5,0,4.9,0.1,7.4,0.1c-1.4-4.3-2.7-8.7-4.9-12.6c-2.7-4.8-7.2-9-12.7-9.4
							c-3.5-0.2-6.9,1.1-9.8,2.8c-5,2.9-9.1,7.2-12,12.1c-0.8,1.3-2.4,4.3-3.5,7.3C110.4,74.1,122.1,75.8,134.1,76z"/>
					</g>
					<path class="st14" d="M242.2,176.1C186,163,153.7,97,143.4,71.6c-3.7-9.2-8.8-20.2-18.6-21.4c-6.2-0.7-12.2,3-15.9,8
						s-6.6,13.1-8.3,19c7.1-0.2,23.7-2,43.4,0.1"/>
					<path class="st15" d="M123.8,35.7c10.8,0.4,19.5,4.2,26.4,12.6c6.9,8.4,11.5,26.3,16.9,35.7c13.1,22.7,31.7,43,55.6,53.7
						c-4.6-10.1-6.4-22.6-5.8-33.7c11.6,5.5,20.6,20.6,21.3,19.8c0.1-13.2,19.2-100.2-113-102.5c0,0-16.1,2.5-21.8,27.7
						C108.8,43.7,116.3,35.5,123.8,35.7z"/>
					<g>
						<g>
							<g>
								<ellipse class="st16" cx="86" cy="141.7" rx="34.4" ry="32"/>
							</g>
							<g>
								<path class="st8" d="M86,175.7c-20.1,0-36.4-15.2-36.4-34s16.3-34,36.4-34s36.4,15.2,36.4,34S106.1,175.7,86,175.7z
									 M86,111.7c-17.8,0-32.4,13.5-32.4,30s14.5,30,32.4,30s32.4-13.5,32.4-30S103.9,111.7,86,111.7z"/>
							</g>
						</g>
						<g>
							<g>
								<ellipse class="st9" cx="86" cy="141.7" rx="22.9" ry="21.4"/>
							</g>
							<g>
								<path class="st8" d="M86,165c-13.8,0-24.9-10.5-24.9-23.4s11.2-23.4,24.9-23.4s24.9,10.5,24.9,23.4l0,0
									C111,154.6,99.8,165,86,165z M86,122.3c-11.6,0-20.9,8.7-20.9,19.4S74.5,161,86,161s20.9-8.7,20.9-19.4
									C107,131,97.6,122.3,86,122.3z"/>
							</g>
						</g>
						<g>
							<g>
								<ellipse class="st16" cx="174.9" cy="141.7" rx="34.7" ry="32"/>
							</g>
							<g>
								<path class="st8" d="M174.9,175.7c-20.2,0-36.7-15.2-36.7-34s16.4-34,36.7-34s36.7,15.2,36.7,34S195.1,175.7,174.9,175.7z
									 M174.9,111.7c-18,0-32.7,13.5-32.7,30s14.7,30,32.7,30s32.7-13.5,32.7-30S192.9,111.7,174.9,111.7z"/>
							</g>
						</g>
						<g>
							<g>
								<ellipse class="st9" cx="174.9" cy="141.7" rx="23.1" ry="21.4"/>
							</g>
							<g>
								<path class="st8" d="M174.9,165c-13.9,0-25.1-10.5-25.1-23.4c0-6.3,2.6-12.2,7.4-16.6c4.7-4.4,11-6.8,17.7-6.8
									c13.9,0,25.1,10.5,25.1,23.4S188.8,165,174.9,165z M174.9,122.3c-5.7,0-11,2-15,5.7c-4,3.6-6.1,8.5-6.1,13.6
									c0,10.7,9.5,19.4,21.1,19.4s21.1-8.7,21.1-19.4S186.6,122.3,174.9,122.3z"/>
							</g>
						</g>
						<g>
							<g>
								<path class="st8" d="M142.3,138.2c-0.1-0.2-3.1-2.5-3.2-2.7c-5.9-1.2-11.4-1.3-18.5,0.4c-0.1,3.8-0.5,9.6-1.5,13.2
									c0.5,0.1,1.1,0.1,1.6-0.1c6.1-1.1,12.5-2,17.8-0.1c0.1,0,2.1,1,2.2,1.1C139.8,146.5,141.5,141.7,142.3,138.2z"/>
							</g>
						</g>
						<g>
							<path class="st16" d="M143.5,147.3c-0.6,0-1.1-0.1-1.6-0.5c-6.7-4.3-16.6-2.8-23.7-0.9c-1.6,0.4-3.2-0.5-3.7-2.1
								s0.5-3.2,2.1-3.7c12-3.3,21.6-2.7,28.5,1.6c1.4,0.9,1.8,2.7,0.9,4.1C145.5,146.8,144.5,147.3,143.5,147.3z"/>
						</g>
					</g>
					<g>
						<path class="st8" d="M100.6,138.5c-6.5-4.2-15.5-4.3-22.6-0.4l-5.7,0.1l3.3,6.3c0.6,1.6,1.9,2.5,3.2,2.5
							c0.5,0,1.1-0.1,1.6-0.5c5.1-3.2,12.3-3.2,17-0.2c1.7,1.1,3.9,0.3,4.8-1.9C103,142.3,102.3,139.6,100.6,138.5z"/>
					</g>
					<g>
						<path class="st8" d="M160.8,137.5c6.5-4.2,15.5-4.3,22.6-0.4l5.7,0.1l-3.3,6.3c-0.6,1.6-1.9,2.5-3.2,2.5
							c-0.5,0-1.1-0.1-1.6-0.5c-5.1-3.2-12.3-3.2-17-0.2c-1.7,1.1-3.9,0.3-4.8-1.9C158.4,141.3,159,138.6,160.8,137.5z"/>
					</g>
					<path class="st17" d="M231.2,86.2c1.3,3.3,1.8,6.2,2.4,9.1"/>
					<path class="st17" d="M216.6,60.9c3.8,3.5,7.4,8,9.3,13.3"/>
				</g>
			</g>
		</g>
	</g>
	<g id="Camada_3" class="st18">
		<circle class="st19" cx="130.9" cy="197.2" r="131.1"/>
	</g>
</g>
<g id="Camada_2" class="st18">
	<g class="st20">
		<g>
			<path class="st21" d="M261,1v328H1V1H261 M262,0H0v330h262V0L262,0z"/>
		</g>
		<line class="st22" x1="1.4" y1="139.5" x2="261.1" y2="139.5"/>
		<line class="st22" x1="0.8" y1="201.8" x2="261.1" y2="201.8"/>
		<line class="st22" x1="261.4" y1="242.8" x2="1.1" y2="242.8"/>
		<ellipse class="st22" cx="131" cy="161.8" rx="84.3" ry="80.6"/>
		<ellipse class="st22" cx="83.8" cy="139.5" rx="12.5" ry="12.5"/>
		<ellipse class="st22" cx="179.7" cy="139.5" rx="12.5" ry="12.5"/>
		<ellipse class="st22" cx="131" cy="198.7" rx="131" ry="131.3"/>
		<line class="st22" x1="131" y1="329.3" x2="131" y2="1.1"/>
		<line class="st22" x1="47" y1="329.3" x2="47" y2="1.1"/>
		<line class="st22" x1="215" y1="329.3" x2="215" y2="1.1"/>
	</g>
</g>
</svg>
