<?xml version="1.0" encoding="utf-8"?>
<!-- Generator: Adobe Illustrator 24.0.1, SVG Export Plug-In . SVG Version: 6.00 Build 0)  -->
<svg version="1.1" id="Camada_1" xmlns="http://www.w3.org/2000/svg" xmlns:xlink="http://www.w3.org/1999/xlink" x="0px" y="0px"
	 viewBox="0 0 262 330" style="enable-background:new 0 0 262 330;" xml:space="preserve">
<style type="text/css">
	.st0{clip-path:url(#SVGID_2_);}
	.st1{fill:#EF6100;}
	.st2{fill:none;stroke:#012442;stroke-width:48;stroke-linecap:round;stroke-linejoin:round;}
	.st3{fill:none;stroke:#FFBB71;stroke-width:30;stroke-linecap:round;stroke-linejoin:round;}
	.st4{fill:#FFBB71;}
	.st5{fill:#83D9FD;}
	.st6{fill:none;stroke:#012442;stroke-width:8;stroke-linecap:round;stroke-miterlimit:10;}
	.st7{fill:#012442;}
	.st8{fill:#FFFFFF;}
	.st9{fill:none;stroke:#012442;stroke-width:8;stroke-linecap:round;stroke-linejoin:round;}
	.st10{fill:#D69051;}
	.st11{fill:none;stroke:#D69051;stroke-width:6;stroke-linecap:round;stroke-linejoin:round;}
	.st12{fill:#FFC522;}
	.st13{fill:none;stroke:#012442;stroke-width:3;stroke-linecap:round;stroke-linejoin:round;}
	.st14{fill:none;}
</style>
<title>3</title>
<g id="Camada_5">
	<g>
		<defs>
			<path id="SVGID_1_" d="M285.1-19.4H-25.1v217.8h23.8c0,0.2,0,0.4,0,0.6c0,72.4,59.7,131.1,132.1,131.1c72.4,0,131-58.7,131-131.1
				c0-0.2,0-0.4,0-0.6h23.3V-9.4V-19.4z"/>
		</defs>
		<clipPath id="SVGID_2_">
			<use xlink:href="#SVGID_1_"  style="overflow:visible;"/>
		</clipPath>
		<g class="st0">
			<circle class="st1" cx="131.1" cy="199" r="131.1"/>
			<path class="st2" d="M188.4,254c0,0,26.9,22.6,41.2,85"/>
			<path class="st3" d="M188.4,254c0,0,26.9,22.6,41.2,85"/>
			<path class="st2" d="M71.6,254c0,0-26.9,22.6-41.2,85"/>
			<path class="st3" d="M71.6,254c0,0-26.9,22.6-41.2,85"/>
			<path class="st4" d="M163.6,240.3l-1-5.9h-67l-1,5.9c-0.3,1.6-0.4,3.2-0.4,4.7c0,17.4,15.6,31.6,34.9,31.6s34.9-14.2,34.9-31.6
				C163.9,243.5,163.8,241.9,163.6,240.3z"/>
			<path class="st5" d="M171.5,245.9c-4.7,2.8-9.5,5.1-14.6,7.2c0,0.3,0,0.7,0,1c0,13.6-12.5,24.6-27.9,24.6
				c-14.2,0-26-9.5-27.6-21.6c-6.2-2.5-11.6-6.6-15.8-11.8c-34.2,34.3-32.4,127.2-32.4,127.2l156.8-0.8
				C210,371.6,211.5,286.6,171.5,245.9z"/>
			<path class="st5" d="M180.9,293.9l48.4-24.5c-0.3-0.7-22.5-47-56.5-41.1l-7,1.1c-10.8,4.4-9.6,19.3-5.3,30.1L180.9,293.9z"/>
			<path class="st6" d="M201.1,285.3l30.2-14c-0.3-0.7-25.6-54.2-62.5-42"/>
			<path class="st5" d="M79,293.9l-48.4-24.5c0.3-0.7,22.5-47,56.5-41.1l7,1.1c10.8,4.4,9.6,19.3,5.3,30.1L79,293.9z"/>
			<path class="st6" d="M62.9,286.2l-34.2-14.8c0.3-0.7,25.6-54.2,62.5-42"/>
			<path class="st7" d="M156.7,238.4c0.2,1.3,0.3,2.7,0.3,4.1c0,15.4-12.5,27.8-27.9,27.8c-15.4,0-27.8-12.5-27.8-27.8
				c0-1.4,0.1-2.7,0.3-4.1H156.7 M163.6,230.4H94.6l-1,6.9c-0.3,1.7-0.4,3.5-0.4,5.2c0,19.8,16.1,35.8,35.9,35.8
				c19.8,0,35.8-16,35.8-35.8c0-1.7-0.1-3.5-0.4-5.2L163.6,230.4L163.6,230.4z"/>
			<path class="st6" d="M192.5,266.8c0,0,13,39.5,14.6,95.2"/>
			<path class="st6" d="M69.1,266.8c0,0-13,39.5-14.6,95.2"/>
			<path class="st4" d="M206.1,175.2c0.1,41-32.4,70.7-77.4,70.9l0,0c-45.1,0.2-77.8-29.4-78-70.4l-0.3-43
				c-0.1-15.1,4.2-25.7,12.1-37.1c19.3-27.9,70-25.7,75-25.3c20.4,1.3,45.1,7.5,57.8,25.2c7.5,10.4,12.1,21.5,12.1,40.9L206.1,175.2
				z"/>
			<path class="st7" d="M130.2,70.1c28.1,0,56.1,10,69.1,31.8c9.4,15.7,7.7,47.4,7.7,47.4h0.7c9.4,0.6,16.5,8.7,15.8,18.1
				c-0.6,8.5-7.3,15.2-15.8,15.8h-1.1c-4.2,36.4-35.1,62-76.9,62.1h-0.4c-42.1,0-73.3-25.9-77.2-62.8h-2.4h-0.1
				c-9.2,0-16.6-7.4-16.6-16.6s7.4-16.6,16.6-16.6h2l-0.1-7.3c0-4.5-0.3-29.3,7.1-41.1C71,81.1,100.7,70.1,130.2,70.1 M130.3,62.1
				c-34.5,0-65.3,13.6-78.5,34.6c-5.5,8.8-8.3,23.9-8.3,44.8v0.6c-10.9,2.9-18.4,12.7-18.4,23.9c0.1,11.8,8.5,21.9,20.1,24.1
				c7.2,37.6,40.8,63.3,84.1,63.3h0.4c22.3-0.1,42.2-6.7,57.6-19.3c13.6-11,22.9-26.4,26.3-43.5c13.4-3.3,21.6-16.9,18.3-30.3
				c-2.1-8.4-8.4-15.2-16.7-17.8c-0.1-11.1-1.3-31.8-9-44.7C192.8,75.4,164.5,62.1,130.3,62.1L130.3,62.1L130.3,62.1z"/>
			<path class="st4" d="M82,165.8c0,8.4,5,15.4-3.1,16.5c-0.7,0.1-29.6,0.2-30.4,0.2c-9.2,0-16.6-7.4-16.7-16.6s7.4-16.6,16.6-16.7
				c0.8,0,24.1,0,24.8,0.1C81.4,150.4,82,157.4,82,165.8z"/>
			<path class="st4" d="M173.5,166.4c0,8.6-5,15.8,3.3,16.8c0.7,0.1,30.3,0,31,0c9.4-0.7,16.4-8.8,15.7-18.2
				c-0.6-8.5-7.4-15.2-15.9-15.7c-0.8,0-24.6,0.1-25.3,0.2C174,150.7,173.4,157.8,173.5,166.4z"/>
			<path class="st7" d="M71.5,119.3l20.7-3.2c2.6-0.4,5.1,1.4,5.5,4l0.1,0.6c0.4,2.6-1.4,5.1-4,5.5L73,129.4c-2.6,0.4-5.1-1.4-5.5-4
				l-0.1-0.6C67,122.2,68.8,119.7,71.5,119.3z"/>
			<path class="st7" d="M187.7,129.4l-20.7-3.2c-2.6-0.4-4.4-2.9-4-5.5l0.1-0.6c0.4-2.6,2.9-4.4,5.5-4l20.7,3.2
				c2.6,0.4,4.4,2.9,4,5.5l-0.1,0.6C192.8,128,190.3,129.8,187.7,129.4z"/>
			<path class="st8" d="M167,168.9c-24.7,2.9-52.5,2.9-75.3-0.4c0,0,6.9,33.8,37.6,33.8C163.9,202.4,167,168.9,167,168.9z"/>
			<path class="st9" d="M167,168.9c-24.7,2.9-52.5,2.9-75.3-0.4c0,0,6.9,33.8,37.6,33.8C163.9,202.4,167,168.9,167,168.9z"/>
			<path class="st10" d="M202.3,109.7c-1.9-4.3-4.2-10.2-7-14c-12.7-17.8-37.4-24-57.8-25.3c-14.3-0.6-28.7,1.1-42.4,5
				C99.6,84.7,130.4,135.2,202.3,109.7z"/>
			<path class="st11" d="M116.4,216.2c9.5,2,19.2,1.8,28.6-0.5"/>
			<path class="st12" d="M110.9,47.4c-13.8,54.8,87.8,70.4,108,25.9c-5.4,3.5-33-0.1-47.3-27.8C159.7,22.6,119.9,22.3,110.9,47.4z"
				/>
			<path class="st7" d="M140.7,28.5c12.4,0,25,5.8,30.8,17.1C183,67.8,203,74.5,213.3,74.5c1.9,0.1,3.9-0.2,5.6-1.1
				c-8,17.7-28.9,25.9-50.3,25.9c-32.4,0-66-18.8-57.7-51.8C115.5,34.7,128,28.5,140.7,28.5 M140.7,20.5c-7.8-0.1-15.4,1.9-22.1,5.8
				c-7.1,4.2-12.5,10.7-15.3,18.4c-0.1,0.2-0.2,0.5-0.2,0.8c-3.5,13.9-0.9,26.9,7.4,37.6c11.6,14.9,33.8,24.1,58,24.1
				c12.3,0,23.9-2.4,33.6-7.1c11.1-5.3,19.4-13.4,24-23.5c1.8-4,0-8.8-4.1-10.5c-2.3-1-4.8-0.9-7,0.3c-0.6,0.1-1.2,0.2-1.8,0.1
				c-7.6,0-24.6-5.1-34.6-24.5C171.8,28.7,157.3,20.5,140.7,20.5L140.7,20.5z"/>
			<path class="st13" d="M101.1,183.2c0,0,30.5,5.5,59.2,0"/>
			<circle class="st10" cx="56.4" cy="172.5" r="4.3"/>
			<circle class="st10" cx="75.9" cy="168.2" r="4.3"/>
			<circle class="st10" cx="69.7" cy="181.8" r="4.3"/>
			<circle class="st10" cx="200.9" cy="172.5" r="4.3"/>
			<circle class="st10" cx="181.4" cy="168.2" r="4.3"/>
			<circle class="st10" cx="187.6" cy="181.8" r="4.3"/>
			<ellipse transform="matrix(0.479 -0.8778 0.8778 0.479 43.1577 161.0629)" class="st8" cx="157.3" cy="44.2" rx="5.3" ry="7.4"/>
			<ellipse transform="matrix(0.479 -0.8778 0.8778 0.479 35.2628 180.221)" class="st8" cx="169.5" cy="60.4" rx="3.3" ry="4.6"/>
			<path class="st9" d="M71.3,147.4c6.6-2.5,15-3.6,20.8,1.3"/>
			<path class="st9" d="M165.6,147.8c6.6-2.5,15-3.6,20.8,1.3"/>
		</g>
	</g>
</g>
<path class="st14" d="M277,227.9c0-0.1,0-0.1,0-0.2"/>
</svg>
