<?xml version="1.0" encoding="utf-8"?>
<!-- Generator: Adobe Illustrator 24.0.1, SVG Export Plug-In . SVG Version: 6.00 Build 0)  -->
<svg version="1.1" xmlns="http://www.w3.org/2000/svg" xmlns:xlink="http://www.w3.org/1999/xlink" x="0px" y="0px"
	 viewBox="0 0 262 330" style="enable-background:new 0 0 262 330;" xml:space="preserve">
<style type="text/css">
	.st0{clip-path:url(#SVGID_2_);}
	.st1{fill:#EF6100;}
	.st2{fill:none;stroke:#012442;stroke-width:48;stroke-linecap:round;stroke-linejoin:round;}
	.st3{fill:none;stroke:#FFBB71;stroke-width:30;stroke-linecap:round;stroke-linejoin:round;}
	.st4{fill:#FFBB71;}
	.st5{fill:#FFBF1F;}
	.st6{fill:none;stroke:#012442;stroke-width:8;stroke-linecap:round;stroke-miterlimit:10;}
	.st7{fill:#012442;}
	.st8{fill:#ED8472;}
	.st9{fill:none;stroke:#012442;stroke-width:7;stroke-linecap:round;stroke-linejoin:round;}
	.st10{fill:#276AD6;}
	.st11{fill:#299EED;}
	.st12{fill:none;stroke:#012442;stroke-width:8;stroke-linecap:round;stroke-linejoin:round;}
	.st13{fill:none;stroke:#FFFFFF;stroke-width:6;stroke-linecap:round;stroke-linejoin:round;}
	.st14{fill:#E05C5C;}
	.st15{fill:#FFFFFF;}
	.st16{display:none;}
	.st17{display:inline;}
	.st18{fill:#2BB2FC;}
	.st19{fill:none;stroke:#2BB2FC;stroke-miterlimit:10;}
</style>
<g id="Camada_1">
	<title>30</title>
	<g id="Camada_8">
		<g>
			<defs>
				<path id="SVGID_1_" d="M282.6-0.8H-20.6v194h20.1v4.9h0.2c0,0.2,0,0.4,0,0.5C-1,271,57.2,330.2,129.6,330.8
					c72.4,0.6,131.6-57.5,132.2-129.9c0-0.8,0-1.5,0-2.3c0-0.2,0-0.3,0-0.5h0.1v-4.9h20.8L282.6-0.8z"/>
			</defs>
			<clipPath id="SVGID_2_">
				<use xlink:href="#SVGID_1_"  style="overflow:visible;"/>
			</clipPath>
			<g class="st0">
				<circle class="st1" cx="131.1" cy="198.7" r="131.1"/>
				<path class="st2" d="M191.1,252.8c0,0,26.9,22.6,41.2,85"/>
				<path class="st3" d="M191.1,252.8c0,0,26.9,22.6,41.2,85"/>
				<path class="st2" d="M74.2,252.8c0,0-26.9,22.6-41.2,85"/>
				<path class="st3" d="M74.2,252.8c0,0-26.9,22.6-41.2,85"/>
				<path class="st4" d="M166.4,233.3l-1-5.9h-67l-1,5.9c-0.3,1.6-0.4,3.1-0.4,4.7c0,17.4,15.6,31.6,34.9,31.6s34.9-14.2,34.9-31.6
					C166.7,236.4,166.6,234.9,166.4,233.3z"/>
				<path class="st5" d="M174.2,244.6c-4.7,2.8-9.5,5.1-14.6,7.2c0,0.3,0,0.7,0,1c0,13.6-12.4,24.6-27.8,24.6
					c-14.2,0-26-9.5-27.6-21.7c-6.2-2.5-11.6-6.6-15.8-11.8c-34.3,34.3-32.5,127.2-32.5,127.2l156.8-0.9
					C212.7,370.3,214.2,285.3,174.2,244.6z"/>
				<path class="st5" d="M183.6,292.7l48.4-24.6c-0.3-0.7-22.5-47-56.5-41.1l-7,1.1c-10.8,4.4-9.6,19.3-5.3,30.1L183.6,292.7z"/>
				<path class="st6" d="M203.8,284.1l30.2-14c-0.3-0.7-25.6-54.2-62.5-42"/>
				<path class="st5" d="M81.7,292.7l-48.4-24.6c0.3-0.7,22.5-47,56.5-41.1l7,1.1c10.8,4.4,9.6,19.3,5.3,30.1L81.7,292.7z"/>
				<path class="st6" d="M65.6,285l-34.2-14.9c0.3-0.7,25.6-54.2,62.5-42"/>
				<path class="st7" d="M159.4,237.2c0.2,1.3,0.3,2.7,0.3,4.1c0,15.4-12.5,27.8-27.9,27.8c-15.4,0-27.8-12.5-27.8-27.8
					c0-1.4,0.1-2.7,0.3-4.1H159.4 M166.3,229.2H97.3l-1,6.8c-0.3,1.7-0.4,3.5-0.4,5.2c0,19.8,16.1,35.8,35.9,35.8
					c19.8,0,35.8-16,35.8-35.8c0-1.7-0.1-3.5-0.4-5.2L166.3,229.2z"/>
				<path class="st6" d="M195.2,265.6c0,0,13,39.5,14.6,95.2"/>
				<path class="st6" d="M71.8,265.6c0,0-13,39.5-14.6,95.2"/>
				<path class="st4" d="M178.2,165.2c0,8.6-5,15.8,3.3,16.8c0.7,0.1,30.3,0,31,0c9.4,0.6,17.5-6.5,18.1-15.9
					c0.6-9.4-6.5-17.5-15.9-18.1c-0.8-0.1-1.6,0-2.3,0c-0.8,0-24.6,0.1-25.3,0.2C178.7,149.5,178.1,156.6,178.2,165.2z"/>
				<path class="st4" d="M212.8,174c0.1,41-36.4,70.7-81.5,70.9l0,0c-45.1,0.2-77.8-29.4-78-70.4l-0.3-43c0-15.1,4.2-25.7,12.1-37.1
					c19.4-27.9,70-25.6,75-25.3c20.4,1.3,45,7.5,57.8,25.2c7.5,10.4,15.2,21.5,15.2,40.8L212.8,174z"/>
				<path class="st7" d="M132.9,68.9c28.1,0,56.1,10,69.1,31.8c9.4,15.7,9.7,47.4,9.7,47.4h2.7c9.3,0,12.9,7.6,13,16.9
					c0,9.4-7.6,17-16.9,17h-1.1c-4.2,36.4-35.2,62-77,62.1H132c-42.1,0-73.3-25.9-77.2-62.8h-2.4c-9.2,0-16.6-7.4-16.6-16.6
					s7.4-16.6,16.6-16.6l0,0h2l-0.1-7.3c0-4.5-0.3-29.3,7.1-41.1C73.7,79.9,103.4,68.9,132.9,68.9 M133,60.9
					c-34.5,0-65.3,13.6-78.5,34.6c-5.5,8.9-8.3,23.9-8.3,44.8v0.5c-13.1,3.5-21,16.9-17.5,30.1c2.4,9.2,9.9,16.2,19.2,17.9
					c7.2,37.6,40.9,63.2,84.2,63.2h0.4c22.3-0.1,42.2-6.7,57.6-19.3c13.5-11,22.8-26.4,26.2-43.5c11.2-2.7,19.1-12.8,19.1-24.4
					c0-13.2-6-22.2-16-24.4c-0.7-11-3-31.4-10.5-44C195.5,74.3,167.1,60.9,133,60.9L133,60.9L133,60.9z"/>
				<path class="st4" d="M84.7,164.6c0,8.4,5,15.4-3.1,16.5c-0.7,0.1-29.6,0.2-30.4,0.2c-9.2,0-16.6-7.4-16.7-16.6
					s7.4-16.6,16.5-16.7c0.8,0,24.1,0,24.8,0.1C84.1,149.2,84.7,156.2,84.7,164.6z"/>
				
					<ellipse transform="matrix(0.9659 -0.2589 0.2589 0.9659 -38.974 54.314)" class="st8" cx="186.7" cy="175.1" rx="12.4" ry="11.2"/>
				
					<ellipse transform="matrix(0.2558 -0.9667 0.9667 0.2558 -111.6326 205.8236)" class="st8" cx="77.9" cy="175.4" rx="11.1" ry="12.4"/>
				<path class="st9" d="M73.7,123.6c7-4.1,15-5.9,23-5.3"/>
				<path class="st9" d="M188.7,123.6c-7-4.1-15-5.9-23-5.3"/>
				<path class="st10" d="M165.6,70.5c13.4,8,22.9,21.3,26,36.7l19.9,3.2c-0.7,11.3,0.1,22.6,2.3,33.6c27.4,6.8,18.8,40.4-2.6,43.3
					c-0.6,14.9-7.4,29.5-17.8,40.4c26.4,24.3,43.2,18.1,66.3,20.7c-25.3-66.7,6.6-154.4-47.4-211.9c-11.5-14-45.4-40.7-57.6-16
					C6.3-38.6,17.7,138.6,16.9,167.4C15.9,206,3.6,246.1,3.6,246.1c51.3,15,33.2-10,68.2-18.8c-10.6-11.4-17.8-25.6-20.7-40.9
					c-25.6-5.1-24-37.8-1.1-40.1c-3.4-43.7,2.8-38.1,35.7-42c3.1-13.3,9.5-25.6,18.5-35.8c0.9,10.4,1,20.9,0.4,31.4
					c22.8-1.1,45.6-0.4,68.3,2C172.6,91,170.2,80.3,165.6,70.5z"/>
				<path class="st11" d="M29.9,195c0-28.7-4.8-141.6,39.1-165.4s90.9,5.5,90.9,5.5s5.5-15.3,21.4-8.6s44.4,31.8,51.8,106.2
					c0,0,1.2,31.7,0,62.2c-0.7,18.4,4.1,39.1,8,52.6c4.4,0.1,13.9,0.3,18.6,0.9c-25.3-66.7,6.6-154.4-47.4-211.9
					c-11.5-14-45.4-40.7-57.6-16C6.3-38.6,17.7,138.6,16.9,167.4C15.9,206,3.6,246.1,3.6,246.1c3.6,1.1,9.9,1.9,12.9,2.6
					C22.5,233.9,29.9,212.2,29.9,195z"/>
				<path class="st12" d="M56.1,62.2c0,0-14.3,25.6-15.5,51.8c0,0,17.6-6.5,45.7-10.5c2.8-26.2,18.5-38.1,18.5-38.1
					c-0.3,5.7-1.3,21.7-1.8,36.6c19.5-2,44.8-3.1,69.8,0.9c0.4,0.1-2-18.8-6.4-29.9c-1.5-3.8,18.4,6.8,30.1,34.5
					c0.1,0.3,15.7,4,23.7,6.6c0,0-5.3-29.2-23.6-51.2"/>
				<path class="st12" d="M150.2,20.5c0,0-33.3-26.8-80.9-3.7s-55.1,89.1-52.6,144s-16.9,87.3-16.9,87.3l43,2.4
					c0,0,19.5-21.4,31.7-20.8c0,0-18.7-15.3-23.4-43.3c0,0-19.2-1.1-20.3-20.2c-1.2-20.7,21.1-20.1,21.1-20.1s2.4-30.5,3-34.2"/>
				<path class="st12" d="M152.6,20.5l11-9.1c0,0,30.6-9.4,64,49.5c24.2,42.7,18.4,109.8,18.4,109.8s-2,44.4,14.4,77.4H221
					c0,0-20.8-18.8-28.1-21.2c0,0,15.9-18.9,18.3-41.5c0,0,16.9,2.4,20.3-15c2.4-12.4-5.1-22.2-17.9-24c0,0-1.2-23.6-4.9-32.1"/>
				<path class="st13" d="M61.1,85.7c-1.2,3.3-2.4,6.7-3.4,10.1"/>
				<path class="st13" d="M75.6,57.4c-3.5,5.2-6.6,10.7-9.3,16.3"/>
				<path class="st7" d="M70.1,141.1l4.2-0.1l-2.4-6.3h11.7h0.6c5.8,0,10.4,4.7,10.4,10.5s-4.7,10.4-10.5,10.4c-4.2,0-8-2.6-9.6-6.5
					L70.1,141.1z"/>
				<path class="st7" d="M193.6,141.1l-4.2-0.1l2.4-6.3h-11.7c-0.2,0-0.4,0-0.6,0c-5.8,0-10.4,4.7-10.4,10.5s4.7,10.4,10.5,10.4
					c4.2,0,8-2.6,9.6-6.5L193.6,141.1z"/>
				<path class="st14" d="M163.3,181.7c-5.5,7.1-21.9-6.9-31.1,2.2c-8.7-9.1-25.4,4.8-30.9-1.9l-0.5,0.2
					c10.9,35.8,50.7,37.5,62.9-0.4L163.3,181.7z"/>
				<path class="st15" d="M114.1,188.7c-0.6,0-1.1,0.5-1,1.1c0,0.2,0.1,0.4,0.2,0.5c4.3,6.6,12.3,10,19.5,10
					c7.6,0,16.3-5.6,18.8-10.1c0.3-0.5,0-1.2-0.5-1.5c-0.2-0.1-0.3-0.1-0.5-0.1L114.1,188.7z"/>
			</g>
		</g>
	</g>
</g>
<g id="Camada_2" class="st16">
	<g class="st17">
		<g>
			<path class="st18" d="M261,1v328H1V1H261 M262,0H0v330h262V0L262,0z"/>
		</g>
		<line class="st19" x1="1.4" y1="139.5" x2="261.1" y2="139.5"/>
		<line class="st19" x1="0.8" y1="201.8" x2="261.1" y2="201.8"/>
		<line class="st19" x1="261.4" y1="242.8" x2="1.1" y2="242.8"/>
		<ellipse class="st19" cx="131" cy="161.8" rx="84.3" ry="80.6"/>
		<ellipse class="st19" cx="83.8" cy="139.5" rx="12.5" ry="12.5"/>
		<ellipse class="st19" cx="179.7" cy="139.5" rx="12.5" ry="12.5"/>
		<ellipse class="st19" cx="131" cy="198.7" rx="131" ry="131.3"/>
		<line class="st19" x1="131" y1="329.3" x2="131" y2="1.1"/>
	</g>
</g>
</svg>
