<?xml version="1.0" encoding="utf-8"?>
<!-- Generator: Adobe Illustrator 24.0.1, SVG Export Plug-In . SVG Version: 6.00 Build 0)  -->
<svg version="1.1" xmlns="http://www.w3.org/2000/svg" xmlns:xlink="http://www.w3.org/1999/xlink" x="0px" y="0px"
	 viewBox="0 0 262 330" style="enable-background:new 0 0 262 330;" xml:space="preserve">
<style type="text/css">
	.st0{clip-path:url(#SVGID_2_);fill:#EF6100;}
	
		.st1{clip-path:url(#SVGID_2_);fill:none;stroke:#012442;stroke-width:48;stroke-linecap:round;stroke-linejoin:round;stroke-miterlimit:10;}
	
		.st2{clip-path:url(#SVGID_2_);fill:none;stroke:#FFBB71;stroke-width:30;stroke-linecap:round;stroke-linejoin:round;stroke-miterlimit:10;}
	.st3{clip-path:url(#SVGID_2_);fill:#FFBB71;}
	.st4{clip-path:url(#SVGID_2_);fill:#299EED;}
	.st5{clip-path:url(#SVGID_2_);}
	.st6{fill:#299EED;}
	.st7{fill:none;stroke:#012442;stroke-width:8;stroke-linecap:round;stroke-miterlimit:10;}
	.st8{fill:#012442;}
	.st9{clip-path:url(#SVGID_2_);fill:none;stroke:#012442;stroke-width:8;stroke-linecap:round;stroke-miterlimit:10;}
	.st10{fill:#FFBB71;}
	.st11{clip-path:url(#SVGID_2_);fill:#ED8472;}
	
		.st12{clip-path:url(#SVGID_2_);fill:none;stroke:#012442;stroke-width:7;stroke-linecap:round;stroke-linejoin:round;stroke-miterlimit:10;}
	.st13{clip-path:url(#SVGID_2_);fill:#012442;}
	.st14{fill:#E05C5C;}
	.st15{fill:#FFFFFF;}
	.st16{clip-path:url(#SVGID_2_);fill:#FFBF1F;}
	.st17{clip-path:url(#SVGID_2_);fill:#FCE960;}
	.st18{display:none;}
	.st19{display:inline;opacity:0.33;fill:none;stroke:#000000;stroke-miterlimit:10;enable-background:new    ;}
	.st20{display:inline;}
	.st21{fill:#2BB2FC;}
	.st22{fill:none;stroke:#2BB2FC;stroke-miterlimit:10;}
</style>
<g id="Camada_1">
	<g id="Camada_7">
	</g>
	<g id="Camada_8">
		<g>
			<g>
				<defs>
					<path id="SVGID_1_" d="M282.4-0.3H-20.9v194h20.1v4.9h0.2c0,0.2,0,0.4,0,0.5c0,72.4,58.7,131,131.1,131
						c72.4,0,131.1-58.7,131.1-131c0-0.2,0-0.4,0-0.5h0.1v-4.9h20.8L282.4-0.3L282.4-0.3z"/>
				</defs>
				<clipPath id="SVGID_2_">
					<use xlink:href="#SVGID_1_"  style="overflow:visible;"/>
				</clipPath>
				<circle class="st0" cx="131.5" cy="198.6" r="131"/>
				<path class="st1" d="M189.4,252.7c0,0,26.9,22.6,41.2,85.1"/>
				<path class="st2" d="M189.4,252.7c0,0,26.9,22.6,41.2,85.1"/>
				<path class="st1" d="M72.6,252.7c0,0-26.9,22.6-41.2,85.1"/>
				<path class="st2" d="M72.6,252.7c0,0-26.9,22.6-41.2,85.1"/>
				<path class="st3" d="M164.8,233.2l-1-5.9h-67l-1,5.9c-0.3,1.6-0.4,3.2-0.4,4.7c0,17.4,15.6,31.6,34.8,31.6s34.8-14.2,34.8-31.6
					C165.1,236.4,165,234.8,164.8,233.2z"/>
				<path class="st4" d="M172.5,244.6c-4.7,2.8-9.6,5.1-14.6,7.2c0,0.3,0,0.7,0,1c0,13.6-12.5,24.6-27.9,24.6
					c-14.2,0-26-9.5-27.6-21.6c-6-2.5-11.4-6.3-15.8-11.8C52.4,278.2,54.2,371,54.2,371l156.9-0.9
					C211.1,370.2,212.6,285.3,172.5,244.6z"/>
				<g class="st5">
					<g>
						<path class="st6" d="M182,292.6l48.4-24.6c-0.3-0.7-22.5-47-56.5-41.1l-7,1.1c-10.8,4.4-9.6,19.3-5.3,30.1L182,292.6z"/>
					</g>
				</g>
				<g class="st5">
					<path class="st7" d="M202.1,284l30.2-14c-0.3-0.7-25.6-54.2-62.5-42"/>
				</g>
				<g class="st5">
					<g>
						<path class="st6" d="M80.1,292.6L31.7,268c0.3-0.7,22.5-47,56.5-41.1l7,1.1c10.8,4.4,9.6,19.3,5.3,30.1L80.1,292.6z"/>
					</g>
				</g>
				<g class="st5">
					<path class="st7" d="M63.9,284.9L29.7,270c0.3-0.7,25.6-54.2,62.5-42"/>
				</g>
				<g class="st5">
					<path class="st8" d="M157.7,237.1c0.2,1.3,0.3,2.7,0.3,4.1c0,15.4-12.5,27.8-27.9,27.8s-27.8-12.5-27.8-27.8
						c0-1.4,0.1-2.7,0.3-4.1H157.7 M164.6,229.1h-6.9h-55.1h-6.9l-1,6.8c-0.2,1.7-0.4,3.5-0.4,5.2c0,19.8,16.1,35.8,35.8,35.8
						S166,261,166,241.2c0-1.7-0.1-3.5-0.4-5.2L164.6,229.1L164.6,229.1z"/>
				</g>
				<path class="st9" d="M193.6,265.5c0,0,13,39.5,14.6,95.2"/>
				<path class="st9" d="M70.1,265.5c0,0-13,39.5-14.6,95.2"/>
				<g class="st5">
					<path class="st10" d="M176.5,165.1c0,8.6-5,15.8,3.3,16.8c0.7,0.1,30.3,0,31,0c9.4,0,16.9-7.6,16.9-17c0-9.4-7.6-16.9-17-16.9
						c-0.8,0-24.6,0.1-25.3,0.2C177.1,149.4,176.5,156.5,176.5,165.1z"/>
				</g>
				<g class="st5">
					<path class="st10" d="M211.2,173.9c0.1,41-36.4,70.8-81.5,70.9l0,0c-45.1,0.2-77.8-29.4-78-70.4l-0.3-43
						c-0.1-15.1,4.2-25.7,12.1-37.1c19.3-27.9,70-25.7,75-25.3c20.4,1.3,45.1,7.5,57.8,25.2c7.5,10.4,15.2,21.5,15.2,40.8
						L211.2,173.9z"/>
				</g>
				<g class="st5">
					<path class="st8" d="M131.3,68.8c28.1,0,56.1,9.9,69.1,31.8c9.4,15.7,9.7,47.4,9.7,47.4c0.4,0,2.6,0,2.7,0c0,0,0,0,0.1,0
						c9.3,0,12.9,7.6,13,16.9c0,9.4-7.5,17-16.9,17c-0.1,0-0.5,0-1.1,0c-4.2,36.4-35.1,62-76.9,62.1c-0.1,0-0.2,0-0.4,0
						c-42.1,0-73.3-25.9-77.2-62.8c-1.4,0-2.3,0-2.4,0c0,0,0,0-0.1,0c-9.1,0-16.6-7.4-16.6-16.6c0-9.2,7.4-16.6,16.5-16.7
						c0.1,0,0.8,0,1.9,0l-0.1-7.3c0-4.5-0.3-29.3,7.1-41.1C72,79.8,101.7,68.8,131.3,68.8 M131.3,60.8L131.3,60.8
						c-34.5,0-65.3,13.6-78.5,34.6c-5.5,8.9-8.3,23.9-8.3,44.8v0.5v0.1v0c-4.2,1.1-8.1,3.3-11.2,6.5c-4.6,4.7-7.2,10.9-7.2,17.4
						c0,12,8.7,22,20.1,24.1c7.2,37.6,40.9,63.2,84.1,63.2h0.4c22.3-0.1,42.2-6.7,57.6-19.3c13.6-11.1,22.8-26.4,26.3-43.6
						c4.5-1.1,8.5-3.4,11.9-6.7c4.7-4.7,7.3-11,7.2-17.7c-0.1-13.2-6.1-22.2-16-24.4c-0.7-11-3-31.4-10.5-44
						C193.9,74.1,165.5,60.8,131.3,60.8L131.3,60.8z"/>
				</g>
				<g class="st5">
					<path class="st10" d="M83.1,164.5c0,8.4,5,15.4-3.1,16.5c-0.7,0.1-29.6,0.2-30.4,0.2c-9.2,0-16.6-7.4-16.7-16.6
						c0-9.2,7.4-16.6,16.5-16.7c0.8,0,24.1,0,24.8,0.1C82.4,149.1,83.1,156.1,83.1,164.5z"/>
				</g>
				
					<ellipse transform="matrix(0.9667 -0.2558 0.2558 0.9667 -38.7392 52.8152)" class="st11" cx="183.7" cy="175.3" rx="12.4" ry="11.1"/>
				
					<ellipse transform="matrix(0.2558 -0.9667 0.9667 0.2558 -112.787 204.1658)" class="st11" cx="76.2" cy="175.3" rx="11.1" ry="12.4"/>
				<path class="st12" d="M70.1,126.5c6.9-4,15-5.9,23-5.3"/>
				<path class="st12" d="M187.1,127.5c-6.9-4-15-5.9-23-5.3"/>
				<path class="st13" d="M68.5,141.1l4.2-0.1l-2.4-6.3h11.7c0.2,0,0.4,0,0.6,0c5.8,0,10.4,4.7,10.4,10.5c0,5.8-4.7,10.4-10.5,10.4
					c-4.3,0-8.1-2.7-9.6-6.5L68.5,141.1z"/>
				<path class="st13" d="M192,141.1l-4.2-0.1l2.4-6.3h-11.7c-0.2,0-0.4,0-0.6,0c-5.8,0-10.4,4.7-10.4,10.5
					c0,5.8,4.7,10.4,10.5,10.4c4.4,0,8.1-2.7,9.6-6.5L192,141.1z"/>
				<g class="st5">
					<g>
						<path class="st14" d="M161.6,181.6c-5.5,7.1-21.9-6.9-31.1,2.2c-8.7-9.1-25.4,4.8-30.9-1.9c-0.2,0.1-0.3,0.1-0.5,0.2
							c10.9,35.8,50.7,37.5,62.9-0.4C161.9,181.7,161.8,181.6,161.6,181.6z"/>
					</g>
					<path class="st15" d="M112.5,188.7c-0.9,0-1.4,0.9-0.9,1.7c4.3,6.6,12.3,10,19.5,10c7.6,0,16.3-5.6,18.8-10.1
						c0.4-0.7-0.2-1.6-1-1.6L112.5,188.7z"/>
				</g>
				<path class="st16" d="M129.6,42.1c0-14.3-10.9-25.9-24.4-25.9c-3.9,0-7.6,1-10.9,2.7c-3.8-2.5-8.2-3.9-12.9-3.9
					C67.9,14.9,57,26.5,57,40.9c0,1.1,0.1,2.2,0.2,3.2C55,43.4,52.7,43,50.3,43c-13.5,0-24.4,11.6-24.4,25.9c0,5.1,1.4,9.8,3.8,13.8
					c-12.7,1-19.7,12.2-19.7,25.9c0,5.1,0,9.9,1.5,13.9c5-1,7.1,6.8,2,8c-4.3,1-4.9,33.9-2,37c1.9,2,1.5,1.1-0.8,2.5
					c-10,6.3-5.1,26.4,2.7,32.5c3.5,2.7,1.2,8.1-2.1,8c-4.2,8.1-4.1,22.2,6,24.8c4.2,1.1,3.5,6.7,0.3,7.9c-1.1,4-0.8,8.4,1,12.2
					c2.5,5.5,7.9,9.4,13.9,10.1c6.7-16.3,20-29.7,35.9-37.4c-9.9-12.5-16.4-28.5-16.8-44.4c-10.2,0.4-20.2-7.3-22.4-17.3
					s3.8-16.8,13.2-20.8c6.8,0.5,13.8-2.8,17.7-8.4s4.8-16.2,2-22.5c6.7,1.5,14-2.2,18.6-7.3c4.6-5.1,6.2-12.8,4-19.3
					c6.1,4.5,15.8,2.1,21.6-2.7c5.4-4.5,7.9-12,6.8-19C122.7,63.1,129.6,53.5,129.6,42.1z"/>
				<path class="st17" d="M105.2,16.1c-3.9,0-7.6,1-10.9,2.7c-3.8-2.5-8.2-3.9-12.9-3.9C67.9,14.9,57,26.5,57,40.9
					c0,1.1,0.1,2.1,0.2,3.2C55,43.4,52.7,43,50.3,43c-13.5,0-24.4,11.6-24.4,25.9c0,5.1,1.4,9.8,3.8,13.8
					c-12.7,1-20.7,12.2-20.7,25.9c0,7.5,1,14.2,5.8,19c-0.9-0.3-0.4,3.4-1.7,4.2c-6.8,4.5-10.7,22.8-3.6,32.3c1,1.3,0.9,2.6,0.3,3.7
					c0.6,1.1,0.7,2.4,0,3.8c-2.5,5.1-5.3,10-4.6,15.9c0.7,6.2,6,11.1,9.9,15.7c2.2,2.7-0.5,6.1-2.9,7c-6,7.8-2.1,23.3,7.4,26.4
					c5.1,1.7,2.9,9.6-2.2,8c-0.7,3.7-0.3,7.5,1.3,10.9c2.5,5.5,7.9,9.4,13.9,10.1c2.2-5.5,5.3-10.6,8.9-15.3c-1.9-1-3.8-2.4-5-3.6
					c-1.9-1.9-4.3-5.4-4.7-8.2c-0.2-1.3-0.7-3.5-0.7-5.2c0-1.7,0.2-3.3,0.7-4.8c-5-3.2-8.3-9-8.6-15.3c-0.2-3.5,0.9-6.9,2.8-9.7
					c-1.4-1.1-2.7-2.3-3.8-3.8c-6.2-2.9-10.3-9.3-10.6-16.5c-0.3-6.2,3.2-11.7,8.2-15c-3-3.3-4.9-7.7-5.1-12.4
					c-0.4-7.9,5.5-14.9,12.8-17.3c-0.7-1.9-1.1-3.9-1.2-5.9c-0.1-2.1,0.2-4,0.9-5.9c-2.7-3.2-4.4-7.3-4.6-11.8
					c-0.4-8.2,6-15.4,13.7-17.5c0.9-5,4.2-9.2,8.5-11.9c-1.5-2.7-2.5-5.8-2.7-9c-0.4-9.8,8.7-18.1,18.1-18.1c0.9,0,1.7,0.1,2.6,0.2
					c1.8-2.6,4.4-4.8,7.3-6.2c-0.3-1.3-0.5-2.6-0.6-3.9c-0.4-9.8,8.7-18.1,18.1-18.1c7.6,0,13.7,4.7,16.5,11.1
					c1.6-0.5,3.2-0.7,4.8-0.7c8.8,0,15.6,6.2,17.6,14.2c2-3.8,3.2-8.1,3.2-12.8C129.6,27.8,118.7,16.1,105.2,16.1z"/>
				<path class="st12" d="M130.5,42.4c0.1-18.2-18.4-31.9-35.3-23.2C77.3,7.9,55.6,23.1,58.1,44.4C35.9,37.7,19,64,30.5,83.1
					C9.3,84.3,4.1,125,24.6,128.9c-15.9-3-25.2,33.2-6.9,39.3c-9-3-22.5,25.1,1.3,35.9c-0.5-1.4-25.1,19.1,1.7,34.5
					c-6.8,9.7-0.6,25.9,12.6,27.4c6.7-16.3,20.1-29.7,35.9-37.4c-9.9-12.6-16.4-28.5-16.8-44.4c-18.8,0.6-31.4-24.1-15.1-34.9
					c22.5-7,31.2-12.8,25.7-34.1c13.2,2.5,27.4-12.4,22.6-26.6c12.8,8.1,31.5-6,28.4-21.7C123.6,63.5,130.5,53.8,130.5,42.4z"/>
				<path class="st17" d="M246.3,197.8c3.3-0.6,6.5-4.4,8.2-7.2c4.8-7.8,2.8-19.1-4.5-24.6c5.2-5.9,7.8-15.7,5.7-23.3
					c-1.7-6.1-6-11.4-11.6-14.4c4.9-4.2,8.1-11,8.1-18.7c0-12.8-8.9-23.2-19.8-23.2c-0.4,0-0.8,0-1.2,0.1c0.6-2,0.9-4.2,0.9-6.5
					c0-11.6-8.7-21-19.5-21c-2.7,0-5.3,0.6-7.7,1.7c1.3-7.1-0.2-15.2-4.7-20.3c-4.5-5.2-12.2-7.4-18.8-5.7c0,0,0-0.1,0-0.2
					c0-10.1-8.1-18.3-18-18.3c-6.4,0-12.1,3.5-15.3,8.6c-3.3-2.7-7.7-4.4-12.5-4.4c-10.4,0-18.9,7.8-18.9,17.4
					c0,4.4,1.8,8.4,4.7,11.4c-2.9,3.7-3.8,9-2.3,13.4c2.1,6.1,8.2,10.4,14.7,11.1c-1,6.7,2,13.6,7.4,17.6c5.5,4,13.2,4.6,19.2,1.5
					c0.2,7,3.6,12.9,9.3,17c5.2,3.8,12,5.2,18.3,3.9c-3.1,3.7-4.9,8.4-4.9,13.5c0,12.1,10.4,22,23.2,22c3.9,0,7.5-0.9,10.7-2.5
					c6.2,1,10.6,3.9,11.6,10.1c0.9,5.9-0.6,12.1-4.2,16.9s-9.1,8-15.1,8.8c-1.3,16.5-8.3,30.9-19.3,43.2c16,8.4,29.1,21.1,38.8,36.3
					c4.7-0.8,9.8-3.4,12.2-7.5c2.5-4.1,3.1-9.3,1.6-13.9c-0.8-2.4-2.3-4.7-4.6-5.6c7.9-0.6,14.9-9.2,16.7-16.9
					C256.7,210.4,253,201.8,246.3,197.8z"/>
				<path class="st16" d="M246.3,197.8c3.3-0.6,6.5-4.4,8.2-7.2c4.8-7.8,2.8-19.1-4.5-24.6c5.2-5.9,7.8-15.7,5.7-23.3
					c-1.7-6.1-6-11.4-11.6-14.4c4.9-4.2,8.1-11,8.1-18.7c0-12.8-8.9-23.2-19.8-23.2c-0.4,0-0.8,0-1.2,0.1c0.6-2,0.9-4.2,0.9-6.5
					c0-11.6-8.7-21-19.5-21c-2.7,0-5.3,0.6-7.7,1.7c1.3-7.1-0.2-15.2-4.7-20.3c-4.5-5.2-12.2-7.4-18.8-5.7c0,0,0-0.1,0-0.2
					c0-10.1-8.1-18.3-18-18.3c-6.4,0-12.1,3.5-15.3,8.6c-3.3-2.7-7.7-4.4-12.5-4.4c-8.1,0-15,4.7-17.7,11.3c1.6-0.5,3.2-0.7,4.9-0.7
					c5.9,0,10.9,2.8,14.2,7.1c3.4-3.6,8.3-5.9,13.3-5.9c8.6,0,15.3,6,17.4,13.8c8.4,1.6,14.4,9.1,14.7,17.8c0,0.3,0,0.6,0,0.9
					c1.6-0.6,3.3-0.8,5.1-0.7c1.7,0,3.9,0.5,5.2,0.7c2.7,0.5,6.3,2.8,8.2,4.7c1.9,1.9,4.3,5.4,4.7,8.2c0.2,1.3,0.7,3.5,0.7,5.2
					c0,1.2-0.1,2.3-0.3,3.4c5.2,3.2,8.6,9,8.9,15.5c0.1,2-0.2,4-0.9,5.9c5.2,3.2,8.6,9,8.8,15.5c0.4,7.9-5.5,14.9-12.8,17.3
					c-0.2,3.3-1.4,6.4-3.3,8.9c3.8,0,7.4-0.9,10.5-2.5c6.2,1,10.6,3.9,11.6,10.1c0.9,5.9-0.6,12.1-4.2,16.9s-9.1,8-15.1,8.8
					c-1.3,16.5-8.3,30.9-19.3,43.2c16,8.4,29.1,21.1,38.8,36.3c4.7-0.8,9.8-3.4,12.2-7.5c2.5-4.1,3.1-9.3,1.6-13.9
					c-0.8-2.4-2.3-4.7-4.6-5.6c7.9-0.6,14.9-9.2,16.7-16.9C256.7,210.4,253,201.8,246.3,197.8z"/>
				<path class="st12" d="M247.2,198.1c3.3-0.6,6.5-4.4,8.2-7.2c4.8-7.8,2.8-19.1-4.5-24.6c5.2-5.9,7.8-15.7,5.7-23.3
					c-1.7-6.1-6-11.4-11.6-14.4c4.9-4.2,8.1-11,8.1-18.7c0-12.8-8.9-23.2-19.8-23.2c-0.4,0-0.8,0-1.2,0.1c0.6-2,0.9-4.2,0.9-6.5
					c0-11.6-8.7-21-19.5-21c-2.7,0-5.3,0.6-7.7,1.7c1.3-7.1-0.2-15.2-4.7-20.3c-4.5-5.2-12.2-7.4-18.8-5.7c0,0,0-0.1,0-0.2
					c0-10.1-8.1-18.3-18-18.3c-6.4,0-12.1,3.5-15.3,8.6c-3.3-2.7-7.7-4.4-12.5-4.4c-10.4,0-18.9,7.8-18.9,17.4
					c0,4.4,1.8,8.4,4.7,11.4c-2.9,3.7-3.8,9-2.3,13.4c2.1,6.1,8.2,10.4,14.7,11.1c-1,6.7,2,13.6,7.4,17.6c5.5,4,13.2,4.6,19.2,1.5
					c0.2,7,3.6,12.9,9.3,17c5.2,3.8,12,5.2,18.3,3.9c-3.1,3.7-4.9,8.4-4.9,13.5c0,12.1,10.4,22,23.2,22c3.9,0,7.5-0.9,10.7-2.5
					c6.2,1,10.6,3.9,11.6,10.1c0.9,5.9-0.6,12.1-4.2,16.9s-9.1,8-15.1,8.8c-1.3,16.5-8.3,30.9-19.3,43.2c16,8.4,29.1,21.1,38.8,36.3
					c4.7-0.8,9.8-3.4,12.2-7.5c2.5-4.1,3.1-9.3,1.6-13.9c-0.8-2.4-2.3-4.7-4.6-5.6c7.9-0.6,14.9-9.2,16.7-16.9
					C257.6,210.8,253.9,202.1,247.2,198.1z"/>
			</g>
		</g>
	</g>
	<g id="Camada_3" class="st18">
		<circle class="st19" cx="131.9" cy="197.2" r="131.1"/>
	</g>
</g>
<g id="Camada_2" class="st18">
	<g class="st20">
		<g>
			<path class="st21" d="M261,1v328H1V1H261 M262,0H0v330h262V0L262,0z"/>
		</g>
		<line class="st22" x1="1.4" y1="139.5" x2="261.1" y2="139.5"/>
		<line class="st22" x1="0.8" y1="201.8" x2="261.1" y2="201.8"/>
		<line class="st22" x1="261.4" y1="242.8" x2="1.1" y2="242.8"/>
		<ellipse class="st22" cx="131" cy="161.8" rx="84.3" ry="80.6"/>
		<ellipse class="st22" cx="83.8" cy="139.5" rx="12.5" ry="12.5"/>
		<ellipse class="st22" cx="179.7" cy="139.5" rx="12.5" ry="12.5"/>
		<ellipse class="st22" cx="131" cy="198.7" rx="131" ry="131.3"/>
		<line class="st22" x1="131" y1="329.3" x2="131" y2="1.1"/>
	</g>
</g>
</svg>
