<?xml version="1.0" encoding="utf-8"?>
<!-- Generator: Adobe Illustrator 24.0.1, SVG Export Plug-In . SVG Version: 6.00 Build 0)  -->
<svg version="1.1" id="Camada_1" xmlns="http://www.w3.org/2000/svg" xmlns:xlink="http://www.w3.org/1999/xlink" x="0px" y="0px"
	 viewBox="0 0 262 330" style="enable-background:new 0 0 262 330;" xml:space="preserve">
<style type="text/css">
	.st0{clip-path:url(#SVGID_2_);}
	.st1{fill:#FFBF1F;}
	.st2{fill:none;stroke:#012442;stroke-width:48;stroke-linecap:round;stroke-linejoin:round;}
	.st3{fill:none;stroke:#DD8064;stroke-width:30;stroke-linecap:round;stroke-linejoin:round;}
	.st4{fill:#DD8064;}
	.st5{fill:#83D9FD;}
	.st6{fill:none;stroke:#012442;stroke-width:8;stroke-linecap:round;stroke-miterlimit:10;}
	.st7{fill:#012442;}
	.st8{fill:#F7E9DE;}
	.st9{fill:#FFFFFF;}
	.st10{fill:none;stroke:#012442;stroke-width:8;stroke-linecap:round;stroke-linejoin:round;}
	.st11{fill:#AF543F;}
	.st12{fill:none;stroke:#012442;stroke-width:3;stroke-linecap:round;stroke-linejoin:round;}
	.st13{fill:none;stroke:#FFFFFF;stroke-width:6;stroke-linecap:round;stroke-linejoin:round;}
</style>
<title>4.</title>
<g id="Camada_5">
	<g>
		<g>
			<defs>
				<path id="SVGID_1_" d="M286.1-19.4H-24.1v217.8h23.8c0,0.2,0,0.4,0,0.6c0,72.4,59.7,131.1,132.1,131.1s131-58.7,131-131.1
					c0-0.2,0-0.4,0-0.6h23.3V-9.4L286.1-19.4L286.1-19.4z"/>
			</defs>
			<clipPath id="SVGID_2_">
				<use xlink:href="#SVGID_1_"  style="overflow:visible;"/>
			</clipPath>
			<g class="st0">
				<circle class="st1" cx="131.1" cy="199" r="131.1"/>
				<path class="st2" d="M189.4,238c0,0,26.9,22.6,41.2,85"/>
				<path class="st3" d="M189.4,238c0,0,26.9,22.6,41.2,85"/>
				<path class="st2" d="M72.6,238c0,0-26.9,22.6-41.2,85"/>
				<path class="st3" d="M72.6,238c0,0-26.9,22.6-41.2,85"/>
				<path class="st4" d="M165.6,221.2l-1-5.9h-67l-1,5.9c-0.3,1.6-0.4,3.1-0.4,4.7c0,17.4,15.6,31.6,34.8,31.6s35-14.1,35-31.5
					C166,224.4,165.9,222.8,165.6,221.2z"/>
				<path class="st5" d="M172.5,229.9c-4.7,2.8-9.5,5.1-14.6,7.2c0,0.3,0,0.7,0,1c0,13.6-12.5,24.6-27.9,24.6
					c-14.2,0-26-9.5-27.6-21.6c-6.2-2.5-11.6-6.6-15.8-11.8c-34.2,34.3-32.4,127.2-32.4,127.2l156.8-0.8
					C211,355.6,212.5,270.6,172.5,229.9z"/>
				<path class="st5" d="M181.9,277.9l48.4-24.5c-0.3-0.7-22.5-47-56.5-41.1l-7,1.1c-10.8,4.4-9.6,19.3-5.3,30.1L181.9,277.9z"/>
				<path class="st6" d="M202.1,269.3l30.2-14c-0.3-0.7-25.6-54.2-62.5-42"/>
				<path class="st5" d="M80,277.9l-48.4-24.5c0.3-0.7,22.5-47,56.5-41.1l7,1.1c10.8,4.4,9.6,19.3,5.3,30.1L80,277.9z"/>
				<path class="st6" d="M63.9,270.2l-34.2-14.8c0.3-0.7,25.6-54.2,62.5-42"/>
				<path class="st7" d="M157.7,222.4c0.2,1.3,0.3,2.7,0.3,4.1c0,15.4-12.5,27.8-27.9,27.8s-27.8-12.5-27.8-27.8
					c0-1.4,0.1-2.7,0.3-4.1L157.7,222.4 M164.6,214.4h-69l-1,6.9c-0.3,1.7-0.4,3.5-0.4,5.2c0,19.8,16.1,35.8,35.9,35.8
					s35.8-16,35.8-35.8c0-1.7-0.1-3.5-0.4-5.2L164.6,214.4L164.6,214.4z"/>
				<path class="st6" d="M193.5,250.8c0,0,13,39.5,14.6,95.2"/>
				<path class="st6" d="M70.1,250.8c0,0-13,39.5-14.6,95.2"/>
				<path class="st4" d="M209.1,159.2c0.1,41-34.4,70.7-79.4,70.9l0,0c-45.1,0.2-77.8-29.4-78-70.4l-0.3-43
					c-0.1-15.1,4.2-25.7,12.1-37.1c19.3-27.9,70-25.7,75-25.3c20.4,1.3,45.1,7.5,57.8,25.2c7.5,10.4,12.1,21.5,12.1,40.9
					L209.1,159.2z"/>
				<path class="st7" d="M131.2,54.1c28.1,0,56.1,10,69.1,31.8c9.4,15.7,7.7,47.4,7.7,47.4h0.7c9.4,0.6,16.5,8.7,15.8,18.1
					c-0.6,8.5-7.3,15.2-15.8,15.8h-1.1c-4.2,36.4-35.1,62-76.9,62.1h-0.4c-42.1,0-73.3-25.9-77.2-62.8h-2.4h-0.1
					c-9.2,0-16.6-7.4-16.6-16.6s7.4-16.6,16.6-16.6h2l-0.1-7.3c0-4.5-0.3-29.3,7.1-41.1C72,65.1,101.7,54.1,131.2,54.1 M131.3,46.1
					c-34.5,0-65.3,13.6-78.5,34.6c-5.5,8.8-8.3,23.9-8.3,44.8v0.6C33.6,129,26.1,138.8,26.1,150c0.1,11.8,8.5,21.9,20.1,24.1
					c7.2,37.6,40.8,63.3,84.1,63.3h0.4c22.3-0.1,42.2-6.7,57.6-19.3c13.6-11,22.9-26.4,26.3-43.5c13.4-3.3,21.6-16.9,18.3-30.3
					c-2.1-8.4-8.4-15.2-16.7-17.8c-0.1-11.1-1.3-31.8-9-44.7C193.8,59.4,165.5,46.1,131.3,46.1L131.3,46.1L131.3,46.1z"/>
				<path class="st8" d="M208.9,141.6c5.8,0,10.6,4.7,10.6,10.5s-4.7,10.6-10.5,10.6s-10.6-4.7-10.6-10.5
					C198.4,146.4,203.1,141.7,208.9,141.6L208.9,141.6"/>
				<path class="st4" d="M83,149.8c0,8.4,5,15.4-3.1,16.5c-0.7,0.1-29.6,0.2-30.4,0.2c-9.2,0-16.6-7.4-16.7-16.6s7.4-16.6,16.5-16.7
					c0.8,0,24.1,0,24.8,0.1C82.4,134.4,83,141.4,83,149.8z"/>
				<path class="st4" d="M174.5,150.4c0,8.6-5,15.8,3.3,16.8c0.7,0.1,30.3,0,31,0c9.4-0.7,16.4-8.8,15.7-18.2
					c-0.6-8.5-7.4-15.2-15.9-15.7c-0.8,0-24.6,0.1-25.3,0.2C175,134.7,174.4,141.8,174.5,150.4z"/>
				<path class="st7" d="M72.5,103.3l20.7-3.2c2.6-0.4,5.1,1.4,5.5,4l0.1,0.6c0.4,2.6-1.4,5.1-4,5.5L74,113.4
					c-2.6,0.4-5.1-1.4-5.5-4l-0.1-0.6C68,106.2,69.8,103.7,72.5,103.3z"/>
				<path class="st7" d="M188.7,113.4l-20.7-3.2c-2.6-0.4-4.4-2.9-4-5.5l0.1-0.6c0.4-2.6,2.9-4.4,5.5-4l20.7,3.2
					c2.6,0.4,4.4,2.9,4,5.5l-0.1,0.6C193.8,112,191.3,113.8,188.7,113.4z"/>
				<path class="st9" d="M168,152.9c-24.7,2.9-52.5,2.9-75.3-0.4c0,0,6.9,33.8,37.6,33.8C164.9,186.4,168,152.9,168,152.9z"/>
				<path class="st10" d="M168,152.9c-24.7,2.9-52.5,2.9-75.3-0.4c0,0,6.9,33.8,37.6,33.8C164.9,186.4,168,152.9,168,152.9z"/>
				<g id="olho">
					<path class="st7" d="M91.6,130.8c0,5.8-4.6,10.5-10.4,10.5s-10.5-4.6-10.5-10.4c0-5.8,4.6-10.5,10.4-10.5l0,0
						C86.9,120.4,91.6,125,91.6,130.8z"/>
				</g>
				<g id="olho-2">
					<path class="st7" d="M189.4,130.8c0,5.8-4.6,10.5-10.4,10.5c-5.8,0-10.5-4.6-10.5-10.4c0-5.8,4.6-10.5,10.4-10.5l0,0
						C184.7,120.4,189.3,125,189.4,130.8z"/>
				</g>
				<path class="st11" d="M130.8,204.5c-4.7,0-9.4-0.5-14-1.4c-1.6-0.3-2.7-1.9-2.3-3.5c0.3-1.6,1.9-2.7,3.5-2.3
					c9,1.9,18.3,1.7,27.3-0.5c1.6-0.4,3.2,0.6,3.6,2.3c0.4,1.6-0.6,3.1-2.1,3.6C141.6,203.9,136.2,204.6,130.8,204.5z"/>
				<path class="st12" d="M102.1,167.2c0,0,30.5,5.5,59.2,0"/>
				<circle class="st11" cx="57.4" cy="156.5" r="4.3"/>
				<circle class="st11" cx="76.9" cy="152.2" r="4.3"/>
				<circle class="st11" cx="70.7" cy="165.8" r="4.3"/>
				<circle class="st11" cx="201.9" cy="156.5" r="4.3"/>
				<circle class="st11" cx="182.4" cy="152.2" r="4.3"/>
				<circle class="st11" cx="188.6" cy="165.8" r="4.3"/>
				<path class="st13" d="M184.3,83.7c0.7,0.8,1.5,1.5,2.2,2.3"/>
				<path class="st13" d="M162.4,69.8c4,1.4,7.7,3.2,11.3,5.4"/>
			</g>
		</g>
	</g>
</g>
</svg>
