<?xml version="1.0" encoding="utf-8"?>
<!-- Generator: Adobe Illustrator 24.0.1, SVG Export Plug-In . SVG Version: 6.00 Build 0)  -->
<svg version="1.1" xmlns="http://www.w3.org/2000/svg" xmlns:xlink="http://www.w3.org/1999/xlink" x="0px" y="0px"
	 viewBox="0 0 262 330" style="enable-background:new 0 0 262 330;" xml:space="preserve">
<style type="text/css">
	
		.st0{clip-path:url(#SVGID_2_);fill:none;stroke:#FFFFFF;stroke-width:6;stroke-linecap:round;stroke-linejoin:round;stroke-miterlimit:10;}
	
		.st1{clip-path:url(#SVGID_4_);fill:none;stroke:#FFFFFF;stroke-width:6;stroke-linecap:round;stroke-linejoin:round;stroke-miterlimit:10;}
	.st2{clip-path:url(#SVGID_6_);fill:#FFBF1F;}
	
		.st3{clip-path:url(#SVGID_8_);fill:none;stroke:#012442;stroke-width:48;stroke-linecap:round;stroke-linejoin:round;stroke-miterlimit:10;}
	
		.st4{clip-path:url(#SVGID_10_);fill:none;stroke:#DD8064;stroke-width:30;stroke-linecap:round;stroke-linejoin:round;stroke-miterlimit:10;}
	
		.st5{clip-path:url(#SVGID_12_);fill:none;stroke:#012442;stroke-width:48;stroke-linecap:round;stroke-linejoin:round;stroke-miterlimit:10;}
	
		.st6{clip-path:url(#SVGID_14_);fill:none;stroke:#DD8064;stroke-width:30;stroke-linecap:round;stroke-linejoin:round;stroke-miterlimit:10;}
	.st7{clip-path:url(#SVGID_16_);fill:#DD8064;}
	.st8{clip-path:url(#SVGID_18_);fill:#83D9FD;}
	.st9{clip-path:url(#SVGID_20_);}
	.st10{fill:#83D9FD;}
	.st11{clip-path:url(#SVGID_22_);}
	.st12{fill:none;stroke:#012442;stroke-width:8;stroke-linecap:round;stroke-miterlimit:10;}
	.st13{clip-path:url(#SVGID_24_);}
	.st14{clip-path:url(#SVGID_26_);}
	.st15{clip-path:url(#SVGID_28_);}
	.st16{fill:#012442;}
	.st17{clip-path:url(#SVGID_30_);fill:none;stroke:#012442;stroke-width:8;stroke-linecap:round;stroke-miterlimit:10;}
	.st18{clip-path:url(#SVGID_32_);fill:none;stroke:#012442;stroke-width:8;stroke-linecap:round;stroke-miterlimit:10;}
	.st19{clip-path:url(#SVGID_34_);}
	.st20{fill:#DD8064;}
	.st21{clip-path:url(#SVGID_36_);}
	.st22{clip-path:url(#SVGID_38_);}
	.st23{clip-path:url(#SVGID_40_);}
	.st24{clip-path:url(#SVGID_42_);fill:#FFFFFF;}
	
		.st25{clip-path:url(#SVGID_44_);fill:none;stroke:#012442;stroke-width:6;stroke-linecap:round;stroke-linejoin:round;stroke-miterlimit:10;}
	.st26{clip-path:url(#SVGID_46_);}
	.st27{fill:#AF543F;}
	
		.st28{clip-path:url(#SVGID_48_);fill:none;stroke:#012442;stroke-width:3;stroke-linecap:round;stroke-linejoin:round;stroke-miterlimit:10;}
	.st29{clip-path:url(#SVGID_50_);}
	.st30{clip-path:url(#SVGID_52_);}
	.st31{clip-path:url(#SVGID_54_);fill:#2F61DD;}
	.st32{clip-path:url(#SVGID_56_);}
	.st33{fill:#2DB5F9;}
	
		.st34{clip-path:url(#SVGID_58_);fill:none;stroke:#012442;stroke-width:8;stroke-linecap:round;stroke-linejoin:round;stroke-miterlimit:10;}
	.st35{clip-path:url(#SVGID_60_);fill:none;stroke:#012442;stroke-width:8;stroke-miterlimit:10;}
	.st36{clip-path:url(#SVGID_62_);}
	.st37{fill:none;stroke:#012442;stroke-width:4;stroke-linecap:round;stroke-linejoin:round;stroke-miterlimit:10;}
	.st38{clip-path:url(#SVGID_64_);}
	.st39{fill:#FFFFFF;}
	.st40{clip-path:url(#SVGID_66_);}
	.st41{clip-path:url(#SVGID_68_);}
	.st42{clip-path:url(#SVGID_70_);}
	.st43{clip-path:url(#SVGID_72_);}
	.st44{display:none;}
	.st45{display:inline;fill:#FFFFFF;}
	.st46{display:inline;opacity:0.33;fill:none;stroke:#000000;stroke-miterlimit:10;enable-background:new    ;}
	.st47{display:inline;}
	.st48{fill:#2BB2FC;}
	.st49{fill:none;stroke:#2BB2FC;stroke-miterlimit:10;}
</style>
<g id="Camada_1">
	<g id="Camada_5">
		<g>
			<g>
				<g>
					<defs>
						<path id="SVGID_1_" d="M285.7-19.4H-24.6v217.8h23.8c0,0.2,0,0.4,0,0.6c0,72.4,59.7,131,132.1,131c72.4,0,131-58.7,131-131.1
							c0-0.2,0-0.4,0-0.6h23.3V-9.4L285.7-19.4z"/>
					</defs>
					<clipPath id="SVGID_2_">
						<use xlink:href="#SVGID_1_"  style="overflow:visible;"/>
					</clipPath>
					<path class="st0" d="M180.9,95.8c2.7,2,8.6,8.4,9.3,15.5"/>
				</g>
				<g>
					<defs>
						<path id="SVGID_3_" d="M285.7-19.4H-24.6v217.8h23.8c0,0.2,0,0.4,0,0.6c0,72.4,59.7,131,132.1,131c72.4,0,131-58.7,131-131.1
							c0-0.2,0-0.4,0-0.6h23.3V-9.4L285.7-19.4z"/>
					</defs>
					<clipPath id="SVGID_4_">
						<use xlink:href="#SVGID_3_"  style="overflow:visible;"/>
					</clipPath>
					<path class="st1" d="M169.8,87.6c1.1,0.7,2.3,1.4,3.4,2.1"/>
				</g>
				<g>
					<defs>
						<path id="SVGID_5_" d="M285.7-19.4H-24.6v217.8h23.8c0,0.2,0,0.4,0,0.6c0,72.4,59.7,131,132.1,131c72.4,0,131-58.7,131-131.1
							c0-0.2,0-0.4,0-0.6h23.3V-9.4L285.7-19.4z"/>
					</defs>
					<clipPath id="SVGID_6_">
						<use xlink:href="#SVGID_5_"  style="overflow:visible;"/>
					</clipPath>
					<circle class="st2" cx="131" cy="199.9" r="131.1"/>
				</g>
				<g>
					<defs>
						<path id="SVGID_7_" d="M285.7-19.4H-24.6v217.8h23.8c0,0.2,0,0.4,0,0.6c0,72.4,59.7,131,132.1,131c72.4,0,131-58.7,131-131.1
							c0-0.2,0-0.4,0-0.6h23.3V-9.4L285.7-19.4z"/>
					</defs>
					<clipPath id="SVGID_8_">
						<use xlink:href="#SVGID_7_"  style="overflow:visible;"/>
					</clipPath>
					<path class="st3" d="M188.9,254c0,0,26.9,22.6,41.2,85"/>
				</g>
				<g>
					<defs>
						<path id="SVGID_9_" d="M285.7-19.4H-24.6v217.8h23.8c0,0.2,0,0.4,0,0.6c0,72.4,59.7,131,132.1,131c72.4,0,131-58.7,131-131.1
							c0-0.2,0-0.4,0-0.6h23.3V-9.4L285.7-19.4z"/>
					</defs>
					<clipPath id="SVGID_10_">
						<use xlink:href="#SVGID_9_"  style="overflow:visible;"/>
					</clipPath>
					<path class="st4" d="M188.9,254c0,0,26.9,22.6,41.2,85"/>
				</g>
				<g>
					<defs>
						<path id="SVGID_11_" d="M285.7-19.4H-24.6v217.8h23.8c0,0.2,0,0.4,0,0.6c0,72.4,59.7,131,132.1,131c72.4,0,131-58.7,131-131.1
							c0-0.2,0-0.4,0-0.6h23.3V-9.4L285.7-19.4z"/>
					</defs>
					<clipPath id="SVGID_12_">
						<use xlink:href="#SVGID_11_"  style="overflow:visible;"/>
					</clipPath>
					<path class="st5" d="M72.1,254c0,0-26.9,22.6-41.2,85"/>
				</g>
				<g>
					<defs>
						<path id="SVGID_13_" d="M285.7-19.4H-24.6v217.8h23.8c0,0.2,0,0.4,0,0.6c0,72.4,59.7,131,132.1,131c72.4,0,131-58.7,131-131.1
							c0-0.2,0-0.4,0-0.6h23.3V-9.4L285.7-19.4z"/>
					</defs>
					<clipPath id="SVGID_14_">
						<use xlink:href="#SVGID_13_"  style="overflow:visible;"/>
					</clipPath>
					<path class="st6" d="M72.1,254c0,0-26.9,22.6-41.2,85"/>
				</g>
				<g>
					<defs>
						<path id="SVGID_15_" d="M285.7-19.4H-24.6v217.8h23.8c0,0.2,0,0.4,0,0.6c0,72.4,59.7,131,132.1,131c72.4,0,131-58.7,131-131.1
							c0-0.2,0-0.4,0-0.6h23.3V-9.4L285.7-19.4z"/>
					</defs>
					<clipPath id="SVGID_16_">
						<use xlink:href="#SVGID_15_"  style="overflow:visible;"/>
					</clipPath>
					<path class="st7" d="M165.2,237.3l-1-5.9h-67l-1,5.9c-0.3,1.6-0.4,3.2-0.4,4.7c0,17.5,15.6,31.6,34.8,31.6s34.8-14.2,34.8-31.6
						C165.6,240.4,165.4,238.8,165.2,237.3z"/>
				</g>
				<g>
					<defs>
						<path id="SVGID_17_" d="M285.7-19.4H-24.6v217.8h23.8c0,0.2,0,0.4,0,0.6c0,72.4,59.7,131,132.1,131c72.4,0,131-58.7,131-131.1
							c0-0.2,0-0.4,0-0.6h23.3V-9.4L285.7-19.4z"/>
					</defs>
					<clipPath id="SVGID_18_">
						<use xlink:href="#SVGID_17_"  style="overflow:visible;"/>
					</clipPath>
					<path class="st8" d="M172,245.9c-4.7,2.8-9.6,5.1-14.6,7.2c0,0.3,0,0.7,0,1c0,13.6-12.5,24.6-27.9,24.6
						c-14.2,0-26-9.5-27.6-21.6c-6-2.5-11.4-6.3-15.8-11.8C52,279.5,53.7,372.4,53.7,372.4l156.9-0.9
						C210.6,371.5,212.1,286.6,172,245.9z"/>
				</g>
				<g>
					<defs>
						<path id="SVGID_19_" d="M285.7-19.4H-24.6v217.8h23.8c0,0.2,0,0.4,0,0.6c0,72.4,59.7,131,132.1,131c72.4,0,131-58.7,131-131.1
							c0-0.2,0-0.4,0-0.6h23.3V-9.4L285.7-19.4z"/>
					</defs>
					<clipPath id="SVGID_20_">
						<use xlink:href="#SVGID_19_"  style="overflow:visible;"/>
					</clipPath>
					<g class="st9">
						<g>
							<path class="st10" d="M181.4,293.9l48.4-24.6c-0.3-0.7-22.5-47-56.5-41.1l-7,1.1c-10.8,4.4-9.6,19.3-5.3,30.1L181.4,293.9z"
								/>
						</g>
					</g>
				</g>
				<g>
					<defs>
						<path id="SVGID_21_" d="M285.7-19.4H-24.6v217.8h23.8c0,0.2,0,0.4,0,0.6c0,72.4,59.7,131,132.1,131c72.4,0,131-58.7,131-131.1
							c0-0.2,0-0.4,0-0.6h23.3V-9.4L285.7-19.4z"/>
					</defs>
					<clipPath id="SVGID_22_">
						<use xlink:href="#SVGID_21_"  style="overflow:visible;"/>
					</clipPath>
					<g class="st11">
						<path class="st12" d="M201.6,285.3l30.2-14c-0.3-0.7-25.6-54.2-62.5-42"/>
					</g>
				</g>
				<g>
					<defs>
						<path id="SVGID_23_" d="M285.7-19.4H-24.6v217.8h23.8c0,0.2,0,0.4,0,0.6c0,72.4,59.7,131,132.1,131c72.4,0,131-58.7,131-131.1
							c0-0.2,0-0.4,0-0.6h23.3V-9.4L285.7-19.4z"/>
					</defs>
					<clipPath id="SVGID_24_">
						<use xlink:href="#SVGID_23_"  style="overflow:visible;"/>
					</clipPath>
					<g class="st13">
						<g>
							<path class="st10" d="M79.6,293.9l-48.4-24.6c0.3-0.7,22.5-47,56.5-41.1l7,1.1c10.8,4.4,9.6,19.3,5.3,30.1L79.6,293.9z"/>
						</g>
					</g>
				</g>
				<g>
					<defs>
						<path id="SVGID_25_" d="M285.7-19.4H-24.6v217.8h23.8c0,0.2,0,0.4,0,0.6c0,72.4,59.7,131,132.1,131c72.4,0,131-58.7,131-131.1
							c0-0.2,0-0.4,0-0.6h23.3V-9.4L285.7-19.4z"/>
					</defs>
					<clipPath id="SVGID_26_">
						<use xlink:href="#SVGID_25_"  style="overflow:visible;"/>
					</clipPath>
					<g class="st14">
						<path class="st12" d="M63.4,286.2l-34.2-14.9c0.3-0.7,25.6-54.2,62.5-42"/>
					</g>
				</g>
				<g>
					<defs>
						<path id="SVGID_27_" d="M285.7-19.4H-24.6v217.8h23.8c0,0.2,0,0.4,0,0.6c0,72.4,59.7,131,132.1,131c72.4,0,131-58.7,131-131.1
							c0-0.2,0-0.4,0-0.6h23.3V-9.4L285.7-19.4z"/>
					</defs>
					<clipPath id="SVGID_28_">
						<use xlink:href="#SVGID_27_"  style="overflow:visible;"/>
					</clipPath>
					<g class="st15">
						<path class="st16" d="M157.2,238.4c0.2,1.3,0.3,2.7,0.3,4.1c0,15.4-12.5,27.9-27.9,27.9s-27.8-12.5-27.8-27.9
							c0-1.4,0.1-2.7,0.3-4.1H157.2 M164.1,230.4h-6.9h-55.1h-6.9l-1,6.8c-0.2,1.7-0.4,3.5-0.4,5.2c0,19.8,16.1,35.9,35.8,35.9
							s35.9-16.1,35.9-35.9c0-1.7-0.1-3.5-0.4-5.2L164.1,230.4L164.1,230.4z"/>
					</g>
				</g>
				<g>
					<defs>
						<path id="SVGID_29_" d="M285.7-19.4H-24.6v217.8h23.8c0,0.2,0,0.4,0,0.6c0,72.4,59.7,131,132.1,131c72.4,0,131-58.7,131-131.1
							c0-0.2,0-0.4,0-0.6h23.3V-9.4L285.7-19.4z"/>
					</defs>
					<clipPath id="SVGID_30_">
						<use xlink:href="#SVGID_29_"  style="overflow:visible;"/>
					</clipPath>
					<path class="st17" d="M193.1,266.8c0,0,13,39.5,14.6,95.2"/>
				</g>
				<g>
					<defs>
						<path id="SVGID_31_" d="M285.7-19.4H-24.6v217.8h23.8c0,0.2,0,0.4,0,0.6c0,72.4,59.7,131,132.1,131c72.4,0,131-58.7,131-131.1
							c0-0.2,0-0.4,0-0.6h23.3V-9.4L285.7-19.4z"/>
					</defs>
					<clipPath id="SVGID_32_">
						<use xlink:href="#SVGID_31_"  style="overflow:visible;"/>
					</clipPath>
					<path class="st18" d="M69.6,266.8c0,0-13,39.5-14.6,95.2"/>
				</g>
				<g>
					<defs>
						<path id="SVGID_33_" d="M285.7-19.4H-24.6v217.8h23.8c0,0.2,0,0.4,0,0.6c0,72.4,59.7,131,132.1,131c72.4,0,131-58.7,131-131.1
							c0-0.2,0-0.4,0-0.6h23.3V-9.4L285.7-19.4z"/>
					</defs>
					<clipPath id="SVGID_34_">
						<use xlink:href="#SVGID_33_"  style="overflow:visible;"/>
					</clipPath>
					<g class="st19">
						<path class="st20" d="M208.7,175.3c0.1,41-34.4,70.8-79.5,70.9l0,0c-45.1,0.2-77.8-29.4-78-70.4l-0.3-43
							c-0.1-15.1,4.2-25.7,12.1-37.1c19.3-27.9,70-25.7,75-25.3c20.4,1.3,45.1,7.5,57.8,25.2c7.5,10.4,12.2,21.5,12.2,40.9
							L208.7,175.3z"/>
					</g>
				</g>
				<g>
					<defs>
						<path id="SVGID_35_" d="M285.7-19.4H-24.6v217.8h23.8c0,0.2,0,0.4,0,0.6c0,72.4,59.7,131,132.1,131c72.4,0,131-58.7,131-131.1
							c0-0.2,0-0.4,0-0.6h23.3V-9.4L285.7-19.4z"/>
					</defs>
					<clipPath id="SVGID_36_">
						<use xlink:href="#SVGID_35_"  style="overflow:visible;"/>
					</clipPath>
					<g class="st21">
						<path class="st16" d="M130.8,70.1c28.1,0,56.1,9.9,69.1,31.8c9.4,15.7,7.7,47.4,7.7,47.4c0.4,0,0.6,0,0.7,0c0,0,0,0,0.1,0
							c9.4,0,16.9,7.6,17,16.9c0,9.4-7.5,17-16.9,17c-0.1,0-0.5,0-1.1,0c-4.2,36.4-35.1,62-76.9,62.1c-0.1,0-0.2,0-0.4,0
							c-42.1,0-73.3-25.9-77.2-62.8c-1.4,0-2.3,0-2.4,0c0,0,0,0-0.1,0c-9.1,0-16.6-7.4-16.6-16.6c0-9.2,7.4-16.6,16.5-16.7
							c0.1,0,0.8,0,1.9,0L52,142c0-4.5-0.3-29.3,7.1-41.1C71.5,81.2,101.2,70.1,130.8,70.1 M130.8,62.1c-34.5,0-65.3,13.6-78.5,34.6
							c-5.5,8.9-8.3,23.9-8.3,44.8v0.5v0.1v0c-4.2,1.1-8.1,3.3-11.2,6.5c-4.6,4.7-7.2,10.9-7.2,17.4c0,12,8.7,22,20.1,24.1
							c7.2,37.6,40.9,63.2,84.1,63.2h0.4c22.3-0.1,42.2-6.7,57.6-19.3c13.6-11.1,22.8-26.4,26.3-43.5c4.4-1.1,8.5-3.4,11.9-6.7
							c4.7-4.7,7.3-11,7.2-17.7c0-11.1-7.4-20.6-17.6-23.7c-0.1-11.1-1.3-31.7-9-44.7C193.4,75.5,165,62.1,130.8,62.1L130.8,62.1
							L130.8,62.1L130.8,62.1z"/>
					</g>
				</g>
				<g>
					<defs>
						<path id="SVGID_37_" d="M285.7-19.4H-24.6v217.8h23.8c0,0.2,0,0.4,0,0.6c0,72.4,59.7,131,132.1,131c72.4,0,131-58.7,131-131.1
							c0-0.2,0-0.4,0-0.6h23.3V-9.4L285.7-19.4z"/>
					</defs>
					<clipPath id="SVGID_38_">
						<use xlink:href="#SVGID_37_"  style="overflow:visible;"/>
					</clipPath>
					<g class="st22">
						<path class="st20" d="M82.6,165.8c0,8.4,5,15.4-3.1,16.5c-0.7,0.1-29.6,0.2-30.4,0.2c-9.2,0-16.6-7.4-16.7-16.6
							c0-9.2,7.4-16.6,16.5-16.7c0.8,0,24.1,0,24.8,0.1C81.9,150.4,82.6,157.4,82.6,165.8z"/>
					</g>
				</g>
				<g>
					<defs>
						<path id="SVGID_39_" d="M285.7-19.4H-24.6v217.8h23.8c0,0.2,0,0.4,0,0.6c0,72.4,59.7,131,132.1,131c72.4,0,131-58.7,131-131.1
							c0-0.2,0-0.4,0-0.6h23.3V-9.4L285.7-19.4z"/>
					</defs>
					<clipPath id="SVGID_40_">
						<use xlink:href="#SVGID_39_"  style="overflow:visible;"/>
					</clipPath>
					<g class="st23">
						<path class="st20" d="M174,166.4c0,8.6-5,15.8,3.3,16.8c0.7,0.1,30.3,0,31,0c9.4,0,16.9-7.6,16.9-17c0-9.4-7.6-16.9-17-16.9
							c-0.8,0-24.6,0.1-25.3,0.2C174.6,150.7,174,157.8,174,166.4z"/>
					</g>
				</g>
				<g>
					<defs>
						<path id="SVGID_41_" d="M285.7-19.4H-24.6v217.8h23.8c0,0.2,0,0.4,0,0.6c0,72.4,59.7,131,132.1,131c72.4,0,131-58.7,131-131.1
							c0-0.2,0-0.4,0-0.6h23.3V-9.4L285.7-19.4z"/>
					</defs>
					<clipPath id="SVGID_42_">
						<use xlink:href="#SVGID_41_"  style="overflow:visible;"/>
					</clipPath>
					<path class="st24" d="M167.6,178.9c-24.7,2.9-52.5,2.9-75.3-0.4c0,0,6.9,33.8,37.6,33.8C164.5,212.4,167.6,178.9,167.6,178.9z"
						/>
				</g>
				<g>
					<defs>
						<path id="SVGID_43_" d="M285.7-19.4H-24.6v217.8h23.8c0,0.2,0,0.4,0,0.6c0,72.4,59.7,131,132.1,131c72.4,0,131-58.7,131-131.1
							c0-0.2,0-0.4,0-0.6h23.3V-9.4L285.7-19.4z"/>
					</defs>
					<clipPath id="SVGID_44_">
						<use xlink:href="#SVGID_43_"  style="overflow:visible;"/>
					</clipPath>
					<path class="st25" d="M167.6,178.9c-24.7,2.9-52.5,2.9-75.3-0.4c0,0,6.9,33.8,37.6,33.8C164.5,212.4,167.6,178.9,167.6,178.9z"
						/>
				</g>
				<g>
					<defs>
						<path id="SVGID_45_" d="M285.7-19.4H-24.6v217.8h23.8c0,0.2,0,0.4,0,0.6c0,72.4,59.7,131,132.1,131c72.4,0,131-58.7,131-131.1
							c0-0.2,0-0.4,0-0.6h23.3V-9.4L285.7-19.4z"/>
					</defs>
					<clipPath id="SVGID_46_">
						<use xlink:href="#SVGID_45_"  style="overflow:visible;"/>
					</clipPath>
					<g class="st26">
						<path class="st27" d="M130.3,230.6c-4.6,0-9.4-0.5-14-1.4c-1.6-0.3-2.7-1.9-2.3-3.5c0.3-1.6,1.9-2.7,3.5-2.3
							c9.2,1.9,18.7,1.7,27.3-0.5c1.6-0.4,3.2,0.6,3.6,2.2s-0.6,3.2-2.2,3.6C141.2,229.9,135.8,230.6,130.3,230.6z"/>
					</g>
				</g>
				<g>
					<defs>
						<path id="SVGID_47_" d="M285.7-19.4H-24.6v217.8h23.8c0,0.2,0,0.4,0,0.6c0,72.4,59.7,131,132.1,131c72.4,0,131-58.7,131-131.1
							c0-0.2,0-0.4,0-0.6h23.3V-9.4L285.7-19.4z"/>
					</defs>
					<clipPath id="SVGID_48_">
						<use xlink:href="#SVGID_47_"  style="overflow:visible;"/>
					</clipPath>
					<path class="st28" d="M101.6,193.3c0,0,30.5,5.5,59.2,0"/>
				</g>
				<g>
					<defs>
						<path id="SVGID_49_" d="M285.7-19.4H-24.6v217.8h23.8c0,0.2,0,0.4,0,0.6c0,72.4,59.7,131,132.1,131c72.4,0,131-58.7,131-131.1
							c0-0.2,0-0.4,0-0.6h23.3V-9.4L285.7-19.4z"/>
					</defs>
					<clipPath id="SVGID_50_">
						<use xlink:href="#SVGID_49_"  style="overflow:visible;"/>
					</clipPath>
					<g class="st29">
						<g>
							<circle class="st27" cx="198.2" cy="182.6" r="4.3"/>
						</g>
						<g>
							<circle class="st27" cx="179" cy="188.2" r="4.3"/>
						</g>
						<g>
							<circle class="st27" cx="191" cy="197.2" r="4.3"/>
						</g>
					</g>
				</g>
				<g>
					<defs>
						<path id="SVGID_51_" d="M285.7-19.4H-24.6v217.8h23.8c0,0.2,0,0.4,0,0.6c0,72.4,59.7,131,132.1,131c72.4,0,131-58.7,131-131.1
							c0-0.2,0-0.4,0-0.6h23.3V-9.4L285.7-19.4z"/>
					</defs>
					<clipPath id="SVGID_52_">
						<use xlink:href="#SVGID_51_"  style="overflow:visible;"/>
					</clipPath>
					<g class="st30">
						<g>
							<circle class="st27" cx="65" cy="185" r="4.3"/>
						</g>
						<g>
							<circle class="st27" cx="84.7" cy="188.9" r="4.3"/>
						</g>
						<g>
							<circle class="st27" cx="73.5" cy="198.9" r="4.3"/>
						</g>
					</g>
				</g>
				<g>
					<defs>
						<path id="SVGID_53_" d="M285.7-19.4H-24.6v217.8h23.8c0,0.2,0,0.4,0,0.6c0,72.4,59.7,131,132.1,131c72.4,0,131-58.7,131-131.1
							c0-0.2,0-0.4,0-0.6h23.3V-9.4L285.7-19.4z"/>
					</defs>
					<clipPath id="SVGID_54_">
						<use xlink:href="#SVGID_53_"  style="overflow:visible;"/>
					</clipPath>
					<path class="st31" d="M114.1,79.8c-1.2,3.6-0.6,7.8,1.7,10.9c1,1.4,2.3,2.6,3.8,3.6c4.9,3.3,11.2,4.4,16.8,2.6
						c5.6-1.8,10.2-6.7,11.4-12.4c4.8,4.4,10.7,7.9,17.1,9.3c6.4,1.4,13.7-0.2,17.9-5.2c9.5,4.1,16,13.6,16.9,24
						c0.5,5.6-3.1,11.2-2.8,16.8c0.2,5.6,2.5,11.4,7,14.8c-0.9,2.6-2.6,4.8-2.7,7.6c-0.1,2.7,0.8,5.6,2.9,7.4
						c2.9,2.4,7.2,2.1,10.7,0.6c3.7-1.6,6.8-4.4,8.8-7.9c2,3.7,4.7,7.3,6.1,11.3c4.3-2.8,7.2-7.6,7.7-12.7s-1.4-10.4-5-13.9
						c6.1-6.9,9.3-17.7,7.5-26.8s-7.8-17.2-16-21.4c3-3.4,2.8-8.8,2.4-13.3c-0.7-7.5-4.7-14.7-10.7-19.3s-14-6.5-21.5-5.2
						c1.5-2.1-1-5.8-2.2-8.1s-3.3-4-5.5-5.4c-4.4-2.8-9.5-4.9-14.6-4.5c-5.2,0.4-10.4,3.6-11.9,8.6c1.8-3.1-1.3-6.9-3.6-9.7
						c-9.1-10.9-24.2-17-38.1-14c-13.9,3-25.6,15.6-26.1,29.8c-2.8-2.7-6.7-2.9-10.6-3.5c-4.2-0.6-8.6-1.2-12.8-0.6
						c-7.1,1-13.7,5.3-17.6,11.4S45.6,68.3,47,75.4c-5.5-1.7-12.7,2-17.8,4.7s-9,7.6-10.6,13.2c-1.1,3.8-1.2,8.1,0.6,11.7
						s5.3,6.4,9.3,6.6c-5.9,6-10.4,14.4-9.4,22.7c1,8.4,5.9,16.2,13,20.6c3.7-3.6,8.5-6.9,13.5-8c0.1,3.9,6.2,6.2,9.9,4.7
						s5.8-5.3,6.9-9.1c2.4-8.4,0.2-18.4-6.8-23.6c6.6-0.6,13.2-6.1,16.9-11.7c3.7-5.6,4.6-12.8,2.5-19.1c6.2-4.1,12.6-7,19.7-9.1
						C101.3,77,107.8,76.8,114.1,79.8z"/>
				</g>
				<g>
					<defs>
						<path id="SVGID_55_" d="M285.7-19.4H-24.6v217.8h23.8c0,0.2,0,0.4,0,0.6c0,72.4,59.7,131,132.1,131c72.4,0,131-58.7,131-131.1
							c0-0.2,0-0.4,0-0.6h23.3V-9.4L285.7-19.4z"/>
					</defs>
					<clipPath id="SVGID_56_">
						<use xlink:href="#SVGID_55_"  style="overflow:visible;"/>
					</clipPath>
					<g class="st32">
						<path class="st33" d="M74.9,101.2c0.2,0.6,0.4,1.2,0.5,1.9c0.2-0.8,0.3-1.7,0.4-2.5C75.6,100.8,75.3,101,74.9,101.2z"/>
						<path class="st33" d="M50.8,67.7c3.9-6.1,10.4-10.4,17.6-11.4c4.2-0.6,8.6,0,12.8,0.6c2.8,0.4,5.7,0.6,8.1,1.8
							c1.2,0.6,2.5-0.2,2.7-1.5c2-12.9,12.9-23.9,25.8-26.7c13.9-3,29,3.1,38.1,14c1.1,1.4,2.5,3,3.3,4.6c0.6,1.2,2.2,1.4,3.1,0.5
							c2.4-2.3,5.7-3.8,9.1-4.1c5.1-0.4,10.1,1.6,14.5,4.4c2.3,1.5,5.2,4.7,6.5,7c0.8,1.4,1.7,3.1,1.8,4.5c0.1,1.1,1.1,1.8,2.2,1.7
							c6.7-0.5,13.5,1.5,18.8,5.5c3.5,2.7,6.3,6.2,8.2,10.1c0.6,1.4,2.7,0.8,2.6-0.7c0,0,0-0.1,0-0.1c-0.7-7.5-4.7-14.7-10.7-19.3
							c-5.3-4.1-12.2-6-18.8-5.5c-1.1,0.1-2.1-0.6-2.2-1.7c-0.1-1.4-1-3.1-1.8-4.5c-1.3-2.4-4.2-5.6-6.5-7
							c-4.3-2.8-9.4-4.8-14.5-4.4c-3.4,0.2-6.7,1.7-9.1,4c-0.9,0.9-2.5,0.7-3.1-0.5c-0.8-1.7-2.2-3.3-3.3-4.6
							c-9.1-10.9-24.2-17-38.1-14C105,23.3,94,34.3,92,47.2c-0.2,1.3-1.6,2-2.7,1.5c-2.4-1.2-5.3-1.4-8.1-1.8
							c-4.2-0.6-8.6-1.2-12.8-0.6c-7.1,1-13.7,5.3-17.6,11.4c-1.7,2.7-2.9,5.6-3.6,8.7c-0.5,2.1,2.4,3.3,3.6,1.4
							C50.8,67.7,50.8,67.7,50.8,67.7z"/>
						<path class="st33" d="M18.5,106.3c1.6-5.6,5.5-10.4,10.6-13.2c4.8-2.6,11.6-6,17-4.9c0.4,0.1,0.7-0.3,0.7-0.7
							c-0.4-2.9-0.5-5.8-0.1-8.7c0-0.3-0.1-0.6-0.4-0.7C40.9,77,34,80.4,29.1,83.1c-5.1,2.8-9,7.6-10.6,13.2c-1,3.3-1.1,6.9,0,10.2
							C18.5,106.4,18.5,106.3,18.5,106.3z"/>
					</g>
				</g>
				<g>
					<defs>
						<path id="SVGID_57_" d="M285.7-19.4H-24.6v217.8h23.8c0,0.2,0,0.4,0,0.6c0,72.4,59.7,131,132.1,131c72.4,0,131-58.7,131-131.1
							c0-0.2,0-0.4,0-0.6h23.3V-9.4L285.7-19.4z"/>
					</defs>
					<clipPath id="SVGID_58_">
						<use xlink:href="#SVGID_57_"  style="overflow:visible;"/>
					</clipPath>
					<path class="st34" d="M114.1,79.8c-1.2,3.6-0.6,7.8,1.7,10.9c1,1.4,2.3,2.6,3.8,3.6c4.9,3.3,11.2,4.4,16.8,2.6
						c5.6-1.8,10.2-6.7,11.4-12.4c4.8,4.4,10.7,7.9,17.1,9.3c6.4,1.4,13.7-0.2,17.9-5.2c9.5,4.1,16,13.6,16.9,24
						c0.5,5.6-3.1,11.2-2.8,16.8c0.2,5.6,2.5,11.4,7,14.8c-0.9,2.6-2.6,4.8-2.7,7.6c-0.1,2.7,0.8,5.6,2.9,7.4
						c2.9,2.4,7.2,2.1,10.7,0.6c3.7-1.6,6.8-4.4,8.8-7.9c2,3.7,4.7,7.3,6.1,11.3c4.3-2.8,7.2-7.6,7.7-12.7s-1.4-10.4-5-13.9
						c6.1-6.9,9.3-17.7,7.5-26.8s-7.8-17.2-16-21.4c3-3.4,2.8-8.8,2.4-13.3c-0.7-7.5-4.7-14.7-10.7-19.3s-14-6.5-21.5-5.2
						c1.5-2.1-1-5.8-2.2-8.1s-3.3-4-5.5-5.4c-4.4-2.8-9.5-4.9-14.6-4.5c-5.2,0.4-10.4,3.6-11.9,8.6c1.8-3.1-1.3-6.9-3.6-9.7
						c-9.1-10.9-24.2-17-38.1-14c-13.9,3-25.6,15.6-26.1,29.8c-2.8-2.7-6.7-2.9-10.6-3.5c-4.2-0.6-8.6-1.2-12.8-0.6
						c-7.1,1-13.7,5.3-17.6,11.4S45.6,68.3,47,75.4c-5.5-1.7-12.7,2-17.8,4.7s-9,7.6-10.6,13.2c-1.1,3.8-1.2,8.1,0.6,11.7
						s5.3,6.4,9.3,6.6c-5.9,6-10.4,14.4-9.4,22.7c1,8.4,5.9,16.2,13,20.6c3.7-3.6,8.5-6.9,13.5-8c0.1,3.9,6.2,6.2,9.9,4.7
						s5.8-5.3,6.9-9.1c2.4-8.4,0.2-18.4-6.8-23.6c6.6-0.6,13.2-6.1,16.9-11.7c3.7-5.6,4.6-12.8,2.5-19.1c6.2-4.1,12.6-7,19.7-9.1
						C101.3,77,107.8,76.8,114.1,79.8z"/>
				</g>
				<g>
					<defs>
						<path id="SVGID_59_" d="M285.7-19.4H-24.6v217.8h23.8c0,0.2,0,0.4,0,0.6c0,72.4,59.7,131,132.1,131c72.4,0,131-58.7,131-131.1
							c0-0.2,0-0.4,0-0.6h23.3V-9.4L285.7-19.4z"/>
					</defs>
					<clipPath id="SVGID_60_">
						<use xlink:href="#SVGID_59_"  style="overflow:visible;"/>
					</clipPath>
					<path class="st35" d="M114.6,148.7c0,0,12.9-13,29.9-1"/>
				</g>
				<g>
					<defs>
						<path id="SVGID_61_" d="M285.7-19.4H-24.6v217.8h23.8c0,0.2,0,0.4,0,0.6c0,72.4,59.7,131,132.1,131c72.4,0,131-58.7,131-131.1
							c0-0.2,0-0.4,0-0.6h23.3V-9.4L285.7-19.4z"/>
					</defs>
					<clipPath id="SVGID_62_">
						<use xlink:href="#SVGID_61_"  style="overflow:visible;"/>
					</clipPath>
					<g class="st36">
						<ellipse class="st33" cx="81.2" cy="147.3" rx="34.4" ry="32"/>
						<ellipse class="st37" cx="81.2" cy="147.3" rx="34.4" ry="32"/>
					</g>
				</g>
				<g>
					<defs>
						<path id="SVGID_63_" d="M285.7-19.4H-24.6v217.8h23.8c0,0.2,0,0.4,0,0.6c0,72.4,59.7,131,132.1,131c72.4,0,131-58.7,131-131.1
							c0-0.2,0-0.4,0-0.6h23.3V-9.4L285.7-19.4z"/>
					</defs>
					<clipPath id="SVGID_64_">
						<use xlink:href="#SVGID_63_"  style="overflow:visible;"/>
					</clipPath>
					<g class="st38">
						<ellipse class="st39" cx="81.2" cy="147.3" rx="22.9" ry="21.4"/>
						<ellipse class="st37" cx="81.2" cy="147.3" rx="22.9" ry="21.4"/>
					</g>
				</g>
				<g>
					<defs>
						<path id="SVGID_65_" d="M285.7-19.4H-24.6v217.8h23.8c0,0.2,0,0.4,0,0.6c0,72.4,59.7,131,132.1,131c72.4,0,131-58.7,131-131.1
							c0-0.2,0-0.4,0-0.6h23.3V-9.4L285.7-19.4z"/>
					</defs>
					<clipPath id="SVGID_66_">
						<use xlink:href="#SVGID_65_"  style="overflow:visible;"/>
					</clipPath>
					<g id="olho_17_" class="st40">
						<g>
							<path class="st16" d="M92.6,147.2c0,5.8-4.6,10.5-10.4,10.5c-5.8,0-10.5-4.6-10.5-10.4c0-5.8,4.6-10.5,10.4-10.5
								C87.9,136.7,92.6,141.4,92.6,147.2z"/>
						</g>
					</g>
				</g>
				<g>
					<defs>
						<path id="SVGID_67_" d="M285.7-19.4H-24.6v217.8h23.8c0,0.2,0,0.4,0,0.6c0,72.4,59.7,131,132.1,131c72.4,0,131-58.7,131-131.1
							c0-0.2,0-0.4,0-0.6h23.3V-9.4L285.7-19.4z"/>
					</defs>
					<clipPath id="SVGID_68_">
						<use xlink:href="#SVGID_67_"  style="overflow:visible;"/>
					</clipPath>
					<g class="st41">
						<ellipse class="st33" cx="177.1" cy="147.3" rx="34.7" ry="32"/>
						<ellipse class="st37" cx="177.1" cy="147.3" rx="34.7" ry="32"/>
					</g>
				</g>
				<g>
					<defs>
						<path id="SVGID_69_" d="M285.7-19.4H-24.6v217.8h23.8c0,0.2,0,0.4,0,0.6c0,72.4,59.7,131,132.1,131c72.4,0,131-58.7,131-131.1
							c0-0.2,0-0.4,0-0.6h23.3V-9.4L285.7-19.4z"/>
					</defs>
					<clipPath id="SVGID_70_">
						<use xlink:href="#SVGID_69_"  style="overflow:visible;"/>
					</clipPath>
					<g class="st42">
						<ellipse class="st39" cx="177.1" cy="147.3" rx="23.1" ry="21.4"/>
						<ellipse class="st37" cx="177.1" cy="147.3" rx="23.1" ry="21.4"/>
					</g>
				</g>
				<g>
					<defs>
						<path id="SVGID_71_" d="M285.7-19.4H-24.6v217.8h23.8c0,0.2,0,0.4,0,0.6c0,72.4,59.7,131,132.1,131c72.4,0,131-58.7,131-131.1
							c0-0.2,0-0.4,0-0.6h23.3V-9.4L285.7-19.4z"/>
					</defs>
					<clipPath id="SVGID_72_">
						<use xlink:href="#SVGID_71_"  style="overflow:visible;"/>
					</clipPath>
					<g id="olho_10_" class="st43">
						<g>
							<path class="st16" d="M186.9,146.8c0,5.8-4.6,10.5-10.4,10.5c-5.8,0-10.5-4.6-10.5-10.4c0-5.8,4.6-10.5,10.4-10.5
								C182.2,136.4,186.9,141,186.9,146.8z"/>
						</g>
					</g>
				</g>
			</g>
		</g>
	</g>
	<g id="Camada_4" class="st44">
		<path class="st45" d="M285.3-9.4H-25v207.8h24.8c0,0.2,0,0.4,0,0.6c0,72.4,58.7,131.1,131.1,131.1c72.4,0,131-58.7,131-131.1
			c0-0.2,0-0.4,0-0.6h23.3L285.3-9.4L285.3-9.4z"/>
	</g>
	<g id="Camada_3" class="st44">
		<circle class="st46" cx="130.9" cy="196.9" r="131.1"/>
		<path class="st45" d="M285.1-9.4H-25.2v207.8h24.9c0,0.2,0,0.4,0,0.6c0,72.4,58.7,131,131.1,131c72.4,0,131-58.7,131-131.1
			c0-0.2,0-0.4,0-0.6h23.3L285.1-9.4L285.1-9.4z"/>
	</g>
</g>
<g id="Camada_2" class="st44">
	<g id="Camada_2_1_" class="st47">
		<g>
			<g>
				<path class="st48" d="M261,1v328H1V1H261 M262,0H0v330h262V0L262,0z"/>
			</g>
			<line class="st49" x1="1.4" y1="139.5" x2="261.1" y2="139.5"/>
			<line class="st49" x1="0.8" y1="201.8" x2="261.1" y2="201.8"/>
			<line class="st49" x1="261.4" y1="242.8" x2="1.1" y2="242.8"/>
			<ellipse class="st49" cx="131" cy="161.8" rx="84.3" ry="80.6"/>
			<ellipse class="st49" cx="83.8" cy="139.5" rx="12.5" ry="12.5"/>
			<ellipse class="st49" cx="179.7" cy="139.5" rx="12.5" ry="12.5"/>
			<ellipse class="st49" cx="131" cy="198.7" rx="131" ry="131.3"/>
			<line class="st49" x1="131" y1="329.3" x2="131" y2="1.1"/>
		</g>
	</g>
</g>
</svg>
