<?xml version="1.0" encoding="utf-8"?>
<!-- Generator: Adobe Illustrator 24.0.1, SVG Export Plug-In . SVG Version: 6.00 Build 0)  -->
<svg version="1.1" id="Camada_1" xmlns="http://www.w3.org/2000/svg" xmlns:xlink="http://www.w3.org/1999/xlink" x="0px" y="0px"
	 viewBox="0 0 262 330" style="enable-background:new 0 0 262 330;" xml:space="preserve">
<style type="text/css">
	.st0{clip-path:url(#SVGID_2_);}
	.st1{fill:#EF6100;}
	.st2{fill:none;stroke:#012442;stroke-width:48;stroke-linecap:round;stroke-linejoin:round;stroke-miterlimit:10;}
	.st3{fill:none;stroke:#FFBB71;stroke-width:30;stroke-linecap:round;stroke-linejoin:round;stroke-miterlimit:10;}
	.st4{fill:#FFBB71;}
	.st5{fill:#83D9FD;}
	.st6{fill:none;stroke:#012442;stroke-width:8;stroke-linecap:round;stroke-miterlimit:10;}
	.st7{fill:#012442;}
	.st8{fill:#F7E9DE;}
	.st9{fill:#FF7C24;stroke:#012442;stroke-width:8;stroke-linecap:round;stroke-linejoin:round;stroke-miterlimit:10;}
	.st10{fill:#FFBF1F;stroke:#042342;stroke-width:8;stroke-linecap:round;stroke-linejoin:round;stroke-miterlimit:10;}
	.st11{fill:#FFBF1F;}
	.st12{fill:#FF7C24;}
	.st13{fill:none;stroke:#012442;stroke-width:8;stroke-linecap:round;stroke-linejoin:round;stroke-miterlimit:10;}
	.st14{fill:none;stroke:#FFFFFF;stroke-width:6;stroke-linecap:round;stroke-linejoin:round;stroke-miterlimit:10;}
	.st15{fill:#2DB5F9;}
	.st16{fill:#FFFFFF;}
	.st17{fill:none;stroke:#042342;stroke-width:4;stroke-linecap:round;stroke-linejoin:round;stroke-miterlimit:10;}
	.st18{fill:none;stroke:#2DB5F9;stroke-width:6;stroke-linecap:round;stroke-linejoin:round;stroke-miterlimit:10;}
	.st19{fill:#012442;stroke:#012442;stroke-width:3;stroke-linecap:round;stroke-linejoin:round;stroke-miterlimit:10;}
	.st20{fill:none;stroke:#012442;stroke-width:6;stroke-linecap:round;stroke-linejoin:round;stroke-miterlimit:10;}
	.st21{fill:#C67552;}
	.st22{fill:#DD2B0E;}
	.st23{fill:none;stroke:#012442;stroke-width:3;stroke-linecap:round;stroke-linejoin:round;stroke-miterlimit:10;}
	.st24{display:none;}
	.st25{display:inline;fill:#FFFFFF;}
	.st26{display:inline;opacity:0.33;fill:none;stroke:#000000;stroke-miterlimit:10;enable-background:new    ;}
</style>
<g id="Camada_5">
	<g>
		<g>
			<g>
				<defs>
					<path id="SVGID_1_" d="M286.1-19.4H-24.1v217.8h23.8c0,0.2,0,0.4,0,0.6c0,72.4,59.7,131,132.1,131c72.4,0,131-58.7,131-131.1
						c0-0.2,0-0.4,0-0.6h23.3V-9.4L286.1-19.4z"/>
				</defs>
				<clipPath id="SVGID_2_">
					<use xlink:href="#SVGID_1_"  style="overflow:visible;"/>
				</clipPath>
				<g class="st0">
					<circle class="st1" cx="130.8" cy="199.3" r="131.1"/>
					<path class="st2" d="M190.4,247c0,0,26.9,22.6,41.2,85"/>
					<path class="st3" d="M190.4,247c0,0,26.9,22.6,41.2,85"/>
					<path class="st2" d="M73.6,247c0,0-26.9,22.6-41.2,85"/>
					<path class="st3" d="M73.6,247c0,0-26.9,22.6-41.2,85"/>
					<path class="st4" d="M166.6,230.3l-1-5.9h-67l-1,5.9c-0.3,1.6-0.4,3.2-0.4,4.7c0,17.5,15.6,31.6,34.8,31.6S167,252.4,167,235
						C167,233.4,166.9,231.8,166.6,230.3z"/>
					<path class="st5" d="M173.5,238.9c-4.7,2.8-9.6,5.1-14.6,7.2c0,0.3,0,0.7,0,1c0,13.6-12.5,24.6-27.9,24.6
						c-14.2,0-26-9.5-27.6-21.6c-6-2.5-11.4-6.3-15.8-11.8c-34.3,34.3-32.5,127.1-32.5,127.1l156.9-0.9
						C212,364.5,213.5,279.6,173.5,238.9z"/>
					<g>
						<g>
							<path class="st5" d="M182.9,286.9l48.4-24.6c-0.3-0.7-22.5-47-56.5-41.1l-7,1.1c-10.8,4.4-9.6,19.3-5.3,30.1L182.9,286.9z"/>
						</g>
					</g>
					<g>
						<path class="st6" d="M203.1,278.3l30.2-14c-0.3-0.7-25.6-54.2-62.5-42"/>
					</g>
					<g>
						<g>
							<path class="st5" d="M81,286.9l-48.4-24.6c0.3-0.7,22.5-47,56.5-41.1l7,1.1c10.8,4.4,9.6,19.3,5.3,30.1L81,286.9z"/>
						</g>
					</g>
					<g>
						<path class="st6" d="M64.9,279.2l-34.2-14.9c0.3-0.7,25.6-54.2,62.5-42"/>
					</g>
					<g>
						<path class="st7" d="M158.7,231.4c0.2,1.3,0.3,2.7,0.3,4.1c0,15.4-12.5,27.9-27.9,27.9s-27.8-12.5-27.8-27.9
							c0-1.4,0.1-2.7,0.3-4.1L158.7,231.4 M165.6,223.4h-6.9h-55.1h-6.9l-1,6.8c-0.2,1.7-0.4,3.5-0.4,5.2
							c0,19.8,16.1,35.9,35.8,35.9s35.9-16.1,35.9-35.9c0-1.7-0.1-3.5-0.4-5.2L165.6,223.4L165.6,223.4z"/>
					</g>
					<path class="st6" d="M194.5,259.8c0,0,13,39.5,14.6,95.2"/>
					<path class="st6" d="M71.1,259.8c0,0-13,39.5-14.6,95.2"/>
					<g>
						<path class="st4" d="M210.1,168.3c0.1,41-34.4,70.8-79.5,70.9l0,0c-45.1,0.2-77.8-29.4-78-70.4l-0.3-49
							c-0.1-15.1,4.2-25.7,12.1-37.1c19.3-27.9,70-25.7,75-25.3c20.4,1.3,45.1,7.5,57.8,25.2c7.5,10.4,12.2,27.5,12.2,46.9
							L210.1,168.3z"/>
					</g>
					<g>
						<path class="st7" d="M130.2,58.1c28.8,0,57.8,10.4,71.1,32.8c9.4,15.7,7.7,51.4,7.7,51.4c0.4,0,0.6,0,0.7,0c0,0,0,0,0.1,0
							c9.4,0,16.9,7.6,17,16.9c0,9.4-7.5,17-16.9,17c-0.1,0-0.5,0-1.1,0c-4.2,36.4-35.1,62-76.9,62.1c-0.1,0-0.2,0-0.4,0
							c-42.1,0-73.3-25.9-77.2-62.8c-1.4,0-2.3,0-2.4,0c0,0,0,0-0.1,0c-9.1,0-16.6-7.4-16.6-16.6c0-9.2,7.4-16.6,16.5-16.7
							c0.1,0,0.8,0,1.9,0l-0.1-7.3c0-4.5-0.3-35.3,7.1-47.1C72.6,68.6,101.3,58.1,130.2,58.1 M130.2,50.1c-15.7,0-31,2.9-44.2,8.3
							c-14.4,5.9-25.6,14.7-32.3,25.3c-5.6,8.9-8.3,26-8.3,50.8v0.5v0.1v0c-4.2,1.1-8.1,3.3-11.2,6.5c-4.6,4.7-7.2,10.9-7.2,17.4
							c0,12,8.7,22,20.1,24.1c7.2,37.6,40.9,63.2,84.1,63.2h0.4c22.3-0.1,42.2-6.7,57.6-19.3c13.6-11.1,22.8-26.4,26.3-43.5
							c4.4-1.1,8.5-3.4,11.9-6.7c4.7-4.7,7.3-11,7.2-17.7c0-11.1-7.4-20.6-17.6-23.7c0-12-1.1-35.5-9-48.7
							c-7.1-12-18.7-21.7-33.5-28C161.5,53.1,146.1,50.1,130.2,50.1L130.2,50.1z"/>
					</g>
					<g>
						<g>
							<path class="st8" d="M209.9,150.6c5.8,0,10.6,4.7,10.6,10.5s-4.7,10.6-10.5,10.6c-5.8,0-10.6-4.7-10.6-10.5
								C199.4,155.4,204.1,150.7,209.9,150.6"/>
						</g>
					</g>
					<g>
						<path class="st4" d="M84,158.8c0,8.4,5,15.4-3.1,16.5c-0.7,0.1-29.6,0.2-30.4,0.2c-9.2,0-16.6-7.4-16.7-16.6
							c0-9.2,7.4-16.6,16.5-16.7c0.8,0,24.1,0,24.8,0.1C83.4,143.4,84,150.4,84,158.8z"/>
					</g>
					<g>
						<path class="st4" d="M175.5,159.4c0,8.6-5,15.8,3.3,16.8c0.7,0.1,30.3,0,31,0c9.4,0,16.9-7.6,16.9-17c0-9.4-7.6-16.9-17-16.9
							c-0.8,0-24.6,0.1-25.3,0.2C176,143.7,175.4,150.8,175.5,159.4z"/>
					</g>
					<path class="st9" d="M174.6,80.9C172,71.4,164,62.5,156,56.7c-39.1-28.2-54,19.5-38.6,17.2C134.4,71.4,160.1,74,174.6,80.9z"/>
					<path class="st10" d="M210.2,118c1.3,7.9,2.5,16,3,24c23.5,6.3,17.7,34.5-2.7,36.7c0.4,13.7-2.9,28.2-16.1,38.3
						c7.3,3.7,20,6.1,30.4,5.2c-0.9-8.8-3.4-13.3-1.4-23.2c4.4,3.8,13.8,9.1,27,6.8c-7.6-18.5-13-30.3-12.9-37.1
						c-0.3,0.3,6.4,2.7,18.2-1.5c-7-5.6-13.8-36.3-12.2-47.4"/>
					<path class="st10" d="M49.9,120c-1.3,7.9-2.5,16-3,24c-23.5,6.3-17.7,34.5,2.7,36.7c-0.4,13.7,2.9,28.2,16.2,38.3
						c-7.3,3.7-20,6.1-30.4,5.2c0.9-8.8,3.4-13.3,1.4-23.2c-4.4,3.8-13.8,9.1-27,6.8c9.3-15.3,13-30.3,12.9-37.1
						c0.3,0.3-9.9,2.6-18.2-1.5c7-5.6,10.5-36.4,12.2-47.4"/>
					<path class="st11" d="M182.7,102.4c7.6,17,26.9,19.6,43.6,18.6c8.1-0.5,16.5-1.8,24.6-3.9c-12.4-24.3-22.8-49-28.2-59.4
						c-28.8-55-95.7-63.3-125.2-40.1C88.1,25,83.4,35,81.4,46.8C54.7,18.6,7.5,76,12.1,134.9l15.4-18.7c-1.1,13.9-0.1,22,3,35.7
						c0.4-1.7,2.4-2.9,4.1-3.6c4.6-1.9,9.5-3.1,14.5-3.5C82.3,124,72.1,58.9,115.8,74c0,0,8.5-42,44.7-13.1
						c10.4,8.3,16.6,23.3,21.6,40.4C182.4,101.7,182.6,102,182.7,102.4z"/>
					<path class="st12" d="M166.4,70.1c6,8.3,9.7,17.7,12.5,27.6c0.2,0.4,0.4,0.8,0.7,1.1c6,9.8,20.2,15.8,31.1,19.4
						c17.5,5.7,42.4-4.8,45.6-3.5c-19.1-2.9-32.7-64.1-55-84.6C194,41,198.1,55.8,195.7,68c-5.2,13.5-15,3.3-18.7-4.3
						c-5.3-7.9-11.3-15.9-18.7-21.7c-25.9-19.6-54.4,2.3-43.2,32c0.4-0.1,0.3,0,0.7-0.1C116.8,60.3,133.7,35.3,166.4,70.1z"/>
					<path class="st12" d="M88.3,67.9c-1.4-5.7-3-9.6-6.2-14.4c-2.5-3.7-6.2-6.4-10.9-9.1c-3.1-1.8-6.6-3.4-10-4.6
						c-2.1,0.4-4.3,1.1-6.4,2c-5.2,4-10.1,8.3-14.5,13.4c-3.5,4-6.4,8.5-7.2,13.5c-0.1,0.9,0,3.9,0.6,5.6c0.7,2.3,2.3,4.8,4.1,6.8
						c0.2,0.3,1.6,1.4,1.6,1.5c0.7,0.5,1.5,0.9,2.3,1.3c0.4,0.2,0.7,0.3,1.1,0.5c0.1,0.1,0.4,0.1,0.7,0.3c1.2,0.4,2.4,0.8,3.6,1.2
						c5,1.6,10.1,2.8,15,4.7c5.8,2.2,11,5.4,14.7,9.8c3.7-9.5,7.5-18,13.3-23.3C89.6,74,89.1,70.9,88.3,67.9z"/>
					<path class="st13" d="M178.4,91.6c12.8,40.9,73.3,25.2,79.1,23c-22.8-12.9-28.4-44.7-34.7-56.8c-28.8-55-95.7-63.3-125.2-40.1
						C88.1,25,83.4,35,81.4,46.8C54.7,18.6,7.5,76,12.1,134.9l15.4-18.7c-1.1,13.9-0.1,22,3,35.7c0.4-1.7,2.4-2.9,4.1-3.6
						c4.6-1.9,9.5-3.1,14.5-3.5C82.3,124,73.1,63.2,115.8,74c0,0,17.7-37.4,45.7-13.1C169.4,67.8,174.4,78.8,178.4,91.6z"/>
					<path class="st14" d="M219.4,86.5c1.3,3.3,2.4,6.7,3.4,10.1"/>
					<path class="st14" d="M204.8,58.2c3.5,5.2,6.6,10.7,9.3,16.3"/>
					<g>
						<path class="st15" d="M44.1,121.7c0,0,32.2-27.2,78.2-5.6c0,0,7,43.3-32.9,48.2C41.9,170.2,44.1,121.7,44.1,121.7z"/>
						<path class="st16" d="M55.2,125.8c0,0,23-17.6,56-4c0,0,5,29.8-23.6,33.3C53.6,159.3,55.2,125.8,55.2,125.8z"/>
						<path class="st17" d="M44.1,121.7c0,0,32.2-27.2,78.2-5.6c0,0,7,43.3-32.9,48.2C41.9,170.2,44.1,121.7,44.1,121.7z"/>
						<path class="st17" d="M55.2,125.8c0,0,23-17.6,56-4c0,0,5,29.8-23.6,33.3C53.6,159.3,55.2,125.8,55.2,125.8z"/>
					</g>
					<g>
						<path class="st15" d="M216.7,121.7c0,0-32.2-27.2-78.2-5.6c0,0-7,43.3,32.9,48.2C218.9,170.2,216.7,121.7,216.7,121.7z"/>
						<path class="st16" d="M205.5,125.8c0,0-23-17.6-56-4c0,0-5,29.8,23.6,33.3C207.1,159.3,205.5,125.8,205.5,125.8z"/>
						<path class="st17" d="M216.7,121.7c0,0-32.2-27.2-78.2-5.6c0,0-7,43.3,32.9,48.2C218.9,170.2,216.7,121.7,216.7,121.7z"/>
						<path class="st17" d="M205.5,125.8c0,0-23-17.6-56-4c0,0-5,29.8,23.6,33.3C207.1,159.3,205.5,125.8,205.5,125.8z"/>
					</g>
					<path class="st13" d="M76.3,135.4c6.6-2.5,15-3.6,20.8,1.3"/>
					<path class="st13" d="M166.6,135.8c6.6-2.5,15-3.6,20.8,1.3"/>
					<g>
						<path class="st7" d="M139,123.2c-0.1-0.2-0.1-0.5-0.2-0.7c-5.9-1.2-12-0.5-17.5,0.4c-0.1,3.8-0.5,7.6-1.5,11.2
							c0.5,0.1,1.1,0.1,1.6-0.1c6.1-1.1,12.5-2,17.8-0.1c0.1,0,0.1,0,0.2,0.1C138.4,130.5,138.2,126.7,139,123.2z"/>
					</g>
					<path class="st18" d="M118.1,129c8.2-2.2,18.6-3.5,26.1,1.3"/>
					<g>
						<g>
							<path class="st19" d="M169,171.9c-24.7,2.9-52.5,2.9-75.3-0.4c0,0,6.9,33.8,37.6,33.8C165.9,205.4,169,171.9,169,171.9z"/>
							<path class="st16" d="M104.7,184.7c0.2,0.1,0.5,0.1,0.7,0.2c0.2,0,0.5,0,0.7,0c15,0.1,30.2,2.4,45.2,1.6
								c4.9-1.2,9.8-2.6,14.8-3.7c2.4-6,2.9-10.8,2.9-10.8c-24.7,3-52.5,3-75.3-0.4c0,0,1.2,6,4.9,12.9
								C100.5,184.1,102.5,184.1,104.7,184.7z"/>
							<path class="st20" d="M169,171.9c-24.7,2.9-52.5,2.9-75.3-0.4c0,0,6.9,33.8,37.6,33.8C165.9,205.4,169,171.9,169,171.9z"/>
							<g>
								<path class="st21" d="M131.8,219.6c-4.6,0-9.4-0.5-14-1.4c-1.6-0.3-2.7-1.9-2.3-3.5c0.3-1.6,1.9-2.7,3.5-2.3
									c9.2,1.9,18.7,1.7,27.3-0.5c1.6-0.4,3.2,0.6,3.6,2.2s-0.6,3.2-2.2,3.6C142.6,218.9,137.2,219.6,131.8,219.6z"/>
							</g>
							<g>
								<g>
									<circle class="st21" cx="199.6" cy="168.4" r="4.3"/>
								</g>
								<g>
									<circle class="st21" cx="180.4" cy="174.1" r="4.3"/>
								</g>
								<g>
									<circle class="st21" cx="192.5" cy="183" r="4.3"/>
								</g>
							</g>
							<g>
								<g>
									<circle class="st21" cx="63.5" cy="171.4" r="4.3"/>
								</g>
								<g>
									<circle class="st21" cx="83.1" cy="175.3" r="4.3"/>
								</g>
								<g>
									<circle class="st21" cx="71.9" cy="185.3" r="4.3"/>
								</g>
							</g>
							<path class="st22" d="M147.9,199c-1.3-2.4-3.8-4.2-6.6-4.7c-2.8-0.5-7.7,0.4-9.8,2.3c-2.3-2.8-4.9-2.4-8.5-2.4
								c-2.4,0.1-7.5,1.8-7.5,3.2c0,3.1,6.8,4.4,9.3,5C132.6,204.1,141,203,147.9,199z"/>
						</g>
						<path class="st23" d="M99.4,184.9c0,0,33.4,5.5,64.8,0"/>
					</g>
				</g>
			</g>
		</g>
	</g>
</g>
<g id="Camada_4" class="st24">
	<path class="st25" d="M285.3,0.3H-25v207.8h24.8c0,0.2,0,0.4,0,0.6c0,72.4,58.7,131,131.1,131c72.4,0,131-58.7,131-131
		c0-0.2,0-0.4,0-0.6h23.3L285.3,0.3L285.3,0.3z"/>
</g>
<g id="Camada_3" class="st24">
	<circle class="st26" cx="130.9" cy="207.5" r="131.1"/>
	<path class="st25" d="M285.1,1.1H-25.2v207.8h24.9c0,0.2,0,0.4,0,0.6c0,72.4,58.7,131.1,131.1,131.1c72.4,0,131-58.7,131-131.1
		c0-0.2,0-0.4,0-0.6h23.3L285.1,1.1L285.1,1.1z"/>
</g>
</svg>
