<svg id="Layer_1" data-name="Layer 1" xmlns="http://www.w3.org/2000/svg" viewBox="0 0 91 68.2"><defs><style>.cls-1{fill:#fff;}.cls-2{fill:#032049;}.cls-3{fill:#F9A928;}</style></defs><title>seta_hover</title><path class="cls-1" d="M65.4,33.8c-.3,12.2-1,15.2-2.6,17.4l-.2.3c-1.5,2.1-3.1,4.4-7,5.1a16.35,16.35,0,0,1-2.2.2,13.12,13.12,0,0,1-7.7-2.5L30.9,43.5a13.12,13.12,0,0,1-5.4-10.6v-.2a13.46,13.46,0,0,1,6.2-10.9l14.8-9.4c3.1-2,7.1-3,10.4-2.2,7.2,1.7,7.4,6.8,7.4,6.8A125.16,125.16,0,0,1,65.4,33.8Z"/><path class="cls-2" d="M61.9,33.8c-.3,11.7-1,14.1-2,15.5-1.5,2.2-2.3,3.6-4.9,4a8.6,8.6,0,0,1-1.6.1,9.65,9.65,0,0,1-5.7-1.8L32.9,40.7a9.62,9.62,0,0,1-4-7.8v-.2a10.13,10.13,0,0,1,4.6-8l14.8-9.4a10.28,10.28,0,0,1,7.6-1.5A7.18,7.18,0,0,1,61,17.5,126.33,126.33,0,0,1,61.9,33.8Z"/><path class="cls-3" d="M57.7,45.9a4.63,4.63,0,0,1-3,1.9,2.2,2.2,0,0,1-.8.1,4.39,4.39,0,0,1-2.7-.9L34.6,34.8A4.74,4.74,0,0,1,32.7,31v-.2A4.89,4.89,0,0,1,34.9,27L51.5,16.6A4.31,4.31,0,0,1,55,16a4.72,4.72,0,0,1,2.9,2.1C59.3,20.3,59.2,43.8,57.7,45.9Z"/></svg>