<svg xmlns="http://www.w3.org/2000/svg" viewBox="0 0 168 624"><defs><style>.cls-1{fill:#009dff;}.cls-2{fill:#09519f;}.cls-3{fill:#f9c236;}.cls-4{fill:#042f70;}.cls-5{fill:#fff;}.cls-6{fill:#fdfeff;}</style></defs><title>apagar_desenho</title><g id="Camada_4" data-name="Camada 4"><path class="cls-1" d="M107.56,135.25c4.6-2.9,9.1-6,13.5-9.1a55.47,55.47,0,0,1-7.5,6.1ZM71.36,20.05c-6.8,5.8-14.7,10.4-22.3,14.8l-3.3,1.9C54.26,31.15,62.76,25.45,71.36,20.05Zm-14.9-.2c-4,3-8.3,5.8-12.5,8.4,2-1.5,4-2.9,6.1-4.2A70.58,70.58,0,0,1,56.46,19.85Zm44.9,12.8c2.3-1.9,4.6-3.7,7-5.4C106.16,29.15,103.76,31,101.36,32.65Zm30.5,75c-1.3,1-2.6,2-4,2.9C129.16,109.55,130.46,108.55,131.86,107.65Zm-28,13.7c-6.7,5.4-13.8,11.2-21.6,15.1A146.73,146.73,0,0,1,103.86,121.35Zm25.3-23c-4.3,3-8.8,5.7-13.4,8.3,4.9-3.6,9.9-7.1,15.1-10.2l4.5-2.7C133.26,95.45,131.16,97,129.16,98.35Zm-64.9,35,10.4-7.4a64,64,0,0,1-10.6,8.2C64.16,134,64.16,133.65,64.26,133.35Zm32.7-31c-4.2,3-8.5,5.9-12.9,8.6-2.3,1.4-4.6,2.7-6.9,4.1,7.6-5.7,15.2-11.3,23.1-16.6,4.3-2.9,8.8-5.6,13.2-8.3-4.3,3.1-8.5,6.3-12.8,9.5Zm60.2-51.2a12.19,12.19,0,0,0-5.9.9l.3-.3c1.5-1.4-.4-2.5-1.6-2.6a11.92,11.92,0,0,0-8.1,2.2l-1.3.9c1.9-1.5,3.8-2.9,5.7-4.4,1.1-.9,1.9-2.5.1-3.1a8.2,8.2,0,0,0-4.4-.1c.5-.5,1.1-1,1.6-1.5,1-.9,2-2.4.1-3.1-2.5-.9-5.7.1-8,1.3-3.3,1.7-6.6,3.5-9.8,5.3a113.25,113.25,0,0,0,10.6-10.2c1.3-1.5-.3-2.5-1.6-2.6a10.45,10.45,0,0,0-2.5,0,104.66,104.66,0,0,0,11.4-10.7c1.3-1.5-.3-2.5-1.6-2.6a11.64,11.64,0,0,0-8.1,2.2,370.48,370.48,0,0,1-33.3,25.4c-2.7,1.7-5.3,3.4-8,5.1C106.06,44,119,34,130,21.85c1.3-1.5-.3-2.5-1.6-2.6a11.56,11.56,0,0,0-3.2.1,15.92,15.92,0,0,0,1.3-2.2c1.2-2.2-4-2-4.8-1.8a8.33,8.33,0,0,0-1.5.4c.6-.6,1.3-1.2,1.9-1.8,1.4-1.4-.4-2.5-1.6-2.6a11.92,11.92,0,0,0-8.1,2.2c-5.6,4-11.1,8-16.7,12-1.5.9-3,1.7-4.5,2.5-9.4,5.3-18.4,11.2-27.6,16.8l-3.1,1.8.3-.2c19.1-12.3,39.2-23.2,56.6-37.7,1.7-1.4,1.4-3.1-.9-3.4a11.78,11.78,0,0,0-8.1,2.2,118.2,118.2,0,0,1-10.4,7c2.3-1.7,4.7-3.4,6.9-5.2,1.8-1.4,1.4-3.1-.9-3.4a12.32,12.32,0,0,0-8.1,2.2l-7.8,5.7a47.63,47.63,0,0,0,5-6.6c1-1.6-.1-2.4-1.7-2.6a12.2,12.2,0,0,0-7,1.5c-2.7,1.4-5.4,2.9-8.1,4.4.3-.4.7-.8,1-1.2,2.9-3.7-6.3-2.1-7.3-1.7a125.77,125.77,0,0,0-27.5,14.2,150.85,150.85,0,0,0-24.4,19.6c-1.5,1.5.1,2.2,1.6,2.5a71,71,0,0,0-9.4,8.8c-1.4,1.5.2,2.5,1.6,2.6a11.46,11.46,0,0,0,7-1.5c.6-.3,1.1-.7,1.7-1a74.85,74.85,0,0,0-9,7.9c-1.4,1.4.4,2.5,1.6,2.6a13.26,13.26,0,0,0,7-1.5c1.1-.5,2.2-1.1,3.3-1.6-4.3,3.7-8.6,7.7-12.6,11.8-1.4,1.4.4,2.5,1.6,2.6a6.69,6.69,0,0,0,2,0c-1.5,1.5-2.9,3.1-4.3,4.7s.3,2.5,1.6,2.6a10.75,10.75,0,0,0,3.1-.1c-1.3.9-2.7,1.8-4,2.8-1.9,1.4-1.3,3.1.9,3.3a11.78,11.78,0,0,0,8.1-2.2l4-2.8c11.9-8,24.7-14.7,37.2-21.7-4.6,3.6-9.3,7.2-14,10.6-4.4,2.3-8.9,4.5-13.4,6.6-7,3.3-16.8,7.1-19.9,14.9-1.1,2.8,5.4,1.7,6.3,1.5a35.74,35.74,0,0,0,6-2.1c-2.6,1.9-5.2,3.9-7.8,5.8-1.2.8-1.9,2.5-.1,3.1,2.5.9,5.8-.1,8-1.3l.1-.1a53.5,53.5,0,0,0-7.4,8.3c-1.1,1.5.1,2.4,1.7,2.6a12.2,12.2,0,0,0,7-1.5c.9-.5,1.9-1,2.8-1.5-2.3,2.1-4.6,4.2-6.9,6.4-1.4,1.4.4,2.5,1.7,2.6a10.75,10.75,0,0,0,5.3-.8,18.32,18.32,0,0,0-4.1,8.8c-.5,2.9,4.9,1.9,6.3,1.5a48.51,48.51,0,0,0,9.2-3.5c-1.8,1.9-3.5,3.9-5.2,6-1.2,1.5.2,2.5,1.7,2.6a11.83,11.83,0,0,0,3.7-.2,10.7,10.7,0,0,0-1.4,1.6c-1.3,1.5.3,2.5,1.7,2.6a11.46,11.46,0,0,0,7-1.5l.5-.3c-1.1,1-2.2,2.1-3.3,3.2-1.4,1.4.4,2.5,1.7,2.6a10.85,10.85,0,0,0,4-.3c.2,0,.5-.1.8-.1l.3,1.2c.7,2.1,4.9,1.2,6.3.8l.7-.2c-1.2,1.5.2,2.4,1.7,2.6a10.45,10.45,0,0,0,2.5,0c-1,1.9,3.8,2.1,4.8,1.9,2.2-.4,4.4-1,6.5-1.6-.6.3-1.2.7-1.8,1-.9.5-3.3,2.1-1.9,3.4s4.3.7,5.9.2,2.9-.8,4.3-1.3c-.8.7-1.3,1.6-.5,2.4,1.8,1.6,5.5.5,7.4-.3,10.6-4.1,21-8.4,30.3-14.4,1.8-.9,3.6-1.9,5.4-2.9,11.1-6.2,22.6-14.7,26.8-27.4.7-2-1.9-2.1-4.5-1.7a45.68,45.68,0,0,0,5.4-6.9c1.1-1.9-.1-2.5-1.9-2.5a30,30,0,0,0,6.2-9.5c.4-1.1-.7-1.6-1.6-1.8a19.22,19.22,0,0,0,1.6-4.2c.6-2.3-3.6-2-4.8-1.8a20.48,20.48,0,0,0-2.4.5c1.6-1.7,3.2-3.4,4.7-5.2,1.2-1.5-.2-2.4-1.6-2.6a6.6,6.6,0,0,0-1.4-.1,35.53,35.53,0,0,0,4.8-6.7c1.3-2.3-3.8-1.8-6.4-1.3,2.9-2,5.7-4.2,8.5-6.5C159.76,53.05,159.56,51.45,157.16,51.15Z"/><path class="cls-2" d="M14.26,77.75c0-15.3,6.1-31.1,16.6-43.2,10.9-12.4,25.3-20,40.6-21.3,1.2-.1,2.4-1,2.3-1.8,0-.3-.2-1-1.8-.8a65.91,65.91,0,0,0-33.7,13c1.5-1.2,3.1-2.4,4.7-3.5A69.86,69.86,0,0,1,82,8.55a71.18,71.18,0,0,1,27.6,5.5c17.3,7.4,30.6,21.9,37.4,41a81.45,81.45,0,0,1,2.4,31.1c-1.9,16.1-8.4,30.2-19,40.7A76.12,76.12,0,0,1,85.56,148a60.86,60.86,0,0,1-12.8.1,61.81,61.81,0,0,1-8.4-2.4C35.76,135.15,14.26,106.05,14.26,77.75ZM38,134.25a61.2,61.2,0,0,1-9.9-9.8A83.34,83.34,0,0,0,38,134.25Zm54.8,14.9c2.8-.6,5.6-1.3,8.3-2.1a81.34,81.34,0,0,0,36.8-23.6,68.13,68.13,0,0,1-26,20.6A57.56,57.56,0,0,1,92.76,149.15Zm24.7-140.5-.8-.5a1.55,1.55,0,0,0-.8-.2c-1.1,0-2.9.7-3.1,1.5a.79.79,0,0,0,.5.9,66.64,66.64,0,0,1,9.3,6.4,73.52,73.52,0,0,0-40.8-10.9c-22.6.5-43.2,10.2-56.5,26.5C13.56,46.55,7.56,66.15,9,86.15c1.3,19.8,10.3,38,24.5,49.7,10.2,8.4,23.1,13.5,37.5,14.6a71.64,71.64,0,0,0,14.6,1.5,69.3,69.3,0,0,0,36.8-10.5,71,71,0,0,0,33.5-52.6,76.38,76.38,0,0,0-4.3-35.3C146.16,34.35,134.06,18.35,117.46,8.65Z"/><path class="cls-3" d="M58.26,80.75h0c0,.1-.1.1-.1.2C58.16,80.85,58.26,80.85,58.26,80.75Z"/><path class="cls-3" d="M129.46,95.85v.2h-.2C129.36,96.05,129.36,96,129.46,95.85Z"/><path class="cls-1" d="M107.59,291.23c4.6-2.9,26-20.8,30.41-23.9-2.3,2.2-21.71,19.1-24.41,20.9Q110.59,289.88,107.59,291.23ZM79,171.33C64.89,182.49,59.6,185.5,52,190L34.67,203C39.15,198.17,70.3,176.73,79,171.33Zm-22.51,4.5a143.67,143.67,0,0,1-12.5,8.4q3-2.25,6-4.2C52.09,178.53,54.29,177.23,56.49,175.83Zm36.7,18.8c2.3-1.9,24.8-21.1,27.1-22.8C112.47,181.9,95.69,192.93,93.19,194.63Zm38.7,69c-1.3,1-2.6,2-4,2.9C129.19,265.53,130.49,264.53,131.89,263.63Zm-18.8,7.2c-6.7,5.4-30.63,23.27-38.43,27.17C81.37,292.3,105.49,275.33,113.09,270.83Zm16.1-16.4c-4.3,3-8.8,5.7-13.4,8.4,4.9-3.6,9.9-7.1,15.1-10.2l4.5-2.7C133.29,251.53,131.19,253,129.19,254.43Zm-64.9,35,10.4-7.4a64,64,0,0,1-10.6,8.2A1.88,1.88,0,0,0,64.29,289.43ZM97,258.33c-4.2,3-8.5,5.9-12.9,8.6-2.3,1.4-4.6,2.7-6.9,4.1,7.6-5.6,15.2-11.3,23.1-16.6,4.3-2.9,8.8-5.6,13.2-8.3-4.3,3.1-8.5,6.3-12.8,9.5Zm60.3-51.1a12.19,12.19,0,0,0-5.9.9l.3-.3c1.5-1.4-.4-2.5-1.6-2.6a11.92,11.92,0,0,0-8.1,2.2l-1.3.9c1.9-1.5,3.8-2.9,5.7-4.4,1.1-.9,1.9-2.4.1-3.1a8.2,8.2,0,0,0-4.4-.1c.5-.5,1.1-1,1.6-1.5,1-.9,2-2.4.1-3.1-2.5-.9-5.7.1-8,1.3-3.3,1.7-6.6,3.5-9.8,5.3a113.25,113.25,0,0,0,10.6-10.2c1.3-1.5-.3-2.5-1.6-2.6a10.44,10.44,0,0,0-2.5,0,104.66,104.66,0,0,0,11.4-10.7c1.3-1.5-.3-2.4-1.6-2.6a11.64,11.64,0,0,0-8.1,2.2,370.47,370.47,0,0,1-33.3,25.4c-2.7,1.7-5.3,3.4-8,5.1,13.3-9.3,29.54-22.54,36.6-29.66,1.3-1.4.3-4.24-1-4.34a11.56,11.56,0,0,0-3.2.1,15.92,15.92,0,0,0,1.3-2.2c1.2-2.2-4-2-4.8-1.8a8.33,8.33,0,0,0-1.5.4c.7-.6,1.3-1.2,1.9-1.8,1.4-1.4-.4-2.5-1.6-2.6-2.7-.3-1.69-.67-4,.93-5.6,4-15.21,9.27-20.81,13.27-1.5.9-5.88,3.35-7.38,4.15-9.4,5.3-15.52,9.55-24.72,15.15l-3.1,1.9.3-.2c19.1-12.3,39.2-23.2,56.6-37.7,1.7-1.5,1.4-3.1-.9-3.4a11.78,11.78,0,0,0-8.1,2.2,118.2,118.2,0,0,1-10.4,7c2.3-1.7,4.7-3.4,6.9-5.2,1.8-1.4,1.4-3.1-.9-3.4a11.78,11.78,0,0,0-8.1,2.2l-7.8,5.7a47.63,47.63,0,0,0,5-6.6c1-1.5-.1-2.4-1.7-2.6a12.2,12.2,0,0,0-7,1.5c-2.7,1.4-5.4,2.9-8.1,4.4.3-.4.7-.8,1-1.2,2.9-3.7-6.3-2.1-7.3-1.7-9.7,3.4-18.9,8.6-27.5,14.2a140.19,140.19,0,0,0-24.5,19.4c-1.5,1.4.1,2.2,1.6,2.5a65.33,65.33,0,0,0-9.4,8.8c-1.3,1.5.3,2.5,1.6,2.6a11.46,11.46,0,0,0,7-1.5c.6-.3,1.1-.7,1.7-1a83.43,83.43,0,0,0-9,7.9c-1.4,1.4.4,2.5,1.7,2.6a13.26,13.26,0,0,0,7-1.5c1.1-.5,2.2-1.1,3.3-1.6-4.3,3.7-8.6,7.7-12.6,11.8-1.4,1.4.4,2.5,1.6,2.6a6.69,6.69,0,0,0,2,0c-1.5,1.5-2.9,3.1-4.3,4.7s.3,2.5,1.6,2.6a10.75,10.75,0,0,0,3.1-.1c-1.3.9-2.7,1.8-4,2.8-1.9,1.4-1.3,3.1.9,3.4a11.78,11.78,0,0,0,8.1-2.2l4-2.8c11.9-8,24.7-14.7,37.2-21.7-4.6,3.6-14.6,8.7-19.4,12.1-4.4,2.3-3.6,3-8.1,5.1-7,3.3-16.8,7.1-19.9,14.9-1.1,2.8-.36,6.16.54,6,2-.5,24-14.9,26-15.7-2.6,1.9-19.44,13.14-22,15-1.2.8-1.9,2.5-.1,3.1,2.5.9,5.8-.1,8-1.3l.1-.1a53.5,53.5,0,0,0-7.4,8.3c-1.1,1.5.1,2.4,1.6,2.6a12.2,12.2,0,0,0,7-1.5c.9-.5,1.9-1,2.8-1.5-2.4,2.1-4.7,4.2-6.9,6.4-1.4,1.4.4,2.5,1.6,2.6a11.32,11.32,0,0,0,5.4-.8,19,19,0,0,0-4.2,8.8c-.5,2.9,4.9,1.9,6.3,1.5,3.2-.8,2.7,2.8,17.3-18-1.8,1.9-11.6,18.4-13.3,20.5-1.2,1.5.2,2.5,1.7,2.6a11.83,11.83,0,0,0,3.7-.2,10.7,10.7,0,0,0-1.4,1.6c-1.3,1.5.3,2.5,1.7,2.6a11.46,11.46,0,0,0,7-1.5l.5-.3c-1.1,1-2.2,2.1-3.3,3.2-1.4,1.4.4,2.5,1.7,2.6a10.85,10.85,0,0,0,4-.3c.2,0,.5-.1.8-.1l.3,1.2c.7,2.1,4.9,1.2,6.3.8l.7-.2c-1.2,1.5.2,2.4,1.7,2.6a10.45,10.45,0,0,0,2.5,0c-1,1.9,3.8,2.1,4.8,1.9,2.2-.4,4.4-1,6.5-1.6-.6.3-1.2.7-1.8,1-.9.5-3.3,2.1-1.9,3.4s4.3.7,5.9.2,2.9-.8,4.3-1.3c-.8.7-1.3,1.6-.5,2.4,1.8,1.6,5.5.5,7.4-.3,10.6-4.1,21-8.5,30.3-14.4,1.8-.9,3.6-1.9,5.4-2.9,11.1-6.2,22.6-14.7,26.8-27.4.7-2-1.9-2.1-4.5-1.7a45.68,45.68,0,0,0,5.4-6.9c1.1-1.9-.1-2.5-1.9-2.5a30,30,0,0,0,6.2-9.5c.4-1.1-.7-1.6-1.6-1.8a19.22,19.22,0,0,0,1.6-4.2c.6-2.3-3.6-2-4.8-1.8a20.48,20.48,0,0,0-2.4.5c1.6-1.7,3.2-3.4,4.7-5.2,1.2-1.5-.2-2.4-1.6-2.6a6.6,6.6,0,0,0-1.4-.1,35.53,35.53,0,0,0,4.8-6.7c1.3-2.3-3.8-1.8-6.4-1.3a102.38,102.38,0,0,0,8.5-6.6C159.79,209.13,159.59,207.53,157.29,207.23Z"/><path class="cls-2" d="M14.29,233.83c0-15.3,6.1-31.1,16.6-43.2,10.9-12.5,25.3-18.1,40.6-19.4,1.2-.1,2.4-3,2.3-3.8,0-.3-.2-1-1.8-.8a65.91,65.91,0,0,0-33.7,13c1.5-1.2,3.1-2.4,4.7-3.5a69.86,69.86,0,0,1,39-11.6,71.18,71.18,0,0,1,27.6,5.5c17.3,7.4,30.6,21.9,37.4,41a81.45,81.45,0,0,1,2.4,31.1c-1.9,16.1-8.4,30.2-19,40.7a76.12,76.12,0,0,1-44.8,21.1,60.86,60.86,0,0,1-12.8.1,61.81,61.81,0,0,1-8.4-2.4C35.79,291.23,14.29,262.13,14.29,233.83ZM38,290.23a61.2,61.2,0,0,1-9.9-9.8A83.34,83.34,0,0,0,38,290.23Zm54.8,15c2.8-.6,5.6-1.3,8.3-2.1a81.34,81.34,0,0,0,36.8-23.6,68.13,68.13,0,0,1-26,20.6A62,62,0,0,1,92.79,305.23Zm24.7-140.6-.8-.5a1.55,1.55,0,0,0-.8-.2c-1.1,0-2.9.7-3.1,1.5a.79.79,0,0,0,.5.9,66.64,66.64,0,0,1,9.3,6.4c-11.8-7.4-26.2-12.3-40.8-11.9-22.6.6-44.2,11.3-57.6,27.6-11.6,14.2-16.6,33.8-15.2,53.7s10.3,38,24.5,49.7c10.2,8.4,23.1,13.5,37.5,14.6a71.64,71.64,0,0,0,14.6,1.5,69.3,69.3,0,0,0,36.8-10.5,71,71,0,0,0,33.5-52.6,76.38,76.38,0,0,0-4.3-35.3A75.58,75.58,0,0,0,117.49,164.63Z"/><path class="cls-3" d="M35.19,215.33h0c-.1,0-.1-.1,0,0C35.09,215.23,35.19,215.23,35.19,215.33Z"/><path class="cls-3" d="M58.39,236.83h0c0,.1-.1.1-.1.2C58.29,236.93,58.29,236.83,58.39,236.83Z"/><path class="cls-3" d="M129.49,251.93v.2h-.2C129.39,252,129.39,251.93,129.49,251.93Z"/><path class="cls-1" d="M107.59,447.21c4.6-2.9,9.1-6,13.5-9.1a55.47,55.47,0,0,1-7.5,6.1Q110.59,445.86,107.59,447.21ZM82.49,324c-6.8,5.8-25.8,18.5-33.4,22.9l-3.3,1.9C54.29,343.21,73.89,329.41,82.49,324Zm-21.3,4.8c-4,3-21.8,16.6-26.1,19.2,2-1.5,12.8-10.7,14.9-12C52.09,334.51,59,330.11,61.19,328.81Zm38.1,17.6c2.3-1.9,13.4-11.9,15.8-13.6C110.89,338.61,101.69,344.71,99.29,346.41Zm32.6,73.2c-1.3,1-2.6,2-4,2.9C129.19,421.51,130.49,420.61,131.89,419.61Zm-18.9,7.2c-6.7,5.4-23,17.8-30.8,21.7A328.47,328.47,0,0,1,113,426.81Zm-48.7,18.6,10.4-7.4a64,64,0,0,1-10.6,8.2A1.88,1.88,0,0,0,64.29,445.41ZM97,414.31c-4.2,3-8.5,5.9-12.9,8.6-2.3,1.4-4.6,2.7-6.9,4.1,7.6-5.6,15.2-11.3,23.1-16.6,4.3-2.9,8.8-5.6,13.2-8.3-4.3,3.1-8.5,6.3-12.8,9.5Zm60.3-51.1a12.19,12.19,0,0,0-5.9.9l.3-.3c1.5-1.4-.4-2.5-1.6-2.6a11.92,11.92,0,0,0-8.1,2.2l-1.3.9c1.9-1.5,3.8-2.9,5.7-4.4,1.1-.9,1.9-2.5.1-3.1a8.2,8.2,0,0,0-4.4-.1c.5-.5,1.1-1,1.6-1.5,1-.9,2-2.4.1-3.1-2.5-.9-5.7.1-8,1.3-3.3,1.7-6.6,3.5-9.8,5.3a113.25,113.25,0,0,0,10.6-10.2c1.3-1.5-.3-2.5-1.6-2.6a10.44,10.44,0,0,0-2.5,0,104.65,104.65,0,0,0,11.4-10.7c1.3-1.5-.3-2.5-1.6-2.6a11.64,11.64,0,0,0-8.1,2.2,370.47,370.47,0,0,1-33.3,25.4c-2.7,1.7-5.3,3.4-8,5.1,13.3-9.3,26.2-19.3,37.2-31.4,1.3-1.5-.3-2.5-1.6-2.6a11.56,11.56,0,0,0-3.2.1,15.92,15.92,0,0,0,1.3-2.2c1.2-2.2-4-2-4.8-1.8a8.33,8.33,0,0,0-1.5.4c.6-.6,1.3-1.2,1.9-1.8,1.4-1.4-.4-2.5-1.6-2.6a11.92,11.92,0,0,0-8.1,2.2c-5.6,4-11.1,8-16.7,12-1.5.9-3.3,2.3-4.8,3.1-9.4,5.3-18.1,10.6-27.3,16.2l-3.1,1.8.3-.2c19.1-12.3,39.2-23.2,56.6-37.7,1.7-1.4,1.4-3-.9-3.4a11.78,11.78,0,0,0-8.1,2.2c-3.3,2.6-2.5.9-6.1,3.1,2.3-1.7.3.5,2.6-1.3,1.8-1.4,1.4-3.1-.9-3.4a11.78,11.78,0,0,0-8.1,2.2c-2.6,1.9-12.8,9.6-15.4,11.4,1.8-2,12.1-9.1,13.6-11.5,1-1.6-1-3.3-2.6-3.5a12.2,12.2,0,0,0-7,1.5c-2.7,1.4-5.4,2.9-8.1,4.4.3-.4.7-.8,1-1.2,2.9-3.7-6.3-2.1-7.3-1.7-9.7,3.4-18.9,8.6-27.5,14.2A152.11,152.11,0,0,0,18,353.61c-1.4,1.5.1,2.2,1.6,2.5a65,65,0,0,0-9.4,8.8c-1.3,1.5.3,2.5,1.6,2.6a12.2,12.2,0,0,0,7-1.5c.6-.3,1.1-.7,1.7-1a83.43,83.43,0,0,0-9,7.9c-1.4,1.4-3.1,7.1-1.8,7.2,2.4.3,8.3-5.1,10.4-6.1,1.1-.5,2.2-1.1,3.3-1.6-4.3,3.7-8.6,7.7-12.6,11.8-1.4,1.4.4,2.5,1.6,2.6a6.7,6.7,0,0,0,2,0c-1.5,1.5-2.9,3.1-4.3,4.7s.3,2.5,1.6,2.6a10.75,10.75,0,0,0,3.1-.1c-1.3.9-2.7,1.8-4,2.8-1.9,1.4-1.3,3.1.9,3.4a11.78,11.78,0,0,0,8.1-2.2l4-2.8c11.9-8,24.7-14.7,37.2-21.7-4.6,3.6-14.6,8.7-19.4,12.1-4.4,2.3-3.6,3-8.1,5.1-7,3.3-16.8,7.1-19.9,14.9-1.1,2.8,5.4,1.7,6.3,1.5a46.9,46.9,0,0,0,6-2c-2.6,1.9-5.2,3.9-7.8,5.8-1.2.8-1.9,2.5-.1,3.1,2.5.9-.4,5.2,1.8,4.1L33.59,408c-2.7,2.5-12.7,9.9-14.9,12.9-1.1,1.5.1,2.4,1.6,2.6a12.2,12.2,0,0,0,7-1.5c.9-.5,7.4-5.8,8.4-6.3-2.3,2.1-11.8,9-14,11.2-1.4,1.4,2,2.5,3.2,2.6a11.32,11.32,0,0,0,5.4-.8,19,19,0,0,0-4.2,8.8c-.5,2.9,4.9,1.9,6.3,1.5,3.2-.8,2.7,2.8,17.3-18-1.8,1.9-11.6,18.4-13.3,20.5-1.2,1.5.2,2.5,1.7,2.6a11.83,11.83,0,0,0,3.7-.2,10.7,10.7,0,0,0-1.4,1.6c-1.3,1.5.3,2.5,1.7,2.6a11.46,11.46,0,0,0,7-1.5l.5-.3c-1.1,1-2.2,2.1-3.3,3.2-1.4,1.4.4,2.5,1.7,2.6a10.85,10.85,0,0,0,4-.3c.2,0,.5-.1.8-.1l.3,1.2c.7,2.1,4.9,1.2,6.3.8l.7-.2c-1.2,1.5.2,2.4,1.7,2.6a10.45,10.45,0,0,0,2.5,0c-1,1.9,3.8,2.1,4.8,1.9,2.2-.4,4.4-1,6.5-1.6-.6.3-1.2.7-1.8,1-.9.5-3.3,2.1-1.9,3.4s4.3.7,5.9.2,2.9-.8,4.3-1.3c-.8.7-1.3,1.6-.5,2.4,1.8,1.6,5.5.5,7.4-.3,10.6-4.1,21-8.5,30.3-14.4,1.8-.9,3.6-1.9,5.4-2.9,11.1-6.2,22.6-14.7,26.8-27.4.7-2-1.9-2.1-4.5-1.7a45.68,45.68,0,0,0,5.4-6.9c1.1-1.9-.1-2.5-1.9-2.5a30,30,0,0,0,6.2-9.5c.4-1.1-.7-1.6-1.6-1.8a19.22,19.22,0,0,0,1.6-4.2c.6-2.3-3.6-2-4.8-1.8a20.48,20.48,0,0,0-2.4.5c1.6-1.7,3.2-3.4,4.7-5.2,1.2-1.5-.2-2.5-1.6-2.6a6.6,6.6,0,0,0-1.4-.1,35.53,35.53,0,0,0,4.8-6.7c1.3-2.3-3.8-1.8-6.4-1.3,2.9-2,5.7-4.2,8.5-6.5C159.79,365.11,159.59,363.51,157.29,363.21Z"/><path class="cls-2" d="M14.29,389.81c0-15.3,6.1-31.1,16.6-43.2,10.9-12.5,25.3-18.1,40.6-19.4,1.2-.1,2.4-3,2.3-3.8,0-.3-.2-1-1.8-.8a65.91,65.91,0,0,0-33.7,13c1.5-1.2,3.1-2.4,4.7-3.5,11-7.5,24.9-10.6,39-10.6,9.6,0,19.1.9,27.6,4.5,17.3,7.4,31.6,19.9,38.4,39a81.45,81.45,0,0,1,2.4,31.1c-1.9,16.1-9.4,32.2-20,42.7a76.12,76.12,0,0,1-44.8,21.1,60.86,60.86,0,0,1-12.8.1,61.81,61.81,0,0,1-8.4-2.4C35.79,447.21,14.29,418.11,14.29,389.81Zm78.5,71.4c2.8-.6,6.6-1.3,9.3-2.1,14.3-4.4,30.3-15.8,39.8-26.6-6.7,8.8-19.8,19-30,23.6A62.05,62.05,0,0,1,92.79,461.21Zm24.7-140.6-.8-.5a1.55,1.55,0,0,0-.8-.2c-1.1,0-2.9.7-3.1,1.5a.79.79,0,0,0,.5.9,66.64,66.64,0,0,1,9.3,6.4c-11.8-7.4-26.2-12.3-40.8-11.9-22.6.5-44.2,11.2-57.5,27.5-11.7,14.2-16.6,32.8-15.3,52.8,1.3,19.8,10.3,37,24.5,48.7,10.2,8.4,23.1,15.5,37.5,16.6a71.64,71.64,0,0,0,14.6,1.5,69.3,69.3,0,0,0,36.8-10.5,71,71,0,0,0,33.5-52.6,76.38,76.38,0,0,0-4.3-35.3A75.58,75.58,0,0,0,117.49,320.61Z"/><path class="cls-3" d="M35.19,371.31h0C35.09,371.21,35.09,371.31,35.19,371.31Z"/><path class="cls-3" d="M58.29,392.81h0c0,.1-.1.1-.1.2A.35.35,0,0,1,58.29,392.81Z"/><path class="cls-3" d="M129.49,407.91v.2h-.2Z"/><path class="cls-1" d="M107.27,603.23c4.6-2.9,9.1-6,13.5-9.1a55.47,55.47,0,0,1-7.5,6.1Q110.42,601.73,107.27,603.23Zm-38.5-114.4a129.81,129.81,0,0,1-19.9,14l-3.3,1.9C54,499.13,60.17,494.23,68.77,488.83Zm-7.8-4c-4,3-21.8,16.6-26.1,19.2,2-1.4,12.8-10.7,14.9-12C51.87,490.53,58.67,486.13,61,484.83Zm38,17.5c2.3-1.9,13.4-11.9,15.8-13.6C110.67,494.63,101.37,500.63,99,502.33Zm13.8,80.4c-6.7,5.4-23,17.8-30.8,21.7C88.67,598.73,105.17,587.23,112.77,582.73Zm-16-12.4c-4.2,3-8.5,5.9-12.9,8.6-2.3,1.4-4.6,2.7-6.9,4.1,7.6-5.7,15.2-11.3,23.1-16.6,4.3-2.9,8.8-5.6,13.2-8.3-4.3,3.1-8.5,6.3-12.7,9.5Zm60.2-51.2a12.19,12.19,0,0,0-5.9.9l.3-.3c1.5-1.4-.4-2.5-1.6-2.6a11.92,11.92,0,0,0-8.1,2.2l-1.3.9c1.9-1.5,3.8-2.9,5.7-4.4,1.1-.9,1.9-2.5.1-3.1a8.2,8.2,0,0,0-4.4-.1c.5-.5,1.1-1,1.6-1.5,1-.9,2-2.4.1-3.1-2.5-.9-5.7.1-8,1.3-3.3,1.7-6.6,3.5-9.8,5.3a113.25,113.25,0,0,0,10.6-10.2c1.3-1.5-.3-2.5-1.6-2.6a10.45,10.45,0,0,0-2.5,0,104.65,104.65,0,0,0,11.4-10.7c1.3-1.5-.3-2.5-1.6-2.6a11.64,11.64,0,0,0-8.1,2.2,370.48,370.48,0,0,1-33.3,25.4c-2.7,1.7,10-7.9,7.4-6.2,13.3-9.3,10.9-8,21.9-20.1,1.3-1.5-.3-2.5-1.6-2.6a11.57,11.57,0,0,0-3.2.1,15.92,15.92,0,0,0,1.3-2.2c1.2-2.2-4-2-4.8-1.8a8.33,8.33,0,0,0-1.5.4c.6-.6,1.3-1.2,1.9-1.8,1.4-1.4-.4-2.5-1.6-2.6a11.92,11.92,0,0,0-8.1,2.2c-5.6,4-11.1,8-16.7,12-1.5.9-3.3,2.3-4.8,3.1-9.4,5.3-18.1,10.6-27.3,16.2l-3.1,1.9.3-.2c19.1-12.3,39.2-23.2,56.6-37.7,1.7-1.4,1.4-3-.9-3.4a11.78,11.78,0,0,0-8.1,2.2c-3.3,2.6-2.5.9-6.1,3.1,2.3-1.7.3.5,2.6-1.3,1.8-1.4,1.4-3.1-.9-3.4-2.7-.3-3.9.6-6.1,2.2-2.6,1.9-14.8,9.6-17.4,11.4,1.8-2,12.1-9.1,13.6-11.5,1-1.6-1-3.3-2.6-3.5a12.2,12.2,0,0,0-7,1.5c-2.7,1.4-5.4,2.9-8.1,4.4.3-.4.7-.8,1-1.2,2.9-3.7-6.3-2.1-7.3-1.7a125.77,125.77,0,0,0-27.5,14.2,152.11,152.11,0,0,0-24.7,19.8c-1.5,1.5.1,2.2,1.6,2.5a60.17,60.17,0,0,0-9.4,8.8c-1.3,1.5.3,2.5,1.6,2.6a12.2,12.2,0,0,0,7-1.5c.6-.3,1.1-.7,1.7-1a83.43,83.43,0,0,0-9,7.9c-1.4,1.4-3.1,7.1-1.8,7.2,2.4.3,8.3-5.1,10.4-6.1,1.1-.5,13.9-10.5,14.9-11-4.3,3.7-20.4,15.3-24.4,19.5-1.4,1.4.5,4.2,1.8,4.4a6.7,6.7,0,0,0,2,0c-1.5,1.5-2.9,3.1-4.3,4.7s.3,2.5,1.6,2.6a10.75,10.75,0,0,0,3.1-.1c-1.3.9-2.7,1.8-4,2.8-1.9,1.4-1.3,3.1.9,3.3a11.78,11.78,0,0,0,8.1-2.2l4-2.8c11.9-8,24.7-14.7,37.2-21.7-4.6,3.6-14.6,8.7-19.4,12.1-4.4,2.3-3.6,3-8.1,5.1-7,3.3-16.8,7.1-19.9,14.9-1.1,2.8,5.4,1.7,6.3,1.5a35.74,35.74,0,0,0,6-2.1c-2.6,2-5.2,3.9-7.8,5.8-1.2.9-1.9,2.5-.1,3.1,2.5.9-.4,5.2,1.8,4.1l13.8-10.1c-2.7,2.5-12.7,9.9-14.9,12.9-1.1,1.5.1,2.4,1.6,2.6a12.2,12.2,0,0,0,7-1.5c.9-.5,7.4-5.8,8.4-6.3-2.4,2-11.8,9-14,11.2-1.4,1.4,2,2.5,3.2,2.6a11.32,11.32,0,0,0,5.4-.8,19.46,19.46,0,0,0-4.2,8.8c-.5,2.9,4.9,1.9,6.3,1.5,3.2-.8,2.7,2.8,17.3-18-1.8,1.9-11.6,18.4-13.3,20.4-1.2,1.5.2,2.5,1.7,2.6a11.83,11.83,0,0,0,3.7-.2,10.7,10.7,0,0,0-1.4,1.6c-1.3,1.5.3,2.5,1.7,2.6a11.46,11.46,0,0,0,7-1.5l.5-.3c-1.1,1-2.2,2.1-3.3,3.2-1.4,1.4.4,2.5,1.7,2.6a10.85,10.85,0,0,0,4-.3c.2,0,.5-.1.8-.1l.3,1.2c.7,2.1,4.9,1.2,6.3.8l.7-.2c-1.2,1.5.2,2.4,1.7,2.6a10.46,10.46,0,0,0,2.5,0c-1,1.9,3.8,2.1,4.8,2,2.2-.4,4.4-1,6.5-1.6-.6.3-1.2.7-1.8,1-.9.5-3.3,2.1-1.9,3.4s4.3.7,5.9.2,2.9-.8,4.3-1.3c-.8.7-1.3,1.6-.5,2.4,1.8,1.6,5.5.5,7.4-.3,10.6-4.1,21-8.4,30.3-14.4,1.8-.9,3.6-1.8,5.4-2.8,11.1-6.2,22.6-14.7,26.8-27.4.7-2-1.9-2.1-4.5-1.7a45.67,45.67,0,0,0,5.4-6.9c1.1-1.9-.1-2.5-1.9-2.5a30,30,0,0,0,6.2-9.5c.4-1.1-.7-1.6-1.6-1.8a19.22,19.22,0,0,0,1.6-4.2c.6-2.3-3.6-2-4.8-1.8-.8.1-16,14.7-16.7,14.9,1.6-1.7,17.6-17.9,19.1-19.7,1.2-1.5-.2-2.5-1.6-2.6a6.6,6.6,0,0,0-1.4-.1,35.53,35.53,0,0,0,4.8-6.7c1.3-2.3-3.8-1.8-6.4-1.3,2.9-2,5.7-4.2,8.5-6.5C159.57,521,159.37,519.43,157,519.13Z"/><path class="cls-2" d="M16,545.73c0-15.3,4.1-31.1,14.6-43.2,10.9-12.5,25.3-18.1,40.6-19.4,1.2-.1,2.4-3,2.3-3.8,0-.3-.2-1-1.8-.8a65,65,0,0,0-33.7,13c1.5-1.2,3.1-2.4,4.7-3.5,11-7.5,24.9-10.6,39-10.6,9.6,0,19.1.9,27.6,4.5,17.3,7.4,31.6,19.9,38.4,39a81.45,81.45,0,0,1,2.4,31.1c-1.9,16.1-9.4,32.2-20,42.7a76.11,76.11,0,0,1-44.8,21.1,60.85,60.85,0,0,1-12.8.1,61.81,61.81,0,0,1-8.4-2.4C35.57,603.13,16,574,16,545.73Zm76.5,71.4c2.8-.6,6.6-1.3,9.3-2.1,14.3-4.4,30.3-15.8,39.8-26.6-6.7,8.8-19.8,19-30,23.6A56.92,56.92,0,0,1,92.47,617.13Zm24.7-140.6-.8-.5a1.55,1.55,0,0,0-.8-.2c-1.1,0-2.9.7-3.1,1.5a.79.79,0,0,0,.5.9,66.64,66.64,0,0,1,9.3,6.4c-11.8-7.4-26.2-12.3-40.8-11.9-22.6.5-44.2,8.2-57.6,24.5C12.17,511.43,8.27,533,9.57,553c1.3,19.8,11.3,37,25.5,48.7,10.2,8.4,21.1,15.5,35.5,16.6a71.64,71.64,0,0,0,14.6,1.5,69.3,69.3,0,0,0,36.8-10.5,71,71,0,0,0,33.5-52.6,76.38,76.38,0,0,0-4.3-35.3A75,75,0,0,0,117.17,476.53Z"/><path class="cls-3" d="M58.07,548.73h0c0,.1-.1.1-.1.2C58,548.83,58,548.83,58.07,548.73Z"/><path class="cls-3" d="M129.17,563.83v.2H129A.22.22,0,0,0,129.17,563.83Z"/></g><g id="Camada_6" data-name="Camada 6"><path class="cls-4" d="M113.6,116.19l-.9.17.89-.19,0-.19L102.73,67.45c-.58-2.59-1.14-5.18-1.71-7.8C99.9,54.54,98.75,49.26,97.49,44c-.7-2.91-1.06-3.86-4-4.36l-.9-.16h-.07l0,0a5.4,5.4,0,0,1-.23-1c0-.26-.1-.51-.15-.75a2.92,2.92,0,0,0-3-2.28h-.09L28.5,36.73a.91.91,0,0,0-1.62-.22l-.17.26-.74,0a3.92,3.92,0,0,0-3,1.66,4.91,4.91,0,0,0-1.05,4l0,.12a4,4,0,0,0-2.72,1.65,4.91,4.91,0,0,0-1.05,4l.26,1.1a.92.92,0,0,0,.06.74.91.91,0,0,0,.17.22l17.57,74A2.85,2.85,0,0,0,38,126.31a2.67,2.67,0,0,0,1,1.35l.19.14a3.11,3.11,0,0,0,2.35.77c.25,0,.62,0,1.21,0,3.08.14,6.21.14,9.28.13,1.53,0,3.07,0,4.59,0l38.45.4c.79,0,1.76.1,2.77.19,1.21.11,2.47.22,3.72.22a11.43,11.43,0,0,0,3.91-.57,6.43,6.43,0,0,0,2.94-2,1,1,0,0,0,.3,0,.91.91,0,0,0,.86-.83l.3-3.44a6.18,6.18,0,0,0,2.66-1.8A5.44,5.44,0,0,0,113.6,116.19Z"/><path class="cls-3" d="M107.16,123.22a.52.52,0,0,0,0-.2L90.63,49.11c0-.16-.19-.4-.39-.4l-3.57,0-.95-4L22.61,46l18.06,76.08,1.25,0,.4,1.67c0,.16.19.4.39.4l63.11.65C106.35,124.92,107.28,123.89,107.16,123.22Zm-63.21-1.08h0l0-.09,59.86-1.28L87.13,50.61a5.87,5.87,0,0,1,1.69.12l.16,0a2.11,2.11,0,0,0,.12.29c1.34,2.83,1.54,6.91,2.22,10l8.16,36.58,5.62,25.18-57.95-.6A11.86,11.86,0,0,1,43.95,122.13Z"/><path class="cls-5" d="M110.91,117.48a.52.52,0,0,0,0-.2L94.37,43.37c0-.16-.19-.4-.39-.4l-3.57,0-.95-4L26.35,40.29l18.06,76.08,1.25,0,.4,1.67c0,.16.19.4.39.4l63.11.65C110.09,119.18,111,118.15,110.91,117.48ZM47.69,116.4h0l0-.09L107.53,115,90.87,44.87a5.87,5.87,0,0,1,1.69.12l.16,0a2.11,2.11,0,0,0,.12.29c1.34,2.83,1.54,6.91,2.22,10l8.16,36.58L108.84,117l-57.95-.6A11.86,11.86,0,0,1,47.69,116.4Z"/><path class="cls-4" d="M116.46,273.4l-.9.17.89-.19,0-.19-10.83-48.54c-.58-2.59-1.14-5.18-1.71-7.8-1.11-5.11-2.26-10.39-3.52-15.65-.7-2.91-1.06-3.86-4-4.36l-.9-.16h-.07l0,0a5.4,5.4,0,0,1-.23-1c0-.26-.1-.51-.15-.75-.26-1.1-1.18-3.28-3-3.28h-.09l-60.58,2.3a.91.91,0,0,0-1.62-.22l-.17.26-.74,0a3.92,3.92,0,0,0-3,1.66,4.91,4.91,0,0,0-1.05,4l0,.12a4,4,0,0,0-2.72,1.65,4.91,4.91,0,0,0-1.05,4l.26,1.1a.92.92,0,0,0,.06.74.91.91,0,0,0,.17.22l17.57,74a2.85,2.85,0,0,0,1.79,2.08,2.67,2.67,0,0,0,1,1.35l.19.14a3.11,3.11,0,0,0,2.35.77c.25,0,.62,0,1.21,0,3.08.14,6.21.14,9.28.13,1.53,0,3.07,0,4.59,0l38.45.4c.79,0,1.76.1,2.77.19,1.21.11,2.47.22,3.72.22a11.43,11.43,0,0,0,3.91-.57,6.43,6.43,0,0,0,2.94-2,1,1,0,0,0,.3,0,.91.91,0,0,0,.86-.83l.3-3.44a6.18,6.18,0,0,0,2.66-1.8A5.44,5.44,0,0,0,116.46,273.4Z"/><path class="cls-3" d="M110,280.42a.52.52,0,0,0,0-.2L93.49,206.32c0-.16-.19-.4-.39-.4l-3.57,0-.95-4-64.11,1.35,19.06,76.08,1.25,0,.4,1.67c0,.16.19.4.39.4l63.11.65C109.21,282.13,110.14,281.1,110,280.42Zm-63.21-1.08h0l0-.09,59.86-.28L90,207.82a5.87,5.87,0,0,1,1.69.12l.16,0a2.11,2.11,0,0,0,.12.29c1.34,2.83,1.54,6.91,2.22,10l8.16,36.58L108,280,50,279.37A11.86,11.86,0,0,1,46.81,279.34Z"/><path class="cls-5" d="M113.77,274.69a.52.52,0,0,0,0-.2L97.24,200.58c0-.16-.19-.4-.39-.4l-3.57,0-.95-5L30.22,197.5l15.06,76.08,3.25,0,.4,1.67c0,.16.19.4.39.4l63.11.65C113,276.39,113.88,275.36,113.77,274.69ZM50.56,273.6h0l0-.09,58.86-1.28L93.74,202.08a5.87,5.87,0,0,1,1.69.12l.16,0a2.11,2.11,0,0,0,.12.29c1.34,2.83,1.54,6.91,2.22,10l8.16,36.58,5.62,25.18-57.95-.6A11.86,11.86,0,0,1,50.56,273.6Z"/><path class="cls-4" d="M116.52,431.38l-.9.17.89-.19,0-.19-10.83-48.54c-.58-2.59-1.14-5.18-1.71-7.8-1.11-5.11-2.26-10.39-3.52-15.65-.7-2.91-1.06-3.86-4-4.36l-.9-.16h-.07l0,0a5.4,5.4,0,0,1-.23-1c0-.26-.1-.51-.15-.75a2.92,2.92,0,0,0-3-2.28H92l-60.58,1.3a.91.91,0,0,0-1.62-.22l-.17.26-.74,0a3.92,3.92,0,0,0-3,1.66,4.91,4.91,0,0,0-1.05,4l0,.12a4,4,0,0,0-2.72,1.65,4.91,4.91,0,0,0-1.05,4l.26,1.1a.92.92,0,0,0,.06.74.91.91,0,0,0,.17.22l17.57,74A2.85,2.85,0,0,0,41,441.5a2.67,2.67,0,0,0,1,1.35l.19.14a3.11,3.11,0,0,0,2.35.77c.25,0,.62,0,1.21,0,3.08.14,6.21.14,9.28.13,1.53,0,3.07,0,4.59,0l38.45.4c.79,0,1.76.1,2.77.19,1.21.11,2.47.22,3.72.22a11.43,11.43,0,0,0,3.91-.57,6.43,6.43,0,0,0,2.94-2,1,1,0,0,0,.3,0,.91.91,0,0,0,.86-.83l.3-3.44a6.18,6.18,0,0,0,2.66-1.8A5.44,5.44,0,0,0,116.52,431.38Z"/><path class="cls-3" d="M110.08,438.4a.52.52,0,0,0,0-.2L93.55,364.29c0-.16-.19-.4-.39-.4l-3.57,0-.95-4-64.11,1.35L43.59,437.3l1.25,0,.4,1.67c0,.16.19.4.39.4,21,.22,42.07,1.44,63.11,1.65C109.26,441.1,110.2,439.07,110.08,438.4Zm-63.21-1.08h0l0-.09,59.86-1.28L90,365.79a5.87,5.87,0,0,1,1.69.12l.16,0a2.11,2.11,0,0,0,.12.29c1.34,2.83,1.54,6.91,2.22,10l8.16,36.58L108,438l-57.95-.6A11.86,11.86,0,0,1,46.87,437.32Z"/><path class="cls-5" d="M113.82,432.66a.52.52,0,0,0,0-.2L97.29,358.56c0-.16-.19-.4-.39-.4l-3.57,0-.95-4-63.11,1.35,18.06,76.08,1.25,0,.4,1.67c0,.16.19.4.39.4l63.11.65C113,434.37,113.94,433.34,113.82,432.66Zm-63.21-1.08h0s0-.05-1,.91l59.86-1.28L93.79,360.06a5.87,5.87,0,0,1,1.69.12l.16,0a2.11,2.11,0,0,0,.12.29c1.34,2.83,1.54,6.91,2.22,10L106.14,407l5.62,25.18-57.95-.6A11.86,11.86,0,0,1,50.61,431.58Z"/><path class="cls-4" d="M114,585.11l-.9.17.89-.19,0-.19-10.83-48.54c-.58-2.59-1.14-5.18-1.71-7.8-1.11-5.11-2.26-10.39-3.52-15.65-.7-2.91-1.06-3.86-4-4.36l-.9-.16h-.07l0,0a5.4,5.4,0,0,1-.23-1c0-.26-.1-.51-.15-.75a2.92,2.92,0,0,0-3-2.28h-.09l-60.58,1.3a.91.91,0,0,0-1.62-.22l-.17.26-.74,0a3.92,3.92,0,0,0-3,1.66,4.91,4.91,0,0,0-1.05,4l0,.12a4,4,0,0,0-2.72,1.65,4.91,4.91,0,0,0-1.05,4l.26,1.1a.92.92,0,0,0,.06.74.91.91,0,0,0,.17.22l17.57,74a2.85,2.85,0,0,0,1.79,2.08,2.67,2.67,0,0,0,1,1.35l.19.14a3.11,3.11,0,0,0,2.35.77c.25,0,.62,0,1.21,0,3.08.14,6.21.14,9.28.13,1.53,0,3.07-1,4.59-1L95.5,598c.79,0,1.76.1,2.77.19,1.21.11,2.47.22,3.72.22a11.43,11.43,0,0,0,3.91-.57,6.43,6.43,0,0,0,2.94-2,1,1,0,0,0,.3,0A.91.91,0,0,0,110,595l.3-3.44a6.18,6.18,0,0,0,2.66-1.8A5.44,5.44,0,0,0,114,585.11Z"/><path class="cls-3" d="M107.53,592.13a.52.52,0,0,0,0-.2L91,518c0-.16-.19-.4-.39-.4l-3.57,0-.95-4L24,514.94,41,591l1.25,0,.4,1.67c0,.16.19.4.39.4l63.11.65C106.71,593.83,107.64,592.8,107.53,592.13ZM44.31,591h0l0-.09,59.86-1.28L87.5,519.52a5.87,5.87,0,0,1,1.69.12l.16,0a2.11,2.11,0,0,0,.12.29c1.34,2.83,1.54,6.91,2.22,10l8.16,36.58,5.62,25.18-57.95-.6A11.86,11.86,0,0,1,44.31,591Z"/><path class="cls-5" d="M111.27,586.39a.52.52,0,0,0,0-.2L94.74,512.28c0-.16-.19-.4-.39-.4l-4.57,0-.95-4-63.11,2.35,19.06,75.08,1.25,0,.4,1.67c0,.16.19.4.39.4l63.11.65C110.45,588.09,111.39,587.06,111.27,586.39Zm-63.21-1.08h0l0-.09,59.86-3.28L91.24,513.78a5.87,5.87,0,0,1,1.69.12l.16,0a2.11,2.11,0,0,0,.12.29c1.34,2.83,1.54,6.91,2.22,10l8.16,36.58,5.62,25.18-57.95-.6A11.86,11.86,0,0,1,48.06,585.31Z"/><path class="cls-1" d="M86.6,70.17a4.8,4.8,0,0,0-3.1.28,89.86,89.86,0,0,1-14.87,7,12.09,12.09,0,0,1-.72-3.64.91.91,0,0,0-.59-.9A10.74,10.74,0,0,0,72.41,69C75.84,63.6,71,57.4,65.1,58c-.42,0-.86.12-1.3.21-3.9.08-8.65,1.07-10.79,4.07-3.84,5.39,3.13,12.13,8.5,11.87A17.62,17.62,0,0,0,64,73.87a2,2,0,0,0-.79,1.44,11.27,11.27,0,0,0,.11,1.39c-5.35-.58-10.58-2.12-16-2.49C44.15,74,46.15,77.87,48.59,78c5.32.37,10.49,1.88,15.79,2.48l.09.27a13,13,0,0,1,.61,5.82c-.4,1.65-.73,3.31-1,5-1.14,4.56-2.07,9.17-3.28,13.71-.69,2.6,3.9.91,4.53-.65,1.75-4.3,2.43-8.91,3.24-13.48l.07-.3c2.49,4.31,4.7,8.79,7.56,12.86,1.21,1.72,5.57-.69,4.43-2.31C76.65,95.82,74,89.42,70,83.8a10.18,10.18,0,0,0-.12-2,14.89,14.89,0,0,0-.54-2.11,93.26,93.26,0,0,0,18.9-8.5C89,70.74,86.71,70.19,86.6,70.17ZM57.92,67.88a7.86,7.86,0,0,1-1-4.68c.41-2.87,2.14-3.64,4.76-3.41A3.45,3.45,0,0,0,63,59.57a7.36,7.36,0,0,1,5.62,5.33c.62,2.44-.6,7.07-3.39,7.85S59,70,57.92,67.88Z"/><path class="cls-1" d="M90.18,385.35a4.8,4.8,0,0,0-3.1.28c-4.75,2.8-9.71,4.11-14.87,6a6.55,6.55,0,0,1-.72-2.64.91.91,0,0,0-.59-.9,10.74,10.74,0,0,0,5.1-3.91c3.42-5.38-1.39-11.58-7.32-10.95-.42,0-.86.12-1.3.21-3.9.08-8.65,1.07-10.79,4.07-3.84,5.39,3.13,12.13,8.5,11.87a17.62,17.62,0,0,0,2.54-.32,2,2,0,0,0-.79,1.44,11.27,11.27,0,0,0,.11,1.39c-5.35-.58-10.58-2.12-16-2.49-3.25-.23-1.25,3.66,1.19,3.83,5.32.37,10.49,1.88,15.79,2.48L68,396a13,13,0,0,1,.61,5.82c-.4,1.65-.73,3.31-1,5-1.14,4.56-2.07,9.17-3.28,13.71-.69,2.6,3.9.91,4.53-.65,1.75-4.3,2.43-8.91,3.24-13.48,0-.1,1-1.2,1.07-1.3,2.49,4.31,4.7,9.79,7.56,13.86,1.21,1.72,4.57-.69,3.43-2.31-3.95-5.61-6.64-12-10.56-17.63a10.18,10.18,0,0,0-.12-2,14.89,14.89,0,0,0-.54-2.11,93.26,93.26,0,0,0,18.9-8.5C92.58,385.93,90.29,385.37,90.18,385.35ZM61.5,383.06a7.86,7.86,0,0,1-1-4.68c.41-2.87,2.14-3.64,4.76-3.41a3.45,3.45,0,0,0,1.29-.21,7.29,7.29,0,0,1,7.62,4.33c1.65,3.62-2.6,8.07-5.39,8.85S62.61,385.17,61.5,383.06Z"/><path class="cls-1" d="M88.4,539.08a4.8,4.8,0,0,0-3.1.28,89.86,89.86,0,0,1-14.87,7,12.09,12.09,0,0,1-.72-3.64.91.91,0,0,0-.59-.9,10.74,10.74,0,0,0,5.1-3.91c3.42-5.38-2-12.12-7.94-11.49-.42,0-1.17-.08-1.61,0-3.9.08-6.61,1.33-8.75,4.33-3.84,5.39,3,12.61,8.39,12.35.81,0-.87.17,0,0-.47.42.74.6.75,1.12a11.27,11.27,0,0,0,.11,1.39c-5.35-.58-10.58-2.12-16-2.49-3.25-.23-.25,3.66,2.19,3.83,5.32.37,9.49,1.88,14.79,2.48l.09.27a13,13,0,0,1,.61,5.82c-.4,1.65-.73,3.31-1,5-1.14,4.56-2.07,9.17-3.28,13.71-.69,2.6,3.9.91,4.53-.65,1.75-4.3,2.43-8.91,3.24-13.48,0-.1,1-1.2,1.07-1.3,2.49,4.31,4.7,9.79,7.56,13.86,1.21,1.72,4.57-.69,3.43-2.31-3.95-5.61-6.64-12-10.56-17.63a10.18,10.18,0,0,0-.12-2,14.89,14.89,0,0,0-.54-2.11,93.26,93.26,0,0,0,18.9-8.5C90.8,539.66,88.52,539.1,88.4,539.08Zm-28.68-2.29a7.86,7.86,0,0,1-1-4.68c.41-2.87,2.14-3.64,4.76-3.41a3.45,3.45,0,0,0,1.29-.21,7.36,7.36,0,0,1,5.62,5.33c.62,2.44-.6,7.07-3.39,7.85S60.84,538.9,59.73,536.79Z"/><path class="cls-1" d="M88.37,224.07a4.8,4.8,0,0,0-3.1.28,89.86,89.86,0,0,1-14.87,7,12.09,12.09,0,0,1-.72-3.64.91.91,0,0,0-.59-.9,10.74,10.74,0,0,0,5.1-3.91c3.42-5.38-1.39-11.58-7.32-10.95-.42,0-.86.12-1.3.21-3.9.08-8.65,1.07-10.79,4.07-3.84,5.39,5.13,12.13,10.5,11.87.81,0-.33-.15.54-.32a2,2,0,0,0-.79,1.44,11.27,11.27,0,0,0,.11,1.39c-5.35-.58-10.58-1.12-16-1.49-3.25-.23-1.25,2.66,1.19,2.83,5.32.37,10.49,1.88,15.79,2.48l.09.27a13,13,0,0,1,.61,5.82c-.4,1.65-.73,3.31-1,5-1.14,4.56-2.07,9.17-3.28,13.71-.69,2.6,2.9,1.91,3.53.35,1.75-4.3,2.43-10.91,3.24-15.48,0-.1,1,.8,1.07.7,2.49,4.31,4.7,8.79,7.56,12.86,1.21,1.72,5.57-.69,4.43-2.31-3.95-5.61-6.64-12-10.56-17.63a10.18,10.18,0,0,0-.12-2,14.89,14.89,0,0,0-.54-2.11,93.26,93.26,0,0,0,18.9-8.5C90.77,224.64,88.49,224.09,88.37,224.07Zm-28.68-2.29a7.86,7.86,0,0,1-1-4.68c.41-2.87,2.14-3.64,4.76-3.41a20.52,20.52,0,0,0,3.29-.21c2.66.52,3.93,2.63,4.62,5.33.62,2.44-1.6,7.07-4.39,7.85S60.8,223.89,59.69,221.78Z"/><path class="cls-3" d="M160,71.75l-.08-.09,0,0-.06-.12-3.2-4.81-.13-.19-.23,0-.19,0a.84.84,0,0,0-.12-.23,1.3,1.3,0,0,0-.77-.44l.5-.57-1.48-2.2-.24-.25-.3.13a.74.74,0,0,0-.17.1l-5,4.09q-2.32,1.68-4.66,3.3l9.92-8.11-.45-.67-.57-.82-.18-.26h0l-.39-.55-1-1.39-.23-.31-.32.22c-2,1.36-3.83,2.68-5.65,4l5.41-5-.21-.28-2.36-3.23-.24-.33-9.64,7.84,9-8.72-1.14-1.58h-.21a3.18,3.18,0,0,0-1,.19c.62-.65.29-1.12.17-1.25-.57-.62-2.29-.48-2.94.07l-9.69,8.24c3.68-3.66,7.36-7.19,11-10.55l.25-.23-.31-.46c-.29-.44-.59-.88-.87-1.33l-.16-.25-.28.08a1.79,1.79,0,0,0-.72.37l-4.8,4.35c1.83-1.81,3.55-3.55,5.2-5.24l.21-.22-.44-.71c-.18-.29-.36-.59-.54-.89l-.13-.22-.25,0a2.27,2.27,0,0,0-1.32.52l-2.49,2.44,2.89-3.13c.54-.6.41-1.11.1-1.39a1.15,1.15,0,0,0-.24-.16l-3,.75q-4.47,4.87-9.36,9.88,3-3.51,5.94-6.85c.67-.76.24-1.26.1-1.39a2.46,2.46,0,0,0-2.86.21l-1.66,1.72a.86.86,0,0,0-.1-1.12,1.36,1.36,0,0,0-.7-.3L125.4,45c-2.32,2.16-4.63,4.39-6.88,6.68,1.18-1.64,2.33-3.2,3.47-4.71a1,1,0,0,0,.21-1.19c-1.28.31-2.57.62-3.84.94L117.13,48a.91.91,0,0,0,.08-.89.78.78,0,0,0-.08-.1c-1.39.36-2.78.75-4.15,1.19l-.27.25.13-.21a45,45,0,0,0-7.44,3,6.16,6.16,0,0,1-5.39.34c-.5.13-1,.26-1.5.4l-.09,0-.07.07q-.75.71-1.48,1.46l-.32.33.38.27a16.24,16.24,0,0,1,1.54,1.25l.29.26.27-.28c.44-.47.88-.92,1.3-1.34q-.46.92-1,1.83l-.14.25.2.21a24.18,24.18,0,0,1,1.67,2l.31.4.31-.4c1.55-2,3.16-3.86,4.82-5.67-1.43,2.41-2.78,4.84-4.05,7.25l-.11.21.13.2c.51.76,1,1.55,1.5,2.34l.35.57c.42.68.84,1.35,1.28,2l.1.15h0l.22.35,1.26,1.92.16.24.18.28,0,0h0l.95,1.42.23.34,2.15,3.18h0l2.8,4.18.29-.1a1.86,1.86,0,0,0,.6-.32l1.4-1.19-2,2,.18.27,1.18,1.81.14.21,1.12,1.76.24.38,3-2.45-2.67,2.38-.25.22.43.7.49.79.12.2h.23a2.62,2.62,0,0,0,1.39-.4l0,0a.72.72,0,0,0,0,.29.9.9,0,0,0,.54.56l.24.11.19-.19a5.68,5.68,0,0,1,3.92-1.54h.12l.1-.07.87-.6a.91.91,0,0,0,0,.17v.45l.45-.05c.47-.06.94-.14,1.4-.24l-.86,1c-.4-.46-2.29,0-2.65.3a49.23,49.23,0,0,1-6.1,4.19c-.12.07-.42.24-.42.55l0,.28.2.11a2.37,2.37,0,0,0,1.22,0c-.89,1-1.75,2-2.59,3l-.22.32.22.25c.33.38,1.85,0,2.35-.14l-2.13,2.39-.24.3.25.26c.35.38,2.38-.08,2.69-.31l1.06-.84-3.68,4.12-.2.24.16.25c.11.16.4.22.73.22a7.22,7.22,0,0,0,1.44-.2,5.74,5.74,0,0,0,1.86-.45L122,97.32a.46.46,0,0,0,.13.35c.44.47,2.34-.1,2.64-.34l2.42-2-.8.92-.24.31.26.26c.36.35,2.32,0,2.69-.34l.9-.8a.48.48,0,0,0,.1.16c.44.45,2.3-.06,2.64-.35.86-.74,1.74-1.52,2.68-2.37l-.86,1-.25.3.25.27c.36.38,2.39-.08,2.69-.31.81-.63,1.65-1.31,2.54-2,.1.14.33.32,1.6.07a4.37,4.37,0,0,0,2.28-.34l0,0h0l.11-.1.08-.05.1.09c.36.36,2.33,0,2.69-.34l1.66-1.53,0,0c.38.36,2.36-.09,2.68-.37l.08-.07a6.08,6.08,0,0,0,2.34-.5,5.16,5.16,0,0,0,2.21-2.83l.06-.24-.1-.17,0,0L158.13,82l.14-.25-.15-.21c-.11-.16-.34-.23-.71-.24l1-1.33.17-.25-.16-.23c-.14-.2-.53-.23-.93-.2q1.14-1.32,2.26-2.65l.25-.31-.3-.26a2.74,2.74,0,0,0-1.63,0q.69-.93,1.31-1.83l.21-.35-.32-.22a3.49,3.49,0,0,0-2.56.33.52.52,0,0,0-.16-.13,3.67,3.67,0,0,0-2.69.66l-.48.59a.7.7,0,0,0-.19-.24,2.57,2.57,0,0,0-2.55.25l-1.53,1.59a4.23,4.23,0,0,0-2.39.34,3.5,3.5,0,0,0-2.51.44l-.56.54a.47.47,0,0,0-.1-.52,1.34,1.34,0,0,0-1-.15l2.34-2.08.19,0a.72.72,0,0,0,0,.34c.12.36.5.6,1.08.68h.08l.08,0,1.83-.49.09,0,.19-.17h.37l1.07-.27.13-.06c1-.73,2.08-1.48,3.26-2.27a1.33,1.33,0,0,0,.32.2,2.44,2.44,0,0,0,1.89,0l.83-.44a3.66,3.66,0,0,0,.65.64l.15.12,3-.73,0-.25a.87.87,0,0,0,0-.41Zm-26.45,8.7c.78-.33,1.58-.65,2.38-1l-1.12,1a2.62,2.62,0,0,0-1.33-.06ZM131,81.88l.25-.31-.13-.11.87-.36q-1.05,1.06-2.15,2.12C130.22,82.76,130.6,82.32,131,81.88Zm1,4.73q-1.68,1.53-3.39,3l.92-1,10.19-9.9a.48.48,0,0,0,.12-.59l1.09-.34C138.11,80.4,135.27,83.2,132,86.61Z"/><path class="cls-6" d="M112,75.37c-2.62-5.57-6.56-10.28-10-15.29q-1.19,1.83-2.41,3.65l2.14-4q-.61-.9-1.19-1.81c-1.23,2.18-2.54,4.32-3.89,6.42,1.12-2.47,2.18-5,3.24-7.46-.19-.31-.37-.63-.56-1-.59.06-1.3.3-1.46.67a59.68,59.68,0,0,1-3.08,5.91L97.32,57c.35-.73-1.9-.22-2.2.16C93,59.81,90.95,62.43,88.78,65a86.44,86.44,0,0,0,4.86-8.2c.33-.72-1.9-.25-2.2.16L88,61.7l1.39-3.42c.34-.84-1.94-.13-2.2.16q-.7.77-1.36,1.56c-.1-.49-1.54-.18-1.83,0a8.27,8.27,0,0,0-2.79,2.81c-.34.55.48.64,1.21.47A13.41,13.41,0,0,0,82,65.41c-.1.9,1.93.28,2.2-.16s.38-.6.57-.9l-1.7,4.18c-.23.56.87.43,1.6.17-.26.57-.5,1.16-.72,1.76-.32.89,1.95.1,2.2-.16,2.08-2.18,4-4.45,6-6.76L88,72.34a10.85,10.85,0,0,0-1.22,2.6c-.24.8,2,.28,2.28-.31l1.37-2.91a30.84,30.84,0,0,1,1.81-2.56c-1.08,2.2-2.21,4.37-3.44,6.5-.52.91,1.74.52,2.11,0l.94-1.32-1.75,3.31c-.49.93,1.75.54,2.11,0q2-2.91,4-5.81l-4.8,8.8c-.29.54.41.65,1.09.52-.8,1.84,2.89,2,3.72.41l.62-1.15Q95,83.85,93.23,87.27c-.74,1.39,1.07,1.91,2.39,1.56l-.26.49c-1.05,2,2.55,2,3.45.9s1.55-1.88,2.32-2.83l-.36.65c-1,1.85,2.58,2.15,3.45.9l6.05-8.78c-1.11,2.35-2.2,4.72-3.23,7.11-.85,2,2.61,2.18,3.45.9l.36-.56c.25,1.1,2.87,1.07,3.61.1s1.48-2,2.22-2.94C114.91,81.72,113.45,78.49,112,75.37Z"/><path class="cls-6" d="M117.74,86.64q-1.55,2.54-3.21,5L117,86.25c.24-.51-1.95-.11-2.26.37-1.15,1.79-2.33,3.55-3.54,5.29l2.74-5.27c.27-.51-1.89-.1-2.17.24l-.43.54c-.1-.3-1.91,0-2.19.35q-3,3.67-5.92,7.46c.95-1.85,1.94-3.67,3-5.47.29-.48-1.88-.07-2.17.24-.51.56-1,1.13-1.5,1.7l.82-1.63c.29-.58-1.81,0-2,.11a22.8,22.8,0,0,0-4,4.06c-.42.54,1.12.42,1.81.08l-2.49,4.94c-.25.49,1.89.16,2.17-.24.43-.61.87-1.21,1.31-1.81-1,2-1.88,3.93-2.72,6-.24.56,1.92.12,2.17-.24,1.25-1.79,2.54-3.55,3.84-5.3l-2.48,4.3c-.23.39,1.91.18,2.26-.37,1.28-2,2.61-4,4-5.89l-2.85,5.49c-.26.51,1.89.11,2.17-.24,1.45-1.81,2.85-3.66,4.22-5.53l-1.8,3.92c-.26.56,1.91.09,2.17-.24,1.28-1.6,2.49-3.25,3.68-4.91-.67,1.45-1.36,2.9-2.08,4.33-.23.47,1.93.14,2.26-.37.63-1,1.25-2,1.87-3l-.93,2c-.26.57,1.91.07,2.17-.24l.09-.11C118.12,93.39,117.93,90,117.74,86.64Z"/><path class="cls-6" d="M96.35,91.56l.15-1.69c.07-.78-1.07-.75-1.75-.4L95,89c.43-.67-.38-.8-1.06-.73l2.35-2.44c1-1-1.12-1-1.67-.7l-.38.23c.6-.8-1-.88-1.54-.7l-.69.27.59-.74c.61-.77-.27-1.05-1-1l1-.9c1-.88-.92-1-1.42-.84l-1.16.43c.7-.6,1.39-1.22,2.06-1.86.9-.86-.85-1.15-1.42-.84s-.9.46-1.35.68c.56-.44,1.12-.87,1.67-1.33,1-.82-.89-1.08-1.42-.84l-1.43.65,2.73-2c1.18-.86-.41-1.35-1.21-1l-.83.37c.77-.68-.61-1.1-1.15-.92l-2.59.82L89,72.86c1.21-.87-.43-1.31-1.21-1l-2.51,1,2.61-1.91c1.17-.86-.41-1.36-1.21-1L84.09,71l2.62-2.1c1.13-.91-.39-1.36-1.21-1L81.3,69.63l4.76-4.29c1-.86-.88-1.08-1.42-.84l-2.46,1.09c.57-.48,1.15-1,1.75-1.4,1-.77-.11-1.28-.92-1.12a17.3,17.3,0,0,0-4.79,1.66c-1.39.72-.13,1.72,1,1.15l.35-.16c-.77.69-1.53,1.4-2.26,2.16-.89.92.86,1.09,1.42.84l2.27-1-3.73,3.36a6.83,6.83,0,0,1,.6,1.55l0,0,3.38-1.41-2.82,2.26c-1.13.9.39,1.37,1.21,1l1.63-.7L79.57,75c-1.2.88.43,1.31,1.21,1l2.35-.9-3,2.14c-1,.71.08,1.38.92,1.12l3.41-1.09L83,78.6c-.76.64.25,1,1,.94l-1.47,1.08a6.06,6.06,0,0,1,1,1.48l.77-.35-.39.27a1.27,1.27,0,0,0-.29.26,6.78,6.78,0,0,1,.29.79,1.42,1.42,0,0,0,.92.07c.74-.21,1.45-.44,2.16-.68-.54.44-1.08.88-1.64,1.31-1.19.89.42,1.31,1.21,1l1.67-.62-2,1.79c-.94.84.87,1.12,1.42.84l1.17-.58-.63.8c-.76,1,.6,1.05,1.36.83L88.34,89c-1,1,1.12,1,1.67.7l.56-.34-2.06,2.15c-.86.9.84,1.15,1.42.84L91,91.74l-.94,1.46c-.69,1.08,1.61.71,2,.35l.2-.18-.43,2.47c-.14.79,1.1.73,1.8.36l-.27,3c-.1,1.08,2.13.64,2.3-.23L97,92.17C97.07,91.77,96.76,91.59,96.35,91.56Z"/><path class="cls-4" d="M161.59,73.45a4.27,4.27,0,0,0-1.08-2.2c-.15-.2-.3-.4-.46-.63l-20.31-29a1.43,1.43,0,0,0-1.5-.37L95.77,52.55a1.36,1.36,0,0,0-.92.67,1,1,0,0,0-.19.37l-.51,2Q86.56,57.74,79,59.86l-.11,0c-.79.11-1.65.59-1.67,1.37L77,67.43c0,.51-.07,1.09-.13,1.7a12.23,12.23,0,0,0,0,3.9,19.89,19.89,0,0,0,3,5.62c.54.81,1,1.58,1.46,2.3l13.49,23.69a1.14,1.14,0,0,0,.85.54l.3,0a2.66,2.66,0,0,0,1.62-.58c5-1.55,10.3-3.12,16.43-4.91l.35,1.13a1.12,1.12,0,0,0,1.16.7,1.81,1.81,0,0,0,.48-.06l31.72-8.84c.81-.23,1.65-.42,2.55-.62a26.61,26.61,0,0,0,5.28-1.57,3.16,3.16,0,0,0,1.31-1.1l0-.07c.73-2.88,1.63-5.78,2.51-8.57.7-2.25,1.43-4.59,2.08-6.92l0-.13.05-.15ZM96.13,91.64a.67.67,0,0,0,0,.09h0c-.27,2.11-.5,4.26-.73,6.34l0,.43L85,80.35c-.52-.91-1.25-2-2-3.07a27.29,27.29,0,0,1-3.42-5.79c0-.38.14-3.15.17-4.3,0-.51,0-1.22,0-1.93,0-.4,0-.8,0-1.16,5.66,9,11.52,18.59,16.3,27.45Zm59-18.91h-.06c-11.92,3.63-24,7.2-36,10.68a26.86,26.86,0,0,0-2.51-3.49c-.54-.68-1.06-1.32-1.43-1.87L99,54.18a.93.93,0,0,0-.27-.27l39-10.38,17.41,24.85c.37.52.83,1.09,1.32,1.69s1.19,1.45,1.7,2.2A14.23,14.23,0,0,1,155.15,72.72ZM93.37,58.11,97.6,57l18.33,27.07.17.23q-8.7,2.51-17.36,5C93.27,79.18,88,70.22,82.21,61.09,84.49,60.46,88.43,59.41,93.37,58.11ZM98.83,97.6c.22-2,.44-4,.7-6q8.76-2.46,17.6-5a19.09,19.09,0,0,1-.55,3.8c-.16.75-.31,1.45-.39,2.07l-.62,4.65-.1,0c-6.38,1.85-12,3.52-17.16,5.1C98.49,100.67,98.66,99.14,98.83,97.6Zm19.3.94.83-6.22c.08-.6.23-1.31.4-2.06a16.53,16.53,0,0,0,.58-4.51C131.45,82.41,143,79,154.53,75.48l.08,0a5.82,5.82,0,0,1,2.07-1.16,11.89,11.89,0,0,1,2.26-.48,6.15,6.15,0,0,1-.33,1.14c-.07.2-.14.4-.2.59l-3.5,11.69c0,.12-.1.28-.16.44a6.33,6.33,0,0,0-.3.92c-4.12,1-8.26,2.2-12.27,3.38-2.09.62-4.26,1.25-6.38,1.85l-17.73,4.95A1,1,0,0,0,118.12,98.54Z"/><path class="cls-3" d="M160.33,227.32l-.08-.09,0,0-.06-.12-3.2-4.81-.13-.19-.23,0-.19,0a.84.84,0,0,0-.12-.23,1.3,1.3,0,0,0-.77-.44l.5-.57-1.48-2.2-.24-.25-.3.13a.74.74,0,0,0-.17.1l-5,4.09q-2.32,1.68-4.66,3.3l9.92-8.11-.45-.67-.57-.82-.18-.26h0l-.39-.55-1-1.39-.23-.31-.32.22c-2,1.36-3.83,2.68-5.65,4l5.41-5-.21-.28-2.36-3.23-.24-.33-9.64,7.84,9-8.72-1.14-1.58h-.21a3.18,3.18,0,0,0-1,.19c.62-.65.29-1.12.17-1.25-.57-.62-2.29-.48-2.94.07l-9.69,8.24c3.68-3.66,7.36-7.19,11-10.55l.25-.23-.31-.46c-.29-.44-.59-.88-.87-1.33l-.16-.25-.28.08a1.79,1.79,0,0,0-.72.37l-4.8,4.35c1.83-1.81,3.55-3.55,5.2-5.24l.21-.22-.44-.71c-.18-.29-.36-.59-.54-.89l-.13-.22-.25,0a2.27,2.27,0,0,0-1.32.52l-2.49,2.44,2.89-3.13c.54-.6.41-1.11.1-1.39a1.15,1.15,0,0,0-.24-.16l-3,.75q-4.47,4.87-9.36,9.88,3-3.51,5.94-6.85c.67-.76.24-1.26.1-1.39a2.46,2.46,0,0,0-2.86.21l-1.66,1.72a.86.86,0,0,0-.1-1.12,1.36,1.36,0,0,0-.7-.3l-2.17.54c-2.32,2.16-4.63,4.39-6.88,6.68,1.18-1.64,2.33-3.2,3.47-4.71a1,1,0,0,0,.21-1.19c-1.28.31-2.57.62-3.84.94l-1.23,1.31a.91.91,0,0,0,.08-.89.78.78,0,0,0-.08-.1c-1.39.36-2.78.75-4.15,1.19l-.27.25.13-.21a45,45,0,0,0-7.44,3,6.16,6.16,0,0,1-5.39.34c-.5.13-1,.26-1.5.4l-.09,0-.07.07q-.75.71-1.48,1.46l-.32.33.38.27A16.24,16.24,0,0,1,98.83,211l.29.26.27-.28c.44-.47.88-.92,1.3-1.34q-.46.92-1,1.83l-.14.25.2.21a24.18,24.18,0,0,1,1.67,2l.31.4.31-.4c1.55-2,3.16-3.86,4.82-5.67-1.43,2.41-2.78,4.84-4.05,7.25l-.11.21.13.2c.51.76,1,1.55,1.5,2.34l.35.57c.42.68.84,1.35,1.28,2l.1.15h0l.22.35,1.26,1.92.16.24.18.28,0,0h0l.95,1.42.23.34,2.15,3.18h0l2.8,4.18.29-.1a1.86,1.86,0,0,0,.6-.32l1.4-1.19-2,2,.18.27,1.18,1.81.14.21,1.12,1.76.24.38,3-2.45-2.67,2.38-.25.22.43.7.49.79.12.2h.23a2.62,2.62,0,0,0,1.39-.4l0,0a.72.72,0,0,0,0,.29.9.9,0,0,0,.54.56l.24.11L121,240a5.68,5.68,0,0,1,3.92-1.54H125l.1-.07.87-.6a.91.91,0,0,0,0,.17v.45l.45-.05c.47-.06.94-.14,1.4-.24l-.86,1c-.4-.46-2.29,0-2.65.3a49.23,49.23,0,0,1-6.1,4.19c-.12.07-.42.24-.42.55l0,.28.2.11a2.37,2.37,0,0,0,1.22,0c-.89,1-1.75,2-2.59,3l-.22.32.22.25c.33.38,1.85,0,2.35-.14l-2.13,2.39-.24.3.25.26c.35.38,2.38-.08,2.69-.31l1.06-.84-3.68,4.12-.2.24.16.25c.11.16.4.22.73.22a7.22,7.22,0,0,0,1.44-.2,5.74,5.74,0,0,0,1.86-.45l1.47-1.09a.46.46,0,0,0,.13.35c.44.47,2.34-.1,2.64-.34l2.42-2-.8.92-.24.31.26.26c.36.35,2.32,0,2.69-.34l.9-.8a.48.48,0,0,0,.1.16c.44.45,2.3-.06,2.64-.35.86-.74,1.74-1.52,2.68-2.37l-.86,1-.25.3.25.27c.36.38,2.39-.08,2.69-.31.81-.63,1.65-1.31,2.54-2,.1.14.33.32,1.6.07a4.37,4.37,0,0,0,2.28-.34l0,0h0l.11-.1.08-.05.1.09c.36.36,2.33,0,2.69-.34l1.66-1.53,0,0c.38.36,2.36-.09,2.68-.37l.08-.07a6.08,6.08,0,0,0,2.34-.5,5.16,5.16,0,0,0,2.21-2.83l.06-.24-.1-.17,0,0,2.47-3.89.14-.25-.15-.21c-.11-.16-.34-.23-.71-.24l1-1.33.17-.25-.16-.23c-.14-.2-.53-.23-.93-.2q1.14-1.32,2.26-2.65l.25-.31-.3-.26a2.74,2.74,0,0,0-1.63,0q.69-.93,1.31-1.83l.21-.35-.32-.22a3.49,3.49,0,0,0-2.56.33.52.52,0,0,0-.16-.13,3.67,3.67,0,0,0-2.69.66l-.48.59a.7.7,0,0,0-.19-.24,2.57,2.57,0,0,0-2.55.25l-1.53,1.59a4.23,4.23,0,0,0-2.39.34,3.5,3.5,0,0,0-2.51.44l-.56.54a.47.47,0,0,0-.1-.52,1.34,1.34,0,0,0-1-.15l2.34-2.08.19,0a.72.72,0,0,0,0,.34c.12.36.5.6,1.08.68h.08l.08,0,1.83-.49.09,0,.19-.17h.37l1.07-.27.13-.06c1-.73,2.08-1.48,3.26-2.27a1.33,1.33,0,0,0,.32.2,2.44,2.44,0,0,0,1.89,0l.83-.44a3.66,3.66,0,0,0,.65.64l.15.12,3-.73,0-.25a.87.87,0,0,0,0-.41ZM133.88,236c.78-.33,1.58-.65,2.38-1l-1.12,1a2.62,2.62,0,0,0-1.33-.06Zm-2.55,1.43.25-.31-.13-.11.87-.36q-1.05,1.06-2.15,2.12C130.58,238.32,131,237.88,131.32,237.45Zm1,4.73q-1.68,1.53-3.39,3l.92-1,10.19-9.9a.48.48,0,0,0,.12-.59l1.09-.34C138.47,236,135.63,238.76,132.32,242.18Z"/><path class="cls-6" d="M112.34,230.93c-2.62-5.57-6.56-10.28-10-15.29q-1.19,1.83-2.41,3.65l2.14-4q-.61-.9-1.19-1.81c-1.23,2.18-2.54,4.32-3.89,6.42,1.12-2.47,2.18-5,3.24-7.46-.19-.31-.37-.63-.56-1-.59.06-1.3.3-1.46.67A59.68,59.68,0,0,1,95.11,218l2.57-5.46c.35-.73-1.9-.22-2.2.16-2.08,2.64-4.17,5.26-6.34,7.82a86.44,86.44,0,0,0,4.86-8.2c.33-.72-1.9-.25-2.2.16l-3.45,4.75,1.39-3.42c.34-.84-1.94-.13-2.2.16q-.7.77-1.36,1.56c-.1-.49-1.54-.18-1.83,0a8.27,8.27,0,0,0-2.79,2.81c-.34.55.48.64,1.21.47a13.41,13.41,0,0,0-.42,2.12c-.1.9,1.93.28,2.2-.16s.38-.6.57-.9l-1.7,4.18c-.23.56.87.43,1.6.17-.26.57-.5,1.16-.72,1.76-.32.89,1.95.1,2.2-.16,2.08-2.18,4-4.45,6-6.76l-4.13,8.77a10.85,10.85,0,0,0-1.22,2.6c-.24.8,2,.28,2.28-.31l1.37-2.91a30.84,30.84,0,0,1,1.81-2.56c-1.08,2.2-2.21,4.37-3.44,6.5-.52.91,1.74.52,2.11,0l.94-1.32-1.75,3.31c-.49.93,1.75.54,2.11,0q2-2.91,4-5.81l-4.8,8.8c-.29.54.41.65,1.09.52-.8,1.84,2.89,2,3.72.41l.62-1.15q-1.75,3.45-3.56,6.87c-.74,1.39,1.07,1.91,2.39,1.56l-.26.49c-1.05,2,2.55,2,3.45.9s1.55-1.88,2.32-2.83l-.36.65c-1,1.85,2.58,2.15,3.45.9l6.05-8.78c-1.11,2.35-2.2,4.72-3.23,7.11-.85,2,2.61,2.18,3.45.9l.36-.56c.25,1.1,2.87,1.07,3.61.1s1.48-2,2.22-2.94C115.27,237.29,113.81,234,112.34,230.93Z"/><path class="cls-6" d="M118.1,242.2q-1.55,2.54-3.21,5l2.47-5.39c.24-.51-1.95-.11-2.26.37-1.15,1.79-2.33,3.55-3.54,5.29l2.74-5.27c.27-.51-1.89-.1-2.17.24l-.43.54c-.1-.3-1.91,0-2.19.35q-3,3.67-5.92,7.46c.95-1.85,1.94-3.67,3-5.47.29-.48-1.88-.07-2.17.24-.51.56-1,1.13-1.5,1.7l.82-1.63c.29-.58-1.81,0-2,.11a22.8,22.8,0,0,0-4,4.06c-.42.54,1.12.42,1.81.08L97,254.84c-.25.49,1.89.16,2.17-.24.43-.61.87-1.21,1.31-1.81-1,2-1.88,3.93-2.72,6-.24.56,1.92.12,2.17-.24,1.25-1.79,2.54-3.55,3.84-5.3l-2.48,4.3c-.23.39,1.91.18,2.26-.37,1.28-2,2.61-4,4-5.89l-2.85,5.49c-.26.51,1.89.11,2.17-.24,1.45-1.81,2.85-3.66,4.22-5.53l-1.8,3.92c-.26.56,1.91.09,2.17-.24,1.28-1.6,2.49-3.25,3.68-4.91-.67,1.45-1.36,2.9-2.08,4.33-.23.47,1.93.14,2.26-.37.63-1,1.25-2,1.87-3l-.93,2c-.26.57,1.91.07,2.17-.24l.09-.11C118.48,249,118.29,245.58,118.1,242.2Z"/><path class="cls-6" d="M96.71,247.12l.15-1.69c.07-.78-1.07-.75-1.75-.4l.29-.46c.43-.67-.38-.8-1.06-.73l2.35-2.44c1-1-1.12-1-1.67-.7l-.38.23c.6-.8-1-.88-1.54-.7l-.69.27.59-.74c.61-.77-.27-1.05-1-1l1-.9c1-.88-.92-1-1.42-.84l-1.16.43c.7-.6,1.39-1.22,2.06-1.86.9-.86-.85-1.15-1.42-.84s-.9.46-1.35.68c.56-.44,1.12-.87,1.67-1.33,1-.82-.89-1.08-1.42-.84l-1.43.65,2.73-2c1.18-.86-.41-1.35-1.21-1l-.83.37c.77-.68-.61-1.1-1.15-.92l-2.59.82,3.84-2.76c1.21-.87-.43-1.31-1.21-1l-2.51,1,2.61-1.91c1.17-.86-.41-1.36-1.21-1l-2.57,1.11,2.62-2.1c1.13-.91-.39-1.36-1.21-1l-4.19,1.75,4.76-4.29c1-.86-.88-1.08-1.42-.84l-2.46,1.09c.57-.48,1.15-1,1.75-1.4,1-.77-.11-1.28-.92-1.12a17.3,17.3,0,0,0-4.79,1.66c-1.39.72-.13,1.72,1,1.15l.35-.16c-.77.69-1.53,1.4-2.26,2.16-.89.92.86,1.09,1.42.84l2.27-1-3.73,3.36a6.83,6.83,0,0,1,.6,1.55l0,0,3.38-1.41L78.81,229c-1.13.9.39,1.37,1.21,1l1.63-.7-1.73,1.26c-1.2.88.43,1.31,1.21,1l2.35-.9-3,2.14c-1,.71.08,1.38.92,1.12l3.41-1.09-1.53,1.29c-.76.64.25,1,1,.94l-1.47,1.08a6.06,6.06,0,0,1,1,1.48l.77-.35-.39.27a1.27,1.27,0,0,0-.29.26,6.78,6.78,0,0,1,.29.79,1.42,1.42,0,0,0,.92.07c.74-.21,1.45-.44,2.16-.68-.54.44-1.08.88-1.64,1.31-1.19.89.42,1.31,1.21,1l1.67-.62-2,1.79c-.94.84.87,1.12,1.42.84l1.17-.58-.63.8c-.76,1,.6,1.05,1.36.83l-1.12,1.14c-1,1,1.12,1,1.67.7l.56-.34L88.87,247c-.86.9.84,1.15,1.42.84l1.09-.59-.94,1.46c-.69,1.08,1.61.71,2,.35l.2-.18-.43,2.47c-.14.79,1.1.73,1.8.36l-.27,3c-.1,1.08,2.13.64,2.3-.23l1.31-6.79C97.43,247.34,97.12,247.15,96.71,247.12Z"/><path class="cls-4" d="M161.95,229a4.27,4.27,0,0,0-1.08-2.2c-.15-.2-.3-.4-.46-.63l-20.31-29a1.43,1.43,0,0,0-1.5-.37L96.13,208.11a1.36,1.36,0,0,0-.92.67,1,1,0,0,0-.19.37l-.51,2c-5.06,1.43-10.12,1.86-15.19,3.27l-.11,0c-.79.11-1.65.59-1.67,1.37L77.41,223c0,.51-.07,1.09-.13,1.7a12.23,12.23,0,0,0,0,3.9,19.89,19.89,0,0,0,3,5.62c.54.81,1,1.58,1.46,2.3L95.2,260.21a1.14,1.14,0,0,0,.85.54l.3,0a2.66,2.66,0,0,0,1.62-.58c5-1.55,10.3-3.12,16.43-4.91l.35,1.13a1.12,1.12,0,0,0,1.16.7,1.81,1.81,0,0,0,.48-.06l31.72-8.84c.81-.23,1.65-.42,2.55-.62a26.61,26.61,0,0,0,5.28-1.57,3.16,3.16,0,0,0,1.31-1.1l0-.07c.73-2.88,1.63-5.78,2.51-8.57.7-2.25,1.43-4.59,2.08-6.92l0-.13.05-.15ZM96.49,247.2a.67.67,0,0,0,0,.09h0c-.27,2.11-.5,4.26-.73,6.34l0,.43L85.35,235.91c-.52-.91-1.25-2-2-3.07A27.29,27.29,0,0,1,79.91,227c0-.38.14-3.15.17-4.3,0-.51,0-1.22,0-1.93,0-.4,0-.8,0-1.16,5.66,9,11.52,18.59,16.3,27.45Zm59-18.91h-.06c-11.92,3.63-24,8.2-36,11.68a37.29,37.29,0,0,0-2.51-4.49c-.54-.68-1.06-1.32-1.43-1.87L99.39,209.75a.93.93,0,0,0-.27-.27l39-10.38L155.49,224c.37.52.83,1.09,1.32,1.69s1.19,1.45,1.7,2.2A14.23,14.23,0,0,1,155.51,228.29ZM93.73,213.68,98,212.56l18.33,27.07.17.23c-5.8,1.67-11.59,4.33-17.36,6-5.47-10.07-10.73-20-16.53-29.16C84.85,216,88.79,215,93.73,213.68Zm5.46,39.48c.22-2,.44-4,.7-6q8.76-2.46,17.6-5a19.09,19.09,0,0,1-.55,3.8c-.16.75-.31,1.45-.39,2.07l-.62,4.65-.1,0c-6.38,1.85-12,3.52-17.16,5.1C98.85,256.24,99,254.7,99.19,253.16Zm19.3.94.83-6.22c.08-.6.23-1.31.4-2.06a16.53,16.53,0,0,0,.58-4.51c11.52-3.34,23.09-6.77,34.6-10.27l.08,0a5.82,5.82,0,0,1,2.07-1.16,11.89,11.89,0,0,1,2.26-.48,6.15,6.15,0,0,1-.33,1.14c-.07.2-.14.4-.2.59l-3.5,11.69c0,.12-.1.28-.16.44a6.33,6.33,0,0,0-.3.92c-4.12,1-8.26,2.2-12.27,3.38-2.09.62-4.26,1.25-6.38,1.85l-17.73,4.95A1,1,0,0,0,118.48,254.1Z"/><path class="cls-3" d="M160.87,385.13l-.08-.09,0,0-.06-.12-3.2-4.81-.13-.19-.23,0-.19,0a.84.84,0,0,0-.12-.23,1.3,1.3,0,0,0-.77-.44l.5-.57-1.48-2.2-.24-.25-.3.13a.74.74,0,0,0-.17.1l-5,4.09q-2.32,1.68-4.66,3.3l9.92-8.11-.45-.67-.57-.82-.18-.26h0l-.39-.55-1-1.39-.23-.31-.32.22c-2,1.36-3.83,2.68-5.65,4l5.41-5-.21-.28-2.36-3.23-.24-.33L138.8,375l9-8.72-1.14-1.58h-.21a3.18,3.18,0,0,0-1,.19c.62-.65.29-1.12.17-1.25-.57-.62-2.29-.48-2.94.07L133,371.95c3.68-3.66,7.36-7.19,11-10.55l.25-.23-.31-.46c-.29-.44-.59-.88-.87-1.33l-.16-.25-.28.08a1.79,1.79,0,0,0-.72.37l-4.8,4.35c1.83-1.81,3.55-3.55,5.2-5.24l.21-.22-.44-.71c-.18-.29-.36-.59-.54-.89l-.13-.22-.25,0a2.27,2.27,0,0,0-1.32.52l-2.49,2.44,2.89-3.13c.54-.6.41-1.11.1-1.39a1.15,1.15,0,0,0-.24-.16l-3,.75q-4.47,4.87-9.36,9.88,3-3.51,5.94-6.85c.67-.76.24-1.26.1-1.39a2.46,2.46,0,0,0-2.86.21l-1.66,1.72a.86.86,0,0,0-.1-1.12,1.36,1.36,0,0,0-.7-.3l-2.17.54c-2.32,2.16-4.63,4.39-6.88,6.68,1.18-1.64,2.33-3.2,3.47-4.71a1,1,0,0,0,.21-1.19c-1.28.31-2.57.62-3.84.94L118,361.42a.91.91,0,0,0,.08-.89.78.78,0,0,0-.08-.1c-1.39.36-2.78.75-4.15,1.19l-.27.25.13-.21a45,45,0,0,0-7.44,3,6.16,6.16,0,0,1-5.39.34c-.5.13-1,.26-1.5.4l-.09,0-.07.07q-.75.71-1.48,1.46l-.32.33.38.27a16.24,16.24,0,0,1,1.54,1.25l.29.26.27-.28c.44-.47.88-.92,1.3-1.34q-.46.92-1,1.83l-.14.25.2.21a24.18,24.18,0,0,1,1.67,2l.31.4.31-.4c1.55-2,3.16-3.86,4.82-5.67-1.43,2.41-2.78,4.84-4.05,7.25l-.11.21.13.2c.51.76,1,1.55,1.5,2.34l.35.57c.42.68.84,1.35,1.28,2l.1.15h0l.22.35,1.26,1.92.16.24.18.28,0,0h0l.95,1.42.23.34,2.15,3.18h0l2.8,4.18.29-.1a1.86,1.86,0,0,0,.6-.32l1.4-1.19-2,2,.18.27,1.18,1.81.14.21,1.12,1.76.24.38,3-2.45-2.67,2.38-.25.22.43.7.49.79.12.2h.23a2.62,2.62,0,0,0,1.39-.4l0,0a.72.72,0,0,0,0,.29.9.9,0,0,0,.54.56l.24.11.19-.19a5.68,5.68,0,0,1,3.92-1.54h.12l.1-.07.87-.6a.91.91,0,0,0,0,.17v.45l.45-.05c.47-.06.94-.14,1.4-.24l-.86,1c-.4-.46-2.29,0-2.65.3a49.23,49.23,0,0,1-6.1,4.19c-.12.07-.42.24-.42.55l0,.28.2.11a2.37,2.37,0,0,0,1.22,0c-.89,1-1.75,2-2.59,3l-.22.32.22.25c.33.38,1.85,0,2.35-.14l-2.13,2.39-.24.3.25.26c.35.38,2.38-.08,2.69-.31l1.06-.84-3.68,4.12-.2.24.16.25c.11.16.4.22.73.22a7.22,7.22,0,0,0,1.44-.2,5.74,5.74,0,0,0,1.86-.45L123,410.7a.46.46,0,0,0,.13.35c.44.47,2.34-.1,2.64-.34l2.42-2-.8.92-.24.31.26.26c.36.35,2.32,0,2.69-.34l.9-.8a.48.48,0,0,0,.1.16c.44.45,2.3-.06,2.64-.35.86-.74,1.74-1.52,2.68-2.37l-.86,1-.25.3.25.27c.36.38,2.39-.08,2.69-.31.81-.63,1.65-1.31,2.54-2,.1.14.33.32,1.6.07a4.37,4.37,0,0,0,2.28-.34l0,0h0l.11-.1.08-.05.1.09c.36.36,2.33,0,2.69-.34l1.66-1.53,0,0c.38.36,2.36-.09,2.68-.37l.08-.07a6.08,6.08,0,0,0,2.34-.5,5.16,5.16,0,0,0,2.21-2.83l.06-.24-.1-.17,0,0,2.47-3.89.14-.25-.15-.21c-.11-.16-.34-.23-.71-.24l1-1.33.17-.25-.16-.23c-.14-.2-.53-.23-.93-.2q1.14-1.32,2.26-2.65l.25-.31-.3-.26a2.74,2.74,0,0,0-1.63,0q.69-.93,1.31-1.83l.21-.35-.32-.22a3.49,3.49,0,0,0-2.56.33.52.52,0,0,0-.16-.13,3.67,3.67,0,0,0-2.69.66l-.48.59a.7.7,0,0,0-.19-.24,2.57,2.57,0,0,0-2.55.25L150,390a4.23,4.23,0,0,0-2.39.34,3.5,3.5,0,0,0-2.51.44l-.56.54a.47.47,0,0,0-.1-.52,1.34,1.34,0,0,0-1-.15l2.34-2.08.19,0a.72.72,0,0,0,0,.34c.12.36.5.6,1.08.68h.08l.08,0,1.83-.49.09,0,.19-.17h.37l1.07-.27.13-.06c1-.73,2.08-1.48,3.26-2.27a1.33,1.33,0,0,0,.32.2,2.44,2.44,0,0,0,1.89,0l.83-.44a3.66,3.66,0,0,0,.65.64l.15.12,3-.73,0-.25a.87.87,0,0,0,0-.41Zm-26.45,8.7c.78-.33,1.58-.65,2.38-1l-1.12,1a2.62,2.62,0,0,0-1.33-.06Zm-2.55,1.43.25-.31-.13-.11.87-.36q-1.05,1.06-2.15,2.12C131.12,396.14,131.51,395.7,131.87,395.26Zm1,4.73q-1.68,1.53-3.39,3l.92-1,10.19-9.9a.48.48,0,0,0,.12-.59l1.09-.34C139,393.78,136.17,396.58,132.86,400Z"/><path class="cls-6" d="M112.89,388.75c-2.62-5.57-6.56-10.28-10-15.29q-1.19,1.83-2.41,3.65l2.14-4q-.61-.9-1.19-1.81c-1.23,2.18-2.54,4.32-3.89,6.42,1.12-2.47,2.18-5,3.24-7.46-.19-.31-.37-.63-.56-1-.59.06-1.3.3-1.46.67a59.68,59.68,0,0,1-3.08,5.91l2.57-5.46c.35-.73-1.9-.22-2.2.16-2.08,2.64-4.17,5.26-6.34,7.82a86.44,86.44,0,0,0,4.86-8.2c.33-.72-1.9-.25-2.2.16l-3.45,4.75,1.39-3.42c.34-.84-1.94-.13-2.2.16q-.7.77-1.36,1.56c-.1-.49-1.54-.18-1.83,0a8.27,8.27,0,0,0-2.79,2.81c-.34.55.48.64,1.21.47a13.41,13.41,0,0,0-.42,2.12c-.1.9,1.93.28,2.2-.16s.38-.6.57-.9L84,381.92c-.23.56.87.43,1.6.17-.26.57-.5,1.16-.72,1.76-.32.89,1.95.1,2.2-.16,2.08-2.18,4-4.45,6-6.76l-4.13,8.77a10.85,10.85,0,0,0-1.22,2.6c-.24.8,2,.28,2.28-.31l1.37-2.91a30.84,30.84,0,0,1,1.81-2.56c-1.08,2.2-2.21,4.37-3.44,6.5-.52.91,1.74.52,2.11,0l.94-1.32L91,391c-.49.93,1.75.54,2.11,0q2-2.91,4-5.81l-4.8,8.8c-.29.54.41.65,1.09.52-.8,1.84,2.89,2,3.72.41l.62-1.15q-1.75,3.45-3.56,6.87c-.74,1.39,1.07,1.91,2.39,1.56l-.26.49c-1.05,2,2.55,2,3.45.9s1.55-1.88,2.32-2.83l-.36.65c-1,1.85,2.58,2.15,3.45.9l6.05-8.78c-1.11,2.35-2.2,4.72-3.23,7.11-.85,2,2.61,2.18,3.45.9l.36-.56c.25,1.1,2.87,1.07,3.61.1s1.48-2,2.22-2.94C115.82,395.1,114.35,391.87,112.89,388.75Z"/><path class="cls-6" d="M118.65,400q-1.55,2.54-3.21,5l2.47-5.39c.24-.51-1.95-.11-2.26.37-1.15,1.79-2.33,3.55-3.54,5.29l2.74-5.27c.27-.51-1.89-.1-2.17.24l-.43.54c-.1-.3-1.91,0-2.19.35q-3,3.67-5.92,7.46c.95-1.85,1.94-3.67,3-5.47.29-.48-1.88-.07-2.17.24-.51.56-1,1.13-1.5,1.7l.82-1.63c.29-.58-1.81,0-2,.11a22.8,22.8,0,0,0-4,4.06c-.42.54,1.12.42,1.81.08l-2.49,4.94c-.25.49,1.89.16,2.17-.24.43-.61.87-1.21,1.31-1.81-1,2-1.88,3.93-2.72,6-.24.56,1.92.12,2.17-.24,1.25-1.79,2.54-3.55,3.84-5.3l-2.48,4.3c-.23.39,1.91.18,2.26-.37,1.28-2,2.61-4,4-5.89l-2.85,5.49c-.26.51,1.89.11,2.17-.24,1.45-1.81,2.85-3.66,4.22-5.53l-1.8,3.92c-.26.56,1.91.09,2.17-.24,1.28-1.6,2.49-3.25,3.68-4.91-.67,1.45-1.36,2.9-2.08,4.33-.23.47,1.93.14,2.26-.37.63-1,1.25-2,1.87-3l-.93,2c-.26.57,1.91.07,2.17-.24l.09-.11C119,406.77,118.83,403.39,118.65,400Z"/><path class="cls-6" d="M97.25,404.94l.15-1.69c.07-.78-1.07-.75-1.75-.4l.29-.46c.43-.67-.38-.8-1.06-.73l2.35-2.44c1-1-1.12-1-1.67-.7l-.38.23c.6-.8-1-.88-1.54-.7l-.69.27.59-.74c.61-.77-.27-1.05-1-1l1-.9c1-.88-.92-1-1.42-.84L91,395.3c.7-.6,1.39-1.22,2.06-1.86.9-.86-.85-1.15-1.42-.84s-.9.46-1.35.68c.56-.44,1.12-.87,1.67-1.33,1-.82-.89-1.08-1.42-.84l-1.43.65,2.73-2c1.18-.86-.41-1.35-1.21-1l-.83.37c.77-.68-.61-1.1-1.15-.92l-2.59.82,3.84-2.76c1.21-.87-.43-1.31-1.21-1l-2.51,1,2.61-1.91c1.17-.86-.41-1.36-1.21-1L85,384.38l2.62-2.1c1.13-.91-.39-1.36-1.21-1L82.21,383,87,378.72c1-.86-.88-1.08-1.42-.84L83.1,379c.57-.48,1.15-1,1.75-1.4,1-.77-.11-1.28-.92-1.12a17.3,17.3,0,0,0-4.79,1.66c-1.39.72-.13,1.72,1,1.15l.35-.16c-.77.69-1.53,1.4-2.26,2.16-.89.92.86,1.09,1.42.84l2.27-1-3.73,3.36a6.83,6.83,0,0,1,.6,1.55l0,0,3.38-1.41-2.82,2.26c-1.13.9.39,1.37,1.21,1l1.63-.7-1.73,1.26c-1.2.88.43,1.31,1.21,1l2.35-.9-3,2.14c-1,.71.08,1.38.92,1.12l3.41-1.09L83.86,392c-.76.64.25,1,1,.94L83.35,394a6.06,6.06,0,0,1,1,1.48l.77-.35-.39.27a1.27,1.27,0,0,0-.29.26,6.78,6.78,0,0,1,.29.79,1.42,1.42,0,0,0,.92.07c.74-.21,1.45-.44,2.16-.68-.54.44-1.08.88-1.64,1.31-1.19.89.42,1.31,1.21,1l1.67-.62-2,1.79c-.94.84.87,1.12,1.42.84l1.17-.58-.63.8c-.76,1,.6,1.05,1.36.83l-1.12,1.14c-1,1,1.12,1,1.67.7l.56-.34-2.06,2.15c-.86.9.84,1.15,1.42.84l1.09-.59L91,406.58c-.69,1.08,1.61.71,2,.35l.2-.18-.43,2.47c-.14.79,1.1.73,1.8.36l-.27,3c-.1,1.08,2.13.64,2.3-.23l1.31-6.79C98,405.15,97.67,405,97.25,404.94Z"/><path class="cls-4" d="M162.49,386.83a4.27,4.27,0,0,0-1.08-2.2c-.15-.2-.3-.4-.46-.63l-20.31-29a1.43,1.43,0,0,0-1.5-.37L96.68,365.93a1.36,1.36,0,0,0-.92.67,1,1,0,0,0-.19.37l-.51,2q-7.59,2.14-15.19,4.27l-.11,0c-.79.11-1.65.59-1.67,1.37l-.14,6.16c0,.51-.07,1.09-.13,1.7a12.23,12.23,0,0,0,0,3.9,19.89,19.89,0,0,0,3,5.62c.54.81,1,1.58,1.46,2.3L95.74,418a1.14,1.14,0,0,0,.85.54l.3,0a2.66,2.66,0,0,0,1.62-.58c5-1.55,10.3-3.12,16.43-4.91l.35,1.13a1.12,1.12,0,0,0,1.16.7,1.81,1.81,0,0,0,.48-.06L148.65,406c.81-.23,1.65-.42,2.55-.62a26.61,26.61,0,0,0,5.28-1.57,3.16,3.16,0,0,0,1.31-1.1l0-.07c.73-2.88,1.63-5.78,2.51-8.57.7-2.25,1.43-4.59,2.08-6.92l0-.13.05-.15ZM97,405a.67.67,0,0,0,0,.09h0c-.27,2.11.21,7.12,0,9.2h0L85.9,393.73c-.52-.91-1.25-2-2-3.07a27.29,27.29,0,0,1-3.42-5.79c0-.38.14-3.15.17-4.3,0-.51,0-1.22,0-1.93,0-.4.34-1.85.34-2.21,5.66,9,11.2,19.64,16,28.5Zm59-18.91H156c-11.92,3.63-24,7.2-36,10.68a26.86,26.86,0,0,0-2.51-3.49c-.54-.68-1.06-1.32-1.43-1.87L99.94,367.56a.93.93,0,0,0-.27-.27l39-10.38L156,381.77c.37.52.83,1.09,1.32,1.69s1.19,1.45,1.7,2.2A14.23,14.23,0,0,1,156.05,386.1ZM94.28,371.49l4.23-1.12,18.33,27.07.17.23q-8.7,2.51-17.36,5c-5.47-10.07-10.73-19-16.53-28.16C85.39,373.84,89.34,372.79,94.28,371.49ZM99.73,411c.22-2,.44-4,.7-6q8.76-2.46,17.6-5a19.09,19.09,0,0,1-.55,3.8c-.16.75-.31,1.45-.39,2.07l-.62,4.65-.1,0c-6.38,1.85-11,2.52-16.16,4.1C100.39,413.05,99.56,412.51,99.73,411Zm19.3.94.83-6.22c.08-.6.23-1.31.4-2.06a10.34,10.34,0,0,0,.58-3.51c11.52-3.34,23.09-7.77,34.6-11.27l.08,0a5.82,5.82,0,0,1,2.07-1.16,11.89,11.89,0,0,1,2.26-.48,6.15,6.15,0,0,1-.33,1.14c-.07.2-.14.4-.2.59l-3.5,11.69c0,.12-.1.28-.16.44a6.33,6.33,0,0,0-.3.92c-4.12,1-8.26,2.2-12.27,3.38-2.09.62-4.26,1.25-6.38,1.85L119,412.12A1,1,0,0,0,119,411.92Z"/><path class="cls-3" d="M159.31,538.86l-.08-.09,0,0-.06-.12-3.2-4.81-.13-.19-.23,0-.19,0a.84.84,0,0,0-.12-.23,1.3,1.3,0,0,0-.77-.44l.5-.57-1.48-2.2-.24-.25-.3.13a.74.74,0,0,0-.17.1l-5,4.09q-2.32,1.68-4.66,3.3l9.92-8.11-.45-.67L152,528l-.18-.26h0l-.39-.55-1-1.39-.23-.31-.32.22c-2,1.36-3.83,2.68-5.65,4l5.41-5-.21-.28-2.36-3.23-.24-.33-9.64,7.84,9-8.72-1.14-1.58h-.21a3.18,3.18,0,0,0-1,.19c.62-.65.29-1.12.17-1.25-.57-.62-2.29-.48-2.94.07l-9.69,8.24c3.68-3.66,7.36-7.19,11-10.55l.25-.23-.31-.46c-.29-.44-.59-.88-.87-1.33l-.16-.25-.28.08a1.79,1.79,0,0,0-.72.37l-4.8,4.35c1.83-1.81,3.55-3.55,5.2-5.24l.21-.22-.44-.71c-.18-.29-.36-.59-.54-.89l-.13-.22-.25,0a2.27,2.27,0,0,0-1.32.52l-2.49,2.44,2.89-3.13c.54-.6.41-1.11.1-1.39a1.15,1.15,0,0,0-.24-.16l-3,.75q-4.47,4.87-9.36,9.88,3-3.51,5.94-6.85c.67-.76.24-1.26.1-1.39a2.46,2.46,0,0,0-2.86.21L127.72,513a.86.86,0,0,0-.1-1.12,1.36,1.36,0,0,0-.7-.3l-2.17.54c-2.32,2.16-4.63,4.39-6.88,6.68,1.18-1.64,2.33-3.2,3.47-4.71a1,1,0,0,0,.21-1.19c-1.28.31-2.57.62-3.84.94l-1.23,1.31a.91.91,0,0,0,.08-.89.78.78,0,0,0-.08-.1c-1.39.36-2.78.75-4.15,1.19l-.27.25.13-.21a45,45,0,0,0-7.44,3,6.16,6.16,0,0,1-5.39.34c-.5.13-1,.26-1.5.4l-.09,0-.07.07q-.75.71-1.48,1.46l-.32.33.38.27a16.24,16.24,0,0,1,1.54,1.25l.29.26.27-.28c.44-.47.88-.92,1.3-1.34q-.46.92-1,1.83l-.14.25.2.21a24.18,24.18,0,0,1,1.67,2l.31.4.31-.4c1.55-2,3.16-3.86,4.82-5.67-1.43,2.41-2.78,4.84-4.05,7.25l-.11.21.13.2c.51.76,1,1.55,1.5,2.34l.35.57c.42.68.84,1.35,1.28,2l.1.15h0l.22.35,1.26,1.92.16.24.18.28,0,0h0l.95,1.42.23.34,2.15,3.18h0l2.8,4.18.29-.1a1.86,1.86,0,0,0,.6-.32l1.4-1.19-2,2,.18.27,1.18,1.81.14.21,1.12,1.76.24.38,3-2.45-2.67,2.38-.25.22.43.7.49.79.12.2h.23a2.62,2.62,0,0,0,1.39-.4l0,0a.72.72,0,0,0,0,.29.9.9,0,0,0,.54.56l.24.11.19-.19a5.68,5.68,0,0,1,3.92-1.54H124l.1-.07.87-.6a.91.91,0,0,0,0,.17v.45l.45-.05c.47-.06.94-.14,1.4-.24l-.86,1c-.4-.46-2.29,0-2.65.3a49.23,49.23,0,0,1-6.1,4.19c-.12.07-.42.24-.42.55l0,.28.2.11a2.37,2.37,0,0,0,1.22,0c-.89,1-1.75,2-2.59,3l-.22.32.22.25c.33.38,1.85,0,2.35-.14l-2.13,2.39-.24.3.25.26c.35.38,2.38-.08,2.69-.31l1.06-.84-3.68,4.12-.2.24.16.25c.11.16.4.22.73.22a7.22,7.22,0,0,0,1.44-.2,5.74,5.74,0,0,0,1.86-.45l1.47-1.09a.46.46,0,0,0,.13.35c.44.47,2.34-.1,2.64-.34l2.42-2-.8.92-.24.31.26.26c.36.35,2.32,0,2.69-.34l.9-.8a.48.48,0,0,0,.1.16c.44.45,2.3-.06,2.64-.35.86-.74,1.74-1.52,2.68-2.37l-.86,1-.25.3.25.27c.36.38,2.39-.08,2.69-.31.81-.63,1.65-1.31,2.54-2,.1.14.33.32,1.6.07a4.37,4.37,0,0,0,2.28-.34l0,0h0l.11-.1.08-.05.1.09c.36.36,2.33,0,2.69-.34l1.66-1.53,0,0c.38.36,2.36-.09,2.68-.37l.08-.07a6.08,6.08,0,0,0,2.34-.5,5.16,5.16,0,0,0,2.21-2.83l.06-.24L155,553l0,0,2.47-3.89.14-.25-.15-.21c-.11-.16-.34-.23-.71-.24l1-1.33.17-.25-.16-.23c-.14-.2-.53-.23-.93-.2q1.14-1.32,2.26-2.65l.25-.31-.3-.26a2.74,2.74,0,0,0-1.63,0q.69-.93,1.31-1.83l.21-.35-.32-.22a3.49,3.49,0,0,0-2.56.33.52.52,0,0,0-.16-.13,3.67,3.67,0,0,0-2.69.66l-.48.59a.7.7,0,0,0-.19-.24,2.57,2.57,0,0,0-2.55.25l-1.53,1.59a4.23,4.23,0,0,0-2.39.34,3.5,3.5,0,0,0-2.51.44l-.56.54a.47.47,0,0,0-.1-.52,1.34,1.34,0,0,0-1-.15l2.34-2.08.19,0a.72.72,0,0,0,0,.34c.12.36.5.6,1.08.68h.08l.08,0,1.83-.49.09,0,.19-.17h.37l1.07-.27.13-.06c1-.73,2.08-1.48,3.26-2.27a1.33,1.33,0,0,0,.32.2,2.44,2.44,0,0,0,1.89,0l.83-.44a3.66,3.66,0,0,0,.65.64l.15.12,3-.73,0-.25a.87.87,0,0,0,0-.41Zm-26.45,8.7c.78-.33,1.58-.65,2.38-1l-1.12,1a2.62,2.62,0,0,0-1.33-.06ZM130.3,549l.25-.31-.13-.11.87-.36q-1.05,1.06-2.15,2.12C129.56,549.87,129.94,549.42,130.3,549Zm1,4.73q-1.68,1.53-3.39,3l.92-1,10.19-9.9a.48.48,0,0,0,.12-.59l1.09-.34C137.45,547.51,134.61,550.3,131.3,553.72Z"/><path class="cls-6" d="M111.32,542.47c-2.62-5.57-6.56-10.28-10-15.29q-1.19,1.83-2.41,3.65l2.14-4q-.61-.9-1.19-1.81c-1.23,2.18-2.54,4.32-3.89,6.42,1.12-2.47,2.18-5,3.24-7.46-.19-.31-.37-.63-.56-1-.59.06-1.3.3-1.46.67a59.68,59.68,0,0,1-3.08,5.91l2.57-5.46c.35-.73-1.9-.22-2.2.16-2.08,2.64-4.17,5.26-6.34,7.82A86.44,86.44,0,0,0,93,523.9c.33-.72-1.9-.25-2.2.16l-3.45,4.75,1.39-3.42c.34-.84-1.94-.13-2.2.16q-.7.77-1.36,1.56c-.1-.49-1.54-.18-1.83,0a8.27,8.27,0,0,0-2.79,2.81c-.34.55.48.64,1.21.47a13.41,13.41,0,0,0-.42,2.12c-.1.9,1.93.28,2.2-.16s.38-.6.57-.9l-1.7,4.18c-.23.56.87.43,1.6.17-.26.57-.5,1.16-.72,1.76-.32.89,1.95.1,2.2-.16,2.08-2.18,4-4.45,6-6.76l-4.13,8.77a10.85,10.85,0,0,0-1.22,2.6c-.24.8,2,.28,2.28-.31l1.37-2.91a30.84,30.84,0,0,1,1.81-2.56c-1.08,2.2-2.21,4.37-3.44,6.5-.52.91,1.74.52,2.11,0l.94-1.32-1.75,3.31c-.49.93,1.75.54,2.11,0q2-2.91,4-5.81l-4.8,8.8c-.29.54.41.65,1.09.52-.8,1.84,2.89,2,3.72.41l.62-1.15q-1.75,3.45-3.56,6.87c-.74,1.39,1.07,1.91,2.39,1.56l-.26.49c-1.05,2,2.55,2,3.45.9s1.55-1.88,2.32-2.83l-.36.65c-1,1.85,2.58,2.15,3.45.9l6.05-8.78c-1.11,2.35-2.2,4.72-3.23,7.11-.85,2,2.61,2.18,3.45.9l.36-.56c.25,1.1,2.87,1.07,3.61.1s1.48-2,2.22-2.94C114.25,548.83,112.79,545.59,111.32,542.47Z"/><path class="cls-6" d="M117.08,553.74q-1.55,2.54-3.21,5l2.47-5.39c.24-.51-1.95-.11-2.26.37-1.15,1.79-2.33,3.55-3.54,5.29l2.74-5.27c.27-.51-1.89-.1-2.17.24l-.43.54c-.1-.3-1.91,0-2.19.35q-3,3.67-5.92,7.46c.95-1.85,1.94-3.67,3-5.47.29-.48-1.88-.07-2.17.24-.51.56-1,1.13-1.5,1.7l.82-1.63c.29-.58-1.81,0-2,.11a22.8,22.8,0,0,0-4,4.06c-.42.54,1.12.42,1.81.08L96,566.38c-.25.49,1.89.16,2.17-.24.43-.61.87-1.21,1.31-1.81-1,2-1.88,3.93-2.72,6-.24.56,1.92.12,2.17-.24,1.25-1.79,2.54-3.55,3.84-5.3L100.3,569c-.23.39,1.91.18,2.26-.37,1.28-2,2.61-4,4-5.89l-2.85,5.49c-.26.51,1.89.11,2.17-.24,1.45-1.81,2.85-3.66,4.22-5.53l-1.8,3.92c-.26.56,1.91.09,2.17-.24,1.28-1.6,2.49-3.25,3.68-4.91-.67,1.45-1.36,2.9-2.08,4.33-.23.47,1.93.14,2.26-.37.63-1,1.25-2,1.87-3l-.93,2c-.26.57,1.91.07,2.17-.24l.09-.11C117.46,560.49,117.27,557.12,117.08,553.74Z"/><path class="cls-6" d="M95.69,558.66l.15-1.69c.07-.78-1.07-.75-1.75-.4l.29-.46c.43-.67-.38-.8-1.06-.73l2.35-2.44c1-1-1.12-1-1.67-.7l-.38.23c.6-.8-1-.88-1.54-.7l-.69.27.59-.74c.61-.77-.27-1.05-1-1l1-.9c1-.88-.92-1-1.42-.84l-1.16.43c.7-.6,1.39-1.22,2.06-1.86.9-.86-.85-1.15-1.42-.84s-.9.46-1.35.68c.56-.44,1.12-.87,1.67-1.33,1-.82-.89-1.08-1.42-.84l-1.43.65,2.73-2c1.18-.86-.41-1.35-1.21-1l-.83.37c.77-.68-.61-1.1-1.15-.92l-2.59.82L88.34,540c1.21-.87-.43-1.31-1.21-1l-2.51,1L87.22,538c1.17-.86-.41-1.36-1.21-1l-2.57,1.11,2.62-2.1c1.13-.91-.39-1.36-1.21-1l-4.19,1.75,4.76-4.29c1-.86-.88-1.08-1.42-.84l-2.46,1.09c.57-.48,1.15-1,1.75-1.4,1-.77-.11-1.28-.92-1.12a17.3,17.3,0,0,0-4.79,1.66c-1.39.72-.13,1.72,1,1.15l.35-.16c-.77.69-1.53,1.4-2.26,2.16-.89.92.86,1.09,1.42.84l2.27-1-3.73,3.36a6.83,6.83,0,0,1,.6,1.55l0,0,3.38-1.41-2.82,2.26c-1.13.9.39,1.37,1.21,1l1.63-.7-1.73,1.26c-1.2.88.43,1.31,1.21,1l2.35-.9-3,2.14c-1,.71.08,1.38.92,1.12l3.41-1.09-1.53,1.29c-.76.64.25,1,1,.94l-1.47,1.08a6.06,6.06,0,0,1,1,1.48l.77-.35-.39.27a1.27,1.27,0,0,0-.29.26,6.78,6.78,0,0,1,.29.79,1.42,1.42,0,0,0,.92.07c.74-.21,1.45-.44,2.16-.68-.54.44-1.08.88-1.64,1.31-1.19.89.42,1.31,1.21,1l1.67-.62-2,1.79c-.94.84.87,1.12,1.42.84l1.17-.58-.63.8c-.76,1,.6,1.05,1.36.83l-1.12,1.14c-1,1,1.12,1,1.67.7l.56-.34-2.06,2.15c-.86.9.84,1.15,1.42.84l1.09-.59-.94,1.46c-.69,1.08,1.61.71,2,.35l.2-.18-.43,2.47c-.14.79,1.1.73,1.8.36l-.27,3c-.1,1.08,2.13.64,2.3-.23l1.31-6.79C96.41,558.88,96.1,558.69,95.69,558.66Z"/><path class="cls-4" d="M160.93,540.55a4.27,4.27,0,0,0-1.08-2.2c-.15-.2-.3-.4-.46-.63l-20.31-29a1.43,1.43,0,0,0-1.5-.37L95.11,519.65a1.36,1.36,0,0,0-.92.67,1,1,0,0,0-.19.37l-.51,2Q85.9,524.84,78.3,527l-.11,0c-.79.11-1.65.59-1.67,1.37l-.14,6.16c0,.51-.07,1.09-.13,1.7a12.23,12.23,0,0,0,0,3.9,19.89,19.89,0,0,0,3,5.62c.54.81,1,1.58,1.46,2.3l13.49,23.69a1.14,1.14,0,0,0,.85.54l.3,0a2.66,2.66,0,0,0,1.62-.58c5-1.55,10.3-3.12,16.43-4.91l.35,1.13a1.12,1.12,0,0,0,1.16.7,1.81,1.81,0,0,0,.48-.06l31.72-8.84c.81-.23,1.65-.42,2.55-.62a26.61,26.61,0,0,0,5.28-1.57,3.16,3.16,0,0,0,1.31-1.1l0-.07c.73-2.88,1.63-5.78,2.51-8.57.7-2.25,1.43-4.59,2.08-6.92l0-.13.05-.15ZM95.47,558.74a.67.67,0,0,0,0,.09h0c-.27,2.11-.5,4.26-.73,6.34l0,.43L84.33,547.45c-.52-.91-1.25-2-2-3.07a27.29,27.29,0,0,1-3.42-5.79c0-.38.14-3.15.17-4.3,0-.51,0-1.22,0-1.93,0-.4,0-.8,0-1.16,5.66,9,11.52,18.59,16.3,27.45Zm59-18.91h-.06c-11.92,3.63-24,7.2-36,10.68A26.86,26.86,0,0,0,116,547c-.54-.68-1.06-1.32-1.43-1.87L98.37,521.29a.93.93,0,0,0-.27-.27l39-10.38,17.41,24.85c.37.52.83,1.09,1.32,1.69s1.19,1.45,1.7,2.2A14.23,14.23,0,0,1,154.49,539.83ZM92.71,525.22l4.23-1.12,18.33,27.07.17.23q-8.7,2.51-17.36,5c-5.47-10.07-10.73-19-16.53-28.16C83.83,527.56,87.77,526.52,92.71,525.22Zm5.46,39.48c.22-2,.44-4,.7-6q8.76-2.46,17.6-5a19.09,19.09,0,0,1-.55,3.8c-.16.75-.31,1.45-.39,2.07l-.62,4.65-.1,0c-6.38,1.85-12,3.52-17.16,5.1C97.83,567.78,98,566.24,98.17,564.7Zm19.3.94.83-6.22c.08-.6.23-1.31.4-2.06a16.53,16.53,0,0,0,.58-4.51c11.52-3.34,23.09-6.77,34.6-10.27l.08,0a5.82,5.82,0,0,1,2.07-1.16,11.89,11.89,0,0,1,2.26-.48A6.15,6.15,0,0,1,158,542c-.07.2-.14.4-.2.59l-3.5,11.69c0,.12-.1.28-.16.44a6.33,6.33,0,0,0-.3.92c-4.12,1-8.26,2.2-12.27,3.38-2.09.62-4.26,1.25-6.38,1.85l-17.73,4.95A1,1,0,0,0,117.46,565.64Z"/></g></svg>