<svg id="Camada_1" data-name="Camada 1" xmlns="http://www.w3.org/2000/svg" viewBox="0 0 168 624"><defs><style>.cls-1{fill:#009dff;}.cls-2{fill:#09519f;}.cls-3{fill:#fff;}.cls-4{fill:#f9c236;}</style></defs><title>confirmacao</title><path class="cls-1" d="M107.56,135.22c4.6-2.9,9.1-6,13.5-9.1a55.47,55.47,0,0,1-7.5,6.1ZM71.46,20c-6.9,5.8-14.7,10.4-22.3,14.8l-3.4,2C54.26,31.12,62.76,25.42,71.46,20Zm-15-.2A142.45,142.45,0,0,1,44,28.12l6-4.2C52.06,22.52,54.26,21.12,56.46,19.82Zm44.9,12.8c2.3-1.9,4.6-3.7,7-5.4C106.16,29.12,103.76,30.92,101.36,32.62Zm30.5,74.9c-1.3,1-2.6,2-4,2.9C129.16,109.52,130.56,108.52,131.86,107.52Zm-28,13.8c-6.7,5.4-13.8,11.2-21.6,15.1A146.73,146.73,0,0,1,103.86,121.32Zm25.3-23c-4.3,3-8.8,5.7-13.4,8.3,4.9-3.6,9.9-7.1,15.1-10.2l4.5-2.7C133.36,95.42,131.16,96.92,129.16,98.32Zm-64.8,35,10.4-7.4a64,64,0,0,1-10.6,8.2A3.09,3.09,0,0,1,64.36,133.32Zm32.6-31c-4.2,3-8.5,5.9-12.9,8.6-2.3,1.4-4.6,2.7-6.9,4.1,7.6-5.7,15.2-11.3,23.1-16.6,4.3-2.9,8.8-5.6,13.2-8.3-4.3,3.1-8.5,6.3-12.8,9.5Zm60.3-51.2a12.19,12.19,0,0,0-5.9.9l.3-.3c1.5-1.4-.4-2.5-1.6-2.6a11.92,11.92,0,0,0-8.1,2.2l-1.3.9c1.9-1.5,3.8-2.9,5.7-4.4,1.1-.9,1.9-2.5.1-3.1a8.2,8.2,0,0,0-4.4-.1c.5-.5,1.1-1,1.6-1.5,1-.9,2-2.4.1-3.1-2.5-.9-5.7.1-8,1.3-3.3,1.7-6.6,3.5-9.8,5.3a113.25,113.25,0,0,0,10.6-10.2c1.3-1.5-.3-2.5-1.6-2.6a10.45,10.45,0,0,0-2.5,0,104.66,104.66,0,0,0,11.4-10.7c1.3-1.5-.3-2.5-1.6-2.6a11.64,11.64,0,0,0-8.1,2.2,370.48,370.48,0,0,1-33.3,25.4c-2.7,1.7-5.3,3.4-8,5.1,13.3-9.4,26.2-19.3,37.2-31.4,1.3-1.5-.3-2.5-1.6-2.6a11.56,11.56,0,0,0-3.2.1,15.92,15.92,0,0,0,1.3-2.2c1.2-2.2-4-2-4.8-1.8a8.33,8.33,0,0,0-1.5.4c.7-.6,1.3-1.2,1.9-1.8,1.4-1.4-.4-2.5-1.6-2.6a11.92,11.92,0,0,0-8.1,2.2c-5.6,4-11.1,8-16.7,12-1.5.9-3,1.7-4.5,2.5-9.4,5.3-18.4,11.2-27.6,16.8l-3.1,1.8.3-.2c19.1-12.3,39.2-23.2,56.6-37.7,1.7-1.4,1.4-3.1-.9-3.4a11.78,11.78,0,0,0-8.1,2.2,118.2,118.2,0,0,1-10.4,7c2.3-1.7,4.7-3.4,6.9-5.2,1.8-1.4,1.4-3.1-.9-3.4A12.32,12.32,0,0,0,96,8.12l-7.8,5.7a47.63,47.63,0,0,0,5-6.6c1-1.6-.1-2.4-1.7-2.6a12.2,12.2,0,0,0-7,1.5c-2.7,1.4-5.4,2.9-8.1,4.4.3-.4.7-.8,1-1.2,2.9-3.7-6.3-2.1-7.3-1.7-9.7,3.4-18.9,8.6-27.5,14.2a146.32,146.32,0,0,0-24.5,19.6c-1.5,1.5.1,2.2,1.6,2.5a71,71,0,0,0-9.4,8.8c-1.3,1.5.3,2.5,1.6,2.6a11.46,11.46,0,0,0,7-1.5c.6-.3,1.1-.7,1.7-1a74.85,74.85,0,0,0-9,7.9c-1.4,1.4.4,2.5,1.6,2.6a13.26,13.26,0,0,0,7-1.5c1.1-.5,2.2-1.1,3.3-1.6-4.3,3.7-8.6,7.7-12.6,11.8-1.4,1.4.4,2.5,1.6,2.6a6.69,6.69,0,0,0,2,0c-1.5,1.5-2.9,3.1-4.3,4.7s.3,2.5,1.6,2.6a10.75,10.75,0,0,0,3.1-.1c-1.3.9-2.7,1.8-4,2.8-1.9,1.4-1.3,3.1.9,3.3a11.78,11.78,0,0,0,8.1-2.2l4-2.8c11.9-8,24.7-14.7,37.2-21.7-4.6,3.6-9.3,7.2-14,10.6-4.4,2.3-8.9,4.5-13.4,6.6-7,3.3-16.8,7.1-19.9,14.9-1.1,2.8,5.4,1.7,6.3,1.5a35.74,35.74,0,0,0,6-2.1c-2.6,1.9-5.2,3.9-7.8,5.8-1.2.8-1.9,2.5-.1,3.1,2.5.9,5.8-.1,8-1.3l.1-.1a53.5,53.5,0,0,0-7.4,8.3c-1.1,1.5.1,2.4,1.7,2.6a12.2,12.2,0,0,0,7-1.5c.9-.5,1.9-1,2.8-1.5-2.3,2.1-4.6,4.2-6.9,6.4-1.4,1.4.4,2.5,1.7,2.6a10.75,10.75,0,0,0,5.3-.8,18.32,18.32,0,0,0-4.1,8.8c-.5,2.9,4.9,1.9,6.3,1.5a48.51,48.51,0,0,0,9.2-3.5c-1.8,1.9-3.5,3.9-5.2,6-1.2,1.5.2,2.5,1.7,2.6a11.83,11.83,0,0,0,3.7-.2,10.7,10.7,0,0,0-1.4,1.6c-1.3,1.5.3,2.5,1.7,2.6a11.46,11.46,0,0,0,7-1.5l.5-.3c-1.1,1-2.2,2.1-3.3,3.2-1.4,1.4.4,2.5,1.7,2.6a10.85,10.85,0,0,0,4-.3c.2,0,.5-.1.8-.1l.3,1.2c.7,2.1,4.9,1.2,6.3.8l.7-.2c-1.2,1.5.2,2.4,1.7,2.6a10.45,10.45,0,0,0,2.5,0c-1,1.9,3.8,2.1,4.8,1.9,2.2-.4,4.4-1,6.5-1.6-.6.3-1.2.7-1.8,1-.9.5-3.3,2.1-1.9,3.4s4.3.7,5.9.2,2.9-.8,4.3-1.3c-.8.7-1.3,1.6-.5,2.4,1.8,1.6,5.5.5,7.4-.3,10.6-4.1,21-8.4,30.3-14.4,1.8-.9,3.6-1.9,5.4-2.9,11.1-6.2,22.6-14.7,26.8-27.4.7-2-1.9-2.1-4.5-1.7a45.68,45.68,0,0,0,5.4-6.9c1.1-1.9-.1-2.5-1.9-2.5a30,30,0,0,0,6.2-9.5c.4-1.1-.7-1.6-1.6-1.8a19.22,19.22,0,0,0,1.6-4.2c.6-2.3-3.6-2-4.8-1.8a20.48,20.48,0,0,0-2.4.5c1.6-1.7,3.2-3.4,4.7-5.2,1.2-1.5-.2-2.4-1.6-2.6a6.6,6.6,0,0,0-1.4-.1,35.53,35.53,0,0,0,4.8-6.7c1.3-2.3-3.8-1.8-6.4-1.3a102.38,102.38,0,0,0,8.5-6.6C159.76,53,159.56,51.42,157.26,51.12Z"/><path class="cls-2" d="M14.26,77.72c0-15.3,6.1-31.1,16.6-43.2,10.9-12.4,25.3-20,40.7-21.4,1.2-.1,2.4-1,2.3-1.8,0-.3-.2-1-1.8-.8a65.91,65.91,0,0,0-33.7,13c1.5-1.2,3.1-2.4,4.7-3.5a69.86,69.86,0,0,1,39-11.6,71.18,71.18,0,0,1,27.6,5.5c17.3,7.4,30.6,21.9,37.4,41a81.45,81.45,0,0,1,2.4,31.1c-1.9,16.1-8.4,30.2-19,40.7a76.12,76.12,0,0,1-44.8,21.1,60.86,60.86,0,0,1-12.8.1,61.81,61.81,0,0,1-8.4-2.4C35.76,135.12,14.26,106,14.26,77.72ZM38,134.22a61.2,61.2,0,0,1-9.9-9.8A101.82,101.82,0,0,0,38,134.22Zm54.8,14.9c2.8-.6,5.6-1.3,8.3-2.1a81.34,81.34,0,0,0,36.8-23.6,68.13,68.13,0,0,1-26,20.6A56.92,56.92,0,0,1,92.76,149.12Zm24.7-140.6-.8-.5a1.55,1.55,0,0,0-.8-.2c-1.1,0-2.9.7-3.1,1.5a.79.79,0,0,0,.5.9,66.64,66.64,0,0,1,9.3,6.4,73.52,73.52,0,0,0-40.8-10.9c-22.6.7-43.2,10.3-56.6,26.6C13.56,46.52,7.56,66.12,9,86s10.3,38,24.5,49.7c10.2,8.4,23.1,13.5,37.5,14.6a71.64,71.64,0,0,0,14.6,1.5,69.3,69.3,0,0,0,36.8-10.5,71,71,0,0,0,33.5-52.6,76.38,76.38,0,0,0-4.3-35.3A75.58,75.58,0,0,0,117.46,8.52Z"/><path class="cls-2" d="M137.66,84.72c-.1-4.4,0-8.8,0-13.1,0-6.8,1.3-14.2-3.5-19.7-4.4-4.9-11.9-7.7-17.6-11-7.3-4.2-14.7-8.3-22-12.5-2.9-1.6-6.7-4.9-9.9-5.5-2.7-.5-5.1,1.8-7.2,3.1-7.8,5-15.7,10-23.5,15.1-5.8,3.7-12.7,7-17.6,12-4.4,4.5-5.3,9.5-5.5,15.5-1.6,3.1-2.7,7.5-.1,8.4-.1,1.4-.2,2.7-.4,4.2a8.63,8.63,0,0,0,.4,2.8c-1,2.2-1.7,4.8-.9,6.4a7.29,7.29,0,0,0-1.2,5.4,3.19,3.19,0,0,0,2.2,2.8c-.1,4.6-.2,9.2.1,13.6a8,8,0,0,0,1,4.3c1.3,2.2,3.3,3.3,4.7,5.2a2,2,0,0,0,2,.8c3-.6,6.7.4,9.7.5,3.7.1,7.6-.1,11.3-.2,3,0,4.8.4,7.7-.4,1-.8,1.1-.7.4.2h2c1.8,0,3.6-.1,5.4-.1,1.2,2.5,4,1.5,6.3,0h0c1.2,1.9,3.4,1.4,5.5.1,1.2.1,2.3.4,3.4.4s3.3-1.3,4.4-.2a2.06,2.06,0,0,0,1.5.3c.6-.2,1.1-.3,1.6-.5h2.4c1,2.3,3.4,1.8,5.8.5,1.4,2.5,6.1,0,8.9-.5,6.4-1.1,9.9,1.5,15.5-2.3,8.9-6.1,7.2-18.8,7.1-28.2C138.36,89.62,137.76,87.32,137.66,84.72Z"/><path class="cls-3" d="M135.66,80.72c-.1-4.4,0-8.8,0-13.1,0-6.8,1.3-14.2-3.5-19.7-4.4-4.9-11.9-7.7-17.6-11-7.3-4.2-14.7-8.3-22-12.5-2.8-1.6-6.5-4.7-9.7-5.5a165.18,165.18,0,0,1-19,13.2c-6,3.7-12.1,7.3-17.9,11.2-4.7,3.2-12.4,9-17.4,11.9-2.1,3.6.4,4.9.2,9.4-1.6,3.1-2.7,7.5-.1,8.4-.1,1.4-.2,2.7-.4,4.2a8.63,8.63,0,0,0,.4,2.8c-1,2.2-1.7,4.8-.9,6.4a7.29,7.29,0,0,0-1.2,5.4,3.19,3.19,0,0,0,2.2,2.8c-.1,4.6-.2,9.2.1,13.6a8,8,0,0,0,1,4.3c1.3,2.2,3.3,3.3,4.7,5.2a2,2,0,0,0,2,.8c3-.6,6.7.4,9.7.5,3.7.1,7.6-.1,11.3-.2,3,0,4.8.4,7.7-.4,1-.8,1.1-.7.4.2h2c1.8,0,3.6-.1,5.4-.1,1.2,2.5,4,1.5,6.3,0h0c1.2,1.9,3.4,1.4,5.5.1,1.2.1,2.3.4,3.4.4s3.3-1.3,4.4-.2a2.06,2.06,0,0,0,1.5.3c.6-.2,1.1-.3,1.6-.5h2.4c1,2.3,3.4,1.8,5.8.5,1.4,2.5,6.1,0,8.9-.5,6.4-1.1,9.9,1.5,15.5-2.3,8.9-6.1,7.2-18.8,7.1-28.2C136.36,85.62,135.76,83.32,135.66,80.72Z"/><path class="cls-4" d="M132.26,89.22c.6-1.2.8-2.8,0-3.2V65.42c0-2.5.1-5.1,0-7.6a10,10,0,0,0-4.1-7.5,2,2,0,0,0-1.5-1.2c-.9-.6-1.8-1.1-2.7-1.7-3.2-1.8-6.4-3.6-9.6-5.5a1.61,1.61,0,0,0-.7-.4l-11.1-6.3c-6.8-3.9-13.6-7.7-20.5-11.6l-5,4.1c.7-.5,1.5-.9,2.2-1.4.3.1.5.3.8.4-.2.1-.3.2-.5.3-2.8,1.8-5.6,3.5-8.4,5.3-2.5,1.9-5,3.7-7.5,5.5-8.9,6.4-18.8,11.2-27.6,17.7l-.3.6a1.21,1.21,0,0,0-.5.5c0-.2.1-.4.1-.6a26.5,26.5,0,0,0-2.6,2.1c-.1.1-.2.1-.3.2a4.87,4.87,0,0,0-.1,1.2c-.1,1.6-.1,3.2-.1,4.8a6,6,0,0,1-.8.8c-1.1,1.1-1.8,5,.8,3.9v5.5c-.8,1.2-1,3.2,0,3.6v1.2c-.1.2-.3.3-.4.5-1.2,1.4-1.4,4.4.4,4v1.7L31,86.82c-1.6,1.5-1.3,5.4,1.3,3.6v11.5c-.4,1.1-.4,2.3.1,2.7a8.81,8.81,0,0,0,.2,1.7c-.7,1.3-.3,2.8.7,3a7.51,7.51,0,0,0,3.8,4.4c.2.8.8,1.2,1.8.6.5.1,1.1.2,1.7.3a24.37,24.37,0,0,0,2.7.1.89.89,0,0,0,1,0c.8,0,1.7.1,2.6.1.3.3.7.3,1.3,0,1.7,0,3.4.1,5.1.1a1.1,1.1,0,0,0,.8,0c3.1,0,6.2,0,9.3-.1.3.6,1,.8,2.1,0h0a22.6,22.6,0,0,0,2.6-.1.85.85,0,0,0,.7,0c2.4,0,4.9-.1,7.3-.1,0,1.4.8,2.5,2.4,1.1.5-.4.9-.8,1.4-1.2h2.4c0,1.3.7,2.1,2.2.8.3-.3.7-.5,1-.8h3.3c.3.6.9.7,1.9,0h4.2c.2.5.7.8,1.7.2.1-.1.2-.1.3-.2h4.4c-.2,1.5.5,2.6,2.3,1.4.7-.5,1.3-.9,2-1.4h1.6c-.3,1.3,0,2.4,1.8,1.7,1.3-.5,2.7-1.1,4-1.7h9.9c10.1-.7,9.4-10.8,9.4-18.1v-7.2Zm-97.1-7c.5-.3,1.1-.7,1.6-1-.5.5-1.1,1-1.6,1.6Zm3.3,27.7c-.2-.1-.3-.2-.5-.3.8-.5,1.5-1.1,2.3-1.6C39.66,108.72,39.06,109.32,38.46,109.92Zm5.3.8a2.19,2.19,0,0,0-.3.5h-.6l1.8-1.5A9,9,0,0,0,43.76,110.72Zm-8.7-12V97h.1l10-7.6C41.86,92.52,38.46,95.72,35.06,98.72Zm18.4,12.1c-.1.1-.2.3-.3.4h-.4c.4-.3.7-.6,1.1-.9A1.76,1.76,0,0,1,53.46,110.82Zm42.5-72a5,5,0,0,0,1.2-2.4c1,.6,2,1.1,2.9,1.7a36.39,36.39,0,0,0-7.3,3.9Zm-5.2-6c.6.4,1.3.7,1.9,1.1-2.3,1.9-4.7,3.7-7.1,5.4.9-.7,1.7-1.5,2.6-2.2A7.64,7.64,0,0,0,90.76,32.82Zm-8.8,0a5.35,5.35,0,0,0,1.6-4.1l3.2,1.8c-.1,0-.1.1-.2.1h0c-2.2,1.3-4.4,2.6-6.5,3.9C80.66,34,81.26,33.42,82,32.82Zm-11.4,48.3a3,3,0,0,0,.5-.7c.5.3,1.1.7,1.6,1,.1,0,.1.1.2.1a.1.1,0,0,0-.1.1c-.5-.6-1.4-.7-2.6.5-1.5,1.5-3.1,2.9-4.6,4.3ZM57.76,75l1.5-1.5a.35.35,0,0,1,.2.1C59,74.12,58.36,74.52,57.76,75Zm6.3,36.2H63c1.4-1.2,2.9-2.4,4.3-3.5C66.26,108.92,65.16,110,64.06,111.22Zm2.6-19.5c2.2-2,4.5-4,6.8-5.9a3.11,3.11,0,0,0,.7-.9l.3.3C71.86,87.32,69.26,89.52,66.66,91.72Zm9.3,1,10.5-8.4a3.87,3.87,0,0,0,1.3-2.7c1.7-.8,3.4-1.8,5-2.5l.4-.2v.3c-6.7,5.3-13.3,10.6-20,15.9C74.16,94.22,75.06,93.52,76,92.72Zm2.1,18.5h-4.2c6.7-4.9,13.4-9.9,20.1-14.9C88.56,101.32,83.26,106.22,78.06,111.22Zm18.1-.8a5.55,5.55,0,0,0-.6.8H95l2.7-2.1A17.38,17.38,0,0,1,96.16,110.42Zm7.4.8h-1.2c.4-.3.9-.5,1.3-.8.8-.3,1.5-.7,2.3-1Zm-.1-65c-3.8,2.9-7.6,5.8-11.4,8.8-.6.4-1.1.9-1.7,1.3-.8.5-1.7,1-2.5,1.5,5-4.6,10-9.2,14.9-14a7.2,7.2,0,0,0,1.5-3.4c1.3.7,2.6,1.5,3.8,2.2C106.46,43.72,105,45,103.46,46.22Zm24.3,9a7.94,7.94,0,0,1,1.3,2.6,72.47,72.47,0,0,1-9.7,5.7C122.36,61.22,126.16,58.52,127.76,55.22ZM114.06,46l.6.3c-.4.2-.8.5-1.2.7A4.37,4.37,0,0,0,114.06,46ZM110,58.92c2.5-2.2,5-4.5,7.3-6.9a6.66,6.66,0,0,0,1.5-3.3c1.3.7,2.6,1.5,3.9,2.2C118.46,53.62,114.26,56.32,110,58.92ZM123.16,69c1.5-1.3,1.8-4.9.2-4.6a63.3,63.3,0,0,0,6.1-3.9v4.3a1.76,1.76,0,0,0-.5.4c-4.6,3.5-9.2,7.1-13.8,10.6C117.76,73.52,120.46,71.22,123.16,69Zm-4,42.2,2.4-1.5a2.45,2.45,0,0,0,.1,1.5Zm3.2-30.3,7.1-6.8v1.4c-.1.1-.3.2-.4.3C126.86,77.62,124.56,79.32,122.36,80.92Zm7.1-.6v1.2c-.1.1-.2.1-.3.2-1.9,1.2-3.7,2.5-5.6,3.8C125.56,83.82,127.56,82.12,129.46,80.32Zm0,6V87c-.6.3-1.2.6-1.9,1C128.26,87.42,128.86,86.82,129.46,86.32Zm-5.2,24.8a15,15,0,0,0,4.6-3.3c.1-.1.1-.1.1-.2C128.36,109.42,127.06,110.82,124.26,111.12Zm5.2-11.4v.9a1.38,1.38,0,0,0-.4-.3A2.09,2.09,0,0,0,129.46,99.72Zm0,4.6c-.1-.1-.2-.3-.4-.4a2.51,2.51,0,0,1,.4-.7Z"/><path class="cls-4" d="M58.36,80.72h0c0,.1-.1.1-.1.2C58.26,80.82,58.26,80.82,58.36,80.72Z"/><path class="cls-4" d="M129.46,95.82V96h-.2C129.36,95.92,129.46,95.92,129.46,95.82Z"/><path class="cls-3" d="M40.06,45.32v25.8a1.1,1.1,0,0,0,.8,1.2c6.5,2.3,13,4.7,19.5,7,4.6,1.7,9.3,3.3,13.9,5,2.1.8,5.1,2.5,7.3,2.6,1.6.1,3.4-1.1,4.8-1.7,4.3-1.7,8.5-3.4,12.8-5.2,6.8-2.7,13.6-5.5,20.4-8.2a3.08,3.08,0,0,0,1.8-2.6V39.52c0-.8-.4-1.3-1.2-1.2-26,1.4-51.9,2.7-77.9,4.1-1.7.1-3.4,4.1-1,4,26-1.4,51.9-2.7,77.9-4.1l-1.2-1.2v29.7c.6-.9,1.2-1.8,1.8-2.6-6.5,2.6-13,5.2-19.4,7.8-4.4,1.8-8.8,3.5-13.1,5.3-1.2.5-2.5,1.1-3.7,1.5-1.5.4.6.2-.2,0-7.2-1.6-14.5-5.2-21.5-7.7-6.3-2.3-12.7-4.6-19-6.9.3.4.5.8.8,1.2V43.62C43.56,41.12,40.06,43.52,40.06,45.32Z"/><path class="cls-3" d="M119.16,62.82l.2-.2c1.4-1.2,2-4.4.7-4.7.1-1.2-.4-2.1-1.7-1.6a4.68,4.68,0,0,0,1.1-4.1c1.5-1.9,1.5-6-1.3-3.8-4.9,3.8-9.9,7.6-15,11.3,4.5-3.9,9-7.8,13.5-11.6a4.34,4.34,0,0,0,1.3-3c1.1-2,.7-5.1-1.8-3.1l-4.9,4c1-1,2-2,3-3.1,2.1-2.2.8-5.8-2-3.2-.5.4-.9.9-1.4,1.3a1.17,1.17,0,0,0-1.1-.8c1.1-2,.8-5.1-1.7-3.2-3,2.4-6.1,4.8-9.1,7.2.6-1.8-.2-4.2-2.2-2.4-1.1.9-2.1,1.9-3.2,2.8.7-1.9.1-4.6-2.1-2.7-.2.2-.4.3-.5.5h0c-.8.7-1.5,1.4-2.3,2,.7-2,.1-4.2-2-2.4-3.5,3-7,5.9-10.5,8.9l4.2-4.5c2-2.2.8-5.9-2-3.2-.8.8-1.7,1.6-2.5,2.4.6-2-.5-3.9-2.8-1.8-.4.3-.7.7-1.1,1,0-1.3-.7-2.2-2.5-1.1-1.1.7-2.1,1.4-3.2,2.1.9-1.8.7-4.2-1.7-2.9-.3-.5-1-.6-2.2.1-1,.6-1.9,1.2-2.9,1.8.2-1.6-.4-2.8-2.3-1.4-.8.6-1.5,1.1-2.3,1.6.3-1.6-.5-3.1-2.5-1.8-.9.6-1.9,1.3-2.8,1.9.4-1.6.1-3.3-1.7-2.2a33.21,33.21,0,0,0-5.8,4c-1.3,1.2-1.7,4-.8,4.7-.1.2-.2.3-.3.5a2.19,2.19,0,0,0,.4,2.7c-.7,1.3-.8,3.2.2,3.5a4.76,4.76,0,0,0-.2,2.6c-1.6,1.4-1.2,5.1.8,4.1L41,66.52c-1.3,1.7-.3,5.1,2,3.1,3.5-3,6.9-6.1,10.5-9.1l-9.3,9.9c-2.1,2.2-.8,5.9,2,3.2l3.9-3.6a21,21,0,0,0-1.4,1.7c-1.9,2.2-.8,6,2,3.2l.7-.7c.2,1.1.9,1.8,2.3.6l4.2-3.6c-.6.8-1.3,1.6-1.9,2.4-1.8,2.3.1,4.8,2.5,2.6l.2-.2c-.6,1.9,0,4.4,2.2,2.5.3-.2.5-.5.8-.7a1.37,1.37,0,0,0,1,.8c-1,.9-1.9,1.8-2.9,2.7-1.7,1.6-1.4,5.8,1.5,3.7,2.5-1.8,4.9-3.7,7.3-5.6,0,1.4.7,2.5,2.4,1.1.3-.2.5-.4.8-.6-.5,1.6.2,3.1,1.7,2.6.1,1.2.9,2.1,2.5,1,.1-.1.2-.1.3-.2-1.5,1.8-1.8,5.6,1.3,3.8,2.4-1.4,4.7-2.9,7-4.4.2,1,1,1.6,2.4.6l5.3-3.8c0,1.3.7,2.2,2.4.9,1.6-1.1,3.1-2.3,4.7-3.4.1.8.6,1.3,1.8.6,2.3-1.3,4.5-2.6,6.8-3.9.2.5.8.7,1.7.2,1.9-1,3.8-1.9,5.6-2.9.4.3,1,.2,1.8-.5l1.5-1.2c.9-.7,1.8-3.2,1.4-4.3C120.56,63.62,120.26,62.52,119.16,62.82Z"/><path class="cls-2" d="M37.66,72.52c14.1,5.5,28.3,10.8,42.5,15.9,2.6.9,2.9,1.1,5,.2,2.4-1,4.7-2,7.1-3.1,10.6-4.6,21.3-9.1,31.9-13.7,1.3-.6,2.1-3.8.1-3-10.2,4.4-20.5,8.8-30.7,13.2-2.4,1-4.8,2.1-7.2,3.1-2.8,1.2-2.5,1-5.7-.2-13.8-5.4-27.8-10.2-41.6-15.6-1.3-.5-3,2.5-1.4,3.2Z"/><path class="cls-2" d="M93.36,53.52c-1.8-1.2-2.9-.3-3.9.9-2.8,3.7-8.6,11.5-11.6,15.1-2.1-2.5-6.2-8.5-6.2-8.5-1.2-1.3-7.2,4-4.1,6.3a37.06,37.06,0,0,1,7.4,7.4,3,3,0,0,0,.4,1c1.1,1.7,3.6.5,4.6-.7,4.5-5.4,11.8-11.3,16.1-16.9C97.06,56.92,95.06,54.62,93.36,53.52Z"/><path class="cls-2" d="M118.56,94.32c-3,.4-6.4,2.4-6.8,5.8s3.4,5.6,6.4,5.2,6.3-3.1,6.3-6.3c0-3.7-4.5-5.1-7.5-4.6-.9.2-1.6,2.2-.5,2a6.15,6.15,0,0,1,5.5,1.5c2.2,2.4-.8,5.1-3.3,5.4a5.37,5.37,0,0,1-5-2.4c-1.3-2.7,2.3-4.2,4.3-4.5.9-.2,1.7-2.2.6-2.1Z"/><path class="cls-2" d="M89.16,97h18c.9,0,1.9-2,.9-2h-18c-.9,0-1.9,2-.9,2Z"/><path class="cls-2" d="M88.46,103h17.7c.9,0,1.9-2,.9-2H89.36c-.9,0-1.8,2-.9,2Z"/><path class="cls-1" d="M107.53,290.86c4.6-2.9,17.8-13.1,22.3-16.3-2.3,2.2-13.6,11.4-16.2,13.3C111.63,289,109.63,290,107.53,290.86ZM77,172c-6.8,5.8-20.3,14.1-27.9,18.6l-3.3,1.9C54.33,186.86,68.33,177.36,77,172Zm-20.6,3.5c-4,3.1-26,19.6-30.3,22.2,2-1.4,21.8-16.7,23.8-18.1C52.13,178.16,54.23,176.76,56.43,175.46Zm45,12.8c2.3-1.9,4.6-3.7,7-5.4A72.5,72.5,0,0,1,101.43,188.26Zm30.5,75c-1.3,1-2.6,2-4,2.9C129.23,265.16,130.53,264.16,131.93,263.26Zm-28,13.7c-6.7,5.4-13.8,11.2-21.6,15.1A157.29,157.29,0,0,1,103.93,277Zm25.3-22.9c-4.3,3-8.8,5.7-13.4,8.4,4.9-3.6,9.9-7.1,15.1-10.2l4.5-2.7C133.33,251.16,131.23,252.66,129.23,254.06Zm-64.9,35,10.4-7.4a64,64,0,0,1-10.6,8.2A2.35,2.35,0,0,1,64.33,289.06ZM97,258c-4.2,3-8.5,5.9-12.9,8.6-2.3,1.4-4.6,2.7-6.9,4.1,7.6-5.6,15.2-11.3,23.1-16.6,4.3-2.9,8.8-5.6,13.2-8.3-4.3,3.1-8.5,6.3-12.8,9.5Zm60.2-51.1a12.19,12.19,0,0,0-5.9.9l.3-.3c1.5-1.4-.4-2.5-1.6-2.6a11.92,11.92,0,0,0-8.1,2.2l-1.3.9c1.9-1.5,3.8-2.9,5.7-4.4,1.1-.9,1.9-2.4.1-3.1a8.2,8.2,0,0,0-4.4-.1c.5-.5,1.1-1,1.6-1.5,1-.9,2-2.4.1-3.1-2.5-.9-5.7.1-8,1.3-3.3,1.7-6.6,3.5-9.8,5.3a113.25,113.25,0,0,0,10.6-10.2c1.3-1.5-.3-2.5-1.6-2.6a10.44,10.44,0,0,0-2.5,0,104.66,104.66,0,0,0,11.4-10.7c1.3-1.5-.3-2.4-1.6-2.6-2.6-.3-8.1.5-10.1,2.2-10.6,9.2-19.8,17.5-31.3,25.4-2.7,1.7-5.3,3.4-8,5.1,13.3-9.3,26.2-19.3,37.2-31.4,1.3-1.4-.3-2.5-1.6-2.6a11.56,11.56,0,0,0-3.2.1,15.92,15.92,0,0,0,1.3-2.2c1.2-2.2-4-2-4.8-1.8a8.33,8.33,0,0,0-1.5.4c.7-.6,1.3-1.2,1.9-1.8,1.4-1.4-.4-2.5-1.6-2.6a12.48,12.48,0,0,0-8.1,2.2c-5.6,4-11.1,8-16.7,12-1.5.9-3,1.7-4.5,2.5-9.4,5.3-18.4,11.2-27.6,16.8l-3.1,1.9.3-.2c19.1-12.3,39.2-23.2,56.6-37.7,1.7-1.4,1.4-3.1-.9-3.4a11.78,11.78,0,0,0-8.1,2.2,118.2,118.2,0,0,1-10.4,7c2.3-1.7,4.7-3.4,6.9-5.2,1.8-1.4,1.4-3.1-.9-3.4a11.78,11.78,0,0,0-8.1,2.2l-7.8,5.7a47.63,47.63,0,0,0,5-6.6c1-1.6-.1-2.4-1.7-2.6a12.2,12.2,0,0,0-7,1.5c-2.7,1.4-5.4,2.9-8.1,4.4.3-.4.7-.8,1-1.2,2.9-3.7-6.3-2.1-7.3-1.7-9.7,3.4-18.9,8.6-27.5,14.2a152.11,152.11,0,0,0-24.7,19.8c-1.5,1.4.1,2.2,1.6,2.5a65.33,65.33,0,0,0-9.4,8.8c-1.3,1.5.3,2.5,1.6,2.6a11.46,11.46,0,0,0,7-1.5c.6-.3,1.1-.7,1.7-1a83.43,83.43,0,0,0-9,7.9c-1.4,1.4.4,2.5,1.7,2.6a13.26,13.26,0,0,0,7-1.5c1.1-.5,11.9-8.4,13-8.9-4.3,3.7-18.3,14.9-22.3,19.1-1.4,1.4.4,2.5,1.7,2.6a6.7,6.7,0,0,0,2,0c-1.5,1.5-2.9,3.1-4.3,4.7s.3,2.5,1.6,2.6a10.75,10.75,0,0,0,3.1-.1c-1.3.9-2.7,1.8-4,2.8-1.9,1.4-1.3,3.1.9,3.4a11.78,11.78,0,0,0,8.1-2.2l4-2.8c11.9-8,24.7-14.7,37.2-21.7-4.6,3.6-9.3,7.2-14,10.6-4.4,2.3-8.9,4.5-13.4,6.6-7,3.3-16.8,7.1-19.9,14.9-1.1,2.8,5.4,1.7,6.3,1.5a46.9,46.9,0,0,0,6-2c-2.6,1.9-5.2,3.9-7.8,5.8-1.2.8-1.9,2.5-.1,3.1,2.5.9,5.8-.1,8-1.3l.1-.1a53.5,53.5,0,0,0-7.4,8.3c-1.1,1.5.1,2.4,1.6,2.6a12.2,12.2,0,0,0,7-1.5c.9-.5,1.9-1,2.8-1.5-2.4,2.1-4.7,4.2-6.9,6.4-1.4,1.4.4,2.5,1.6,2.6a11.32,11.32,0,0,0,5.4-.8,19,19,0,0,0-4.2,8.8c-.5,2.9,4.9,1.9,6.3,1.5a48.51,48.51,0,0,0,9.2-3.5c-1.8,1.9-3.5,3.9-5.2,6-1.2,1.5.2,2.5,1.7,2.6a11.83,11.83,0,0,0,3.7-.2,10.7,10.7,0,0,0-1.4,1.6c-1.3,1.5.3,2.5,1.7,2.6a11.46,11.46,0,0,0,7-1.5l.5-.3c-1.1,1-2.2,2.1-3.3,3.2-1.4,1.4.4,2.5,1.7,2.6a10.85,10.85,0,0,0,4-.3c.2,0,.5-.1.8-.1l.3,1.2c.7,2.1,4.9,1.2,6.3.8l.7-.2c-1.2,1.5.2,2.4,1.7,2.6a10.45,10.45,0,0,0,2.5,0c-1,1.9,3.8,2.1,4.8,1.9,2.2-.4,4.4-1,6.5-1.6-.6.3-1.2.7-1.8,1-.9.5-3.3,2.1-1.9,3.4s4.3.7,5.9.2,2.9-.8,4.3-1.3c-.8.7-1.3,1.6-.5,2.4,1.8,1.6,5.5.5,7.4-.3,10.6-4.1,21-8.5,30.3-14.4,1.8-.9,3.6-1.9,5.4-2.9,11.1-6.2,22.6-14.7,26.8-27.4.7-2-1.9-2.1-4.5-1.7a45.68,45.68,0,0,0,5.4-6.9c1.1-1.9-.1-2.5-1.9-2.5a30,30,0,0,0,6.2-9.5c.4-1.1-.7-1.6-1.6-1.8a19.22,19.22,0,0,0,1.6-4.2c.6-2.3-3.6-2-4.8-1.8a20.48,20.48,0,0,0-2.4.5c1.6-1.7,3.2-3.4,4.7-5.2,1.2-1.5-.2-2.4-1.6-2.6a6.6,6.6,0,0,0-1.4-.1,35.53,35.53,0,0,0,4.8-6.7c1.3-2.3-3.8-1.8-6.4-1.3a102.38,102.38,0,0,0,8.5-6.6C159.83,208.76,159.63,207.16,157.23,206.86Z"/><path class="cls-2" d="M14.33,233.46c0-15.3,6.1-31.1,16.6-43.2a59.66,59.66,0,0,1,40.6-20.4c1.2-.1,2.4-2,2.3-2.8,0-.3-.2-1-1.8-.8a65.91,65.91,0,0,0-33.7,13c1.5-1.2,3.1-2.4,4.7-3.5a69.86,69.86,0,0,1,39-11.6,71.18,71.18,0,0,1,27.6,5.5c17.3,7.4,30.6,21.9,37.4,41a81.45,81.45,0,0,1,2.4,31.1c-1.9,16.1-8.4,30.2-19,40.7a76.12,76.12,0,0,1-44.8,21.1,60.86,60.86,0,0,1-12.8.1,61.81,61.81,0,0,1-8.4-2.4C35.83,290.86,14.23,261.76,14.33,233.46Zm23.6,56.4a61.2,61.2,0,0,1-9.9-9.8A101.7,101.7,0,0,0,37.93,289.86Zm54.9,15c2.8-.6,5.6-1.3,8.3-2.1a81.34,81.34,0,0,0,36.8-23.6,68.13,68.13,0,0,1-26,20.6A63.59,63.59,0,0,1,92.83,304.86Zm24.6-140.6-.8-.5a1.55,1.55,0,0,0-.8-.2c-1.1,0-2.9.7-3.1,1.5a.79.79,0,0,0,.5.9,66.64,66.64,0,0,1,9.3,6.4c-11.8-7.4-26.2-12.3-40.8-11.9A75.42,75.42,0,0,0,25.23,188c-11.7,14.2-17.6,33.8-16.3,53.8,1.3,19.8,10.3,38,24.5,49.7,10.2,8.4,23.1,14.5,37.5,15.6,4.8,1,9.7.5,14.6.5a69.3,69.3,0,0,0,36.8-10.5,71,71,0,0,0,33.5-52.6,76.38,76.38,0,0,0-4.3-35.3A74.82,74.82,0,0,0,117.43,164.26Z"/><path class="cls-2" d="M137.73,240.46c-.1-4.4,0-8.8,0-13.1,0-6.8,1.3-14.2-3.5-19.7-4.4-4.9-11.9-7.7-17.6-11-7.3-4.2-14.7-8.3-22-12.5-2.9-1.6-6.7-4.9-9.9-5.5-2.7-.5-5.1,1.8-7.2,3.1-7.8,5-15.7,10-23.5,15.1-5.8,3.7-12.7,7-17.6,12-4.4,4.5-5.3,9.5-5.5,15.5-1.6,3.1-2.7,7.5-.1,8.4-.1,1.4-.2,2.7-.4,4.2a8.63,8.63,0,0,0,.4,2.8c-1,2.2-1.7,4.8-.9,6.4a7.29,7.29,0,0,0-1.2,5.4,3.19,3.19,0,0,0,2.2,2.8c-.1,4.6-.2,9.2.1,13.6.1,1.8-.9,2.7,0,4.3,1.3,2.2,4.3,3.3,5.7,5.2a2,2,0,0,0,2,.8c3-.6,6.7.4,9.7.5,3.7.1,7.6-.1,11.3-.2,3,0,4.8.4,7.7-.4,1-.8,1.1-.7.4.2h2c1.8,0,3.6-.1,5.4-.1,1.2,2.5,4,1.5,6.3,0h0c1.2,1.9,3.4,1.4,5.5.1,1.2.1,2.3.4,3.4.4s3.3-1.3,4.4-.2a2.06,2.06,0,0,0,1.5.3c.6-.2,1.1-.3,1.6-.5h2.4c1,2.3,3.4,1.8,5.8.5,1.4,2.5,6.1,0,8.9-.5,6.4-1.1,9.9,1.5,15.5-2.3,8.9-6.1,7.2-18.8,7.1-28.2C138.33,245.26,137.73,243.06,137.73,240.46Z"/><path class="cls-3" d="M135.73,236.46c-.1-4.4,0-8.8,0-13.1,0-6.8,1.3-14.2-3.5-19.7-4.4-4.9-11.9-7.7-17.6-11-7.3-4.2-14.7-8.3-22-12.5-2.8-1.6-6.5-4.7-9.7-5.5a165.18,165.18,0,0,1-19,13.2c-6,3.7-12.1,7.3-17.9,11.2-4.7,3.2-12.4,9-17.4,11.9-2.1,3.6.4,4.9.2,9.4-1.6,3.1-2.7,7.5-.1,8.4-.1,1.4-.2,2.7-.4,4.2a8.63,8.63,0,0,0,.4,2.8c-1,2.2-1.7,4.8-.9,6.4a7.29,7.29,0,0,0-1.2,5.4c.3,1.6.1,2.5,1.2,2.8-.1,4.6.8,9.2,1.1,13.6a8,8,0,0,0,1,4.3c1.3,2.2,3.3,3.3,4.7,5.2a2,2,0,0,0,2,.8c3-.6,6.7.4,9.7.5,3.7.1,7.6-.1,11.3-.2,3,0,4.8.4,7.7-.4,1-.8,1.1-.7.4.2h2c1.8,0,3.6-.1,5.4-.1,1.2,2.5,4,1.5,6.3,0h0c1.2,1.9,3.4,1.4,5.5.1,1.2.1,2.3.4,3.4.4s3.3-1.3,4.4-.2a2.06,2.06,0,0,0,1.5.3c.6-.2,1.1-.3,1.6-.5h2.4c1,2.3,3.4,1.8,5.8.5,1.4,2.5,6.1,0,8.9-.5,6.4-1.1,10.9,2.5,16.5-1.3,8.9-6.1,6.2-19.8,6.1-29.2C136.33,241.26,135.73,239.06,135.73,236.46Z"/><path class="cls-4" d="M132.33,244.86c.6-1.2.8-2.8,0-3.2v-20.6c0-2.5.1-5.1,0-7.6a10,10,0,0,0-4.1-7.5,2,2,0,0,0-1.5-1.2c-.9-.6-1.8-1.1-2.7-1.7-3.2-1.8-6.4-3.6-9.6-5.5a1.61,1.61,0,0,0-.7-.4l-11.1-6.3c-6.8-3.9-13.6-7.7-20.5-11.6l-5,4.1c.7-.5,1.5-.9,2.2-1.4.3.1.5.3.8.4-.2.1-.3.2-.5.3-2.8,1.8-5.6,3.5-8.4,5.3-2.5,1.9-5,3.7-7.5,5.5-8.9,6.4-18.8,11.2-27.6,17.7l-.3.6a1.21,1.21,0,0,0-.5.5c0-.2.1-.4.1-.6a26.5,26.5,0,0,0-2.6,2.1c-.1.1-.2.1-.3.2a4.87,4.87,0,0,0-.1,1.2c-.1,1.6-.1,3.2-.1,4.8a6,6,0,0,1-.8.8c-1.1,1.1-1.8,5,.8,3.9v5.5c-.8,1.2-1,3.2,0,3.6V235c-.1.2-.3.3-.4.5-1.2,1.4-1.4,4.4.4,4v1.7l-1.3,1.3c-1.6,1.5-1.3,5.4,1.3,3.6v11.5c-.4,1.1-.4,2.3.1,2.7a8.81,8.81,0,0,0,.2,1.7c-.7,1.3-.3,2.8.7,3a7.51,7.51,0,0,0,3.8,4.4c.2.8.8,1.2,1.8.6.5.1,1.1.2,1.7.3a24.37,24.37,0,0,0,2.7.1.89.89,0,0,0,1,0c.8,0,1.7.1,2.6.1.3.3.7.3,1.3,0,1.7,0,3.4.1,5.1.1a1.1,1.1,0,0,0,.8,0c3.1,0,6.2,0,9.3-.1.3.6,1,.8,2.1,0h0a22.6,22.6,0,0,0,2.6-.1.85.85,0,0,0,.7,0c2.4,0,4.9-.1,7.3-.1,0,1.4.8,2.5,2.4,1.1.5-.4.9-.8,1.4-1.2h2.4c0,1.3.7,2.1,2.2.8.3-.3.7-.5,1-.8h3.3c.3.6.9.7,1.9,0h4.2c.2.5.7.8,1.7.2.1-.1.2-.1.3-.2h4.4c-.2,1.5.5,2.6,2.3,1.4.7-.5,1.3-.9,2-1.4h1.6c-.3,1.3,0,2.4,1.8,1.7,1.3-.5,2.7-1.1,4-1.7h9.9c10.1-.7,9.4-10.8,9.4-18.1v-7.2Zm-97.1-7c.5-.3,1.1-.7,1.6-1-.5.5-1.1,1-1.6,1.6Zm3.2,27.8c-.2-.1-.3-.2-.5-.3.8-.5,1.5-1.1,2.3-1.6C39.63,264.36,39,265.06,38.43,265.66Zm5.4.7a2.19,2.19,0,0,0-.3.5h-.6l1.8-1.5C44.43,265.66,44.13,266.06,43.83,266.36ZM35,254.46v-1.7h.1c3.3-2.5,12.4-9.7,15.7-12.2C47.53,243.66,38.53,251.36,35,254.46Zm18.5,12.1c-.1.1-.2.3-.3.4h-.4c.4-.3.7-.6,1.1-.9A2.18,2.18,0,0,0,53.53,266.56Zm42.4-72a5,5,0,0,0,1.2-2.4c1,.6,2,1.1,2.9,1.7a36.39,36.39,0,0,0-7.3,3.9C93.83,196.66,94.93,195.66,95.93,194.56Zm-5.2-6.1c.6.4,1.3.7,1.9,1.1-2.3,1.9-4.7,3.7-7.1,5.4.9-.7,1.7-1.5,2.6-2.2A6.7,6.7,0,0,0,90.73,188.46Zm-8.7,0a5.35,5.35,0,0,0,1.6-4.1l3.2,1.8c-.1,0-.1.1-.2.1h0c-2.2,1.3-4.4,2.6-6.5,3.9C80.73,189.66,81.33,189.06,82,188.46Zm-11.5,48.4a3,3,0,0,0,.5-.7c.5.3,1.1.7,1.6,1,.1,0,.1.1.2.1a.1.1,0,0,0-.1.1c-.5-.6-1.4-.7-2.6.5-1.5,1.5-3.1,2.9-4.6,4.3Zm-12.7-6.2,1.5-1.5a.35.35,0,0,1,.2.1A11.51,11.51,0,0,1,57.83,230.66Zm6.3,36.2H63c1.4-1.2,2.9-2.4,4.3-3.5C66.33,264.56,65.23,265.76,64.13,266.86Zm2.5-19.4c2.2-2,4.5-4,6.8-5.9a3.11,3.11,0,0,0,.7-.9l.3.3C71.83,243.06,69.23,245.26,66.63,247.46Zm9.4.9,10.5-8.4a3.87,3.87,0,0,0,1.3-2.7c1.7-.8,3.4-1.8,5-2.5l.4-.2v.3c-6.7,5.3-13.3,10.6-20,15.9C74.23,250,75.13,249.16,76,248.36ZM78,267h-4.2c6.7-4.9,13.4-9.9,20.1-14.9C88.63,257,83.33,262,78,267Zm18.1-.8a5.55,5.55,0,0,0-.6.8h-.6l2.7-2.1A17.38,17.38,0,0,0,96.13,266.16Zm7.4.8h-1.2c.4-.3.9-.5,1.3-.8.8-.3,1.5-.7,2.3-1A18.76,18.76,0,0,0,103.53,267Zm-.1-65c-3.8,2.9-7.6,5.8-11.4,8.8-.6.4-1.1.9-1.7,1.3-.8.5-1.7,1-2.5,1.5,5-4.6,10-9.2,14.9-14a7.2,7.2,0,0,0,1.5-3.4c1.3.7,2.6,1.5,3.8,2.2C106.53,199.36,105,200.76,103.43,202Zm24.3,8.9a7.94,7.94,0,0,1,1.3,2.6,72.47,72.47,0,0,1-9.7,5.7C122.43,217,126.13,214.26,127.73,210.86Zm-13.6-9.1.6.3c-.4.2-.8.5-1.2.7A8.8,8.8,0,0,0,114.13,201.76Zm-4.1,12.9c2.5-2.2,5-4.5,7.3-6.9a6.66,6.66,0,0,0,1.5-3.3c1.3.7,2.6,1.5,3.9,2.2C118.43,209.36,114.23,212,110,214.66Zm13.2,10c1.5-1.3,1.8-4.9.2-4.6a63.31,63.31,0,0,0,6.1-3.9v4.3a1.76,1.76,0,0,0-.5.4c-4.6,3.5-9.2,7.1-13.8,10.6C117.83,229.16,120.53,227,123.23,224.66Zm-4.1,42.3,2.4-1.5a2.45,2.45,0,0,0,.1,1.5Zm3.3-30.3,7.1-6.8v1.4c-.1.1-.3.2-.4.3C126.83,233.26,124.63,235,122.43,236.66Zm7.1-.6v1.2c-.1.1-.2.1-.3.2-1.9,1.2-7.7,6.2-9.5,7.4C121.63,243.16,127.53,237.76,129.53,236.06Zm0,5.9v.7c-.6.3-1.2.6-1.9,1C128.23,243.06,128.83,242.56,129.53,242Zm-5.2,24.9a15,15,0,0,0,4.6-3.3c.1-.1.1-.1.1-.2C128.43,265.16,127.13,266.46,124.33,266.86Zm5.2-11.4v.9a1.38,1.38,0,0,0-.4-.3C129.23,255.76,129.43,255.66,129.53,255.46Zm0,4.6c-.1-.1-.2-.3-.4-.4a2.51,2.51,0,0,1,.4-.7Z"/><path class="cls-4" d="M58.33,236.46h0c0,.1-.1.1-.1.2A.35.35,0,0,1,58.33,236.46Z"/><path class="cls-4" d="M129.53,251.56v.2h-.2A.22.22,0,0,1,129.53,251.56Z"/><path class="cls-3" d="M40.13,201.06v25.8a1.1,1.1,0,0,0,.8,1.2c6.5,2.3,13,4.7,19.5,7,4.6,1.7,9.3,3.3,13.9,5,2.1.8,5.1,2.5,7.3,2.6,1.6.1,3.4-1.1,4.8-1.7,4.3-1.7,8.5-3.4,12.8-5.2,6.8-2.7,13.6-5.5,20.4-8.2a3.08,3.08,0,0,0,1.8-2.6v-29.7c0-.8-.4-1.3-1.2-1.2-26,1.4-51.9,2.7-77.9,4.1-1.7.1-3.4,4.1-1,4,26-1.4,51.9-2.7,77.9-4.1l-1.2-1.2v29.7c.6-.9,1.2-1.8,1.8-2.6-6.5,2.6-13,5.2-19.4,7.8-4.4,1.8-8.8,3.5-13.1,5.3-1.2.5-2.5,1.1-3.7,1.5-1.5.4.6.2-.2,0-7.2-1.6-14.5-5.2-21.5-7.7-6.3-2.3-12.7-4.6-19-6.9.3.4.5.8.8,1.2v-25.8C43.53,196.76,40.13,199.26,40.13,201.06Z"/><path class="cls-3" d="M119.13,218.46l.2-.2c1.4-1.2,2-4.4.7-4.7.1-1.2-.4-2.1-1.7-1.6a4.68,4.68,0,0,0,1.1-4.1c1.5-1.9,1.5-6-1.3-3.8-4.9,3.8-17.3,12.6-22.4,16.3,4.5-3.9,16.4-12.7,20.9-16.6a4.34,4.34,0,0,0,1.3-3c1.1-2,.7-5.1-1.8-3.1l-4.9,4c1-1,2-2,3-3.1,2.1-2.2.8-5.8-2-3.2-.5.4-.9.9-1.4,1.3a1.17,1.17,0,0,0-1.1-.8c1.1-2,.8-5.1-1.7-3.2-3,2.4-6.1,4.8-9.1,7.2.6-1.8-.2-4.2-2.2-2.4-1.1.9-2.1,1.9-3.2,2.8.7-1.9.1-4.6-2.1-2.7-.2.2-.4.3-.5.5h0c-.8.7-1.5,1.4-2.3,2,.7-2,.1-4.2-2-2.4-3.5,3-13,10.9-16.5,13.8,1.4-1.5,8.8-8,10.2-9.5,2-2.2.8-5.9-2-3.2-.8.8-1.7,1.6-2.5,2.4.6-2-.5-3.9-2.8-1.8-.4.3-.7.7-1.1,1,0-1.3-.7-2.2-2.5-1.1-1.1.7-2.1,1.4-3.2,2.1.9-1.8.7-4.2-1.7-2.9-.3-.5-1-.6-2.2.1-1,.6-1.9,1.2-2.9,1.8.2-1.6-.4-2.8-2.3-1.4-.8.6-1.5,1.1-2.3,1.6.3-1.6-.5-3.1-2.5-1.8-.9.6-1.9,1.3-2.8,1.9.4-1.6.1-3.3-1.7-2.2a33.21,33.21,0,0,0-5.8,4c-1.3,1.2-1.7,4-.8,4.7-.1.2-.2.3-.3.5a2.19,2.19,0,0,0,.4,2.7c-.7,1.3-.8,3.2.2,3.5a4.76,4.76,0,0,0-.2,2.6c-1.6,1.4-1.2,5.1.8,4.1l-1.2,1.5c-1.3,1.7-.3,5.1,2,3.1,3.5-3,6.9-6.1,10.5-9.1l-9.3,9.9c-2.1,2.2-.8,5.9,2,3.2l3.9-3.6a21,21,0,0,0-1.4,1.7c-1.9,2.2-.8,6,2,3.2l.7-.7c.2,1.1.9,1.8,2.3.6l4.2-3.6c-.6.8-1.3,1.6-1.9,2.4-1.8,2.3.1,4.8,2.5,2.6l.2-.2c-.6,1.9,0,4.4,2.2,2.5.3-.2.5-.5.8-.7a1.37,1.37,0,0,0,1,.8c-1,.9-1.9,1.8-2.9,2.7-1.7,1.6-1.4,5.8,1.5,3.7,2.5-1.8,4.9-3.7,7.3-5.6,0,1.4.7,2.5,2.4,1.1.3-.2.5-.4.8-.6-.5,1.6.2,3.1,1.7,2.6.1,1.2.9,2.1,2.5,1,.1-.1.2-.1.3-.2-1.5,1.8-1.8,5.6,1.3,3.8,2.4-1.4,4.7-2.9,7-4.4.2,1,1,1.6,2.4.6l5.3-3.8c0,1.3.7,2.2,2.4.9,1.6-1.1,3.1-2.3,4.7-3.4.1.8.6,1.3,1.8.6,2.3-1.3,4.5-2.6,6.8-3.9.2.5.8.7,1.7.2,1.9-1,3.8-1.9,5.6-2.9.4.3,1,.2,1.8-.5l1.5-1.2c.9-.7,1.8-3.2,1.4-4.3C120.53,219.36,120.33,218.16,119.13,218.46Z"/><path class="cls-2" d="M37.63,228.16c14.1,5.5,28.3,10.8,42.5,15.9,2.6.9,2.9,1.1,5,.2,2.4-1,4.7-2,7.1-3.1,10.6-4.6,21.3-10.1,31.9-14.7,1.3-.6,2.1-2.8.1-2-10.2,4.4-20.5,8.8-30.7,13.2-2.4,1-4.8,2.1-7.2,3.1-2.8,1.2-2.5,1-5.7-.2-13.8-5.4-27.8-11.2-41.6-16.6-1.2-.5-3,3.6-1.4,4.2Z"/><path class="cls-2" d="M93.43,209.16c-1.8-1.2-2.9-.3-3.9.9-2.8,3.7-8.6,11.5-11.6,15.1-2.1-2.5-6.2-8.5-6.2-8.5-1.2-1.3-8.2,4-5.1,6.3a37.06,37.06,0,0,1,7.4,7.4c.1.4,1.2.7,1.4,1,1.1,1.7,3.6.5,4.6-.7,4.5-5.4,11.8-11.3,16.1-16.9C97.13,212.56,95.13,210.26,93.43,209.16Z"/><path class="cls-2" d="M118.73,250.06h-.3a7.57,7.57,0,0,0-1.5.1,1,1,0,0,0-.7.5c-2.3.9-4.3,2.7-4.5,5.2-.4,3.4,3.4,5.6,6.4,5.2s7.3-3.1,7.3-6.3S121.53,250.16,118.73,250.06Zm0,9a5.37,5.37,0,0,1-5-2.4c-1.3-2.7,2.2-4.2,4.3-4.5a5.13,5.13,0,0,1,3.9,1.6C124.13,256.06,121.13,258.76,118.73,259.06Z"/><path class="cls-2" d="M89.13,252.66h18c.9,0,1.9-2,.9-2-6,0-12-1-18-1-.8,0-1.8,3-.9,3Z"/><path class="cls-2" d="M88.53,258.66h17.7c.9,0,1.9-2,.9-2H89.43c-.9,0-1.9,2-.9,2Z"/><path class="cls-1" d="M108.12,447.26c4.6-2.9,17.8-13.1,22.3-16.3-2.3,2.2-13.6,11.4-16.2,13.3C112.12,445.26,110.12,446.26,108.12,447.26Zm-37.7-115.1a135,135,0,0,1-20.8,14.7l-3.3,1.9C54.82,343.16,61.82,337.56,70.42,332.16Zm-21.7,5.1c-4,3.1-17.8,14.2-22.1,16.8,2-1.4,21.8-16.7,23.8-18.1C52.62,334.56,46.52,338.56,48.72,337.26Zm53.2,7.3c2.3-1.9,10.3-10.9,15.8-11.2C115.52,335.36,104.32,343,101.92,344.56Zm30.5,75c-1.3,1-2.6,2-4,2.9C129.72,421.46,131,420.56,132.42,419.56Zm-28,13.7c-6.7,5.4-19.4,14.4-22.6,16.1A174.14,174.14,0,0,1,104.42,433.26Zm25.3-22.9c-4.3,3-8.8,5.7-13.4,8.4,4.9-3.6,9.9-7.1,15.1-10.2l4.5-2.7C133.82,407.46,131.72,409,129.72,410.36Zm-64.9,35,17.7-13.5c-3.3,3-14.1,12.2-17.9,14.4C64.72,446,64.72,445.66,64.82,445.36Zm32.7-31c-4.2,3-8.5,5.9-12.9,8.6-2.3,1.4-4.6,2.7-6.9,4.1,7.6-5.6,15.2-11.3,23.1-16.6,4.3-2.9,8.7-5.6,13.2-8.3-4.3,3.1-8.5,6.3-12.7,9.5Zm60.2-51.2a12.19,12.19,0,0,0-5.9.9l.3-.3c1.5-1.4-.4-2.5-1.6-2.6a11.92,11.92,0,0,0-8.1,2.2l-1.3.9c1.9-1.5,3.8-2.9,5.7-4.4,1.1-.9,1.9-2.5.1-3.1a8.2,8.2,0,0,0-4.4-.1c.5-.5,1.1-1,1.6-1.5,1-.9,2-2.4.1-3.1-2.5-.9-5.7.1-8,1.3-3.3,1.7-6.6,3.5-9.8,5.3a113.25,113.25,0,0,0,10.6-10.2c1.3-1.5-.3-2.5-1.6-2.6a10.44,10.44,0,0,0-2.5,0,104.65,104.65,0,0,0,11.4-10.7c1.3-1.5-.3-2.5-1.6-2.6-2.6-.3-8.1.5-10.1,2.2-10.6,9.2-19.8,17.5-31.3,25.4-2.7,1.7-5.3,3.4-8,5.1,13.3-9.3,26.2-19.3,37.2-31.4,1.3-1.4-.3-2.5-1.6-2.6a11.56,11.56,0,0,0-3.2.1,15.92,15.92,0,0,0,1.3-2.2c1.2-2.2-4-2-4.8-1.8a8.33,8.33,0,0,0-1.5.4c.6-.6,1.3-1.2,1.9-1.8,1.4-1.4-.4-2.5-1.6-2.6a11.92,11.92,0,0,0-8.1,2.2c-5.6,4-11.1,8-16.7,12-1.5.9-3,1.7-4.5,2.5-9.4,5.3-18.4,11.2-27.6,16.8l-3.1,1.9.3-.2c19.1-12.3,39.2-23.2,56.6-37.7,1.7-1.5,1.4-3.1-.9-3.4a11.78,11.78,0,0,0-8.1,2.2,118.2,118.2,0,0,1-10.4,7c2.3-1.7,4.7-3.4,6.9-5.2,1.8-1.4,1.4-3.1-.9-3.4a11.78,11.78,0,0,0-8.1,2.2l-7.8,5.7a47.63,47.63,0,0,0,5-6.6c1-1.5-.1-2.4-1.7-2.6a12.2,12.2,0,0,0-7,1.5c-2.7,1.4-5.4,2.9-8.1,4.4.3-.4.7-.8,1-1.2,2.9-3.7-6.3-2.1-7.3-1.7A125.77,125.77,0,0,0,43,334a152.11,152.11,0,0,0-24.7,19.8c-1.5,1.4.1,2.2,1.6,2.5a60.18,60.18,0,0,0-9.4,8.8c-1.3,1.5.3,2.5,1.6,2.6a12.2,12.2,0,0,0,7-1.5c.6-.3,1.1-.7,1.7-1a83.43,83.43,0,0,0-9,7.9c-1.4,1.4.4,2.5,1.7,2.6a13.26,13.26,0,0,0,7-1.5c1.1-.5,11.9-8.4,13-8.9-4.3,3.7-18.3,14.9-22.3,19.1-1.4,1.4.4,2.5,1.7,2.6a6.7,6.7,0,0,0,2,0c-1.5,1.5-2.9,3.1-4.3,4.7s.3,2.5,1.6,2.6a10.75,10.75,0,0,0,3.1-.1c-1.3.9-2.7,1.8-4,2.8-1.9,1.4-1.3,3.1.9,3.3a11.78,11.78,0,0,0,8.1-2.2l4-2.8c11.9-8,24.7-14.7,37.2-21.7-4.6,3.6-9.3,7.2-14,10.6-4.4,2.3-8.9,4.5-13.4,6.6-7,3.3-16.8,7.1-19.9,14.9-1.1,2.8,5.4,1.7,6.3,1.5,2-.5,3-.2,5-1.1-2.6,2-4.2,2.9-6.8,4.8-1.2.9-1.9,2.5-.1,3.1,2.5.9,5.8-.1,8-1.3h-.9c-2.7,2.5-4.2,5.2-6.4,8.3-1.1,1.5.1,2.4,1.6,2.6a12.2,12.2,0,0,0,7-1.5c.9-.5,1.9-1,2.8-1.5-2.4,2-4.7,4.2-6.9,6.4-1.4,1.4.4,2.5,1.6,2.6a11.32,11.32,0,0,0,5.4-.8,19.46,19.46,0,0,0-4.2,8.8c-.5,2.9,4.9,1.9,6.3,1.5a48.51,48.51,0,0,0,9.2-3.5c-1.8,1.9-3.5,3.9-5.2,6-1.2,1.5.2,2.5,1.7,2.6a11.83,11.83,0,0,0,3.7-.2,10.7,10.7,0,0,0-1.4,1.6c-1.3,1.5.3,2.5,1.7,2.6a11.46,11.46,0,0,0,7-1.5l.5-.3c-1.1,1-2.2,2.1-3.3,3.2-1.4,1.4.4,2.5,1.7,2.6a10.85,10.85,0,0,0,4-.3c.2,0,.5-.1.8-.1l.3,1.2c.7,2.1,4.9,1.2,6.3.8l.7-.2c-1.2,1.5.2,2.4,1.7,2.6a10.45,10.45,0,0,0,2.5,0c-1,1.9,3.8,2.1,4.8,2,2.2-.4,4.4-1,6.5-1.6-.6.3-1.2.7-1.8,1-.9.5-3.3,2.1-1.9,3.4s4.3.7,5.9.2,2.9-.8,4.3-1.3c-.8.7-1.3,1.6-.5,2.4,1.8,1.6,5.5.5,7.4-.3,10.6-4.1,21-8.4,30.3-14.4,1.8-.9,3.6-1.9,5.4-2.9,11.1-6.2,22.6-14.7,26.8-27.4.7-2-1.9-2.1-4.5-1.7a45.68,45.68,0,0,0,5.4-6.9c1.1-1.9-.1-2.5-1.9-2.5a30,30,0,0,0,6.2-9.5c.4-1.1-.7-1.6-1.6-1.8a19.22,19.22,0,0,0,1.6-4.2c.6-2.3-3.6-2-4.8-1.8a20.48,20.48,0,0,0-2.4.5c1.6-1.7,3.2-3.4,4.7-5.2,1.2-1.5-.2-2.4-1.6-2.6a6.6,6.6,0,0,0-1.4-.1,35.53,35.53,0,0,0,4.8-6.7c1.3-2.3-3.8-1.8-6.4-1.3,2.9-2,5.7-4.2,8.5-6.5C160.32,365.06,160.12,363.46,157.72,363.16Z"/><path class="cls-2" d="M13.82,391.76c0-15.3,7.1-32.1,17.6-44.2,10.9-12.5,25.3-20.1,40.6-21.4,1.2-.1,2.4-2,2.3-2.8,0-.3-.2-2-1.8-1.8-12.1,1-23.7,6.5-33.7,14,1.5-1.2,3.1-2.4,4.7-3.5a69.86,69.86,0,0,1,39-11.6,71.18,71.18,0,0,1,27.6,5.5c17.3,7.4,30.6,21.9,37.4,41a81.45,81.45,0,0,1,2.4,31.1c-1.9,16.1-8.4,31.2-19,41.7-11.9,11.7-27.8,18.2-44.8,20.1a60.86,60.86,0,0,1-12.8.1,61.81,61.81,0,0,1-8.4-2.4C36.32,447.16,13.72,420.06,13.82,391.76Zm24.6,54.4a61.2,61.2,0,0,1-9.9-9.8A101.7,101.7,0,0,0,38.42,446.16Zm54.9,15c2.8-.6,5.6-1.3,8.3-2.1a81.34,81.34,0,0,0,36.8-23.6,68.13,68.13,0,0,1-26,20.6A62.81,62.81,0,0,1,93.32,461.16ZM118,320.56l-.8-.5a1.55,1.55,0,0,0-.8-.2c-1.1,0-2.9.7-3.1,1.5a.79.79,0,0,0,.5.9,66.64,66.64,0,0,1,9.3,6.4c-11.8-7.4-26.2-12.3-40.8-11.9a75.92,75.92,0,0,0-73.9,80.3c1.3,19.8,11.3,39,25.5,50.7,10.2,8.4,23.1,14.5,37.5,15.6,4.8,1,9.7.5,14.6.5a69.3,69.3,0,0,0,36.8-10.5,71,71,0,0,0,33.5-52.6,76.38,76.38,0,0,0-4.3-35.3A75,75,0,0,0,118,320.56Z"/><path class="cls-2" d="M138.22,396.76c-.1-4.4,0-8.8,0-13.1,0-6.8,1.3-14.2-3.5-19.7-4.4-4.9-11.9-7.7-17.6-11-7.3-4.2-14.7-8.3-22-12.5-2.9-1.6-6.7-4.9-9.9-5.5-2.7-.5-5.1,1.8-7.2,3.1-7.8,5-15.7,10-23.5,15.1-5.8,3.7-12.7,7-17.6,12-4.4,4.5-5.3,9.5-5.5,15.5-1.6,3.1-2.7,7.5-.1,8.4-.1,1.4-.2,2.7-.4,4.2a8.63,8.63,0,0,0,.4,2.8c-1,2.2-1.7,4.8-.9,6.4a7.29,7.29,0,0,0-1.2,5.4,3.19,3.19,0,0,0,2.2,2.8c-.1,4.6-.2,9.2.1,13.6.1,1.8-.9,2.7,0,4.3,1.3,2.2,4.3,3.3,5.7,5.2a2,2,0,0,0,2,.8c3-.6,6.7.4,9.7.5,3.7.1,7.6-.1,11.3-.2,3,0,4.8.4,7.7-.4,1-.8,1.1-.7.4.2h2c1.8,0,3.6-.1,5.4-.1,1.2,2.5,4,1.5,6.3,0h0c1.2,1.9,3.4,1.4,5.5.1,1.2.1,2.3.4,3.4.4s3.3-1.3,4.4-.2a2.06,2.06,0,0,0,1.5.3c.6-.2,1.1-.3,1.6-.5h2.4c1,2.3,3.4,1.8,5.8.5,1.4,2.5,6.1,0,8.9-.5,6.4-1.1,9.9,1.5,15.5-2.3,8.9-6.1,7.2-18.8,7.1-28.2C138.92,401.56,138.22,399.36,138.22,396.76Z"/><path class="cls-3" d="M136.22,392.76c-.1-4.4,0-8.8,0-13.1,0-6.8,1.3-14.2-3.5-19.7-4.4-4.9-11.9-7.7-17.6-11-7.3-4.2-14.7-8.3-22-12.5-2.8-1.6-6.5-4.7-9.7-5.5a165.18,165.18,0,0,1-19,13.2c-6,3.7-12.1,7.3-17.9,11.2-4.7,3.2-12.4,9-17.4,11.9-2.1,3.6.4,4.9.2,9.4-1.6,3.1-2.7,7.5-.1,8.4-.1,1.4-.2,2.7-.4,4.2a8.63,8.63,0,0,0,.4,2.8c-1,2.2-1.7,4.8-.9,6.4a7.29,7.29,0,0,0-1.2,5.4c.3,1.6.1,2.5,1.2,2.8-.1,4.6.8,9.2,1.1,13.6a8,8,0,0,0,1,4.3c1.3,2.2,3.3,3.3,4.7,5.2a2,2,0,0,0,2,.8c3-.6,6.7.4,9.7.5,3.7.1,7.6-.1,11.3-.2,3,0,4.8.4,7.7-.4,1-.8,1.1-.7.4.2h2c1.8,0,3.6-.1,5.4-.1,1.2,2.5,4,1.5,6.3,0h0c1.2,1.9,3.4,1.4,5.5.1,1.2.1,2.3.4,3.4.4s3.3-1.3,4.4-.2a2.06,2.06,0,0,0,1.5.3c.6-.2,1.1-.3,1.6-.5h2.4c1,2.3,3.4,1.8,5.8.5,1.4,2.5,6.1,0,8.9-.5,6.4-1.1,10.9,2.5,16.5-1.3,8.9-6.1,6.2-19.8,6.1-29.2C136.92,397.56,136.22,395.36,136.22,392.76Z"/><path class="cls-4" d="M132.82,401.26c.6-1.2.8-2.8,0-3.2v-20.6c0-2.5.1-5.1,0-7.6a10,10,0,0,0-4.1-7.5,2,2,0,0,0-1.5-1.2c-.9-.6-1.8-1.1-2.7-1.7-3.2-1.8-6.4-3.6-9.6-5.5a1.61,1.61,0,0,0-.7-.4l-11.1-6.3c-6.8-3.9-13.6-7.7-20.5-11.6l-5,4.1c.7-.5,1.5-.9,2.2-1.4.3.1.5.3.8.4-.2.1-.3.2-.5.3-2.8,1.8-5.6,3.5-8.4,5.3-2.5,1.9-5,3.7-7.5,5.5-8.9,6.4-18.8,11.2-27.6,17.7l-.3.6a1.2,1.2,0,0,0-.5.5c0-.2.1-.4.1-.6a26.5,26.5,0,0,0-2.6,2.1c-.1.1-.2.1-.3.2a4.87,4.87,0,0,0-.1,1.2c-.1,1.6-.1,3.2-.1,4.8a6,6,0,0,1-.8.8c-1.1,1.1-1.8,5,.8,3.9v5.5c-.8,1.2-1,3.2,0,3.6v1.2c-.1.2-.3.3-.4.5-1.2,1.4-1.4,4.4.4,4v1.7l-1.3,1.3c-1.6,1.5-1.3,5.4,1.3,3.6V414c-.4,1.1-.4,2.3.1,2.7a8.81,8.81,0,0,0,.2,1.7c-.7,1.3-.3,2.8.7,3a7.51,7.51,0,0,0,3.8,4.4c.2.8.8,1.2,1.8.6.5.1,1.1.2,1.7.3a24.37,24.37,0,0,0,2.7.1.89.89,0,0,0,1,0c.8,0,1.7.1,2.6.1.3.3.7.3,1.3,0,1.7,0,3.4.1,5.1.1a1.1,1.1,0,0,0,.8,0c3.1,0,6.2,0,9.3-.1.3.6,1,.8,2.1,0h0a22.6,22.6,0,0,0,2.6-.1.85.85,0,0,0,.7,0c2.4,0,4.9-.1,7.3-.1,0,1.4.8,2.5,2.4,1.1.5-.4.9-.8,1.4-1.2h2.4c0,1.3.7,2.1,2.2.8.3-.3.7-.5,1-.8h3.3c.3.6.9.7,1.9,0h4.2c.2.5.7.8,1.7.2.1-.1.2-.1.3-.2h4.4c-.2,1.5.5,2.6,2.3,1.4.7-.5,1.3-.9,2-1.4h1.6c-.3,1.3,0,2.4,1.8,1.7,1.3-.5,2.7-1.1,4-1.7h9.9c10.1-.7,9.4-10.8,9.4-18.1v-7.2Zm-97.1-7c.5-.3,1.1-.7,1.6-1-.5.5-1.1,1-1.6,1.6Zm3.2,27.7c-.2-.1-.3-.2-.5-.3.8-.5,1.5-1.1,2.3-1.6C40.12,420.76,39.52,421.36,38.92,422Zm5.4.8a2.19,2.19,0,0,0-.3.5h-.6l1.8-1.5A9,9,0,0,0,44.32,422.76Zm-8.7-12v-1.7h.1c3.3-2.5,12.4-9.7,15.7-12.2C48.12,400.06,39,407.76,35.62,410.76ZM54,422.86c-.1.1-.2.3-.3.4h-.4c.4-.3.7-.6,1.1-.9C54.32,422.56,54.12,422.66,54,422.86Zm42.4-72a5,5,0,0,0,1.2-2.4c1,.6,2,1.1,2.9,1.7a36.39,36.39,0,0,0-7.3,3.9C94.32,353,95.42,352,96.42,350.86Zm-5.2-6c.6.4,1.3.7,1.9,1.1-2.3,1.9-4.7,3.7-7.1,5.4.9-.7,1.7-1.5,2.6-2.2C89.82,348.06,91.12,346.56,91.22,344.86Zm-9.7,0c1.1-1,2.7-2.7,2.6-4.1l.2.8c-.1,0,2.9,1.1,2.8,1.1h0c-2.2,1.3-10.7,7.7-12.9,9C74.82,351.06,80.82,345.46,81.52,344.86ZM71,393.16a3,3,0,0,0,.5-.7c.5.3,1.1.7,1.6,1,.1,0,.1.1.2.1a.1.1,0,0,0-.1.1c-.5-.6-1.4-.7-2.6.5-1.5,1.5-3.1,2.9-4.6,4.3C67.72,396.66,69.42,395,71,393.16Zm-12.7-6.1,1.5-1.5a.35.35,0,0,1,.2.1C59.52,386.16,58.92,386.56,58.32,387.06Zm6.3,36.2h-1.1c1.4-1.2,6.5-7,7.9-8.2C70.42,416.16,65.72,422.06,64.62,423.26Zm2.6-19.5c2.2-2,4.5-4,6.8-5.9a3.11,3.11,0,0,0,.7-.9l.3.3C72.32,399.36,69.72,401.56,67.22,403.76Zm9.3.9,10.5-8.4a3.87,3.87,0,0,0,1.3-2.7c1.7-.8,3.4-1.8,5-2.5l.4-.2v.3c-6.7,5.3-13.3,10.6-20,15.9C74.72,406.26,75.62,405.46,76.52,404.66Zm2,18.6h-4.2c6.7-4.9,13.4-9.9,20.1-14.9C89.12,413.26,83.82,418.26,78.52,423.26Zm18.2-.8a5.55,5.55,0,0,0-.6.8h-.6l2.7-2.1A10,10,0,0,0,96.72,422.46Zm7.4.8h-1.2c.4-.3.9-.5,1.3-.8.8-.3,1.5-.7,2.3-1C105.62,422.06,104.92,422.66,104.12,423.26Zm-.1-65c-3.8,2.9-7.6,5.8-11.4,8.8-.6.4-1.1.9-1.7,1.3-.8.5-1.7,1-2.5,1.5,5-4.6,10-9.2,14.9-14a7.2,7.2,0,0,0,1.5-3.4c1.3.7,2.6,1.5,3.8,2.2A51.94,51.94,0,0,0,104,358.26Zm24.2,9a7.94,7.94,0,0,1,1.3,2.6,72.47,72.47,0,0,1-9.7,5.7C122.92,373.26,126.62,370.56,128.22,367.26Zm-13.6-9.2.6.3c-.4.2-.8.5-1.2.7A4.37,4.37,0,0,0,114.62,358.06Zm-4.1,12.9c2.5-2.2,5-4.5,7.3-6.9a6.66,6.66,0,0,0,1.5-3.3c1.3.7,2.6,1.5,3.9,2.2C119,365.66,114.72,368.36,110.52,371Zm13.2,10.1c1.5-1.3,1.8-4.9.2-4.6a63.31,63.31,0,0,0,6.1-3.9v4.3a1.76,1.76,0,0,0-.5.4c-4.6,3.5-9.2,7.1-13.8,10.6C118.32,385.56,121,383.26,123.72,381.06Zm-4,42.2,2.4-1.5a2.45,2.45,0,0,0,.1,1.5Zm3.2-30.3,7.1-6.8v1.4c-.1.1-.3.2-.4.3C127.32,389.56,125.12,391.26,122.92,393Zm7.1-.6v1.2c-.1.1-.2.1-.3.2-1.9,1.2-7.7,6.2-9.5,7.4C122.12,399.46,128,394.06,130,392.36Zm0,6v.7c-.6.3-1.2.6-1.9,1A14.54,14.54,0,0,1,130,398.36Zm-5.2,24.8a15,15,0,0,0,4.6-3.3c.1-.1.1-.1.1-.2C128.92,421.46,127.62,422.86,124.82,423.16Zm5.2-11.4v.9a1.38,1.38,0,0,0-.4-.3C129.72,412.16,129.92,412,130,411.76Zm0,4.6c-.1-.1-.2-.3-.4-.4a2.51,2.51,0,0,1,.4-.7Z"/><path class="cls-4" d="M58.82,392.76h0c0,.1-.1.1-.1.2A.35.35,0,0,1,58.82,392.76Z"/><path class="cls-4" d="M130,407.86v.2h-.2Z"/><path class="cls-3" d="M40.62,357.36v25.8a1.1,1.1,0,0,0,.8,1.2c6.5,2.3,13,4.7,19.5,7,4.6,1.7,9.3,3.3,13.9,5,2.1.8,5.1,2.5,7.3,2.6,1.6.1,3.4-1.1,4.8-1.7,4.3-1.7,8.5-3.4,12.8-5.2,6.8-2.7,13.6-5.5,20.4-8.2a3.08,3.08,0,0,0,1.8-2.6v-29.7c0-.8-.4-1.3-1.2-1.2-26,1.4-51.9,2.7-77.9,4.1-1.7.1-3.4,4.1-1,4,26-1.4,51.9-2.7,77.9-4.1l-1.2-1.2v29.7c.6-.9,1.2-1.8,1.8-2.6-6.5,2.6-13,5.2-19.4,7.8-4.4,1.8-8.8,3.5-13.1,5.3-1.2.5-2.5,1.1-3.7,1.5-1.5.4.6.2-.2,0-7.2-1.6-14.5-5.2-21.5-7.7-6.3-2.3-12.7-4.6-19-6.9.3.4.5.8.8,1.2v-25.8C44,353.16,40.62,355.56,40.62,357.36Z"/><path class="cls-3" d="M119.62,374.86l.2-.2c1.4-1.2,2-4.4.7-4.7.1-1.2-.4-2.1-1.7-1.6a4.68,4.68,0,0,0,1.1-4.1c1.5-1.9,1.5-6-1.3-3.8-4.9,3.8-17.3,12.6-22.4,16.3,4.5-3.9,16.4-12.7,20.9-16.6a4.34,4.34,0,0,0,1.3-3c1.1-2,.7-5.1-1.8-3.1l-4.9,4c1-1,2-2,3-3.1,2.1-2.2.8-5.8-2-3.2-.5.4-.9.9-1.4,1.3a1.17,1.17,0,0,0-1.1-.8c1.1-2,.8-5.1-1.7-3.2-3,2.4-6.1,4.8-9.1,7.2.6-1.8-.2-4.2-2.2-2.4-1.1.9-2.1,1.9-3.2,2.8.7-1.9.1-4.6-2.1-2.7-.2.2-.4.3-.5.5h0c-.8.7-1.5,1.4-2.3,2,.7-2,.1-4.2-2-2.4-3.5,3-13,10.9-16.5,13.8,1.4-1.5,8.8-8,10.2-9.5,2-2.2.8-5.9-2-3.2-.8.8-1.7,1.6-2.5,2.4.6-2-.5-3.9-2.8-1.8-.4.3-.7.7-1.1,1,0-1.3-.7-2.2-2.5-1.1-1.1.7-2.1,1.4-3.2,2.1.9-1.8.7-4.2-1.7-2.9-.3-.5-1-.6-2.2.1-1,.6-1.9,1.2-2.9,1.8.2-1.6-.4-2.8-2.3-1.4-.8.6-1.5,1.1-2.3,1.6.3-1.6-.5-3.1-2.5-1.8-.9.6-1.9,1.3-2.8,1.9.4-1.6.1-3.3-1.7-2.2a33.21,33.21,0,0,0-5.8,4c-1.3,1.2-1.7,4-.8,4.7-.1.2-.2.3-.3.5a2.19,2.19,0,0,0,.4,2.7c-.7,1.3-.8,3.2.2,3.5a4.76,4.76,0,0,0-.2,2.6c-1.6,1.4-1.2,5.1.8,4.1l-1.2,1.5c-1.3,1.7-.3,5.1,2,3.1,3.5-3,6.9-6.1,10.5-9.1l-9.3,9.9c-2.1,2.2-.8,5.9,2,3.2l3.9-3.6a21,21,0,0,0-1.4,1.7c-1.9,2.2-.8,6,2,3.2l.7-.7c.2,1.1.9,1.8,2.3.6l4.2-3.6c-.6.8-1.3,1.6-1.9,2.4-1.8,2.3.1,4.8,2.5,2.6l.2-.2c-.6,1.9,0,4.4,2.2,2.5.3-.2.5-.5.8-.7a15,15,0,0,0,2.7,2.9c-1,.9-3.7,2.7-4.6,3.6-1.7,1.6-1.4,2.8,1.5.7,2.5-1.8,4.9-3.7,7.3-5.6,0,1.4.7,2.5,2.4,1.1.3-.2.5-.4.8-.6-.5,1.6.2,3.1,1.7,2.6.1,1.2.9,2.1,2.5,1,.1-.1.2-.1.3-.2-1.5,1.8-1.8,5.6,1.3,3.8,2.4-1.4,4.7-2.9,7-4.4.2,1,1,1.6,2.4.6l5.3-3.8c0,1.3.7,2.2,2.4.9,1.6-1.1,3.1-2.3,4.7-3.4.1.8.6,1.3,1.8.6,2.3-1.3,4.5-2.6,6.8-3.9.2.5.8.7,1.7.2,1.9-1,3.8-1.9,5.6-2.9.4.3,1,.2,1.8-.5l1.5-1.2c.9-.7,1.8-3.2,1.4-4.3C121,375.66,120.82,374.56,119.62,374.86Z"/><path class="cls-2" d="M38.12,384.56c14.1,5.5,28.3,10.8,42.5,15.9,2.6.9,2.9,1.1,5,.2,2.4-1,4.7-2,7.1-3.1,10.6-4.6,21.3-10.1,31.9-14.7,1.3-.6,2.1-2.8.1-2-10.2,4.4-20.5,8.8-30.7,13.2-2.4,1-4.8,2.1-7.2,3.1-2.8,1.2-2.5,1-5.7-.2-13.8-5.4-27.8-11.2-41.6-16.6-1.2-.6-2.9,3.5-1.4,4.2Z"/><path class="cls-2" d="M93.92,365.56c-1.8-1.2-2.9-.3-3.9.9-2.8,3.7-8.6,10.5-11.6,14.1-2.1-2.5-6.2-7.5-6.2-7.5-1.2-1.3-8.2,4-5.1,6.3a37.06,37.06,0,0,1,7.4,7.4c.1.4,1.2.7,1.4,1,1.1,1.7,3.6.5,4.6-.7,4.5-5.4,11.8-11.3,16.1-16.9C97.62,369,95.62,366.66,93.92,365.56Z"/><path class="cls-2" d="M119.22,406.36h-.3a7.57,7.57,0,0,0-1.5.1,1,1,0,0,0-.7.5c-2.3.9-4.3,2.7-4.5,5.2-.4,3.4,3.4,5.6,6.4,5.2s7.3-3.1,7.3-6.3S122,406.56,119.22,406.36Zm0,9a5.37,5.37,0,0,1-5-2.4c-1.3-2.7,2.2-4.2,4.3-4.5a5.13,5.13,0,0,1,3.9,1.6C124.62,412.36,121.72,415.06,119.22,415.36Z"/><path class="cls-2" d="M89.72,409.06h18c.9,0,1.9-2,.9-2-6,0-12-1-18-1-.9,0-1.9,3-.9,3Z"/><path class="cls-2" d="M89,415.06c5.9,0,11.8,1,17.7,1,.9,0,1.9-3,.9-3H89.92c-.9,0-1.9,2-.9,2Z"/><path class="cls-1" d="M108.13,602.67c4.6-2.9,17.8-13.1,22.3-16.3-2.3,2.2-13.6,11.4-16.2,13.3C112.13,600.77,110.13,601.77,108.13,602.67Zm-37.7-115a135,135,0,0,1-20.8,14.7l-3.3,1.9C54.83,498.67,61.83,493.07,70.43,487.67Zm-21.7,5c-4,3-17.8,14.2-22.1,16.8,2-1.5,21.8-16.7,23.8-18.1C52.63,490,46.53,494,48.73,492.67Zm53.2,7.4c2.3-1.9,10.3-10.9,15.8-11.2C115.53,490.87,104.33,498.47,101.93,500.07Zm30.5,75c-1.3,1-2.6,2-4,2.9C129.73,577,131,576,132.43,575.07Zm-28,13.7c-6.7,5.4-19.4,14.4-22.6,16.1A174.15,174.15,0,0,1,104.43,588.77Zm25.3-22.9c-4.3,3-8.8,5.7-13.4,8.3,4.9-3.6,9.9-7.1,15.1-10.2l4.5-2.7C133.83,563,131.73,564.47,129.73,565.87Zm-65.9,35,18.7-13.5c-3.3,3-14.1,12.2-17.9,14.4C64.63,601.47,63.73,601.17,63.83,600.87Zm33.7-31.1c-4.2,3-8.5,5.9-12.9,8.6-2.3,1.4-4.6,2.7-6.9,4.1,7.6-5.6,15.2-11.3,23.1-16.6,4.3-2.9,8.8-5.6,13.2-8.3-4.3,3.1-8.5,6.3-12.8,9.5Zm60.2-51.1a12.19,12.19,0,0,0-5.9.9l.3-.3c1.5-1.4-.4-2.5-1.6-2.6a11.92,11.92,0,0,0-8.1,2.2l-1.3.9c1.9-1.5,3.8-2.9,5.7-4.4,1.1-.9,1.9-2.5.1-3.1a8.2,8.2,0,0,0-4.4-.1c.5-.5,1.1-1,1.6-1.5,1-.9,2-2.4.1-3.1-2.5-.9-5.7.1-8,1.3-3.3,1.7-6.6,3.5-9.8,5.3A113.25,113.25,0,0,0,137,504c1.3-1.5-.3-2.5-1.6-2.6a10.45,10.45,0,0,0-2.5,0,104.65,104.65,0,0,0,11.4-10.7c1.3-1.5-.3-2.5-1.6-2.6-2.6-.3-8.1.5-10.1,2.2-10.6,9.2-19.8,17.5-31.3,25.4-2.7,1.7-5.3,3.4-8,5.1,13.3-9.3,26.2-19.3,37.2-31.4,1.3-1.5-.3-2.5-1.6-2.6a11.57,11.57,0,0,0-3.2.1,15.92,15.92,0,0,0,1.3-2.2c1.2-2.2-4-2-4.8-1.8a8.33,8.33,0,0,0-1.5.4c.7-.6,1.3-1.2,1.9-1.8,1.4-1.4-.4-2.5-1.6-2.6a11.92,11.92,0,0,0-8.1,2.2c-5.6,4-11.1,8-16.7,12-1.5.9-3,1.7-4.5,2.5-9.4,5.3-18.4,11.2-27.6,16.8l-3.1,1.8.3-.2c19.1-12.3,39.2-23.2,56.6-37.7,1.7-1.5,1.4-3-.9-3.4a11.78,11.78,0,0,0-8.1,2.2,118.2,118.2,0,0,1-10.4,7c2.3-1.7,4.7-3.4,6.9-5.2,1.8-1.4,1.4-3.1-.9-3.4a11.78,11.78,0,0,0-8.1,2.2l-7.8,5.7a47.63,47.63,0,0,0,5-6.6c1-1.6-.1-2.4-1.7-2.6a12.2,12.2,0,0,0-7,1.5c-2.7,1.4-5.4,2.9-8.1,4.4.3-.4.7-.8,1-1.2,2.9-3.7-6.3-2.1-7.3-1.7-9.7,3.4-18.9,8.6-27.5,14.2a152.11,152.11,0,0,0-24.7,19.8c-1.5,1.4.1,2.2,1.6,2.5a71,71,0,0,0-9.4,8.8c-1.3,1.5.3,2.5,1.6,2.6a11.46,11.46,0,0,0,7-1.5c.6-.3,1.1-.7,1.7-1a74.85,74.85,0,0,0-9,7.9c-1.4,1.4.4,2.5,1.6,2.6,2.4.3-.2,3.5,2,2.5,1.1-.5,16.9-12.4,18-12.9-4.3,3.7-18.3,14.9-22.3,19.1-1.4,1.4.4,2.5,1.6,2.6a6.7,6.7,0,0,0,2,0c-1.5,1.5-2.9,3.1-4.3,4.7s.3,2.5,1.6,2.6a10.75,10.75,0,0,0,3.1-.1c-1.3.9-2.7,1.8-4,2.8-1.9,1.4-1.3,3.1.9,3.4-2.6,4.8,5.8-.6,8.1-2.2l4-2.8c11.9-8,24.7-14.7,37.2-21.7-4.6,3.6-9.3,7.2-14,10.6-4.4,2.3-8.9,4.5-13.4,6.6-7,3.3-16.8,7.1-19.9,14.9-1.1,2.8,5.4,1.7,6.3,1.5-4,2.1,3-.2,5-1-2.6,2-4.2,2.9-6.8,4.8-1.2.8-1.9,2.5-.1,3.1,2.5.9,5.8-.1,8-1.3h-.9c-2.7,2.5-4.2,5.2-6.4,8.3-1.1,1.5.1,2.4,1.7,2.6a12.2,12.2,0,0,0,7-1.5c.9-.5,1.9-1,2.8-1.5-2.3,2-4.6,4.2-6.9,6.4-1.4,1.4.4,2.5,1.7,2.6a10.75,10.75,0,0,0,5.3-.8,17.9,17.9,0,0,0-4.1,8.8c-.5,2.9,4.9,1.9,6.3,1.5a48.51,48.51,0,0,0,9.2-3.5c-1.8,1.9-3.5,3.9-5.2,6-1.2,1.5.2,2.5,1.7,2.6a9.44,9.44,0,0,0,3.7-.2,10.7,10.7,0,0,0-1.4,1.6c-1.3,1.5.3,2.5,1.7,2.6a11.46,11.46,0,0,0,7-1.5l.5-.3c-1.1,1-2.2,2.1-3.3,3.2-1.4,1.4.4,2.5,1.7,2.6a10.85,10.85,0,0,0,4-.3c.2,0,.5-.1.8-.1l.3,1.2c.7,2.1,4.9,1.2,6.3.8l.7-.2c-1.2,1.5.2,2.4,1.7,2.6a10.46,10.46,0,0,0,2.5,0c-1,1.9,3.8,2.1,4.8,2,2.2-.4,4.4-1,6.5-1.6-.6.3-1.2.7-1.8,1-.9.5-3.3,2.2-1.9,3.4s4.3.7,5.9.2,2.9-.8,4.3-1.3c-.8.7-1.3,1.6-.5,2.4,1.8,1.6,5.5.5,7.4-.3,10.6-4.1,21-8.5,30.3-14.4,1.8-.9,3.6-1.8,5.4-2.8,11.1-6.2,22.6-14.7,26.8-27.4.7-2-1.9-2.1-4.5-1.7a45.67,45.67,0,0,0,5.4-6.9c1.1-1.9-.1-2.5-1.9-2.5a30,30,0,0,0,6.2-9.5c.4-1.1-.7-1.6-1.6-1.8a19.22,19.22,0,0,0,1.6-4.2c.6-2.3-3.6-2-4.8-1.8a20.47,20.47,0,0,0-2.4.5c1.6-1.7,3.2-3.4,4.7-5.2,1.2-1.5-.2-2.5-1.6-2.6a6.6,6.6,0,0,0-1.4-.1,35.53,35.53,0,0,0,4.8-6.7c1.3-2.3-3.8-1.8-6.4-1.3,2.9-2,5.7-4.2,8.5-6.5C160.33,520.57,160.13,519,157.73,518.67Z"/><path class="cls-2" d="M13.83,547.27c0-15.3,7.1-32.1,17.6-44.2,10.9-12.5,25.3-20.1,40.6-21.4,1.2-.1,2.4-2,2.3-2.8,0-.3-.2-2-1.8-1.8-12.1,1-23.7,6.6-33.7,14,1.5-1.2,3.1-2.4,4.7-3.5a69.86,69.86,0,0,1,39-11.6,71.18,71.18,0,0,1,27.6,5.5c17.3,7.4,30.6,21.9,37.4,41a81.45,81.45,0,0,1,2.4,31.1c-1.9,16.1-8.4,31.2-19,41.7-11.9,11.7-27.8,18.2-44.8,20.1a60.85,60.85,0,0,1-12.8.1,61.81,61.81,0,0,1-8.4-2.4C36.33,602.67,13.73,575.57,13.83,547.27Zm24.6,54.4a61.21,61.21,0,0,1-9.9-9.8A101.71,101.71,0,0,0,38.43,601.67Zm54.9,15c2.8-.6,5.6-1.3,8.3-2.1a81.34,81.34,0,0,0,36.8-23.6,68.13,68.13,0,0,1-26,20.6A63.59,63.59,0,0,1,93.33,616.67ZM118,476.07l-.8-.5a1.55,1.55,0,0,0-.8-.2c-1.1,0-2.9.7-3.1,1.5a.79.79,0,0,0,.5.9,66.64,66.64,0,0,1,9.3,6.4c-11.8-7.4-26.2-12.3-40.8-11.9-22.6.6-44.2,11.3-57.6,27.6-11.7,14.2-17.6,32.8-16.3,52.8,1.3,19.8,11.3,39,25.5,50.7,10.2,8.4,23.1,15.5,37.5,16.6,4.8,1,9.7.5,14.6.5,13,0,25.8-4.6,36.8-11.5a71,71,0,0,0,33.5-52.6,76.38,76.38,0,0,0-4.3-35.3A75,75,0,0,0,118,476.07Z"/><path class="cls-2" d="M138.23,552.27c-.1-4.4,0-8.8,0-13.1,0-6.8,1.3-14.2-3.5-19.7-4.4-4.9-11.9-7.7-17.6-11-7.3-4.2-14.7-8.3-22-12.5-2.9-1.6-6.7-4.9-9.9-5.5-2.7-.5-5.1,1.8-7.2,3.1-7.8,5-15.7,10-23.5,15.1-5.8,3.7-12.7,7-17.6,12-4.4,4.5-5.3,9.5-5.5,15.5-1.6,3.1-2.7,7.5-.1,8.4-.1,1.4-.2,2.7-.4,4.2a8.63,8.63,0,0,0,.4,2.8c-1,2.2-1.7,4.8-.9,6.4a7.29,7.29,0,0,0-1.2,5.4,3.19,3.19,0,0,0,2.2,2.8c-.1,4.6-.2,9.2.1,13.6.1,1.8-.9,2.7,0,4.3,1.3,2.2,4.3,3.3,5.7,5.2a2,2,0,0,0,2,.8c3-.6,6.7.4,9.7.5,3.7.1,7.6-.1,11.3-.2,3,0,4.8.4,7.7-.4,1-.8,1.1-.7.4.2h2c1.8,0,3.6-.1,5.4-.1,1.2,2.5,4,1.5,6.3,0h0c1.2,1.9,3.4,1.4,5.5.1,1.2.1,2.3.4,3.4.4s3.3-1.3,4.4-.2a2.06,2.06,0,0,0,1.5.3c.6-.2,1.1-.3,1.6-.5h2.4c1,2.3,3.4,1.8,5.8.5,1.4,2.5,6.1,0,8.9-.5,6.4-1.1,9.9,1.5,15.5-2.3,8.9-6.1,7.2-18.8,7.1-28.2C138.83,557.07,138.23,554.87,138.23,552.27Z"/><path class="cls-3" d="M136.23,548.27c-.1-4.4,0-8.8,0-13.1,0-6.8,1.3-14.2-3.5-19.7-4.4-4.9-11.9-7.7-17.6-11-7.3-4.2-14.7-8.3-22-12.5-2.8-1.6-6.5-4.7-9.7-5.5a165.17,165.17,0,0,1-19,13.2c-6,3.7-12.1,7.3-17.9,11.2-4.7,3.2-12.4,9-17.4,11.9-2.1,3.6.4,4.9.2,9.4-1.6,3.1-2.7,7.5-.1,8.4-.1,1.4-.2,2.7-.4,4.2a8.63,8.63,0,0,0,.4,2.8c-1,2.2-1.7,4.8-.9,6.4a7.29,7.29,0,0,0-1.2,5.4c.3,1.6.1,2.5,1.2,2.8-.1,4.6.8,9.2,1.1,13.6a8,8,0,0,0,1,4.3c1.3,2.2,3.3,3.3,4.7,5.2a2,2,0,0,0,2,.8c3-.6,6.7.4,9.7.5,3.7.1,7.6-.1,11.3-.2,3,0,4.8.4,7.7-.4,1-.8,1.1-.7.4.2h2c1.8,0,3.6-.1,5.4-.1,1.2,2.5,4,1.5,6.3,0h0c1.2,1.9,3.4,1.4,5.5.1,1.2.1,2.3.4,3.4.4s3.3-1.3,4.4-.2a2.06,2.06,0,0,0,1.5.3c.6-.2,1.1-.3,1.6-.5h2.4c1,2.3,3.4,1.8,5.8.5,1.4,2.5,6.1,0,8.9-.5,6.4-1.1,10.9,2.5,16.5-1.3,8.9-6.1,6.2-19.8,6.1-29.2C136.83,553.07,136.23,550.87,136.23,548.27Z"/><path class="cls-4" d="M132.83,556.67c.6-1.2.8-2.8,0-3.2v-20.6c0-2.5.1-5.1,0-7.6a12.14,12.14,0,0,0-4.1-8.5,2,2,0,0,0-1.5-1.2c-.9-.6-1.8-1.1-2.7-1.7-3.2-1.8-6.4-3.6-9.6-5.5a1.61,1.61,0,0,0-.7-.4l-11.1-6.3c-6.8-3.9-13.6-6.7-20.5-10.6l-5,4.1c.7-.5,1.5-.9,2.2-1.4.3.1.5.3.8.4-.2.1-.3.2-.5.3-2.8,1.8-5.6,3.5-8.4,5.3-2.5,1.9-5,3.7-7.5,5.5-8.9,6.4-18.8,11.2-27.6,17.7l-.3.6a1.2,1.2,0,0,0-.5.5c0-.2.1-.4.1-.6a26.51,26.51,0,0,0-2.6,2.1c-.1.1-.2.1-.3.2a4.87,4.87,0,0,0-.1,1.2c-.1,1.6-.1,3.2-.1,4.8a6,6,0,0,1-.8.8c-1.1,1.1-1.8,5,.8,3.9V542c-.8,1.2-1,3.2,0,3.6v1.2c-.1.2-.3.3-.4.5-1.2,1.4-1.4,4.4.4,4V553l-1.3,1.3c-1.6,1.5-1.3,5.4,1.3,3.6v11.5c-.4,1.1-.4,2.3.1,2.7a8.81,8.81,0,0,0,.2,1.7c-.7,1.3-.3,2.8.7,3a7.51,7.51,0,0,0,3.8,4.4c.2.8.8,1.2,1.8.6.5.1,1.1.2,1.7.3a24.37,24.37,0,0,0,2.7.1.89.89,0,0,0,1,0c.8,0,1.7.1,2.6.1.3.3.7.3,1.3,0,1.7,0,3.4.1,5.1.1a1.1,1.1,0,0,0,.8,0c3.1,0,6.2,0,9.3-.1.3.6,1,.8,2.1,0h0a22.61,22.61,0,0,0,2.6-.1.85.85,0,0,0,.7,0c2.4,0,4.9-.1,7.3-.1,0,1.4.8,2.5,2.4,1.1.5-.4.9-.8,1.4-1.2h2.4c0,1.3.7,2.1,2.2.8.3-.3.7-.5,1-.8h3.3c.3.6.9.7,1.9,0h4.2c.2.5.7.8,1.7.2.1-.1.2-.1.3-.2h4.4c-.2,1.5.5,2.6,2.3,1.4l2-1.4h1.6c-.3,1.3,0,2.4,1.8,1.7,1.3-.5,2.7-1.1,4-1.7h9.9c10.1-.7,9.4-10.8,9.4-18.1v-7.2Zm-97.1-6.9c.5-.3,1.1-.7,1.6-1-.5.5-1.1,1-1.6,1.6Zm3.2,27.7c-.2-.1-.3-.2-.5-.3.8-.5,1.5-1.1,2.3-1.6C40.13,576.17,39.53,576.87,38.93,577.47Zm5.4.7a2.19,2.19,0,0,0-.3.5h-1.6c.6-.5,7-6.6,7.6-7.1C49.73,571.87,44.63,577.87,44.33,578.17Zm-8.7-11.9v-1.7h.1c3.3-2.5,12.4-9.7,15.7-12.2C48.13,555.47,39,563.17,35.63,566.27ZM54,578.37c-.1.1-.2.3-.3.4h-.4c.4-.3.7-.6,1.1-.9C54.33,578.07,54.13,578.17,54,578.37Zm42.4-72a5,5,0,0,0,1.2-2.4c1,.6,2,1.1,2.9,1.7a36.39,36.39,0,0,0-7.3,3.9C94.33,508.47,95.43,507.47,96.43,506.37Zm-5.2-6.1c.6.4,1.3.7,1.9,1.1-2.3,1.9-4.7,3.7-7.1,5.4.9-.7,1.7-1.5,2.6-2.2A6.7,6.7,0,0,0,91.23,500.27Zm-9.7,0c1.1-1,2.7-2.7,2.6-4.1l.2.8c-.1,0,2.9,1.1,2.8,1.1h0c-2.2,1.3-10.7,7.7-12.9,9C74.83,506.57,80.83,500.87,81.53,500.27ZM71,548.67a3,3,0,0,0,.5-.7c.5.3,1.1.7,1.6,1,.1,0,.1.1.2.1a.1.1,0,0,0-.1.1c-.5-.6-1.4-.7-2.6.5-1.5,1.5-3.1,2.9-4.6,4.3Zm-12.7-6.2,1.5-1.5a.35.35,0,0,1,.2.1A11.51,11.51,0,0,1,58.33,542.47Zm6.3,36.3h-1.1c1.4-1.2,6.5-7,7.9-8.2C70.33,571.67,65.73,577.57,64.63,578.77Zm2.5-19.5c2.2-2,4.5-4,6.8-5.9a3.11,3.11,0,0,0,.7-.9l.3.3C72.33,554.87,69.73,557.07,67.13,559.27Zm9.4.9,10.5-8.4a3.87,3.87,0,0,0,1.3-2.7c1.7-.8,3.4-1.8,5-2.5l.4-.2v.3c-6.7,5.3-13.3,10.6-20,15.9C74.73,561.77,75.63,561,76.53,560.17Zm-1,18.6h-1.9c7.5-4.9,14.2-9.9,20.9-14.9C89.13,568.77,75.53,578.77,75.53,578.77Zm21.1-.8a5.55,5.55,0,0,0-.6.8h-.6l2.7-2.1A17.38,17.38,0,0,0,96.63,578Zm7.5.8h-1.2c.4-.3.9-.5,1.3-.8.8-.3,1.5-.7,2.3-1A15,15,0,0,0,104.13,578.77Zm-.2-65c-3.8,2.9-7.6,5.8-11.4,8.8-.6.4-1.1.9-1.7,1.3-.8.5-1.7,1-2.5,1.5,5-4.6,10-9.2,14.9-14a7.2,7.2,0,0,0,1.5-3.4c1.3.7,2.6,1.5,3.8,2.2C107,511.17,105.53,512.57,103.93,513.77Zm24.3,8.9a14,14,0,0,1,1.3,3.6c-3.1,2.2-6.3,3-9.7,4.7C122.93,528.77,126.63,526.07,128.23,522.67Zm-13.6-9.1.6.3c-.4.2-.8.5-1.2.7A8.79,8.79,0,0,0,114.63,513.57Zm-4.1,12.9c2.5-2.2,5-4.5,7.3-6.9a6.66,6.66,0,0,0,1.5-3.3c1.3.7,2.6,1.5,3.9,2.2C118.93,521.17,114.73,523.87,110.53,526.47Zm13.2,10c1.5-1.3,1.8-2.9.2-2.6A63.3,63.3,0,0,0,130,530v2.3a1.76,1.76,0,0,0-.5.4c-4.6,3.5-9.2,7.1-13.8,10.6C118.33,541,121,538.77,123.73,536.47Zm-4.1,42.3,2.4-1.5a2.45,2.45,0,0,0,.1,1.5Zm3.3-30.3,7.1-6.8v1.4c-.1.1-.3.2-.4.3C127.33,545.07,125.13,546.77,122.93,548.47Zm7.1-.6v1.2c-.1.1-.2.1-.3.2-1.9,1.2-7.7,6.2-9.5,7.4C122.13,555,128,549.57,130,547.87Zm0,5.9v.7c-.6.3-1.2.6-1.9,1C128.73,554.87,129.43,554.37,130,553.77Zm-5.2,24.9a15,15,0,0,0,4.6-3.3c.1-.1.1-.1.1-.2C128.93,577,127.63,578.27,124.83,578.67Zm5.2-11.4v.9a1.38,1.38,0,0,0-.4-.3C129.73,567.67,129.93,567.47,130,567.27Zm0,4.6c-.1-.1-.2-.3-.4-.4a2.51,2.51,0,0,1,.4-.7Z"/><path class="cls-4" d="M58.83,548.27h0c0,.1-.1.1-.1.2A.35.35,0,0,1,58.83,548.27Z"/><path class="cls-4" d="M130,563.37v.2h-.2C129.93,563.47,129.93,563.37,130,563.37Z"/><path class="cls-3" d="M40.63,512.87v25.8a1.1,1.1,0,0,0,.8,1.2c6.5,2.3,13,4.7,19.5,7,4.6,1.7,9.3,3.3,13.9,5,2.1.8,5.1,2.5,7.3,2.6,1.6.1,3.4-1.1,4.8-1.7,4.3-1.7,8.5-3.4,12.8-5.2,6.8-2.7,13.6-5.5,20.4-8.2a3.08,3.08,0,0,0,1.8-2.6v-29.7c0-.8-.4-1.3-1.2-1.2-26,1.4-51.9,2.7-77.9,4.1-1.7.1-3.4,4.1-1,4,26-1.4,51.9-2.7,77.9-4.1l-1.2-1.2v29.7c.6-.9,1.2-1.8,1.8-2.6-6.5,2.6-13,5.2-19.4,7.8-4.4,1.8-8.8,3.5-13.1,5.3-1.2.5-2.5,1.1-3.7,1.5-1.5.4.6.2-.2,0-7.2-1.6-14.5-5.2-21.5-7.7-6.3-2.3-12.7-4.6-19-6.9.3.4.5.8.8,1.2v-25.8C44,508.67,40.63,511.07,40.63,512.87Z"/><path class="cls-3" d="M119.63,530.37l.2-.2c1.4-1.2,2-4.4.7-4.7.1-1.2-.4-2.1-1.7-1.6a4.68,4.68,0,0,0,1.1-4.1c1.5-1.9,1.5-6-1.3-3.8-4.9,3.8-17.3,12.6-22.4,16.3,4.5-3.9,16.4-12.7,20.9-16.6a4.34,4.34,0,0,0,1.3-3c1.1-2,.7-5.1-1.8-3.1l-4.9,4c1-1,2-2,3-3.1,2.1-2.2.8-5.8-2-3.2-.5.4-.9.9-1.4,1.3a1.17,1.17,0,0,0-1.1-.8c1.1-2,.8-5.1-1.7-3.2-3,2.4-6.1,4.8-9.1,7.2.6-1.8-.2-4.2-2.2-2.4-1.1.9-2.1,1.9-3.2,2.8.7-1.9.1-4.6-2.1-2.7-.2.2-.4.3-.5.5h0c-.8.7-1.5,1.4-2.3,2,.7-2,.1-4.2-2-2.4-3.5,3-13,10.9-16.5,13.8l12.2-13c2-2.2-1.2-2.4-4,.3-.8.8-1.7,1.6-2.5,2.4.6-2-.5-3.9-2.8-1.8-.4.3-.7.7-1.1,1,0-1.3-.7-2.2-2.5-1.1-1.1.7-2.1,1.4-3.2,2.1.9-1.8.7-4.2-1.7-2.9-.3-.5-1-.6-2.2.1-1,.6-1.9,1.2-2.9,1.8.2-1.6-.4-2.8-2.3-1.4-.8.6-1.5,1.1-2.3,1.6.3-1.6-.5-3.1-2.5-1.8-.9.6-1.9,1.3-2.8,1.9.4-1.6.1-3.3-1.7-2.2a33.22,33.22,0,0,0-5.8,4c-1.3,1.2-1.7,4-.8,4.7-.1.2-.2.3-.3.5a2.19,2.19,0,0,0,.4,2.7c-.7,1.3-.8,3.2.2,3.5a4.76,4.76,0,0,0-.2,2.6c-1.6,1.4-1.2,5.1.8,4.1l-1.2,1.5c-1.3,1.7-.3,5.1,2,3.1,3.5-3,6.9-6.1,10.5-9.1l-9.3,9.9c-2.1,2.2-.8,5.9,2,3.2l3.9-3.6a20.94,20.94,0,0,0-1.4,1.7c-1.9,2.2-.8,6,2,3.2l.7-.7c.2,1.1.9,1.8,2.3.6l4.2-3.6c-.6.8-1.3,1.6-1.9,2.4-1.8,2.3.1,4.8,2.5,2.6l.2-.2c-.6,1.9,0,4.4,2.2,2.5.3-.2.5-.5.8-.7a15,15,0,0,0,2.7,2.9c-1,.9-3.7,2.7-4.6,3.6-1.7,1.6-1.4,2.8,1.5.7,2.5-1.8,4.9-3.7,7.3-5.6,0,1.4.7,2.5,2.4,1.1.3-.2.5-.4.8-.6-.5,1.6.2,3.1,1.7,2.6.1,1.2.9,2.1,2.5,1,.1-.1.2-.1.3-.2-1.5,1.8-1.8,5.6,1.3,3.8,2.4-1.4,4.7-2.9,7-4.4.2,1,1,1.6,2.4.6l5.3-3.8c0,1.3.7,2.2,2.4.9,1.6-1.1,3.1-2.3,4.7-3.4.1.8.6,1.3,1.8.6,2.3-1.3,4.5-2.6,6.8-3.9.2.5.8.7,1.7.2,1.9-1,3.8-1.9,5.6-2.9.4.3,1,.2,1.8-.5l1.5-1.2c.9-.7,1.8-3.2,1.4-4.3C121,531.17,120.83,530,119.63,530.37Z"/><path class="cls-2" d="M38.13,540c14.1,5.5,28.3,10.8,42.5,15.9,2.6.9,2.9,1.1,5,.2,2.4-1,4.7-2,7.1-3.1,10.6-4.6,21.3-10.1,31.9-14.7,1.3-.6,2.1-2.8.1-2-10.2,4.4-20.5,8.8-30.7,13.2-2.4,1-4.8,2.1-7.2,3.1-2.8,1.2-2.5,1-5.7-.2-13.8-5.4-27.8-10.2-41.6-15.6-1.2-.5-3,2.6-1.4,3.2Z"/><path class="cls-2" d="M93.93,521c-1.8-1.2-2.9-.3-3.9.9-2.8,3.7-8.6,10.5-11.6,14.1-2.1-2.5-6.2-7.5-6.2-7.5-1.2-1.3-8.2,4-5.1,6.3a37.06,37.06,0,0,1,7.4,7.4c.1.4,1.2.7,1.4,1,1.1,1.7,3.6-.5,4.6-1.7,4.5-5.4,11.8-10.3,16.1-15.9C97.63,524.37,95.63,522.17,93.93,521Z"/><path class="cls-2" d="M119.23,561.87h-.3a7.57,7.57,0,0,0-1.5.1,1,1,0,0,0-.7.5c-2.3.9-4.3,2.7-4.5,5.2-.4,3.4,3.4,5.6,6.4,5.2s7.3-3.1,7.3-6.3S122,562,119.23,561.87Zm0,9a5.37,5.37,0,0,1-5-2.4c-1.3-2.7,2.2-3.2,4.3-3.5,1.5,0,2.9-.5,3.9.6C124.63,567.87,121.63,570.57,119.23,570.87Z"/><path class="cls-2" d="M89.63,564.47h18c.9,0,1.9-2,.9-2-6,0-12-1-18-1-.8,0-1.8,3-.9,3Z"/><path class="cls-2" d="M89,570.47c5.9,0,11.8,1,17.7,1,.9,0,1.9-3,.9-3H89.93c-.9,0-1.9,2-.9,2Z"/></svg>