<svg id="Camada_1" data-name="Camada 1" xmlns="http://www.w3.org/2000/svg" viewBox="0 0 168 624"><defs><style>.cls-1{fill:#009dff;}.cls-2,.cls-5{fill:#09519f;}.cls-3{fill:#fff;}.cls-4{fill:#f9c236;}.cls-5{stroke:#09519f;stroke-miterlimit:10;stroke-width:0.25px;}</style></defs><title>sair</title><path class="cls-1" d="M107,135.78c4.6-2.9,9.1-6,13.5-9.1a55.47,55.47,0,0,1-7.5,6.1C111.12,133.78,109,134.78,107,135.78ZM70.92,20.58c-6.8,5.8-14.7,10.4-22.3,14.8l-3.4,2C53.72,31.68,62.22,26,70.92,20.58Zm-15-.2a142.45,142.45,0,0,1-12.5,8.3c2-1.5,4-2.8,6-4.2S53.72,21.68,55.92,20.38Zm44.9,12.8c2.3-1.9,4.6-3.7,7-5.4C105.62,29.68,103.22,31.48,100.82,33.18Zm30.5,74.9c-1.3,1-2.7,2-4,2.9C128.62,110.08,130,109.08,131.32,108.08Zm-28,13.8c-6.7,5.4-13.8,11.2-21.6,15.1A146.72,146.72,0,0,1,103.32,121.88Zm25.3-23c-4.3,3-8.8,5.7-13.4,8.3,4.9-3.6,9.9-7.1,15.1-10.2l4.5-2.7A66.16,66.16,0,0,1,128.62,98.88Zm-64.8,35c3.5-2.4,6.9-4.9,10.4-7.4a64,64,0,0,1-10.6,8.2A3.09,3.09,0,0,1,63.82,133.88Zm32.7-31c-4.2,3-8.5,5.9-12.9,8.6-2.3,1.4-4.6,2.7-6.9,4.1,7.6-5.7,15.2-11.3,23.1-16.6,4.3-2.9,8.8-5.6,13.2-8.2-4.3,3.1-8.5,6.3-12.8,9.5C98.92,101.08,97.72,102,96.52,102.88Zm60.2-51.2a12.19,12.19,0,0,0-5.9.9l.3-.3c1.5-1.4-.4-2.5-1.6-2.6a11.92,11.92,0,0,0-8.1,2.2l-1.3.9c1.9-1.5,3.8-2.9,5.7-4.4,1.1-.9,1.9-2.4.1-3.1a8.2,8.2,0,0,0-4.4-.1c.6-.5,1.1-1,1.6-1.5,1-.9,2-2.4.1-3.1-2.5-.9-5.7.1-8,1.3-3.3,1.7-6.6,3.5-9.8,5.3A113.25,113.25,0,0,0,136,37c1.3-1.5-.3-2.5-1.6-2.6a10.45,10.45,0,0,0-2.5,0,104.66,104.66,0,0,0,11.4-10.7c1.3-1.5-.3-2.5-1.6-2.6a11.64,11.64,0,0,0-8.1,2.2,370.48,370.48,0,0,1-33.3,25.4c-2.7,1.7-5.3,3.4-8,5.1,13.3-9.3,26.2-19.3,37.2-31.4,1.3-1.5-.3-2.5-1.6-2.6a11.56,11.56,0,0,0-3.2.1,15.92,15.92,0,0,0,1.3-2.2c1.2-2.2-4-2-4.8-1.8a8.33,8.33,0,0,0-1.5.4c.6-.6,1.3-1.2,1.9-1.8,1.4-1.4-.4-2.5-1.7-2.6a11.92,11.92,0,0,0-8.1,2.2c-5.6,4-11.1,8-16.7,12-1.5.9-3,1.7-4.5,2.5-9.4,5.3-18.4,11.2-27.6,16.8l-3.1,1.8.3-.2c19.1-12.3,39.2-23.2,56.6-37.7,1.7-1.5,1.4-3.1-.9-3.4a11.78,11.78,0,0,0-8.1,2.2,118.2,118.2,0,0,1-10.4,7c2.3-1.7,4.7-3.4,6.9-5.2,1.8-1.4,1.4-3.1-.9-3.4a12.32,12.32,0,0,0-8.1,2.2l-7.8,5.7a54.45,54.45,0,0,0,5-6.6c1-1.6-.1-2.4-1.7-2.6a12.2,12.2,0,0,0-7,1.5c-2.7,1.4-5.4,2.9-8.1,4.4.3-.4.7-.8,1-1.2,2.9-3.7-6.3-2.1-7.3-1.7-9.4,3.2-18.5,8.3-27.1,14A147.65,147.65,0,0,0,17.52,42c-1.5,1.5.1,2.2,1.6,2.5a71,71,0,0,0-9.4,8.8c-1.3,1.5.3,2.5,1.6,2.6a11.46,11.46,0,0,0,7-1.5c.6-.3,1.1-.7,1.7-1a74.85,74.85,0,0,0-9,7.9c-1.4,1.4.4,2.5,1.6,2.6a13.26,13.26,0,0,0,7-1.5c1.1-.5,2.2-1.1,3.3-1.6-4.3,3.7-8.6,7.7-12.6,11.8-1.4,1.4.4,2.5,1.7,2.6a6.7,6.7,0,0,0,2,0c-1.5,1.5-2.9,3.1-4.3,4.7s.2,2.5,1.6,2.7a10.75,10.75,0,0,0,3.1-.1c-1.3.9-2.7,1.8-4,2.8-1.9,1.4-1.3,3.1.9,3.3a11.78,11.78,0,0,0,8.1-2.2l4-2.8c11.9-8.1,24.7-14.7,37.2-21.7-4.6,3.6-9.3,7.2-14,10.6-4.4,2.3-8.9,4.5-13.4,6.6-7,3.3-16.8,7.1-19.9,14.9-1.1,2.8,5.4,1.7,6.3,1.5a32.88,32.88,0,0,0,6-2.1c-2.6,1.9-5.2,3.9-7.8,5.8-1.2.8-1.9,2.5-.1,3.1,2.5.9,5.8-.1,8-1.3l.1-.1a58.52,58.52,0,0,0-7.4,8.3c-1.1,1.5.1,2.4,1.7,2.6a12.2,12.2,0,0,0,7-1.5c.9-.5,1.9-1,2.8-1.5-2.3,2.1-4.6,4.2-6.9,6.4-1.4,1.4.4,2.5,1.6,2.6A11.15,11.15,0,0,0,30,117a18.24,18.24,0,0,0-4.1,8.9c-.5,2.9,4.9,1.9,6.3,1.5a48.51,48.51,0,0,0,9.2-3.5c-1.8,1.9-3.5,3.9-5.2,6-1.2,1.5.2,2.4,1.7,2.6a11.83,11.83,0,0,0,3.7-.2,10.7,10.7,0,0,0-1.4,1.6c-1.3,1.5.3,2.5,1.7,2.6a11.46,11.46,0,0,0,7-1.5l.5-.3c-1.1,1-2.2,2.1-3.3,3.2-1.4,1.4.4,2.5,1.7,2.6a10.85,10.85,0,0,0,4-.3c.2,0,.5-.1.8-.1l.3,1.2c.7,2.1,4.9,1.2,6.3.8l.7-.2c-1.2,1.5.3,2.4,1.7,2.6a10.45,10.45,0,0,0,2.5,0c-1,1.9,3.8,2.1,4.8,1.9,2.2-.4,4.4-1,6.5-1.6-.6.3-1.2.7-1.8,1-.9.5-3.3,2.1-1.9,3.4s4.3.7,5.9.2,2.9-.8,4.3-1.3c-.8.7-1.3,1.6-.5,2.4,1.8,1.6,5.5.5,7.4-.2,10.6-4.1,21-8.5,30.3-14.4,1.8-.9,3.6-1.9,5.4-2.9,11.1-6.2,22.6-14.7,26.8-27.4.7-2-1.9-2.1-4.5-1.7a45.68,45.68,0,0,0,5.4-6.9c1.1-1.9-.1-2.5-1.9-2.5a32.13,32.13,0,0,0,6.3-9.5c.4-1.1-.7-1.6-1.6-1.8a19.22,19.22,0,0,0,1.6-4.2c.6-2.3-3.6-2-4.8-1.8a20.48,20.48,0,0,0-2.4.5c1.6-1.7,3.2-3.4,4.7-5.3,1.2-1.5-.2-2.4-1.6-2.6a6.6,6.6,0,0,0-1.4-.1,40.67,40.67,0,0,0,4.8-6.7c1.3-2.3-3.8-1.8-6.4-1.3,2.9-2,5.7-4.2,8.5-6.5C159.32,53.58,159,52,156.72,51.68Z"/><path class="cls-2" d="M140.12,122.68a67.13,67.13,0,0,1-25.7,20.2,62.68,62.68,0,0,1-18.5,5,65.29,65.29,0,0,0,7.6-2A81.56,81.56,0,0,0,140.12,122.68ZM40,132.88a61,61,0,0,1-9.5-9.5A94.66,94.66,0,0,0,40,132.88Zm33.9-120.8c1.2-.1,2.3-1,2.3-1.8,0-.3-.2-.9-1.4-.9h-.4a65.45,65.45,0,0,0-32.9,12.4c1.3-1,2.6-2,3.9-2.9,11-7.5,24.9-11.6,39.1-11.6a70.32,70.32,0,0,1,27.5,5.5c17.3,7.4,30.6,21.9,37.4,40.8a81.81,81.81,0,0,1,2.4,31.2c-1.9,16.1-8.4,30.2-19,40.7A76.12,76.12,0,0,1,88,146.58a61.81,61.81,0,0,1-12.9.1,60.47,60.47,0,0,1-8.3-2.4c-28.6-10.3-50.2-39.5-50.2-67.7,0-15.3,6.1-31,16.6-43.2C44.22,21.08,58.62,13.48,73.92,12.08Zm80,40.3a75.52,75.52,0,0,0-34-44.9l-.8-.5a1.88,1.88,0,0,0-.8-.2c-1,0-2.8.7-3.1,1.6-.1.2-.1.6.5,1a56.77,56.77,0,0,1,9.1,6.3,74,74,0,0,0-40.7-10.9c-22.6.5-43.2,10.2-56.5,26.5C15.92,45.48,10,65.08,11.42,85s10.3,38,24.5,49.7a66.64,66.64,0,0,0,37.5,14.6,71.64,71.64,0,0,0,14.6,1.5,70.11,70.11,0,0,0,36.8-10.4,71,71,0,0,0,33.5-52.6A78.22,78.22,0,0,0,153.92,52.38Z"/><polygon class="cls-2" points="91.72 39.48 121.61 39.68 112.22 130.98 86.52 130.98 91.72 39.48"/><path class="cls-3" d="M138.22,53.68c-3.2,1.1-5.7,4.7-8.3,6.7a8.34,8.34,0,0,1-1.2.8c-1.5,1.5-3.1,3-4.8,4.4a22.48,22.48,0,0,1-10.3,3.4c-9.8.8-16.4-4.8-22.7-11.4-4.3-4.5-12.3,5.6-8.8,9.2,2.8,2.9,1,4,3.9,6.2-1.4,1.4,2,4.8,1.7,5.9-1.9,7.3-3.4,14.6-4.6,22.1-1,6.7-.5,13.1,2.5,9,.3-.5.7,4.1,1.1,3.6,5.2-9.7,19-33,23.6-33.2,15.2-.9,20.4-5.9,26.8-10.7,3.6-2.7,6.8-7.1,7.1-11.6.1-1.6-1.4-2.3-2-4.2A5.42,5.42,0,0,0,138.22,53.68Z"/><path class="cls-3" d="M117.52,36.38a7.17,7.17,0,0,0-8.2.7c-3.3.9-5.7,3.7-7.5,6.7s-3.8,7-2.1,10.6c1.5,3.2,5.5,5.6,9,5.8,3.8.2,7.4-2.2,10.1-4.8C124.12,50.18,125,40.38,117.52,36.38Z"/><path class="cls-2" d="M95.12,25.08c-1.2-6.2-6.6-5.2-11.3-3.8-5.4,1.6-10.9,3.3-16.3,4.9-9.6,2.9-19.1,5.8-28.7,8.6-2.2.7-4.6,3-4.4,5.5.3,5.7.6,11.4,1,17.1a.75.75,0,0,0,.1.5v.4c1,16.7,2.1,33.4,3.4,50.1,0,.2.1.5.1.7v.6c.5,6.5,1.1,12.9,1.7,19.4a2,2,0,0,0,1.5,1.6c9.2,1.3,18.3,2,27.6,2.5,4.4.2,9.1,1.1,13.5.9a4.87,4.87,0,0,0,4-1.8c.9-1,2.2-3.3,1.8-4.9,0,.5-.2.6-.1-.2a2.1,2.1,0,0,0-.8-1.1,1.77,1.77,0,0,1,.8,1V127a12.21,12.21,0,0,0,.1-2.7l.6-9.3c.7-9.5,1.4-18.9,2-28.4,1.4-20.1,3.1-40.3,3.3-60.4A1.45,1.45,0,0,0,95.12,25.08Z"/><path class="cls-2" d="M89.22,127.48v-.3h0C89.12,127.28,89.22,127.38,89.22,127.48Z"/><path class="cls-4" d="M91.82,28.58a3.68,3.68,0,0,0-2-3.4,4.66,4.66,0,0,0-4,0l-48,14.5c.2,3.5.8,13.6,1,17.1l41.1-18.3-.1,4h0c-13.6,4.5-27.4,9.6-41,15.1,1,16.7,2.1,33.4,3.4,50.1l1.7-.2c-.6.2-1.1.4-1.6.6.5,6.5,1.1,12.9,1.7,19.4,2.8.4,5.6.8,8.3,1.1,6.1.7,12.4,1.1,18.4,1.4,4.7.2,9.6.5,14.4.9h.4l.3-.3C85.12,130.88,91.62,56.48,91.82,28.58ZM78,109c-4.2.3-8.5.6-13,.8,4.3-1.9,8.6-3.9,12.8-5.9.1-.1.3-.1.4-.2Zm1.3-37.3-6.5,1.1a50.56,50.56,0,0,0,6.6-4.5C79.42,69.38,79.42,70.48,79.32,71.68Zm.4-17.2v2.1c-.1,0-.2.1-.3.1l-14,4.8c4.7-2.8,9.5-5.5,14.3-8Z"/><path class="cls-4" d="M76.62,112.28v.2h-.1C76.62,112.48,76.62,112.38,76.62,112.28Z"/><path class="cls-5" d="M83.42,78a2.25,2.25,0,0,0-2.3-.9,4.87,4.87,0,0,0-1.1.4,5.31,5.31,0,0,0-3.6,1.1,8.94,8.94,0,0,0-3.2,4,5.94,5.94,0,0,0-.1,5.2,3.65,3.65,0,0,0,2.4,1.8c2.6.8,5.1-1,6.7-2.9C84,84.38,85,80.88,83.42,78Z"/><path class="cls-3" d="M81.62,76.18a2.25,2.25,0,0,0-2.3-.9,4.87,4.87,0,0,0-1.1.4,5.31,5.31,0,0,0-3.6,1.1,8.94,8.94,0,0,0-3.2,4,5.94,5.94,0,0,0-.1,5.2,3.65,3.65,0,0,0,2.4,1.8c2.6.8,5.1-1,6.7-2.9C82.22,82.48,83.12,79,81.62,76.18Z"/><path class="cls-2" d="M81.82,75.78c-2-2.3-6.5-.5-8.4,1.1-2.6,2.2-5,6.8-2.9,10.1s6.7,1.7,8.9-.6a9.41,9.41,0,0,0,2.4-10.6c-.3-.7-1.4.6-1.1,1.2a7.55,7.55,0,0,1-1.6,8.3c-1.8,2-5.3,3.4-7.3.9-1.9-2.3-.2-6,1.6-7.8,1.2-1.2,5.8-3.2,7.3-1.4C81.22,77.58,82.22,76.28,81.82,75.78Z"/><path class="cls-1" d="M107.21,291.66c4.6-2.9,9.1-6,13.5-9.1a55.47,55.47,0,0,1-7.5,6.1Q110.21,290.31,107.21,291.66Zm-24.7-123.9c-8.4,8.4-26.2,19.1-33.8,23.6l-3.3,1.9C53.91,187.66,73.81,173.16,82.51,167.76Zm-26.4,8.5a143.67,143.67,0,0,1-12.5,8.4c2-1.4,4-2.9,6-4.2C51.71,179,53.81,177.66,56.11,176.26Zm44.9,12.8c2.3-1.9,4.6-3.7,7-5.4A59.45,59.45,0,0,1,101,189.06Zm30.5,75c-1.3,1-2.7,2-4,2.9C128.81,266,130.11,265,131.51,264.06Zm-28,13.7c-6.7,5.4-19.3,15.6-27.1,19.5A248,248,0,0,1,103.51,277.76Zm25.3-22.9c-4.3,3-8.8,5.7-13.4,8.4,4.9-3.6,9.9-8.1,15.1-11.2l19.1-10.8C147.61,242.76,130.81,253.46,128.81,254.86Zm-64.9,35,10.4-7.4a64,64,0,0,1-10.6,8.2A3.09,3.09,0,0,1,63.91,289.86Zm32.7-31.1c-4.2,3-8.5,5.9-12.9,8.6-2.3,1.4-4.6,2.7-6.9,4.1,7.6-5.6,15.2-11.3,23.1-16.6,4.3-2.9,8.8-5.6,13.2-8.2-4.3,3.1-8.5,6.3-12.8,9.5C99.11,257,97.81,257.86,96.61,258.76Zm60.2-51.1a12.19,12.19,0,0,0-5.9.9l.3-.3c1.5-1.4-.4-2.5-1.6-2.6a11.92,11.92,0,0,0-8.1,2.2l-1.3.9c1.9-1.5,3.8-2.9,5.7-4.4,1.1-.9,1.9-2.4.1-3.1a8.2,8.2,0,0,0-4.4-.1c.6-.5,1.1-1,1.6-1.5,1-.9,2-2.4.1-3.1-2.5-.9-5.7.1-8,1.3-3.3,1.7-6.6,3.5-9.8,5.3a113.25,113.25,0,0,0,10.6-10.2c1.3-1.5-.3-2.5-1.6-2.6a10.44,10.44,0,0,0-2.5,0,104.66,104.66,0,0,0,11.4-10.7c1.3-1.5-.3-2.4-1.6-2.6a11.64,11.64,0,0,0-8.1,2.2,370.47,370.47,0,0,1-33.3,25.4c-2.7,1.7-5.3,3.4-8,5.1,13.3-9.3,26.2-19.3,37.2-31.4,1.3-1.4-.3-2.5-1.6-2.6a11.56,11.56,0,0,0-3.2.1,15.92,15.92,0,0,0,1.3-2.2c1.2-2.2-4-2-4.8-1.8a8.33,8.33,0,0,0-1.5.4c.6-.6,1.3-1.2,1.9-1.8,1.4-1.4-.4-2.5-1.7-2.6-2.7-.4-5.8-.4-8.1,1.2-5.6,4-11.1,7-16.7,11-1.5.9-3,3.7-4.5,4.5-9.4,5.3-18.4,11.2-27.6,16.8l-3.1,1.8.3-.2c19.1-12.3,39.2-23.2,56.6-37.7,1.7-1.4,1.4-3.1-.9-3.4a11.78,11.78,0,0,0-8.1,2.2,118.2,118.2,0,0,1-10.4,7c2.3-1.7,4.7-3.4,6.9-5.2,1.8-1.4,1.4-3.1-.9-3.4a11.78,11.78,0,0,0-8.1,2.2l-7.8,5.7a54.45,54.45,0,0,0,5-6.6c1-1.6-.1-2.4-1.7-2.6a12.2,12.2,0,0,0-7,1.5c-2.7,1.4-5.4,2.9-8.1,4.4.3-.4.7-.8,1-1.2,2.9-3.7-6.3-2.1-7.3-1.7A125.77,125.77,0,0,0,42,178.36a152.11,152.11,0,0,0-24.7,19.8c-1.5,1.4.1,2.2,1.6,2.5a71,71,0,0,0-9.4,8.8c-1.3,1.5.3,2.5,1.6,2.6a11.46,11.46,0,0,0,7-1.5c.6-.3,1.1-.7,1.7-1a74.85,74.85,0,0,0-9,7.9c-1.4,1.4.4,2.5,1.6,2.6a13.26,13.26,0,0,0,7-1.5c1.1-.5,16-11.8,17.1-12.3-4.3,3.7-22.4,18.4-26.4,22.5-1.4,1.4.4,2.5,1.6,2.6a6.69,6.69,0,0,0,2,0c-1.5,1.5-2.9,3.1-4.3,4.7s.3,2.4,1.6,2.6a10.75,10.75,0,0,0,3.1-.1c-1.3.9-2.7,1.8-4,2.8-1.9,1.4-1.3,3.1.9,3.3a11.78,11.78,0,0,0,8.1-2.2l4-2.8c11.9-8.1,24.7-14.7,37.2-21.7-4.6,3.6-9.3,7.2-14,10.6-4.4,2.3-8.9,4.5-13.4,6.6-7,3.3-16.8,7.1-19.9,14.9-1.1,2.8,5.4,1.7,6.3,1.5a42.22,42.22,0,0,0,6-2c-2.6,1.9-5.2,3.9-7.8,5.8-1.2.8-1.9,2.5-.1,3.1,2.5.9,5.8-.1,8-1.3l.1-.1a58.52,58.52,0,0,0-7.4,8.3c-1.1,1.5.1,2.4,1.7,2.6a12.2,12.2,0,0,0,7-1.5c.9-.5,1.9-1,2.8-1.5-2.3,2-4.6,4.2-6.9,6.4-1.4,1.4.4,2.5,1.6,2.6a11.15,11.15,0,0,0,5.4-.8,18.24,18.24,0,0,0-4.1,8.9c-.5,2.9,4.9,1.9,6.3,1.5a48.51,48.51,0,0,0,9.2-3.5c-1.8,1.9-3.5,3.9-5.2,6-1.2,1.5.2,2.4,1.7,2.6a11.83,11.83,0,0,0,3.7-.2,10.7,10.7,0,0,0-1.4,1.6c-1.3,1.5.3,2.5,1.7,2.6a11.46,11.46,0,0,0,7-1.5l.5-.3c-1.1,1-2.2,2.1-3.3,3.2-1.4,1.4.4,2.5,1.7,2.6a10.85,10.85,0,0,0,4-.3c.2,0,.5-.1.8-.1l.3,1.2c.7,2.1,4.9,1.2,6.3.8l.7-.2c-1.2,1.5.3,2.4,1.7,2.6a10.45,10.45,0,0,0,2.5,0c-1,1.9,3.8,2.1,4.8,1.9,2.2-.4,4.4-1,6.5-1.6-.6.3-1.2.7-1.8,1-.9.5-3.3,2.1-1.9,3.4s4.3.7,5.9.2,2.9-.8,4.3-1.3c-.8.7-1.3,1.6-.5,2.4,1.8,1.6,5.5.5,7.4-.2,10.6-4.1,21-8.5,30.3-14.4,1.8-.9,3.6-1.9,5.4-2.9,11.1-6.2,22.6-14.7,26.8-27.4.7-2-1.9-2.1-4.5-1.7a45.68,45.68,0,0,0,5.4-6.9c1.1-1.9-.1-2.5-1.9-2.5a32.13,32.13,0,0,0,6.3-9.5c.4-1.1-.7-1.6-1.6-1.8a19.22,19.22,0,0,0,1.6-4.2c.6-2.3-3.6-2-4.8-1.8a20.48,20.48,0,0,0-2.4.5c1.6-1.7,3.2-3.4,4.7-5.3,1.2-1.5-.2-2.4-1.6-2.6a6.6,6.6,0,0,0-1.4-.1,40.67,40.67,0,0,0,4.8-6.7c1.3-2.3-3.8-1.8-6.4-1.3a102.38,102.38,0,0,0,8.5-6.6C159.41,209.56,159.21,208,156.81,207.66Z"/><path class="cls-2" d="M140.21,278.56a67.13,67.13,0,0,1-25.7,20.2,62.68,62.68,0,0,1-18.5,5,65.3,65.3,0,0,0,7.6-2A80.72,80.72,0,0,0,140.21,278.56Zm-100,10.2a61,61,0,0,1-9.5-9.5A85.22,85.22,0,0,0,40.21,288.76Zm33.9-118.7c1.2-.1,2.3-3,2.3-3.8,0-.3-.2-.9-1.4-.9h-.4a65.45,65.45,0,0,0-32.9,12.4c1.3-1,2.6-2,3.9-2.9,11-7.5,24.9-11.6,39.1-11.6a70.32,70.32,0,0,1,27.5,5.5c17.3,7.3,30.6,21.9,37.4,40.8a81.81,81.81,0,0,1,2.4,31.2c-1.9,16.1-8.4,29.2-19,39.7a76.12,76.12,0,0,1-44.8,21.1,61.81,61.81,0,0,1-12.9.1,60.47,60.47,0,0,1-8.3-2.4c-32.4-9.3-50.2-38.5-50.2-66.7,0-15.3,6.1-31,16.6-43.1C44.31,177,58.81,171.36,74.11,170.06Zm81,38.3c-5.4-19.2-18.5-35.1-35-44.9l-.8-.5a1.88,1.88,0,0,0-.8-.2c-1,0-2.8.7-3.1,1.5-.1.2-.1.6.5,1a63.43,63.43,0,0,1,9.1,6.2,74,74,0,0,0-40.7-10.9c-22.6.5-43.2,9.2-56.5,25.5-11.7,14.2-17.6,34.8-16.2,54.8,1.3,19.8,10.3,38,24.5,49.7a66.64,66.64,0,0,0,37.5,14.6,71.64,71.64,0,0,0,14.6,1.5,70.11,70.11,0,0,0,36.8-10.4,71,71,0,0,0,33.5-52.6C159.71,232,159.21,219.76,155.11,208.36Z"/><polygon class="cls-2" points="91.91 195.36 121.71 195.66 114.31 286.86 86.61 286.86 91.91 195.36"/><path class="cls-3" d="M138.41,209.66c-3.2,1.1-5.7,4.7-8.3,6.7a8.34,8.34,0,0,1-1.2.8c-1.5,1.5-3.1,3-4.8,4.4a22.48,22.48,0,0,1-10.3,3.4c-9.8.8-16.4-6.8-22.7-13.4-4.3-4.5-12.3,7.6-8.8,11.2,2.8,2.9,1,4,3.9,6.2-1.4,1.4,2,4.8,1.7,5.9-1.9,7.3-3.4,14.6-4.6,22.1-1,6.7-.5,13.1,2.5,9,.3-.5.7,4.1,1.1,3.6,5.2-9.7,19-31,23.6-31.2,15.2-.9,20.4-7.9,26.8-12.7,3.6-2.7,6.8-7.1,7.1-11.6.1-1.6-1.4-2.3-2-4.2A5,5,0,0,0,138.41,209.66Z"/><path class="cls-3" d="M117.61,192.36c-3.1-1.7-5.9-2-8.2-.3-3.3.9-5.7,3.7-7.5,6.7s-2.8,8-1.1,11.6a9.71,9.71,0,0,0,8,5.8c3.8.2,7.4-2.2,10.1-4.8C124.21,206.16,125.11,196.26,117.61,192.36Z"/><path class="cls-2" d="M95.21,181c-1.2-6.2-6.6-5.2-11.3-3.8-5.4,1.6-10.9,3.3-16.3,4.9-9.6,2.9-19.1,5.8-28.7,8.6-2.2.7-4.6,3-4.4,5.5.3,5.7.6,11.4,1,17.1a.75.75,0,0,0,.1.5v.4c1,16.7,2.1,33.4,3.4,50.1,0,.2.1.5.1.7v.6c.5,6.5,1.1,12.9,1.7,19.4a2,2,0,0,0,1.5,1.6c9.2,1.3,18.3,2,27.6,2.5,4.4.2,9.1,1.1,13.5.9a4.87,4.87,0,0,0,4-1.8c.9-1,2.2-3.3,1.8-4.9,0,.5-.2.6-.1-.2a2.1,2.1,0,0,0-.8-1.1,1.77,1.77,0,0,1,.8,1v-.1a12.21,12.21,0,0,0,.1-2.7l.6-9.3c.7-9.5,1.4-18.9,2-28.4,1.4-20.1,3.1-40.3,3.3-60.4A1.1,1.1,0,0,0,95.21,181Z"/><path class="cls-4" d="M90.91,184.46c0-1.5.3-2.7-1-3.4a4.66,4.66,0,0,0-4,0l-48,16.5c.2,3.5.8,10.6,1,14.1l41.2-19.2-.1,6h0c-13.6,4.5-27.4,9.6-41,15.1,1,16.7,5.6,63.5,6.2,69.9,2.8.4,4.6.8,7.3,1.1,6.1.7,12.4,1.1,18.4,1.4,4.7.2,9.6.5,14.4.9h.4l.3-.3C85.21,286.86,90.71,212.36,90.91,184.46ZM78.21,265c-4.2.3-8.5.6-13,.8,4.3-1.9,8.6-3.9,12.8-5.9.1-.1.3.9.4.8Zm1.3-37.4-6.5,1.1a50.56,50.56,0,0,0,6.6-4.5C79.51,225.36,79.51,226.46,79.51,227.56Zm.4-17.2v2.1c-.1,0-.2.1-.3.1l-14,4.8c4.6-2.8,9.4-4.5,14.3-7Z"/><path class="cls-4" d="M76.81,268.26v.2h-.1C76.71,268.36,76.71,268.26,76.81,268.26Z"/><path class="cls-5" d="M83.61,234a2.25,2.25,0,0,0-2.3-.9,4.87,4.87,0,0,0-1.1.4,5.31,5.31,0,0,0-3.6,1.1,8.94,8.94,0,0,0-3.2,4,5.94,5.94,0,0,0-.1,5.2,3.65,3.65,0,0,0,2.4,1.8c2.6.8,5.1-1,6.7-2.9C84.21,240.26,85.11,236.76,83.61,234Z"/><path class="cls-3" d="M81.71,232.06a2.25,2.25,0,0,0-2.3-.9,4.87,4.87,0,0,0-1.1.4,5.31,5.31,0,0,0-3.6,1.1,8.94,8.94,0,0,0-3.2,4,5.94,5.94,0,0,0-.1,5.2,3.65,3.65,0,0,0,2.4,1.8c2.6.8,5.1-1,6.7-2.9C82.31,238.46,83.31,235,81.71,232.06Z"/><path class="cls-2" d="M81.91,231.76c-2-2.3-6.5-.5-8.4,1.1-2.6,2.2-5,6.8-2.9,10.1s6.7,1.7,8.9-.6c2.9-2.8,4.2-6.9,2.4-10.6-.3-.7-1.4.6-1.1,1.2a7.55,7.55,0,0,1-1.6,8.3c-1.8,2-5.3,3.4-7.3.9-1.9-2.3-.2-6,1.6-7.8,1.2-1.2,5.8-3.2,7.3-1.4C81.31,233.56,82.41,232.26,81.91,231.76Z"/><path class="cls-1" d="M106.93,448.13c4.6-2.9,22.1-16,26.6-19.1-2.3,2.2-17.9,14.3-20.5,16.2C111,446.23,109,447.23,106.93,448.13Zm-28.6-120.3c-5.5,4.8-22.2,15.5-29.8,20l-3.3,1.9C53.63,344.13,69.63,333.23,78.33,327.83Zm-22.5,4.9c-4,3-8.3,5.8-12.5,8.4q3-2.25,6-4.2C51.53,335.53,53.63,334.13,55.83,332.73Zm44.9,12.8c2.3-1.9,4.6-3.7,7-5.4A59.44,59.44,0,0,1,100.73,345.53Zm30.5,75c-1.3,1-2.7,2-4,2.9C128.53,422.43,129.93,421.53,131.23,420.53Zm-28,13.7c-6.7,5.4-19.3,15.6-27.1,19.5A258.06,258.06,0,0,1,103.23,434.23Zm25.3-22.9c-4.3,3-8.8,5.7-13.4,8.3,4.9-3.6,11-8,16.2-11.1l18-10.9C147.43,399.23,130.63,409.93,128.53,411.33Zm-64.8,35,10.4-7.4a64,64,0,0,1-10.6,8.2A3.09,3.09,0,0,1,63.73,446.33Zm32.7-31.1c-4.2,3-8.5,5.9-12.9,8.6-2.3,1.4-4.6,2.7-6.9,4.1,7.6-5.6,15.2-11.3,23.1-16.6,4.3-2.9,8.8-5.6,13.2-8.2-4.3,3.1-8.5,6.3-12.8,9.5C98.93,413.43,97.63,414.33,96.43,415.23Zm60.2-51.1a12.19,12.19,0,0,0-5.9.9l.3-.3c1.5-1.4-.4-2.5-1.6-2.6a11.92,11.92,0,0,0-8.1,2.2l-1.3.9c1.9-1.5,3.8-2.9,5.7-4.4,1.1-.9,1.9-2.4.1-3.1a8.2,8.2,0,0,0-4.4-.1c.6-.5,1.1-1,1.6-1.5,1-.9,4-3.6,2.1-4.3-2.5-.9.3-3.3-2-2.2-3.3,1.7-14.5,8.1-17.8,9.9,3.7-3.2,10-5.6,13.3-9.2,1.3-1.5-3-3.4-4.3-3.6-.8-.1,3.4-4.4,2.5-4.3,4-3.3,2.9-2.5,6.4-6.4,1.3-1.5-.3-2.4-1.6-2.6a11.64,11.64,0,0,0-8.1,2.2,370.47,370.47,0,0,1-33.3,25.4c-2.7,1.7-5.3,3.4-8,5.1,13.3-9.3,27.6-20.5,38.6-32.6,1.3-1.5-1.7-1.2-3.1-1.4a11.56,11.56,0,0,0-3.2.1,15.92,15.92,0,0,0,1.3-2.2c1.2-2.2-4-2-4.8-1.8a8.33,8.33,0,0,0-1.5.4c.7-.6,1.3-1.2,1.9-1.8,1.4-1.4-.4-2.5-1.6-2.6-2.7-.4-5.8-.4-8.1,1.2-5.6,4-11.1,7-16.7,11-1.5.9-3,3.7-4.5,4.5-9.4,5.3-18.4,11.2-27.6,16.8l-3.1,1.8.3-.2c19.1-12.3,39.2-23.2,56.6-37.7,1.7-1.5,1.4-3.1-.9-3.4a11.78,11.78,0,0,0-8.1,2.2,118.2,118.2,0,0,1-10.4,7c2.3-1.7,4.7-3.4,6.9-5.2,1.8-1.4,1.4-3.1-.9-3.4-2.7-.4-6.2-.9-8.4.7-2.6,1.9-3,3.2-5.6,5.1a24.37,24.37,0,0,0,3.2-4.5c1-1.5-.1-2.4-1.7-2.6a12.2,12.2,0,0,0-7,1.5c-2.7,1.4-5.4,2.9-8.1,4.4.3-.4.7-.8,1-1.2,2.9-3.7-6.3-2.1-7.3-1.7a125.77,125.77,0,0,0-27.5,14.2,152.11,152.11,0,0,0-24.7,19.8c-1.5,1.4.1,2.2,1.6,2.5a71,71,0,0,0-9.4,8.8c-1.3,1.5.3,2.5,1.6,2.6a12.2,12.2,0,0,0,7-1.5c.6-.3,1.1-.7,1.7-1a74.85,74.85,0,0,0-9,7.9c-1.4,1.4.4,2.5,1.6,2.6,2.4.3,3.8.5,6-.5,1.1-.5,17-12.8,18.1-13.3-4.3,3.7-22.4,18.4-26.4,22.5-1.4,1.4.4,2.5,1.6,2.6a6.69,6.69,0,0,0,2,0c-1.5,1.5-2.9,3.1-4.3,4.7s.3,2.4,1.6,2.6a10.75,10.75,0,0,0,3.1-.1c-1.3.9-2.7,1.8-4,2.8-1.9,1.4-1.3,3.1.9,3.4a11.78,11.78,0,0,0,8.1-2.2l4-2.8c11.9-8.1,24.7-14.7,37.2-21.7-4.6,3.6-2.2,2-7,5.4-4.4,2.3-3.3,2.4-7.8,4.5-7,3.3-29.5,14.4-32.6,22.2-1.1,2.8,5.4,1.7,6.3,1.5a42.22,42.22,0,0,0,6-2c-2.6,1.9-5.2,3.9-7.8,5.8-1.2.9-1.9,2.5-.1,3.1,2.5.9,5.8-.1,8-1.3l.1-.1a58.52,58.52,0,0,0-7.4,8.3c-1.1,1.5.1,2.4,1.7,2.6a12.2,12.2,0,0,0,7-1.5c.9-.5,1.9-1,2.8-1.5-2.3,2.1-4.6,4.2-6.9,6.4-1.4,1.4.4,2.5,1.6,2.6a11.15,11.15,0,0,0,5.4-.8,17.83,17.83,0,0,0-4.1,8.9c-.5,2.9,4.9,1.9,6.3,1.5a48.51,48.51,0,0,0,9.2-3.5c-1.8,1.9-3.5,3.9-5.2,6-1.2,1.5.2,2.4,1.7,2.6a11.83,11.83,0,0,0,3.7-.2,10.7,10.7,0,0,0-1.4,1.6c-1.3,1.5.3,2.5,1.7,2.6a11.46,11.46,0,0,0,7-1.5l.5-.3c-1.1,1-2.2,2.1-3.3,3.2-1.4,1.4.4,2.5,1.7,2.6a10.85,10.85,0,0,0,4-.3c.2,0,.5-.1.8-.1l.3,1.2c.7,2.1,4.9,1.2,6.3.8l.7-.2c-1.2,1.5.3,2.4,1.7,2.6a10.45,10.45,0,0,0,2.5,0c-1,1.9,3.8,2.1,4.8,1.9,2.2-.4,4.4-1,6.5-1.6-.6.3-1.2.7-1.8,1-.9.5-3.3,2.1-1.9,3.4s4.3.7,5.9.2,2.9-.8,4.3-1.3c-.8.7-1.3,1.6-.5,2.4,1.8,1.6,5.5.5,7.4-.2,10.6-4.1,21-8.5,30.3-14.4,1.8-.9,3.6-1.9,5.4-2.9,11.1-6.2,22.6-14.7,26.8-27.4.7-2-1.9-2.1-4.5-1.7a45.68,45.68,0,0,0,5.4-6.9c1.1-1.9-.1-2.5-1.9-2.5a32.13,32.13,0,0,0,6.3-9.5c.4-1.1-.7-1.6-1.6-1.8a19.22,19.22,0,0,0,1.6-4.2c.6-2.3-3.6-2-4.8-1.8a20.48,20.48,0,0,0-2.4.5c1.6-1.7,3.2-3.4,4.7-5.3,1.2-1.5-.2-2.4-1.6-2.6a6.6,6.6,0,0,0-1.4-.1,40.67,40.67,0,0,0,4.8-6.7c1.3-2.3-3.8-1.8-6.4-1.3a102.38,102.38,0,0,0,8.5-6.6C159.23,366,159,364.43,156.63,364.13Z"/><path class="cls-2" d="M140,435.13a67.89,67.89,0,0,1-25.7,20.2,62.68,62.68,0,0,1-18.5,5,65.3,65.3,0,0,0,7.6-2A82.42,82.42,0,0,0,140,435.13Zm-63.1-109.6c1.2-.1,2.3-2,2.3-2.8,0-.3-3.2-.9-4.4-.9h-.4a65.45,65.45,0,0,0-32.9,12.4c1.3-1,2.6-2,3.9-2.9,11-7.5,24.9-11.6,39.1-11.6a71.18,71.18,0,0,1,27.6,5.5,69.3,69.3,0,0,1,38.3,40.5c2.8,10.1,2.7,21,1.4,31.5-1.9,16.1-8.4,29.2-19,39.7A76.12,76.12,0,0,1,88,458a61.81,61.81,0,0,1-12.9.1,60.47,60.47,0,0,1-8.3-2.4c-32.4-9.3-49.3-37-49.2-65.2,0-15.3,3.1-31.1,13.7-43.3C42.33,336.73,61.53,326.83,76.93,325.53Zm78.9,39.3c-5.4-19.2-19.5-35.1-36-44.9l-.8-.5a1.88,1.88,0,0,0-.8-.2c-1,0-2.8.7-3.1,1.5-.1.2-.1.6.5,1a63.42,63.42,0,0,1,9.1,6.2c-11.8-7.4-25.1-12.2-39.7-11.9-22.6.5-44.2,10.2-57.5,26.5-11.7,14.2-17.6,34.8-16.2,54.8,1.3,19.8,10.3,38,24.5,49.7A69.42,69.42,0,0,0,74,462.23c4.8,1,9,.9,13.9.9a70.11,70.11,0,0,0,36.8-10.4,71,71,0,0,0,33.5-52.6C159.53,388.43,160,376.23,155.83,364.83Z"/><polygon class="cls-2" points="91.73 351.83 121.53 352.13 114.13 444.33 86.43 443.33 91.73 351.83"/><path class="cls-3" d="M138.13,366.13c-3.2,1.1-5.7,4.7-8.3,6.7a8.34,8.34,0,0,1-1.2.8,17.38,17.38,0,0,1-5.8,4.2c-3,1.9-6.4,2.2-10.2,2.5-9.8.8-15.5-6.7-21.8-13.3-4.3-4.5-12.3,8.6-8.8,12.2,2.8,2.9,1,4,3.9,6.2-1.4,1.4,2,4.8,1.7,5.9-1.9,7.3-3.4,14.6-4.6,22.1-1,6.7-.5,13.1,2.5,9,.3-.5.7,4.1,1.1,3.6,5.2-9.7,20-32.7,24.6-33.3,13.4-1.5,19.4-5.9,25.8-10.7,3.6-2.7,6.8-7.1,7.1-11.6.1-1.6-1.4-2.3-2-4.2A5.42,5.42,0,0,0,138.13,366.13Z"/><path class="cls-3" d="M117.43,348.83c-3.1-1.7-5.9-2-8.2-.3-3.3.9-5.7,3.7-7.5,6.7s-2.8,8-1.1,11.6a9.71,9.71,0,0,0,8,5.8,14.86,14.86,0,0,0,10.7-4C124.63,363.33,124.93,352.73,117.43,348.83Z"/><path class="cls-2" d="M95,337.53c-1.2-6.2-6.6-4.2-11.3-2.8-5.4,1.6-10.9,3.3-16.3,4.9-9.6,2.9-19.1,4.8-28.7,7.6-2.2.7-4.6,3-4.4,5.5.3,5.7.6,11.4,1,17.1a.75.75,0,0,0,.1.5v.4c1,16.7,2.1,33.4,3.4,50.1,0,.2.1.5.1.7v.6c.5,6.5,1.1,12.9,1.7,19.4a2,2,0,0,0,1.5,1.6c9.2,1.3,18.3,2,27.6,2.5,4.4.2,9.1,1.1,13.5.9a4.87,4.87,0,0,0,4-1.8c.9-1,2.2-3.3,1.8-4.9,0,.5-.2.6-.1-.2a2.1,2.1,0,0,0-.8-1.1,1.77,1.77,0,0,1,.8,1v-.1a12.21,12.21,0,0,0,.1-2.7l.6-9.3c.7-9.5,1.4-18.9,2-28.4,1.4-20.1,3.1-40.3,3.3-60.4A1.47,1.47,0,0,0,95,337.53Z"/><path class="cls-4" d="M90.73,340.93c0-1.5.3-2.7-1-3.4s-2.3.3-3.7,1L37.73,354c.2,3.5.8,10.6,1,14.1l41.1-17.3,3.7,1-3.7,1.8c-13.6,4.5-27.5,10.8-41.1,16.3,1,16.7,3.6,63.5,4.2,69.9,2.8.4,6.6.8,9.3,1.1,6.1.7,12.4,1.1,18.4,1.4,4.7.2,9.6.5,14.4.9h.4l.3-.3C85,443.33,90.53,368.83,90.73,340.93Zm-12.8,80.5c-4.2.3-8.5.6-13,.8,4.3-1.9,9.7-3.1,14-4.6a10.55,10.55,0,0,1,3.7-.7Zm4.4-37.9-9.5,1.7c2.5-1.5,7.6-2.9,9.5-4.5A26.15,26.15,0,0,0,82.33,383.53Zm-2.7-16.7v2.1c-.1,0-.2.1-.3.1l-14,4.8c4.7-2.8,9.5-4.5,14.3-7Z"/><path class="cls-4" d="M76.53,424.73v.2h-.1C76.53,424.83,76.53,424.83,76.53,424.73Z"/><path class="cls-5" d="M83.33,390.43a2.25,2.25,0,0,0-2.3-.9,4.88,4.88,0,0,0-1.1.4,5.31,5.31,0,0,0-3.6,1.1,8.94,8.94,0,0,0-3.2,4,5.94,5.94,0,0,0-.1,5.2,3.65,3.65,0,0,0,2.4,1.8c2.6.8,5.1-1,6.7-2.9C84,396.73,84.93,393.23,83.33,390.43Z"/><path class="cls-3" d="M81.53,388.53a2.25,2.25,0,0,0-2.3-.9,4.88,4.88,0,0,0-1.1.4,5.31,5.31,0,0,0-3.6,1.1,8.94,8.94,0,0,0-3.2,4,5.94,5.94,0,0,0-.1,5.2,3.65,3.65,0,0,0,2.4,1.8c2.6.8,5.1-1,6.7-2.9C82.13,394.93,83,391.43,81.53,388.53Z"/><path class="cls-2" d="M81.73,388.23c-2-2.3-7.5-.5-9.4,1.1-2.6,2.2-5,6.8-2.9,10.1s7.7,1.7,9.9-.6c2.8-2.8,4.1-6.9,2.4-10.6-.3-.7-1.4.6-1.1,1.2a7.55,7.55,0,0,1-1.6,8.3c-1.8,2-5.3,3.4-7.3.9-1.9-2.3-.2-6,1.6-7.8,1.2-1.2,5.8-3.2,7.3-1.4C81.13,390,82.13,388.73,81.73,388.23Z"/><path class="cls-1" d="M106.93,604.21c4.6-2.9,22.1-16,26.6-19.1-2.3,2.2-17.9,14.3-20.5,16.2C110.93,602.31,108.93,603.21,106.93,604.21Zm-24.4-123c-5.5,4.8-26.4,18.2-34,22.7l-3.3,1.9C53.63,500.11,73.83,486.61,82.53,481.21Zm14,23.8c2.3-1.9,16.1-13.2,19.7-17.2C114,489.81,101.13,505.31,96.53,505Zm34.7,71.6c-1.3,1-2.7,2-4,2.9C128.53,578.51,129.93,577.51,131.23,576.61Zm-28,13.7c-6.7,5.4-19.3,15.6-27.1,19.5A248,248,0,0,1,103.23,590.31Zm25.3-23c-4.3,3-8.8,5.7-13.4,8.4,4.9-3.6,11-8,16.2-11.1l18-10.9C147.33,555.31,130.53,565.91,128.53,567.31Zm-64.8,35,10.4-7.4a64,64,0,0,1-10.6,8.2A3.09,3.09,0,0,1,63.73,602.31Zm32.6-31c-4.2,3-8.5,5.9-12.9,8.6-2.3,1.4-4.6,2.7-6.9,4.1,7.6-5.6,15.2-11.3,23.1-16.6,4.3-2.9,8.8-5.6,13.2-8.2-4.3,3.1-8.5,6.3-12.8,9.5C98.83,569.51,97.63,570.41,96.33,571.31Zm60.3-51.2a12.19,12.19,0,0,0-5.9.9l.3-.3c1.5-1.4-.4-2.5-1.6-2.6a11.92,11.92,0,0,0-8.1,2.2l-1.3.9c1.9-1.5,3.8-2.9,5.7-4.4,1.1-.9,1.9-2.4.1-3.1a8.2,8.2,0,0,0-4.4-.1c.6-.5,1.1-1,1.6-1.5,1-.9,4-3.6,2.1-4.3-2.5-.9.3-3.3-2-2.2-3.3,1.7-14.5,8.1-17.8,9.9,3.7-3.2,10-5.6,13.3-9.2,8.3-4.8,10.5-11.2-4.3-3.6-.8-.1,3.4-4.4,2.5-4.3,4-3.3,2.9-2.5,6.4-6.4,1.3-1.5-.3-2.5-1.6-2.6a11.64,11.64,0,0,0-8.1,2.2,370.48,370.48,0,0,1-33.3,25.4c-2.7,1.7-5.3,3.4-8,5.1,13.3-9.3,28.8-19.9,39.8-32,1.3-1.5-2.9-1.9-4.3-2a11.57,11.57,0,0,0-3.2.1,15.92,15.92,0,0,0,1.3-2.2c1.2-2.2-4-2-4.8-1.8a8.33,8.33,0,0,0-1.5.4c.7-.6,1.3-1.2,1.9-1.8,1.4-1.4-.4-2.5-1.6-2.6-2.7-.4-5.8-.4-8.1,1.2-5.6,4-11.1,7-16.7,11-1.5.9-3,3.7-4.5,4.5-9.4,5.3-18.4,11.2-27.6,16.8l-3.1,1.8.3-.2c19.1-12.3,39.2-23.2,56.6-37.7,1.7-1.5,1.4-3.1-.9-3.4a11.78,11.78,0,0,0-8.1,2.2,118.21,118.21,0,0,1-10.4,7c2.3-1.7,4.7-3.4,6.9-5.2,1.8-1.4,1.4-3.1-.9-3.4-2.7-.4-6.2-.9-8.4.7-2.6,1.9-12.7,10.4-15.3,12.3,1.8-2.1,11.3-9.4,12.9-11.7,1-1.5-.1-2.4-1.7-2.6a12.2,12.2,0,0,0-7,1.5c-2.7,1.4-5.4,2.9-8.1,4.4.3-.4.7-.8,1-1.2,2.9-3.7-6.3-2.1-7.3-1.7a125.77,125.77,0,0,0-27.5,14.2,152.11,152.11,0,0,0-24.7,19.8c-1.5,1.5.1,2.2,1.6,2.5a65,65,0,0,0-9.4,8.8c-1.3,1.5.3,2.5,1.6,2.6a12.2,12.2,0,0,0,7-1.5c.6-.3,1.1-.7,1.7-1a74.85,74.85,0,0,0-9,7.9c-1.4,1.4.4,2.5,1.6,2.6,2.4.3,3.8.5,6-.5,1.1-.5,17-12.8,18.1-13.3-4.3,3.7-22.4,18.4-26.4,22.5-1.4,1.4.4,2.5,1.6,2.6a6.7,6.7,0,0,0,2,0c-1.5,1.5-2.9,3.1-4.3,4.7s.3,2.5,1.6,2.6a10.75,10.75,0,0,0,3.1-.1c-1.3.9-2.7,1.8-4,2.8-1.9,1.4-1.3,3.1.9,3.3a11.78,11.78,0,0,0,8.1-2.2l4-2.8c11.9-8,24.7-14.7,37.2-21.7-4.6,3.6-2.2,2-7,5.4-4.4,2.3-.1-2.9-4.6-.8-7,3.3-32.6,19.7-35.8,27.6-1.1,2.8,4.1,4,5,3.8,2.1-.5,13.4-8.9,15.3-9.8-2.6,2-13.2,9.3-15.8,11.2-1.2.8-1.9,2.5-.1,3.1,2.5.9,5.8-.1,8-1.3l.1-.1a58.52,58.52,0,0,0-7.4,8.3c-1.1,1.5.1,2.4,1.7,2.6a12.2,12.2,0,0,0,7-1.5c.9-.5,1.9-1,2.8-1.5-2.3,2-4.6,4.2-6.9,6.4-1.4,1.4.4,2.5,1.6,2.6a11.15,11.15,0,0,0,5.4-.8,18.24,18.24,0,0,0-4.1,8.9c-.5,2.9,4.9,1.9,6.3,1.5a48.51,48.51,0,0,0,9.2-3.5c-1.8,1.9-3.5,3.9-5.2,6-1.2,1.5.2,2.4,1.7,2.6a11.83,11.83,0,0,0,3.7-.2,10.7,10.7,0,0,0-1.4,1.6c-1.3,1.5.3,2.5,1.7,2.6a11.46,11.46,0,0,0,7-1.5l.5-.3c-1.1,1-2.2,2.1-3.3,3.2-1.4,1.4.4,2.5,1.7,2.6a10.85,10.85,0,0,0,4-.3c.2,0,.5-.1.8-.1l.3,1.2c.7,2.1,4.9,1.2,6.3.8l.7-.2c-1.2,1.5.3,2.4,1.7,2.6a10.46,10.46,0,0,0,2.5,0c-1,1.9,3.8,2.1,4.8,1.9,2.2-.4,4.4-1,6.5-1.6-.6.3-1.2.7-1.8,1-.9.5-3.3,2.1-1.9,3.4s4.3.7,5.9.2,2.9-.8,4.3-1.3c-.8.7-1.3,1.6-.5,2.4,1.8,1.6,5.5.5,7.4-.2,10.6-4.1,21-8.5,30.3-14.4,1.8-.9,3.6-1.9,5.4-2.9,11.1-6.2,22.6-14.7,26.8-27.4.7-2-1.9-2.1-4.5-1.7a45.67,45.67,0,0,0,5.4-6.9c1.1-1.9-.1-2.5-1.9-2.5a32.13,32.13,0,0,0,6.3-9.5c.4-1.1-.7-1.6-1.6-1.8a19.22,19.22,0,0,0,1.6-4.2c.6-2.3-3.6-2-4.8-1.8a20.47,20.47,0,0,0-2.4.5c1.6-1.7,5.1-2.2,6.6-4,1.2-1.5-2.1-3.7-3.5-3.9-.5-.1-10.5,7.6-11,7.6,1.8-2,14.8-10.7,14.4-14.4,1.3-2.3-3.8-1.8-6.4-1.3,2.9-2,5.7-4.2,8.5-6.5C159.13,522,158.93,520.51,156.63,520.11Z"/><path class="cls-2" d="M139.93,591.11a67.89,67.89,0,0,1-25.7,20.2,62.68,62.68,0,0,1-18.5,5,65.3,65.3,0,0,0,7.6-2A80.49,80.49,0,0,0,139.93,591.11Zm-63.1-109.5c1.2-.1,2.3-2,2.3-2.8,0-.3-3.2-.9-4.4-.9h-.4a65.45,65.45,0,0,0-32.9,12.4c1.3-1,2.6-2,3.9-2.9,11-7.5,24.9-11.6,39.1-11.6a71.18,71.18,0,0,1,27.6,5.5,69.3,69.3,0,0,1,38.3,40.5c2.8,10.1,2.7,21,1.4,31.5-1.9,16.1-8.4,29.2-19,39.7a76.11,76.11,0,0,1-44.8,21.1,61.81,61.81,0,0,1-12.9.1,60.47,60.47,0,0,1-8.3-2.4c-32.4-9.3-49.3-37-49.2-65.2,0-15.3,3.3-30.3,13.9-42.4C42.53,493.61,61.53,482.91,76.83,481.61Zm79,39.2c-5.4-19.2-19.5-36.1-36-45.9l-.8.5a1.88,1.88,0,0,0-.8-.2c-1,0-2.8.7-3.1,1.6-.1.2-.1.6.5,1a63.42,63.42,0,0,1,9.1,6.2c-11.8-7.4-25.1-12.2-39.7-11.9-22.5.6-44.2,10.3-57.5,26.6-11.7,14.2-17.6,34.8-16.2,54.8,1.3,19.8,10.3,38,24.5,49.7A69.42,69.42,0,0,0,74,618.41c4.8,1,9,.9,13.9.9a73.62,73.62,0,0,0,37.8-10.4c18.8-11.6,30-30.8,32.5-52.6C159.53,544.51,160,532.21,155.83,520.81Z"/><polygon class="cls-2" points="91.63 509.91 121.53 508.21 114.13 600.41 86.43 599.41 91.63 509.91"/><path class="cls-3" d="M138.13,522.21c-3.2,1.1-5.7,4.7-8.3,6.7a8.34,8.34,0,0,1-1.2.8,17.38,17.38,0,0,1-5.8,4.2c-3,1.9-6.4,2.2-10.2,2.5-9.8.8-15.5-7.7-21.8-14.3-4.3-4.5-12.3,9.6-8.8,13.2,2.8,2.9,1,4,3.9,6.2-1.4,1.4,2,4.8,1.7,5.9-1.9,7.3-3.4,14.6-4.6,22.1-1,6.7-.5,13.1,2.5,9,.3-.5.7,4.1,1.1,3.6,5.2-9.7,20-32.7,24.6-33.3,13.4-1.5,19.4-5.9,25.8-10.7,3.6-2.7,6.8-7.1,7.1-11.6.1-1.6-1.4-2.3-2-4.2A5,5,0,0,0,138.13,522.21Z"/><path class="cls-3" d="M117.43,504.81c-3.1-1.7-7.1-3.2-9.4-1.4-3.3.9-5.6,4.9-7.3,7.8-1.8,3.1-1.6,6.3.2,9.9,1.5,3.2,4.8,6.4,8.3,6.6,3.8.2,7.5-.6,10.1-3.1C124.63,519.41,124.83,508.81,117.43,504.81Z"/><path class="cls-2" d="M95,493.51c-1.2-6.2-6.6-4.2-11.3-2.8-5.4,1.6-10.9,3.3-16.3,4.9-9.6,2.9-19.1,4.8-28.7,7.6-2.2.7-4.6,3-4.4,5.5.3,5.7.6,11.4,1,17.1a.75.75,0,0,0,.1.5v.4c1,16.7,2.1,33.4,3.4,50.1,0,.2.1.5.1.7v.6c.5,6.5,1.1,12.9,1.7,19.4a2,2,0,0,0,1.5,1.6c9.2,1.3,18.3,3,27.6,3.5,4.4.2,9.1.1,13.5-.1a4.87,4.87,0,0,0,4-1.8c.9-1,2.2-3.3,1.8-4.9,0,.5-.2.6-.1-.2a2.1,2.1,0,0,0-.8-1.1,1.77,1.77,0,0,1,.8,1v-.1a12.21,12.21,0,0,0,.1-2.7l.6-9.3c.7-9.5,1.4-18.9,2-28.4,1.4-20.1,3.1-40.3,3.3-60.4A2.16,2.16,0,0,0,95,493.51Z"/><path class="cls-2" d="M89.13,595.91v-.3h0A.19.19,0,0,0,89.13,595.91Z"/><path class="cls-4" d="M90.73,497c0-1.5.3-2.7-1-3.4s-1.9,1.1-3.3,1.8l-48.8,12.5c.2,3.5.9,12.8,1.1,16.3l40.5-18.5,4.4,2.2-3.7,1.8c-13.6,4.5-27.5,10.8-41.1,16.3,1,16.7,3.6,63.5,4.2,69.9,2.8.4,6.6.8,9.3,1.1,6.1.7,12.3,1.8,18.4,2.1,4.7.2,9,.8,13.7,1.2h.7l.6-1.3C85,599.41,90.43,524.91,90.73,497Zm-12.8,80.5c-4.2.3-8.5.6-13,.8,4.3-1.9,9.7-3.1,14-4.6a10.55,10.55,0,0,1,3.7-.7Zm7.2-39-12.4,2.7c2.5-1.5,11.9-3.6,13.8-5.2C86.53,537.21,85.13,537.41,85.13,538.51Zm-5.5-15.6V525c-.1,0-.2.1-.3.1l-17.6,6.6c4.7-2.9,13-6.3,17.9-8.8Z"/><path class="cls-4" d="M76.53,580.71v.2h-.1A.35.35,0,0,0,76.53,580.71Z"/><path class="cls-5" d="M83.33,546.41a2.25,2.25,0,0,0-2.3-.9,4.87,4.87,0,0,0-1.1.4,5.31,5.31,0,0,0-3.6,1.1,8.94,8.94,0,0,0-3.2,4,5.94,5.94,0,0,0-.1,5.2,3.65,3.65,0,0,0,2.4,1.8c2.6.8,5.1-1,6.7-2.9C83.93,552.81,84.93,549.31,83.33,546.41Z"/><path class="cls-3" d="M81.53,544.61a2.25,2.25,0,0,0-2.3-.9,4.87,4.87,0,0,0-1.1.4,5.31,5.31,0,0,0-3.6,1.1,8.94,8.94,0,0,0-3.2,4,5.94,5.94,0,0,0-.1,5.2,3.65,3.65,0,0,0,2.4,1.8c2.6.8,5.1-1,6.7-2.9C82.13,550.91,83,547.51,81.53,544.61Z"/><path class="cls-2" d="M81.73,544.31c-2-2.3-7.5-.5-9.4,1.1-2.6,2.2-5,6.8-2.9,10.1s7.7,1.7,9.9-.6c2.8-2.8,4.1-6.9,2.4-10.6-.3-.7-1.4.6-1.1,1.2a7.55,7.55,0,0,1-1.6,8.3c-1.8,2-5.3,3.4-7.3.9-1.9-2.3,0-4.8,1.8-6.5,1.2-1.2,5.6-4.4,7.1-2.6C81.13,546,82.13,544.71,81.73,544.31Z"/></svg>