<?xml version="1.0" encoding="utf-8"?>
<!-- Generator: Adobe Illustrator 24.0.1, SVG Export Plug-In . SVG Version: 6.00 Build 0)  -->
<svg version="1.1" id="Camada_1" xmlns="http://www.w3.org/2000/svg" xmlns:xlink="http://www.w3.org/1999/xlink" x="0px" y="0px"
	 viewBox="0 0 39.4 37" style="enable-background:new 0 0 39.4 37;" xml:space="preserve">
<style type="text/css">
	.st0{fill:#0D76F6;}
	.st1{fill-rule:evenodd;clip-rule:evenodd;fill:#19DB5F;}
</style>
<path class="st0" d="M37.2,8.2C34.9,5.7,31,5.6,28.5,8L16.9,20.2l-5.5-7.1c-2.1-2.7-6-3.3-8.7-1.2c-2.7,2.1-3.3,6-1.2,8.7l9.7,12.4
	c1.2,1.5,3,2.5,5,2.5c0.2,0,0.3,0,0.5,0c1.6,0,3.2-0.6,4.4-1.7l16-16.9C39.5,14.6,39.6,10.7,37.2,8.2z"/>
<g>
	<title>Group 6</title>
	<desc>Created with Sketch.</desc>
	<g id="Welcome">
		<g id="Desktop-HD-Copy-3" transform="translate(-334.000000, -384.000000)">
			<g id="Group-6" transform="translate(334.000000, 383.000000)">
				<path id="Fill-4" class="st1" d="M35.4,11c-1.4-1.5-3.7-1.5-5.2-0.2L16.7,25.1l-7.4-9.4c-1.2-1.6-3.5-1.9-5.1-0.7
					c-1.6,1.2-1.9,3.5-0.7,5.1l9.8,12.4c0.8,1.1,2.1,1.6,3.4,1.4c1,0.1,2-0.3,2.8-1l15.9-16.8C36.7,14.8,36.8,12.4,35.4,11"/>
			</g>
		</g>
	</g>
</g>
</svg>
