<svg xmlns="http://www.w3.org/2000/svg" viewBox="0 0 168 624"><defs><style>.cls-1{fill:#009dff;}.cls-2{fill:#f9c236;}.cls-3{fill:#09519f;}.cls-4{fill:#fff;}.cls-5{fill:#042f70;}</style></defs><title>15_segs</title><g id="Camada_4" data-name="Camada 4"><path class="cls-1" d="M107.56,135.25c4.6-2.9,9.1-6,13.5-9.1a55.47,55.47,0,0,1-7.5,6.1ZM71.36,20.05c-6.8,5.8-14.7,10.4-22.3,14.8l-3.3,1.9C54.26,31.15,62.76,25.45,71.36,20.05Zm-14.9-.2c-4,3-8.3,5.8-12.5,8.4,2-1.5,4-2.9,6.1-4.2A70.58,70.58,0,0,1,56.46,19.85Zm44.9,12.8c2.3-1.9,4.6-3.7,7-5.4C106.16,29.15,103.76,31,101.36,32.65Zm30.5,75c-1.3,1-2.6,2-4,2.9C129.16,109.55,130.46,108.55,131.86,107.65Zm-28,13.7c-6.7,5.4-13.8,11.2-21.6,15.1A146.73,146.73,0,0,1,103.86,121.35Zm25.3-23c-4.3,3-8.8,5.7-13.4,8.3,4.9-3.6,9.9-7.1,15.1-10.2l4.5-2.7C133.26,95.45,131.16,97,129.16,98.35Zm-64.9,35,10.4-7.4a64,64,0,0,1-10.6,8.2C64.16,134,64.16,133.65,64.26,133.35Zm32.7-31c-4.2,3-8.5,5.9-12.9,8.6-2.3,1.4-4.6,2.7-6.9,4.1,7.6-5.7,15.2-11.3,23.1-16.6,4.3-2.9,8.8-5.6,13.2-8.3-4.3,3.1-8.5,6.3-12.8,9.5Zm60.2-51.2a12.19,12.19,0,0,0-5.9.9l.3-.3c1.5-1.4-.4-2.5-1.6-2.6a11.92,11.92,0,0,0-8.1,2.2l-1.3.9c1.9-1.5,3.8-2.9,5.7-4.4,1.1-.9,1.9-2.5.1-3.1a8.2,8.2,0,0,0-4.4-.1c.5-.5,1.1-1,1.6-1.5,1-.9,2-2.4.1-3.1-2.5-.9-5.7.1-8,1.3-3.3,1.7-6.6,3.5-9.8,5.3a113.25,113.25,0,0,0,10.6-10.2c1.3-1.5-.3-2.5-1.6-2.6a10.45,10.45,0,0,0-2.5,0,104.66,104.66,0,0,0,11.4-10.7c1.3-1.5-.3-2.5-1.6-2.6a11.64,11.64,0,0,0-8.1,2.2,370.48,370.48,0,0,1-33.3,25.4c-2.7,1.7-5.3,3.4-8,5.1C106.06,44,119,34,130,21.85c1.3-1.5-.3-2.5-1.6-2.6a11.56,11.56,0,0,0-3.2.1,15.92,15.92,0,0,0,1.3-2.2c1.2-2.2-4-2-4.8-1.8a8.33,8.33,0,0,0-1.5.4c.6-.6,1.3-1.2,1.9-1.8,1.4-1.4-.4-2.5-1.6-2.6a11.92,11.92,0,0,0-8.1,2.2c-5.6,4-11.1,8-16.7,12-1.5.9-3,1.7-4.5,2.5-9.4,5.3-18.4,11.2-27.6,16.8l-3.1,1.8.3-.2c19.1-12.3,39.2-23.2,56.6-37.7,1.7-1.4,1.4-3.1-.9-3.4a11.78,11.78,0,0,0-8.1,2.2,118.2,118.2,0,0,1-10.4,7c2.3-1.7,4.7-3.4,6.9-5.2,1.8-1.4,1.4-3.1-.9-3.4a12.32,12.32,0,0,0-8.1,2.2l-7.8,5.7a47.63,47.63,0,0,0,5-6.6c1-1.6-.1-2.4-1.7-2.6a12.2,12.2,0,0,0-7,1.5c-2.7,1.4-5.4,2.9-8.1,4.4.3-.4.7-.8,1-1.2,2.9-3.7-6.3-2.1-7.3-1.7a125.77,125.77,0,0,0-27.5,14.2,150.85,150.85,0,0,0-24.4,19.6c-1.5,1.5.1,2.2,1.6,2.5a71,71,0,0,0-9.4,8.8c-1.4,1.5.2,2.5,1.6,2.6a11.46,11.46,0,0,0,7-1.5c.6-.3,1.1-.7,1.7-1a74.85,74.85,0,0,0-9,7.9c-1.4,1.4.4,2.5,1.6,2.6a13.26,13.26,0,0,0,7-1.5c1.1-.5,2.2-1.1,3.3-1.6-4.3,3.7-8.6,7.7-12.6,11.8-1.4,1.4.4,2.5,1.6,2.6a6.69,6.69,0,0,0,2,0c-1.5,1.5-2.9,3.1-4.3,4.7s.3,2.5,1.6,2.6a10.75,10.75,0,0,0,3.1-.1c-1.3.9-2.7,1.8-4,2.8-1.9,1.4-1.3,3.1.9,3.3a11.78,11.78,0,0,0,8.1-2.2l4-2.8c11.9-8,24.7-14.7,37.2-21.7-4.6,3.6-9.3,7.2-14,10.6-4.4,2.3-8.9,4.5-13.4,6.6-7,3.3-16.8,7.1-19.9,14.9-1.1,2.8,5.4,1.7,6.3,1.5a35.74,35.74,0,0,0,6-2.1c-2.6,1.9-5.2,3.9-7.8,5.8-1.2.8-1.9,2.5-.1,3.1,2.5.9,5.8-.1,8-1.3l.1-.1a53.5,53.5,0,0,0-7.4,8.3c-1.1,1.5.1,2.4,1.7,2.6a12.2,12.2,0,0,0,7-1.5c.9-.5,1.9-1,2.8-1.5-2.3,2.1-4.6,4.2-6.9,6.4-1.4,1.4.4,2.5,1.7,2.6a10.75,10.75,0,0,0,5.3-.8,18.32,18.32,0,0,0-4.1,8.8c-.5,2.9,4.9,1.9,6.3,1.5a48.51,48.51,0,0,0,9.2-3.5c-1.8,1.9-3.5,3.9-5.2,6-1.2,1.5.2,2.5,1.7,2.6a11.83,11.83,0,0,0,3.7-.2,10.7,10.7,0,0,0-1.4,1.6c-1.3,1.5.3,2.5,1.7,2.6a11.46,11.46,0,0,0,7-1.5l.5-.3c-1.1,1-2.2,2.1-3.3,3.2-1.4,1.4.4,2.5,1.7,2.6a10.85,10.85,0,0,0,4-.3c.2,0,.5-.1.8-.1l.3,1.2c.7,2.1,4.9,1.2,6.3.8l.7-.2c-1.2,1.5.2,2.4,1.7,2.6a10.45,10.45,0,0,0,2.5,0c-1,1.9,3.8,2.1,4.8,1.9,2.2-.4,4.4-1,6.5-1.6-.6.3-1.2.7-1.8,1-.9.5-3.3,2.1-1.9,3.4s4.3.7,5.9.2,2.9-.8,4.3-1.3c-.8.7-1.3,1.6-.5,2.4,1.8,1.6,5.5.5,7.4-.3,10.6-4.1,21-8.4,30.3-14.4,1.8-.9,3.6-1.9,5.4-2.9,11.1-6.2,22.6-14.7,26.8-27.4.7-2-1.9-2.1-4.5-1.7a45.68,45.68,0,0,0,5.4-6.9c1.1-1.9-.1-2.5-1.9-2.5a30,30,0,0,0,6.2-9.5c.4-1.1-.7-1.6-1.6-1.8a19.22,19.22,0,0,0,1.6-4.2c.6-2.3-3.6-2-4.8-1.8a20.48,20.48,0,0,0-2.4.5c1.6-1.7,3.2-3.4,4.7-5.2,1.2-1.5-.2-2.4-1.6-2.6a6.6,6.6,0,0,0-1.4-.1,35.53,35.53,0,0,0,4.8-6.7c1.3-2.3-3.8-1.8-6.4-1.3,2.9-2,5.7-4.2,8.5-6.5C159.76,53.05,159.56,51.45,157.16,51.15Z"/><path class="cls-2" d="M58.26,80.75h0c0,.1-.1.1-.1.2C58.16,80.85,58.26,80.85,58.26,80.75Z"/><path class="cls-2" d="M129.46,95.85v.2h-.2C129.36,96.05,129.36,96,129.46,95.85Z"/><path class="cls-1" d="M107.59,291.23c4.6-2.9,26-20.8,30.41-23.9-2.3,2.2-21.71,19.1-24.41,20.9Q110.59,289.88,107.59,291.23ZM79,171.33C64.89,182.49,59.6,185.5,52,190L34.67,203C39.15,198.17,70.3,176.73,79,171.33Zm-22.51,4.5a143.67,143.67,0,0,1-12.5,8.4q3-2.25,6-4.2C52.09,178.53,54.29,177.23,56.49,175.83Zm36.7,18.8c2.3-1.9,24.8-21.1,27.1-22.8C112.47,181.9,95.69,192.93,93.19,194.63Zm38.7,69c-1.3,1-2.6,2-4,2.9C129.19,265.53,130.49,264.53,131.89,263.63Zm-18.8,7.2c-6.7,5.4-30.63,23.27-38.43,27.17C81.37,292.3,105.49,275.33,113.09,270.83Zm16.1-16.4c-4.3,3-8.8,5.7-13.4,8.4,4.9-3.6,9.9-7.1,15.1-10.2l4.5-2.7C133.29,251.53,131.19,253,129.19,254.43Zm-64.9,35,10.4-7.4a64,64,0,0,1-10.6,8.2A1.88,1.88,0,0,0,64.29,289.43ZM97,258.33c-4.2,3-8.5,5.9-12.9,8.6-2.3,1.4-4.6,2.7-6.9,4.1,7.6-5.6,15.2-11.3,23.1-16.6,4.3-2.9,8.8-5.6,13.2-8.3-4.3,3.1-8.5,6.3-12.8,9.5Zm60.3-51.1a12.19,12.19,0,0,0-5.9.9l.3-.3c1.5-1.4-.4-2.5-1.6-2.6a11.92,11.92,0,0,0-8.1,2.2l-1.3.9c1.9-1.5,3.8-2.9,5.7-4.4,1.1-.9,1.9-2.4.1-3.1a8.2,8.2,0,0,0-4.4-.1c.5-.5,1.1-1,1.6-1.5,1-.9,2-2.4.1-3.1-2.5-.9-5.7.1-8,1.3-3.3,1.7-6.6,3.5-9.8,5.3a113.25,113.25,0,0,0,10.6-10.2c1.3-1.5-.3-2.5-1.6-2.6a10.44,10.44,0,0,0-2.5,0,104.66,104.66,0,0,0,11.4-10.7c1.3-1.5-.3-2.4-1.6-2.6a11.64,11.64,0,0,0-8.1,2.2,370.47,370.47,0,0,1-33.3,25.4c-2.7,1.7-5.3,3.4-8,5.1,13.3-9.3,29.54-22.54,36.6-29.66,1.3-1.4.3-4.24-1-4.34a11.56,11.56,0,0,0-3.2.1,15.92,15.92,0,0,0,1.3-2.2c1.2-2.2-4-2-4.8-1.8a8.33,8.33,0,0,0-1.5.4c.7-.6,1.3-1.2,1.9-1.8,1.4-1.4-.4-2.5-1.6-2.6-2.7-.3-1.69-.67-4,.93-5.6,4-15.21,9.27-20.81,13.27-1.5.9-5.88,3.35-7.38,4.15-9.4,5.3-15.52,9.55-24.72,15.15l-3.1,1.9.3-.2c19.1-12.3,39.2-23.2,56.6-37.7,1.7-1.5,1.4-3.1-.9-3.4a11.78,11.78,0,0,0-8.1,2.2,118.2,118.2,0,0,1-10.4,7c2.3-1.7,4.7-3.4,6.9-5.2,1.8-1.4,1.4-3.1-.9-3.4a11.78,11.78,0,0,0-8.1,2.2l-7.8,5.7a47.63,47.63,0,0,0,5-6.6c1-1.5-.1-2.4-1.7-2.6a12.2,12.2,0,0,0-7,1.5c-2.7,1.4-5.4,2.9-8.1,4.4.3-.4.7-.8,1-1.2,2.9-3.7-6.3-2.1-7.3-1.7-9.7,3.4-18.9,8.6-27.5,14.2a140.19,140.19,0,0,0-24.5,19.4c-1.5,1.4.1,2.2,1.6,2.5a65.33,65.33,0,0,0-9.4,8.8c-1.3,1.5.3,2.5,1.6,2.6a11.46,11.46,0,0,0,7-1.5c.6-.3,1.1-.7,1.7-1a83.43,83.43,0,0,0-9,7.9c-1.4,1.4.4,2.5,1.7,2.6a13.26,13.26,0,0,0,7-1.5c1.1-.5,2.2-1.1,3.3-1.6-4.3,3.7-8.6,7.7-12.6,11.8-1.4,1.4.4,2.5,1.6,2.6a6.69,6.69,0,0,0,2,0c-1.5,1.5-2.9,3.1-4.3,4.7s.3,2.5,1.6,2.6a10.75,10.75,0,0,0,3.1-.1c-1.3.9-2.7,1.8-4,2.8-1.9,1.4-1.3,3.1.9,3.4a11.78,11.78,0,0,0,8.1-2.2l4-2.8c11.9-8,24.7-14.7,37.2-21.7-4.6,3.6-14.6,8.7-19.4,12.1-4.4,2.3-3.6,3-8.1,5.1-7,3.3-16.8,7.1-19.9,14.9-1.1,2.8-.36,6.16.54,6,2-.5,24-14.9,26-15.7-2.6,1.9-19.44,13.14-22,15-1.2.8-1.9,2.5-.1,3.1,2.5.9,5.8-.1,8-1.3l.1-.1a53.5,53.5,0,0,0-7.4,8.3c-1.1,1.5.1,2.4,1.6,2.6a12.2,12.2,0,0,0,7-1.5c.9-.5,1.9-1,2.8-1.5-2.4,2.1-4.7,4.2-6.9,6.4-1.4,1.4.4,2.5,1.6,2.6a11.32,11.32,0,0,0,5.4-.8,19,19,0,0,0-4.2,8.8c-.5,2.9,4.9,1.9,6.3,1.5,3.2-.8,2.7,2.8,17.3-18-1.8,1.9-11.6,18.4-13.3,20.5-1.2,1.5.2,2.5,1.7,2.6a11.83,11.83,0,0,0,3.7-.2,10.7,10.7,0,0,0-1.4,1.6c-1.3,1.5.3,2.5,1.7,2.6a11.46,11.46,0,0,0,7-1.5l.5-.3c-1.1,1-2.2,2.1-3.3,3.2-1.4,1.4.4,2.5,1.7,2.6a10.85,10.85,0,0,0,4-.3c.2,0,.5-.1.8-.1l.3,1.2c.7,2.1,4.9,1.2,6.3.8l.7-.2c-1.2,1.5.2,2.4,1.7,2.6a10.45,10.45,0,0,0,2.5,0c-1,1.9,3.8,2.1,4.8,1.9,2.2-.4,4.4-1,6.5-1.6-.6.3-1.2.7-1.8,1-.9.5-3.3,2.1-1.9,3.4s4.3.7,5.9.2,2.9-.8,4.3-1.3c-.8.7-1.3,1.6-.5,2.4,1.8,1.6,5.5.5,7.4-.3,10.6-4.1,21-8.5,30.3-14.4,1.8-.9,3.6-1.9,5.4-2.9,11.1-6.2,22.6-14.7,26.8-27.4.7-2-1.9-2.1-4.5-1.7a45.68,45.68,0,0,0,5.4-6.9c1.1-1.9-.1-2.5-1.9-2.5a30,30,0,0,0,6.2-9.5c.4-1.1-.7-1.6-1.6-1.8a19.22,19.22,0,0,0,1.6-4.2c.6-2.3-3.6-2-4.8-1.8a20.48,20.48,0,0,0-2.4.5c1.6-1.7,3.2-3.4,4.7-5.2,1.2-1.5-.2-2.4-1.6-2.6a6.6,6.6,0,0,0-1.4-.1,35.53,35.53,0,0,0,4.8-6.7c1.3-2.3-3.8-1.8-6.4-1.3a102.38,102.38,0,0,0,8.5-6.6C159.79,209.13,159.59,207.53,157.29,207.23Z"/><path class="cls-2" d="M35.19,215.33h0c-.1,0-.1-.1,0,0C35.09,215.23,35.19,215.23,35.19,215.33Z"/><path class="cls-2" d="M58.39,236.83h0c0,.1-.1.1-.1.2C58.29,236.93,58.29,236.83,58.39,236.83Z"/><path class="cls-2" d="M129.49,251.93v.2h-.2C129.39,252,129.39,251.93,129.49,251.93Z"/><path class="cls-1" d="M107.59,447.21c4.6-2.9,9.1-6,13.5-9.1a55.47,55.47,0,0,1-7.5,6.1Q110.59,445.86,107.59,447.21ZM82.49,324c-6.8,5.8-25.8,18.5-33.4,22.9l-3.3,1.9C54.29,343.21,73.89,329.41,82.49,324Zm-21.3,4.8c-4,3-21.8,16.6-26.1,19.2,2-1.5,12.8-10.7,14.9-12C52.09,334.51,59,330.11,61.19,328.81Zm38.1,17.6c2.3-1.9,13.4-11.9,15.8-13.6C110.89,338.61,101.69,344.71,99.29,346.41Zm32.6,73.2c-1.3,1-2.6,2-4,2.9C129.19,421.51,130.49,420.61,131.89,419.61Zm-18.9,7.2c-6.7,5.4-23,17.8-30.8,21.7A328.47,328.47,0,0,1,113,426.81Zm-48.7,18.6,10.4-7.4a64,64,0,0,1-10.6,8.2A1.88,1.88,0,0,0,64.29,445.41ZM97,414.31c-4.2,3-8.5,5.9-12.9,8.6-2.3,1.4-4.6,2.7-6.9,4.1,7.6-5.6,15.2-11.3,23.1-16.6,4.3-2.9,8.8-5.6,13.2-8.3-4.3,3.1-8.5,6.3-12.8,9.5Zm60.3-51.1a12.19,12.19,0,0,0-5.9.9l.3-.3c1.5-1.4-.4-2.5-1.6-2.6a11.92,11.92,0,0,0-8.1,2.2l-1.3.9c1.9-1.5,3.8-2.9,5.7-4.4,1.1-.9,1.9-2.5.1-3.1a8.2,8.2,0,0,0-4.4-.1c.5-.5,1.1-1,1.6-1.5,1-.9,2-2.4.1-3.1-2.5-.9-5.7.1-8,1.3-3.3,1.7-6.6,3.5-9.8,5.3a113.25,113.25,0,0,0,10.6-10.2c1.3-1.5-.3-2.5-1.6-2.6a10.44,10.44,0,0,0-2.5,0,104.65,104.65,0,0,0,11.4-10.7c1.3-1.5-.3-2.5-1.6-2.6a11.64,11.64,0,0,0-8.1,2.2,370.47,370.47,0,0,1-33.3,25.4c-2.7,1.7-5.3,3.4-8,5.1,13.3-9.3,26.2-19.3,37.2-31.4,1.3-1.5-.3-2.5-1.6-2.6a11.56,11.56,0,0,0-3.2.1,15.92,15.92,0,0,0,1.3-2.2c1.2-2.2-4-2-4.8-1.8a8.33,8.33,0,0,0-1.5.4c.6-.6,1.3-1.2,1.9-1.8,1.4-1.4-.4-2.5-1.6-2.6a11.92,11.92,0,0,0-8.1,2.2c-5.6,4-11.1,8-16.7,12-1.5.9-3.3,2.3-4.8,3.1-9.4,5.3-18.1,10.6-27.3,16.2l-3.1,1.8.3-.2c19.1-12.3,39.2-23.2,56.6-37.7,1.7-1.4,1.4-3-.9-3.4a11.78,11.78,0,0,0-8.1,2.2c-3.3,2.6-2.5.9-6.1,3.1,2.3-1.7.3.5,2.6-1.3,1.8-1.4,1.4-3.1-.9-3.4a11.78,11.78,0,0,0-8.1,2.2c-2.6,1.9-12.8,9.6-15.4,11.4,1.8-2,12.1-9.1,13.6-11.5,1-1.6-1-3.3-2.6-3.5a12.2,12.2,0,0,0-7,1.5c-2.7,1.4-5.4,2.9-8.1,4.4.3-.4.7-.8,1-1.2,2.9-3.7-6.3-2.1-7.3-1.7-9.7,3.4-18.9,8.6-27.5,14.2A152.11,152.11,0,0,0,18,353.61c-1.4,1.5.1,2.2,1.6,2.5a65,65,0,0,0-9.4,8.8c-1.3,1.5.3,2.5,1.6,2.6a12.2,12.2,0,0,0,7-1.5c.6-.3,1.1-.7,1.7-1a83.43,83.43,0,0,0-9,7.9c-1.4,1.4-3.1,7.1-1.8,7.2,2.4.3,8.3-5.1,10.4-6.1,1.1-.5,2.2-1.1,3.3-1.6-4.3,3.7-8.6,7.7-12.6,11.8-1.4,1.4.4,2.5,1.6,2.6a6.7,6.7,0,0,0,2,0c-1.5,1.5-2.9,3.1-4.3,4.7s.3,2.5,1.6,2.6a10.75,10.75,0,0,0,3.1-.1c-1.3.9-2.7,1.8-4,2.8-1.9,1.4-1.3,3.1.9,3.4a11.78,11.78,0,0,0,8.1-2.2l4-2.8c11.9-8,24.7-14.7,37.2-21.7-4.6,3.6-14.6,8.7-19.4,12.1-4.4,2.3-3.6,3-8.1,5.1-7,3.3-16.8,7.1-19.9,14.9-1.1,2.8,5.4,1.7,6.3,1.5a46.9,46.9,0,0,0,6-2c-2.6,1.9-5.2,3.9-7.8,5.8-1.2.8-1.9,2.5-.1,3.1,2.5.9-.4,5.2,1.8,4.1L33.59,408c-2.7,2.5-12.7,9.9-14.9,12.9-1.1,1.5.1,2.4,1.6,2.6a12.2,12.2,0,0,0,7-1.5c.9-.5,7.4-5.8,8.4-6.3-2.3,2.1-11.8,9-14,11.2-1.4,1.4,2,2.5,3.2,2.6a11.32,11.32,0,0,0,5.4-.8,19,19,0,0,0-4.2,8.8c-.5,2.9,4.9,1.9,6.3,1.5,3.2-.8,2.7,2.8,17.3-18-1.8,1.9-11.6,18.4-13.3,20.5-1.2,1.5.2,2.5,1.7,2.6a11.83,11.83,0,0,0,3.7-.2,10.7,10.7,0,0,0-1.4,1.6c-1.3,1.5.3,2.5,1.7,2.6a11.46,11.46,0,0,0,7-1.5l.5-.3c-1.1,1-2.2,2.1-3.3,3.2-1.4,1.4.4,2.5,1.7,2.6a10.85,10.85,0,0,0,4-.3c.2,0,.5-.1.8-.1l.3,1.2c.7,2.1,4.9,1.2,6.3.8l.7-.2c-1.2,1.5.2,2.4,1.7,2.6a10.45,10.45,0,0,0,2.5,0c-1,1.9,3.8,2.1,4.8,1.9,2.2-.4,4.4-1,6.5-1.6-.6.3-1.2.7-1.8,1-.9.5-3.3,2.1-1.9,3.4s4.3.7,5.9.2,2.9-.8,4.3-1.3c-.8.7-1.3,1.6-.5,2.4,1.8,1.6,5.5.5,7.4-.3,10.6-4.1,21-8.5,30.3-14.4,1.8-.9,3.6-1.9,5.4-2.9,11.1-6.2,22.6-14.7,26.8-27.4.7-2-1.9-2.1-4.5-1.7a45.68,45.68,0,0,0,5.4-6.9c1.1-1.9-.1-2.5-1.9-2.5a30,30,0,0,0,6.2-9.5c.4-1.1-.7-1.6-1.6-1.8a19.22,19.22,0,0,0,1.6-4.2c.6-2.3-3.6-2-4.8-1.8a20.48,20.48,0,0,0-2.4.5c1.6-1.7,3.2-3.4,4.7-5.2,1.2-1.5-.2-2.5-1.6-2.6a6.6,6.6,0,0,0-1.4-.1,35.53,35.53,0,0,0,4.8-6.7c1.3-2.3-3.8-1.8-6.4-1.3,2.9-2,5.7-4.2,8.5-6.5C159.79,365.11,159.59,363.51,157.29,363.21Z"/><path class="cls-2" d="M35.19,371.31h0C35.09,371.21,35.09,371.31,35.19,371.31Z"/><path class="cls-2" d="M58.29,392.81h0c0,.1-.1.1-.1.2A.35.35,0,0,1,58.29,392.81Z"/><path class="cls-2" d="M129.49,407.91v.2h-.2Z"/><path class="cls-1" d="M106.27,605.23c4.6-2.9,9.1-6,13.5-9.1a55.47,55.47,0,0,1-7.5,6.1Q109.42,603.73,106.27,605.23Zm-38.5-114.4a129.81,129.81,0,0,1-19.9,14L29,517.93C37.4,512.33,59.17,496.23,67.77,490.83Zm-7.8-4c-4,3-21.8,16.6-26.1,19.2,2-1.4,12.8-10.7,14.9-12C50.87,492.53,57.67,488.13,60,486.83Zm38,17.5c2.3-1.9,13.4-11.9,15.8-13.6C109.67,496.63,100.37,502.63,98,504.33Zm13.8,80.4c-6.7,5.4-23,17.8-30.8,21.7C87.67,600.73,104.17,589.23,111.77,584.73Zm-16-12.4c-4.2,3-8.5,5.9-12.9,8.6-2.3,1.4-4.6,2.7-6.9,4.1,7.6-5.7,15.2-11.3,23.1-16.6,4.3-2.9,8.8-5.6,13.2-8.3-4.3,3.1-8.5,6.3-12.7,9.5Zm60.2-51.2a12.19,12.19,0,0,0-5.9.9l.3-.3c1.5-1.4-.4-2.5-1.6-2.6a11.92,11.92,0,0,0-8.1,2.2l-1.3.9c1.9-1.5,3.8-2.9,5.7-4.4,1.1-.9,1.9-2.5.1-3.1a8.2,8.2,0,0,0-4.4-.1c.5-.5,1.1-1,1.6-1.5,1-.9,2-2.4.1-3.1-2.5-.9-5.7.1-8,1.3-3.3,1.7-6.6,3.5-9.8,5.3a113.25,113.25,0,0,0,10.6-10.2c1.3-1.5-.3-2.5-1.6-2.6a10.45,10.45,0,0,0-2.5,0,104.65,104.65,0,0,0,11.4-10.7c1.3-1.5-.3-2.5-1.6-2.6a11.64,11.64,0,0,0-8.1,2.2,370.48,370.48,0,0,1-33.3,25.4c-2.7,1.7,10-7.9,7.4-6.2,13.3-9.3,10.9-8,21.9-20.1,1.3-1.5-.3-2.5-1.6-2.6a11.57,11.57,0,0,0-3.2.1,15.92,15.92,0,0,0,1.3-2.2c1.2-2.2-4-2-4.8-1.8a8.33,8.33,0,0,0-1.5.4c.6-.6,1.3-1.2,1.9-1.8,1.4-1.4-.4-2.5-1.6-2.6a11.92,11.92,0,0,0-8.1,2.2c-5.6,4-11.1,8-16.7,12-1.5.9-3.3,2.3-4.8,3.1-9.4,5.3-18.1,10.6-27.3,16.2l-3.1,1.9.3-.2c19.1-12.3,39.2-23.2,56.6-37.7,1.7-1.4,1.4-3-.9-3.4a11.78,11.78,0,0,0-8.1,2.2c-3.3,2.6-2.5.9-6.1,3.1,2.3-1.7.3.5,2.6-1.3,1.8-1.4,1.4-3.1-.9-3.4-2.7-.3-3.9.6-6.1,2.2-2.6,1.9-14.8,9.6-17.4,11.4,1.8-2,12.1-9.1,13.6-11.5,1-1.6-1-3.3-2.6-3.5a12.2,12.2,0,0,0-7,1.5c-2.7,1.4-5.4,2.9-8.1,4.4.3-.4.7-.8,1-1.2,2.9-3.7-6.3-2.1-7.3-1.7a125.77,125.77,0,0,0-27.5,14.2,152.11,152.11,0,0,0-24.7,19.8c-1.5,1.5.1,2.2,1.6,2.5a60.17,60.17,0,0,0-9.4,8.8c-1.3,1.5.3,2.5,1.6,2.6a12.2,12.2,0,0,0,7-1.5c.6-.3,1.1-.7,1.7-1a83.43,83.43,0,0,0-9,7.9c-1.4,1.4-3.1,7.1-1.8,7.2,2.4.3,8.3-5.1,10.4-6.1,1.1-.5,13.9-10.5,14.9-11-4.3,3.7-20.4,15.3-24.4,19.5-1.4,1.4.5,4.2,1.8,4.4a6.7,6.7,0,0,0,2,0c-1.5,1.5-2.9,3.1-4.3,4.7s.3,2.5,1.6,2.6a10.75,10.75,0,0,0,3.1-.1c-1.3.9-2.7,1.8-4,2.8-1.9,1.4-1.3,3.1.9,3.3a11.78,11.78,0,0,0,8.1-2.2l4-2.8c11.9-8,24.7-14.7,37.2-21.7-4.6,3.6-14.6,8.7-19.4,12.1-4.4,2.3-3.6,3-8.1,5.1-7,3.3-16.8,7.1-19.9,14.9-1.1,2.8,5.4,1.7,6.3,1.5a35.74,35.74,0,0,0,6-2.1c-2.6,2-5.2,3.9-7.8,5.8-1.2.9-1.9,2.5-.1,3.1,2.5.9-.4,5.2,1.8,4.1l13.8-10.1c-2.7,2.5-12.7,9.9-14.9,12.9-1.1,1.5.1,2.4,1.6,2.6a12.2,12.2,0,0,0,7-1.5c.9-.5,7.4-5.8,8.4-6.3-2.4,2-11.8,9-14,11.2-1.4,1.4,2,2.5,3.2,2.6a11.32,11.32,0,0,0,5.4-.8,19.46,19.46,0,0,0-4.2,8.8c-.5,2.9,4.9,1.9,6.3,1.5,3.2-.8,2.7,2.8,17.3-18-1.8,1.9-11.6,18.4-13.3,20.4-1.2,1.5.2,2.5,1.7,2.6a11.83,11.83,0,0,0,3.7-.2,10.7,10.7,0,0,0-1.4,1.6c-1.3,1.5.3,2.5,1.7,2.6a11.46,11.46,0,0,0,7-1.5l.5-.3c-1.1,1-2.2,2.1-3.3,3.2-1.4,1.4.4,2.5,1.7,2.6a10.85,10.85,0,0,0,4-.3c.2,0,.5-.1.8-.1l.3,1.2c.7,2.1,4.9,1.2,6.3.8l.7-.2c-1.2,1.5.2,2.4,1.7,2.6a10.46,10.46,0,0,0,2.5,0c-1,1.9,3.8,2.1,4.8,2,2.2-.4,4.4-1,6.5-1.6-.6.3-1.2.7-1.8,1-.9.5-3.3,2.1-1.9,3.4s4.3.7,5.9.2,2.9-.8,4.3-1.3c-.8.7-1.3,1.6-.5,2.4,1.8,1.6,5.5.5,7.4-.3,10.6-4.1,21-8.4,30.3-14.4,1.8-.9,3.6-1.8,5.4-2.8,11.1-6.2,22.6-14.7,26.8-27.4.7-2-1.9-2.1-4.5-1.7a45.67,45.67,0,0,0,5.4-6.9c1.1-1.9-.1-2.5-1.9-2.5a30,30,0,0,0,6.2-9.5c.4-1.1-.7-1.6-1.6-1.8a19.22,19.22,0,0,0,1.6-4.2c.6-2.3-3.6-2-4.8-1.8-.8.1-16,14.7-16.7,14.9,1.6-1.7,17.6-17.9,19.1-19.7,1.2-1.5-.2-2.5-1.6-2.6a6.6,6.6,0,0,0-1.4-.1,35.53,35.53,0,0,0,4.8-6.7c1.3-2.3-3.8-1.8-6.4-1.3,2.9-2,5.7-4.2,8.5-6.5C158.57,523,158.37,521.43,156,521.13Z"/><path class="cls-2" d="M57.07,550.73h0c0,.1-.1.1-.1.2C57,550.83,57,550.83,57.07,550.73Z"/><path class="cls-2" d="M128.17,565.83v.2H128A.22.22,0,0,0,128.17,565.83Z"/></g><g id="Camada_6" data-name="Camada 6"><path class="cls-3" d="M14.26,77.75c0-15.3,6.1-31.1,16.6-43.2,10.9-12.4,25.3-20,40.6-21.3,1.2-.1,2.4-1,2.3-1.8,0-.3-.2-1-1.8-.8a65.91,65.91,0,0,0-33.7,13c1.5-1.2,3.1-2.4,4.7-3.5A69.86,69.86,0,0,1,82,8.55a71.18,71.18,0,0,1,27.6,5.5c17.3,7.4,30.6,21.9,37.4,41a81.45,81.45,0,0,1,2.4,31.1c-1.9,16.1-8.4,30.2-19,40.7A76.12,76.12,0,0,1,85.56,148a60.86,60.86,0,0,1-12.8.1,61.81,61.81,0,0,1-8.4-2.4C35.76,135.15,14.26,106.05,14.26,77.75ZM38,134.25a61.2,61.2,0,0,1-9.9-9.8A83.34,83.34,0,0,0,38,134.25Zm54.8,14.9c2.8-.6,5.6-1.3,8.3-2.1a81.34,81.34,0,0,0,36.8-23.6,68.13,68.13,0,0,1-26,20.6A57.56,57.56,0,0,1,92.76,149.15Zm24.7-140.5-.8-.5a1.55,1.55,0,0,0-.8-.2c-1.1,0-2.9.7-3.1,1.5a.79.79,0,0,0,.5.9,66.64,66.64,0,0,1,9.3,6.4,73.52,73.52,0,0,0-40.8-10.9c-22.6.5-43.2,10.2-56.5,26.5C13.56,46.55,7.56,66.15,9,86.15c1.3,19.8,10.3,38,24.5,49.7,10.2,8.4,23.1,13.5,37.5,14.6a71.64,71.64,0,0,0,14.6,1.5,69.3,69.3,0,0,0,36.8-10.5,71,71,0,0,0,33.5-52.6,76.38,76.38,0,0,0-4.3-35.3C146.16,34.35,134.06,18.35,117.46,8.65Z"/><path class="cls-3" d="M14.29,233.83c0-15.3,6.1-31.1,16.6-43.2,10.9-12.5,25.3-18.1,40.6-19.4,1.2-.1,2.4-3,2.3-3.8,0-.3-.2-1-1.8-.8a65.91,65.91,0,0,0-33.7,13c1.5-1.2,3.1-2.4,4.7-3.5a69.86,69.86,0,0,1,39-11.6,71.18,71.18,0,0,1,27.6,5.5c17.3,7.4,30.6,21.9,37.4,41a81.45,81.45,0,0,1,2.4,31.1c-1.9,16.1-8.4,30.2-19,40.7a76.12,76.12,0,0,1-44.8,21.1,60.86,60.86,0,0,1-12.8.1,61.81,61.81,0,0,1-8.4-2.4C35.79,291.23,14.29,262.13,14.29,233.83ZM38,290.23a61.2,61.2,0,0,1-9.9-9.8A83.34,83.34,0,0,0,38,290.23Zm54.8,15c2.8-.6,5.6-1.3,8.3-2.1a81.34,81.34,0,0,0,36.8-23.6,68.13,68.13,0,0,1-26,20.6A62,62,0,0,1,92.79,305.23Zm24.7-140.6-.8-.5a1.55,1.55,0,0,0-.8-.2c-1.1,0-2.9.7-3.1,1.5a.79.79,0,0,0,.5.9,66.64,66.64,0,0,1,9.3,6.4c-11.8-7.4-26.2-12.3-40.8-11.9-22.6.6-44.2,11.3-57.6,27.6-11.6,14.2-16.6,33.8-15.2,53.7s10.3,38,24.5,49.7c10.2,8.4,23.1,13.5,37.5,14.6a71.64,71.64,0,0,0,14.6,1.5,69.3,69.3,0,0,0,36.8-10.5,71,71,0,0,0,33.5-52.6,76.38,76.38,0,0,0-4.3-35.3A75.58,75.58,0,0,0,117.49,164.63Z"/><path class="cls-3" d="M14.29,389.81c0-15.3,6.1-31.1,16.6-43.2,10.9-12.5,25.3-18.1,40.6-19.4,1.2-.1,2.4-3,2.3-3.8,0-.3-.2-1-1.8-.8a65.91,65.91,0,0,0-33.7,13c1.5-1.2,3.1-2.4,4.7-3.5,11-7.5,24.9-10.6,39-10.6,9.6,0,19.1.9,27.6,4.5,17.3,7.4,31.6,19.9,38.4,39a81.45,81.45,0,0,1,2.4,31.1c-1.9,16.1-9.4,32.2-20,42.7a76.12,76.12,0,0,1-44.8,21.1,60.86,60.86,0,0,1-12.8.1,61.81,61.81,0,0,1-8.4-2.4C35.79,447.21,14.29,418.11,14.29,389.81Zm78.5,71.4c2.8-.6,6.6-1.3,9.3-2.1,14.3-4.4,30.3-15.8,39.8-26.6-6.7,8.8-19.8,19-30,23.6A62.05,62.05,0,0,1,92.79,461.21Zm24.7-140.6-.8-.5a1.55,1.55,0,0,0-.8-.2c-1.1,0-2.9.7-3.1,1.5a.79.79,0,0,0,.5.9,66.64,66.64,0,0,1,9.3,6.4c-11.8-7.4-26.2-12.3-40.8-11.9-22.6.5-44.2,11.2-57.5,27.5-11.7,14.2-16.6,32.8-15.3,52.8,1.3,19.8,10.3,37,24.5,48.7,10.2,8.4,23.1,15.5,37.5,16.6a71.64,71.64,0,0,0,14.6,1.5,69.3,69.3,0,0,0,36.8-10.5,71,71,0,0,0,33.5-52.6,76.38,76.38,0,0,0-4.3-35.3A75.58,75.58,0,0,0,117.49,320.61Z"/><path class="cls-3" d="M16,545.73c0-15.3,4.1-31.1,14.6-43.2,10.9-12.5,25.3-18.1,40.6-19.4,1.2-.1,2.4-3,2.3-3.8,0-.3-.2-1-1.8-.8a65,65,0,0,0-33.7,13c1.5-1.2,3.1-2.4,4.7-3.5,11-7.5,24.9-10.6,39-10.6,9.6,0,19.1.9,27.6,4.5,17.3,7.4,31.6,19.9,38.4,39a81.45,81.45,0,0,1,2.4,31.1c-1.9,16.1-9.4,32.2-20,42.7a76.11,76.11,0,0,1-44.8,21.1,60.85,60.85,0,0,1-12.8.1,61.81,61.81,0,0,1-8.4-2.4C35.57,603.13,16,574,16,545.73Zm76.5,71.4c2.8-.6,6.6-1.3,9.3-2.1,14.3-4.4,30.3-15.8,39.8-26.6-6.7,8.8-19.8,19-30,23.6A56.92,56.92,0,0,1,92.47,617.13Zm24.7-140.6-.8-.5a1.55,1.55,0,0,0-.8-.2c-1.1,0-2.9.7-3.1,1.5a.79.79,0,0,0,.5.9,66.64,66.64,0,0,1,9.3,6.4c-11.8-7.4-26.2-12.3-40.8-11.9-22.6.5-44.2,8.2-57.6,24.5C12.17,511.43,8.27,533,9.57,553c1.3,19.8,11.3,37,25.5,48.7,10.2,8.4,21.1,15.5,35.5,16.6a71.64,71.64,0,0,0,14.6,1.5,69.3,69.3,0,0,0,36.8-10.5,71,71,0,0,0,33.5-52.6,76.38,76.38,0,0,0-4.3-35.3A75,75,0,0,0,117.17,476.53Z"/><path class="cls-2" d="M135.75,88.38c-.13-.37-.25-.74-.35-1.12h0a65.16,65.16,0,0,1-1.59-7.44l-.21-1.27-.35.15c.07-.18.14-.37.2-.55l.07-.22,0-.23c-.17-1.16-.32-2.33-.47-3.51l0-.33-.24-.24a3.41,3.41,0,0,0-2.21-1l2-2.56,0-.41c-.05-.46-.11-.92-.17-1.38l0-.24c-.06-.28-.13-.62-.23-1.05-.32-1.39-.68-2.76-1-4.08l-.12-.43-.78-1.32-.06-.09-.16-.21-.72-.87-1.87-2.14-1.35-1.54a27.42,27.42,0,0,1-2.71-3.71l-.59-1-.89.71a8.76,8.76,0,0,0-1.4,1.4q-4.72,5.91-9.5,11.76L110,66.59l-1.49,1.71q6-8.31,11.57-16.59a6.94,6.94,0,0,0,1.14-3.07l0-.23-.08-.22a22.58,22.58,0,0,1-.89-3.1l-.06-.3-.22-.21a3.16,3.16,0,0,0-2.32-.91A5.24,5.24,0,0,0,114,45.8l-.16.18a3.5,3.5,0,0,0-1.36-2.46c-1.68-1.25-4.62-.92-7,2.12l-8.71,11C95.52,58,94.27,59.4,93,60.81L104.45,46c2.12-2.72,1.73-5.54.26-6.92a3.51,3.51,0,0,0-2.92-.87,4.28,4.28,0,0,0-.37-4.31,3.35,3.35,0,0,0-2.53-1.34,6.08,6.08,0,0,0-4.3,2.07l-.08.09a4.38,4.38,0,0,0-.24-3.32,3.51,3.51,0,0,0-2.46-1.87,4.39,4.39,0,0,0-3.61,1.09c-5,4.23-10,8.6-15,13.05L80,34.94c1.66-2.16,1.62-5.85-.08-7.46C79.4,27,77.63,25.74,75,28s-5.35,4.68-8.05,7.13a5.28,5.28,0,0,0-.69-4.42c-.63-.73-2.14-1.67-5.08.24A122.51,122.51,0,0,0,32.38,57.25a7.31,7.31,0,0,0-1.48,5.15,3.45,3.45,0,0,0,1.46,2.43,3.32,3.32,0,0,0,1.85.59c-1.89,2.76-3.73,5.52-5.5,8.26s-1.51,5.94.4,7.41c.6.46,2.79,1.71,5.67-1.5L36,78.24l-5.29,6.88c-2.08,2.71-1.64,5.77,0,7.17,1.11,1,3.09,1.32,5.25-.46h0c-2.27,2.67-2.68,6.54-.88,8.29a3,3,0,0,0,3.13.63l-.3.33c-2.54,2.82-2.44,6.89-.66,8.52.57.52,2.67,2,5.75-1.39q7.09-7.72,14.52-15.49l-12,15.39c-2.06,2.65-1.55,6,.22,7.37,1.27,1,3.5,1.27,5.68-1.26a4.71,4.71,0,0,0,.75,5.49,3.66,3.66,0,0,0,4,.52,5,5,0,0,0,.81,4.9,3.1,3.1,0,0,0,3.06.76l-.56.7,1.76.23a15.34,15.34,0,0,1,2.8.59l.3.12.88.36c.87.35,1.81.73,2.72,1.11l.64.27.92-1a4.09,4.09,0,0,0,.42,1.41l.14.27.27.15a17.32,17.32,0,0,1,2,1.27l.24.18.3,0a5.68,5.68,0,0,0,4.06-1.71l1.3-1.18a3.75,3.75,0,0,0,1.29,2.67c1.26,1.06,3.53,1.37,6.12-.92,1.19-1,2.39-2.13,3.64-3.28a4.89,4.89,0,0,0,1,4.13c.47.5,2.22,2,5.14-.12l.49-.35a2.77,2.77,0,0,0,2.54,1.58,5.64,5.64,0,0,0,3-1.09,89.92,89.92,0,0,0,34.27-42.23l.14-.35Z"/><path class="cls-3" d="M131.5,85.32c-.18,20.56-13.67,38.16-33.94,42.71-19.86,4.46-41-4.14-53.28-20.13C32.21,92.14,29.19,69.47,40.55,52.45,51.79,35.62,73.4,29.81,92.35,35.2c22.2,6.31,38.71,27,39.15,50.12.05,2.69,3.45.26,3.41-1.54A56.22,56.22,0,0,0,99.58,33C79.32,25,55.37,29.84,41.26,46.87c-13.7,16.53-14.57,40.32-3.8,58.61,11.36,19.29,34.21,30.8,56.48,27.08,23.84-4,40.78-24.84,41-48.77C134.94,81.11,131.52,83.54,131.5,85.32Z"/><path class="cls-4" d="M119.53,77.49a3.56,3.56,0,0,0-3.38.18c.95-1.71,1.83-3.34,2.68-4.91,1.19-2.22.6-3.48.14-4a2.92,2.92,0,0,0-2.61-.91,3.26,3.26,0,0,0-.93-3.07,2.61,2.61,0,0,0-2.09-.58,3.18,3.18,0,0,0-1-3.88,3.27,3.27,0,0,0-3.39.12,3.64,3.64,0,0,0-.1-3.83,2.58,2.58,0,0,0-2-1h-.08a4.84,4.84,0,0,0-3.33,1.69l-.37.42c.79-1.32,1.54-2.58,2.25-3.79,1.59-2.7,1-5-.41-5.85s-3.4-.45-5.11,2.18C96,56,91.93,61.75,87.61,67.38c3.08-5,6.06-10,8.91-14.84,1.27-2.18,1-5-.52-6.12-.57-.4-2.13-1.06-4.21,1.46l-7.29,8.87q2.16-3.56,4.3-7.13c1.3-2.16,1.19-4.81-.24-5.91-.56-.43-2.13-1.18-4.46,1.22-1,1.06-2.1,2.18-3.25,3.4a3.69,3.69,0,0,0-1-3.55c-.45-.37-2.11-1.37-4.6,1.08l-5.06,5c.88-1.85,1.12-4.22.12-5.37-.58-.66-1.73-1.15-4,.25A74.19,74.19,0,0,0,46.54,64.18c-1.75,2.34-1.38,4.26-.52,5.19a2.88,2.88,0,0,0,2.75.81c-1.12,1.9-2.14,3.7-3.09,5.47-1.2,2.22-.59,3.78.38,4.51s3.1.9,4.91-.88l7.16-7L50.74,83.71c-1.72,2.67-1.22,4.75,0,5.63s3.49.66,5.45-1.91C58.85,84,61.62,80.49,64.49,77c-3.5,5.73-6.84,11.15-10.1,16.44-1.45,2.36-.93,5.1.45,6.08.46.33,2.12,1.2,4.27-1.41L62,94.6c-1.45,2.11-2.89,4.18-4.32,6.22-1.63,2.32-1.26,4.66-.09,5.67,1,.82,2.7,1,4.75-.93,1.34-1.27,2.7-2.6,4.14-4-1,1.37-1.9,2.66-2.79,3.9-1.57,2.17-1.17,4.72.1,5.84a2.61,2.61,0,0,0,3.34,0,2.43,2.43,0,0,0,1.45,1.52c.78.27,2.09.24,3.89-1.47l1.13-1.08a3.93,3.93,0,0,0,.7,4.45c1,.81,2.69,1,4.67-1l2-2L80.07,113c-1.54,2.27-1.11,4.92.26,6a2.4,2.4,0,0,0,1.44.48,4.08,4.08,0,0,0,3-1.75q2-2.3,3.93-4.63a2.6,2.6,0,0,0,1.48,1.58c.6.23,1.78.39,3.36-.83a2.82,2.82,0,0,0,.3.91,2.66,2.66,0,0,0,1.86,1.43,3.5,3.5,0,0,0,2.86-.86c10.43-8.64,20.15-18.4,20.75-31.22l.3-.62c.21-.43.41-.86.61-1.29C121.33,79.63,120.6,78.09,119.53,77.49Z"/><path class="cls-3" d="M119,82.71c-.21,14.52-9.7,26.77-24.12,29.72-13.77,2.82-28.26-3.16-36.83-14.12s-10.88-27-2.89-39S78.55,43.62,91.8,47.52A38.25,38.25,0,0,1,119,82.71c.07,2.69,3.46.26,3.41-1.54A40.35,40.35,0,0,0,96.87,44.65C82.11,38.85,64.78,42.7,54.72,55.2c-22,27.37,5.81,68.07,39.16,61.24,16.79-3.44,28.3-18.35,28.54-35.26C122.46,78.49,119,80.92,119,82.71Z"/><path class="cls-3" d="M111.88,78.26c-.84-.91-2.4-1.29-3.38-1.75s-2.47,1.23-2.81,2.67L82.94,82.64l-.33-27.1.39.24c1.49.93,3.89-3.34,2.38-4.29l-3.55-2.22c-.63-.4-1.54.39-2,.95-.11.15-.21.31-.31.45a5.39,5.39,0,0,0-.69.92l-.36.61c-.64,1-1.25,2-1.8,3-.42.79-.9,2.28-.07,2.79s1.89-.78,2.32-1.49l.37-.62.36,29.46c0,.81.29,1.12.68,1.13,0,.45.26.73.76.65l26.66-4.05a5.66,5.66,0,0,0-.58,1.77c-.12.9.06,2,1.11,1.66a3.64,3.64,0,0,0,2-2.33c.12-.11.23-.23.34-.35a7.5,7.5,0,0,0,1-1.27,5.31,5.31,0,0,0,.88-3C112.62,78.84,112.49,78.25,111.88,78.26Z"/><path class="cls-3" d="M136.62,38.91c-.11-.5-.2-1-.29-1.57a9,9,0,0,0-.81-2.52,5.26,5.26,0,0,0-5.45-3.16c-1.88.07-3.82.18-5.76.3s-4.07.36-6.34.72a6.19,6.19,0,0,0-4.86,3.82c-.29.77-.57,1.52-.84,2.24a3.9,3.9,0,0,0-.33-2.29,6,6,0,0,0-2.16-2.23,18.52,18.52,0,0,0-2.54-1.47,15.68,15.68,0,0,0-2.65-1,8.84,8.84,0,0,0-1.44-.27,4.27,4.27,0,0,0-3.4,1.16,10.14,10.14,0,0,0-.9,1l-.09.11c-.54.72-1.12,1.58-1.73,2.55a30.8,30.8,0,0,0-1.67,3,5.63,5.63,0,0,0-.54,1.79,3.64,3.64,0,0,0,.63,2.45,4.36,4.36,0,0,0,1.11,1.09c-.24,1.14-.47,2.33-.7,3.56-.36,1.94-.7,3.88-1,5.76s-.54,3.63-.73,5.21-.32,2.93-.37,3.85a6,6,0,0,0,.34,2.75,4.67,4.67,0,0,0,2.09,2.3l.15.08a10.9,10.9,0,0,0,2.38.87l1.7.41a6.23,6.23,0,0,0,1.61.24,3.41,3.41,0,0,0,1.76-.45,3.92,3.92,0,0,0,1.72-2.38l.07-.28q.3-1.63.72-3.75c.07-.36.16-.75.23-1.13,0,.06,0,.13,0,.18.17,1.08.86,2.1,2.3,3.43a11.31,11.31,0,0,0,5,3.32,16.7,16.7,0,0,0,5.23.83h.26a15.62,15.62,0,0,0,4.55-.7,14.23,14.23,0,0,0,3.43-1.61A11.8,11.8,0,0,0,129.78,65a10.88,10.88,0,0,0,1.47-2.14,11.67,11.67,0,0,0,1.37-8.24,9.43,9.43,0,0,0-4.7-6A16.64,16.64,0,0,0,123.83,47v0c.26-.65.54-1.33.83-2l3.57-.43,4.69-.57a5.06,5.06,0,0,0,3-1.22A3.66,3.66,0,0,0,136.62,38.91ZM108.46,58.05A4,4,0,0,0,107,59.33l.22-1q.54-2.38,1.16-4.9c.16-.64.32-1.26.47-1.9a4.35,4.35,0,0,0,.28,1.11,5.11,5.11,0,0,0,1.72,2.16l.09.06q1,.64,1.53,1t1,.66a6,6,0,0,0,.76.53,3.74,3.74,0,0,0,1.65.51,5.4,5.4,0,0,0,1.22-.06,8.78,8.78,0,0,0,1.33-.32,8,8,0,0,1,.92-.19,6.6,6.6,0,0,1,1-.08v0a2.54,2.54,0,0,1-.17.83,4.16,4.16,0,0,1-.48,1,2.68,2.68,0,0,1-.48.5l-.14,0a1.94,1.94,0,0,1-.72-.11,7,7,0,0,1-1.77-.87,7.08,7.08,0,0,0-2-.86,8.83,8.83,0,0,0-2.06-.3,9.18,9.18,0,0,0-2.07.19A6.64,6.64,0,0,0,108.46,58.05Z"/><path class="cls-4" d="M138.23,36.74c-.11-.5-.2-1-.29-1.57a9,9,0,0,0-.81-2.52,5.26,5.26,0,0,0-5.45-3.16c-1.88.07-3.82.18-5.76.3s-4.07.36-6.34.72a6.19,6.19,0,0,0-4.86,3.82c-.29.77-.57,1.52-.84,2.24a3.9,3.9,0,0,0-.33-2.29,6,6,0,0,0-2.16-2.23,18.52,18.52,0,0,0-2.54-1.47,15.68,15.68,0,0,0-2.65-1,8.84,8.84,0,0,0-1.44-.27,4.27,4.27,0,0,0-3.4,1.16,10.14,10.14,0,0,0-.9,1l-.09.11c-.54.72-1.12,1.58-1.73,2.55a30.8,30.8,0,0,0-1.67,3,5.63,5.63,0,0,0-.54,1.79,3.64,3.64,0,0,0,.63,2.45,4.36,4.36,0,0,0,1.11,1.09c-.24,1.14-.47,2.33-.7,3.56-.36,1.94-.7,3.88-1,5.76s-.54,3.63-.73,5.21-.32,2.93-.37,3.85a6,6,0,0,0,.34,2.75,4.67,4.67,0,0,0,2.09,2.3l.15.08a10.9,10.9,0,0,0,2.38.87l1.7.41a6.23,6.23,0,0,0,1.61.24,3.41,3.41,0,0,0,1.76-.45,3.92,3.92,0,0,0,1.72-2.38l.07-.28q.3-1.63.72-3.75c.07-.36.16-.75.23-1.13,0,.06,0,.13,0,.18.17,1.08.86,2.1,2.3,3.43a11.31,11.31,0,0,0,5,3.32,16.7,16.7,0,0,0,5.23.83h.26a15.62,15.62,0,0,0,4.55-.7A14.23,14.23,0,0,0,128.91,65a11.8,11.8,0,0,0,2.48-2.16,10.88,10.88,0,0,0,1.47-2.14,11.67,11.67,0,0,0,1.37-8.24,9.43,9.43,0,0,0-4.7-6,16.64,16.64,0,0,0-4.09-1.55v0c.26-.65.54-1.33.83-2l3.57-.43,4.69-.57a5.06,5.06,0,0,0,3-1.22A3.66,3.66,0,0,0,138.23,36.74ZM110.07,55.88a4,4,0,0,0-1.43,1.28l.22-1q.54-2.38,1.16-4.9c.16-.64.32-1.26.47-1.9a4.35,4.35,0,0,0,.28,1.11,5.11,5.11,0,0,0,1.72,2.16l.09.06q1,.64,1.53,1t1,.66a6,6,0,0,0,.76.53,3.74,3.74,0,0,0,1.65.51,5.4,5.4,0,0,0,1.22-.06,8.78,8.78,0,0,0,1.33-.32,8,8,0,0,1,.92-.19,6.6,6.6,0,0,1,1-.08v0a2.54,2.54,0,0,1-.17.83,4.16,4.16,0,0,1-.48,1,2.68,2.68,0,0,1-.48.5l-.14,0A1.94,1.94,0,0,1,120,57a7,7,0,0,1-1.77-.87,7.08,7.08,0,0,0-2-.86,8.83,8.83,0,0,0-2.06-.3,9.18,9.18,0,0,0-2.07.19A6.64,6.64,0,0,0,110.07,55.88Z"/><path class="cls-5" d="M109.88,41q-.62,2.22-1.24,4.66t-1.24,5q-.62,2.54-1.17,4.95t-1,4.55q-.43,2.14-.73,3.8a1.36,1.36,0,0,1-.51.83,2,2,0,0,1-1.3-.07l-1.79-.43a8.14,8.14,0,0,1-1.79-.66,2.06,2.06,0,0,1-.94-1,3.52,3.52,0,0,1-.15-1.54q.08-1.39.36-3.74t.71-5.11q.43-2.76,1-5.68t1.11-5.43q-.75-.38-1.24-.66a2.1,2.1,0,0,1-.7-.58,1,1,0,0,1-.17-.66,3,3,0,0,1,.3-.92,27.65,27.65,0,0,1,1.5-2.69q.86-1.37,1.62-2.39a7.55,7.55,0,0,1,.66-.71,1.59,1.59,0,0,1,1.33-.45,6.06,6.06,0,0,1,1,.19,12.9,12.9,0,0,1,2.2.81,15.65,15.65,0,0,1,2.16,1.26,3.7,3.7,0,0,1,1.28,1.2A1.91,1.91,0,0,1,111,37Q110.5,38.76,109.88,41Z"/><path class="cls-5" d="M122.95,43.81q-.68,1.71-1.2,3.29a13.57,13.57,0,0,1,6.51,1.66,6.76,6.76,0,0,1,3.36,4.32,9.07,9.07,0,0,1-1.15,6.36,8.37,8.37,0,0,1-1.13,1.64,9.07,9.07,0,0,1-1.92,1.66,11.51,11.51,0,0,1-2.78,1.3,12.91,12.91,0,0,1-3.76.56,14,14,0,0,1-4.61-.7,8.65,8.65,0,0,1-3.89-2.65q-1.54-1.39-1.58-2t.56-1a4.12,4.12,0,0,1,1.3-.49,6.49,6.49,0,0,1,1.47-.13,6.1,6.1,0,0,1,1.43.21,4.39,4.39,0,0,1,1.22.53,9.81,9.81,0,0,0,2.5,1.2,4.38,4.38,0,0,0,1.88.17,2.89,2.89,0,0,0,1.37-.58,5.41,5.41,0,0,0,1-1,6.86,6.86,0,0,0,.84-1.65,5.17,5.17,0,0,0,.32-1.73,4.31,4.31,0,0,0-.17-1.5,3.57,3.57,0,0,0-.39-.9,2.38,2.38,0,0,0-.83-.23A9.72,9.72,0,0,0,122,52a9.22,9.22,0,0,0-1.43.11,10.37,10.37,0,0,0-1.24.26,6.89,6.89,0,0,1-1,.24,3,3,0,0,1-.64,0,1.08,1.08,0,0,1-.49-.15,3.33,3.33,0,0,1-.49-.36q-.71-.49-1.24-.81t-1.43-.92a2.43,2.43,0,0,1-.83-1,2.8,2.8,0,0,1,0-1.71q.52-2.41,1.52-5.49t2.46-6.92a3.57,3.57,0,0,1,2.86-2.14q3.12-.49,6-.68t5.7-.3a2.62,2.62,0,0,1,2.89,1.58,6.34,6.34,0,0,1,.6,1.84q.15.94.34,1.81t0,1.28a2.74,2.74,0,0,1-1.43.45l-4.66.56-5.08.6Q123.62,42.1,122.95,43.81Z"/><path class="cls-2" d="M135.75,244.13c-.13-.37-.25-.74-.35-1.12h0a65.16,65.16,0,0,1-1.59-7.44l-.21-1.27-.35.15c.07-.18.14-.37.2-.55l.07-.22,0-.23c-.17-1.16-.32-2.33-.47-3.51l0-.33-.24-.24a3.41,3.41,0,0,0-2.21-1l2-2.56,0-.41c-.05-.46-.11-.92-.17-1.38l0-.24c-.06-.28-.13-.62-.23-1.05-.32-1.39-.68-2.76-1-4.08l-.12-.43-.78-1.32-.06-.09-.16-.21-.72-.87-1.87-2.14-1.35-1.54a27.42,27.42,0,0,1-2.71-3.71l-.59-1-.89.71a8.76,8.76,0,0,0-1.4,1.4q-4.72,5.91-9.5,11.76l-.89,1.09L108.48,224q6-8.31,11.57-16.59a6.94,6.94,0,0,0,1.14-3.07l0-.23-.08-.22a22.58,22.58,0,0,1-.89-3.1l-.06-.3-.22-.21a3.16,3.16,0,0,0-2.32-.91,5.24,5.24,0,0,0-3.66,2.13l-.16.18a3.5,3.5,0,0,0-1.36-2.46c-1.68-1.25-4.62-.92-7,2.12l-8.71,11c-1.19,1.36-2.44,2.74-3.77,4.16l11.5-14.81c2.12-2.72,1.73-5.54.26-6.92a3.51,3.51,0,0,0-2.92-.87,4.28,4.28,0,0,0-.37-4.31,3.35,3.35,0,0,0-2.53-1.34,6.08,6.08,0,0,0-4.3,2.07l-.08.09a4.38,4.38,0,0,0-.24-3.32,3.51,3.51,0,0,0-2.46-1.87,4.39,4.39,0,0,0-3.61,1.09c-5,4.23-10,8.6-15,13.05L80,190.69c1.66-2.16,1.62-5.85-.08-7.46-.48-.45-2.24-1.75-4.89.54s-5.35,4.68-8.05,7.13a5.28,5.28,0,0,0-.69-4.42c-.63-.73-3.14,1.33-6.08,3.24C49.53,196.61,41.84,202.45,33.38,213c-.94,1.17-2.75,3.32-2.48,5.15a3.45,3.45,0,0,0,1.46,2.43,3.32,3.32,0,0,0,1.85.59c-1.89,2.76-1.73,5.52-3.5,8.26s-3.51,5.94-1.6,7.41c.6.46,2.79,1.71,5.67-1.5L36,234l-5.29,6.88c-2.08,2.71-1.64,5.77,0,7.17,1.11,1,3.09,1.32,5.25-.46h0c-2.27,2.67-2.68,6.54-.88,8.29a3,3,0,0,0,3.13.62l-.3.33c-2.54,2.82-2.44,6.89-.66,8.52.57.52,2.67,2,5.75-1.39q7.09-7.72,14.52-15.49l-12,15.39c-2.06,2.65-1.55,6,.22,7.37,1.27,1,3.5,1.27,5.68-1.26a4.71,4.71,0,0,0,.75,5.49,3.66,3.66,0,0,0,4,.52,5,5,0,0,0,.81,4.9,3.1,3.1,0,0,0,3.06.76l-.56.7,1.76.23a15.34,15.34,0,0,1,2.8.59l.3.12.88.36c.87.35,1.81.73,2.72,1.11l.64.27.92-1a4.09,4.09,0,0,0,.42,1.41l.14.27.27.15a17.32,17.32,0,0,1,2,1.27l.24.18.3,0a5.68,5.68,0,0,0,4.06-1.71l1.3-1.18a3.75,3.75,0,0,0,1.29,2.67c1.26,1.06,3.53,1.37,6.12-.92,1.19-1,2.39-2.13,3.64-3.28a4.89,4.89,0,0,0,1,4.13c.47.5,2.22,2,5.14-.12l.49-.35a2.77,2.77,0,0,0,2.54,1.58,5.64,5.64,0,0,0,3-1.09,89.92,89.92,0,0,0,34.27-42.23l.14-.35Z"/><path class="cls-3" d="M131.5,241.07a44.33,44.33,0,0,1-34.94,42.71c-19.86,4.46-40-4.14-52.28-20.13-12.07-15.76-15.09-38.43-3.73-55.45C51.79,191.37,73.4,185.56,92.35,191c22.2,6.31,38.71,27,39.15,50.12.05,2.69,3.45.26,3.41-1.54A56.22,56.22,0,0,0,99.58,188.8c-20.27-8.08-44.21-1.21-58.32,15.82-13.7,16.53-14.57,38.32-3.8,56.61C48.82,280.51,69.66,292,91.93,288.3c23.84-4,42.78-24.84,43-48.77C134.94,236.85,131.52,239.29,131.5,241.07Z"/><path class="cls-4" d="M119.53,233.24a3.56,3.56,0,0,0-3.38.18c.95-1.71,1.83-3.34,2.68-4.91,1.19-2.22.6-3.48.14-4a2.92,2.92,0,0,0-2.61-.91,3.26,3.26,0,0,0-.93-3.07,2.61,2.61,0,0,0-2.09-.58,3.18,3.18,0,0,0-1-3.88,3.27,3.27,0,0,0-3.39.12,3.64,3.64,0,0,0-.1-3.83,2.58,2.58,0,0,0-2-1h-.08a4.84,4.84,0,0,0-3.33,1.69l-.37.42c.79-1.32,1.54-2.58,2.25-3.79,1.59-2.7,1-5-.41-5.85s-3.4-.45-5.11,2.18c-3.77,5.8-7.85,11.56-12.17,17.19,3.08-5,6.06-10,8.91-14.84,1.27-2.18,1-5-.52-6.12-.57-.4-2.13-1.06-4.21,1.46l-7.29,8.87q2.16-3.56,4.3-7.13c1.3-2.16,1.19-4.81-.24-5.91-.56-.43-2.13-1.18-4.46,1.22-1,1.06-2.1,2.18-3.25,3.4a3.69,3.69,0,0,0-1-3.55c-.45-.37-2.11-1.37-4.6,1.08l-5.06,5c.88-1.85,1.12-4.22.12-5.37-.58-.66-1.73-1.15-4,.25a74.19,74.19,0,0,0-19.85,18.49c-1.75,2.34-1.38,4.26-.52,5.19a2.88,2.88,0,0,0,2.75.81c-1.12,1.9-2.14,3.7-3.09,5.47-1.2,2.22-.59,3.78.38,4.51s3.1.9,4.91-.88l7.16-7-7.38,11.46c-1.72,2.67-1.22,4.75,0,5.63s3.49.66,5.45-1.91c2.63-3.44,5.39-6.93,8.26-10.43-3.5,5.73-6.84,11.15-10.1,16.44-1.45,2.36-.93,5.1.45,6.08.46.33,2.12,1.2,4.27-1.41L62,250.34c-1.45,2.11-2.89,4.18-4.32,6.22-1.63,2.32-1.26,4.66-.09,5.67,1,.82,2.7,1,4.75-.93,1.34-1.27,2.7-2.6,4.14-4-1,1.37-1.9,2.66-2.79,3.9-1.57,2.17-1.17,4.72.1,5.84a2.61,2.61,0,0,0,3.34,0,2.43,2.43,0,0,0,1.45,1.52c.78.27,2.09.24,3.89-1.47L73.59,266a3.93,3.93,0,0,0,.7,4.45c1,.81,2.69,1,4.67-1l2-2-.87,1.29c-1.54,2.27-1.11,4.92.26,6,.23.17.73,3.48,1.44,3.48s-1.18-5.38,0-6.75c1.32-1.54,5.63-1.08,6.93-2.63a2.6,2.6,0,0,0,1.48,1.58c.6.23,1.78.39,3.36-.83a2.82,2.82,0,0,0,.3.91,2.66,2.66,0,0,0,1.86,1.43,3.5,3.5,0,0,0,2.86-.86c10.43-8.64,20.15-18.4,20.75-31.22l.3-.62c.21-.43.41-.86.61-1.29C121.33,235.38,120.6,233.84,119.53,233.24Z"/><path class="cls-3" d="M96.87,200.4c-14.77-5.79-32.09.05-42.15,12.55-22,27.37,3.81,66.07,37.16,59.24,16.79-3.44,29.3-18.35,29.54-35.26C121,220.77,112,206.32,96.87,200.4Zm-2,67.78C81.12,271,66.63,265,58.06,254.05s-10.88-27-2.89-39,23.38-15.65,36.63-11.75A38.25,38.25,0,0,1,119,238.45C118.8,253,109.31,265.22,94.89,268.17Z"/><path class="cls-3" d="M111.88,234c-.84-.91-2.4-1.29-3.38-1.75s-1.47,1.23-1.81,2.67c-7.58,1.15-16.16,2.3-23.74,3.46l-.33-27.1.39.24c1.49.93,3.89-3.34,2.38-4.29L81.83,205c-.63-.4-1.54.39-2,.95-.11.15-.21.31-.31.45a5.39,5.39,0,0,0-.69.92l-.36.61c-.64,1-1.25,2-1.8,3-.42.79-.9,2.28-.07,2.79s1.89-.78,2.32-1.49l.37-.62c.12,9.82-.16,20.45,0,30.27,0,.81.69.31,1.07.32,0,.45.26.73.76.65l26.66-4.05a5.66,5.66,0,0,0-.58,1.77c-.12.9.06,2,1.11,1.66a3.64,3.64,0,0,0,2-2.33c.12-.11.23-.23.34-.35a7.5,7.5,0,0,0,1-1.27,5.31,5.31,0,0,0,.88-3C112.62,234.58,112.49,234,111.88,234Z"/><path class="cls-3" d="M136.62,194.66c-.11-.5-.2-1-.29-1.57a9,9,0,0,0-.81-2.52,5.26,5.26,0,0,0-5.45-3.16c-1.88.07-3.82.18-5.76.3s-4.07.36-6.34.72a6.19,6.19,0,0,0-4.86,3.82c-.29.77-.57,1.52-.84,2.24a3.9,3.9,0,0,0-.33-2.29,6,6,0,0,0-2.16-2.23,18.52,18.52,0,0,0-2.54-1.47,15.68,15.68,0,0,0-2.65-1,8.84,8.84,0,0,0-1.44-.27,4.27,4.27,0,0,0-3.4,1.16,10.14,10.14,0,0,0-.9,1l-.09.11c-.54.72-1.12,1.58-1.73,2.55a30.8,30.8,0,0,0-1.67,3,5.63,5.63,0,0,0-.54,1.79,3.64,3.64,0,0,0,.63,2.45,4.36,4.36,0,0,0,1.11,1.09c-.24,1.14-.47,2.33-.7,3.56-.36,1.94-.7,3.88-1,5.76s-.54,3.63-.73,5.21-.32,2.93-.37,3.85a6,6,0,0,0,.34,2.75,4.67,4.67,0,0,0,2.09,2.3l.15.08a10.9,10.9,0,0,0,2.38.87l1.7.41a6.23,6.23,0,0,0,1.61.24,3.41,3.41,0,0,0,1.76-.45,3.92,3.92,0,0,0,1.72-2.38l.07-.28q.3-1.63.72-3.75c.07-.36.16-.75.23-1.13,0,.06,0,.13,0,.18.17,1.08.86,2.1,2.3,3.43a11.31,11.31,0,0,0,5,3.32,16.7,16.7,0,0,0,5.23.83h.26a15.62,15.62,0,0,0,4.55-.7,14.23,14.23,0,0,0,3.43-1.61,11.8,11.8,0,0,0,2.48-2.16,10.88,10.88,0,0,0,1.47-2.14,11.67,11.67,0,0,0,1.37-8.24,9.43,9.43,0,0,0-4.7-6,16.64,16.64,0,0,0-4.09-1.55v0c.26-.65.54-1.33.83-2l3.57-.43,4.69-.57a5.06,5.06,0,0,0,3-1.22A3.66,3.66,0,0,0,136.62,194.66ZM108.46,213.8a4,4,0,0,0-1.43,1.28l.22-1q.54-2.38,1.16-4.9c.16-.64.32-1.26.47-1.9a4.35,4.35,0,0,0,.28,1.11,5.11,5.11,0,0,0,1.72,2.16l.09.06q1,.64,1.53,1t1,.66a6,6,0,0,0,.76.53,3.74,3.74,0,0,0,1.65.51,5.4,5.4,0,0,0,1.22-.06,8.78,8.78,0,0,0,1.33-.32,8,8,0,0,1,.92-.19,6.6,6.6,0,0,1,1-.08v0a2.54,2.54,0,0,1-.17.83,4.16,4.16,0,0,1-.48,1,2.68,2.68,0,0,1-.48.5l-.14,0a1.94,1.94,0,0,1-.72-.11,7,7,0,0,1-1.77-.87,7.08,7.08,0,0,0-2-.86,8.83,8.83,0,0,0-2.06-.3,9.18,9.18,0,0,0-2.07.19A6.64,6.64,0,0,0,108.46,213.8Z"/><path class="cls-4" d="M138.23,192.49c-.11-.5-.2-1-.29-1.57a9,9,0,0,0-.81-2.52,5.26,5.26,0,0,0-5.45-3.16c-1.88.07-3.82.18-5.76.3s-4.07.36-6.34.72a6.19,6.19,0,0,0-4.86,3.82c-.29.77-.57,1.52-.84,2.24a3.9,3.9,0,0,0-.33-2.29,6,6,0,0,0-2.16-2.23,18.52,18.52,0,0,0-2.54-1.47,15.68,15.68,0,0,0-2.65-1,8.84,8.84,0,0,0-1.44-.27,4.27,4.27,0,0,0-3.4,1.16,10.14,10.14,0,0,0-.9,1l-.09.11c-.54.72-1.12,1.58-1.73,2.55a30.8,30.8,0,0,0-1.67,3,5.63,5.63,0,0,0-.54,1.79,3.64,3.64,0,0,0,.63,2.45,4.36,4.36,0,0,0,1.11,1.09c-.24,1.14-.47,2.33-.7,3.56-.36,1.94-.7,3.88-1,5.76s-.54,3.63-.73,5.21-.32,2.93-.37,3.85a6,6,0,0,0,.34,2.75,4.67,4.67,0,0,0,2.09,2.3l.15.08a10.9,10.9,0,0,0,2.38.87l1.7.41a6.23,6.23,0,0,0,1.61.24,3.41,3.41,0,0,0,1.76-.45,3.92,3.92,0,0,0,1.72-2.38l.07-.28q.3-1.63.72-3.75c.07-.36.16-.75.23-1.13,0,.06,0,.13,0,.18.17,1.08.86,2.1,2.3,3.43a11.31,11.31,0,0,0,5,3.32,16.7,16.7,0,0,0,5.23.83h.26a15.62,15.62,0,0,0,4.55-.7,14.23,14.23,0,0,0,3.43-1.61,11.8,11.8,0,0,0,2.48-2.16,10.88,10.88,0,0,0,1.47-2.14,11.67,11.67,0,0,0,1.37-8.24,9.43,9.43,0,0,0-4.7-6,16.64,16.64,0,0,0-4.09-1.55v0c.26-.65.54-1.33.83-2l3.57-.43,4.69-.57a5.06,5.06,0,0,0,3-1.22A3.66,3.66,0,0,0,138.23,192.49Zm-28.16,19.14a4,4,0,0,0-1.43,1.28l.22-1q.54-2.38,1.16-4.9c.16-.64.32-1.26.47-1.9a4.35,4.35,0,0,0,.28,1.11,5.11,5.11,0,0,0,1.72,2.16l.09.06q1,.64,1.53,1t1,.66a6,6,0,0,0,.76.53,3.74,3.74,0,0,0,1.65.51,5.4,5.4,0,0,0,1.22-.06,8.78,8.78,0,0,0,1.33-.32,8,8,0,0,1,.92-.19,6.6,6.6,0,0,1,1-.08v0a2.54,2.54,0,0,1-.17.83,4.16,4.16,0,0,1-.48,1,2.68,2.68,0,0,1-.48.5l-.14,0a1.94,1.94,0,0,1-.72-.11,7,7,0,0,1-1.77-.87,7.08,7.08,0,0,0-2-.86,8.83,8.83,0,0,0-2.06-.3,9.18,9.18,0,0,0-2.07.19A6.64,6.64,0,0,0,110.07,211.63Z"/><path class="cls-5" d="M109.88,196.72q-.62,2.22-1.24,4.66t-1.24,5q-.62,2.54-1.17,4.95t-1,4.55q-.43,2.14-.73,3.8a1.36,1.36,0,0,1-.51.83,2,2,0,0,1-1.3-.07l-1.79-.43a8.14,8.14,0,0,1-1.79-.66,2.06,2.06,0,0,1-.94-1,3.52,3.52,0,0,1-.15-1.54q.08-1.39.36-3.74t.71-5.11q.43-2.76,1-5.68t1.11-5.43q-.75-.38-1.24-.66a2.1,2.1,0,0,1-.7-.58,1,1,0,0,1-.17-.66,3,3,0,0,1,.3-.92,27.65,27.65,0,0,1,1.5-2.69q.86-1.37,1.62-2.39a7.55,7.55,0,0,1,.66-.71,1.59,1.59,0,0,1,1.33-.45,6.06,6.06,0,0,1,1,.19,12.9,12.9,0,0,1,2.2.81,15.65,15.65,0,0,1,2.16,1.26,3.7,3.7,0,0,1,1.28,1.2,1.91,1.91,0,0,1-.11,1.5Q110.5,194.51,109.88,196.72Z"/><path class="cls-5" d="M122.95,199.56q-.68,1.71-1.2,3.29a13.57,13.57,0,0,1,6.51,1.66,6.76,6.76,0,0,1,3.36,4.32,9.07,9.07,0,0,1-1.15,6.36,8.37,8.37,0,0,1-1.13,1.64,9.07,9.07,0,0,1-1.92,1.66,11.51,11.51,0,0,1-2.78,1.3,12.91,12.91,0,0,1-3.76.56,14,14,0,0,1-4.61-.7,8.65,8.65,0,0,1-3.89-2.65q-1.54-1.39-1.58-2t.56-1a4.12,4.12,0,0,1,1.3-.49,6.49,6.49,0,0,1,1.47-.13,6.1,6.1,0,0,1,1.43.21,4.39,4.39,0,0,1,1.22.53,9.81,9.81,0,0,0,2.5,1.2,4.38,4.38,0,0,0,1.88.17,2.89,2.89,0,0,0,1.37-.58,5.41,5.41,0,0,0,1-1,6.86,6.86,0,0,0,.84-1.65,5.17,5.17,0,0,0,.32-1.73,4.31,4.31,0,0,0-.17-1.5,3.57,3.57,0,0,0-.39-.9,2.38,2.38,0,0,0-.83-.23,9.72,9.72,0,0,0-1.28-.08,9.22,9.22,0,0,0-1.43.11,10.37,10.37,0,0,0-1.24.26,6.89,6.89,0,0,1-1,.24,3,3,0,0,1-.64,0,1.08,1.08,0,0,1-.49-.15,3.33,3.33,0,0,1-.49-.36q-.71-.49-1.24-.81t-1.43-.92a2.43,2.43,0,0,1-.83-1,2.8,2.8,0,0,1,0-1.71q.52-2.41,1.52-5.49t2.46-6.92a3.57,3.57,0,0,1,2.86-2.14q3.12-.49,6-.68t5.7-.3a2.62,2.62,0,0,1,2.89,1.58,6.34,6.34,0,0,1,.6,1.84q.15.94.34,1.81t0,1.28a2.74,2.74,0,0,1-1.43.45l-4.66.56-5.08.6Q123.62,197.85,122.95,199.56Z"/><path class="cls-2" d="M135.75,400.13c-.13-.37-.25-.74-.35-1.12h0a65.16,65.16,0,0,1-1.59-7.44l-.21-1.27-.35.15c.07-.18.14-.37.2-.55l.07-.22,0-.23c-.17-1.16-.32-2.33-.47-3.51l0-.33-.24-.24a3.41,3.41,0,0,0-2.21-1l2-2.56,0-.41c-.05-.46-.11-.92-.17-1.38l0-.24c-.06-.28-.13-.62-.23-1.05-.32-1.39-.68-2.76-1-4.08l-.12-.43-.78-1.32-.06-.09-.16-.21-.72-.87-1.87-2.14-1.35-1.54a27.42,27.42,0,0,1-2.71-3.71l-.59-1-.89.71a8.76,8.76,0,0,0-1.4,1.4q-4.72,5.91-9.5,11.76l-.89,1.09L108.48,380q6-8.31,11.57-16.59a6.94,6.94,0,0,0,1.14-3.07l0-.23-.08-.22a22.58,22.58,0,0,1-.89-3.1l-.06-.3-.22-.21a3.16,3.16,0,0,0-2.32-.91,5.24,5.24,0,0,0-3.66,2.13l-.16.18a3.5,3.5,0,0,0-1.36-2.46c-1.68-1.25-4.62-.92-7,2.12l-8.71,11c-1.19,1.36-2.44,2.74-3.77,4.16l11.5-14.81c2.12-2.72,1.73-5.54.26-6.92a3.51,3.51,0,0,0-2.92-.87,4.28,4.28,0,0,0-.37-4.31,3.35,3.35,0,0,0-2.53-1.34,6.08,6.08,0,0,0-4.3,2.07l-.08.09a4.38,4.38,0,0,0-.24-3.32,3.51,3.51,0,0,0-2.46-1.87,4.39,4.39,0,0,0-3.61,1.09c-5,4.23-10,8.6-15,13.05L82,345.69c1.66-2.16-.38-4.85-2.08-6.46-.48-.45-2.24-1.75-4.89.54s-5.35,4.68-8.05,7.13a5.28,5.28,0,0,0-.69-4.42c-.63-.73-2.14-1.67-5.08.24A122.51,122.51,0,0,0,32.38,369a7.31,7.31,0,0,0-1.48,5.15,3.45,3.45,0,0,0,1.46,2.43,3.32,3.32,0,0,0,1.85.59c-1.89,2.76-3.73,5.52-5.5,8.26s-1.51,5.94.4,7.41c.6.46,2.79,1.71,5.67-1.5L36,390l-5.29,6.88c-2.08,2.71-1.64,5.77,0,7.17,1.11,1,3.09,1.32,5.25-.46h0c-2.27,2.67-2.68,6.54-.88,8.29a3,3,0,0,0,3.13.63l-.3.33c-2.54,2.82-2.44,6.89-.66,8.52.57.52,2.67,2,5.75-1.39q7.09-7.72,14.52-15.49l-13,15.39c-2.06,2.65-.55,6,1.22,7.37,1.27,1,3.5,1.27,5.68-1.26a4.71,4.71,0,0,0,.75,5.49,3.66,3.66,0,0,0,4,.52,5,5,0,0,0,.81,4.9,3.1,3.1,0,0,0,3.06.76l-.56.7,1.76.23a15.34,15.34,0,0,1,2.8.59l.3.12.88.36c.87.35,1.81.73,2.72,1.11l.64.27.92-1a4.09,4.09,0,0,0,.42,1.41l.14.27.27.15a17.32,17.32,0,0,1,2,1.27l.24.18.3,0a5.68,5.68,0,0,0,4.06-1.71l1.3-1.18a3.75,3.75,0,0,0,1.29,2.67c1.26,1.06,3.53,1.37,6.12-.92,1.19-1,2.39-2.13,3.64-3.28a4.89,4.89,0,0,0,1,4.13c.47.5,2.22,2,5.14-.12l.49-.35a2.77,2.77,0,0,0,2.54,1.58,9,9,0,0,0,4-1.09c15.39-10.06,26.24-24.67,33.27-42.23l.14-.35Z"/><path class="cls-3" d="M131.5,397.07c-.18,20.56-13.67,38.16-33.94,42.71-19.86,4.46-40-2.14-52.28-18.13-12.07-15.76-16.09-40.43-4.73-57.45C51.79,347.37,73.4,340.56,92.35,346c22.2,6.31,38.71,28,39.15,51.12.05,2.69,3.45.26,3.41-1.54A56.22,56.22,0,0,0,99.58,344.8c-20.27-8.08-44.21-4.21-58.32,12.82-13.7,16.53-14.57,40.32-3.8,58.61C48.82,435.51,71.66,448,93.93,444.3c23.84-4,40.78-24.84,41-48.77C134.94,392.86,131.52,395.29,131.5,397.07Z"/><path class="cls-4" d="M119.53,389.24a3.56,3.56,0,0,0-3.38.18c.95-1.71,1.83-3.34,2.68-4.91,1.19-2.22.6-3.48.14-4a2.92,2.92,0,0,0-2.61-.91,3.26,3.26,0,0,0-.93-3.07,2.61,2.61,0,0,0-2.09-.58,3.18,3.18,0,0,0-1-3.88,3.27,3.27,0,0,0-3.39.12,3.64,3.64,0,0,0-.1-3.83,2.58,2.58,0,0,0-2-1h-.08a4.84,4.84,0,0,0-3.33,1.69l-.37.42c.79-1.32,1.54-2.58,2.25-3.79,1.59-2.7,1-5-.41-5.85s-3.4-.45-5.11,2.18c-3.77,5.8-7.85,11.56-12.17,17.19,3.08-5,6.06-10,8.91-14.84,1.27-2.18,1-5-.52-6.12-.57-.4-2.13-1.06-4.21,1.46l-7.29,8.87q2.16-3.56,4.3-7.13c1.3-2.16,1.19-4.81-.24-5.91-.56-.43-2.13-1.18-4.46,1.22-1,1.06-2.1,2.18-3.25,3.4a3.69,3.69,0,0,0-1-3.55c-.45-.37-2.11-1.37-4.6,1.08l-5.06,5c.88-1.85,1.12-4.22.12-5.37-.58-.66-1.73-1.15-4,.25a74.19,74.19,0,0,0-19.85,18.49c-1.75,2.34-1.38,4.26-.52,5.19a2.88,2.88,0,0,0,2.75.81c-1.12,1.9-2.14,3.7-3.09,5.47-1.2,2.22-.59,3.78.38,4.51s3.1.9,4.91-.88l7.16-7-7.38,11.46c-1.72,2.67-1.22,4.75,0,5.63s3.49.66,5.45-1.91c2.63-3.44,5.39-6.93,8.26-10.43-3.5,5.73-6.84,11.15-10.1,16.44-1.45,2.36-.93,5.1.45,6.08.46.33,2.12,1.2,4.27-1.41L62,406.35c-1.45,2.11-2.89,4.18-4.32,6.22-1.63,2.32-1.26,4.66-.09,5.67,1,.82,2.7,1,4.75-.93,1.34-1.27,2.7-2.6,4.14-4-1,1.37-1.9,2.66-2.79,3.9-1.57,2.17-1.17,4.72.1,5.84a2.61,2.61,0,0,0,3.34,0,2.43,2.43,0,0,0,1.45,1.52c.78.27,2.09.24,3.89-1.47L73.59,422a3.93,3.93,0,0,0,.7,4.45c1,.81,2.69,1,4.67-1l2-2-.87,1.29c-1.54,2.27-1.11,4.92.26,6a2.4,2.4,0,0,0,1.44.48c.79,0,.82-.38,2-1.75q2-2.3,3.93-4.63c.28.75,1.8,1.31,2.48,1.58s1.78.39,3.36-.83a2.82,2.82,0,0,0,.3.91,2.66,2.66,0,0,0,1.86,1.43,3.5,3.5,0,0,0,2.86-.86c10.43-8.64,20.15-18.4,20.75-31.22l.3-.62c.21-.43.41-.86.61-1.29C121.33,391.38,120.6,389.84,119.53,389.24Z"/><path class="cls-3" d="M119,394.46c-.21,14.52-9.7,26.77-24.12,29.72C81.12,427,66.63,422,58.06,411.05s-10.88-28-2.89-40,23.38-15.65,36.63-11.75A38.25,38.25,0,0,1,119,394.46c.07,2.69,3.46.26,3.41-1.54-.4-16.15-11.46-29.6-26.55-35.52-14.77-5.79-32.09-2.95-42.15,9.55-22,27.37,6.81,68.07,40.16,61.24,16.79-3.44,28.3-18.35,28.54-35.26C122.46,390.24,119,392.67,119,394.46Z"/><path class="cls-3" d="M111.88,390c-.84-.91-2.4-1.29-3.38-1.75s-1.47,1.23-1.81,2.67c-7.58,1.15-16.16,2.3-23.74,3.46l-.33-27.1.39.24c1.49.93,3.89-3.34,2.38-4.29L81.83,361c-.63-.4-1.54.39-2,.95-.11.15-.21.31-.31.45a5.39,5.39,0,0,0-.69.92l-.36.61c-.64,1-1.25,2-1.8,3-.42.79-.9,2.28-.07,2.79s1.89-.78,2.32-1.49c.12-.21.25.59.37.38.12,9.82.24,18.64.36,28.46,0,.81.29,1.12.68,1.13,0,.45.26,1.73.76,1.65,8.89-1.35,17.78-3.7,26.66-5.05a5.66,5.66,0,0,0-.58,1.77c-.12.9.06,2,1.11,1.66a3.64,3.64,0,0,0,2-2.33c.12-.11.23-.23.34-.35a7.5,7.5,0,0,0,1-1.27,5.31,5.31,0,0,0,.88-3C112.62,390.59,112.49,390,111.88,390Z"/><path class="cls-3" d="M136.62,350.66c-.54-2.53-.93-5.41-3.52-6.69s-6.11-.44-8.79-.25-5.87.15-8.24,1.36-3,3.18-3.79,5.43c.44-3.36-3.26-5.32-5.9-6.37-2.92-1.16-5.52-1.23-7.61,1.38-1.59,2-4.3,5.52-3.93,8.19a6.21,6.21,0,0,0,.86,1.88,3.31,3.31,0,0,0,.86.8q-.14.65-.27,1.31c-.15,1.71-.67,3.46-1,5.16-.56,3.27-1.07,6.55-1.4,9.85-.27,2.76-.47,5.51,2.25,7.12,1.93,1.14,6.9,2.38,8.87.94s1-5.11,1.46-7.32c.56,3.5,4,6.33,7.15,7.18,4.32,1.18,10.28.63,14-2s5.92-7.45,5-11.87-4.69-7-8.87-8c.73-2,1-2.06,3.1-2.31,1.7-.2,3.4-.4,5.1-.62C135,355.45,137.62,354.17,136.62,350.66ZM108.46,369.8a4.11,4.11,0,0,0-1.43,1.28c.58-2.61,1.21-5.2,1.85-7.79.31,2.29,2.1,3.32,3.86,4.46a6.72,6.72,0,0,0,3.48,1.55c1.42.07,2.74-.65,4.17-.65-.27,2.52-1.49,2.52-3.36,1.59C114.34,368.92,111.24,368.14,108.46,369.8Z"/><path class="cls-4" d="M138.23,348.49c-.54-2.53-.93-5.41-3.52-6.69s-6.11-.44-8.79-.25-5.87.15-8.24,1.36-3,3.18-3.79,5.43c.44-3.36-3.26-5.32-5.9-6.37-2.92-1.16-5.52-1.23-7.61,1.38-1.59,2-4.3,5.52-3.93,8.19a6.21,6.21,0,0,0,.86,1.88,3.31,3.31,0,0,0,.86.8q-.14.65-.27,1.31c-.15,1.71-.67,3.46-1,5.16-.56,3.27-1.07,6.55-1.4,9.85-.27,2.76-1.47,5.51,1.25,7.12,1.93,1.14,6.9,2.38,8.87.94s2-5.11,2.46-7.32c.61,3.82,5.6,7.66,9,8.39,4.1.88,8.13-.56,11.77-2.94s7.15-7.25,6.49-11.7c-.7-4.64-5.63-7.42-10-8.44.73-2,1-2.06,3.1-2.31,1.7-.2,3.4-.4,5.1-.62C136.62,353.27,139.23,352,138.23,348.49Zm-28.16,19.14a4.11,4.11,0,0,0-1.43,1.28c.58-2.61,1.21-5.2,1.85-7.79.31,2.29,2.1,3.32,3.86,4.46a6.72,6.72,0,0,0,3.48,1.55c1.42.07,2.74-.65,4.17-.65-.27,2.52-1.49,2.52-3.36,1.59C116,366.74,112.85,366,110.07,367.63Z"/><path class="cls-5" d="M110.28,352.91c-1.47,5.25-2.2,10.5-3.37,15.82-.44,2-.75,4.07-1.24,6.07s-2,1.85-3.86,1.39-3.51-.78-3.76-3a22.77,22.77,0,0,1,.48-5.13c.52-4.09,1.22-8.15,2-12.19.11-.55.89-2.62.65-3.08s-1.32-.51-1.66-.94c-.93-1.2.14-2.51.81-3.66s1.81-3.6,3.13-4.2,3,.15,4.21.73c1,.46,3.53,1.54,3.84,2.65S110.62,351.71,110.28,352.91Z"/><path class="cls-5" d="M122.95,355.56c-.43,1.09-.83,2.18-1.2,3.29,4.33,0,9.66,2.14,10,7.05a9.88,9.88,0,0,1-6.36,9.59,12.14,12.14,0,0,1-13-2.5c-1.11-1.11-2.49-2.41-.41-3.3s4,.07,5.82,1,3.74,1.27,5.26-.27c1.16-1.17,2.49-4.42,1.25-6-.83-1-2.85-.7-4.06-.48-2.09.37-2.62.56-4.46-.65s-2.83-1.67-2.54-3.85a38.52,38.52,0,0,1,2-7.08c.65-1.91,1.16-4.71,2.51-6.24,1.55-1.75,4.69-1.61,6.83-1.8,2.36-.21,6-1,8.33-.3a3.18,3.18,0,0,1,2.09,2.38c.25.75,1,2.85.71,3.54-.56,1.57-4.84,1.31-6.24,1.49a26.13,26.13,0,0,0-4,.48c-1.64.48-.65,0-1.45,1A11.59,11.59,0,0,0,122.95,355.56Z"/><path class="cls-2" d="M135.75,556.12c-.13-.37-.25-.74-.35-1.12h0a65.16,65.16,0,0,1-1.59-7.44l-.21-1.27-.35.15c.07-.18.14-.37.2-.55l.07-.22,0-.23c-.17-1.16-.32-2.33-.47-3.51l0-.33-.24-.24a3.41,3.41,0,0,0-2.21-1l2-2.56,0-.41c-.05-.46-.11-.92-.17-1.38l0-.24c-.06-.28-.13-.62-.23-1.05-.32-1.39-.68-2.76-1-4.08l-.12-.43-.78-1.32-.06-.09-.16-.21-.72-.87-1.87-2.14-1.35-1.54a27.42,27.42,0,0,1-2.71-3.71l-.59-1-.89.71a8.76,8.76,0,0,0-1.4,1.4q-4.72,5.91-9.5,11.76l-.89,1.09L108.48,536q6-8.31,11.57-16.59a6.94,6.94,0,0,0,1.14-3.07l0-.23-.08-.22a22.58,22.58,0,0,1-.89-3.1l-.06-.3-.22-.21a3.16,3.16,0,0,0-2.32-.91,5.24,5.24,0,0,0-3.66,2.13l-.16.18a3.5,3.5,0,0,0-1.36-2.46c-1.68-1.25-4.62-.92-7,2.12l-8.71,11c-1.19,1.36-2.44,2.74-3.77,4.16l11.5-14.81c2.12-2.72,1.73-5.54.26-6.92a3.51,3.51,0,0,0-2.92-.87,4.28,4.28,0,0,0-.37-4.31,3.35,3.35,0,0,0-2.53-1.34,6.08,6.08,0,0,0-4.3,2.07l-.08.09a4.38,4.38,0,0,0-.24-3.32,3.51,3.51,0,0,0-2.46-1.87,4.39,4.39,0,0,0-3.61,1.09c-5,4.23-10,8.6-15,13.05L80,502.68c1.66-2.16,1.62-5.85-.08-7.46-.48-.45-2.24-1.75-4.89.54s-5.35,4.68-8.05,7.13a5.28,5.28,0,0,0-.69-4.42c-.63-.73-2.14-1.67-5.08.24A122.51,122.51,0,0,0,32.38,525a7.31,7.31,0,0,0-1.48,5.15,3.45,3.45,0,0,0,1.46,2.43,3.32,3.32,0,0,0,1.85.59c-1.89,2.76-3.73,5.52-5.5,8.26s-1.51,5.94.4,7.41c.6.46,2.79,1.71,5.67-1.5L36,546l-5.29,6.88c-2.08,2.71-1.64,5.77,0,7.17,1.11,1,3.09,1.32,5.25-.46h0c-2.27,2.67-2.68,6.54-.88,8.29a3,3,0,0,0,3.13.63l-.3.33c-2.54,2.82-2.44,6.89-.66,8.52.57.52,2.67,2,5.75-1.39q7.09-7.72,14.52-15.49l-12,15.39c-2.06,2.65-1.55,6,.22,7.37,1.27,1,3.5,1.27,5.68-1.26a4.71,4.71,0,0,0,.75,5.49,3.66,3.66,0,0,0,4,.52,5,5,0,0,0,.81,4.9,3.1,3.1,0,0,0,3.06.76l-.56.7,1.76.23a15.34,15.34,0,0,1,2.8.59l.3.12.88.36c.87.35,1.81.73,2.72,1.11l.64.27.92-1a4.09,4.09,0,0,0,.42,1.41l.14.27.27.15a17.32,17.32,0,0,1,2,1.27l.24.18.3,0a5.68,5.68,0,0,0,4.06-1.71l1.3-1.18a3.75,3.75,0,0,0,1.29,2.67c1.26,1.06,3.53,1.37,6.12-.92,1.19-1,2.39-2.13,3.64-3.28a4.89,4.89,0,0,0,1,4.13c.47.5,2.22,2,5.14-.12l.49-.35a2.77,2.77,0,0,0,2.54,1.58,5.64,5.64,0,0,0,3-1.09,89.92,89.92,0,0,0,34.27-42.23l.14-.35Z"/><path class="cls-3" d="M131.5,553.15c-.18,20.56-14.67,39.16-34.94,43.71-19.86,4.46-40-5.14-52.28-21.13C32.21,560,29.19,537.3,40.55,520.28,51.79,503.45,73.4,497.64,92.35,503c22.2,6.31,38.71,27,39.15,50.12.05,2.69,3.45.26,3.41-1.54a56.22,56.22,0,0,0-35.33-50.74c-20.27-8.08-44.21-3.21-58.32,13.82-13.7,16.53-14.57,40.32-3.8,58.61,11.36,19.29,34.21,30.8,56.48,27.08,23.84-4,40.78-24.84,41-48.77C134.94,548.94,131.52,551.37,131.5,553.15Z"/><path class="cls-4" d="M119.53,545.23a3.56,3.56,0,0,0-3.38.18c.95-1.71,1.83-3.34,2.68-4.91,1.19-2.22.6-3.48.14-4a2.92,2.92,0,0,0-2.61-.91,3.26,3.26,0,0,0-.93-3.07,2.61,2.61,0,0,0-2.09-.58,3.18,3.18,0,0,0-1-3.88,3.27,3.27,0,0,0-3.39.12,3.64,3.64,0,0,0-.1-3.83,2.58,2.58,0,0,0-2-1h-.08a4.84,4.84,0,0,0-3.33,1.69l-.37.42c.79-1.32,1.54-2.58,2.25-3.79,1.59-2.7,1-5-.41-5.85s-3.4-.45-5.11,2.18c-3.77,5.8-7.85,11.56-12.17,17.19,3.08-5,6.06-10,8.91-14.84,1.27-2.18,1-5-.52-6.12-.57-.4-2.13-1.06-4.21,1.46l-7.29,8.87q2.16-3.56,4.3-7.13c1.3-2.16,1.19-4.81-.24-5.91-.56-.43-2.13-1.18-4.46,1.22-1,1.06-2.1,2.18-3.25,3.4a3.69,3.69,0,0,0-1-3.55c-.45-.37-2.11-1.37-4.6,1.08l-5.06,5c.88-1.85,1.12-4.22.12-5.37-.58-.66-1.73-1.15-4,.25a74.19,74.19,0,0,0-19.85,18.49c-1.75,2.34-1.38,4.26-.52,5.19a2.88,2.88,0,0,0,2.75.81c-1.12,1.9-2.14,3.7-3.09,5.47-1.2,2.22-.59,3.78.38,4.51s3.1,2.9,4.91,1.12l14.17-18.65L50.74,551.45c-1.72,2.67-1.22,4.75,0,5.63s3.49.66,5.45-1.91c2.63-3.44,5.39-6.93,8.26-10.43-3.5,5.73-8.84,11.15-12.1,16.44-1.45,2.36,1.07,5.1,2.45,6.08.46.33,2.12,1.2,4.27-1.41L62,562.34c-1.45,2.11-2.89,4.18-4.32,6.22-1.63,2.32-1.26,4.66-.09,5.67,1,.82,2.7,1,4.75-.93,1.34-1.27,2.7-2.6,4.14-4-1,1.37-1.9,2.66-2.79,3.9-1.57,2.17-1.17,4.72.1,5.84a2.61,2.61,0,0,0,3.34,0,2.43,2.43,0,0,0,1.45,1.52c.78.27,2.09.24,3.89-1.47L73.59,578a3.93,3.93,0,0,0,.7,4.45c1,.81,2.69,1,4.67-1l2-2-.87,1.29c-1.54,2.27-1.11,4.92.26,6a2.4,2.4,0,0,0,1.44.48,4.08,4.08,0,0,0,3-1.75q2-2.3,3.93-4.63a2.6,2.6,0,0,0,1.48,1.58c.6.23,1.78.39,3.36-.83a2.82,2.82,0,0,0,.3.91,2.66,2.66,0,0,0,1.86,1.43,3.5,3.5,0,0,0,2.86-.86c10.43-8.64,20.15-18.4,20.75-31.22l.3-.62c.21-.43.41-.86.61-1.29C121.33,547.37,120.6,545.83,119.53,545.23Z"/><path class="cls-3" d="M119,550.45c-.21,14.52-10.7,27.77-25.12,30.72C80.12,584,66.63,577,58.06,566s-10.88-27-2.89-39,23.38-15.65,36.63-11.75A38.25,38.25,0,0,1,119,550.45c.07,2.69,3.46.26,3.41-1.54a40.35,40.35,0,0,0-25.55-36.52c-14.77-5.79-32.09-1.95-42.15,10.55-22,27.37,5.81,68.07,39.16,61.24,16.79-3.44,28.3-18.35,28.54-35.26C122.46,546.23,119,548.66,119,550.45Z"/><path class="cls-3" d="M111.88,546c-.84-.91-2.4-1.29-3.38-1.75s-2.47,1.23-2.81,2.67c-7.58,1.15-15.16,3.3-22.74,4.46-.11-9-.22-19.07-.33-28.1l.39.24c1.49.93,3.89-3.34,2.38-4.29L81.83,517c-.63-.4-1.54.39-2,.95-.11.15-.21.31-.31.45a5.39,5.39,0,0,0-.69.92l-.36.61c-.64,1-1.25,2-1.8,3-.42.79-.9,2.28-.07,2.79s1.89-.78,2.32-1.49l.37-.62.36,29.46c0,.81.29,1.12.68,1.13,0,.45.26.73.76.65l26.66-4.05a5.66,5.66,0,0,0-.58,1.77c-.12.9.06,2,1.11,1.66a3.64,3.64,0,0,0,2-2.33c.12-.11.23-.23.34-.35a7.5,7.5,0,0,0,1-1.27,5.31,5.31,0,0,0,.88-3C112.62,546.58,112.49,546,111.88,546Z"/><path class="cls-3" d="M136.62,506.65c-.54-2.53-.93-5.41-3.52-6.69s-6.11-.44-8.79-.25-5.87.15-8.24,1.36-3,3.18-3.79,5.43c.44-3.36-3.26-5.32-5.9-6.37-2.92-1.16-5.52-1.23-7.61,1.38-1.59,2-4.3,5.52-3.93,8.19a6.21,6.21,0,0,0,.86,1.88,3.31,3.31,0,0,0,.86.8q-.14.65-.27,1.31c-.15,1.71-1.12,3.74-1.42,5.44-.56,3.27-1.61,6.27-1.94,9.57-.27,2.76.53,5.51,3.25,7.12,1.93,1.14,5.9,2.38,7.87.94s2-5.11,2.46-7.32c.56,3.5,5,7.33,8.15,8.18,4.32,1.18,9.28-.37,13-3s5.92-7.45,5-11.87-4.69-7-8.87-8c.73-2,1-2.06,3.1-2.31,1.7-.2,3.4-.4,5.1-.62C135,511.44,137.62,510.16,136.62,506.65Zm-28.16,19.14a4.11,4.11,0,0,0-1.43,1.28c.58-2.61,1.21-5.2,1.85-7.79.31,2.29,2.1,3.32,3.86,4.46a6.72,6.72,0,0,0,3.48,1.55c1.42.07,2.74-.65,4.17-.65-.27,2.52-1.49,2.52-3.36,1.59C114.34,524.91,111.24,524.13,108.46,525.79Z"/><path class="cls-4" d="M138.23,504.48c-.54-2.53-.93-5.41-3.52-6.69s-6.11-.44-8.79-.25-5.87.15-8.24,1.36-3,3.18-3.79,5.43c.44-3.36-3.26-5.32-5.9-6.37-2.92-1.16-5.52-1.23-7.61,1.38-1.59,2-4.3,5.52-3.93,8.19a6.21,6.21,0,0,0,.86,1.88,3.31,3.31,0,0,0,.86.8q-.14.65-.27,1.31c-.15,1.71-.67,3.46-1,5.16-.56,3.27-1.07,6.55-1.4,9.85-.27,2.76-.47,5.51,2.25,7.12,1.93,1.14,5.9,2.38,7.87.94s2-5.11,2.46-7.32c.56,3.5,5,6.33,8.15,7.18a15.66,15.66,0,0,0,13-2c3.61-2.55,5.92-7.45,5-11.87s-4.69-7-8.87-8c.73-2,1-2.06,3.1-2.31,1.7-.2,3.4-.4,5.1-.62C136.62,509.27,139.23,508,138.23,504.48Zm-28.16,19.14a4.11,4.11,0,0,0-1.43,1.28c.58-2.61,1.21-5.2,1.85-7.79.31,2.29,2.1,3.32,3.86,4.46a6.72,6.72,0,0,0,3.48,1.55c1.42.07,2.74-.65,4.17-.65-.27,2.52-1.49,2.52-3.36,1.59C116,522.73,112.85,522,110.07,523.62Z"/><path class="cls-5" d="M109.88,508.72c-2,7.3-3.44,14.72-5.2,22.08-.48,2-1,1.85-2.86,1.39-1.6-.39-3.36-.7-3.76-2.51-.65-2.95.37-5.62.83-8.52.28-1.74,2-8.5,1.86-8-.21,1.06,1.46-4.3,1.46-4.3-.65-1.23-3.21-.38-3-2.31.14-1.4,1.8-3.38,2.54-4.47,1.91-2.81,3.82-2.46,6.67-.92,1.11.6,2.68,1.35,2.83,2.74S110.22,507.49,109.88,508.72Z"/><path class="cls-5" d="M122.95,511.55c-.43,1.09-.83,2.18-1.2,3.29,4.33,0,9.66,2.14,10,7.05a9.88,9.88,0,0,1-6.36,9.59,12.14,12.14,0,0,1-13-2.5c-1.11-1.11-2.49-2.41-.41-3.3s4,.07,5.82,1,3.74,1.27,5.26-.27c1.16-1.17,2.49-4.42,1.25-6-.83-1-2.85-.7-4.06-.48-2.09.37-2.62.56-4.46-.65s-2.83-1.67-2.54-3.85a38.52,38.52,0,0,1,2-7.08c.65-1.91,1.16-4.71,2.51-6.24,1.55-1.75,4.69-2.61,6.83-2.8a25.23,25.23,0,0,1,8.33.7,3.18,3.18,0,0,1,2.09,2.38c.25.75,1,2.85.71,3.54-.56,1.57-4.84,1.31-6.24,1.49a26.13,26.13,0,0,0-4,.48c-1.64.48-.65,0-1.45,1A11.59,11.59,0,0,0,122.95,511.55Z"/></g></svg>