<svg xmlns="http://www.w3.org/2000/svg" xmlns:xlink="http://www.w3.org/1999/xlink" viewBox="0 0 168 624"><defs><style>.cls-1{fill:#f9c236;}.cls-2{fill:#009dff;}.cls-3{fill:#09519f;}.cls-4{fill:#fff;}.cls-5{clip-path:url(#clip-path);}.cls-6{clip-path:url(#clip-path-2);}.cls-7{clip-path:url(#clip-path-3);}.cls-8{clip-path:url(#clip-path-4);}</style><clipPath id="clip-path"><circle class="cls-1" cx="107.3" cy="109.47" r="18.31"/></clipPath><clipPath id="clip-path-2"><circle class="cls-1" cx="107.07" cy="265.11" r="18.31"/></clipPath><clipPath id="clip-path-3"><path class="cls-1" d="M126.16,422.12c0,10.11-9,18.31-19.09,18.31S88.4,433.2,88.4,423.09,97,403.8,107.07,403.8,126.16,412,126.16,422.12Z"/></clipPath><clipPath id="clip-path-4"><path class="cls-1" d="M126.39,578.51c0,10.12-9,18.32-19.09,18.32s-18.67-7.23-18.67-17.35,8.55-19.28,18.67-19.28S126.39,568.4,126.39,578.51Z"/></clipPath></defs><title>conexao</title><g id="Camada_2" data-name="Camada 2"><path class="cls-2" d="M107,135.78c4.6-2.9,9.1-6,13.5-9.1a55.47,55.47,0,0,1-7.5,6.1C111.12,133.78,109,134.78,107,135.78ZM70.92,20.58c-6.8,5.8-14.7,10.4-22.3,14.8l-3.4,2C53.72,31.68,62.22,26,70.92,20.58Zm-15-.2a142.45,142.45,0,0,1-12.5,8.3c2-1.5,4-2.8,6-4.2S53.72,21.68,55.92,20.38Zm44.9,12.8c2.3-1.9,4.6-3.7,7-5.4C105.62,29.68,103.22,31.48,100.82,33.18Zm30.5,74.9c-1.3,1-2.7,2-4,2.9C128.62,110.08,130,109.08,131.32,108.08Zm-28,13.8c-6.7,5.4-13.8,11.2-21.6,15.1A146.73,146.73,0,0,1,103.32,121.88Zm25.3-23c-4.3,3-8.8,5.7-13.4,8.3,4.9-3.6,9.9-7.1,15.1-10.2l4.5-2.7A66.16,66.16,0,0,1,128.62,98.88Zm-64.8,35c3.5-2.4,6.9-4.9,10.4-7.4a64,64,0,0,1-10.6,8.2A3.09,3.09,0,0,1,63.82,133.88Zm32.7-31c-4.2,3-8.5,5.9-12.9,8.6-2.3,1.4-4.6,2.7-6.9,4.1,7.6-5.7,15.2-11.3,23.1-16.6,4.3-2.9,8.8-5.6,13.2-8.2-4.3,3.1-8.5,6.3-12.8,9.5C98.92,101.08,97.72,102,96.52,102.88Zm60.2-51.2a12.19,12.19,0,0,0-5.9.9l.3-.3c1.5-1.4-.4-2.5-1.6-2.6a11.92,11.92,0,0,0-8.1,2.2l-1.3.9c1.9-1.5,3.8-2.9,5.7-4.4,1.1-.9,1.9-2.4.1-3.1a8.2,8.2,0,0,0-4.4-.1c.6-.5,1.1-1,1.6-1.5,1-.9,2-2.4.1-3.1-2.5-.9-5.7.1-8,1.3-3.3,1.7-6.6,3.5-9.8,5.3A113.24,113.24,0,0,0,136,37c1.3-1.5-.3-2.5-1.6-2.6a10.44,10.44,0,0,0-2.5,0,104.66,104.66,0,0,0,11.4-10.7c1.3-1.5-.3-2.5-1.6-2.6a11.64,11.64,0,0,0-8.1,2.2,370.47,370.47,0,0,1-33.3,25.4c-2.7,1.7-5.3,3.4-8,5.1,13.3-9.3,26.2-19.3,37.2-31.4,1.3-1.5-.3-2.5-1.6-2.6a11.56,11.56,0,0,0-3.2.1,15.92,15.92,0,0,0,1.3-2.2c1.2-2.2-4-2-4.8-1.8a8.33,8.33,0,0,0-1.5.4c.6-.6,1.3-1.2,1.9-1.8,1.4-1.4-.4-2.5-1.7-2.6a11.92,11.92,0,0,0-8.1,2.2c-5.6,4-11.1,8-16.7,12-1.5.9-3,1.7-4.5,2.5-9.4,5.3-18.4,11.2-27.6,16.8l-3.1,1.8.3-.2c19.1-12.3,39.2-23.2,56.6-37.7,1.7-1.5,1.4-3.1-.9-3.4a11.78,11.78,0,0,0-8.1,2.2,118.2,118.2,0,0,1-10.4,7c2.3-1.7,4.7-3.4,6.9-5.2,1.8-1.4,1.4-3.1-.9-3.4a12.32,12.32,0,0,0-8.1,2.2l-7.8,5.7a54.45,54.45,0,0,0,5-6.6c1-1.6-.1-2.4-1.7-2.6a12.2,12.2,0,0,0-7,1.5c-2.7,1.4-5.4,2.9-8.1,4.4.3-.4.7-.8,1-1.2,2.9-3.7-6.3-2.1-7.3-1.7-9.4,3.2-18.5,8.3-27.1,14A147.65,147.65,0,0,0,17.52,42c-1.5,1.5.1,2.2,1.6,2.5a71,71,0,0,0-9.4,8.8c-1.3,1.5.3,2.5,1.6,2.6a11.46,11.46,0,0,0,7-1.5c.6-.3,1.1-.7,1.7-1a74.85,74.85,0,0,0-9,7.9c-1.4,1.4.4,2.5,1.6,2.6a13.26,13.26,0,0,0,7-1.5c1.1-.5,2.2-1.1,3.3-1.6-4.3,3.7-8.6,7.7-12.6,11.8-1.4,1.4.4,2.5,1.7,2.6a6.7,6.7,0,0,0,2,0c-1.5,1.5-2.9,3.1-4.3,4.7s.2,2.5,1.6,2.7a10.75,10.75,0,0,0,3.1-.1c-1.3.9-2.7,1.8-4,2.8-1.9,1.4-1.3,3.1.9,3.3a11.78,11.78,0,0,0,8.1-2.2l4-2.8c11.9-8.1,24.7-14.7,37.2-21.7-4.6,3.6-9.3,7.2-14,10.6-4.4,2.3-8.9,4.5-13.4,6.6-7,3.3-16.8,7.1-19.9,14.9-1.1,2.8,5.4,1.7,6.3,1.5a32.88,32.88,0,0,0,6-2.1c-2.6,1.9-5.2,3.9-7.8,5.8-1.2.8-1.9,2.5-.1,3.1,2.5.9,5.8-.1,8-1.3l.1-.1a58.52,58.52,0,0,0-7.4,8.3c-1.1,1.5.1,2.4,1.7,2.6a12.2,12.2,0,0,0,7-1.5c.9-.5,1.9-1,2.8-1.5-2.3,2.1-4.6,4.2-6.9,6.4-1.4,1.4.4,2.5,1.6,2.6A11.15,11.15,0,0,0,30,117a18.24,18.24,0,0,0-4.1,8.9c-.5,2.9,4.9,1.9,6.3,1.5a48.51,48.51,0,0,0,9.2-3.5c-1.8,1.9-3.5,3.9-5.2,6-1.2,1.5.2,2.4,1.7,2.6a11.83,11.83,0,0,0,3.7-.2,10.7,10.7,0,0,0-1.4,1.6c-1.3,1.5.3,2.5,1.7,2.6a11.46,11.46,0,0,0,7-1.5l.5-.3c-1.1,1-2.2,2.1-3.3,3.2-1.4,1.4.4,2.5,1.7,2.6a10.85,10.85,0,0,0,4-.3c.2,0,.5-.1.8-.1l.3,1.2c.7,2.1,4.9,1.2,6.3.8l.7-.2c-1.2,1.5.3,2.4,1.7,2.6a10.45,10.45,0,0,0,2.5,0c-1,1.9,3.8,2.1,4.8,1.9,2.2-.4,4.4-1,6.5-1.6-.6.3-1.2.7-1.8,1-.9.5-3.3,2.1-1.9,3.4s4.3.7,5.9.2,2.9-.8,4.3-1.3c-.8.7-1.3,1.6-.5,2.4,1.8,1.6,5.5.5,7.4-.2,10.6-4.1,21-8.5,30.3-14.4,1.8-.9,3.6-1.9,5.4-2.9,11.1-6.2,22.6-14.7,26.8-27.4.7-2-1.9-2.1-4.5-1.7a45.68,45.68,0,0,0,5.4-6.9c1.1-1.9-.1-2.5-1.9-2.5a32.13,32.13,0,0,0,6.3-9.5c.4-1.1-.7-1.6-1.6-1.8a19.22,19.22,0,0,0,1.6-4.2c.6-2.3-3.6-2-4.8-1.8a20.48,20.48,0,0,0-2.4.5c1.6-1.7,3.2-3.4,4.7-5.3,1.2-1.5-.2-2.4-1.6-2.6a6.6,6.6,0,0,0-1.4-.1,40.67,40.67,0,0,0,4.8-6.7c1.3-2.3-3.8-1.8-6.4-1.3,2.9-2,5.7-4.2,8.5-6.5C159.32,53.58,159,52,156.72,51.68Z"/><path class="cls-3" d="M140.12,122.68a67.13,67.13,0,0,1-25.7,20.2,62.68,62.68,0,0,1-18.5,5,65.3,65.3,0,0,0,7.6-2A81.56,81.56,0,0,0,140.12,122.68ZM40,132.88a61,61,0,0,1-9.5-9.5A94.66,94.66,0,0,0,40,132.88Zm33.9-120.8c1.2-.1,2.3-1,2.3-1.8,0-.3-.2-.9-1.4-.9h-.4a65.45,65.45,0,0,0-32.9,12.4c1.3-1,2.6-2,3.9-2.9,11-7.5,24.9-11.6,39.1-11.6a70.32,70.32,0,0,1,27.5,5.5c17.3,7.4,30.6,21.9,37.4,40.8a81.81,81.81,0,0,1,2.4,31.2c-1.9,16.1-8.4,30.2-19,40.7A76.12,76.12,0,0,1,88,146.58a61.81,61.81,0,0,1-12.9.1,60.47,60.47,0,0,1-8.3-2.4c-28.6-10.3-50.2-39.5-50.2-67.7,0-15.3,6.1-31,16.6-43.2C44.22,21.08,58.62,13.48,73.92,12.08Zm80,40.3a75.52,75.52,0,0,0-34-44.9l-.8-.5a1.88,1.88,0,0,0-.8-.2c-1,0-2.8.7-3.1,1.6-.1.2-.1.6.5,1a56.77,56.77,0,0,1,9.1,6.3,74,74,0,0,0-40.7-10.9c-22.6.5-43.2,10.2-56.5,26.5C15.92,45.48,10,65.08,11.42,85s10.3,38,24.5,49.7a66.64,66.64,0,0,0,37.5,14.6,71.64,71.64,0,0,0,14.6,1.5,70.11,70.11,0,0,0,36.8-10.4,71,71,0,0,0,33.5-52.6A78.22,78.22,0,0,0,153.92,52.38Z"/><path class="cls-3" d="M48.4,91.13C53.49,84.91,68.65,77,79.67,76.87c13.36-.1,26.22,4.47,34.7,15.58,2,2.65,6.38,1,8.06-.66,2.07-2.09,4.24-5.23,2.67-8.35-7.64-15.18-29.4-23-44.55-22.3-15.92.77-34,8-42.45,24C35.57,89.89,46.33,93.63,48.4,91.13Z"/><path class="cls-3" d="M37.92,72c6.86-8,25-20.51,43.59-20,18,.49,35.3,5.76,46.71,20.06,2.74,3.42,7.84,1.34,10.1-.84,2.79-2.7,5-4.27,2.85-8.28C130.89,43.4,102.35,33.29,82,34.24c-21.42,1-45.76,10.32-57.14,30.86C21.41,71.25,35.14,75.25,37.92,72Z"/><path class="cls-3" d="M59.69,108.36c4.25-5.94,12.82-9.56,19.64-9.47,8.66.11,14,5,19.42,12.1,2,2.65,6.25.23,7.91-1.47,2.2-2.26,4-4.22,2.63-7.53-4.46-11.26-19-17.94-29.49-17.17-12.29.91-22.66,7-29.42,19.15-2,3.6,7.23,7,9.31,4.39Z"/><path class="cls-3" d="M67.15,118.75l10.39,9.35a3.45,3.45,0,0,0,4.7-.07l9-8.54a2.4,2.4,0,0,0,.25-3.46c-3.36-4.45-12.18-10.62-24.1-1C66.65,115.63,66.47,118.14,67.15,118.75Z"/><path class="cls-4" d="M80,73.09c15.62,0,28.82,6,37.23,17a3.84,3.84,0,0,0,2.44-.94c.8-.81,2.59-2.81,2-4-5.25-10.43-22.41-21.13-41-20.23-13.61.66-31,6.69-39.1,21.6a7.66,7.66,0,0,0,4.33,1.66c6.22-7,21.9-15,33.67-15.07Z"/><path class="cls-4" d="M81.59,48.15c22,.59,38.66,7.82,49.57,21.47A.94.94,0,0,0,132,70a6,6,0,0,0,3.73-1.59l.66-.62a11.08,11.08,0,0,0,1.9-2.08,3.37,3.37,0,0,0-.42-1.11C128.53,47,101.69,37,82.11,37.91c-18.85.88-42.94,8.93-54,28.92a.59.59,0,0,0,0,.08,5.29,5.29,0,0,0,2.33,1.55,9.22,9.22,0,0,0,4.88.75C42.58,60.84,60.9,48.13,80.4,48.13Z"/><path class="cls-4" d="M54.09,104.72a6.64,6.64,0,0,0,2.8.81c5.32-6.86,14.93-10.4,22-10.4h.27c10.5.14,16.85,6.4,22.1,13.25a6.28,6.28,0,0,0,2.48-1.48c2.29-2.35,2.17-2.64,1.83-3.5C101.78,93.84,89,87.94,79.86,88.6,68.63,89.43,60,94.85,54.09,104.72Z"/><path class="cls-4" d="M71,117.13l8.92,8,8-7.58A11.34,11.34,0,0,0,81,113.85C77.86,113.47,74.5,114.57,71,117.13Z"/><circle class="cls-3" cx="107.37" cy="109.08" r="22.53"/><circle class="cls-1" cx="107.3" cy="109.47" r="18.31"/><g class="cls-5"><path class="cls-1" d="M138.67,88q-3.67,4.07-7.33,8.14c.17-1.53-1.5-2.39-3.11-.76-2.16,2.17-4.31,4.37-6.44,6.57,2.72-3.16,5.45-6.3,8.23-9.41,1.9-2.13-.46-4.27-2.41-2.16L111,108.48l13.59-18.57a1.37,1.37,0,0,0-.74-2.37c.64-.75,1.28-1.5,1.91-2.26,1.78-2.11-.47-4.19-2.33-2.1q-7,7.92-13.82,16.06-3.93,4.42-7.94,8.8,7.81-10.22,15.62-20.42c1.61-2.1-.57-4.19-2.26-2Q106.9,95.9,98.3,105.79q6.86-9.72,13.56-19.54c1.48-2.08,2.93-4.18,4.32-6.32,1.54-2.37-1.59-3-2.89-1.08-.42.63-.86,1.26-1.28,1.88.06-1.31-1.75-1.89-2.81-.51A168.46,168.46,0,0,1,96.57,94.76l6.2-8.64c1.25-1.76-1.11-3-2.33-1.4a135.64,135.64,0,0,1-12.1,13.8c-1.1,1.1-.53,2.22.44,2.3l-3.21,4.45c-1.1,1.51.61,3,2,1.8q3.27-2.8,6.39-5.76-5.77,7.26-12.06,14.12c-1.36,1.49-.06,3.91,1.74,2.3l.41-.37h0q3.75-3.37,7.31-6.92c-3.4,4.77-6.8,9.52-10.25,14.26-1.46,2,1.12,3,2.56,1.53l1-1-2.42,3.16c-1.63,2.13.34,4,2.27,2,1.05-1,2.08-2.12,3.12-3.17-1.07,1.86,1.41,2.67,2.83,1.27,2.64-2.61,5.24-5.27,7.81-8q-3.19,4.37-6.4,8.72c-1.26,1.72.37,2.8,1.82,2.21q-3.54,4.65-7,9.37h0l-.37.5c-1.57,2.13,1.27,3.5,2.8,1.69q8-9.5,16.28-18.69l-4.12,5.21c-1.26,1.61-.51,3.15.74,3.16-1.22,1.76.15,4.31,2.19,2.47l.47-.43h0v0c1.32-1.19,2.61-2.4,3.9-3.61-.65.79-1.29,1.59-2,2.37-1.5,1.8-.23,4.43,2,2.7a158.14,158.14,0,0,0,23.3-21.94c2-2.25-.54-4.53-2.51-2.26q-4.11,4.74-8.56,9.1,4.5-5.84,8.84-11.79c1.3-1.8-.34-3-1.87-2.45q6.72-8.26,13.33-16.63C143,88,140.67,85.79,138.67,88Z"/></g><path class="cls-3" d="M114.76,96.84a4.48,4.48,0,0,0-2.5-1.9,7.36,7.36,0,0,0-3.46-1,5.91,5.91,0,0,0-4.6,1.37c-1.77,1.64-1.8,4.05-1.83,5.64,0,.26.69,7.73.69,12,0,1.33,1.06,1.93,1.54,2.42-.94.41-2.19.88-2.36,1a5.3,5.3,0,0,0-1.92,3.68,4.86,4.86,0,0,0,1.64,3.85,5.33,5.33,0,0,0,3.61,1.33,7.37,7.37,0,0,0,1-.08,8.07,8.07,0,0,0,3.34-.93,5.45,5.45,0,0,0,2.71-3.2,4.35,4.35,0,0,0-.3-3.21,4.64,4.64,0,0,0-3.72-2.47c.07-.05,1-.2,1.26-.7.58-1,3.42-8.89,3.85-10.36.32-1.1.63-2.21.91-3.31l.11-.33A4.42,4.42,0,0,0,114.76,96.84Z"/><path class="cls-4" d="M112.83,98a2.52,2.52,0,0,0-1.55-1,4.93,4.93,0,0,0-2.62-.77c-4.52-.29-4,1.88-4.06,3.88,0,2.94.46,9,.57,13,0,.78.8,1.23,1.15,1.11.77,0,1.06,0,1.53-.4,1.19-1,3.23-8.5,3.72-10.18q.48-1.62.9-3.24C112.63,99.81,113.22,98.66,112.83,98Z"/><path class="cls-4" d="M108,117.29a.79.79,0,0,0-.63-.28c-2.66-.24-4.68,1.51-4.77,3.19-.08,1.45,1.26,3.15,3.72,2.74h0a5.88,5.88,0,0,0,2.51-.66c1.53-.84,2.11-2.29,1.45-3.47A2.93,2.93,0,0,0,108,117.29Z"/><path class="cls-2" d="M106.79,291.42c4.6-2.9,9.1-6,13.5-9.1a55.47,55.47,0,0,1-7.5,6.1C110.89,289.42,108.79,290.42,106.79,291.42Zm-36.1-115.2c-6.8,5.8-14.7,10.4-22.3,14.8L45,193C53.49,187.32,62,181.62,70.69,176.22Zm-15-.2a142.45,142.45,0,0,1-12.5,8.3c2-1.5,4-2.8,6-4.2S53.49,177.32,55.69,176Zm44.9,12.8c2.3-1.9,4.6-3.7,7-5.4C105.39,185.32,103,187.12,100.59,188.82Zm30.5,74.9c-1.3,1-2.7,2-4,2.9C128.39,265.72,129.79,264.72,131.09,263.72Zm-28,13.8c-6.7,5.4-13.8,11.2-21.6,15.1A146.73,146.73,0,0,1,103.09,277.52Zm25.3-23c-4.3,3-8.8,5.7-13.4,8.3,4.9-3.6,9.9-7.1,15.1-10.2l4.5-2.7A66.16,66.16,0,0,1,128.39,254.52Zm-64.8,35c3.5-2.4,6.9-4.9,10.4-7.4a64,64,0,0,1-10.6,8.2A3.09,3.09,0,0,1,63.59,289.52Zm32.7-31c-4.2,3-8.5,5.9-12.9,8.6-2.3,1.4-4.6,2.7-6.9,4.1,7.6-5.7,15.2-11.3,23.1-16.6,4.3-2.9,8.8-5.6,13.2-8.2-4.3,3.1-8.5,6.3-12.8,9.5C98.69,256.72,97.49,257.62,96.29,258.52Zm60.2-51.2a12.19,12.19,0,0,0-5.9.9l.3-.3c1.5-1.4-.4-2.5-1.6-2.6a11.92,11.92,0,0,0-8.1,2.2l-1.3.9c1.9-1.5,3.8-2.9,5.7-4.4,1.1-.9,1.9-2.4.1-3.1a8.2,8.2,0,0,0-4.4-.1c.6-.5,1.1-1,1.6-1.5,1-.9,2-2.4.1-3.1-2.5-.9-5.7.1-8,1.3-3.3,1.7-6.6,3.5-9.8,5.3a113.24,113.24,0,0,0,10.6-10.2c1.3-1.5-.3-2.5-1.6-2.6a10.44,10.44,0,0,0-2.5,0,104.66,104.66,0,0,0,11.4-10.7c1.3-1.5-.3-2.5-1.6-2.6a11.64,11.64,0,0,0-8.1,2.2,370.47,370.47,0,0,1-33.3,25.4c-2.7,1.7-5.3,3.4-8,5.1,13.3-9.3,26.2-19.3,37.2-31.4,1.3-1.5-.3-2.5-1.6-2.6a11.56,11.56,0,0,0-3.2.1,15.92,15.92,0,0,0,1.3-2.2c1.2-2.2-4-2-4.8-1.8a8.33,8.33,0,0,0-1.5.4c.6-.6,1.3-1.2,1.9-1.8,1.4-1.4-.4-2.5-1.7-2.6a11.92,11.92,0,0,0-8.1,2.2c-5.6,4-11.1,8-16.7,12-1.5.9-3,1.7-4.5,2.5-9.4,5.3-18.4,11.2-27.6,16.8l-3.1,1.8.3-.2c19.1-12.3,39.2-23.2,56.6-37.7,1.7-1.5,1.4-3.1-.9-3.4a11.78,11.78,0,0,0-8.1,2.2,118.2,118.2,0,0,1-10.4,7c2.3-1.7,4.7-3.4,6.9-5.2,1.8-1.4,1.4-3.1-.9-3.4a12.32,12.32,0,0,0-8.1,2.2l-7.8,5.7a54.45,54.45,0,0,0,5-6.6c1-1.6-.1-2.4-1.7-2.6a12.2,12.2,0,0,0-7,1.5c-2.7,1.4-5.4,2.9-8.1,4.4.3-.4.7-.8,1-1.2,2.9-3.7-6.3-2.1-7.3-1.7-9.4,3.2-18.5,8.3-27.1,14a147.65,147.65,0,0,0-24.8,19.8c-1.5,1.5.1,2.2,1.6,2.5a71,71,0,0,0-9.4,8.8c-1.3,1.5.3,2.5,1.6,2.6a11.46,11.46,0,0,0,7-1.5c.6-.3,1.1-.7,1.7-1a74.85,74.85,0,0,0-9,7.9c-1.4,1.4.4,2.5,1.6,2.6a13.26,13.26,0,0,0,7-1.5c1.1-.5,2.2-1.1,3.3-1.6-4.3,3.7-8.6,7.7-12.6,11.8-1.4,1.4.4,2.5,1.7,2.6a6.7,6.7,0,0,0,2,0c-1.5,1.5-2.9,3.1-4.3,4.7s.2,2.5,1.6,2.7a10.75,10.75,0,0,0,3.1-.1c-1.3.9-2.7,1.8-4,2.8-1.9,1.4-1.3,3.1.9,3.3a11.78,11.78,0,0,0,8.1-2.2l4-2.8c11.9-8.1,24.7-14.7,37.2-21.7-4.6,3.6-9.3,7.2-14,10.6-4.4,2.3-8.9,4.5-13.4,6.6-7,3.3-16.8,7.1-19.9,14.9-1.1,2.8,5.4,1.7,6.3,1.5a32.88,32.88,0,0,0,6-2.1c-2.6,1.9-5.2,3.9-7.8,5.8-1.2.8-1.9,2.5-.1,3.1,2.5.9,5.8-.1,8-1.3l.1-.1a58.52,58.52,0,0,0-7.4,8.3c-1.1,1.5.1,2.4,1.7,2.6a12.2,12.2,0,0,0,7-1.5c.9-.5,1.9-1,2.8-1.5-2.3,2.1-4.6,4.2-6.9,6.4-1.4,1.4.4,2.5,1.6,2.6a11.15,11.15,0,0,0,5.4-.8,18.24,18.24,0,0,0-4.1,8.9c-.5,2.9,4.9,1.9,6.3,1.5a48.51,48.51,0,0,0,9.2-3.5c-1.8,1.9-3.5,3.9-5.2,6-1.2,1.5.2,2.4,1.7,2.6a11.83,11.83,0,0,0,3.7-.2,10.7,10.7,0,0,0-1.4,1.6c-1.3,1.5.3,2.5,1.7,2.6a11.46,11.46,0,0,0,7-1.5l.5-.3c-1.1,1-2.2,2.1-3.3,3.2-1.4,1.4.4,2.5,1.7,2.6a10.85,10.85,0,0,0,4-.3c.2,0,.5-.1.8-.1l.3,1.2c.7,2.1,4.9,1.2,6.3.8l.7-.2c-1.2,1.5.3,2.4,1.7,2.6a10.45,10.45,0,0,0,2.5,0c-1,1.9,3.8,2.1,4.8,1.9,2.2-.4,4.4-1,6.5-1.6-.6.3-1.2.7-1.8,1-.9.5-3.3,2.1-1.9,3.4s4.3.7,5.9.2,2.9-.8,4.3-1.3c-.8.7-1.3,1.6-.5,2.4,1.8,1.6,5.5.5,7.4-.2,10.6-4.1,21-8.5,30.3-14.4,1.8-.9,3.6-1.9,5.4-2.9,11.1-6.2,22.6-14.7,26.8-27.4.7-2-1.9-2.1-4.5-1.7a45.68,45.68,0,0,0,5.4-6.9c1.1-1.9-.1-2.5-1.9-2.5a32.13,32.13,0,0,0,6.3-9.5c.4-1.1-.7-1.6-1.6-1.8a19.22,19.22,0,0,0,1.6-4.2c.6-2.3-3.6-2-4.8-1.8a20.48,20.48,0,0,0-2.4.5c1.6-1.7,3.2-3.4,4.7-5.3,1.2-1.5-.2-2.4-1.6-2.6a6.6,6.6,0,0,0-1.4-.1,40.67,40.67,0,0,0,4.8-6.7c1.3-2.3-3.8-1.8-6.4-1.3,2.9-2,5.7-4.2,8.5-6.5C159.09,209.22,158.79,207.62,156.49,207.32Z"/><path class="cls-3" d="M139.89,278.32a67.13,67.13,0,0,1-25.7,20.2,62.68,62.68,0,0,1-18.5,5,65.3,65.3,0,0,0,7.6-2A81.56,81.56,0,0,0,139.89,278.32Zm-100.1,10.2a61,61,0,0,1-9.5-9.5A94.66,94.66,0,0,0,39.79,288.52Zm33.9-116.8c1.2-.1,2.3-5,2.3-5.8,0-.3-.2-.9-1.4-.9h-.4a65.45,65.45,0,0,0-32.9,12.4c1.3-1,2.6-2,3.9-2.9,11-7.5,24.9-11.6,39.1-11.6,9.6,0,19.1,2.9,27.5,6.5,17.3,7.4,28.6,20.9,35.4,39.8,2.8,10.1,5.6,20.6,4.4,31.2-1.9,16.1-8.4,30.2-19,40.7a76.12,76.12,0,0,1-44.8,21.1,61.81,61.81,0,0,1-12.9.1c-2.8-.6-7.6-1.4-10.3-2.4-28.6-10.3-50.2-39.5-50.2-67.7,0-15.3,8.1-31,18.6-43.2C44,176.72,58.39,173.12,73.69,171.72Zm82,36.3c-5.4-19.2-16.5-37.1-33-46.9l-3.8,1.5a1.88,1.88,0,0,0-.8-.2c-1,0-2.8.7-3.1,1.6-.1.2-.1.6.5,1a56.77,56.77,0,0,1,9.1,6.3,74,74,0,0,0-40.7-10.9c-22.6.5-43.2,10.2-56.5,26.5-11.7,14.2-17.6,33.8-16.2,53.7s10.3,38,24.5,49.7a66.64,66.64,0,0,0,37.5,14.6,71.64,71.64,0,0,0,14.6,1.5,70.11,70.11,0,0,0,36.8-10.4,71,71,0,0,0,33.5-52.6C159.39,231.72,159.89,219.42,155.69,208Z"/><path class="cls-3" d="M48.17,246.77c5.09-6.22,20.25-14.18,31.27-14.26,13.36-.1,26.22,4.47,34.7,15.58,2,2.65,6.38,1,8.06-.66,2.07-2.09,4.24-5.23,2.67-8.35-7.64-15.18-29.4-23-44.55-22.3-15.92.77-34,8-42.45,24C35.34,245.53,46.1,249.28,48.17,246.77Z"/><path class="cls-3" d="M37.7,227.66c6.85-8,25-20.51,43.58-20,18,.48,35.3,5.75,46.72,20.05,2.73,3.42,7.83,1.34,10.09-.84,2.79-2.7,6-5.27,3.85-9.28-10.28-19.55-38.82-29.66-59.22-28.71-21.42,1-46.76,11.32-58.14,31.86C21.18,226.9,34.91,230.89,37.7,227.66Z"/><path class="cls-3" d="M59.46,264c4.25-5.94,12.82-9.56,19.64-9.47,8.66.11,14.05,5,19.42,12.1,2,2.65,6.25.23,7.91-1.47,2.2-2.26,3.95-4.22,2.63-7.53-4.46-11.26-19-17.94-29.49-17.16-12.29.9-23.66,7-30.42,19.14-2,3.6,8.23,7,10.31,4.39Z"/><path class="cls-3" d="M66.92,274.4l10.39,9.34a3.45,3.45,0,0,0,4.7-.07l9-8.54a2.41,2.41,0,0,0,.26-3.46c-3.37-4.45-12.19-12.62-24.11-3C66.42,269.28,66.24,273.78,66.92,274.4Z"/><path class="cls-4" d="M79.78,228.74c15.62,0,28.82,6,37.23,17a3.84,3.84,0,0,0,2.44-.94c.8-.81,2.59-2.81,2-4-5.25-10.43-22.41-21.13-41-20.23-13.61.66-31,6.69-39.1,21.6.79.8,3.08.71,4.33.67,6.22-7,21.9-14,33.67-14.08Z"/><path class="cls-4" d="M81.37,203.79c22,.59,38.65,7.82,49.56,21.47a.94.94,0,0,0,.79.39,5.9,5.9,0,0,0,3.73-1.59l.66-.62a11.08,11.08,0,0,0,1.9-2.08,3.37,3.37,0,0,0-.42-1.11c-9.29-17.66-36.13-27.61-55.71-26.7-18.85.88-42.94,8.93-54,28.92l0,.08a5.29,5.29,0,0,0,2.33,1.55,9.22,9.22,0,0,0,4.88.75c7.31-8.36,25.63-21.08,45.13-21.08Z"/><path class="cls-4" d="M53.86,260.36a6.64,6.64,0,0,0,2.8.81c5.33-6.86,14.93-10.4,22-10.4h.27c10.5.14,16.85,6.4,22.1,13.25a6.28,6.28,0,0,0,2.48-1.48c2.29-2.34,2.17-2.64,1.83-3.5-3.79-9.55-16.59-15.46-25.71-14.79C68.4,245.07,59.73,250.49,53.86,260.36Z"/><path class="cls-4" d="M70.73,272.77l8.92,8,8-7.58a11.34,11.34,0,0,0-6.87-3.73C77.63,269.11,74.27,270.21,70.73,272.77Z"/><circle class="cls-3" cx="107.14" cy="264.73" r="22.53"/><circle class="cls-1" cx="107.07" cy="265.11" r="18.31"/><g class="cls-6"><path class="cls-1" d="M138.44,243.66q-3.67,4.07-7.33,8.14c.17-1.53-1.5-2.39-3.11-.76-2.16,2.17-4.31,4.37-6.44,6.57,2.72-3.16,5.45-6.3,8.23-9.41,1.9-2.13-.46-4.27-2.41-2.16l-16.66,18.08,13.6-18.57a1.38,1.38,0,0,0-.75-2.37l1.91-2.25c1.78-2.12-.47-4.2-2.33-2.11q-7.05,7.92-13.82,16.06-3.93,4.44-7.94,8.8,7.81-10.22,15.62-20.42c1.61-2.1-.57-4.18-2.26-2q-8.09,10.34-16.68,20.21,6.86-9.72,13.56-19.54c1.48-2.08,2.93-4.18,4.32-6.32,1.54-2.37-1.59-3-2.88-1.08-.43.63-.87,1.26-1.29,1.89.06-1.31-1.75-1.89-2.81-.52A168.46,168.46,0,0,1,96.34,250.4c2.07-2.88,4.14-5.75,6.2-8.64,1.25-1.76-1.11-3-2.33-1.4a136.83,136.83,0,0,1-12.1,13.81c-1.1,1.09-.53,2.21.44,2.29l-3.21,4.45c-1.1,1.51.61,3,2,1.8q3.27-2.81,6.39-5.76Q88,264.21,81.67,271.07c-1.36,1.49-.06,3.91,1.74,2.31l.41-.38h0c2.5-2.24,4.93-4.56,7.31-6.92-3.4,4.77-6.8,9.52-10.25,14.26-1.45,2,1.12,3,2.56,1.53l1-1L82,284c-1.63,2.13.34,4,2.27,2.05,1-1.05,2.08-2.11,3.12-3.17-1.07,1.87,1.41,2.67,2.83,1.27q4-3.92,7.81-8-3.19,4.37-6.4,8.72c-1.26,1.72.37,2.81,1.82,2.21q-3.54,4.65-7,9.37h0L86,297c-1.57,2.13,1.27,3.5,2.8,1.69q8-9.49,16.28-18.69L101,285.22c-1.26,1.61-.51,3.15.74,3.16-1.22,1.76.15,4.31,2.19,2.47l.47-.43h0v0c1.32-1.19,2.61-2.4,3.9-3.61-.65.79-1.29,1.59-2,2.38-1.5,1.79-.23,4.42,2,2.69a158.14,158.14,0,0,0,23.3-21.94c1.95-2.25-.54-4.53-2.51-2.26q-4.11,4.74-8.56,9.1,4.5-5.83,8.84-11.79c1.3-1.8-.34-3-1.87-2.45q6.72-8.26,13.33-16.63C142.72,243.61,140.44,241.43,138.44,243.66Z"/></g><path class="cls-3" d="M114.53,252.48a4.53,4.53,0,0,0-2.5-1.9,7.36,7.36,0,0,0-3.46-1c-1.93-.13-3.47.15-4.59,1.18-1.77,1.64-1.38,2.42-1.4,4,0,.26.29,9.56.25,13.79,0,2.62,1.06,1.92,1.54,2.41a12,12,0,0,0-2,1.12,5.59,5.59,0,0,0-2.25,3.59,4.84,4.84,0,0,0,1.64,3.85,5.33,5.33,0,0,0,3.61,1.33,7.37,7.37,0,0,0,1-.08,8.07,8.07,0,0,0,3.34-.93,5.42,5.42,0,0,0,2.71-3.2,4.36,4.36,0,0,0-.3-3.21A4.64,4.64,0,0,0,108.4,271c.07-.05,1-.2,1.26-.7.58-1,3.42-8.89,3.85-10.36.32-1.1.63-2.2.91-3.31l.11-.33A4.38,4.38,0,0,0,114.53,252.48Z"/><path class="cls-4" d="M112.6,253.65a2.56,2.56,0,0,0-1.55-1,4.9,4.9,0,0,0-2.62-.77c-4.52-.29-3.91,1.89-3.92,3.89,0,2.94.31,9.11.42,13.17a1,1,0,0,0,1.16,1c.77,0,1.06,0,1.53-.4,1.19-1,3.23-8.5,3.72-10.18q.48-1.62.9-3.24C112.4,255.45,113,254.31,112.6,253.65Z"/><path class="cls-4" d="M107.75,272.93a.79.79,0,0,0-.63-.28c-2.66-.24-4.68,1.51-4.77,3.19-.08,1.45,1.26,3.15,3.72,2.74h0a5.88,5.88,0,0,0,2.51-.66c1.53-.84,2.11-2.29,1.45-3.47A3,3,0,0,0,107.75,272.93Z"/><path class="cls-2" d="M106.79,448.43c4.6-2.9,9.1-6,13.5-9.1a55.47,55.47,0,0,1-7.5,6.1C110.89,446.43,108.79,447.43,106.79,448.43Zm-36.1-115.2c-6.8,5.8-14.7,10.4-22.3,14.8L45,350C53.49,344.33,62,338.63,70.69,333.23Zm-15-.2a142.45,142.45,0,0,1-12.5,8.3c2-1.5,4-2.8,6-4.2S53.49,334.33,55.69,333Zm44.9,12.8c2.3-1.9,4.6-3.7,7-5.4C105.39,342.33,103,344.13,100.59,345.83Zm30.5,74.9c-1.3,1-2.7,2-4,2.9C128.39,422.73,129.79,421.73,131.09,420.73Zm-28,13.8c-6.7,5.4-13.8,11.2-21.6,15.1A146.73,146.73,0,0,1,103.09,434.53Zm25.3-23c-4.3,3-8.8,5.7-13.4,8.3,4.9-3.6,9.9-7.1,15.1-10.2l4.5-2.7A66.16,66.16,0,0,1,128.39,411.53Zm-64.8,35c3.5-2.4,6.9-4.9,10.4-7.4a64,64,0,0,1-10.6,8.2A3.09,3.09,0,0,1,63.59,446.53Zm32.7-31c-4.2,3-8.5,5.9-12.9,8.6-2.3,1.4-4.6,2.7-6.9,4.1,7.6-5.7,15.2-11.3,23.1-16.6,4.3-2.9,8.8-5.6,13.2-8.2-4.3,3.1-8.5,6.3-12.8,9.5C98.69,413.73,97.49,414.63,96.29,415.53Zm60.2-51.2a12.19,12.19,0,0,0-5.9.9l.3-.3c1.5-1.4-.4-2.5-1.6-2.6a11.92,11.92,0,0,0-8.1,2.2l-1.3.9c1.9-1.5,3.8-2.9,5.7-4.4,1.1-.9,1.9-2.4.1-3.1a8.2,8.2,0,0,0-4.4-.1c.6-.5,1.1-1,1.6-1.5,1-.9,2-2.4.1-3.1-2.5-.9-5.7.1-8,1.3-3.3,1.7-6.6,3.5-9.8,5.3a113.24,113.24,0,0,0,10.6-10.2c1.3-1.5-.3-2.5-1.6-2.6a10.44,10.44,0,0,0-2.5,0,104.66,104.66,0,0,0,11.4-10.7c1.3-1.5-.3-2.5-1.6-2.6a11.64,11.64,0,0,0-8.1,2.2,370.47,370.47,0,0,1-33.3,25.4c-2.7,1.7-5.3,3.4-8,5.1,13.3-9.3,26.2-19.3,37.2-31.4,1.3-1.5-.3-2.5-1.6-2.6a11.56,11.56,0,0,0-3.2.1,15.92,15.92,0,0,0,1.3-2.2c1.2-2.2-4-2-4.8-1.8a8.33,8.33,0,0,0-1.5.4c.6-.6,1.3-1.2,1.9-1.8,1.4-1.4-.4-2.5-1.7-2.6a11.92,11.92,0,0,0-8.1,2.2c-5.6,4-11.1,8-16.7,12-1.5.9-3,1.7-4.5,2.5-9.4,5.3-18.4,11.2-27.6,16.8l-3.1,1.8.3-.2c19.1-12.3,39.2-23.2,56.6-37.7,1.7-1.5,1.4-3.1-.9-3.4a11.78,11.78,0,0,0-8.1,2.2,118.2,118.2,0,0,1-10.4,7c2.3-1.7,4.7-3.4,6.9-5.2,1.8-1.4,1.4-3.1-.9-3.4a12.32,12.32,0,0,0-8.1,2.2l-7.8,5.7a54.45,54.45,0,0,0,5-6.6c1-1.6-.1-2.4-1.7-2.6a12.2,12.2,0,0,0-7,1.5c-2.7,1.4-5.4,2.9-8.1,4.4.3-.4.7-.8,1-1.2,2.9-3.7-6.3-2.1-7.3-1.7-9.4,3.2-18.5,8.3-27.1,14a147.65,147.65,0,0,0-24.8,19.8c-1.5,1.5.1,2.2,1.6,2.5a71,71,0,0,0-9.4,8.8c-1.3,1.5.3,2.5,1.6,2.6a11.46,11.46,0,0,0,7-1.5c.6-.3,1.1-.7,1.7-1a74.85,74.85,0,0,0-9,7.9c-1.4,1.4.4,2.5,1.6,2.6a13.26,13.26,0,0,0,7-1.5c1.1-.5,2.2-1.1,3.3-1.6-4.3,3.7-8.6,7.7-12.6,11.8-1.4,1.4.4,2.5,1.7,2.6a6.7,6.7,0,0,0,2,0c-1.5,1.5-2.9,3.1-4.3,4.7s.2,2.5,1.6,2.7a10.75,10.75,0,0,0,3.1-.1c-1.3.9-2.7,1.8-4,2.8-1.9,1.4-1.3,3.1.9,3.3a11.78,11.78,0,0,0,8.1-2.2l4-2.8c11.9-8.1,24.7-14.7,37.2-21.7-4.6,3.6-9.3,7.2-14,10.6-4.4,2.3-8.9,4.5-13.4,6.6-7,3.3-16.8,7.1-19.9,14.9-1.1,2.8,5.4,1.7,6.3,1.5a32.88,32.88,0,0,0,6-2.1c-2.6,1.9-5.2,3.9-7.8,5.8-1.2.8-1.9,2.5-.1,3.1,2.5.9,5.8-.1,8-1.3l.1-.1a58.52,58.52,0,0,0-7.4,8.3c-1.1,1.5.1,2.4,1.7,2.6a12.2,12.2,0,0,0,7-1.5c.9-.5,1.9-1,2.8-1.5-2.3,2.1-4.6,4.2-6.9,6.4-1.4,1.4.4,2.5,1.6,2.6a11.15,11.15,0,0,0,5.4-.8,18.24,18.24,0,0,0-4.1,8.9c-.5,2.9,4.9,1.9,6.3,1.5a48.51,48.51,0,0,0,9.2-3.5c-1.8,1.9-3.5,3.9-5.2,6-1.2,1.5.2,2.4,1.7,2.6a11.83,11.83,0,0,0,3.7-.2,10.7,10.7,0,0,0-1.4,1.6c-1.3,1.5.3,2.5,1.7,2.6a11.46,11.46,0,0,0,7-1.5l.5-.3c-1.1,1-2.2,2.1-3.3,3.2-1.4,1.4.4,2.5,1.7,2.6a10.85,10.85,0,0,0,4-.3c.2,0,.5-.1.8-.1l.3,1.2c.7,2.1,4.9,1.2,6.3.8l.7-.2c-1.2,1.5.3,2.4,1.7,2.6a10.45,10.45,0,0,0,2.5,0c-1,1.9,3.8,2.1,4.8,1.9,2.2-.4,4.4-1,6.5-1.6-.6.3-1.2.7-1.8,1-.9.5-3.3,2.1-1.9,3.4s4.3.7,5.9.2,2.9-.8,4.3-1.3c-.8.7-1.3,1.6-.5,2.4,1.8,1.6,5.5.5,7.4-.2,10.6-4.1,21-8.5,30.3-14.4,1.8-.9,3.6-1.9,5.4-2.9,11.1-6.2,22.6-14.7,26.8-27.4.7-2-1.9-2.1-4.5-1.7a45.68,45.68,0,0,0,5.4-6.9c1.1-1.9-.1-2.5-1.9-2.5a32.13,32.13,0,0,0,6.3-9.5c.4-1.1-.7-1.6-1.6-1.8a19.22,19.22,0,0,0,1.6-4.2c.6-2.3-3.6-2-4.8-1.8a20.48,20.48,0,0,0-2.4.5c1.6-1.7,3.2-3.4,4.7-5.3,1.2-1.5-.2-2.4-1.6-2.6a6.6,6.6,0,0,0-1.4-.1,40.67,40.67,0,0,0,4.8-6.7c1.3-2.3-3.8-1.8-6.4-1.3,2.9-2,5.7-4.2,8.5-6.5C159.09,366.23,158.79,364.63,156.49,364.33Z"/><path class="cls-3" d="M139.89,435.33a67.13,67.13,0,0,1-25.7,20.2,62.68,62.68,0,0,1-18.5,5,65.3,65.3,0,0,0,7.6-2A81.56,81.56,0,0,0,139.89,435.33Zm-100.1,10.2a61,61,0,0,1-9.5-9.5A94.66,94.66,0,0,0,39.79,445.53Zm33.9-116.8c1.2-.1,2.3-3,2.3-3.8,0-.3-.2-.9-1.4-.9h-.4c-11.8,1-23.1,3.3-32.9,10.4,1.3-1,2.6-2,3.9-2.9,11-7.5,24.9-11.6,39.1-11.6,9.6,0,19.1,2.9,27.5,6.5a66.93,66.93,0,0,1,37.4,39.8c2.8,10.1,5.6,20.6,4.4,31.2-1.9,16.1-10.4,30.2-21,40.7a76.12,76.12,0,0,1-44.8,21.1,61.81,61.81,0,0,1-12.9.1c-2.8-.6-7.6-1.4-10.3-2.4-28.6-10.3-51.2-39.5-51.2-67.7,0-15.3,9.1-31,19.6-43.2C44,333.73,58.39,330.13,73.69,328.73Zm82,36.3c-5.4-19.2-16.5-37.1-33-46.9l-2.8.5a9.91,9.91,0,0,0-1.8-.2c-1,0-.8.7-1.1,1.6-.1.2-.1.6.5,1,3.2,1.8,10.3,7.9,13.1,10.3-11.8-7.4-32.1-16.2-46.7-15.9-22.6.5-43.2,12.2-56.5,28.5-11.7,14.2-17.6,30.8-16.2,50.7s10.3,39,24.5,50.7c10.2,8.4,23.2,17.5,37.5,18.6,4.8,1,9.7.5,14.6.5,13,0,25.8-4.6,36.8-11.4a71,71,0,0,0,33.5-52.6C159.39,388.73,159.89,376.43,155.69,365Z"/><path class="cls-3" d="M49.17,402.77c5.09-6.21,19.25-13.18,30.27-13.25,13.36-.1,26.22,4.47,34.7,15.57,2,2.66,6.38,1,8.06-.65,2.07-2.09,4.24-5.23,2.67-8.35-7.64-15.18-29.4-23-44.55-22.3-15.92.77-33.69,8.18-42.45,24C36,401.2,47.1,405.28,49.17,402.77Z"/><path class="cls-3" d="M37.7,384.67c6.85-8,25-20.51,43.58-20,18,.49,35.3,5.76,46.72,20.06,2.73,3.42,7.83,1.33,10.09-.84,2.79-2.7,6-5.27,3.85-9.28-10.28-19.55-40.82-29.66-61.22-28.72-21.42,1-44.76,11.32-56.14,31.87C21.18,383.9,34.91,387.9,37.7,384.67Z"/><path class="cls-3" d="M59.46,421c4.25-5.95,12.82-9.56,19.64-9.47,8.66.11,14.05,5,19.42,12.1,2,2.64,6.25.23,7.91-1.48,2.2-2.25,3.95-4.21,2.63-7.52-4.46-11.27-19-17.94-29.49-17.17-12.29.91-24.52,7.08-31.42,19.14-1.84,3.22,9.23,7,11.31,4.4Z"/><path class="cls-3" d="M66.92,431.4l10.39,9.35a3.47,3.47,0,0,0,4.7-.07l9-8.54a2.42,2.42,0,0,0,.26-3.47c-3.37-4.44-12.19-12.61-24.11-3C66.42,426.28,66.24,430.79,66.92,431.4Z"/><path class="cls-4" d="M79.78,385.74c15.62,0,28.82,6,37.23,17a3.84,3.84,0,0,0,2.44-.94c.8-.81,2.59-2.81,2-4-5.25-10.44-22.41-21.13-41-20.23-13.61.66-31,6.68-39.1,21.59.79.8,4.08,1.72,5.33,1.67,6.22-7,20.9-15,32.67-15.08Z"/><path class="cls-4" d="M81.37,360.8c22,.59,38.65,7.82,49.56,21.47a.94.94,0,0,0,.79.39,6,6,0,0,0,3.73-1.59l.66-.62a11.08,11.08,0,0,0,1.9-2.08,3.37,3.37,0,0,0-.42-1.11c-9.29-17.66-36.13-28.61-55.71-27.7-18.85.87-42.94,9.93-54,29.92a.3.3,0,0,0,0,.08,5.29,5.29,0,0,0,2.33,1.55,9.32,9.32,0,0,0,4.88.75c7.31-8.37,25.63-21.08,45.13-21.08Z"/><path class="cls-4" d="M52.86,417.37a11.47,11.47,0,0,0,3.8.81c5.33-6.86,14.93-10.4,22-10.4h.27c10.5.14,16.85,6.4,22.1,13.24a6.13,6.13,0,0,0,2.48-1.47c2.29-2.35,2.17-2.64,1.83-3.5-3.79-9.56-16.59-15.46-25.71-14.8C68.4,402.08,58.73,407.5,52.86,417.37Z"/><path class="cls-4" d="M69.73,428.78l9.92,9,8-7.58c-1.16-1.28-4.51-4.32-7.87-4.73C76.63,425.12,73.27,426.22,69.73,428.78Z"/><circle class="cls-3" cx="107.14" cy="421.73" r="22.53"/><path class="cls-1" d="M126.16,422.12c0,10.11-9,18.31-19.09,18.31S88.4,433.2,88.4,423.09,97,403.8,107.07,403.8,126.16,412,126.16,422.12Z"/><g class="cls-7"><path class="cls-1" d="M138.44,400.67q-3.67,4.06-7.33,8.14c.17-1.53-1.5-2.39-3.11-.76q-3.24,3.26-6.44,6.57c2.72-3.16,5.45-6.3,8.23-9.41,1.9-2.13-.46-4.27-2.41-2.16q-8.32,9-16.66,18.07l13.6-18.56a1.38,1.38,0,0,0-.75-2.37c.64-.76,1.28-1.5,1.91-2.26,1.78-2.11-.47-4.19-2.33-2.1q-7.05,7.92-13.82,16.06-3.93,4.42-7.94,8.8,7.81-10.21,15.62-20.42c1.61-2.1-.57-4.19-2.26-2q-8.09,10.32-16.68,20.21,6.86-9.72,13.56-19.54c1.48-2.08,2.93-4.18,4.32-6.32,1.54-2.37-1.59-3-2.88-1.08-.43.63-.87,1.25-1.29,1.88.06-1.31-1.75-1.89-2.81-.51a170,170,0,0,1-12.63,14.54l6.2-8.64c1.25-1.76-1.11-3-2.33-1.4a136.72,136.72,0,0,1-12.1,13.8c-1.1,1.1-.53,2.22.44,2.29l-3.21,4.46c-1.1,1.51.61,3,2,1.8q3.27-2.81,6.39-5.76Q88,421.21,81.67,428.08c-1.36,1.48-.06,3.91,1.74,2.3l.41-.37h0q3.75-3.37,7.31-6.93c-3.4,4.77-6.8,9.53-10.25,14.26-1.45,2,1.12,3,2.56,1.54.33-.34.65-.68,1-1L82,441c-1.63,2.12.34,4,2.27,2,1-1.05,2.08-2.11,3.12-3.16-1.07,1.86,1.41,2.67,2.83,1.27,2.64-2.61,5.24-5.27,7.81-7.95l-6.4,8.72c-1.26,1.72.37,2.8,1.82,2.21q-3.54,4.65-7,9.37h0L86,454c-1.57,2.13,1.27,3.5,2.8,1.68q8-9.48,16.28-18.68L101,442.23c-1.26,1.61-.51,3.15.74,3.16-1.22,1.76.15,4.31,2.19,2.47l.47-.44h0v0c1.32-1.19,2.61-2.4,3.9-3.61-.65.79-1.29,1.59-2,2.37-1.5,1.8-.23,4.43,2,2.69a157.55,157.55,0,0,0,23.3-21.93c1.95-2.25-.54-4.53-2.51-2.26q-4.11,4.74-8.56,9.1,4.5-5.83,8.84-11.79c1.3-1.8-.34-3-1.87-2.45q6.72-8.26,13.33-16.63C142.72,400.61,140.44,398.44,138.44,400.67Z"/></g><path class="cls-3" d="M114.53,409.49a4.48,4.48,0,0,0-2.5-1.9,7.36,7.36,0,0,0-3.46-1c-1.93-.12-3.47.15-4.59,1.19-1.77,1.64-1.38,2.42-1.4,4,0,.26.29,9.55.25,13.78,0,2.63,1.06,1.93,1.54,2.42a12,12,0,0,0-2,1.12,5.54,5.54,0,0,0-2.25,3.59,4.86,4.86,0,0,0,1.64,3.85,5.33,5.33,0,0,0,3.61,1.33,7.37,7.37,0,0,0,1-.08,8.22,8.22,0,0,0,3.34-.93,5.45,5.45,0,0,0,2.71-3.2,4.38,4.38,0,0,0-.3-3.22A4.66,4.66,0,0,0,108.4,428c.07,0,1-.2,1.26-.71.58-1,3.42-8.89,3.85-10.35.32-1.1.63-2.21.91-3.31l.11-.33A4.39,4.39,0,0,0,114.53,409.49Z"/><path class="cls-4" d="M112.6,410.66a2.52,2.52,0,0,0-1.55-1,4.9,4.9,0,0,0-2.62-.77c-4.52-.29-3.91,1.89-3.92,3.89,0,2.94.31,9.1.42,13.17a1,1,0,0,0,1.16,1c.77,0,1.06,0,1.53-.4,1.19-1,3.23-8.5,3.72-10.19.32-1.07.62-2.15.9-3.23C112.4,412.46,113,411.31,112.6,410.66Z"/><path class="cls-4" d="M107.75,429.75a.75.75,0,0,0-.63-.31,4.21,4.21,0,0,0-4.77,3.55,3,3,0,0,0,3.72,3h0a5.2,5.2,0,0,0,2.51-.73,3,3,0,0,0,1.45-3.86A3,3,0,0,0,107.75,429.75Z"/><path class="cls-2" d="M107,604.82c4.6-2.9,9.1-6,13.5-9.1a55.47,55.47,0,0,1-7.5,6.1C111.12,602.82,109,603.82,107,604.82Zm-36.1-115.2c-6.8,5.8-14.7,10.4-22.3,14.8l-3.4,2C53.72,500.72,62.22,495,70.92,489.62Zm-15-.2a142.45,142.45,0,0,1-12.5,8.3c2-1.5,4-2.8,6-4.2S53.72,490.72,55.92,489.42Zm44.9,12.8c2.3-1.9,4.6-3.7,7-5.4C105.62,498.72,103.22,500.52,100.82,502.22Zm30.5,74.9c-1.3,1-2.7,2-4,2.9C128.62,579.12,130,578.12,131.32,577.12Zm-28,13.8c-6.7,5.4-13.8,11.2-21.6,15.1A146.73,146.73,0,0,1,103.32,590.92Zm25.3-23c-4.3,3-8.8,5.7-13.4,8.3,4.9-3.6,9.9-7.1,15.1-10.2l4.5-2.7A66.16,66.16,0,0,1,128.62,567.92Zm-64.8,35c3.5-2.4,6.9-4.9,10.4-7.4a64,64,0,0,1-10.6,8.2A3.09,3.09,0,0,1,63.82,602.92Zm32.7-31c-4.2,3-8.5,5.9-12.9,8.6-2.3,1.4-4.6,2.7-6.9,4.1,7.6-5.7,15.2-11.3,23.1-16.6,4.3-2.9,8.8-5.6,13.2-8.2-4.3,3.1-8.5,6.3-12.8,9.5C98.92,570.12,97.72,571,96.52,571.92Zm60.2-51.2a12.19,12.19,0,0,0-5.9.9l.3-.3c1.5-1.4-.4-2.5-1.6-2.6a11.92,11.92,0,0,0-8.1,2.2l-1.3.9c1.9-1.5,3.8-2.9,5.7-4.4,1.1-.9,1.9-2.4.1-3.1a8.2,8.2,0,0,0-4.4-.1c.6-.5,1.1-1,1.6-1.5,1-.9,2-2.4.1-3.1-2.5-.9-5.7.1-8,1.3-3.3,1.7-6.6,3.5-9.8,5.3A113.24,113.24,0,0,0,136,506c1.3-1.5-.3-2.5-1.6-2.6a10.44,10.44,0,0,0-2.5,0,104.66,104.66,0,0,0,11.4-10.7c1.3-1.5-.3-2.5-1.6-2.6a11.64,11.64,0,0,0-8.1,2.2,370.47,370.47,0,0,1-33.3,25.4c-2.7,1.7-5.3,3.4-8,5.1,13.3-9.3,26.2-19.3,37.2-31.4,1.3-1.5-.3-2.5-1.6-2.6a11.56,11.56,0,0,0-3.2.1,15.92,15.92,0,0,0,1.3-2.2c1.2-2.2-4-2-4.8-1.8a8.33,8.33,0,0,0-1.5.4c.6-.6,1.3-1.2,1.9-1.8,1.4-1.4-.4-2.5-1.7-2.6a11.92,11.92,0,0,0-8.1,2.2c-5.6,4-11.1,8-16.7,12-1.5.9-3,1.7-4.5,2.5-9.4,5.3-18.4,11.2-27.6,16.8l-3.1,1.8.3-.2c19.1-12.3,39.2-23.2,56.6-37.7,1.7-1.5,1.4-3.1-.9-3.4a11.78,11.78,0,0,0-8.1,2.2,118.2,118.2,0,0,1-10.4,7c2.3-1.7,4.7-3.4,6.9-5.2,1.8-1.4,1.4-3.1-.9-3.4a12.32,12.32,0,0,0-8.1,2.2l-7.8,5.7a54.45,54.45,0,0,0,5-6.6c1-1.6-.1-2.4-1.7-2.6a12.2,12.2,0,0,0-7,1.5c-2.7,1.4-5.4,2.9-8.1,4.4.3-.4.7-.8,1-1.2,2.9-3.7-6.3-2.1-7.3-1.7-9.4,3.2-18.5,8.3-27.1,14A147.65,147.65,0,0,0,17.52,511c-1.5,1.5.1,2.2,1.6,2.5a71,71,0,0,0-9.4,8.8c-1.3,1.5.3,2.5,1.6,2.6a11.46,11.46,0,0,0,7-1.5c.6-.3,1.1-.7,1.7-1a74.85,74.85,0,0,0-9,7.9c-1.4,1.4.4,2.5,1.6,2.6a13.26,13.26,0,0,0,7-1.5c1.1-.5,2.2-1.1,3.3-1.6-4.3,3.7-8.6,7.7-12.6,11.8-1.4,1.4.4,2.5,1.7,2.6a6.7,6.7,0,0,0,2,0c-1.5,1.5-2.9,3.1-4.3,4.7s.2,2.5,1.6,2.7a10.75,10.75,0,0,0,3.1-.1c-1.3.9-2.7,1.8-4,2.8-1.9,1.4-1.3,3.1.9,3.3a11.78,11.78,0,0,0,8.1-2.2l4-2.8c11.9-8.1,24.7-14.7,37.2-21.7-4.6,3.6-9.3,7.2-14,10.6-4.4,2.3-8.9,4.5-13.4,6.6-7,3.3-16.8,7.1-19.9,14.9-1.1,2.8,5.4,1.7,6.3,1.5a32.88,32.88,0,0,0,6-2.1c-2.6,1.9-5.2,3.9-7.8,5.8-1.2.8-1.9,2.5-.1,3.1,2.5.9,5.8-.1,8-1.3l.1-.1a58.52,58.52,0,0,0-7.4,8.3c-1.1,1.5.1,2.4,1.7,2.6a12.2,12.2,0,0,0,7-1.5c.9-.5,1.9-1,2.8-1.5-2.3,2.1-4.6,4.2-6.9,6.4-1.4,1.4.4,2.5,1.6,2.6A11.15,11.15,0,0,0,30,586a18.24,18.24,0,0,0-4.1,8.9c-.5,2.9,4.9,1.9,6.3,1.5a48.51,48.51,0,0,0,9.2-3.5c-1.8,1.9-3.5,3.9-5.2,6-1.2,1.5.2,2.4,1.7,2.6a11.83,11.83,0,0,0,3.7-.2,10.7,10.7,0,0,0-1.4,1.6c-1.3,1.5.3,2.5,1.7,2.6a11.46,11.46,0,0,0,7-1.5l.5-.3c-1.1,1-2.2,2.1-3.3,3.2-1.4,1.4.4,2.5,1.7,2.6a10.85,10.85,0,0,0,4-.3c.2,0,.5-.1.8-.1l.3,1.2c.7,2.1,4.9,1.2,6.3.8l.7-.2c-1.2,1.5.3,2.4,1.7,2.6a10.45,10.45,0,0,0,2.5,0c-1,1.9,3.8,2.1,4.8,1.9,2.2-.4,4.4-1,6.5-1.6-.6.3-1.2.7-1.8,1-.9.5-3.3,2.1-1.9,3.4s4.3.7,5.9.2,2.9-.8,4.3-1.3c-.8.7-1.3,1.6-.5,2.4,1.8,1.6,5.5.5,7.4-.2,10.6-4.1,21-8.5,30.3-14.4,1.8-.9,3.6-1.9,5.4-2.9,11.1-6.2,22.6-14.7,26.8-27.4.7-2-1.9-2.1-4.5-1.7a45.68,45.68,0,0,0,5.4-6.9c1.1-1.9-.1-2.5-1.9-2.5a32.13,32.13,0,0,0,6.3-9.5c.4-1.1-.7-1.6-1.6-1.8a19.22,19.22,0,0,0,1.6-4.2c.6-2.3-3.6-2-4.8-1.8a20.48,20.48,0,0,0-2.4.5c1.6-1.7,3.2-3.4,4.7-5.3,1.2-1.5-.2-2.4-1.6-2.6a6.6,6.6,0,0,0-1.4-.1,40.67,40.67,0,0,0,4.8-6.7c1.3-2.3-3.8-1.8-6.4-1.3,2.9-2,5.7-4.2,8.5-6.5C159.32,522.62,159,521,156.72,520.72Z"/><path class="cls-3" d="M140.12,591.72a67.13,67.13,0,0,1-25.7,20.2,62.68,62.68,0,0,1-18.5,5,65.3,65.3,0,0,0,7.6-2A81.56,81.56,0,0,0,140.12,591.72ZM40,601.92a61,61,0,0,1-9.5-9.5A94.66,94.66,0,0,0,40,601.92Zm33.9-116.8c1.2-.1,2.3-3,2.3-3.8,0-.3-.2-.9-1.4-.9h-.4c-11.8,1-23.1,3.3-32.9,10.4,1.3-1,2.6-2,3.9-2.9,11-7.5,24.9-11.6,39.1-11.6,9.6,0,19.1,2.9,27.5,6.5,17.3,7.4,32.6,20.9,39.4,39.8,2.8,10.1,4.6,20.6,3.4,31.2-1.9,16.1-11.4,30.2-22,40.7A76.12,76.12,0,0,1,88,615.62a61.81,61.81,0,0,1-12.9.1c-2.8-.6-7.6-1.4-10.3-2.4-28.6-10.3-51.2-39.5-51.2-67.7,0-15.3,9.1-31,19.6-43.2C44.22,490.12,58.62,486.52,73.92,485.12Zm80,32.3c-5.4-19.2-14.5-33.1-31-42.9l-2.8.5a9.91,9.91,0,0,0-1.8-.2c-1,0-.8.7-1.1,1.6-.1.2-.1.6.5,1,3.2,1.8,10.3,7.9,13.1,10.3-11.8-7.4-32.1-16.2-46.7-15.9-22.6.5-45.2,12.2-58.5,28.5-11.7,14.2-16.6,28.8-15.2,48.7s11.3,40,25.5,51.7c10.2,8.4,25.89,16.2,37.5,18.6a71.64,71.64,0,0,0,14.6,1.5c13,0,25.8-4.6,36.8-11.4a71,71,0,0,0,33.5-52.6C159.62,545.12,158.12,528.82,153.92,517.42Z"/><path class="cls-3" d="M49.4,559.17C54.49,553,68.65,546,79.67,545.91c13.36-.1,26.22,4.47,34.7,15.58,2,2.66,6.38,1,8.06-.66,2.07-2.09,4.24-5.23,2.67-8.35-7.64-15.18-29.4-23-44.55-22.3-15.92.77-33.69,8.18-42.45,24C36.2,557.6,47.33,561.68,49.4,559.17Z"/><path class="cls-3" d="M37.92,541.06c6.86-8,25-20.51,43.59-20,18,.48,35.3,5.76,46.71,20.05,2.74,3.42,7.84,1.34,10.1-.84,2.79-2.7,6-5.26,3.85-9.28-10.28-19.55-40.82-29.66-61.22-28.71-21.42,1-44.76,11.32-56.14,31.86C21.41,540.3,35.14,544.29,37.92,541.06Z"/><path class="cls-3" d="M59.69,577.4c4.25-5.94,12.82-9.56,19.64-9.47C88,568,93.38,573,98.75,580c2,2.64,6.25.22,7.91-1.48,2.2-2.26,4-4.22,2.63-7.53-4.46-11.26-19-17.94-29.49-17.16-12.29.9-24.52,7.07-31.42,19.14-1.84,3.21,9.23,7,11.31,4.39Z"/><path class="cls-3" d="M67.15,587.8l10.39,9.34a3.45,3.45,0,0,0,4.7-.07l9-8.53a2.41,2.41,0,0,0,.25-3.47c-3.36-4.45-12.18-12.62-24.1-3C66.65,582.68,66.47,587.18,67.15,587.8Z"/><path class="cls-4" d="M80,542.14c15.62,0,28.82,6,37.23,17a3.84,3.84,0,0,0,2.44-.94c.8-.81,2.59-2.81,2-4-5.25-10.43-22.41-21.13-41-20.23-13.61.66-31,6.69-39.1,21.6.79.8,4.08,1.72,5.33,1.67,6.22-7,20.9-15,32.67-15.08Z"/><path class="cls-4" d="M81.59,517.19c22,.6,38.66,7.82,49.57,21.48a.93.93,0,0,0,.79.38,5.93,5.93,0,0,0,3.73-1.59l.66-.62a11.08,11.08,0,0,0,1.9-2.08,3.46,3.46,0,0,0-.42-1.11c-9.29-17.65-36.13-28.6-55.71-27.7-18.85.88-42.94,9.94-54,29.92a.59.59,0,0,0,0,.08,5.27,5.27,0,0,0,2.33,1.56,9.43,9.43,0,0,0,4.88.75c7.31-8.37,25.63-21.08,45.13-21.08Z"/><path class="cls-4" d="M53.09,573.76a11.23,11.23,0,0,0,3.8.81c5.32-6.86,14.93-10.4,22-10.4h.27c10.5.13,16.85,6.39,22.1,13.24a6.37,6.37,0,0,0,2.48-1.47c2.29-2.35,2.17-2.65,1.83-3.51C101.78,562.89,89,557,79.86,557.65,68.63,558.47,59,563.89,53.09,573.76Z"/><path class="cls-4" d="M70,585.18l9.92,9,8-7.58c-1.16-1.28-4.51-4.32-7.87-4.73C76.86,581.51,73.5,582.61,70,585.18Z"/><circle class="cls-3" cx="107.37" cy="578.13" r="22.53"/><path class="cls-1" d="M126.39,578.51c0,10.12-9,18.32-19.09,18.32s-18.67-7.23-18.67-17.35,8.55-19.28,18.67-19.28S126.39,568.4,126.39,578.51Z"/><g class="cls-8"><path class="cls-1" d="M138.67,557.06q-3.67,4.07-7.33,8.14c.17-1.53-1.5-2.38-3.11-.76q-3.24,3.27-6.44,6.57c2.72-3.16,5.45-6.3,8.23-9.4,1.9-2.14-.46-4.28-2.41-2.17L111,577.52,124.54,559a1.37,1.37,0,0,0-.74-2.37l1.91-2.25c1.78-2.12-.47-4.2-2.33-2.1q-7,7.9-13.82,16-3.93,4.44-7.94,8.8,7.81-10.22,15.62-20.42c1.61-2.1-.57-4.18-2.26-2Q106.9,565,98.3,574.83q6.86-9.72,13.56-19.54c1.48-2.08,2.93-4.18,4.32-6.32,1.54-2.37-1.59-3-2.89-1.08L112,549.78c.06-1.31-1.75-1.89-2.81-.52a170.11,170.11,0,0,1-12.63,14.55q3.11-4.32,6.2-8.65c1.25-1.76-1.11-3-2.33-1.4a136.83,136.83,0,0,1-12.1,13.81c-1.1,1.09-.53,2.21.44,2.29l-3.21,4.45c-1.1,1.51.61,3,2,1.81q3.27-2.82,6.39-5.77-5.77,7.26-12.06,14.12c-1.36,1.49-.06,3.91,1.74,2.31l.41-.38h0c2.5-2.24,4.93-4.56,7.31-6.92-3.4,4.77-6.8,9.53-10.25,14.26-1.46,2,1.12,3,2.56,1.54l1-1-2.42,3.16c-1.63,2.13.34,4,2.27,2.05,1.05-1.05,2.08-2.11,3.12-3.17-1.07,1.87,1.41,2.67,2.83,1.27q4-3.91,7.81-7.95-3.19,4.36-6.4,8.72c-1.26,1.72.37,2.81,1.82,2.21q-3.54,4.65-7,9.37h0l-.37.5c-1.57,2.13,1.27,3.5,2.8,1.69q8-9.48,16.28-18.69l-4.12,5.22c-1.26,1.6-.51,3.15.74,3.15-1.22,1.76.15,4.31,2.19,2.48l.47-.44h0c1.32-1.2,2.61-2.41,3.9-3.62-.65.79-1.29,1.59-2,2.38-1.5,1.79-.23,4.42,2,2.69a157.09,157.09,0,0,0,23.3-21.94c2-2.25-.54-4.53-2.51-2.26q-4.11,4.74-8.56,9.1,4.5-5.83,8.84-11.79c1.3-1.79-.34-3-1.87-2.45q6.72-8.26,13.33-16.63C143,557,140.67,554.83,138.67,557.06Z"/></g><path class="cls-3" d="M114.76,565.88a4.53,4.53,0,0,0-2.5-1.9,7.36,7.36,0,0,0-3.46-1c-1.93-.13-3.47.15-4.59,1.18-1.77,1.64-1.38,2.42-1.4,4,0,.26.29,9.56.25,13.79,0,2.62,1.06,1.92,1.54,2.41a12,12,0,0,0-2,1.12,5.59,5.59,0,0,0-2.25,3.59A4.83,4.83,0,0,0,102,593a5.28,5.28,0,0,0,3.61,1.33,7.37,7.37,0,0,0,1-.08,8.07,8.07,0,0,0,3.34-.93,5.42,5.42,0,0,0,2.71-3.2,4.36,4.36,0,0,0-.3-3.21,4.63,4.63,0,0,0-3.72-2.46c.07-.06,1-.21,1.26-.71.58-1,3.42-8.89,3.85-10.36.32-1.1.63-2.2.91-3.31l.11-.32A4.44,4.44,0,0,0,114.76,565.88Z"/><path class="cls-4" d="M112.83,567.05a2.56,2.56,0,0,0-1.55-1,4.93,4.93,0,0,0-2.62-.77c-4.52-.29-3.91,1.89-3.92,3.89,0,2.94.31,9.11.42,13.17a1,1,0,0,0,1.16,1c.77,0,1.06,0,1.53-.4,1.19-1,3.23-8.5,3.72-10.18q.48-1.62.9-3.24C112.63,568.85,113.22,567.71,112.83,567.05Z"/><path class="cls-4" d="M108,586.14a.77.77,0,0,0-.63-.31,4.22,4.22,0,0,0-4.77,3.56,3,3,0,0,0,3.72,3h0a5.43,5.43,0,0,0,2.51-.73,3,3,0,0,0,1.45-3.87A3,3,0,0,0,108,586.14Z"/></g></svg>