<svg xmlns="http://www.w3.org/2000/svg" viewBox="0 0 168 624"><defs><style>.cls-1{fill:#009dff;}.cls-2{fill:#09519f;}.cls-3{fill:#f9c236;}.cls-4{fill:#fff;}.cls-5{fill:#042f70;}</style></defs><title>pulou</title><g id="Camada_6" data-name="Camada 6"><path class="cls-1" d="M150.76,93.65a31,31,0,0,0,5.69-8.29,3.17,3.17,0,0,1-.31-.94c-.1-.65-.22-1.3-.33-1.95l-.45-.13c.11-.21.21-.42.31-.63-.35-1.84-.76-3.67-1.2-5.49a11.49,11.49,0,0,0-2.31.12,20.47,20.47,0,0,0-2.4.5c1.29-1.37,2.57-2.75,3.8-4.18q-.49-1.83-1-3.66a8.09,8.09,0,0,0-1.1-.06c.28-.31.55-.64.82-1-.66-2.37-1.33-4.74-1.95-7.13l-.47.09.41-.3a103.41,103.41,0,0,1-2.41-11.55,12.88,12.88,0,0,0-6,2.25l-1.3.9c1.9-1.5,3.8-2.9,5.7-4.4,1.1-.9,1.9-2.5.1-3.1a8.2,8.2,0,0,0-4.4-.1c.5-.5,1.1-1,1.6-1.5,1-.9,2-2.4.1-3.1-2.5-.9-5.7.1-8,1.3-3.3,1.7-6.6,3.5-9.8,5.3a113.24,113.24,0,0,0,10.6-10.2c1.3-1.5-.3-2.5-1.6-2.6a10.45,10.45,0,0,0-2.5,0c2-1.62,3.89-3.28,5.76-5q-2.94-2.26-5.82-4.59a377.87,377.87,0,0,1-31.54,23.9c-2.7,1.7-5.3,3.4-8,5.1,13.2-9.23,26-19.16,37-31.14l-.18-.15a2.87,2.87,0,0,1-1.11-2.7h-.07a11.56,11.56,0,0,0-3.2.1,15.92,15.92,0,0,0,1.3-2.2c1.2-2.2-4-2-4.8-1.8a8.33,8.33,0,0,0-1.5.4c.6-.6,1.3-1.2,1.9-1.8a1.32,1.32,0,0,0,.49-1.22L120,12.12l-2.82-.64a13.2,13.2,0,0,0-4.82,2.07c-5.6,4-11.1,8-16.7,12-1.5.9-3,1.7-4.5,2.5-9.4,5.3-18.4,11.2-27.6,16.8l-3.1,1.8.3-.2C78.88,34.79,97.9,24.37,114.65,11c-2.92-.59-5.86-1.1-8.81-1.52-2.57,1.82-5.25,3.47-7.88,5.12,2.3-1.7,4.7-3.4,6.9-5.2l.05,0c-2.8-.38-5.6-.67-8.4-.85l-1-.06-7.47,5.46a48.28,48.28,0,0,0,4.39-5.67c-1.87-.14-3.74-.32-5.6-.61a20.94,20.94,0,0,1-3.42-.92c-2.39,1.26-4.78,2.57-7.17,3.9.3-.4.7-.8,1-1.2,2.9-3.7-6.3-2.1-7.3-1.7a125.77,125.77,0,0,0-27.5,14.2,150.85,150.85,0,0,0-24.4,19.6c-1.5,1.5.1,2.2,1.6,2.5a71,71,0,0,0-9.4,8.8c-1.4,1.5.2,2.5,1.6,2.6a11.46,11.46,0,0,0,7-1.5c.6-.3,1.1-.7,1.7-1a74.86,74.86,0,0,0-9,7.9c-1.4,1.4.4,2.5,1.6,2.6a13.26,13.26,0,0,0,7-1.5c1.1-.5,2.2-1.1,3.3-1.6-4.3,3.7-8.6,7.7-12.6,11.8-1.4,1.4.4,2.5,1.6,2.6a6.7,6.7,0,0,0,2,0c-1.5,1.5-2.9,3.1-4.3,4.7s.3,2.5,1.6,2.6a10.75,10.75,0,0,0,3.1-.1c-1.3.9-2.7,1.8-4,2.8-1.9,1.4-1.3,3.1.9,3.3a11.78,11.78,0,0,0,8.1-2.2l4-2.8c11.9-8,24.7-14.7,37.2-21.7-4.6,3.6-9.3,7.2-14,10.6-4.4,2.3-8.9,4.5-13.4,6.6-7,3.3-16.8,7.1-19.9,14.9-1.1,2.8,5.4,1.7,6.3,1.5a35.74,35.74,0,0,0,6-2.1c-2.6,1.9-5.2,3.9-7.8,5.8-1.2.8-1.9,2.5-.1,3.1,2.5.9,5.79-.1,8-1.3a53.31,53.31,0,0,0-7.29,8.2c-1.1,1.5.1,2.4,1.7,2.6a12.2,12.2,0,0,0,7-1.5c.9-.5,1.9-1,2.8-1.5-2.3,2.1-4.6,4.2-6.9,6.4-1.4,1.4.4,2.5,1.7,2.6a10.75,10.75,0,0,0,5.3-.8,18.32,18.32,0,0,0-4.1,8.8c-.5,2.9,4.9,1.9,6.3,1.5a48.51,48.51,0,0,0,9.2-3.5c-1.8,1.9-3.5,3.9-5.2,6-1.2,1.5.2,2.5,1.7,2.6a11.83,11.83,0,0,0,3.7-.2,10.7,10.7,0,0,0-1.4,1.6c-1.3,1.5.3,2.5,1.7,2.6a11.46,11.46,0,0,0,7-1.5l.5-.3c-1.1,1-2.2,2.1-3.3,3.2-1.4,1.4.4,2.5,1.7,2.6a10.85,10.85,0,0,0,4-.3c.2,0,.5-.1.8-.1l.3,1.2c.7,2.1,4.9,1.2,6.3.8l.7-.2c-1.2,1.5.2,2.4,1.7,2.6a10.46,10.46,0,0,0,2.5,0c-1,1.9,3.8,2.1,4.8,1.9,2.2-.4,4.4-1,6.5-1.6-.6.3-1.2.7-1.8,1-.9.5-3.3,2.1-1.9,3.4s4.3.7,5.9.2,2.9-.8,4.3-1.3c-.8.7-1.3,1.6-.5,2.4,1.8,1.6,5.5.5,7.4-.3,10.6-4.1,21-8.4,30.3-14.4,1.8-.9,3.6-1.9,5.4-2.9,11.1-6.2,22.6-14.7,26.8-27.4.7-2-1.9-2.1-4.5-1.7a45.68,45.68,0,0,0,5.4-6.9C153.76,94.25,152.56,93.65,150.76,93.65Zm-42.4-66.4c-2.2,1.9-4.6,3.7-7,5.4C103.66,30.75,106,29,108.36,27.25Zm-58.3-3.2a70.58,70.58,0,0,1,6.4-4.2c-4,3-8.3,5.8-12.5,8.4C46,26.75,48,25.35,50.06,24.05Zm-4.3,12.7c8.5-5.6,17-11.3,25.6-16.7-6.8,5.8-14.7,10.4-22.3,14.8Zm18.3,97.4c.1-.2.1-.5.2-.8l10.4-7.4A64,64,0,0,1,64.06,134.15Zm13.1-19.1c7.6-5.7,15.2-11.3,23.1-16.6,4.3-2.9,8.8-5.6,13.2-8.3-4.3,3.1-8.5,6.3-12.8,9.5l-3.7,2.7c-4.2,3-8.5,5.9-12.9,8.6C81.76,112.35,79.46,113.65,77.16,115.05Zm5.1,21.4a146.72,146.72,0,0,1,21.6-15.1C97.16,126.75,90.06,132.55,82.26,136.45Zm31.3-4.2-6,3c4.6-2.9,9.1-6,13.5-9.1A55.47,55.47,0,0,1,113.56,132.25Zm14.3-21.7c1.3-1,2.6-2,4-2.9C130.56,108.65,129.26,109.65,127.86,110.55Zm1.3-12.2c-4.3,3-8.8,5.7-13.4,8.3,4.9-3.6,9.9-7.1,15.1-10.2l4.5-2.7C133.26,95.45,131.16,97,129.16,98.35Z"/><path class="cls-2" d="M14.26,77.75c0-15.3,6.1-31.1,16.6-43.2,10.9-12.4,25.3-20,40.6-21.3,1.2-.1,2.4-1,2.3-1.8,0-.3-.2-1-1.8-.8a65.91,65.91,0,0,0-33.7,13c1.5-1.2,3.1-2.4,4.7-3.5A69.86,69.86,0,0,1,82,8.55a71.18,71.18,0,0,1,27.6,5.5c17.3,7.4,30.6,21.9,37.4,41a81.45,81.45,0,0,1,2.4,31.1c-1.9,16.1-8.4,30.2-19,40.7A76.12,76.12,0,0,1,85.56,148a60.86,60.86,0,0,1-12.8.1,61.81,61.81,0,0,1-8.4-2.4C35.76,135.15,14.26,106.05,14.26,77.75ZM38,134.25a61.2,61.2,0,0,1-9.9-9.8A83.34,83.34,0,0,0,38,134.25Zm54.8,14.9c2.8-.6,5.6-1.3,8.3-2.1a81.34,81.34,0,0,0,36.8-23.6,68.13,68.13,0,0,1-26,20.6A57.56,57.56,0,0,1,92.76,149.15Zm24.7-140.5-.8-.5a1.55,1.55,0,0,0-.8-.2c-1.1,0-2.9.7-3.1,1.5a.79.79,0,0,0,.5.9,66.64,66.64,0,0,1,9.3,6.4,73.52,73.52,0,0,0-40.8-10.9c-22.6.5-43.2,10.2-56.5,26.5C13.56,46.55,7.56,66.15,9,86.15c1.3,19.8,10.3,38,24.5,49.7,10.2,8.4,23.1,13.5,37.5,14.6a71.64,71.64,0,0,0,14.6,1.5,69.3,69.3,0,0,0,36.8-10.5,71,71,0,0,0,33.5-52.6,76.38,76.38,0,0,0-4.3-35.3C146.16,34.35,134.06,18.35,117.46,8.65Z"/><path class="cls-3" d="M58.26,80.75h0c0,.1-.1.1-.1.2C58.16,80.85,58.26,80.85,58.26,80.75Z"/><path class="cls-3" d="M129.46,95.85v.2h-.2C129.36,96.05,129.36,96,129.46,95.85Z"/><path class="cls-1" d="M147.72,260.19a45.68,45.68,0,0,0,5.4-6.9c1.1-1.9-.1-2.5-1.9-2.5a32.85,32.85,0,0,0,4.8-6.52c0-1.23,0-2.47,0-3.7,0-.34,0-.68,0-1l-.22-.06c.07-.14.14-.28.2-.41q-.07-2.79-.34-5.62a10.62,10.62,0,0,0-3.07,0,20.47,20.47,0,0,0-2.4.5c1.6-1.7,3.2-3.4,4.7-5.2a2.82,2.82,0,0,0,.18-.25c-.09-.6-.18-1.19-.28-1.79a3.38,3.38,0,0,0-1.5-.56,6.6,6.6,0,0,0-1.4-.1c.78-.87,1.54-1.81,2.26-2.77q-.57-2.8-1.3-5.58a25.36,25.36,0,0,0-2.56.35q1.13-.78,2.23-1.59c-.78-2.81-1.67-5.58-2.67-8.28-.48-.65-.95-1.3-1.39-1.94-1.47.23-2.51,1.06-4.17,2.22L128.25,220c1.9-1.5,16.57-13.51,18.47-15a4.13,4.13,0,0,0,.59-.6,3,3,0,0,1-.19-2.38l-.3-.12a8.2,8.2,0,0,0-4.4-.1c.5-.5,1.1-1,1.6-1.5,1-.9,2-2.4.1-3.1-2.5-.9-1.6-4.08-3.9-2.88-3.3,1.7-10.7,7.68-13.9,9.48a113.24,113.24,0,0,0,10.6-10.2c1.3-1.5-.3-2.5-1.6-2.6a10.45,10.45,0,0,0-2.5,0c1.87-1.54,3.69-3.15,5.47-4.8a50.18,50.18,0,0,0-4.74-5.48c-6,5.13-12.11,10-18.4,14.65A192.37,192.37,0,0,0,131.5,180a1.29,1.29,0,0,0,.33-.91,41.4,41.4,0,0,0-3.4-2.72,11.26,11.26,0,0,0-2.81.13,14.53,14.53,0,0,0,.89-1.43,40.07,40.07,0,0,0-4.61-2.52,7.27,7.27,0,0,0-1.27.35c.21-.21.44-.42.67-.64l-.07,0a59.54,59.54,0,0,0-6.77-2.48,13.15,13.15,0,0,0-1.63,1c-5.6,4-11.1,8-16.7,12-1.5.9-3,1.7-4.5,2.5-9.4,5.3-18.4,11.2-27.6,16.8l-3.1,1.8.3-.2c17.51-11.28,35.86-21.38,52.2-34.16-2.75-.79-5.56-1.44-8.38-2-2.18,1.48-4.41,2.88-6.61,4.26,2-1.45,4-2.9,5.89-4.4-2.87-.56-5.75-1-8.62-1.54L88.52,171a48.24,48.24,0,0,0,4.42-5.72c-2.05-.36-4.1-.74-6.12-1.17a3.17,3.17,0,0,1-1.73-.95l-.27.13c-2.7,1.4-5.4,2.9-8.1,4.4.3-.4.7-.8,1-1.2,2.9-3.7-6.3-2.1-7.3-1.7A125.77,125.77,0,0,0,42.92,179a150.85,150.85,0,0,0-24.4,19.6c-1.5,1.5.1,2.2,1.6,2.5a71,71,0,0,0-9.4,8.8c-1.4,1.5.2,2.5,1.6,2.6a11.46,11.46,0,0,0,7-1.5c.6-.3,1.1-.7,1.7-1a74.86,74.86,0,0,0-9,7.9c-1.4,1.4.4,2.5,1.6,2.6a13.26,13.26,0,0,0,7-1.5c1.1-.5,2.2-1.1,3.3-1.6-4.3,3.7-8.6,7.7-12.6,11.8-1.4,1.4.4,2.5,1.6,2.6a6.69,6.69,0,0,0,2,0c-1.5,1.5-2.9,3.1-4.3,4.7s.3,2.5,1.6,2.6a10.75,10.75,0,0,0,3.1-.1c-1.3.9-2.7,1.8-4,2.8-1.9,1.4-1.3,3.1.9,3.3a11.78,11.78,0,0,0,8.1-2.2l4-2.8C36.22,232.09,67,215,79.54,208c-4.6,3.6-30.09,17.85-34.79,21.25-4.4,2.3-6.13,4.24-10.63,6.34-7,3.3-16.8,7.1-19.9,14.9-1.1,2.8,5.4,1.7,6.3,1.5a35.74,35.74,0,0,0,6-2.1c-2.6,1.9-5.2,3.9-7.8,5.8-1.2.8-1.9,2.5-.1,3.1,2.5.9,5.8-.1,8-1.3l9-7.21c-2.7,2.5-14.1,12.31-16.3,15.41-1.1,1.5.1,2.4,1.7,2.6a12.2,12.2,0,0,0,7-1.5c.9-.5,22.86-16.25,23.76-16.75-2.3,2.1-25.56,19.45-27.86,21.65-1.4,1.4.4,2.5,1.7,2.6a10.75,10.75,0,0,0,5.3-.8,18.32,18.32,0,0,0-4.1,8.8c-.5,2.9,4.9,1.9,6.3,1.5a48.51,48.51,0,0,0,9.2-3.5c-1.8,1.9-3.5,3.9-5.2,6-1.2,1.5.2,2.5,1.7,2.6a11.83,11.83,0,0,0,3.7-.2,10.7,10.7,0,0,0-1.4,1.6c-1.3,1.5.3,2.5,1.7,2.6a11.46,11.46,0,0,0,7-1.5l.5-.3c-1.1,1-2.2,2.1-3.3,3.2-1.4,1.4.4,2.5,1.7,2.6a10.85,10.85,0,0,0,4-.3c.2,0,.5-.1.8-.1l.3,1.2c.7,2.1,4.9,1.2,6.3.8l.7-.2c-1.2,1.5.2,2.4,1.7,2.6a10.45,10.45,0,0,0,2.5,0c-1,1.9,3.8,2.1,4.8,1.9,2.2-.4,4.4-1,6.5-1.6-.6.3-1.2.7-1.8,1-.9.5-3.3,2.1-1.9,3.4s4.3.7,5.9.2,2.9-.8,4.3-1.3c-.8.7-1.3,1.6-.5,2.4,1.8,1.6,5.5.5,7.4-.3,10.6-4.1,21-8.4,30.3-14.4,1.8-.9,3.6-1.9,5.4-2.9,11.1-6.2,22.6-14.7,26.8-27.4C152.92,259.89,150.32,259.79,147.72,260.19Zm-97.2-79a70.58,70.58,0,0,1,6.4-4.2c-4,3-8.3,5.8-12.5,8.4C46.42,183.89,48.42,182.49,50.52,181.19Zm-4.3,12.7c8.5-5.6,27.75-18,36.35-23.39-6.8,5.8-25.45,17.09-33,21.49Zm18.3,97.4c.1-.2.1-.5.2-.8l10.4-7.4A64,64,0,0,1,64.52,291.29Zm44.3-106.9c-2.2,1.9-4.6,3.7-7,5.4C104.12,187.89,106.42,186.09,108.82,184.39Zm-31.2,87.8c7.6-5.7,15.2-11.3,23.1-16.6,4.3-2.9,8.8-5.6,13.2-8.3-4.3,3.1-8.5,6.3-12.8,9.5l-3.7,2.7c-4.2,3-8.5,5.9-12.9,8.6C82.22,269.49,79.92,270.79,77.62,272.19Zm5.1,21.4a146.73,146.73,0,0,1,21.6-15.1C97.62,283.89,90.52,289.69,82.72,293.59Zm31.3-4.2-6,3c4.6-2.9,9.1-6,13.5-9.1A55.47,55.47,0,0,1,114,289.39Zm14.3-21.7c1.3-1,2.6-2,4-2.9C131,265.79,129.72,266.79,128.32,267.69Zm5.13-14.17c-4.3,3-12.63,7.67-17.23,10.27,4.9-3.6,9.9-7.1,15.1-10.2l14.93-11.34C144.15,243.95,135.45,252.12,133.45,253.52Z"/><path class="cls-1" d="M83.29,220.24c-.28.21-.53.39-.72.51Z"/><path class="cls-2" d="M14.72,234.89c0-15.3,6.1-31.1,16.6-43.2,10.9-12.4,25.3-20,40.6-21.3,1.2-.1,2.4-1,2.3-1.8,0-.3-.2-1-1.8-.8a65.91,65.91,0,0,0-33.7,13c1.5-1.2,3.1-2.4,4.7-3.5a69.86,69.86,0,0,1,39-11.6,71.18,71.18,0,0,1,27.6,5.5c17.3,7.4,30.6,21.9,37.4,41a81.45,81.45,0,0,1,2.4,31.1c-1.9,16.1-8.4,30.2-19,40.7A76.12,76.12,0,0,1,86,305.09a60.86,60.86,0,0,1-12.8.1,61.81,61.81,0,0,1-8.4-2.4C36.22,292.29,14.72,263.19,14.72,234.89Zm23.7,56.5a61.2,61.2,0,0,1-9.9-9.8A83.34,83.34,0,0,0,38.42,291.39Zm54.8,14.9c2.8-.6,5.6-1.3,8.3-2.1a81.34,81.34,0,0,0,36.8-23.6,68.13,68.13,0,0,1-26,20.6A57.56,57.56,0,0,1,93.22,306.29Zm24.7-140.5-.8-.5a1.55,1.55,0,0,0-.8-.2c-1.1,0-2.9.7-3.1,1.5a.79.79,0,0,0,.5.9,66.64,66.64,0,0,1,9.3,6.4A73.52,73.52,0,0,0,82.22,163c-22.6.5-43.2,10.2-56.5,26.5C14,203.69,8,223.29,9.42,243.29c1.3,19.8,10.3,38,24.5,49.7,10.2,8.4,23.1,13.5,37.5,14.6a71.64,71.64,0,0,0,14.6,1.5,69.3,69.3,0,0,0,36.8-10.5,71,71,0,0,0,33.5-52.6,76.38,76.38,0,0,0-4.3-35.3C146.62,191.49,134.52,175.49,117.92,165.79Z"/><path class="cls-3" d="M58.72,237.89h0c0,.1-.1.1-.1.2C58.62,238,58.72,238,58.72,237.89Z"/><path class="cls-3" d="M129.92,253v.2h-.2C129.82,253.19,129.82,253.09,129.92,253Z"/><path class="cls-1" d="M146.54,414.63a45.68,45.68,0,0,0,5.4-6.9c1.1-1.9-.1-2.5-1.9-2.5a32.85,32.85,0,0,0,4.8-6.52c0-1.23,0-2.47,0-3.7,0-.34,0-.68,0-1l-.22-.06c.07-.14.14-.28.2-.41q-.07-2.79-.34-5.62a10.62,10.62,0,0,0-3.07,0,20.47,20.47,0,0,0-2.4.5c1.6-1.7,3.2-3.4,4.7-5.2a2.82,2.82,0,0,0,.18-.25c-.09-.6-.18-1.19-.28-1.79a3.38,3.38,0,0,0-1.5-.56,6.6,6.6,0,0,0-1.4-.1c.78-.87,1.54-1.81,2.26-2.77q-.57-2.8-1.3-5.58a25.36,25.36,0,0,0-2.56.35q1.13-.78,2.23-1.59c-.78-2.81-1.67-5.58-2.67-8.28-.48-.65-.95-1.3-1.39-1.94-1.47.23-2.51,1.06-4.17,2.22l-16.07,11.51c1.9-1.5,16.57-13.51,18.47-15a4.13,4.13,0,0,0,.59-.6,3,3,0,0,1-.19-2.38l-.3-.12a8.2,8.2,0,0,0-4.4-.1c.5-.5,1.1-1,1.6-1.5,1-.9,2-2.4.1-3.1-2.5-.9-1.6-4.08-3.9-2.88-3.3,1.7-10.7,7.68-13.9,9.48a113.24,113.24,0,0,0,10.6-10.2c1.3-1.5-.3-2.5-1.6-2.6a10.45,10.45,0,0,0-2.5,0c1.87-1.54,3.69-3.15,5.47-4.8a50.18,50.18,0,0,0-4.74-5.48c-6,5.13-12.11,10-18.4,14.65a192.37,192.37,0,0,0,16.35-15.36,1.29,1.29,0,0,0,.33-.91,41.4,41.4,0,0,0-3.4-2.72,11.26,11.26,0,0,0-2.81.13,14.53,14.53,0,0,0,.89-1.43,40.07,40.07,0,0,0-4.61-2.52,7.27,7.27,0,0,0-1.27.35c.21-.21.44-.42.67-.64l-.07,0a59.54,59.54,0,0,0-6.77-2.48,13.15,13.15,0,0,0-1.63,1c-5.6,4-11.1,8-16.7,12-1.5.9-3,1.7-4.5,2.5-9.4,5.3-18.4,11.2-27.6,16.8l-3.1,1.8.3-.2c17.51-11.28,35.86-21.38,52.2-34.16-2.75-.79-5.56-1.44-8.38-2-2.18,1.48-4.41,2.88-6.61,4.26,2-1.45,4-2.9,5.89-4.4-2.87-.56-5.75-1-8.62-1.54l-7.17,5.24a48.24,48.24,0,0,0,4.42-5.72c-2.05-.36-4.1-.74-6.12-1.17a3.17,3.17,0,0,1-1.73-.95l-.27.13c-2.7,1.4-5.4,2.9-8.1,4.4.3-.4.7-.8,1-1.2,2.9-3.7-6.3-2.1-7.3-1.7a125.77,125.77,0,0,0-27.5,14.2A150.85,150.85,0,0,0,17.34,353c-1.5,1.5.1,2.2,1.6,2.5a71,71,0,0,0-9.4,8.8c-1.4,1.5.2,2.5,1.6,2.6a11.46,11.46,0,0,0,7-1.5c.6-.3,1.1-.7,1.7-1a74.86,74.86,0,0,0-9,7.9c-1.4,1.4.4,2.5,1.6,2.6a13.26,13.26,0,0,0,7-1.5c1.1-.5,2.2-1.1,3.3-1.6-4.3,3.7-8.6,7.7-12.6,11.8-1.4,1.4.4,2.5,1.6,2.6a6.69,6.69,0,0,0,2,0c-1.5,1.5-2.9,3.1-4.3,4.7s.3,2.5,1.6,2.6a10.75,10.75,0,0,0,3.1-.1c-1.3.9-2.7,1.8-4,2.8-1.9,1.4-1.3,3.1.9,3.3a11.78,11.78,0,0,0,8.1-2.2l4-2.8c11.9-8,42.72-25.09,55.22-32.09-4.6,3.6-30.09,17.85-34.79,21.25-4.4,2.3-6.13,4.24-10.63,6.34-7,3.3-16.8,7.1-19.9,14.9-1.1,2.8,5.4,1.7,6.3,1.5a35.74,35.74,0,0,0,6-2.1c-2.6,1.9-5.2,3.9-7.8,5.8-1.2.8-1.9,2.5-.1,3.1,2.5.9,5.8-.1,8-1.3l9-7.21c-2.7,2.5-14.1,12.31-16.3,15.41-1.1,1.5.1,2.4,1.7,2.6a12.2,12.2,0,0,0,7-1.5c.9-.5,22.86-16.25,23.76-16.75-2.3,2.1-25.56,19.45-27.86,21.65-1.4,1.4.4,2.5,1.7,2.6a10.75,10.75,0,0,0,5.3-.8,18.32,18.32,0,0,0-4.1,8.8c-.5,2.9,4.9,1.9,6.3,1.5a48.51,48.51,0,0,0,9.2-3.5c-1.8,1.9-3.5,3.9-5.2,6-1.2,1.5.2,2.5,1.7,2.6a11.83,11.83,0,0,0,3.7-.2,10.7,10.7,0,0,0-1.4,1.6c-1.3,1.5.3,2.5,1.7,2.6a11.46,11.46,0,0,0,7-1.5l.5-.3c-1.1,1-2.2,2.1-3.3,3.2-1.4,1.4.4,2.5,1.7,2.6a10.85,10.85,0,0,0,4-.3c.2,0,.5-.1.8-.1l.3,1.2c.7,2.1,4.9,1.2,6.3.8l.7-.2c-1.2,1.5.2,2.4,1.7,2.6a10.45,10.45,0,0,0,2.5,0c-1,1.9,3.8,2.1,4.8,1.9,2.2-.4,4.4-1,6.5-1.6-.6.3-1.2.7-1.8,1-.9.5-3.3,2.1-1.9,3.4s4.3.7,5.9.2,2.9-.8,4.3-1.3c-.8.7-1.3,1.6-.5,2.4,1.8,1.6,5.5.5,7.4-.3,10.6-4.1,21-8.4,30.3-14.4,1.8-.9,3.6-1.9,5.4-2.9,11.1-6.2,22.6-14.7,26.8-27.4C151.74,414.33,149.14,414.23,146.54,414.63Zm-97.2-79a70.58,70.58,0,0,1,6.4-4.2c-4,3-8.3,5.8-12.5,8.4C45.24,338.33,47.24,336.93,49.34,335.63ZM45,348.33c8.5-5.6,27.75-18,36.35-23.39-6.8,5.8-25.45,17.09-33,21.49Zm18.3,97.4c.1-.2.1-.5.2-.8l10.4-7.4A64,64,0,0,1,63.34,445.73Zm44.3-106.9c-2.2,1.9-4.6,3.7-7,5.4C102.94,342.33,105.24,340.53,107.64,338.83Zm-31.2,87.8c7.6-5.7,15.2-11.3,23.1-16.6,4.3-2.9,8.8-5.6,13.2-8.3-4.3,3.1-8.5,6.3-12.8,9.5l-3.7,2.7c-4.2,3-8.5,5.9-12.9,8.6C81,423.93,78.74,425.23,76.44,426.63Zm5.1,21.4a146.73,146.73,0,0,1,21.6-15.1C96.44,438.33,89.34,444.13,81.54,448Zm31.3-4.2-6,3c4.6-2.9,9.1-6,13.5-9.1A55.47,55.47,0,0,1,112.84,443.83Zm14.3-21.7c1.3-1,2.6-2,4-2.9C129.84,420.23,128.54,421.23,127.14,422.13ZM132.26,408c-4.3,3-12.63,7.67-17.23,10.27,4.9-3.6,9.9-7.1,15.1-10.2l14.93-11.34C143,398.39,134.26,406.56,132.26,408Z"/><path class="cls-1" d="M82.1,374.68c-.28.21-.53.39-.72.51Z"/><path class="cls-2" d="M13.54,389.33c0-15.3,6.1-31.1,16.6-43.2,10.9-12.4,25.3-20,40.6-21.3,1.2-.1,2.4-1,2.3-1.8,0-.3-.2-1-1.8-.8a65.91,65.91,0,0,0-33.7,13c1.5-1.2,3.1-2.4,4.7-3.5a69.86,69.86,0,0,1,39-11.6,71.18,71.18,0,0,1,27.6,5.5c17.3,7.4,30.6,21.9,37.4,41a81.45,81.45,0,0,1,2.4,31.1c-1.9,16.1-8.4,30.2-19,40.7-11.9,11.7-27.8,17.2-44.8,19.1a60.86,60.86,0,0,1-12.8.1,61.81,61.81,0,0,1-8.4-2.4C35,444.73,13.54,417.63,13.54,389.33Zm23.7,56.5a61.2,61.2,0,0,1-9.9-9.8A83.34,83.34,0,0,0,37.24,445.83ZM92,460.73c2.8-.6,5.6-1.3,8.3-2.1a81.34,81.34,0,0,0,36.8-23.6,68.13,68.13,0,0,1-26,20.6A57.56,57.56,0,0,1,92,460.73Zm24.7-140.5-.8-.5a1.55,1.55,0,0,0-.8-.2c-1.1,0-2.9.7-3.1,1.5a.79.79,0,0,0,.5.9,66.64,66.64,0,0,1,9.3,6.4A73.52,73.52,0,0,0,81,317.43c-22.6.5-43.2,10.2-56.5,26.5-11.7,14.2-17.7,33.8-16.3,53.8,1.3,19.8,10.3,38,24.5,49.7,10.2,8.4,23.1,13.5,37.5,14.6a71.64,71.64,0,0,0,14.6,1.5,69.3,69.3,0,0,0,36.8-10.5,71,71,0,0,0,33.5-52.6,76.38,76.38,0,0,0-4.3-35.3C145.44,345.93,133.34,329.93,116.74,320.23Z"/><path class="cls-3" d="M57.54,392.33h0c0,.1-.1.1-.1.2C57.44,392.43,57.54,392.43,57.54,392.33Z"/><path class="cls-3" d="M128.74,407.43v.2h-.2C128.64,407.63,128.64,407.53,128.74,407.43Z"/><path class="cls-1" d="M147.62,570.81a45.68,45.68,0,0,0,5.4-6.9c1.1-1.9-.1-2.5-1.9-2.5a32.85,32.85,0,0,0,4.8-6.52c0-1.23,0-2.47,0-3.7,0-.34,0-.68,0-1l-.22-.06c.07-.14.14-.28.2-.41q-.07-2.79-.34-5.62a10.62,10.62,0,0,0-3.07,0,20.47,20.47,0,0,0-2.4.5c1.6-1.7,3.2-3.4,4.7-5.2a2.82,2.82,0,0,0,.18-.25c-.09-.6-.18-1.19-.28-1.79a3.38,3.38,0,0,0-1.5-.56,6.6,6.6,0,0,0-1.4-.1c.78-.87,1.54-1.81,2.26-2.77q-.57-2.8-1.3-5.58a25.36,25.36,0,0,0-2.56.35q1.13-.78,2.23-1.59c-.78-2.81-1.67-5.58-2.67-8.28-.48-.65-.95-1.3-1.39-1.94-1.47.23-2.51,1.06-4.17,2.22l-16.07,11.51c1.9-1.5,16.57-13.51,18.47-15a4.13,4.13,0,0,0,.59-.6,3,3,0,0,1-.19-2.38l-.3-.12a8.2,8.2,0,0,0-4.4-.1c.5-.5,1.1-1,1.6-1.5,1-.9,2-2.4.1-3.1-2.5-.9-1.6-4.08-3.9-2.88-3.3,1.7-10.7,7.68-13.9,9.48a113.24,113.24,0,0,0,10.6-10.2c1.3-1.5-.3-2.5-1.6-2.6a10.45,10.45,0,0,0-2.5,0c1.87-1.54,3.69-3.15,5.47-4.8a50.18,50.18,0,0,0-4.74-5.48c-6,5.13-12.11,10-18.4,14.65a192.37,192.37,0,0,0,16.35-15.36,1.29,1.29,0,0,0,.33-.91,41.4,41.4,0,0,0-3.4-2.72,11.26,11.26,0,0,0-2.81.13,14.53,14.53,0,0,0,.89-1.43,40.07,40.07,0,0,0-4.61-2.52,7.27,7.27,0,0,0-1.27.35c.21-.21.44-.42.67-.64l-.07,0a59.54,59.54,0,0,0-6.77-2.48,13.15,13.15,0,0,0-1.63,1c-5.6,4-11.1,8-16.7,12-1.5.9-3,1.7-4.5,2.5-9.4,5.3-18.4,11.2-27.6,16.8l-3.1,1.8.3-.2c17.51-11.28,35.86-21.38,52.2-34.16-2.75-.79-5.56-1.44-8.38-2-2.18,1.48-4.41,2.88-6.61,4.26,2-1.45,4-2.9,5.89-4.4-2.87-.56-5.75-1-8.62-1.54l-7.17,5.24a48.24,48.24,0,0,0,4.42-5.72c-2.05-.36-4.1-.74-6.12-1.17a3.17,3.17,0,0,1-1.73-.95l-.27.13c-2.7,1.4-5.4,2.9-8.1,4.4.3-.4.7-.8,1-1.2,2.9-3.7-6.3-2.1-7.3-1.7a125.77,125.77,0,0,0-27.5,14.2,150.85,150.85,0,0,0-24.4,19.6c-1.5,1.5.1,2.2,1.6,2.5a71,71,0,0,0-9.4,8.8c-1.4,1.5.2,2.5,1.6,2.6a11.46,11.46,0,0,0,7-1.5c.6-.3,1.1-.7,1.7-1a74.86,74.86,0,0,0-9,7.9c-1.4,1.4.4,2.5,1.6,2.6a13.26,13.26,0,0,0,7-1.5c1.1-.5,2.2-1.1,3.3-1.6-4.3,3.7-8.6,7.7-12.6,11.8-1.4,1.4.4,2.5,1.6,2.6a6.69,6.69,0,0,0,2,0c-1.5,1.5-2.9,3.1-4.3,4.7s.3,2.5,1.6,2.6a10.75,10.75,0,0,0,3.1-.1c-1.3.9-2.7,1.8-4,2.8-1.9,1.4-1.3,3.1.9,3.3a11.78,11.78,0,0,0,8.1-2.2l4-2.8c11.9-8,42.72-25.09,55.22-32.09-4.6,3.6-30.09,17.85-34.79,21.25-4.4,2.3-6.13,4.24-10.63,6.34-7,3.3-16.8,7.1-19.9,14.9-1.1,2.8,5.4,1.7,6.3,1.5a35.74,35.74,0,0,0,6-2.1c-2.6,1.9-5.2,3.9-7.8,5.8-1.2.8-1.9,2.5-.1,3.1,2.5.9,5.8-.1,8-1.3l9-7.21c-2.7,2.5-14.1,12.31-16.3,15.41-1.1,1.5.1,2.4,1.7,2.6a12.2,12.2,0,0,0,7-1.5c.9-.5,22.86-16.25,23.76-16.75-2.3,2.1-25.56,19.45-27.86,21.65-1.4,1.4.4,2.5,1.7,2.6a10.75,10.75,0,0,0,5.3-.8,18.32,18.32,0,0,0-4.1,8.8c-.5,2.9,4.9,1.9,6.3,1.5a48.51,48.51,0,0,0,9.2-3.5c-1.8,1.9-3.5,3.9-5.2,6-1.2,1.5.2,2.5,1.7,2.6a11.83,11.83,0,0,0,3.7-.2,10.7,10.7,0,0,0-1.4,1.6c-1.3,1.5.3,2.5,1.7,2.6a11.46,11.46,0,0,0,7-1.5l.5-.3c-1.1,1-2.2,2.1-3.3,3.2-1.4,1.4.4,2.5,1.7,2.6a10.85,10.85,0,0,0,4-.3c.2,0,.5-.1.8-.1l.3,1.2c.7,2.1,4.9,1.2,6.3.8l.7-.2c-1.2,1.5.2,2.4,1.7,2.6a10.45,10.45,0,0,0,2.5,0c-1,1.9,3.8,2.1,4.8,1.9,2.2-.4,4.4-1,6.5-1.6-.6.3-1.2.7-1.8,1-.9.5-3.3,2.1-1.9,3.4s4.3.7,5.9.2,2.9-.8,4.3-1.3c-.8.7-1.3,1.6-.5,2.4,1.8,1.6,5.5.5,7.4-.3,10.6-4.1,21-8.4,30.3-14.4,1.8-.9,3.6-1.9,5.4-2.9,11.1-6.2,22.6-14.7,26.8-27.4C152.82,570.51,150.22,570.41,147.62,570.81Zm-97.2-79a70.58,70.58,0,0,1,6.4-4.2c-4,3-8.3,5.8-12.5,8.4C46.32,494.51,48.32,493.11,50.42,491.81Zm-4.3,12.7c8.5-5.6,27.75-18,36.35-23.39-6.8,5.8-25.45,17.09-33,21.49Zm18.3,97.4c.1-.2.1-.5.2-.8l10.4-7.4A64,64,0,0,1,64.42,601.91ZM108.72,495c-2.2,1.9-4.6,3.7-7,5.4C104,498.51,106.32,496.71,108.72,495Zm-31.2,87.8c7.6-5.7,15.2-11.3,23.1-16.6,4.3-2.9,8.8-5.6,13.2-8.3-4.3,3.1-8.5,6.3-12.8,9.5l-3.7,2.7c-4.2,3-8.5,5.9-12.9,8.6C82.12,580.11,79.82,581.41,77.52,582.81Zm5.1,21.4a146.73,146.73,0,0,1,21.6-15.1C97.52,594.51,90.42,600.31,82.62,604.21Zm31.3-4.2-6,3c4.6-2.9,9.1-6,13.5-9.1A55.47,55.47,0,0,1,113.92,600Zm14.3-21.7c1.3-1,2.6-2,4-2.9C130.92,576.41,129.62,577.41,128.22,578.31Zm5.13-14.17c-4.3,3-12.63,7.67-17.23,10.27,4.9-3.6,9.9-7.1,15.1-10.2l14.93-11.34C144.05,554.57,135.35,562.74,133.35,564.14Z"/><path class="cls-1" d="M83.19,530.86c-.28.21-.53.39-.72.51Z"/><path class="cls-2" d="M14.62,545.51c0-15.3,6.1-28.1,16.6-40.2,10.9-12.4,25.3-20,40.6-21.3,1.2-.1,2.4-4,2.3-4.8,0-.3-.2-1-1.8-.8a65.91,65.91,0,0,0-33.7,13c1.5-1.2,3.1-2.4,4.7-3.5a69.86,69.86,0,0,1,39-11.6,71.18,71.18,0,0,1,27.6,5.5c17.3,7.4,30.6,21.9,37.4,41a81.45,81.45,0,0,1,2.4,31.1c-1.9,16.1-8.4,30.2-19,40.7a76.12,76.12,0,0,1-44.8,21.1,60.86,60.86,0,0,1-12.8.1,61.81,61.81,0,0,1-8.4-2.4C36.12,602.91,14.62,573.81,14.62,545.51ZM38.32,602a61.2,61.2,0,0,1-9.9-9.8A83.34,83.34,0,0,0,38.32,602Zm54.8,14.9c2.8-.6,5.6-1.3,8.3-2.1a81.34,81.34,0,0,0,36.8-23.6,68.13,68.13,0,0,1-26,20.6A57.56,57.56,0,0,1,93.12,616.91Zm24.7-140.5-.8-.5a1.55,1.55,0,0,0-.8-.2c-1.1,0-2.9.7-3.1,1.5a.79.79,0,0,0,.5.9,66.64,66.64,0,0,1,9.3,6.4,73.52,73.52,0,0,0-40.8-10.9c-22.6.5-43.2,10.2-56.5,26.5-11.7,14.2-17.7,33.8-16.3,53.8,1.3,19.8,10.3,38,24.5,49.7,10.2,8.4,23.1,13.5,37.5,14.6a71.64,71.64,0,0,0,14.6,1.5,69.3,69.3,0,0,0,36.8-10.5,71,71,0,0,0,33.5-52.6,76.38,76.38,0,0,0-4.3-35.3C146.52,502.11,134.42,486.11,117.82,476.41Z"/><path class="cls-3" d="M58.62,548.51h0c0,.1-.1.1-.1.2C58.52,548.61,58.62,548.61,58.62,548.51Z"/><path class="cls-3" d="M129.82,563.61v.2h-.2C129.72,563.81,129.72,563.71,129.82,563.61Z"/></g><g id="Camada_7" data-name="Camada 7"><path class="cls-4" d="M118.92,71.82c-.5-1.36-2.77.3-2.44,1.47l.82,2.84q-.39-1.29-.79-2.55c-.26.14-.61.49-.62.68l.85,3.48c3.62,14.82,7.35,30.14.39,45a30.81,30.81,0,0,1-5.49,8.08c-9.08,7.38-22.43,9.32-34.27,6.41-14.46-3.56-27.31-13.3-34.1-26.08-7.39-13.91-6.34-28.73-.17-42.78.34-.78-.72-.84-1.08-.3a39.23,39.23,0,0,0-6.6,24.25c-.11,15.93,8.45,31.78,20.88,40.79,11.87,8.6,28.11,11.31,41.38,6.93l.36-.13c11.34-2.59,21.11-9.71,25.46-22.17C128.77,102.65,124.22,86.26,118.92,71.82ZM73.68,140.14a51.47,51.47,0,0,1-33.18-27.2,45,45,0,0,1-3.72-11.77,54.24,54.24,0,0,0,21.88,31,52.48,52.48,0,0,0,34.27,8.58A43.47,43.47,0,0,1,73.68,140.14Zm46-19.81a28,28,0,0,1-5.53,8.18,35.61,35.61,0,0,0,5.08-9.2c4.84-12.81,2.7-26.84-.86-39.6C122.19,93.07,125.58,107,119.67,120.33Z"/><path class="cls-3" d="M120.65,68.28a2.27,2.27,0,0,0-2.15-.15h0c-.93.47-1.83,1-2.73,1.5l0-.14c.37-1.08.74-2.17,1.1-3.25a1.46,1.46,0,0,0-.42-1.83c-.89-.62-2.56-.16-3.28.42l-1.2.95a44.9,44.9,0,0,0,.74-5.39,1.38,1.38,0,0,0-.72-1.46,3.31,3.31,0,0,0-3,.64l-.2.18c.3-1.22.53-2.27.74-3.27.24-1.21-.31-1.68-.66-1.86-.9-.45-2.32.13-3.08.79l.66-2.1a1.28,1.28,0,0,0-.41-1.58,2.63,2.63,0,0,0-2.69.35l-.6.5.48-1.41a1.59,1.59,0,0,0-.45-2,2,2,0,0,0-2,0c.19-.57.36-1.14.53-1.71a1.24,1.24,0,0,0-.35-1.31,1.48,1.48,0,0,0-1.15-.34l.73-1c1-1.42.6-2.46-.09-3a2.83,2.83,0,0,0-3.77.91Q94,46.26,91.23,49.82q2.82-4.11,5.46-8.14c.93-1.43.57-2.45-.09-2.93a2.89,2.89,0,0,0-3.75.89c-3.54,4.37-7.22,8.76-11,13.13l1.27-1.85A2.06,2.06,0,0,0,83,48a2.38,2.38,0,0,0-3.21.41l-5.52,5.47a54.54,54.54,0,0,0,2.45-7.41,1.69,1.69,0,0,0-.31-1.73,2.11,2.11,0,0,0,2-.18l.27-.16a2.14,2.14,0,0,0,.18,1.67c.39.65,1.34,1.13,2.7.32,6-3.56,11.66-7.84,12.13-15a1.31,1.31,0,0,0-.74-1.37,2.85,2.85,0,0,0-2.71.62l-.65.65A5.79,5.79,0,0,0,91,27.5a1.35,1.35,0,0,0-.8-1.29,2.71,2.71,0,0,0-2.51.59l-.41.36a1.43,1.43,0,0,0-.3-1.7,2,2,0,0,0-2.61.2c-2.05,1.91-4.24,3.7-6.47,5.44,1.82-2.25,3.38-4.22,4.84-6.14a1.52,1.52,0,0,0,0-2.16,1.79,1.79,0,0,0-2.46.24c-1.72,1.71-3.45,3.37-5.14,5,1-1.6,2-3.11,3.06-4.56a2,2,0,0,0,.14-2.17,1.28,1.28,0,0,0-1.44-.49c-5.53,1.29-9.1,5.59-10.59,12.79a1,1,0,0,0,.84,1.33c-.27.54-.54,1.08-.79,1.64a1.49,1.49,0,0,0,.1,1.69,1.38,1.38,0,0,0,.58.39l-1.42,1.72A73.94,73.94,0,0,0,53.14,51.95l-.1.18a34.71,34.71,0,0,1-7.59,12.49,7.84,7.84,0,0,1-2.56,1.88l-.15.07-.08.14c-.48.81-1,1.62-1.43,2.44a.94.94,0,0,0,.17,1.33,1.14,1.14,0,0,0,.63.18,34.32,34.32,0,0,0-1.63,3.28,1.6,1.6,0,0,0,.47,2.11,2.15,2.15,0,0,0,2.66-.46c2.4-2.58,4.82-5.15,7.3-7.78-1.45,1.73-2.86,3.4-4.2,5a1.94,1.94,0,0,0-.13,2.64,2,2,0,0,0,2.73.18A91.74,91.74,0,0,0,66.68,59.49a50.64,50.64,0,0,1-4.42,6.38,1.87,1.87,0,0,0-.05,2.72,2.36,2.36,0,0,0,3.22-.28l2.17-2.13L62,74.46a2.05,2.05,0,0,0,.15,2.87,2.28,2.28,0,0,0,3.1-.44c1.45-1.49,2.94-3.05,4.5-4.7-3.39,4.43-6.8,8.73-10.19,12.85a1.82,1.82,0,0,0-.08,2.63,2.31,2.31,0,0,0,3.15-.24Q64.9,85.24,67.17,83c-3.36,4.42-6.51,8.52-9.54,12.42A1.85,1.85,0,0,0,57.57,98a2.37,2.37,0,0,0,3.16-.23l1.16-1.05c-.59.79-1.16,1.54-1.72,2.27-1.18,1.52-.45,2.46-.2,2.72a2.75,2.75,0,0,0,3.49-.12l.17-.13a1.79,1.79,0,0,0,1,.8A2.75,2.75,0,0,0,67.71,101l3.91-5.93a2.41,2.41,0,0,0,0-2.84,1.71,1.71,0,0,0-.9-.57c.41-.62.82-1.24,1.22-1.86a3.54,3.54,0,0,0,.83-.51c2.87-2.34,5.74-4.81,8.59-7.38A1.87,1.87,0,0,0,84,84.6L86.1,83l-5.68,8.31a1.8,1.8,0,0,0,.09,2.52,2.09,2.09,0,0,0,2.8-.32l.92-.87c-.91,1.16-1.81,2.23-2.71,3.22s-.89,2.3-.32,2.89,1.67.75,2.84-.23l1.39-1.14c-1.61,2.81-3.19,5.6-4.71,8.32a1.43,1.43,0,0,0,.25,2,2.2,2.2,0,0,0,2.72-.32c1-1,2-2,3.13-3.06-.76,1.09-1.55,2.15-2.38,3.18s-.63,1.87-.18,2.32a2.11,2.11,0,0,0,2.21.36q-1.14,1.89-2.27,3.79a2.42,2.42,0,0,0,.21,3,2,2,0,0,0,2.61-.12l1.84-1.31a63.44,63.44,0,0,1-3.61,5.51,2.32,2.32,0,0,0,0,3.05,2.16,2.16,0,0,0,2.91,0l1.88-1.32c-.65,1.22-1.31,2.42-2,3.59a1.74,1.74,0,0,0,.18,2.22,2.38,2.38,0,0,0,2.83.16l1.43-.89q-.37.66-.75,1.32a2.11,2.11,0,0,0,0,2A1.4,1.4,0,0,0,93,132h0a10.18,10.18,0,0,0,7-2.56,2.48,2.48,0,0,0,1-2.37,2,2,0,0,0-1.37-1.51,2.11,2.11,0,0,0-.94-.07c.59-1,1.19-1.91,1.77-2.88a2.46,2.46,0,0,0-.13-3,2.14,2.14,0,0,0-2.77,0l-.84.55c.71-1.31,1.38-2.63,2-3.94a2.07,2.07,0,0,0-.42-2.58,2.42,2.42,0,0,0-3,0l-.18.13c.87-1.62,1.65-3.25,2.34-4.86a2.17,2.17,0,0,0-.55-2.65,2.31,2.31,0,0,0-2.84.12l-1,.78,2.46-4.28c.71-1.24.15-1.91-.12-2.14a2.22,2.22,0,0,0-1.72-.38c.84-1.46,1.56-2.83,2.2-4.18a1.79,1.79,0,0,0-.41-2.23,2,2,0,0,0-2.47.05c-.53.4-1.07.82-1.62,1.28.87-1.4,1.82-2.93,2.75-4.48a2.41,2.41,0,0,0-.19-3,1.71,1.71,0,0,0-1.39-.42c.6-.91,1.12-1.74,1.61-2.55a2.14,2.14,0,0,0-.13-2.64,1.86,1.86,0,0,0-2.4,0l-.41.27Q94,78.75,96.56,75a2.19,2.19,0,0,0-.11-2.85,1.92,1.92,0,0,0-2.59,0l-1.64,1.24c1.15-1.85,2.2-3.69,3.18-5.57A1.76,1.76,0,0,0,95,65.5a2.65,2.65,0,0,0-3.29.45l-1.57,1.62c2.59-3.82,5-7.68,7.1-11.54l.3-.14Q96.8,58.08,96,60.27a1.62,1.62,0,0,0,.66,2.16,2.4,2.4,0,0,0,2.86-1l.53-.77-1,3c-.49,1.44.32,2,.58,2.14a2.52,2.52,0,0,0,2.94-.92l.3-.39-.12.46q-.32,1.27-.65,2.54c-.34,1.31.35,1.8.66,2a3.44,3.44,0,0,0,3.51-1.1c.26-.34.53-.68.81-1-.29,1.32-.65,2.61-1.07,3.92a1.45,1.45,0,0,0,.42,1.81c.87.6,2.52.15,3.22-.41l.43-.34q-.44,1.22-.87,2.45c-.52,1.5.18,2.19.5,2.41a2.72,2.72,0,0,0,3.16-.47,31.93,31.93,0,0,1,2.94-2.2,1.56,1.56,0,0,0,.94.91,2.68,2.68,0,0,0,3-1.18,8,8,0,0,0,1.51-4.62A1.51,1.51,0,0,0,120.65,68.28Zm-26.09-15,1.89-2.66c-.34.78-.66,1.56-1,2.36A3.35,3.35,0,0,0,94.57,53.28ZM76.48,77.84q-1.15,1.65-2.27,3.3l-.24,0Zm-5.4-36.77a3.28,3.28,0,0,0-.28.37,2.88,2.88,0,0,0-.9.67l-3.73,4,2.95-3.61c.87-.74,1.76-1.46,2.66-2.18Zm4.81,3.32.11.11c-1.09-.49-2.91.32-3.54,1.13-.34.44-1.7,1.9-2.05,2.36.55-.87,2.09-2.74,2.6-3.6a2.82,2.82,0,0,0,.23-.48l.3-.21q1.51-1.2,3.06-2.47L76,42A1.81,1.81,0,0,0,75.89,44.39Z"/><path class="cls-5" d="M74.8,20.63c-7.56,3.45-11.51,13.48-7.56,21C72,50.77,84,51.53,91.31,45.07S99.14,26.49,90,21.32c-7.79-4.42-19.21-2.93-23.76,5.23-1,1.71,1.52,1.73,2.28.58C71.9,22.07,81,22.39,85.73,24.94c6.1,3.29,9,12.69,2.54,17.35-12.52,9-28.34-11.77-13.2-20.13.79-.44.92-2.07-.27-1.53Z"/><path class="cls-5" d="M63.75,55.88c.4.32-1.28,7.64-1.4,8.46a148,148,0,0,1-3,15.34,125,125,0,0,0-3.14,15.61c-.42,3.59-.15,7.38,2.92,9.71,6.11,4.65,12.76-.55,15.11-6.56,1.44-3.69,1.51-7.74,2.7-11.5.58-1.83,0-.77.93-.87a12.45,12.45,0,0,1,3.21.42c1.45.25,2.72.7,4.12,0s3.45-4.7.47-4-6.07-1.47-9.07-.33c-2.56,1-3.43,3.54-4.13,6-1,3.48-1.19,7.49-2.82,10.75-2.19,4.39-7,4.41-9.18-.09-1.94-3.93,1.14-10.44,2.13-14.48,1.19-4.87,1.75-9.82,2.67-14.74.69-3.67,3.66-12.29.3-15.44-.84-.78-2.65,1-1.83,1.7Z"/><path class="cls-5" d="M68.36,40.4C60.94,39,56.28,47.19,53.1,52.48,50.22,57.29,47.17,62.3,42.88,66,40,68.44,37.43,70.58,39,74.74c2.53,6.54,9,4.79,13.29,1.71,6.88-5,12.65-13,14.49-21.32.47-2.14-2.33-.89-2.88.14-3.28,6.14-5.88,12.65-11.21,17.4a18.85,18.85,0,0,1-4.18,3c-5.06,2.41-9.25-2.5-5-7.22,1.88-2.07,4.29-3.64,6.12-5.84a60.84,60.84,0,0,0,5-7.28C58,49.81,62.85,44.19,69.58,42.51c.74-.18.2-1.84-1.22-2.11Z"/><path class="cls-5" d="M81.15,86.91c.06,12.65-1.76,26.91,2.8,39,1.54,4.09,4.2,8.4,8.71,9.51a8.46,8.46,0,0,0,9.69-4.11c2.6-4.85-.5-10.63-1.61-15.48A135.64,135.64,0,0,1,97.29,94c-.42-7-.47-14-.49-21.06s2-14.9.89-22c-.3-1.93-2.88-.47-3.1.81C92.8,61.86,93.33,73.17,93.5,83.37a161.19,161.19,0,0,0,3.56,32c.53,2.44,1.18,4.84,1.75,7.27.39,1.64,1.11,3.78.71,5.47-.55,2.36-3.34,4.43-6,3.38-5.34-2.12-6-9.27-6.84-14.17C85,106.86,85.43,96.07,84.86,85.5c-.13-2.4-3.72-.4-3.71,1.41Z"/><path class="cls-5" d="M92.25,42.47C98,44.18,101,48.14,104.05,53c3.85,6.14,7.29,11.2,12.86,15.94a10.39,10.39,0,0,1,2.37,2.26q-.94,6.52-5.23,4.79a8.25,8.25,0,0,1-1.06-.61,20.77,20.77,0,0,1-4.28-3.18C103.25,67.28,101,65,97,55.42c-.72-1.74-3.26-.47-3,.92,1.61,8.24,7.4,16.1,14.31,20.79,1.75,1.18,4.73,2.58,6.93,2.35a9.56,9.56,0,0,0,7.14-4.9c2-4.18-.91-6.32-3.94-9-3.75-3.3-6.6-7.6-9.22-11.81-3.7-5.94-7.55-14.75-16-13.39-.59.1-2.16,1.71-1,2.06Z"/><path class="cls-4" d="M118.92,229.67c-.5-1.36-2.77.3-2.44,1.47l.82,2.84q-.39-1.29-.79-2.55c-.26.14-.61.49-.62.68l.85,3.48c3.62,14.82,7.35,30.14.39,45a30.81,30.81,0,0,1-5.49,8.08C102.57,296,89.21,298,77.38,295c-14.46-3.56-27.31-13.3-34.1-26.08-7.39-13.91-6.34-28.73-.17-42.78.34-.78-.72-.84-1.08-.3a39.23,39.23,0,0,0-6.6,24.25c-.11,15.93,8.45,31.78,20.88,40.79,11.87,8.6,28.11,11.31,41.38,6.93l.36-.13c11.34-2.59,21.11-9.71,25.46-22.17C128.77,260.49,124.22,244.11,118.92,229.67ZM73.68,298a51.47,51.47,0,0,1-33.18-27.2A45,45,0,0,1,36.78,259a54.24,54.24,0,0,0,21.88,31,52.48,52.48,0,0,0,34.27,8.58A43.47,43.47,0,0,1,73.68,298Zm46-19.81a28,28,0,0,1-5.53,8.18,35.61,35.61,0,0,0,5.08-9.2c4.84-12.81,2.7-26.84-.86-39.6C122.19,250.92,125.58,264.86,119.67,278.17Z"/><path class="cls-3" d="M120.65,226.13a2.27,2.27,0,0,0-2.15-.15h0c-.93.47-1.83,1-2.73,1.5l0-.14c.37-1.08.74-2.17,1.1-3.25a1.46,1.46,0,0,0-.42-1.83c-.89-.62-1.56-.16-2.28.42-.4.32-1.8,3.63-2.2,3.95.36-1.82.61-6.59.74-8.39a1.38,1.38,0,0,0-.72-1.46,3.31,3.31,0,0,0-3,.64c-.07.06-2.14,4.12-2.2,4.18.3-1.22,1.53-6.27,1.74-7.27.24-1.21.69-1.68.34-1.86-.9-.45-2.32.13-3.08.79l.66-2.1a1.28,1.28,0,0,0-.41-1.58,2.63,2.63,0,0,0-2.69.35l-.6.5.48-1.41a1.59,1.59,0,0,0-.45-2,2,2,0,0,0-2,0c.19-.57.36-1.14.53-1.71A1.24,1.24,0,0,0,101,204a1.48,1.48,0,0,0-1.15-.34l.73-1c1-1.42.6-2.46-.09-3a2.83,2.83,0,0,0-3.77.91q-2.67,3.55-5.49,7.11,2.82-4.11,5.46-8.14c.93-1.43.57-2.45-.09-2.93a4.3,4.3,0,0,0-4.75.89c-3.54,4.37-7.22,10.76-11,15.13l3.27-5.85c.9-1.32-.49-1.39-1.11-1.91a3.83,3.83,0,0,0-4.21.41c-1.84,1.82-8,12.06-9.83,13.89,1-2.41,7.12-12.3,7.76-14.82a1.69,1.69,0,0,0-.31-1.73,2.11,2.11,0,0,0,2-.18l.27-.16a2.14,2.14,0,0,0,.18,1.67c.39.65,1.34,1.13,2.7.32,6-3.56,11.66-7.84,12.13-15a1.31,1.31,0,0,0-.74-1.37,2.85,2.85,0,0,0-2.71.62c-.22.22-5.43,6.44-5.65,6.65.82-1.09,6.44-8.26,6.38-9.88a1.35,1.35,0,0,0-.8-1.29,2.71,2.71,0,0,0-2.51.59c-.14.12-4.27,5.24-4.41,5.36.33-.74,4.08-6.36,3.7-6.7-.59-.54-1.73-1.62-2.61-.8-2.05,1.91-4.24,4.7-6.47,6.44,1.82-2.25,3.38-4.22,4.84-6.14a1.52,1.52,0,0,0,0-2.16,1.79,1.79,0,0,0-2.46.24c-1.72,1.71-3.45,3.37-5.14,5,1-1.6,2-3.11,3.06-4.56a2,2,0,0,0,.14-2.17,1.28,1.28,0,0,0-1.44-.49c-5.53,1.29-9.1,5.59-10.59,12.79a1,1,0,0,0,.84,1.33c-.27.54-.54,1.08-.79,1.64a1.49,1.49,0,0,0,.1,1.69,1.38,1.38,0,0,0,.58.39l-1.42,1.72a73.94,73.94,0,0,0-12.43,11.57L53,210a34.71,34.71,0,0,1-7.59,12.49,7.84,7.84,0,0,1-2.56,1.88l-.15.07-.08.14c-.48.81-1,1.62-1.43,2.44a.94.94,0,0,0,.17,1.33,1.14,1.14,0,0,0,.63.18,34.32,34.32,0,0,0-1.63,3.28,1.6,1.6,0,0,0,.47,2.11,2.15,2.15,0,0,0,2.66-.46c2.4-2.58,4.82-4.15,7.3-6.78-1.45,1.73-4.86,5.4-6.2,7-.84,1,.33,1,.87,1.64s2.64-1.07,3.73-1.82a91.74,91.74,0,0,0,17.47-16.13,50.64,50.64,0,0,1-4.42,6.38,1.87,1.87,0,0,0-.05,2.72,2.36,2.36,0,0,0,3.22-.28L67.61,224,62,232.31a2.05,2.05,0,0,0,.15,2.87,2.28,2.28,0,0,0,3.1-.44c1.45-1.49,2.94-3.05,4.5-4.7-3.39,4.43-6.8,8.73-10.19,12.85a1.82,1.82,0,0,0-.08,2.63,2.31,2.31,0,0,0,3.15-.24q2.29-2.19,4.56-4.45c-3.36,4.42-6.51,7.52-9.54,11.42a3.32,3.32,0,0,0-.07,3.63,2.37,2.37,0,0,0,3.16-.23l1.16-1.05c-.59.79-1.16,1.54-1.72,2.27-1.18,1.52-.45,2.46-.2,2.72a2.75,2.75,0,0,0,3.49-.12l.17-.13a1.79,1.79,0,0,0,1,.8c.89.28,5.22,0,6.05-1.24l.91-5.93a2.41,2.41,0,0,0,0-2.84,1.71,1.71,0,0,0-.9-.57c.41-.62.82-1.24,1.22-1.86a3.54,3.54,0,0,0,.83-.51c2.87-2.34,5.74-4.81,8.59-7.38A1.87,1.87,0,0,0,84,242.44l2.11-1.57-5.68,8.31a1.8,1.8,0,0,0,.09,2.52,2.09,2.09,0,0,0,2.8-.32l.92-.87c-.91,1.16-1.81,2.23-2.71,3.22s-.89,2.3-.32,2.89,1.67.75,2.84-.23c.44-.37,5-4.35,5.46-4.74-1.61,2.81-7.26,8.2-8.79,10.92a3,3,0,0,0,.25,3,2.2,2.2,0,0,0,2.72-.32c1-1,2-2,3.13-3.06-.76,1.09-1.55,2.15-2.38,3.18s-.63,1.87-.18,2.32a2.11,2.11,0,0,0,2.21.36q-1.14,1.89-2.27,3.79a2.42,2.42,0,0,0,.21,3,2,2,0,0,0,2.61-.12c.61-.44,5.21-4.63,5.83-5.06-1.16,2-6.34,6.55-7.59,8.26a3.89,3.89,0,0,0,0,4.05,2.16,2.16,0,0,0,2.91,0l1.88-1.32c-.65,1.22-1.31,2.42-2,3.59a1.74,1.74,0,0,0,.18,2.22,2.38,2.38,0,0,0,2.83.16l1.43-.89q-.37.66-.75,1.32a2.11,2.11,0,0,0,0,2,1.4,1.4,0,0,0,1.24.72h0a10.18,10.18,0,0,0,7-2.56,2.48,2.48,0,0,0,1-2.37,2,2,0,0,0-1.37-1.51,2.11,2.11,0,0,0-.94-.07c.59-1,1.19-1.91,1.77-2.88a2.46,2.46,0,0,0-.13-3,2.14,2.14,0,0,0-2.77,0l-.84.55c.71-1.31,1.38-2.63,2-3.94a2.07,2.07,0,0,0-.42-2.58,2.42,2.42,0,0,0-3,0l-.18.13c.87-1.62,1.65-3.25,2.34-4.86a2.17,2.17,0,0,0-.55-2.65,2.31,2.31,0,0,0-2.84.12l-1,.78,2.46-4.28c.71-1.24.15-1.91-.12-2.14a2.22,2.22,0,0,0-1.72-.38c.84-1.46,1.56-2.83,2.2-4.18a1.79,1.79,0,0,0-.41-2.23,2,2,0,0,0-2.47.05c-.53.4-1.07.82-1.62,1.28.87-1.4,1.82-2.93,2.75-4.48a2.41,2.41,0,0,0-.19-3,1.71,1.71,0,0,0-1.39-.42c.6-.91,1.12-1.74,1.61-2.55s1.51-4,.87-4.64c-.47-.45-7.91,7-9,7.66-.14.09,5.3-5.47,5.16-5.38q2.63-3.68,5.23-7.39a2.19,2.19,0,0,0-.11-2.85,1.92,1.92,0,0,0-2.59,0l-1.64,1.24c1.15-1.85,2.2-3.69,3.18-5.57a1.76,1.76,0,0,0-.36-2.41,2.65,2.65,0,0,0-3.29.45l-1.57,1.62c2.59-3.82,5-7.68,7.1-11.54l.3-.14q-.78,2.19-1.54,4.38a1.62,1.62,0,0,0,.66,2.16,2.4,2.4,0,0,0,2.86-1l.53-.77-1,3c-.49,1.44.32,2,.58,2.14a2.52,2.52,0,0,0,2.94-.92l.3-.39-.12.46q-.32,1.27-.65,2.54c-.34,1.31.35,1.8.66,2a3.44,3.44,0,0,0,3.51-1.1c.26-.34.53-.68.81-1-.29,1.32-.65,2.61-1.07,3.92a1.45,1.45,0,0,0,.42,1.81c.87.6,2.52.15,3.22-.41l.43-.34q-.44,1.22-.87,2.45c-.52,1.5.18,2.19.5,2.41a2.72,2.72,0,0,0,3.16-.47c1-.8,1.93.47,2.94-.2.16.42.49-1.26.94-1.09a2.68,2.68,0,0,0,3-1.18,8,8,0,0,0,1.51-4.62A1.51,1.51,0,0,0,120.65,226.13Zm-26.09-15,1.89-2.66c-.34.78-.66,1.56-1,2.36A3.35,3.35,0,0,0,94.57,211.13ZM85.33,223.5c-.77,1.1-9.42,14.56-10.17,15.67-.08,0-3.45,3.67-3.53,3.67C72.47,241.75,84.5,224.6,85.33,223.5ZM71.08,198.91a3.28,3.28,0,0,0-.28.37,2.88,2.88,0,0,0-.9.67l-3.73,4,2.95-3.61c.87-.74,1.76-1.46,2.66-2.18Zm4.81,3.32.11.11c-1.09-.49-2.91.32-3.54,1.13l-1.05,1.36q.83-1.31,1.6-2.6a2.82,2.82,0,0,0,.23-.48l.3-.21c1-.8,5.09-5.54,6.12-6.38L76,199.83A1.81,1.81,0,0,0,75.89,202.23Z"/><path class="cls-5" d="M90,179.17c-7.79-4.42-19.21-2.93-23.76,5.23-.65,1.17.3,1.55,1.21,1.3a15.14,15.14,0,0,0-.24,13.8c4.77,9.12,16.79,9.88,24.08,3.41S99.14,184.34,90,179.17Zm-2.75,21c-11.61,8.38-25-8.87-15-18.11,4.18-1.78,10-1.12,13.48.75C91.84,186.08,93.73,195.48,87.27,200.14Z"/><path class="cls-5" d="M63.75,213.73c.4.32-1.28,7.64-1.4,8.46a148,148,0,0,1-3,15.34,125,125,0,0,0-3.14,15.61c-.42,3.59-.15,7.38,2.92,9.71,6.11,4.65,12.76-.55,15.11-6.56,1.44-3.69,1.51-7.74,2.7-11.5.58-1.83,0-.77.93-.87a12.45,12.45,0,0,1,3.21.42c1.45.25,2.72.7,4.12,0s3.45-4.7.47-4-6.07-1.47-9.07-.33c-2.56,1-3.43,3.54-4.13,6-1,3.48-1.19,7.49-2.82,10.75-2.19,4.39-7,4.41-9.18-.09-1.94-3.93,1.14-10.44,2.13-14.48,1.19-4.87,1.75-9.82,2.67-14.74.69-3.67,3.66-12.29.3-15.44-.84-.78-2.65,1-1.83,1.7Z"/><path class="cls-5" d="M68.36,198.24c-7.42-1.43-12.08,6.8-15.26,12.09-2.89,4.8-5.93,9.81-10.22,13.51-2.84,2.45-5.45,4.59-3.85,8.75,2.53,6.54,9,4.79,13.29,1.71,6.88-5,12.65-13,14.49-21.32.47-2.14-2.33-.89-2.88.14-3.28,6.14-4.88,10.65-10.21,15.4a30.42,30.42,0,0,1-5.18,4c-5.06,2.41-9.25-1.5-5-6.22,1.88-2.07,4.29-3.64,6.12-5.84a60.84,60.84,0,0,0,5-7.28C58,207.66,60.85,203,67.58,201.36c.74-.18,2.2-2.84.78-3.11Z"/><path class="cls-5" d="M81.15,244.75c.06,12.65-1.76,26.91,2.8,39,1.54,4.09,4.2,8.4,8.71,9.51a8.46,8.46,0,0,0,9.69-4.11c2.6-4.85-.5-10.63-1.61-15.48-1.63-7.14-2-14.55-2.46-21.84-.42-7-.47-14-.49-21.06s1-14.9-.11-22c-.3-1.93-2.88-.47-3.1.81C92.8,219.7,93.33,231,93.5,241.22a161.19,161.19,0,0,0,3.56,32c.53,2.44,1.18,4.84,1.75,7.27.39,1.64,1.11,3.78.71,5.47-.55,2.36-3.34,4.43-6,3.38-5.34-2.12-6-9.27-6.84-14.17-1.71-10.48-1.26-21.26-1.83-31.83-.13-2.4-3.72-.4-3.71,1.41Z"/><path class="cls-5" d="M92.25,200.31C98,202,101,206,104.05,210.89c3.85,6.14,7.29,11.2,12.86,15.94a10.39,10.39,0,0,1,2.37,2.26q-.94,6.52-5.23,4.79a8.25,8.25,0,0,1-1.06-.61,20.77,20.77,0,0,1-4.28-3.18c-5.46-5-8-9.65-11.67-15.81-1-1.61-3.26-1.47-3-.08,1.61,8.24,7.4,16.1,14.31,20.79,1.75,1.18,3.73,2.58,5.93,2.35a9.56,9.56,0,0,0,7.14-4.9c2-4.18.09-6.32-2.94-9-3.75-3.3-6.6-7.6-9.22-11.81-3.7-5.94-7.55-14.75-16-13.39-.59.1-2.16,1.71-1,2.06Z"/><path class="cls-4" d="M116.84,383.4c-.5-1.36-2.77.3-2.44,1.47l.82,2.84q-.39-1.29-.79-2.55c-.26.14-.61.49-.62.68l.85,3.48c3.62,14.82,7.35,30.14.39,45a30.81,30.81,0,0,1-5.49,8.08c-9.08,7.38-22.43,9.32-34.27,6.41-14.46-3.56-27.31-13.3-34.1-26.08C33.81,408.78,34.86,394,41,379.91c.34-.78-.72-.84-1.08-.3a39.23,39.23,0,0,0-6.6,24.25c-.11,15.93,8.45,31.78,20.88,40.79,11.87,8.6,28.11,11.31,41.38,6.93l.36-.13c11.34-2.59,21.11-9.71,25.46-22.17C126.69,414.22,122.14,397.84,116.84,383.4ZM71.6,451.72a51.47,51.47,0,0,1-33.18-27.2,45,45,0,0,1-3.72-11.77,54.24,54.24,0,0,0,21.88,31,52.48,52.48,0,0,0,34.27,8.58A43.47,43.47,0,0,1,71.6,451.72Zm46-19.81a28,28,0,0,1-5.53,8.18,35.61,35.61,0,0,0,5.08-9.2c4.84-12.81,2.7-26.84-.86-39.6C120.11,404.65,123.5,418.59,117.58,431.9Z"/><path class="cls-3" d="M118.57,379.86a2.27,2.27,0,0,0-2.15-.15h0c-.93.47-1.83,1-2.73,1.5l0-.14c.37-1.08.74-2.17,1.1-3.25a1.46,1.46,0,0,0-.42-1.83c-.89-.62-2.56-.16-3.28.42l-1.2.95a44.9,44.9,0,0,0,.74-5.39,1.38,1.38,0,0,0-.72-1.46,3.31,3.31,0,0,0-3,.64l-.2.18c.3-1.22.53-2.27.74-3.27.24-1.21-.31-1.68-.66-1.86-.9-.45-2.32.13-3.08.79l.66-2.1a1.28,1.28,0,0,0-.41-1.58,2.63,2.63,0,0,0-2.69.35l-.6.5.48-1.41a1.59,1.59,0,0,0-.45-2,2,2,0,0,0-2,0c.19-.57.36-1.14.53-1.71a1.24,1.24,0,0,0-.35-1.31,1.48,1.48,0,0,0-1.15-.34l.73-1c1-1.42.6-2.46-.09-3-1-.7-1.71-.5-2.77.91-1.78,2.37-4.62,4.74-6.49,7.11q2.82-4.11,5.46-8.14c.93-1.43.57-2.45-.09-2.93a2.89,2.89,0,0,0-3.75.89c-3.54,4.37-7.22,8.76-11,13.13L81,362.51a2.06,2.06,0,0,0-.11-2.91c-.75-.63-3.09-1.69-4.21-.59-1.84,1.82-2.68,4.65-4.52,6.47a54.54,54.54,0,0,0,2.45-7.41,1.69,1.69,0,0,0-.31-1.73,2.11,2.11,0,0,0,2-.18l.27-.16a2.14,2.14,0,0,0,.18,1.67c.39.65,1.34,1.13,2.7.32,6-3.56,11.66-7.84,12.13-15a1.31,1.31,0,0,0-.74-1.37,2.85,2.85,0,0,0-2.71.62l-.65.65a5.79,5.79,0,0,0,1.38-3.88,1.35,1.35,0,0,0-.8-1.29,2.71,2.71,0,0,0-2.51.59l-.41.36c.33-.74,2.08-1.36,1.7-1.7-.59-.54-1.73-3.62-2.61-2.8-2.05,1.91-6.24,6.7-8.47,8.44,1.82-2.25,3.38-4.22,4.84-6.14a1.52,1.52,0,0,0,0-2.16,1.79,1.79,0,0,0-2.46.24c-1.72,1.71-3.45,2.37-5.14,4,1-1.6,3-3.11,4.06-4.56a2,2,0,0,0,.14-2.17c-.3-.45-1.83.37-2.44.51-5.53,1.29-9.1,5.59-10.59,12.79a1,1,0,0,0,.84,1.33c-.27.54-.54,1.08-.79,1.64a1.49,1.49,0,0,0,.1,1.69,1.38,1.38,0,0,0,.58.39L63.49,352a73.94,73.94,0,0,0-12.43,11.57l-.1.18a34.71,34.71,0,0,1-7.59,12.49,7.84,7.84,0,0,1-2.56,1.88l-.15.07-.08.14c-.48.81-1,1.62-1.43,2.44a.94.94,0,0,0,.17,1.33,1.14,1.14,0,0,0,.63.18,34.32,34.32,0,0,0-1.63,3.28,1.6,1.6,0,0,0,.47,2.11,2.15,2.15,0,0,0,2.66-.46c2.4-2.58,4.82-5.15,7.3-7.78-1.45,1.73-3.86,5.4-5.2,7-.84,1-.67,1-.13,1.64s2.64-.07,3.73-.82A91.74,91.74,0,0,0,64.6,371.06a50.64,50.64,0,0,1-4.42,6.38,1.87,1.87,0,0,0-.05,2.72,2.36,2.36,0,0,0,3.22-.28l2.17-2.13L59.88,386a2.05,2.05,0,0,0,.15,2.87c.74.6,0,2.65,1.1,1.56,1.45-1.49,4.94-5.05,6.5-6.7-3.39,4.43-6.8,9.73-10.19,13.85a1.82,1.82,0,0,0-.08,2.63,2.31,2.31,0,0,0,3.15-.24c1.52-1.46,4-3.95,5.56-5.45C62.73,399,58.58,403.08,55.55,407a1.85,1.85,0,0,0-.07,2.63,2.37,2.37,0,0,0,3.16-.23l1.16-1.05c-.59.79-1.16,1.54-1.72,2.27-1.18,1.52-.45,2.46-.2,2.72a2.75,2.75,0,0,0,3.49-.12l.17-.13a1.79,1.79,0,0,0,1,.8,2.75,2.75,0,0,0,3.05-1.24l3.91-5.93a2.41,2.41,0,0,0,0-2.84,1.71,1.71,0,0,0-.9-.57c.41-.62.82-1.24,1.22-1.86a3.54,3.54,0,0,0,.83-.51c2.87-2.34,5.74-4.81,8.59-7.38a1.87,1.87,0,0,0,2.64,2.65L84,394.6l-5.68,8.31a1.8,1.8,0,0,0,.09,2.52c.65.55,1.82-.38,2.8-1.32.3-.29,5.13-4.16,5.45-4.45-.91,1.16-6.33,6.81-7.23,7.8s-.89,2.3-.32,2.89,1.67.75,2.84-.23c.44-.37,4.39-4.58,4.88-5-1.61,2.81-6.68,9.43-8.2,12.15a1.43,1.43,0,0,0,.25,2,2.2,2.2,0,0,0,2.72-.32c1-1,2-2,3.13-3.06-.76,1.09-1.55,2.15-2.38,3.18s-.63,1.87-.18,2.32a2.11,2.11,0,0,0,2.21.36q-1.14,1.89-2.27,3.79a2.42,2.42,0,0,0,.21,3,2,2,0,0,0,2.61-.12l1.84-1.31a63.44,63.44,0,0,1-3.61,5.51,2.32,2.32,0,0,0,0,3.05,2.16,2.16,0,0,0,2.91,0L88,434.43c-.65,1.22-1.31,2.42-2,3.59a1.74,1.74,0,0,0,.18,2.22,2.38,2.38,0,0,0,2.83.16l1.43-.89q-.37.66-.75,1.32a2.11,2.11,0,0,0,0,2,1.4,1.4,0,0,0,1.24.72h0A10.18,10.18,0,0,0,98,441a2.48,2.48,0,0,0,1-2.37,2,2,0,0,0-1.37-1.51,2.11,2.11,0,0,0-.94-.07c.59-1,1.19-1.91,1.77-2.88a2.46,2.46,0,0,0-.13-3,2.14,2.14,0,0,0-2.77,0l-.84.55c.71-1.31,1.38-2.63,2-3.94a2.07,2.07,0,0,0-.42-2.58,2.42,2.42,0,0,0-3,0l-.18.13c.87-1.62,1.65-3.25,2.34-4.86A2.17,2.17,0,0,0,95,417.8a2.31,2.31,0,0,0-2.84.12l-1,.78,2.46-4.28c.71-1.24.15-1.91-.12-2.14a2.22,2.22,0,0,0-1.72-.38c.84-1.46,1.56-2.83,2.2-4.18a1.79,1.79,0,0,0-.41-2.23,2,2,0,0,0-2.47.05c-.53.4-1.07.82-1.62,1.28.87-1.4,1.82-2.93,2.75-4.48a2.41,2.41,0,0,0-.19-3,1.71,1.71,0,0,0-1.39-.42c.6-.91,1.12-1.74,1.61-2.55a2.14,2.14,0,0,0-.13-2.64,1.86,1.86,0,0,0-2.4,0l-.41.27q2.63-3.68,5.23-7.39a2.19,2.19,0,0,0-.11-2.85,1.92,1.92,0,0,0-2.59,0l-1.64,1.24c1.15-1.85,2.2-3.69,3.18-5.57.51-1,1.37-2.88.64-3.41-.92-.66-1.43-1.46-2.29-.55-.51.53-7,8.07-7.57,8.62,2.59-3.82,9-12.68,11.1-16.54l.3-.14q-.78,2.19-1.54,4.38a1.62,1.62,0,0,0,.66,2.16,2.4,2.4,0,0,0,2.86-1l.53-.77-1,3c-.49,1.44.32,2,.58,2.14a2.52,2.52,0,0,0,2.94-.92l.3-.39-.12.46q-.32,1.27-.65,2.54c-.34,1.31.35,1.8.66,2a3.44,3.44,0,0,0,3.51-1.1c.26-.34.53-.68.81-1-.29,1.32-.65,2.61-1.07,3.92a1.45,1.45,0,0,0,.42,1.81c.87.6,2.52.15,3.22-.41l.43-.34q-.44,1.22-.87,2.45c-.52,1.5.18,2.19.5,2.41a2.72,2.72,0,0,0,3.16-.47,31.93,31.93,0,0,1,2.94-2.2,1.56,1.56,0,0,0,.94.91,2.68,2.68,0,0,0,3-1.18,8,8,0,0,0,1.51-4.62A1.51,1.51,0,0,0,118.57,379.86Zm-26.09-15,1.89-2.66c-.34.78-.66,1.56-1,2.36A3.35,3.35,0,0,0,92.49,364.86ZM69,352.64a3.28,3.28,0,0,0-.28.37,2.88,2.88,0,0,0-.9.67l-3.73,4L67,354c.87-.74,1.76-1.46,2.66-2.18ZM73.81,356l.11.11c-1.09-.49-2.91.32-3.54,1.13l-1.05,1.36q.83-1.31,1.6-2.6a2.82,2.82,0,0,0,.23-.48l.3-.21c1-.8,4-6.62,5.06-7.47-.2.25-3.4,7.5-3.6,7.75C72.15,356.55,73.38,355.47,73.81,356Z"/><path class="cls-5" d="M87.94,332.9c-7.79-4.42-19.21-2.93-23.76,5.23-.65,1.17.3,1.55,1.21,1.3a15.14,15.14,0,0,0-.24,13.8c4.77,9.12,16.79,9.88,24.08,3.41S97.06,338.07,87.94,332.9Zm-1.75,21c-13.55,9.45-26.48-8-15.85-17.28,4.43-4.2,10.84-3,14.32-1.08C90.75,338.81,92.72,349.31,86.19,353.87Z"/><path class="cls-5" d="M61.66,367.46c.4.32-1.28,7.64-1.4,8.46a148,148,0,0,1-3,15.34,125,125,0,0,0-3.14,15.61c-.42,3.59-.15,7.38,2.92,9.71,6.11,4.65,12.76-.55,15.11-6.56,1.44-3.69,1.51-7.74,2.7-11.5.58-1.83,0-.77.93-.87a12.45,12.45,0,0,1,3.21.42c1.45.25,2.72.7,4.12,0s3.45-4.7.47-4-7.26-1.59-9.07-1.33c-2.71.4-2.43,1.54-3.13,4-1,3.48-2.19,10.49-3.82,13.75-2.19,4.39-7,4.41-9.18-.09-1.94-3.93.14-10.44,1.13-14.48,1.19-4.87,2.75-9.82,3.67-14.74.69-3.67,3.66-12.29.3-15.44-.84-.78-2.65,1-1.83,1.7Z"/><path class="cls-5" d="M66.28,352c-7.42-1.43-12.08,6.8-15.26,12.09-2.89,4.8-6.93,8.81-11.22,12.51C37,379,35.34,382.15,37,386.31c2.53,6.54,10,4.79,14.29,1.71,6.88-5,10.65-13,12.49-21.32.47-2.14-1.33-.89-1.88.14C58.57,373,56,379.49,50.65,384.24a18.85,18.85,0,0,1-4.18,3c-5.06,2.41-9.25-2.5-5-7.22,1.88-2.07,4.29-3.64,6.12-5.84a60.84,60.84,0,0,0,5-7.28c3.38-5.55,6.18-10.17,12.92-11.85.74-.18,2.2-2.84.78-3.11Z"/><path class="cls-5" d="M79.07,398.48c.06,12.65-1.76,26.91,2.8,39,1.54,4.09,4.2,8.4,8.71,9.51,3.86,1,8.79-.57,10.69-4.11,2.6-4.85-.5-10.63-1.61-15.48a135.64,135.64,0,0,1-3.46-21.84c-.42-7-.47-14-.49-21.06s1-14.9-.11-22c-.3-1.93-2.88-.47-3.1.81-1.78,10.06-1.25,21.37-1.08,31.57A161.19,161.19,0,0,0,95,427c.53,2.44,1.18,4.84,1.75,7.27.39,1.64,1.11,3.78.71,5.47-.55,2.36-3.34,4.43-6,3.38-5.34-2.12-7-9.27-7.84-14.17-1.71-10.48-.26-21.26-.83-31.83-.13-2.4-3.72-.4-3.71,1.41Z"/><path class="cls-5" d="M90.17,354c5.72,1.71,8.73,5.67,11.8,10.57,3.85,6.14,7.29,11.2,12.86,15.94a10.39,10.39,0,0,1,2.37,2.26q-.94,6.52-5.23,4.79a8.25,8.25,0,0,1-1.06-.61,20.77,20.77,0,0,1-4.28-3.18c-5.46-5-8-11.65-11.67-17.81-1-1.61-2.26-.47-2,.92,1.61,8.24,6.4,17.1,13.31,21.79,1.75,1.18,4.73,2.58,6.93,2.35,2.84-.29,5.9-1.35,7.14-3.9,2-4.18-.91-7.32-3.94-10-3.75-3.3-6.6-7.6-9.22-11.81-3.7-5.94-7.55-14.75-16-13.39-.59.1-2.16,1.71-1,2.06Z"/><path class="cls-4" d="M117.85,539.58c-.5-1.36-2.77.3-2.44,1.47l.82,2.84q-.39-1.29-.79-2.55c-.26.14-.61.49-.62.68l.85,3.48c3.62,14.82,7.35,30.14.39,45a30.81,30.81,0,0,1-5.49,8.08c-9.08,7.38-22.43,9.32-34.27,6.41-14.46-3.56-27.31-13.3-34.1-26.08C34.82,565,35.87,550.14,42,536.09c.34-.78-.72-.84-1.08-.3A39.23,39.23,0,0,0,34.36,560c-.11,15.93,8.45,31.78,20.88,40.79,11.87,8.6,28.11,11.31,41.38,6.93l.36-.13c11.34-2.59,21.11-9.71,25.46-22.17C127.69,570.4,123.15,554,117.85,539.58ZM72.61,607.9a51.47,51.47,0,0,1-33.18-27.2,45,45,0,0,1-3.72-11.77,54.24,54.24,0,0,0,21.88,31,52.48,52.48,0,0,0,34.27,8.58A43.47,43.47,0,0,1,72.61,607.9Zm46-19.81a28,28,0,0,1-5.53,8.18,35.61,35.61,0,0,0,5.08-9.2c4.84-12.81,2.7-26.84-.86-39.6C121.12,560.83,124.51,574.77,118.59,588.08Z"/><path class="cls-3" d="M119.58,536a2.27,2.27,0,0,0-2.15-.15h0c-.93.47-1.83,1-2.73,1.5l0-.14c.37-1.08.74-2.17,1.1-3.25a1.46,1.46,0,0,0-.42-1.83c-.89-.62-2.56-.16-3.28.42l-1.2.95a44.9,44.9,0,0,0,.74-5.39,1.38,1.38,0,0,0-.72-1.46,3.31,3.31,0,0,0-3,.64l-.2.18c.3-1.22.53-2.27.74-3.27.24-1.21-.31-1.68-.66-1.86-.9-.45-2.32.13-3.08.79l.66-2.1a1.28,1.28,0,0,0-.41-1.58,2.63,2.63,0,0,0-2.69.35l-.6.5.48-1.41a1.59,1.59,0,0,0-.45-2,2,2,0,0,0-2,0c.19-.57.36-1.14.53-1.71a1.24,1.24,0,0,0-.35-1.31,1.48,1.48,0,0,0-1.15-.34l.73-1c1-1.42.6-2.46-.09-3a2.83,2.83,0,0,0-3.77.91Q93,514,90.15,517.58q2.82-4.11,5.46-8.14c.93-1.43.57-2.45-.09-2.93a2.89,2.89,0,0,0-3.75.89c-3.54,4.37-7.22,8.76-11,13.13L82,518.69a2.06,2.06,0,0,0-.11-2.91,3.83,3.83,0,0,0-4.21.41c-1.84,1.82-3.56,4.42-4.52,5.47,1-2.41,2.81-4.89,3.45-7.41.23-.92-1-1.44-1.31-1.73a2.11,2.11,0,0,0,2-.18l.27-.16a2.14,2.14,0,0,0,.18,1.67c.39.65,1.34,1.13,2.7.32,6-3.56,11.66-7.84,12.13-15a1.31,1.31,0,0,0-.74-1.37,2.85,2.85,0,0,0-2.71.62l-.65.65a5.79,5.79,0,0,0,1.38-3.88,1.35,1.35,0,0,0-.8-1.29,2.71,2.71,0,0,0-2.51.59l-.41.36a1.43,1.43,0,0,0-.3-1.7,2,2,0,0,0-2.61.2c-2.05,1.91-4.24,3.7-6.47,5.44,1.82-2.25,3.38-4.22,4.84-6.14a1.52,1.52,0,0,0,0-2.16,1.79,1.79,0,0,0-2.46.24c-1.72,1.71-3.45,3.37-5.14,5,1-1.6,2-3.11,3.06-4.56a2,2,0,0,0,.14-2.17,1.28,1.28,0,0,0-1.44-.49c-5.53,1.29-9.1,5.59-10.59,12.79a1,1,0,0,0,.84,1.33c-.27.54-.54,1.08-.79,1.64a1.49,1.49,0,0,0,.1,1.69,1.38,1.38,0,0,0,.58.39l-1.42,1.72A73.94,73.94,0,0,0,52.07,519.7l-.1.18a34.71,34.71,0,0,1-7.59,12.49,7.84,7.84,0,0,1-2.56,1.88l-.15.07-.08.14c-.48.81-1,1.62-1.43,2.44a.94.94,0,0,0,.17,1.33,1.14,1.14,0,0,0,.63.18,34.32,34.32,0,0,0-1.63,3.28,1.6,1.6,0,0,0,.47,2.11,2.15,2.15,0,0,0,2.66-.46c2.4-2.58,4.82-5.15,7.3-7.78-1.45,1.73-4.86,6.4-6.2,8-.84,1,1.33,1,1.87,1.64s1.64-1.07,2.73-1.82a91.74,91.74,0,0,0,17.47-16.13,50.64,50.64,0,0,1-4.42,6.38,1.87,1.87,0,0,0-.05,2.72,2.36,2.36,0,0,0,3.22-.28l2.17-2.13-5.64,8.29a2.05,2.05,0,0,0,.15,2.87,2.28,2.28,0,0,0,3.1-.44c1.45-1.49,11.8-16,13.36-17.64-3.39,4.43-15.66,23.67-19,27.79-.93,1.13-.62.12-.08.63a2.31,2.31,0,0,0,3.15-.24q2.29-2.19,4.56-4.45c-3.36,4.42-6.51,8.52-9.54,12.42a1.85,1.85,0,0,0-.07,2.63,2.37,2.37,0,0,0,3.16-.23l1.16-1.05c-.59.79-1.16,1.54-1.72,2.27-1.18,1.52-.45,2.46-.2,2.72a2.75,2.75,0,0,0,3.49-.12l.17-.13a1.79,1.79,0,0,0,1,.8,2.75,2.75,0,0,0,3.05-1.24l3.91-5.93a2.41,2.41,0,0,0,0-2.84,1.71,1.71,0,0,0-.9-.57c.41-.62.82-1.24,1.22-1.86a3.54,3.54,0,0,0,.83-.51c2.87-2.34,5.74-4.81,8.59-7.38a1.87,1.87,0,0,0,2.64,2.65L85,550.79l-5.68,8.31a1.8,1.8,0,0,0,.09,2.52,2.09,2.09,0,0,0,2.8-.32l.92-.87c-.91,1.16-1.81,2.23-2.71,3.22s-.89,2.3-.32,2.89,1.67.75,2.84-.23l1.39-1.14c-1.61,2.81-3.19,5.6-4.71,8.32a1.43,1.43,0,0,0,.25,2,2.2,2.2,0,0,0,2.72-.32c1-1,2-2,3.13-3.06-.76,1.09-1.55,2.15-2.38,3.18s-.63,1.87-.18,2.32a2.11,2.11,0,0,0,2.21.36q-1.14,1.89-2.27,3.79a2.42,2.42,0,0,0,.21,3,2,2,0,0,0,2.61-.12l1.84-1.31a63.44,63.44,0,0,1-3.61,5.51,2.32,2.32,0,0,0,0,3.05,2.16,2.16,0,0,0,2.91,0L89,590.61c-.65,1.22-1.31,2.42-2,3.59a1.74,1.74,0,0,0,.18,2.22,2.38,2.38,0,0,0,2.83.16l1.43-.89q-.37.66-.75,1.32a2.11,2.11,0,0,0,0,2,1.4,1.4,0,0,0,1.24.72h0a10.18,10.18,0,0,0,7-2.56,2.48,2.48,0,0,0,1-2.37,2,2,0,0,0-1.37-1.51,2.11,2.11,0,0,0-.94-.07c.59-1,1.19-1.91,1.77-2.88a2.46,2.46,0,0,0-.13-3,2.14,2.14,0,0,0-2.77,0l-.84.55c.71-1.31,1.38-2.63,2-3.94a2.07,2.07,0,0,0-.42-2.58,2.42,2.42,0,0,0-3,0l-.18.13c.87-1.62,1.65-3.25,2.34-4.86A2.17,2.17,0,0,0,96,574a2.31,2.31,0,0,0-2.84.12l-1,.78,2.46-4.28c.71-1.24.15-1.91-.12-2.14a2.22,2.22,0,0,0-1.72-.38c.84-1.46,1.56-2.83,2.2-4.18a1.79,1.79,0,0,0-.41-2.23,2,2,0,0,0-2.47.05c-.53.4-1.07.82-1.62,1.28.87-1.4,1.82-2.93,2.75-4.48a2.41,2.41,0,0,0-.19-3,1.71,1.71,0,0,0-1.39-.42c.6-.91,1.12-1.74,1.61-2.55a2.14,2.14,0,0,0-.13-2.64,1.86,1.86,0,0,0-2.4,0l-.41.27q2.63-3.68,5.23-7.39a2.19,2.19,0,0,0-.11-2.85,1.92,1.92,0,0,0-2.59,0l-1.64,1.24c1.15-1.85,2.2-3.69,3.18-5.57a1.76,1.76,0,0,0-.36-2.41c-.92-.66-1.43-.46-2.29.45-.51.53-9.22,12.7-9.75,13.25,2.59-3.82,12.15-19.31,14.29-23.17l.3-.14Q95.72,525.84,95,528a1.62,1.62,0,0,0,.66,2.16,2.4,2.4,0,0,0,2.86-1l.53-.77-1,3c-.49,1.44.32,2,.58,2.14a2.52,2.52,0,0,0,2.94-.92l.3-.39-.12.46q-.32,1.27-.65,2.54c-.34,1.31.35,1.8.66,2a3.44,3.44,0,0,0,3.51-1.1c.26-.34.53-.68.81-1-.29,1.32-.65,2.61-1.07,3.92a1.45,1.45,0,0,0,.42,1.81c.87.6,2.52.15,3.22-.41l.43-.34q-.44,1.22-.87,2.45c-.52,1.5.18,2.19.5,2.41a2.72,2.72,0,0,0,3.16-.47,31.93,31.93,0,0,1,2.94-2.2,1.56,1.56,0,0,0,.94.91,2.68,2.68,0,0,0,3-1.18,8,8,0,0,0,1.51-4.62A1.51,1.51,0,0,0,119.58,536ZM93.49,521l1.89-2.66c-.34.78-.66,1.56-1,2.36A3.35,3.35,0,0,0,93.49,521ZM75.41,545.6q-1.15,1.65-2.27,3.3l-.24,0ZM70,508.83a3.28,3.28,0,0,0-.28.37,2.88,2.88,0,0,0-.9.67l-3.73,4L68,510.23c.87-.74,1.76-1.46,2.66-2.18Zm4.81,3.32.11.11c-1.09-.49-2.91.32-3.54,1.13l-1.05,1.36q.83-1.31,1.6-2.6a2.82,2.82,0,0,0,.23-.48l.3-.21q1.51-1.2,3.06-2.47l-.6.75A1.81,1.81,0,0,0,74.82,512.14Z"/><path class="cls-5" d="M73.72,488.39c-7.56,3.45-11.51,13.48-7.56,21,4.77,9.12,16.79,9.88,24.08,3.41s7.83-18.58-1.29-23.75c-7.79-4.42-19.21-2.93-23.76,5.23-1,1.71,1.52,1.73,2.28.58,3.35-5.06,13.45-5.74,18.18-3.19,6.1,3.29,8,13.69,1.54,18.35-12.52,9-28.34-11.77-13.2-20.13.79-.44.92-2.07-.27-1.53Z"/><path class="cls-5" d="M62.67,523.64c.4.32-1.28,7.64-1.4,8.46-.75,5.2-.7,10.25-2,15.34A125,125,0,0,0,56.14,563c-.42,3.59-1.15,7.38,1.92,9.71,6.11,4.65,11.76-.55,14.11-6.56,1.44-3.69,1.51-7.74,2.7-11.5.58-1.83,1-.77,1.93-.87a12.45,12.45,0,0,1,3.21.42c1.45.25,2.72.7,4.12,0s3.45-4.7.47-4-6.07-1.47-9.07-.33c-2.56,1-3.43,3.54-4.13,6-1,3.48-1.19,7.49-2.82,10.75-2.19,4.39-7,5.41-9.18.91-1.94-3.93.14-11.44,1.13-15.48,1.19-4.87,2.75-9.82,3.67-14.74.29-1.55,3.39-14.42,2.3-15.44-.84-.78-4.65,1-3.83,1.7Z"/><path class="cls-5" d="M67.29,507.15c-7.42-1.43-11.08,6.8-14.26,12.09a67.28,67.28,0,0,1-12.22,14.51c-2.84,2.45-4.45,4.59-2.85,8.75,2.53,6.54,8,5.79,12.29,2.71,6.88-5,12.65-14,14.49-22.32.47-2.14-1.33-.89-1.88.14-3.28,6.14-5.88,12.65-11.21,17.4a18.85,18.85,0,0,1-4.18,3c-5.06,2.41-9.25-2.5-5-7.22,1.88-2.07,4.29-3.64,6.12-5.84a50.31,50.31,0,0,0,5-6.28c3.38-5.55,6.18-11.17,12.92-12.85.74-.18,2.2-2.84.78-3.11Z"/><path class="cls-5" d="M80.08,553.66c.06,12.65,1.76,26.59,2.8,39,.36,4.35,4.2,9.4,8.71,10.51a8.46,8.46,0,0,0,9.69-4.11c2.6-4.85-.5-10.63-1.61-15.48-1.63-7.14-2-14.55-2.46-21.84-.42-7-1.47-14-1.49-21.06s1-14.9-.11-22c-.3-1.93-1.88-.47-2.1.81-1.78,10.06-1.25,21.37-1.08,31.57a161.19,161.19,0,0,0,3.56,32c.53,2.44,1.18,4.84,1.75,7.27.39,1.64,1.11,3.78.71,5.47-.55,2.36-3.34,4.43-6,3.38-5.34-2.12-6-9.27-6.84-14.17-1.71-10.48-1.26-21.26-1.83-31.83-.13-2.4-3.72-.4-3.71,1.41Z"/><path class="cls-5" d="M91.18,509.22c5.72,1.71,8.73,6.67,11.8,11.57,3.85,6.14,7.29,11.2,12.86,15.94a10.39,10.39,0,0,1,2.37,2.26q-.94,6.52-5.23,4.79a8.25,8.25,0,0,1-1.06-.61c-1.56-.8-3-1-4.28-2.18-5.46-5-9-11.65-12.67-17.81-1-1.61-2.26-.47-2,.92,1.61,8.24,7.4,16.1,14.31,20.79,1.75,1.18,3.73,2.58,5.93,2.35a9.56,9.56,0,0,0,7.14-4.9c2-4.18.09-6.32-2.94-9-3.75-3.3-6.6-7.6-9.22-11.81-3.7-5.94-7.55-16.75-16-15.39-.59.1-2.16,3.71-1,4.06Z"/></g></svg>