<svg xmlns="http://www.w3.org/2000/svg" viewBox="0 0 168 624"><defs><style>.cls-1{fill:#009dff;}.cls-2{fill:#09519f;}.cls-3{fill:#f9c236;}.cls-4{fill:#042f70;}.cls-5{fill:#fff;}</style></defs><title>voteckick</title><g id="Camada_4" data-name="Camada 4"><path class="cls-1" d="M107.56,135.25c4.6-2.9,9.1-6,13.5-9.1a55.47,55.47,0,0,1-7.5,6.1ZM71.36,20.05c-6.8,5.8-14.7,10.4-22.3,14.8l-3.3,1.9C54.26,31.15,62.76,25.45,71.36,20.05Zm-14.9-.2c-4,3-8.3,5.8-12.5,8.4,2-1.5,4-2.9,6.1-4.2A70.58,70.58,0,0,1,56.46,19.85Zm44.9,12.8c2.3-1.9,4.6-3.7,7-5.4C106.16,29.15,103.76,31,101.36,32.65Zm30.5,75c-1.3,1-2.6,2-4,2.9C129.16,109.55,130.46,108.55,131.86,107.65Zm-28,13.7c-6.7,5.4-13.8,11.2-21.6,15.1A146.73,146.73,0,0,1,103.86,121.35Zm25.3-23c-4.3,3-8.8,5.7-13.4,8.3,4.9-3.6,9.9-7.1,15.1-10.2l4.5-2.7C133.26,95.45,131.16,97,129.16,98.35Zm-64.9,35,10.4-7.4a64,64,0,0,1-10.6,8.2C64.16,134,64.16,133.65,64.26,133.35Zm32.7-31c-4.2,3-8.5,5.9-12.9,8.6-2.3,1.4-4.6,2.7-6.9,4.1,7.6-5.7,15.2-11.3,23.1-16.6,4.3-2.9,8.8-5.6,13.2-8.3-4.3,3.1-8.5,6.3-12.8,9.5Zm60.2-51.2a12.19,12.19,0,0,0-5.9.9l.3-.3c1.5-1.4-.4-2.5-1.6-2.6a11.92,11.92,0,0,0-8.1,2.2l-1.3.9c1.9-1.5,3.8-2.9,5.7-4.4,1.1-.9,1.9-2.5.1-3.1a8.2,8.2,0,0,0-4.4-.1c.5-.5,1.1-1,1.6-1.5,1-.9,2-2.4.1-3.1-2.5-.9-5.7.1-8,1.3-3.3,1.7-6.6,3.5-9.8,5.3a113.25,113.25,0,0,0,10.6-10.2c1.3-1.5-.3-2.5-1.6-2.6a10.45,10.45,0,0,0-2.5,0,104.66,104.66,0,0,0,11.4-10.7c1.3-1.5-.3-2.5-1.6-2.6a11.64,11.64,0,0,0-8.1,2.2,370.48,370.48,0,0,1-33.3,25.4c-2.7,1.7-5.3,3.4-8,5.1C106.06,44,119,34,130,21.85c1.3-1.5-.3-2.5-1.6-2.6a11.56,11.56,0,0,0-3.2.1,15.92,15.92,0,0,0,1.3-2.2c1.2-2.2-4-2-4.8-1.8a8.33,8.33,0,0,0-1.5.4c.6-.6,1.3-1.2,1.9-1.8,1.4-1.4-.4-2.5-1.6-2.6a11.92,11.92,0,0,0-8.1,2.2c-5.6,4-11.1,8-16.7,12-1.5.9-3,1.7-4.5,2.5-9.4,5.3-18.4,11.2-27.6,16.8l-3.1,1.8.3-.2c19.1-12.3,39.2-23.2,56.6-37.7,1.7-1.4,1.4-3.1-.9-3.4a11.78,11.78,0,0,0-8.1,2.2,118.2,118.2,0,0,1-10.4,7c2.3-1.7,4.7-3.4,6.9-5.2,1.8-1.4,1.4-3.1-.9-3.4a12.32,12.32,0,0,0-8.1,2.2l-7.8,5.7a47.63,47.63,0,0,0,5-6.6c1-1.6-.1-2.4-1.7-2.6a12.2,12.2,0,0,0-7,1.5c-2.7,1.4-5.4,2.9-8.1,4.4.3-.4.7-.8,1-1.2,2.9-3.7-6.3-2.1-7.3-1.7a125.77,125.77,0,0,0-27.5,14.2,150.85,150.85,0,0,0-24.4,19.6c-1.5,1.5.1,2.2,1.6,2.5a71,71,0,0,0-9.4,8.8c-1.4,1.5.2,2.5,1.6,2.6a11.46,11.46,0,0,0,7-1.5c.6-.3,1.1-.7,1.7-1a74.85,74.85,0,0,0-9,7.9c-1.4,1.4.4,2.5,1.6,2.6a13.26,13.26,0,0,0,7-1.5c1.1-.5,2.2-1.1,3.3-1.6-4.3,3.7-8.6,7.7-12.6,11.8-1.4,1.4.4,2.5,1.6,2.6a6.69,6.69,0,0,0,2,0c-1.5,1.5-2.9,3.1-4.3,4.7s.3,2.5,1.6,2.6a10.75,10.75,0,0,0,3.1-.1c-1.3.9-2.7,1.8-4,2.8-1.9,1.4-1.3,3.1.9,3.3a11.78,11.78,0,0,0,8.1-2.2l4-2.8c11.9-8,24.7-14.7,37.2-21.7-4.6,3.6-9.3,7.2-14,10.6-4.4,2.3-8.9,4.5-13.4,6.6-7,3.3-16.8,7.1-19.9,14.9-1.1,2.8,5.4,1.7,6.3,1.5a35.74,35.74,0,0,0,6-2.1c-2.6,1.9-5.2,3.9-7.8,5.8-1.2.8-1.9,2.5-.1,3.1,2.5.9,5.8-.1,8-1.3l.1-.1a53.5,53.5,0,0,0-7.4,8.3c-1.1,1.5.1,2.4,1.7,2.6a12.2,12.2,0,0,0,7-1.5c.9-.5,1.9-1,2.8-1.5-2.3,2.1-4.6,4.2-6.9,6.4-1.4,1.4.4,2.5,1.7,2.6a10.75,10.75,0,0,0,5.3-.8,18.32,18.32,0,0,0-4.1,8.8c-.5,2.9,4.9,1.9,6.3,1.5a48.51,48.51,0,0,0,9.2-3.5c-1.8,1.9-3.5,3.9-5.2,6-1.2,1.5.2,2.5,1.7,2.6a11.83,11.83,0,0,0,3.7-.2,10.7,10.7,0,0,0-1.4,1.6c-1.3,1.5.3,2.5,1.7,2.6a11.46,11.46,0,0,0,7-1.5l.5-.3c-1.1,1-2.2,2.1-3.3,3.2-1.4,1.4.4,2.5,1.7,2.6a10.85,10.85,0,0,0,4-.3c.2,0,.5-.1.8-.1l.3,1.2c.7,2.1,4.9,1.2,6.3.8l.7-.2c-1.2,1.5.2,2.4,1.7,2.6a10.45,10.45,0,0,0,2.5,0c-1,1.9,3.8,2.1,4.8,1.9,2.2-.4,4.4-1,6.5-1.6-.6.3-1.2.7-1.8,1-.9.5-3.3,2.1-1.9,3.4s4.3.7,5.9.2,2.9-.8,4.3-1.3c-.8.7-1.3,1.6-.5,2.4,1.8,1.6,5.5.5,7.4-.3,10.6-4.1,21-8.4,30.3-14.4,1.8-.9,3.6-1.9,5.4-2.9,11.1-6.2,22.6-14.7,26.8-27.4.7-2-1.9-2.1-4.5-1.7a45.68,45.68,0,0,0,5.4-6.9c1.1-1.9-.1-2.5-1.9-2.5a30,30,0,0,0,6.2-9.5c.4-1.1-.7-1.6-1.6-1.8a19.22,19.22,0,0,0,1.6-4.2c.6-2.3-3.6-2-4.8-1.8a20.48,20.48,0,0,0-2.4.5c1.6-1.7,3.2-3.4,4.7-5.2,1.2-1.5-.2-2.4-1.6-2.6a6.6,6.6,0,0,0-1.4-.1,35.53,35.53,0,0,0,4.8-6.7c1.3-2.3-3.8-1.8-6.4-1.3,2.9-2,5.7-4.2,8.5-6.5C159.76,53.05,159.56,51.45,157.16,51.15Z"/><path class="cls-2" d="M14.26,77.75c0-15.3,6.1-31.1,16.6-43.2,10.9-12.4,25.3-20,40.6-21.3,1.2-.1,2.4-1,2.3-1.8,0-.3-.2-1-1.8-.8a65.91,65.91,0,0,0-33.7,13c1.5-1.2,3.1-2.4,4.7-3.5A69.86,69.86,0,0,1,82,8.55a71.18,71.18,0,0,1,27.6,5.5c17.3,7.4,30.6,21.9,37.4,41a81.45,81.45,0,0,1,2.4,31.1c-1.9,16.1-8.4,30.2-19,40.7A76.12,76.12,0,0,1,85.56,148a60.86,60.86,0,0,1-12.8.1,61.81,61.81,0,0,1-8.4-2.4C35.76,135.15,14.26,106.05,14.26,77.75ZM38,134.25a61.2,61.2,0,0,1-9.9-9.8A83.34,83.34,0,0,0,38,134.25Zm54.8,14.9c2.8-.6,5.6-1.3,8.3-2.1a81.34,81.34,0,0,0,36.8-23.6,68.13,68.13,0,0,1-26,20.6A57.56,57.56,0,0,1,92.76,149.15Zm24.7-140.5-.8-.5a1.55,1.55,0,0,0-.8-.2c-1.1,0-2.9.7-3.1,1.5a.79.79,0,0,0,.5.9,66.64,66.64,0,0,1,9.3,6.4,73.52,73.52,0,0,0-40.8-10.9c-22.6.5-43.2,10.2-56.5,26.5C13.56,46.55,7.56,66.15,9,86.15c1.3,19.8,10.3,38,24.5,49.7,10.2,8.4,23.1,13.5,37.5,14.6a71.64,71.64,0,0,0,14.6,1.5,69.3,69.3,0,0,0,36.8-10.5,71,71,0,0,0,33.5-52.6,76.38,76.38,0,0,0-4.3-35.3C146.16,34.35,134.06,18.35,117.46,8.65Z"/><path class="cls-3" d="M58.26,80.75h0c0,.1-.1.1-.1.2C58.16,80.85,58.26,80.85,58.26,80.75Z"/><path class="cls-3" d="M129.46,95.85v.2h-.2C129.36,96.05,129.36,96,129.46,95.85Z"/></g><g id="Camada_6" data-name="Camada 6"><path class="cls-3" d="M70.69,74.72A116.93,116.93,0,0,0,87.54,69.5L86,68.34a87,87,0,0,1-17.56,10l1.95.73c.8-1.83,5.93-3.15,7.59-3.88l8.06-3.55c1.84-.81.17-1.92-1.18-1.32L73.73,75.23c-2,.86-5.08,1.55-6,3.7-.5,1.15,1.36,1,1.95.73a90.37,90.37,0,0,0,18.2-10.34c1.5-1.1-.54-1.53-1.51-1.15a111.6,111.6,0,0,1-16.09,5c-1.77.41-1.34,2,.43,1.59Z"/><path class="cls-3" d="M112.24,88.33l-.09-.14.19.16ZM99.85,78.61a3.06,3.06,0,0,0,.48.67q1.67,1.76,3.19,3.6l-4.72-4.2Z"/><path class="cls-3" d="M108.86,104.41c-.57-1-2.27-1.58-3.82-1.75l1-.79a1.61,1.61,0,0,0,.71-2c-.45-1.08-2.21-1.76-3.84-2,1-.75.81-1.52.65-1.83C102.95,94.87,100,94,98.16,94l1.16-.75c1.25-.81.94-1.67.75-2-.89-1.54-5.52-2.39-7.07-1.61q-4.24,2.14-8.69,4.18a112.54,112.54,0,0,0,10.27-7c1.21-.93.85-1.83.64-2.18-1-1.57-5.09-2.32-6.39-1.7l-3.61,1.69a19.14,19.14,0,0,0,1.44-1.92,1.65,1.65,0,0,0,.07-1.9c-1-1.46-4.47-1.87-5.47-1.69l-.61.11c5.14-2.62,10.21-5.1,15.12-7.37,1.65-.77,1.6-1.67,1.42-2.13-.61-1.6-4.79-2.62-6.39-2.13-4,1.2-8.23,2.36-12.93,3.51L93.4,62.77c1.24-.67,1-1.5.86-1.83-.71-1.5-5-2.72-6.51-2.11-3.68,1.53-7.53,3.12-11.46,4.66,4-2.58,8-5.18,11.92-7.78,1.24-.83.93-1.71.73-2.05-.86-1.52-5-2.52-6.44-1.85l-2.26,1.07,1.81-1.35c1.22-.91.87-1.81.67-2.15-1-1.59-5.09-2.36-6.4-1.74l-.56.27a1.4,1.4,0,0,0-.17-1.09c-1-1.56-5.08-2.31-6.39-1.7L52.46,52.94c-1.3.61-1.5,1.34-1.44,1.85.11,1,1.29,1.76,2.59,2.21L49,60.55c-1.21.94-.85,1.84-.64,2.18.71,1.16,3.14,1.86,4.88,1.91l-3.8,2.83c-.89.67-.95,1.32-.83,1.76.27,1,1.67,1.65,2.94,2L50,72.17c-1.15.69-1.06,1.45-.9,1.85.64,1.57,4.67,2.55,5.73,2.29l.44-.11-.18.1c-1.16.62-1.1,1.36-1,1.74.55,1.53,4.68,2.64,5.76,2.41,2.41-.49,5.36-1.1,8.5-1.77C62.12,82,56,85.4,50.23,88.79c-.88.52-1,1.1-.95,1.5.12.85,1.11,1.46,2,1.84l-8.09,3.36a3.08,3.08,0,0,0-2.06,2.61,4.4,4.4,0,0,0,1.5,3.43l-.23.11-1.2.57c-1.66.78-1.59,1.7-1.39,2.18.61,1.52,4.2,2.47,6,2.18-2.08,1-4.15,2-6.18,3-1.19.59-1.14,1.3-1,1.67.58,1.56,5.39,2.59,6.56,2.3,3.55-.9,7.2-1.91,10.91-3-4.57,2.22-9.19,4.33-13.8,6.32-1.57.67-1.67,1.48-1.48,2,.58,1.68,4.92,2.63,6.42,2.24,2.77-.73,5.64-1.61,8.64-2.67-2.91,1.62-5.66,3.12-8.29,4.54-1.19.64-1.11,1.38-1,1.76.66,1.59,5.42,2.53,6.55,2.2,1.8-.53,3.59-1.11,5.28-1.67.88,1.15,3.41,1.92,4.86,1.92a2.9,2.9,0,0,0,.46,0,93.85,93.85,0,0,0,10.53-2.34,5.29,5.29,0,0,0,2.15.28,45.68,45.68,0,0,0,32.23-18.92A1.6,1.6,0,0,0,108.86,104.41Z"/><path class="cls-4" d="M113.25,111.51c-.19-12.18-8.8-24.25-21.32-31.19a22.49,22.49,0,0,0,2.24-21.84A28.49,28.49,0,0,0,73.76,42.11a5.67,5.67,0,0,0-3-1.81C57,40.17,42.12,54.1,47.5,68.52a32.15,32.15,0,0,0,7.43,11.22,55.66,55.66,0,0,0-9,9.12c-6.06,7.44-11.4,16.83-9,25.92a2.71,2.71,0,0,0,2.66,2,4.07,4.07,0,0,0,1.5.92c.73.23,1.47.44,2.21.65-.78-9.06,1.52-18.06,7.59-24.83l.92-1.21a36.26,36.26,0,0,1,8.41-8.22c5.26,3.55,11.39,5.58,17.36,4.83a20.81,20.81,0,0,0,8.94-3.3c9.15,4.67,18.78,13.23,20.23,27.24,3.31,1.24,4.09-2.89,4.74.8.1.59.19,1.18.26,1.76a2.31,2.31,0,0,0,1.36-3A2.35,2.35,0,0,0,113.25,111.51ZM89.55,66.2A19.56,19.56,0,0,1,74.47,82.77C61.78,85.6,48.84,73,54.22,60.54a24.61,24.61,0,0,1,12.49-12.8,2,2,0,0,0,1.11.15C79.86,45.18,91.42,53.22,89.55,66.2Z"/><path class="cls-4" d="M38.42,116.26c10.39,8.87,23.91,12.68,37.45,11.86,14.23-.86,26.5-9.66,35.5-20.19,2-2.34-3.22-5.69-4.91-3.72-7.57,8.85-17.56,16.92-29.36,18.89a44,44,0,0,1-35.41-9.63c-2.58-2.2-6.44.09-3.29,2.78Z"/><path class="cls-5" d="M130.88,39.62l-7.58,3.32c2.25-1.32,4.51-2.64,6.74-4,2.39-1.45.3-3.44-1.83-2.46-5.1,2.35-10.2,4.69-15.33,7l15.34-8.24c2.46-1.32.26-3.52-1.83-2.46-5.15,2.62-10.36,5.11-15.6,7.54L123.48,33c2.44-1.41.29-3.39-1.83-2.46l-11.58,5.11,8.85-5.11c2.42-1.4.28-3.49-1.83-2.46l-11.82,5.79c2.43-1.86,7.84-4.77,10.19-6.76,1.93-1.64-3.61-2-5.28-1.18-1.48.74-2.95,1.51-4.42,2.26L106,28c2.18-1.59-.74-2.76-2.28-2.18a78.73,78.73,0,0,0-13.26,6.46c-1.85,1.12-.92,2.74.54,2.8l-4.52,3.31c-2,1.48.65,3.08,2.28,2.18,2.57-1.42,5.17-2.8,7.76-4.18-3.5,2.46-7.07,4.82-10.76,7-1.71,1-1.11,2.37.14,2.67L84.36,47c-2.44,1.41-.29,3.39,1.83,2.46l11.07-4.88L86.44,50.77c-2.46,1.42-.31,3.28,1.8,2.47l-.9.48c-2,1.09-.83,3.4,1.29,2.65,4.66-1.65,9.25-3.43,13.82-5.29-4.36,2.31-8.74,4.58-13.17,6.75-2.54,1.25-.28,3.38,1.83,2.46l1.3-.57c-.87,1.12.34,2.63,2.08,2,2.64-.89-2.62,1,0,0-2.27,1.2,3.36-.38,1.09.82-2.5,1.33-.28,3.38,1.83,2.46l.28-.12c-.23,1,.86,2,2.33,1.52q3.51-1.21,7-2.52c-1.49.72-3,1.45-4.49,2.13-2.56,1.14-.29,3.4,1.83,2.46l6.11-2.72c-.66.36-1.3.74-2,1.08-2.21,1.12-.79,2.77,1.29,2.65,12.44-.69,16.26-7.29,20.38-15.61a1,1,0,0,0-.31-1.38,2.54,2.54,0,0,0-2-.64l1.94-1.1c1.89-1.09,1-2.52-.44-2.68L131.39,47c2.48-1.32.28-3.43-1.83-2.46q-4.31,2-8.66,3.89,5.92-3.14,11.8-6.38C135.18,40.7,133,38.69,130.88,39.62Z"/><path class="cls-4" d="M134.81,47.35a1,1,0,0,0,0-.16C133.4,15.3,83.88,16.91,84,48.26c.11,32.21,49.45,31.3,50.84.27C134.84,48.46,134.82,47.4,134.81,47.35ZM106.66,69.27c-10.49-1.87-18-11.44-18-21.92,0-12.78,12.27-23.79,25.45-20.79,10.32,2.35,15.52,11.52,16,21.67C129.58,60.5,120,71.66,106.66,69.27Z"/><path class="cls-4" d="M113.87,38.12c-1.42,2-2.89,4-4.39,6l-7.14-7.38c-1.79-1.85-7.56,2.44-6.3,3.73l9,9.29c-2.32,2.83-4.71,5.61-7.19,8.3-1.3,1.41,1.13,1.78,2.05,1.78,1.79,0,4.19.71,5.45-.66,1.4-1.52,3.78-5.15,5.13-6.84,1.63,1.68,5.25,5.36,6.88,7,1.79,1.85,6.56-.44,5.3-1.73-2.27-2.35-6.55-6.7-8.82-9.05,2.63-3.62,5.15-7.33,7.56-10.78C123.16,35.26,115.15,36.28,113.87,38.12Z"/><path class="cls-1" d="M107.55,291.35c4.6-2.9,9.1-6,13.5-9.1a55.47,55.47,0,0,1-7.5,6.1Zm-36.2-115.2c-6.8,5.8-14.7,10.4-22.3,14.8l-3.3,1.9C54.25,187.25,62.75,181.55,71.35,176.15Zm-14.9-.2c-4,3-8.3,5.8-12.5,8.4,2-1.5,4-2.9,6.1-4.2A70.58,70.58,0,0,1,56.45,176Zm44.9,12.8c2.3-1.9,4.6-3.7,7-5.4C106.15,185.25,103.75,187.05,101.35,188.75Zm30.5,75c-1.3,1-2.6,2-4,2.9C129.15,265.65,130.45,264.65,131.85,263.75Zm-28,13.7c-6.7,5.4-13.8,11.2-21.6,15.1A146.73,146.73,0,0,1,103.85,277.45Zm25.3-23c-4.3,3-8.8,5.7-13.4,8.3,4.9-3.6,9.9-7.1,15.1-10.2l4.5-2.7C133.25,251.55,131.15,253.05,129.15,254.45Zm-64.9,35,10.4-7.4a64,64,0,0,1-10.6,8.2C64.15,290.05,64.15,289.75,64.25,289.45Zm32.7-31c-4.2,3-8.5,5.9-12.9,8.6-2.3,1.4-4.6,2.7-6.9,4.1,7.6-5.7,15.2-11.3,23.1-16.6,4.3-2.9,8.8-5.6,13.2-8.3-4.3,3.1-8.5,6.3-12.8,9.5Zm60.2-51.2a12.19,12.19,0,0,0-5.9.9l.3-.3c1.5-1.4-.4-2.5-1.6-2.6a11.92,11.92,0,0,0-8.1,2.2l-1.3.9c1.9-1.5,3.8-2.9,5.7-4.4,1.1-.9,1.9-2.5.1-3.1a8.2,8.2,0,0,0-4.4-.1c.5-.5,1.1-1,1.6-1.5,1-.9,2-2.4.1-3.1-2.5-.9-5.7.1-8,1.3-3.3,1.7-6.6,3.5-9.8,5.3a113.25,113.25,0,0,0,10.6-10.2c1.3-1.5-.3-2.5-1.6-2.6a10.45,10.45,0,0,0-2.5,0,104.66,104.66,0,0,0,11.4-10.7c1.3-1.5-.3-2.5-1.6-2.6a11.64,11.64,0,0,0-8.1,2.2,370.48,370.48,0,0,1-33.3,25.4c-2.7,1.7-5.3,3.4-8,5.1,13.3-9.3,26.2-19.3,37.2-31.4,1.3-1.5-.3-2.5-1.6-2.6a11.56,11.56,0,0,0-3.2.1,15.92,15.92,0,0,0,1.3-2.2c1.2-2.2-4-2-4.8-1.8a8.33,8.33,0,0,0-1.5.4c.6-.6,1.3-1.2,1.9-1.8,1.4-1.4-.4-2.5-1.6-2.6a11.92,11.92,0,0,0-8.1,2.2c-5.6,4-11.1,8-16.7,12-1.5.9-3,1.7-4.5,2.5-9.4,5.3-18.4,11.2-27.6,16.8l-3.1,1.8.3-.2c19.1-12.3,39.2-23.2,56.6-37.7,1.7-1.4,1.4-3.1-.9-3.4a11.78,11.78,0,0,0-8.1,2.2,118.2,118.2,0,0,1-10.4,7c2.3-1.7,4.7-3.4,6.9-5.2,1.8-1.4,1.4-3.1-.9-3.4a12.32,12.32,0,0,0-8.1,2.2l-7.8,5.7a47.63,47.63,0,0,0,5-6.6c1-1.6-.1-2.4-1.7-2.6a12.2,12.2,0,0,0-7,1.5c-2.7,1.4-5.4,2.9-8.1,4.4.3-.4.7-.8,1-1.2,2.9-3.7-6.3-2.1-7.3-1.7A125.77,125.77,0,0,0,42.45,178a150.85,150.85,0,0,0-24.4,19.6c-1.5,1.5.1,2.2,1.6,2.5a71,71,0,0,0-9.4,8.8c-1.4,1.5.2,2.5,1.6,2.6a11.46,11.46,0,0,0,7-1.5c.6-.3,1.1-.7,1.7-1a74.85,74.85,0,0,0-9,7.9c-1.4,1.4.4,2.5,1.6,2.6a13.26,13.26,0,0,0,7-1.5c1.1-.5,2.2-1.1,3.3-1.6-4.3,3.7-8.6,7.7-12.6,11.8-1.4,1.4.4,2.5,1.6,2.6a6.69,6.69,0,0,0,2,0c-1.5,1.5-2.9,3.1-4.3,4.7s.3,2.5,1.6,2.6a10.75,10.75,0,0,0,3.1-.1c-1.3.9-2.7,1.8-4,2.8-1.9,1.4-1.3,3.1.9,3.3a11.78,11.78,0,0,0,8.1-2.2l4-2.8c11.9-8,24.7-14.7,37.2-21.7-4.6,3.6-9.3,7.2-14,10.6-4.4,2.3-8.9,4.5-13.4,6.6-7,3.3-16.8,7.1-19.9,14.9-1.1,2.8,5.4,1.7,6.3,1.5a35.74,35.74,0,0,0,6-2.1c-2.6,1.9-5.2,3.9-7.8,5.8-1.2.8-1.9,2.5-.1,3.1,2.5.9,5.8-.1,8-1.3l.1-.1a53.5,53.5,0,0,0-7.4,8.3c-1.1,1.5.1,2.4,1.7,2.6a12.2,12.2,0,0,0,7-1.5c.9-.5,1.9-1,2.8-1.5-2.3,2.1-4.6,4.2-6.9,6.4-1.4,1.4.4,2.5,1.7,2.6a10.75,10.75,0,0,0,5.3-.8,18.32,18.32,0,0,0-4.1,8.8c-.5,2.9,4.9,1.9,6.3,1.5a48.51,48.51,0,0,0,9.2-3.5c-1.8,1.9-3.5,3.9-5.2,6-1.2,1.5.2,2.5,1.7,2.6a11.83,11.83,0,0,0,3.7-.2,10.7,10.7,0,0,0-1.4,1.6c-1.3,1.5.3,2.5,1.7,2.6a11.46,11.46,0,0,0,7-1.5l.5-.3c-1.1,1-2.2,2.1-3.3,3.2-1.4,1.4.4,2.5,1.7,2.6a10.85,10.85,0,0,0,4-.3c.2,0,.5-.1.8-.1l.3,1.2c.7,2.1,4.9,1.2,6.3.8l.7-.2c-1.2,1.5.2,2.4,1.7,2.6a10.45,10.45,0,0,0,2.5,0c-1,1.9,3.8,2.1,4.8,1.9,2.2-.4,4.4-1,6.5-1.6-.6.3-1.2.7-1.8,1-.9.5-3.3,2.1-1.9,3.4s4.3.7,5.9.2,2.9-.8,4.3-1.3c-.8.7-1.3,1.6-.5,2.4,1.8,1.6,5.5.5,7.4-.3,10.6-4.1,21-8.4,30.3-14.4,1.8-.9,3.6-1.9,5.4-2.9,11.1-6.2,22.6-14.7,26.8-27.4.7-2-1.9-2.1-4.5-1.7a45.68,45.68,0,0,0,5.4-6.9c1.1-1.9-.1-2.5-1.9-2.5a30,30,0,0,0,6.2-9.5c.4-1.1-.7-1.6-1.6-1.8a19.22,19.22,0,0,0,1.6-4.2c.6-2.3-3.6-2-4.8-1.8a20.48,20.48,0,0,0-2.4.5c1.6-1.7,3.2-3.4,4.7-5.2,1.2-1.5-.2-2.4-1.6-2.6a6.6,6.6,0,0,0-1.4-.1,35.53,35.53,0,0,0,4.8-6.7c1.3-2.3-3.8-1.8-6.4-1.3,2.9-2,5.7-4.2,8.5-6.5C159.75,209.15,159.55,207.55,157.15,207.25Z"/><path class="cls-2" d="M14.25,233.85c0-15.3,6.1-31.1,16.6-43.2,10.9-12.4,25.3-20,40.6-21.3,1.2-.1,2.4-1,2.3-1.8,0-.3-.2-1-1.8-.8a65.91,65.91,0,0,0-33.7,13c1.5-1.2,3.1-2.4,4.7-3.5a69.86,69.86,0,0,1,39-11.6,71.18,71.18,0,0,1,27.6,5.5c17.3,7.4,30.6,21.9,37.4,41a81.45,81.45,0,0,1,2.4,31.1c-1.9,16.1-8.4,30.2-19,40.7a76.12,76.12,0,0,1-44.8,21.1,60.86,60.86,0,0,1-12.8.1,61.81,61.81,0,0,1-8.4-2.4C35.75,291.25,14.25,262.15,14.25,233.85ZM38,290.35a61.2,61.2,0,0,1-9.9-9.8A83.34,83.34,0,0,0,38,290.35Zm54.8,14.9c2.8-.6,5.6-1.3,8.3-2.1a81.34,81.34,0,0,0,36.8-23.6,68.13,68.13,0,0,1-26,20.6A57.56,57.56,0,0,1,92.75,305.25Zm24.7-140.5-.8-.5a1.55,1.55,0,0,0-.8-.2c-1.1,0-2.9.7-3.1,1.5a.79.79,0,0,0,.5.9,66.64,66.64,0,0,1,9.3,6.4A73.52,73.52,0,0,0,81.75,162c-22.6.5-43.2,10.2-56.5,26.5-11.7,14.2-17.7,33.8-16.3,53.8,1.3,19.8,10.3,38,24.5,49.7,10.2,8.4,23.1,13.5,37.5,14.6a71.64,71.64,0,0,0,14.6,1.5,69.3,69.3,0,0,0,36.8-10.5,71,71,0,0,0,33.5-52.6,76.38,76.38,0,0,0-4.3-35.3C146.15,190.45,134.05,174.45,117.45,164.75Z"/><path class="cls-3" d="M58.25,236.85h0c0,.1-.1.1-.1.2C58.15,237,58.25,237,58.25,236.85Z"/><path class="cls-3" d="M129.45,252v.2h-.2C129.35,252.15,129.35,252.05,129.45,252Z"/><path class="cls-3" d="M70.69,230.82a116.93,116.93,0,0,0,16.84-5.23L86,224.44a87,87,0,0,1-17.56,10l1.95.73c.8-1.83,5.93-3.15,7.59-3.88l8.06-3.55c1.84-.81.17-1.92-1.18-1.32l-11.16,4.92c-2,.86-5.08,1.55-6,3.7-.5,1.15,1.36,1,1.95.73a90.37,90.37,0,0,0,18.2-10.34c1.5-1.1-.54-1.53-1.51-1.15a111.6,111.6,0,0,1-16.09,5c-1.77.41-1.34,2,.43,1.59Z"/><path class="cls-3" d="M112.23,244.43l-.09-.14.19.16Zm-12.39-9.72a3.06,3.06,0,0,0,.48.67q1.67,1.76,3.19,3.6l-4.72-4.2Z"/><path class="cls-3" d="M108.85,260.52c-.57-1-2.27-1.58-3.82-1.75l1-.79a1.61,1.61,0,0,0,.71-2c-.45-1.08-2.21-1.76-3.84-2,1-.75.81-1.52.65-1.83-.62-1.24-3.57-2.11-5.41-2.12l1.16-.75c1.25-.81.94-1.67.75-2-.89-1.54-5.52-2.39-7.07-1.61q-4.24,2.14-8.69,4.18a112.54,112.54,0,0,0,10.27-7c1.21-.93.85-1.83.64-2.18-1-1.57-5.09-2.32-6.39-1.7l-3.61,1.69a19.14,19.14,0,0,0,1.44-1.92,1.65,1.65,0,0,0,.07-1.9c-1-1.46-4.47-1.87-5.47-1.69l-.61.11c5.14-2.62,10.21-5.1,15.12-7.37,1.65-.77,1.6-1.67,1.42-2.13-.61-1.6-4.79-2.62-6.39-2.13-4,1.2-8.23,2.36-12.93,3.51l15.53-8.33c1.24-.67,1-1.5.86-1.83-.71-1.5-5-2.72-6.51-2.11-3.68,1.53-13.65,6.36-17.58,7.9,4-2.58,14.15-8.43,18-11,1.24-.83.93-1.71.73-2.05-.86-1.52-5-2.52-6.44-1.85L80.23,209,82,207.63c1.22-.91.87-1.81.67-2.15-1-1.59-5.09-2.36-6.4-1.74l-.56.27a1.4,1.4,0,0,0-.17-1.09c-1-1.56-5.08-2.31-6.39-1.7L52.45,209c-1.3.61-1.5,1.34-1.44,1.85.11,1,1.29,1.76,2.59,2.21L49,216.65c-1.21.94-.85,1.84-.64,2.18.71,1.16,3.14,1.86,4.88,1.91l-3.8,2.83c-.89.67-.95,1.32-.83,1.76.27,1,1.67,1.65,2.94,2l-1.56.94c-1.15.69-1.06,1.45-.9,1.85.64,1.57,4.67,2.55,5.73,2.29l.44-.11-.18.1c-1.16.62-1.1,1.36-1,1.74.55,1.53,4.68,2.64,5.76,2.41,2.41-.49,11.66-4.07,14.8-4.74-6.31,3.33-18.72,9.69-24.5,13.07-.88.52-1,1.1-.95,1.5.12.85,1.11,1.46,2,1.84l-8.09,3.36a3.08,3.08,0,0,0-2.06,2.61,4.4,4.4,0,0,0,1.5,3.43l-.23.11-1.2.57c-1.66.78-1.59,1.7-1.39,2.18.61,1.52,4.2,2.47,6,2.18-2.08,1-4.15,2-6.18,3-1.19.59-1.14,1.3-1,1.67.58,1.56,5.39,2.59,6.56,2.3,3.55-.9,7.2-1.91,10.91-3-4.57,2.22-9.19,4.33-13.8,6.32-1.57.67-1.67,1.48-1.48,2,.58,1.68,4.92,2.63,6.42,2.24,2.77-.73,5.64-1.61,8.64-2.67-2.91,1.62-5.66,3.12-8.29,4.54-1.19.64-1.11,1.38-1,1.76.66,1.59,5.42,2.53,6.55,2.2,1.8-.53,3.59-1.11,5.28-1.67.88,1.15,3.41,1.92,4.86,1.92a2.9,2.9,0,0,0,.46,0,93.85,93.85,0,0,0,10.53-2.34,5.29,5.29,0,0,0,2.15.28,45.68,45.68,0,0,0,32.23-18.92A1.6,1.6,0,0,0,108.85,260.52Z"/><path class="cls-4" d="M113.24,267.61c-.19-12.18-9.8-24.25-22.32-31.19,4.3-6,6.45-14.3,3.24-21.84a28.49,28.49,0,0,0-20.41-16.37,5.67,5.67,0,0,0-3-1.81c-13.75-.13-28.65,13.8-23.28,28.22a32.15,32.15,0,0,0,7.43,11.22c-3.52,2.7-7.5,5-10,8.12-6.06,7.44-10.4,17.83-8,26.92a2.71,2.71,0,0,0,2.66,2,4.07,4.07,0,0,0,1.5.92c.73.23,1.47.44,2.21.65-.78-9.06,1.52-18.06,7.59-24.83l.92-1.21a28.11,28.11,0,0,1,7.41-7.22c5.26,3.55,12.39,5.58,18.36,4.83,3.38-.43,6.38-2.61,8.94-4.3,9.15,4.67,18.78,13.23,20.23,27.24,3.31,1.24,4.09-2.89,4.74.8.1.59.19,1.18.26,1.76a2.31,2.31,0,0,0,1.36-3A2.35,2.35,0,0,0,113.24,267.61ZM89.54,222.3a19.56,19.56,0,0,1-15.08,16.58c-12.69,2.83-22.88-11.54-19.25-22.24a20.91,20.91,0,0,1,11.49-12.8,2,2,0,0,0,1.11.15C79.85,201.28,91.41,209.32,89.54,222.3Z"/><path class="cls-4" d="M38.41,272.36C48.8,281.23,62.31,285,75.86,284.23c14.23-.86,26.5-9.66,35.5-20.19,2-2.34-3.22-6.69-4.91-4.72-7.57,8.85-17.56,17.92-29.36,19.89a44,44,0,0,1-35.41-9.63c-2.58-2.2-6.44.09-3.29,2.78Z"/><path class="cls-5" d="M130.87,195.72,123.29,199c2.25-1.32,4.51-2.64,6.74-4,2.39-1.45.3-3.44-1.83-2.46-5.1,2.35-10.2,4.69-15.33,7l15.34-8.24c2.46-1.32.26-3.52-1.83-2.46-5.15,2.62-10.36,5.11-15.6,7.54l12.68-7.29c2.44-1.41.29-3.39-1.83-2.46l-11.58,5.11,8.85-5.11c2.42-1.4.28-3.49-1.83-2.46L105.26,190c2.43-1.86,4.84-3.77,7.19-5.76,1.93-1.64-.61-3-2.28-2.18-1.48.74-2.95,1.51-4.42,2.26l.21-.15c2.18-1.59-.74-2.76-2.28-2.18a78.73,78.73,0,0,0-13.26,6.46c-1.85,1.12-.92,2.74.54,2.8l-4.52,3.31c-2,1.48.65,3.08,2.28,2.18,2.57-1.42,5.17-2.8,7.76-4.18-3.5,2.46-7.07,4.82-10.76,7-1.71,1-1.11,2.37.14,2.67l-1.51.87c-2.44,1.41-.29,3.39,1.83,2.46l11.07-4.88-10.81,6.22c-2.46,1.42-.31,3.28,1.8,2.47l-.9.48c-2,1.09-.83,3.4,1.29,2.65,4.66-1.65,9.25-3.43,13.82-5.29-4.36,2.31-8.74,4.58-13.17,6.75-2.54,1.25-.28,3.38,1.83,2.46l1.3-.57c-.87,1.12.34,2.63,2.08,2,2.64-.89,5.27-1.84,7.89-2.79l-6.8,3.61c-2.5,1.33-.28,3.38,1.83,2.46l.28-.12c-.23,1,.86,2,2.33,1.52q3.51-1.21,7-2.52c-1.49.72-3,1.45-4.49,2.13-2.56,1.14-.29,3.4,1.83,2.46l6.11-2.72c-.66.36-1.3.74-2,1.08-2.21,1.12-.75,3.06,1.29,2.65A28.39,28.39,0,0,0,130.12,210a1,1,0,0,0-.31-1.38,2.54,2.54,0,0,0-2-.64l1.94-1.1c1.89-1.09,1-2.52-.44-2.68l2.05-1.09c2.48-1.32.28-3.43-1.83-2.46q-4.31,2-8.66,3.89,5.92-3.14,11.8-6.38C135.17,196.8,133,194.79,130.87,195.72Z"/><path class="cls-4" d="M134.8,203.45a1,1,0,0,0,0-.16c-1.43-31.88-51-30.28-50.84,1.07.11,32.21,49.45,30.3,50.84-.73A1,1,0,0,0,134.8,203.45Zm-28.15,21.93c-10.49-1.87-18-11.44-18-21.92,0-12.78,11.27-23.79,24.45-20.79,10.32,2.35,16.52,11.52,17,21.67C129.57,216.6,120,227.76,106.66,225.37Z"/><path class="cls-4" d="M113.86,194.22c-1.42,2-3,5.81-4.46,7.79a111.82,111.82,0,0,0-7.08-9.17c-1.79-1.85-7.56,2.44-6.3,3.73,3,3.1,7,6.2,10,9.29-2.32,2.83-4.71,5.61-7.19,8.3-1.3,1.41.13,1.78,1.05,1.78,1.79,0,4.19.71,5.45-.66,1.4-1.52,2.78-3.15,4.13-4.84,1.63,1.68,4.25,3.36,5.88,5,1.79,1.85,6.56-2.44,5.3-3.73l-6.82-7.05c2.63-3.62,5.15-7.33,7.56-10.78C123.15,191.36,115.14,192.38,113.86,194.22Z"/><path class="cls-1" d="M106.84,446.72c4.6-2.9,9.1-6,13.5-9.1a55.47,55.47,0,0,1-7.5,6.1Zm-36.2-115.2c-6.8,5.8-14.7,10.4-22.3,14.8l-3.3,1.9C53.54,342.62,62,336.92,70.64,331.52Zm-14.9-.2c-4,3-8.3,5.8-12.5,8.4,2-1.5,4-2.9,6.1-4.2A70.58,70.58,0,0,1,55.74,331.32Zm44.9,12.8c2.3-1.9,4.6-3.7,7-5.4C105.44,340.62,103,342.42,100.64,344.12Zm30.5,75c-1.3,1-2.6,2-4,2.9C128.44,421,129.74,420,131.14,419.12Zm-28,13.7c-6.7,5.4-13.8,11.2-21.6,15.1A146.73,146.73,0,0,1,103.14,432.82Zm25.3-23c-4.3,3-8.8,5.7-13.4,8.3,4.9-3.6,9.9-7.1,15.1-10.2l4.5-2.7C132.54,406.92,130.44,408.42,128.44,409.82Zm-64.9,35,10.4-7.4a64,64,0,0,1-10.6,8.2C63.44,445.42,63.44,445.12,63.54,444.82Zm32.7-31c-4.2,3-8.5,5.9-12.9,8.6-2.3,1.4-4.6,2.7-6.9,4.1,7.6-5.7,15.2-11.3,23.1-16.6,4.3-2.9,8.8-5.6,13.2-8.3-4.3,3.1-8.5,6.3-12.8,9.5Zm60.2-51.2a12.19,12.19,0,0,0-5.9.9l.3-.3c1.5-1.4-.4-2.5-1.6-2.6a11.92,11.92,0,0,0-8.1,2.2l-1.3.9c1.9-1.5,3.8-2.9,5.7-4.4,1.1-.9,1.9-2.5.1-3.1a8.2,8.2,0,0,0-4.4-.1c.5-.5,1.1-1,1.6-1.5,1-.9,2-2.4.1-3.1-2.5-.9-5.7.1-8,1.3-3.3,1.7-6.6,3.5-9.8,5.3a113.25,113.25,0,0,0,10.6-10.2c1.3-1.5-.3-2.5-1.6-2.6a10.45,10.45,0,0,0-2.5,0,104.66,104.66,0,0,0,11.4-10.7c1.3-1.5-.3-2.5-1.6-2.6a11.64,11.64,0,0,0-8.1,2.2,370.48,370.48,0,0,1-33.3,25.4c-2.7,1.7-5.3,3.4-8,5.1,13.3-9.3,26.2-19.3,37.2-31.4,1.3-1.5-.3-2.5-1.6-2.6a11.56,11.56,0,0,0-3.2.1,15.92,15.92,0,0,0,1.3-2.2c1.2-2.2-4-2-4.8-1.8a8.33,8.33,0,0,0-1.5.4c.6-.6,1.3-1.2,1.9-1.8,1.4-1.4-.4-2.5-1.6-2.6a11.92,11.92,0,0,0-8.1,2.2c-5.6,4-11.1,8-16.7,12-1.5.9-3,1.7-4.5,2.5-9.4,5.3-18.4,11.2-27.6,16.8l-3.1,1.8.3-.2c19.1-12.3,39.2-23.2,56.6-37.7,1.7-1.4,1.4-3.1-.9-3.4a11.78,11.78,0,0,0-8.1,2.2,118.2,118.2,0,0,1-10.4,7c2.3-1.7,4.7-3.4,6.9-5.2,1.8-1.4,1.4-3.1-.9-3.4a12.32,12.32,0,0,0-8.1,2.2l-7.8,5.7a47.63,47.63,0,0,0,5-6.6c1-1.6-.1-2.4-1.7-2.6a12.2,12.2,0,0,0-7,1.5c-2.7,1.4-5.4,2.9-8.1,4.4.3-.4.7-.8,1-1.2,2.9-3.7-6.3-2.1-7.3-1.7a125.77,125.77,0,0,0-27.5,14.2,150.85,150.85,0,0,0-24.4,19.6c-1.5,1.5.1,2.2,1.6,2.5a71,71,0,0,0-9.4,8.8c-1.4,1.5.2,2.5,1.6,2.6a11.46,11.46,0,0,0,7-1.5c.6-.3,1.1-.7,1.7-1a74.85,74.85,0,0,0-9,7.9c-1.4,1.4.4,2.5,1.6,2.6a13.26,13.26,0,0,0,7-1.5c1.1-.5,2.2-1.1,3.3-1.6-4.3,3.7-8.6,7.7-12.6,11.8-1.4,1.4.4,2.5,1.6,2.6a6.69,6.69,0,0,0,2,0c-1.5,1.5-2.9,3.1-4.3,4.7s.3,2.5,1.6,2.6a10.75,10.75,0,0,0,3.1-.1c-1.3.9-2.7,1.8-4,2.8-1.9,1.4-1.3,3.1.9,3.3a11.78,11.78,0,0,0,8.1-2.2l4-2.8c11.9-8,24.7-14.7,37.2-21.7-4.6,3.6-9.3,7.2-14,10.6-4.4,2.3-8.9,4.5-13.4,6.6-7,3.3-16.8,7.1-19.9,14.9-1.1,2.8,5.4,1.7,6.3,1.5a35.74,35.74,0,0,0,6-2.1c-2.6,1.9-5.2,3.9-7.8,5.8-1.2.8-1.9,2.5-.1,3.1,2.5.9,5.8-.1,8-1.3l.1-.1a53.5,53.5,0,0,0-7.4,8.3c-1.1,1.5.1,2.4,1.7,2.6a12.2,12.2,0,0,0,7-1.5c.9-.5,1.9-1,2.8-1.5-2.3,2.1-4.6,4.2-6.9,6.4-1.4,1.4.4,2.5,1.7,2.6a10.75,10.75,0,0,0,5.3-.8,18.32,18.32,0,0,0-4.1,8.8c-.5,2.9,4.9,1.9,6.3,1.5a48.51,48.51,0,0,0,9.2-3.5c-1.8,1.9-3.5,3.9-5.2,6-1.2,1.5.2,2.5,1.7,2.6a11.83,11.83,0,0,0,3.7-.2,10.7,10.7,0,0,0-1.4,1.6c-1.3,1.5.3,2.5,1.7,2.6a11.46,11.46,0,0,0,7-1.5l.5-.3c-1.1,1-2.2,2.1-3.3,3.2-1.4,1.4.4,2.5,1.7,2.6a10.85,10.85,0,0,0,4-.3c.2,0,.5-.1.8-.1l.3,1.2c.7,2.1,4.9,1.2,6.3.8l.7-.2c-1.2,1.5.2,2.4,1.7,2.6a10.45,10.45,0,0,0,2.5,0c-1,1.9,3.8,2.1,4.8,1.9,2.2-.4,4.4-1,6.5-1.6-.6.3-1.2.7-1.8,1-.9.5-3.3,2.1-1.9,3.4s4.3.7,5.9.2,2.9-.8,4.3-1.3c-.8.7-1.3,1.6-.5,2.4,1.8,1.6,5.5.5,7.4-.3,10.6-4.1,21-8.4,30.3-14.4,1.8-.9,3.6-1.9,5.4-2.9,11.1-6.2,22.6-14.7,26.8-27.4.7-2-1.9-2.1-4.5-1.7a45.68,45.68,0,0,0,5.4-6.9c1.1-1.9-.1-2.5-1.9-2.5a30,30,0,0,0,6.2-9.5c.4-1.1-.7-1.6-1.6-1.8a19.22,19.22,0,0,0,1.6-4.2c.6-2.3-3.6-2-4.8-1.8a20.48,20.48,0,0,0-2.4.5c1.6-1.7,3.2-3.4,4.7-5.2,1.2-1.5-.2-2.4-1.6-2.6a6.6,6.6,0,0,0-1.4-.1,35.53,35.53,0,0,0,4.8-6.7c1.3-2.3-3.8-1.8-6.4-1.3,2.9-2,5.7-4.2,8.5-6.5C159,364.52,158.84,362.92,156.44,362.62Z"/><path class="cls-2" d="M13.54,389.22c0-15.3,6.1-31.1,16.6-43.2,10.9-12.4,25.3-20,40.6-21.3,1.2-.1,2.4-1,2.3-1.8,0-.3-.2-1-1.8-.8a65.91,65.91,0,0,0-33.7,13c1.5-1.2,3.1-2.4,4.7-3.5a69.86,69.86,0,0,1,39-11.6,71.18,71.18,0,0,1,27.6,5.5c17.3,7.4,30.6,21.9,37.4,41a81.45,81.45,0,0,1,2.4,31.1c-1.9,16.1-8.4,30.2-19,40.7a76.12,76.12,0,0,1-44.8,21.1,60.86,60.86,0,0,1-12.8.1,61.81,61.81,0,0,1-8.4-2.4C35,446.62,13.54,417.52,13.54,389.22Zm23.7,56.5a61.2,61.2,0,0,1-9.9-9.8A83.34,83.34,0,0,0,37.24,445.72ZM92,460.62c2.8-.6,5.6-1.3,8.3-2.1a81.34,81.34,0,0,0,36.8-23.6,68.13,68.13,0,0,1-26,20.6A57.56,57.56,0,0,1,92,460.62Zm24.7-140.5-.8-.5a1.55,1.55,0,0,0-.8-.2c-1.1,0-2.9.7-3.1,1.5a.79.79,0,0,0,.5.9,66.64,66.64,0,0,1,9.3,6.4A73.52,73.52,0,0,0,81,317.32c-22.6.5-43.2,10.2-56.5,26.5-11.7,14.2-17.7,33.8-16.3,53.8,1.3,19.8,10.3,38,24.5,49.7,10.2,8.4,23.1,13.5,37.5,14.6a71.64,71.64,0,0,0,14.6,1.5,69.3,69.3,0,0,0,36.8-10.5,71,71,0,0,0,33.5-52.6,76.38,76.38,0,0,0-4.3-35.3C145.44,345.82,133.34,329.82,116.74,320.12Z"/><path class="cls-3" d="M57.54,392.22h0c0,.1-.1.1-.1.2C57.44,392.32,57.54,392.32,57.54,392.22Z"/><path class="cls-3" d="M128.74,407.32v.2h-.2C128.64,407.52,128.64,407.42,128.74,407.32Z"/><path class="cls-3" d="M70,386.19A116.93,116.93,0,0,0,86.81,381l-1.51-1.15a87,87,0,0,1-17.56,10l1.95.73c.8-1.83,5.93-3.15,7.59-3.88l8.06-3.55c1.84-.81.17-1.92-1.18-1.32L73,386.7c-2,.86-5.08,1.55-6,3.7-.5,1.15,1.36,1,1.95.73a90.37,90.37,0,0,0,18.2-10.34c1.5-1.1-.54-1.53-1.51-1.15a111.6,111.6,0,0,1-16.09,5c-1.77.41-1.34,2,.43,1.59Z"/><path class="cls-3" d="M111.52,399.8l-.09-.14.19.16Zm-12.39-9.72a3.06,3.06,0,0,0,.48.67q1.67,1.76,3.19,3.6l-4.72-4.2Z"/><path class="cls-3" d="M108.13,415.88c-.57-1-2.27-1.58-3.82-1.75l1-.79a1.61,1.61,0,0,0,.71-2c-.45-1.08-2.21-1.76-3.84-2,1-.75.81-1.52.65-1.83-.62-1.24-3.57-2.11-5.41-2.12l1.16-.75c1.25-.81.94-1.67.75-2-.89-1.54-5.52-2.39-7.07-1.61q-4.24,2.14-8.69,4.18a112.54,112.54,0,0,0,10.27-7c1.21-.93.85-1.83.64-2.18-1-1.57-5.09-2.32-6.39-1.7l-3.61,1.69a19.14,19.14,0,0,0,1.44-1.92,1.65,1.65,0,0,0,.07-1.9c-1-1.46-4.47-1.87-5.47-1.69l-.61.11c5.14-2.62,10.21-5.1,15.12-7.37,1.65-.77,1.6-1.67,1.42-2.13-.61-1.6-3.53-4.83-5.13-4.35-4,1.2-9.49,4.58-14.19,5.73l15.53-8.33c1.24-.67,1-1.5.86-1.83-.71-1.5-5-3.72-6.51-3.11-3.68,1.53-14,3.87-14,3.87s10.53-3.4,14.41-6c1.24-.83.93-1.71.73-2.05-.86-1.52-5-2.52-6.44-1.85l-2.26,1.07L81.33,363c1.22-.91.87-1.81.67-2.15-1-1.59-5.09-2.36-6.4-1.74l-.56.27a1.4,1.4,0,0,0-.17-1.09c-1-1.56-5.08-2.31-6.39-1.7L51.73,364.4c-1.3.61-1.5,1.34-1.44,1.85.11,1,1.29,1.76,2.59,2.21L48.31,372c-1.21.94-.85,1.84-.64,2.18.71,1.16,3.14,1.86,4.88,1.91l-3.8,2.83c-.89.67-.95,1.32-.83,1.76.27,1,1.67,1.65,2.94,2l-1.56.94c-1.15.69-1.06,1.45-.9,1.85.64,1.57,4.67,2.55,5.73,2.29l.44-.11-.18.1c-1.16.62-1.1,1.36-1,1.74.55,1.53,4.68,2.64,5.76,2.41,2.41-.49,5.36-1.1,8.5-1.77-6.31,3.33-12.42,6.72-18.2,10.11-.88.52-.64,1.24-.95,1.5-7,5.77,9.5.25,10.41.64L42.49,407a3.08,3.08,0,0,0-2.06,2.61,4.4,4.4,0,0,0,1.5,3.43l-.23.11-1.2.57c-1.66.78-1.59,1.7-1.39,2.18.61,1.52-1,3.27.73,3-2.08,1,1.09,1.2-.94,2.21-1.19.59-1.14,1.3-1,1.67.58,1.56,5.39,2.59,6.56,2.3,3.55-.9,20.18-7.06,23.89-8.18-4.57,2.22-22.17,9.49-26.78,11.47-1.57.67-1.67,1.48-1.48,2C40.66,432,45,433,46.5,432.58c2.77-.73,5.64-1.61,8.64-2.67-2.91,1.62-5.66,3.12-8.29,4.54-1.19.64-1.11,1.38-1,1.76.66,1.59,5.42,2.53,6.55,2.2,1.8-.53,3.59-1.11,5.28-1.67.88,1.15,3.41,1.92,4.86,1.92a2.9,2.9,0,0,0,.46,0,93.85,93.85,0,0,0,10.53-2.34,5.29,5.29,0,0,0,2.15.28A45.68,45.68,0,0,0,108,417.66,1.6,1.6,0,0,0,108.13,415.88Z"/><path class="cls-4" d="M106,422.62a8.08,8.08,0,0,1,1.19-1.56c.94-1,1.81-2,2.67-3a5.3,5.3,0,0,1,.9-.84,41.12,41.12,0,0,0-19.59-26.43c4.3-6,4.45-13.3,1.24-20.84A28.49,28.49,0,0,0,72,353.57c0-2.07-1.21-2.81-2-2.81C56.3,350.63,39.4,365.56,44.77,380a32.15,32.15,0,0,0,7.43,11.22,55.66,55.66,0,0,0-9,9.12c-6.06,7.44-10.4,16.83-8,25.92a2.71,2.71,0,0,0,2.66,2,4.07,4.07,0,0,0,1.5.92c.73.23,1.47.44,2.21.65-.78-9.06-.48-18.06,5.59-24.83l.92-1.21c2.49-3.19,7.22-6.12,10.41-8.22,5.26,3.55,11.39,5.58,17.36,4.83,3.38-.43,7.38-3.61,9.94-5.3,9.15,4.67,17.78,13.23,19.23,27.24A7.2,7.2,0,0,0,106,422.62Zm-18.21-45a19.56,19.56,0,0,1-15.08,16.58C60.05,397.07,49.12,384.37,51.5,371c1.33-7.5,7.94-11.39,13.49-13.8,2.35.47.78,2.22,1.11,2.15C78.13,356.65,89.7,364.68,87.83,377.66Z"/><path class="cls-4" d="M37.69,427.73c10.39,8.87,23.91,12.68,37.45,11.86,14.23-.86,26.5-9.66,35.5-20.19,2-2.34-3.22-5.69-4.91-3.72-7.57,8.85-17.56,16.92-29.36,18.89A44,44,0,0,1,41,424.95c-2.58-2.2-6.44.09-3.29,2.78Z"/><path class="cls-5" d="M130.15,351.08l-7.58,3.32c2.25-1.32,4.51-2.64,6.74-4,2.39-1.45.3-3.44-1.83-2.46-5.1,2.35-10.2,4.69-15.33,7l15.34-8.24c2.46-1.32.26-3.52-1.83-2.46-5.15,2.62-10.36,5.11-15.6,7.54l12.68-7.29c2.44-1.41.29-3.39-1.83-2.46l-11.58,5.11,8.85-5.11c2.42-1.4.28-3.49-1.83-2.46l-11.82,5.79c2.43-1.86,4.84-3.77,7.19-5.76,1.93-1.64-.61-3-2.28-2.18-1.48.74-2.95,1.51-4.42,2.26l.21-.15c2.18-1.59-.74-2.76-2.28-2.18a78.73,78.73,0,0,0-13.26,6.46c-1.85,1.12-.92,2.74.54,2.8l-4.52,3.31c-2,1.48.65,3.08,2.28,2.18,2.57-1.42,5.17-2.8,7.76-4.18-3.5,2.46-7.07,4.82-10.76,7-1.71,1-1.11,2.37.14,2.67l-1.51.87c-2.44,1.41-.29,3.39,1.83,2.46L96.53,356l-10.81,6.22c-2.46,1.42-.31,3.28,1.8,2.47l-.9.48c-2,1.09-.83,3.4,1.29,2.65,4.66-1.65,9.25-3.43,13.82-5.29-4.36,2.31-8.74,4.58-13.17,6.75-2.54,1.25-.28,3.38,1.83,2.46l1.3-.57c-.87,1.12.34,2.63,2.08,2,2.64-.89,5.27-1.84,7.89-2.79l-6.8,3.61c-2.5,1.33-.28,3.38,1.83,2.46l.28-.12c-.23,1,.86,2,2.33,1.52q3.51-1.21,7-2.52c-1.49.72-3,1.45-4.49,2.13-2.56,1.14-.29,3.4,1.83,2.46l6.11-2.72c-.66.36-1.3.74-2,1.08-2.21,1.12-.75,3.06,1.29,2.65a28.39,28.39,0,0,0,20.38-15.61,1,1,0,0,0-.31-1.38,2.54,2.54,0,0,0-2-.64l1.94-1.1c1.89-1.09,1-2.52-.44-2.68l2.05-1.09c2.48-1.32.28-3.43-1.83-2.46q-4.31,2-8.66,3.89,5.92-3.14,11.8-6.38C134.45,352.17,132.26,350.15,130.15,351.08Z"/><path class="cls-4" d="M134.09,358.81a1,1,0,0,0,0-.16c-1.43-31.88-51-30.28-50.84,1.07.11,32.21,49.45,30.3,50.84-.73A1,1,0,0,0,134.09,358.81Zm-28.15,21.93c-10.49-1.87-18-11.44-18-21.92C88,346,99.25,335,112.43,338c10.32,2.35,16.52,11.52,17,21.67C128.85,372,119.32,383.12,105.94,380.73Z"/><path class="cls-4" d="M113.14,349.58c-1.42,2-2.89,4-4.39,6l-7.14-7.38c-1.79-1.85-7.56,2.44-6.3,3.73l9,9.29c-2.32,2.83-4.71,5.61-7.19,8.3-1.3,1.41,1.13,1.78,2.05,1.78,1.79,0,4.19.71,5.45-.66,1.4-1.52,2.78-3.15,4.13-4.84l4.88,5c1.79,1.85,7.56-2.44,6.3-3.73l-6.82-7.05c2.63-3.62,5.15-7.33,7.56-10.78C122.44,346.73,114.43,347.75,113.14,349.58Z"/><path class="cls-1" d="M108,602.59c4.6-2.9,9.1-6,13.5-9.1a55.47,55.47,0,0,1-7.5,6.1Zm-36.2-115.2c-6.8,5.8-14.7,10.4-22.3,14.8l-3.3,1.9C54.72,498.49,63.22,492.79,71.82,487.39Zm-14.9-.2c-4,3-8.3,5.8-12.5,8.4,2-1.5,4-2.9,6.1-4.2A70.58,70.58,0,0,1,56.92,487.19Zm44.9,12.8c2.3-1.9,4.6-3.7,7-5.4C106.62,496.49,104.22,498.29,101.82,500Zm30.5,75c-1.3,1-2.6,2-4,2.9C129.62,576.89,130.92,575.89,132.32,575Zm-28,13.7c-6.7,5.4-13.8,11.2-21.6,15.1A146.73,146.73,0,0,1,104.32,588.69Zm25.3-23c-4.3,3-8.8,5.7-13.4,8.3,4.9-3.6,9.9-7.1,15.1-10.2l4.5-2.7C133.72,562.79,131.62,564.29,129.62,565.69Zm-64.9,35,10.4-7.4a64,64,0,0,1-10.6,8.2C64.62,601.29,64.62,601,64.72,600.69Zm32.7-31c-4.2,3-8.5,5.9-12.9,8.6-2.3,1.4-4.6,2.7-6.9,4.1,7.6-5.7,15.2-11.3,23.1-16.6,4.3-2.9,8.8-5.6,13.2-8.3-4.3,3.1-8.5,6.3-12.8,9.5Zm60.2-51.2a12.19,12.19,0,0,0-5.9.9l.3-.3c1.5-1.4-.4-2.5-1.6-2.6a11.92,11.92,0,0,0-8.1,2.2l-1.3.9c1.9-1.5,3.8-2.9,5.7-4.4,1.1-.9,1.9-2.5.1-3.1a8.2,8.2,0,0,0-4.4-.1c.5-.5,1.1-1,1.6-1.5,1-.9,2-2.4.1-3.1-2.5-.9-5.7.1-8,1.3-3.3,1.7-6.6,3.5-9.8,5.3a113.25,113.25,0,0,0,10.6-10.2c1.3-1.5-.3-2.5-1.6-2.6a10.45,10.45,0,0,0-2.5,0,104.66,104.66,0,0,0,11.4-10.7c1.3-1.5-.3-2.5-1.6-2.6a11.64,11.64,0,0,0-8.1,2.2,370.48,370.48,0,0,1-33.3,25.4c-2.7,1.7-5.3,3.4-8,5.1,13.3-9.3,26.2-19.3,37.2-31.4,1.3-1.5-.3-2.5-1.6-2.6a11.56,11.56,0,0,0-3.2.1,15.92,15.92,0,0,0,1.3-2.2c1.2-2.2-4-2-4.8-1.8a8.33,8.33,0,0,0-1.5.4c.6-.6,1.3-1.2,1.9-1.8,1.4-1.4-.4-2.5-1.6-2.6a11.92,11.92,0,0,0-8.1,2.2c-5.6,4-11.1,8-16.7,12-1.5.9-3,1.7-4.5,2.5-9.4,5.3-18.4,11.2-27.6,16.8l-3.1,1.8.3-.2c19.1-12.3,39.2-23.2,56.6-37.7,1.7-1.4,1.4-3.1-.9-3.4a11.78,11.78,0,0,0-8.1,2.2,118.2,118.2,0,0,1-10.4,7c2.3-1.7,4.7-3.4,6.9-5.2,1.8-1.4,1.4-3.1-.9-3.4a12.32,12.32,0,0,0-8.1,2.2l-7.8,5.7a47.63,47.63,0,0,0,5-6.6c1-1.6-.1-2.4-1.7-2.6a12.2,12.2,0,0,0-7,1.5c-2.7,1.4-5.4,2.9-8.1,4.4.3-.4.7-.8,1-1.2,2.9-3.7-6.3-2.1-7.3-1.7a125.77,125.77,0,0,0-27.5,14.2,150.85,150.85,0,0,0-24.4,19.6c-1.5,1.5.1,2.2,1.6,2.5a71,71,0,0,0-9.4,8.8c-1.4,1.5.2,2.5,1.6,2.6a11.46,11.46,0,0,0,7-1.5c.6-.3,1.1-.7,1.7-1a74.85,74.85,0,0,0-9,7.9c-1.4,1.4.4,2.5,1.6,2.6a13.26,13.26,0,0,0,7-1.5c1.1-.5,2.2-1.1,3.3-1.6-4.3,3.7-8.6,7.7-12.6,11.8-1.4,1.4.4,2.5,1.6,2.6a6.7,6.7,0,0,0,2,0c-1.5,1.5-2.9,3.1-4.3,4.7s.3,2.5,1.6,2.6a10.75,10.75,0,0,0,3.1-.1c-1.3.9-2.7,1.8-4,2.8-1.9,1.4-1.3,3.1.9,3.3a11.78,11.78,0,0,0,8.1-2.2l4-2.8c11.9-8,24.7-14.7,37.2-21.7-4.6,3.6-9.3,7.2-14,10.6-4.4,2.3-8.9,4.5-13.4,6.6-7,3.3-16.8,7.1-19.9,14.9-1.1,2.8,5.4,1.7,6.3,1.5a35.74,35.74,0,0,0,6-2.1c-2.6,1.9-5.2,3.9-7.8,5.8-1.2.8-1.9,2.5-.1,3.1,2.5.9,5.8-.1,8-1.3l.1-.1a53.5,53.5,0,0,0-7.4,8.3c-1.1,1.5.1,2.4,1.7,2.6a12.2,12.2,0,0,0,7-1.5c.9-.5,1.9-1,2.8-1.5-2.3,2.1-4.6,4.2-6.9,6.4-1.4,1.4.4,2.5,1.7,2.6a10.75,10.75,0,0,0,5.3-.8,18.32,18.32,0,0,0-4.1,8.8c-.5,2.9,4.9,1.9,6.3,1.5a48.51,48.51,0,0,0,9.2-3.5c-1.8,1.9-3.5,3.9-5.2,6-1.2,1.5.2,2.5,1.7,2.6a11.83,11.83,0,0,0,3.7-.2,10.7,10.7,0,0,0-1.4,1.6c-1.3,1.5.3,2.5,1.7,2.6a11.46,11.46,0,0,0,7-1.5l.5-.3c-1.1,1-2.2,2.1-3.3,3.2-1.4,1.4.4,2.5,1.7,2.6a10.85,10.85,0,0,0,4-.3c.2,0,.5-.1.8-.1l.3,1.2c.7,2.1,4.9,1.2,6.3.8l.7-.2c-1.2,1.5.2,2.4,1.7,2.6a10.45,10.45,0,0,0,2.5,0c-1,1.9,3.8,2.1,4.8,1.9,2.2-.4,4.4-1,6.5-1.6-.6.3-1.2.7-1.8,1-.9.5-3.3,2.1-1.9,3.4s4.3.7,5.9.2,2.9-.8,4.3-1.3c-.8.7-1.3,1.6-.5,2.4,1.8,1.6,5.5.5,7.4-.3,10.6-4.1,21-8.4,30.3-14.4,1.8-.9,3.6-1.9,5.4-2.9,11.1-6.2,22.6-14.7,26.8-27.4.7-2-1.9-2.1-4.5-1.7a45.68,45.68,0,0,0,5.4-6.9c1.1-1.9-.1-2.5-1.9-2.5a30,30,0,0,0,6.2-9.5c.4-1.1-.7-1.6-1.6-1.8a19.22,19.22,0,0,0,1.6-4.2c.6-2.3-3.6-2-4.8-1.8a20.48,20.48,0,0,0-2.4.5c1.6-1.7,3.2-3.4,4.7-5.2,1.2-1.5-.2-2.4-1.6-2.6a6.6,6.6,0,0,0-1.4-.1,35.53,35.53,0,0,0,4.8-6.7c1.3-2.3-3.8-1.8-6.4-1.3,2.9-2,5.7-4.2,8.5-6.5C160.22,520.39,160,518.79,157.62,518.49Z"/><path class="cls-2" d="M14.72,545.09c0-15.3,6.1-31.1,16.6-43.2,10.9-12.4,25.3-20,40.6-21.3,1.2-.1,2.4-1,2.3-1.8,0-.3-.2-1-1.8-.8a65.91,65.91,0,0,0-33.7,13c1.5-1.2,3.1-2.4,4.7-3.5a69.86,69.86,0,0,1,39-11.6,71.18,71.18,0,0,1,27.6,5.5c17.3,7.4,30.6,21.9,37.4,41a81.45,81.45,0,0,1,2.4,31.1c-1.9,16.1-8.4,30.2-19,40.7A76.12,76.12,0,0,1,86,615.29a60.86,60.86,0,0,1-12.8.1,61.81,61.81,0,0,1-8.4-2.4C36.22,602.49,14.72,573.39,14.72,545.09Zm23.7,56.5a61.2,61.2,0,0,1-9.9-9.8A83.34,83.34,0,0,0,38.42,601.59Zm54.8,14.9c2.8-.6,5.6-1.3,8.3-2.1a81.34,81.34,0,0,0,36.8-23.6,68.13,68.13,0,0,1-26,20.6A57.56,57.56,0,0,1,93.22,616.49ZM117.92,476l-.8-.5a1.55,1.55,0,0,0-.8-.2c-1.1,0-2.9.7-3.1,1.5a.79.79,0,0,0,.5.9,66.64,66.64,0,0,1,9.3,6.4,73.52,73.52,0,0,0-40.8-10.9c-22.6.5-43.2,10.2-56.5,26.5C14,513.89,8,533.49,9.42,553.49c1.3,19.8,10.3,38,24.5,49.7,10.2,8.4,23.1,13.5,37.5,14.6a71.64,71.64,0,0,0,14.6,1.5,69.3,69.3,0,0,0,36.8-10.5,71,71,0,0,0,33.5-52.6,76.38,76.38,0,0,0-4.3-35.3C146.62,501.69,134.52,485.69,117.92,476Z"/><path class="cls-3" d="M58.72,548.09h0c0,.1-.1.1-.1.2C58.62,548.19,58.72,548.19,58.72,548.09Z"/><path class="cls-3" d="M129.92,563.19v.2h-.2C129.82,563.39,129.82,563.29,129.92,563.19Z"/><path class="cls-3" d="M71.15,542.06A116.93,116.93,0,0,0,88,536.84l-1.51-1.15a87,87,0,0,1-17.56,10l1.95.73c.8-1.83,5.93-3.15,7.59-3.88L86.54,539c1.84-.81.17-1.92-1.18-1.32l-11.16,4.92c-2,.86-5.08,1.55-6,3.7-.5,1.15,1.36,1,1.95.73a90.37,90.37,0,0,0,18.2-10.34c1.5-1.1-.54-1.53-1.51-1.15a111.6,111.6,0,0,1-16.09,5c-1.77.41-1.34,2,.43,1.59Z"/><path class="cls-3" d="M112.7,555.67l-.09-.14.19.16ZM100.31,546a3.06,3.06,0,0,0,.48.67q1.67,1.76,3.19,3.6L99.25,546Z"/><path class="cls-3" d="M109.32,571.75c-.57-1-2.27-1.58-3.82-1.75l1-.79a1.61,1.61,0,0,0,.71-2c-.45-1.08-2.21-1.76-3.84-2,1-.75.81-1.52.65-1.83-.62-1.24-3.57-2.11-5.41-2.12l1.16-.75c1.25-.81.94-1.67.75-2C99.64,557,95,556.18,93.45,557q-4.24,2.14-8.69,4.18a112.54,112.54,0,0,0,10.27-7c1.21-.93.85-1.83.64-2.18-1-1.57-5.09-2.32-6.39-1.7L85.68,552A19.14,19.14,0,0,0,87.11,550a1.65,1.65,0,0,0,.07-1.9c-1-1.46-4.47-1.87-5.47-1.69l-.61.11c5.14-2.62,10.21-5.1,15.12-7.37,1.65-.77,1.6-1.67,1.42-2.13-.61-1.6-4.79-2.62-6.39-2.13-4,1.2-8.23,2.36-12.93,3.51l15.53-8.33c1.24-.67,1-1.5.86-1.83-.71-1.5-5-2.72-6.51-2.11-3.68,1.53-7.53,3.12-11.46,4.66,4-2.58,8-5.18,11.92-7.78,1.24-.83.93-1.71.73-2.05-.86-1.52-5-2.52-6.44-1.85l-2.26,1.07,1.81-1.35c1.22-.91.87-1.81.67-2.15-1-1.59-5.09-2.36-6.4-1.74l-.56.27a1.4,1.4,0,0,0-.17-1.09c-1-1.56-5.08-2.31-6.39-1.7l-16.74,7.82c-1.3.61-1.5,1.34-1.44,1.85.11,1,1.29,1.76,2.59,2.21l-4.57,3.54c-1.21.94-.85,1.84-.64,2.18.71,1.16,3.14,1.86,4.88,1.91l-3.8,2.83c-.89.67-.95,1.32-.83,1.76.27,1,1.67,1.65,2.94,2l-1.56.94c-1.15.69-1.06,1.45-.9,1.85.64,1.57,4.67,2.55,5.73,2.29l.44-.11-.18.1c-1.16.62-1.1,1.36-1,1.74.55,1.53,4.68,2.64,5.76,2.41,2.41-.49,5.36-1.1,8.5-1.77-6.31,3.33-12.42,6.72-18.2,10.11-.88.52-1,1.1-.95,1.5.12.85,1.11,1.46,2,1.84l-8.09,3.36a3.08,3.08,0,0,0-2.06,2.61,4.4,4.4,0,0,0,1.5,3.43l-.23.11-1.2.57c-1.66.78-1.59,1.7-1.39,2.18.61,1.52,4.2,2.47,6,2.18-2.08,1-4.15,2-6.18,3-1.19.59-1.14,1.3-1,1.67.58,1.56,5.39,2.59,6.56,2.3,3.55-.9,7.2-1.91,10.91-3-4.57,2.22-9.19,4.33-13.8,6.32-1.57.67-1.67,1.48-1.48,2,.58,1.68,4.92,2.63,6.42,2.24,2.77-.73,5.64-1.61,8.64-2.67-2.91,1.62-5.66,3.12-8.29,4.54-1.19.64-1.11,1.38-1,1.76.66,1.59,5.42,2.53,6.55,2.2,1.8-.53,3.59-1.11,5.28-1.67.88,1.15,3.41,1.92,4.86,1.92a2.9,2.9,0,0,0,.46,0,93.85,93.85,0,0,0,10.53-2.34,5.29,5.29,0,0,0,2.15.28,45.68,45.68,0,0,0,32.23-18.92A1.6,1.6,0,0,0,109.32,571.75Z"/><path class="cls-4" d="M113.71,578.85c-.19-12.18-6.8-24.25-19.32-31.19,4.3-6,3.45-14.3.24-21.84a28.49,28.49,0,0,0-20.41-16.37,5.67,5.67,0,0,0-3-1.81c-13.75-.13-27.65,16.8-22.28,31.22,1.49,4,2.71,6.06,6.43,8.22a63.65,63.65,0,0,0-10,9.12c-6.06,7.44-10.4,16.83-8,25.92a2.71,2.71,0,0,0,2.66,2,4.07,4.07,0,0,0,1.5.92c.73.23,1.47.44,2.21.65-.78-9.06.52-19.06,6.59-25.83l.92-1.21a28.11,28.11,0,0,1,7.41-7.22C63.88,555,72,557,78,556.24c3.38-.43,11.84-2.84,12.94-5.3,9.15,4.67,14.78,13.23,16.23,27.24,3.31,1.24,4.09-.89,4.74,2.8.1.59.19,1.18.26,1.76a2.31,2.31,0,0,0,1.36-3A2.35,2.35,0,0,0,113.71,578.85ZM90,535.54a19.56,19.56,0,0,1-15.08,16.58c-12.69,2.83-25.63-11.77-20.25-24.24a24.61,24.61,0,0,1,12.49-12.8,2,2,0,0,0,1.11.15A18,18,0,0,1,90,535.54Z"/><path class="cls-4" d="M38.88,583.6c10.39,8.87,23.91,12.68,37.45,11.86,14.23-.86,26.5-9.66,35.5-20.19,2-2.34-3.22-5.69-4.91-3.72-7.57,8.85-17.56,16.92-29.36,18.89C65,592.53,50.79,590,41.16,581.82c-2.58-2.2-5.44-.91-2.29,1.78Z"/><path class="cls-5" d="M131.34,507l-7.58,3.32c2.25-1.32,4.51-2.64,6.74-4,2.39-1.45.3-3.44-1.83-2.46-5.1,2.35-10.2,4.69-15.33,7l15.34-8.24c2.46-1.32.26-3.52-1.83-2.46-5.15,2.62-10.36,5.11-15.6,7.54l12.68-7.29c2.44-1.41.29-3.39-1.83-2.46L110.53,503l8.85-5.11c2.42-1.4.28-3.49-1.83-2.46l-11.82,5.79c2.43-1.86,8.26-4.87,10.6-6.87,1.93-1.64-4-1.9-5.69-1.08-1.48.74-2.95,1.51-4.42,2.26l.21-.15c2.18-1.59-.74-2.76-2.28-2.18a78.73,78.73,0,0,0-13.26,6.46c-1.85,1.12-.92,2.74.54,2.8l-4.52,3.31c-2,1.48.65,3.08,2.28,2.18,2.57-1.42,5.17-2.8,7.76-4.18-3.5,2.46-7.07,4.82-10.76,7-1.71,1-1.11,2.37.14,2.67l-1.51.87c-2.44,1.41-.29,3.39,1.83,2.46l11.07-4.88L86.9,518.11c-2.46,1.42-.31,3.28,1.8,2.47l-.9.48c-2,1.09-.83,3.4,1.29,2.65,4.66-1.65,4.25-1.43,8.82-3.29-4.36,2.31-3.74,2.58-8.17,4.75-2.54,1.25-.28,3.38,1.83,2.46l1.3-.57c-.87,1.12.34,2.63,2.08,2,2.64-.89,5.27-1.84,7.89-2.79L96,529.94c-2.5,1.33-.28,3.38,1.83,2.46l.28-.12c-.23,1,.86,2,2.33,1.52q3.51-1.21,7-2.52c-1.49.72-3,1.45-4.49,2.13-2.56,1.14-.29,3.4,1.83,2.46l6.11-2.72c-.66.36-1.3.74-2,1.08-2.21,1.12-.79,2.78,1.29,2.65,11-.69,14.26-4.29,18.38-12.61.33-.66,2.13-4.12,1.69-4.38a2.54,2.54,0,0,0-2-.64l1.94-1.1c1.89-1.09,1-2.52-.44-2.68l2.05-1.09c2.48-1.32.28-3.43-1.83-2.46q-4.31,2-8.66,3.89c3.95-2.1,7.89-1.21,11.8-3.38C135.64,511,133.45,506,131.34,507Z"/><path class="cls-4" d="M135.27,514.68a1,1,0,0,0,0-.16c-1.43-31.88-50-30.28-49.84,1.07.11,32.21,48.45,30.3,49.84-.73A1,1,0,0,0,135.27,514.68Zm-28.15,21.93c-10.49-1.87-18-11.44-18-21.92,0-12.78,11.27-23.79,24.45-20.79,10.32,2.35,16.52,11.52,17,21.67C130,527.84,120.51,539,107.12,536.61Z"/><path class="cls-4" d="M114.33,505.46c-1.42,2-3.89,5-5.39,7-2.38-2.46-4.76-5.92-7.14-8.38-1.79-1.85-6.56,2.44-5.3,3.73l9,9.29c-2.32,2.83-4.71,5.61-7.19,8.3-1.3,1.41,1.13,1.78,2.05,1.78,1.79,0,4.19.71,5.45-.66,1.4-1.52,3.78-4.15,5.13-5.84,1.63,1.68,3.25,4.36,4.88,6,1.79,1.85,6.56-2.44,5.3-3.73l-6.82-7.05c2.63-3.62,5.15-7.33,7.56-10.78C123.62,502.6,115.61,503.62,114.33,505.46Z"/></g></svg>