<?xml version="1.0" encoding="UTF-8"?>
<svg width="245px" height="52px" viewBox="0 0 245 52" version="1.1" xmlns="http://www.w3.org/2000/svg" xmlns:xlink="http://www.w3.org/1999/xlink">
    <!-- Generator: Sketch 61.1 (89650) - https://sketch.com -->
    <title>Group 8</title>
    <desc>Created with Sketch.</desc>
    <defs>
        <polygon id="path-1" points="0 0.121896922 244.914376 0.121896922 244.914376 51.5315315 0 51.5315315"></polygon>
    </defs>
    <g id="Welcome" stroke="none" stroke-width="1" fill="none" fill-rule="evenodd">
        <g id="Desktop-HD-Copy-10" transform="translate(-640.000000, -523.000000)">
            <g id="Group-8" transform="translate(640.000000, 523.000000)">
                <path d="M62.4996122,32.4675041 C61.0464138,32.4675041 59.8642602,31.2853366 59.8642602,29.8314748 C59.8642602,28.3785178 61.0464138,27.1959625 62.4996122,27.1959625 C63.9534569,27.1959625 65.1358691,28.3785178 65.1358691,29.8314748 C65.1358691,31.2853366 63.9534569,32.4675041 62.4996122,32.4675041 M62.4996122,24 C59.4675808,24 57,26.4673513 57,29.4999354 C57,32.5329072 59.4675808,35 62.4996122,35 C65.5325484,35 68,32.5329072 68,29.4999354 C68,26.4673513 65.5325484,24 62.4996122,24" id="Fill-1" fill="#231F20"></path>
                <path d="M224.394992,22.9243719 C222.93799,22.2811107 221.42484,22 220.108272,22 C218.409124,22 217.036924,22.46786 216.532498,23.2289188 C215.702415,24.4807804 216.056726,25.0095744 216.19019,25.2086586 C216.984004,26.3932953 219.960997,27.342707 223.569039,26.8808911 C224.764793,26.7276925 226.322345,26.3867579 227.999033,25.6493819 C228,25.6490119 228.000324,25.6476551 227.99955,25.6467916 C226.833096,24.1883217 225.370673,23.3551041 224.394992,22.9243719" id="Fill-3" fill="#231F20"></path>
                <g id="Group-7">
                    <mask id="mask-2" fill="white">
                        <use xlink:href="#path-1"></use>
                    </mask>
                    <g id="Clip-6"></g>
                    <path d="M212.565814,33.5948179 C216.077828,35.6390764 220.951532,36.3955698 225.623585,35.5976158 C224.931805,37.6778417 222.957485,39.2996462 220.476112,39.7860568 C217.893328,40.2924783 215.51727,39.4670583 214.274956,37.6318034 L214.266494,37.6199014 C213.703854,36.8781874 213.359916,35.8605051 213.027044,34.875782 C212.875774,34.4286086 212.729321,33.9954298 212.565814,33.5948179 L212.565814,33.5948179 Z M234.305203,27.7034821 C234.304943,27.7041361 234.304683,27.7046593 234.304552,27.7053132 C235.012084,30.6362018 234.93684,34.142177 233.67591,38.2241544 C232.721425,41.3148692 230.59922,44.0375389 227.700878,45.8905814 C225.114969,47.5433834 222.035155,48.4417846 218.979685,48.4417846 C218.82464,48.4417846 218.669855,48.4394304 218.51494,48.4347219 C215.36548,48.340291 212.452687,47.3033824 210.09134,45.4362146 C209.102098,44.6540862 208.220774,43.7295269 207.458827,42.6816319 C207.457525,42.6816319 207.457135,42.6816319 207.455963,42.6817627 C206.946696,43.4931881 206.390304,44.2097903 205.788219,44.8289534 C203.896824,46.7742033 200.157905,47.5781737 197.809967,47.2904342 C195.115097,46.9599261 186.671449,45.7104826 186.671449,27.4782606 L186.671449,27.4781298 C186.624584,25.9812303 187.928604,24.7295635 189.418522,24.6826096 C190.912214,24.6359173 192.154398,25.8110717 192.201133,27.3079711 L192.201133,27.3103253 C192.201133,38.8328543 195.364393,41.3641773 198.032055,41.3641773 C199.474977,41.3641773 203.32455,40.2749524 204.63625,35.6020627 C204.655777,35.5297354 204.674133,35.4755881 204.70134,35.394367 C204.719826,35.3390426 204.748075,35.2552057 204.76591,35.2019739 C205.038769,34.3027879 205.769993,33.5725835 206.745307,33.3477543 C208.182111,33.0165923 209.617613,33.9050535 209.969882,35.3430971 C210.593577,37.890115 211.757783,39.8518445 213.430084,41.1741384 C214.876521,42.317903 216.690458,42.9539381 218.675974,43.0135786 C220.813931,43.0775353 222.988729,42.4741978 224.802796,41.314346 C226.091064,40.4910186 227.78172,39.0074598 228.520105,36.616606 C229.226205,34.3310387 229.440092,32.3946826 229.326574,30.7577063 C229.325533,30.7571832 229.325142,30.7569216 229.324101,30.7562676 C227.542709,31.535257 225.660036,32.0658748 223.727504,32.3257559 C222.830039,32.4467373 221.947544,32.5054623 221.090825,32.5054623 C216.600634,32.5057239 212.799749,30.8896741 211.022653,28.1018706 C209.531563,25.7625483 209.652501,22.8732512 211.353963,20.1750393 C213.868662,16.1876235 220.349446,15.1580392 226.108118,17.8315317 C228.292419,18.8452903 230.365937,20.4234108 231.934744,22.5673318 C231.935785,22.5674626 231.936176,22.5674626 231.937217,22.5674626 C234.077257,20.4831821 235.670147,17.7920329 236.681,14.5467236 C237.126348,13.1173121 238.64061,12.3214508 240.063354,12.7687549 C241.485968,13.2160591 242.278248,14.7374164 241.83303,16.1668278 C240.342331,20.9518052 237.810187,24.8323649 234.305203,27.7034821 L234.305203,27.7034821 Z M183.591765,48.576499 C181.497549,48.576499 179.799993,46.8708576 179.799993,44.7668278 C179.799993,42.6629288 181.497549,40.9572874 183.591765,40.9572874 C185.685851,40.9572874 187.383537,42.6629288 187.383537,44.7668278 C187.383537,46.8708576 185.685851,48.576499 183.591765,48.576499 L183.591765,48.576499 Z M168.037129,29.6319909 C167.101391,30.2144018 166.27917,30.9863284 165.631391,31.9161194 C164.9965,32.8272074 163.95896,33.3712967 162.85685,33.3712967 C160.993965,33.3712967 159.478532,31.8486315 159.478532,29.9770167 C159.478532,28.1052711 160.993965,26.5829983 162.85685,26.5829983 C163.759653,26.5829983 164.606999,26.9348253 165.232647,27.5634053 C165.271571,27.6031657 165.310235,27.6429261 165.346816,27.6828172 C166.108112,28.5163463 167.027188,29.1761853 168.037129,29.6319909 L168.037129,29.6319909 Z M176.750511,39.4020553 C173.577618,43.95501 168.38354,46.6731021 162.85685,46.6731021 C153.509619,46.6731021 145.905246,39.0328332 145.905246,29.6415386 C145.905246,20.2502439 153.509619,12.6102366 162.85685,12.6102366 C167.384534,12.6102366 171.641832,14.3812733 174.843235,17.5980703 C175.01299,17.7684906 175.17858,17.9420498 175.348596,18.1273803 C177.34049,20.3089689 177.194297,23.7122735 175.023405,25.714025 C174.034943,26.6255053 172.751882,27.1269568 171.411542,27.1269568 C169.917329,27.1269568 168.481827,26.4930143 167.471885,25.387833 C167.410179,25.3200834 165.406048,23.2435196 162.85685,23.3493293 C159.406412,23.4924143 156.593989,26.1719232 156.593989,29.6415386 C156.593989,33.111154 159.403288,35.9338786 162.85685,35.9338786 C164.899385,35.9338786 166.81981,34.9279674 167.9943,33.242991 C168.993437,31.8090019 170.63176,30.952846 172.376571,30.952846 C173.476077,30.952846 174.534056,31.2884549 175.437379,31.9239669 C177.851319,33.6217608 178.440647,36.976542 176.750511,39.4020553 L176.750511,39.4020553 Z M185.200668,16.6912985 C185.200668,14.3730335 187.077873,12.4872934 189.385586,12.4872934 C191.692908,12.4872934 193.569853,14.3730335 193.569853,16.6912985 L193.569853,16.8287595 C193.569853,19.1466321 191.692908,21.0326338 189.385586,21.0326338 C187.077873,21.0326338 185.200668,19.1466321 185.200668,16.8287595 L185.200668,16.6912985 Z M142.230506,41.1358167 C142.230506,44.0963948 139.832709,46.5052977 136.886069,46.5052977 C133.9393,46.5052977 131.541633,44.0963948 131.541633,41.1358167 L131.541633,22.0068937 C131.541633,19.0958853 133.85989,16.7199416 136.738575,16.6409441 C136.84311,16.6449986 136.947905,16.6490531 137.053351,16.6490531 C137.096181,16.6490531 137.138099,16.6464373 137.180668,16.6457833 C139.990878,16.8001163 142.230506,19.1453242 142.230506,22.0068937 L142.230506,41.1358167 Z M123.357695,25.3785469 L122.857151,25.3785469 L122.857151,41.9904031 C122.857151,44.9512427 120.459483,47.3601456 117.512063,47.3601456 C114.565424,47.3601456 112.167756,44.9512427 112.167756,41.9904031 L112.167756,25.3785469 L111.833843,25.3785469 C108.886813,25.3785469 106.489406,22.9700363 106.489406,20.0090659 C106.489406,17.0480955 108.886813,14.6391926 111.833843,14.6391926 L112.167756,14.6391926 L112.167756,12.458127 C112.167756,9.497549 114.565424,7.08877688 117.512063,7.08877688 C120.459483,7.08877688 122.857151,9.497549 122.857151,12.458127 L122.857151,14.6391926 L123.357695,14.6391926 C126.304595,14.6391926 128.702262,17.0480955 128.702262,20.0090659 C128.702262,22.9700363 126.304595,25.3785469 123.357695,25.3785469 L123.357695,25.3785469 Z M102.313992,25.3581435 C102.213753,25.3576203 102.058707,25.3561816 101.864738,25.3561816 C100.304002,25.3561816 99.0498419,25.4481275 98.3347596,25.6148856 C95.000182,26.3912592 94.7881177,30.0854422 94.851776,31.6381892 C94.8539891,31.6984837 94.8562022,31.7411215 94.8539891,31.7772197 L94.8539891,40.9121646 C94.8539891,43.8727427 92.4563217,46.2816456 89.5094222,46.2816456 C86.5626528,46.2816456 84.1649854,43.8727427 84.1649854,40.9121646 L84.1649854,18.8745875 C84.1649854,15.9140094 86.5626528,13.5051065 89.5094222,13.5051065 C91.2570975,13.5051065 93.4787606,14.6592035 93.8707346,17.1835946 C96.1011198,15.0103765 98.8666777,14.0457952 100.520232,14.0457952 C102.294855,14.0457952 103.462446,14.3132622 103.502411,14.3229407 C104.127408,14.4512464 104.708665,14.7108659 105.229518,15.0670089 C104.209422,16.4437117 103.604863,18.1488299 103.604863,19.9932402 C103.604863,21.72674 104.138994,23.3365118 105.049868,24.6670455 C104.27256,25.1075485 103.375875,25.3593206 102.421391,25.3593206 L102.313992,25.3581435 Z M80.9270019,40.7524692 C80.9270019,43.7129164 78.5293345,46.1216886 75.581784,46.1216886 C73.724106,46.1216886 72.100623,44.9164524 71.1526474,42.8669623 C69.39625,45.0205618 66.2254397,46.2897546 62.5267468,46.2897546 C53.5789094,46.2897546 46.2990768,38.9754161 46.2990768,29.9852565 C46.2990768,20.9953585 53.5789094,13.6807584 62.5267468,13.6807584 C65.7312739,13.6807584 68.1111065,14.6683589 70.622682,17.0673217 C71.3902272,15.1970149 73.2788882,14.0166289 75.581784,14.0166289 C78.5293345,14.0166289 80.9270019,16.4256626 80.9270019,19.3863714 L80.9270019,40.7524692 Z M20.422156,31.9441087 C18.0630221,30.6515043 16.4582851,28.136007 16.4582851,25.2511567 C16.4582851,21.0509445 19.8595151,17.6337762 24.0397463,17.6337762 C24.1963536,17.6337762 24.3589493,17.6312912 24.5277936,17.6285446 L24.6046002,17.627629 C24.7619886,17.625144 24.9264067,17.6223974 25.0986358,17.6223974 C25.7542256,17.6223974 26.4821958,17.6690897 27.3963244,17.8828017 C27.0504344,17.881363 26.781351,17.8804474 26.6164121,17.8797935 L26.5211198,17.8790087 C26.4627989,17.8762621 26.4039572,17.875085 26.3455061,17.875085 C21.7932187,17.875085 18.0891884,21.5964725 18.0891884,26.1704845 C18.0891884,28.4121061 18.9789732,30.4494327 20.422156,31.9441087 L20.422156,31.9441087 Z M41.4389121,36.87034 C37.678123,42.8673546 31.4985773,46.1698195 24.0397463,46.1698195 C12.3749083,46.1698195 2.88460813,36.6350475 2.88460813,24.915417 C2.88460813,13.1956557 12.3749083,3.6610145 24.0397463,3.6610145 C29.1676926,3.6610145 35.6089014,4.25035734 39.9375385,8.84241844 C40.9191007,9.88325074 41.4382612,11.2464821 41.3985561,12.6804712 C41.3602829,14.1144603 40.7679609,15.4468251 39.7309418,16.4327253 C38.8944009,17.2292406 37.8843292,17.6327299 36.7288456,17.6327299 C35.2236969,17.6327299 33.6318478,16.9579807 32.2730221,16.2976185 C28.8120391,14.6156502 26.7038935,14.3888592 25.0986358,14.3888592 C24.8997197,14.3888592 24.7097861,14.3919982 24.5287048,14.3950064 C24.35947,14.3974914 24.1963536,14.3997148 24.0397463,14.3997148 C18.2684471,14.3997148 13.573742,19.1174658 13.573742,24.915417 C13.573742,30.7136299 18.2689679,35.4308576 24.0397463,35.4308576 C26.6121161,35.4308576 30.1366273,34.6950292 32.3605035,31.2014791 C30.3450465,31.1962475 28.1672543,31.1881385 27.0320789,31.1832992 C26.7748419,31.2169124 26.5557479,31.2320841 26.3455061,31.2320841 C23.3835056,31.2320841 20.9737314,28.8110177 20.9737314,25.8347448 C20.9737314,22.8587334 23.3835056,20.4375362 26.3455061,20.4375362 C26.3673765,20.4375362 26.3896374,20.4384517 26.4112473,20.4402828 L26.4266087,20.4413291 C26.6587208,20.4422447 32.1493504,20.4663101 35.0629238,20.4663101 C37.8106469,20.4663101 40.3374535,22.0807904 41.822945,24.7847571 C43.4949854,27.8289104 44.0249509,32.7469019 41.4389121,36.87034 L41.4389121,36.87034 Z M131.708394,8.35849289 C131.708394,5.39752248 134.106061,2.98888115 137.053351,2.98888115 C140.000121,2.98888115 142.397788,5.39752248 142.397788,8.35849289 L142.397788,8.52616655 C142.397788,11.4867446 140.000121,13.8956475 137.053351,13.8956475 C134.106061,13.8956475 131.708394,11.4867446 131.708394,8.52616655 L131.708394,8.35849289 Z M244.754024,14.076531 C244.283811,11.9418962 242.790639,10.4776944 240.316295,9.72460164 L240.263832,9.71256889 C235.453136,8.97739443 234.434603,11.8785935 233.355535,14.9506052 C232.987645,15.9975847 232.608429,17.077131 232.0687,18.1156091 C228.253104,14.5154646 222.035937,12.6150759 216.804627,13.4806486 C213.985825,13.9469175 210.188455,15.4019639 208.106606,19.6807813 C206.303604,23.2380264 206.642334,27.3432846 208.921146,30.4096723 C207.961064,30.1483525 206.921962,30.1389356 205.910588,30.391754 C204.255081,30.8054449 202.916433,31.8622337 202.235328,33.2968768 C202.031075,33.7539902 201.858065,34.2499485 201.673078,34.7797816 C201.248949,35.9953503 200.810371,37.252118 200.036707,37.7529155 L199.982682,37.7955533 C199.437355,38.3115226 198.940065,38.5026078 198.504741,38.3631849 C197.875968,38.161898 195.857127,37.5997596 195.633737,31.888261 C195.598588,30.9920832 195.417376,29.1986813 195.351765,28.3646291 C195.209348,26.5590636 195.086327,24.9987307 194.192246,24.0068141 C193.826178,23.4962073 193.388641,23.0604127 192.900333,22.7062315 C194.906287,21.5003413 196.252485,19.296649 196.252485,16.7819364 L196.252485,16.644737 C196.252485,12.8402974 193.172151,9.74526657 189.385586,9.74526657 C185.598891,9.74526657 182.518035,12.8402974 182.518035,16.644737 L182.518035,16.7819364 C182.518035,19.3527582 183.925809,21.5981728 186.006877,22.7850983 C184.758965,23.7345079 183.772977,25.3042577 183.731579,27.573607 C183.666099,31.1517787 183.962129,33.8868736 184.672005,37.1506244 C184.787475,37.6809807 184.791641,38.1615056 183.550628,38.1080123 C183.233769,38.0942792 182.758739,38.1027806 182.518035,38.1514348 C181.740857,38.2819639 180.978909,38.5547933 180.272549,38.9759393 C180.622735,37.7722726 180.696938,36.4945783 180.473678,35.2223773 C180.091598,33.0457586 178.890291,31.15034 177.091324,29.8852016 C176.665894,29.5860833 176.217161,29.329472 175.751375,29.1179834 C176.183314,28.8476391 176.592732,28.5362265 176.973901,28.1850535 C180.316811,25.1027093 180.541242,19.8625803 177.47015,16.5007365 C177.272666,16.2841471 177.079608,16.0820755 176.883035,15.8845815 C173.136566,12.1206871 168.155464,10.0479162 162.85685,10.0479162 C154.87977,10.0479162 148.286641,14.8115747 145.083806,21.6473501 C144.866014,19.0344137 143.434677,16.7640181 141.358166,15.4075879 C143.65976,13.9607813 145.19485,11.3924445 145.19485,8.46940339 L145.19485,8.30186052 C145.19485,3.7915436 141.542892,0.121818448 137.053351,0.121818448 C132.563421,0.121818448 128.911202,3.7915436 128.911202,8.30186052 L128.911202,8.46940339 C128.911202,11.3210328 130.37222,13.835353 132.580995,15.2996856 C131.959903,15.684341 131.394398,16.1502174 130.896718,16.6813584 C129.935724,14.4817206 128.048625,12.7796106 125.733753,12.0766106 C125.542647,7.6868827 121.928051,4.17489111 117.512063,4.17489111 C113.078761,4.17489111 109.452839,7.71552586 109.288681,12.1302348 C108.515929,12.383184 107.794077,12.7496595 107.140049,13.2075577 C106.298822,12.5808087 105.343686,12.1174173 104.313957,11.8708768 C103.709659,11.6616117 102.633065,11.3885208 101.124531,11.3885208 C99.0266698,11.3885208 96.8120364,11.8989968 94.5170816,12.9096165 C93.0360162,11.6523256 91.2732399,10.9426553 89.5094222,10.9426553 C86.4697038,10.9426553 83.8115449,12.6084055 82.3867176,15.0777338 C80.9040901,12.8922213 78.407225,11.4540469 75.581784,11.4540469 C73.4853547,11.4540469 71.5903148,12.1285345 70.1481735,13.3192529 C67.8575146,11.8111055 65.4162367,11.118438 62.5267468,11.118438 C54.1984392,11.118438 47.0985162,16.4989054 44.4861809,23.9811791 C44.4407479,23.8934186 44.3953148,23.8052657 44.3483196,23.7198593 C43.4196108,22.0292589 42.1735215,20.6549103 40.7246108,19.667833 C41.0711517,19.4354179 41.4015502,19.1703052 41.7139838,18.8731488 C43.3107798,17.3541457 44.2229556,15.3013858 44.2821878,13.096124 C44.3427218,10.8883772 43.5438031,8.78892505 42.031885,7.18477724 C36.9467681,1.79057685 29.7456947,1.09830173 24.0397463,1.09830173 C10.7842309,1.09830173 -6.50903294e-05,11.933264 -6.50903294e-05,25.2511567 C-6.50903294e-05,38.5687879 10.7842309,49.4034885 24.0397463,49.4034885 C32.5257027,49.4034885 39.5713403,45.6201063 43.8791485,38.7509793 C44.1885879,38.2576368 44.4613164,37.7550082 44.700979,37.2461016 C47.4722649,44.4221944 54.417403,49.5234236 62.5267468,49.5234236 C65.6307744,49.5234236 68.4499668,48.7715079 70.668115,47.3979441 C72.040089,48.6561505 73.7449349,49.3553576 75.581784,49.3553576 C78.4780433,49.3553576 81.0278919,47.8434172 82.4950279,45.5650434 C83.9440688,47.9326165 86.5458595,49.5153146 89.5094222,49.5153146 C94.0469992,49.5153146 97.7385321,45.8060906 97.7385321,41.2477735 L97.7385321,32.1436952 C97.7395736,32.0645669 97.7385321,31.9715747 97.7339758,31.854517 C97.6915369,30.8227093 97.7980247,29.0502339 98.9869647,28.77335 C99.3495178,28.6885976 100.320666,28.5897199 101.864738,28.5897199 C102.042695,28.5897199 102.186024,28.5911585 102.29082,28.5918125 L102.421391,28.5932512 C104.276075,28.5932512 105.988992,27.974742 107.368516,26.9332558 C107.959406,27.3183036 108.601457,27.6305009 109.283213,27.8542838 L109.283213,41.9749698 C109.283213,46.5335485 112.974616,50.2425108 117.512063,50.2425108 C122.0499,50.2425108 125.741694,46.5335485 125.741694,41.9749698 L125.741694,27.9071232 C126.824536,27.5772691 127.812868,27.0278174 128.656959,26.312 L128.656959,41.4714256 C128.656959,46.0302659 132.348102,49.7389667 136.886069,49.7389667 C141.423646,49.7389667 145.114919,46.0302659 145.114919,41.4714256 L145.114919,38.9245385 C148.430751,45.1632544 155.264194,49.87185 162.85685,49.9070327 C168.279526,49.9070327 173.426478,47.6705119 177.136367,43.8085244 C176.936409,45.491539 177.375118,47.2525049 178.461476,48.6854477 C180.663872,51.5899165 184.874696,52.2133957 187.742185,49.9703354 C188.743795,49.1871607 189.455232,48.1647699 189.861656,47.0445477 C192.172493,49.2029864 195.840333,50.4274488 198.916112,50.5068388 C202.082236,50.5887138 205.114794,49.4429873 207.484212,47.2748701 C210.581861,50.0216053 214.640764,51.5315838 218.943104,51.5315838 L218.985413,51.5315838 C224.61117,51.4035398 229.577302,49.2405233 232.968638,45.4407922 C236.526215,41.4546844 238.209321,35.8264995 237.714765,29.5817672 C240.350012,27.1192401 245.928904,19.4084751 244.754024,14.076531 L244.754024,14.076531 Z" id="Fill-5" fill="#231F20" mask="url(#mask-2)"></path>
                </g>
            </g>
        </g>
    </g>
</svg>