<svg id="Camada_1" data-name="Camada 1" xmlns="http://www.w3.org/2000/svg" viewBox="0 0 200 272"><defs><style>.cls-1{fill:#f9a928;}.cls-2{fill:#032e6f;}</style></defs><title>sprite_yellow_big_200px</title><path class="cls-1" d="M192.12,33.94c0-15-1.1-25.13-14.74-25.13L19.18,16.07C5.54,16.07,3.43,21.3,3.43,36.31,3.3,52.56,16.58,58.87,30.24,58.87L179,63.5C192.62,63.5,192.12,49,192.12,33.94Z"/><path class="cls-2" d="M190.74,59.3c3.39-5.72,3.39-14.53,3.38-23.79V33.94c0-12.72,0-27.13-16.82-27.13L19.18,14.07q-.87,0-1.68,0a29.14,29.14,0,0,1,7-.69L182.08,3c7.66,0,15.5,3.67,15.5,30.87C197.58,46.56,195.36,54.91,190.74,59.3ZM10.53,50.1C7.1,46.64,5.38,42,5.43,36.31c0-8.94.66-13.82,4.09-16.23C8.4,23.5,8.19,28.17,8.19,34.32c0,14.12,9.38,21.9,26.4,21.9l41.86,1.84L30.24,56.87C21.86,56.87,14.86,54.46,10.53,50.1Zm175.41,9C184.3,60.7,182,61.5,179,61.5l-67.65-2L34.62,55.22c-9.5,0-25.43-2.72-25.43-20.9,0-6.83.24-11.7,1.71-15,2-.88,4.7-1.24,8.35-1.24l158.13-7.26c9,0,12.74,3.21,12.74,23.13v1.57c0,10,0,19.34-4.18,23.55Zm12.64-25.19C198.58,18.11,196.62,2,182,2L24.45,12.41c-4.78,0-8.15.62-10.55,2C3.3,15.91,1.43,22.64,1.43,36.29c-.06,6.79,2.05,12.39,6.26,16.63,5.09,5.12,13.1,8,22.49,8L178.93,65.5H179a13.35,13.35,0,0,0,9.52-3.38c6.76-3.74,10.07-13.07,10.07-28.25Z"/><path class="cls-1" d="M192.62,102.44c0-15-1.1-25.13-14.74-25.13L20.68,84.57C7,84.57,3.93,89.8,3.93,104.81c-.13,16.25,13.15,22.56,26.81,22.56L179.49,132c13.63,0,13.13-14.54,13.13-29.56Z"/><path class="cls-2" d="M191.24,127.8c3.39-5.72,3.39-12.53,3.38-21.79v-3.57c0-12.72,0-27.13-16.82-27.13L20.68,82.57q-.87,0-1.68,0a29.14,29.14,0,0,1,7-.69L182.58,72.5c7.66,0,15.5,2.67,15.5,29.87C198.08,115.06,195.86,123.41,191.24,127.8ZM11,118.6c-3.43-3.46-5.15-8.09-5.1-13.79C5.93,95.87,7.59,91,11,88.58,9.9,92,7.69,96.67,7.69,102.82c0,14.12,10.38,21.9,27.4,21.9l41.86,1.84-46.21-1.19C22.36,125.37,15.36,123,11,118.6Zm174.41,9c-1.64,1.64-3.9,2.44-6.93,2.44l-66.65-2-76.74-4.25c-9.5,0-25.43-2.72-25.43-20.9,0-6.83,1.24-11.7,2.71-15,2-.88,4.7-1.24,8.35-1.24l155.13-6.26c9,0,14.74,2.21,14.74,22.13V104c0,9.95-1,19.34-5.18,23.55Zm13.64-25.19c0-15.76,0-30.87-14.53-30.87L25.95,80.91c-4.78,0-8.15.62-10.55,2C4.8,84.41.93,91.14.93,104.79c-.06,6.79,2,12.39,6.26,16.63,5.09,5.12,14.1,7.95,23.49,7.95L179.43,134h.06a13.35,13.35,0,0,0,9.52-3.38c6.76-3.74,10.07-13.07,10.07-28.25Z"/><path class="cls-1" d="M192.12,168.61c0-15-1.1-25.13-14.74-25.13l-158.2,7.26C5.54,150.74,3.43,156,3.43,171c-.13,16.25,13.15,22.56,26.81,22.56L179,198.17C192.62,198.17,192.12,183.63,192.12,168.61Z"/><path class="cls-2" d="M190.74,194c3.39-5.71,3.39-14.53,3.38-23.79v-1.56c0-7.39,0-27.13-16.82-27.13L19.18,148.74q-.87,0-1.68,0a29.14,29.14,0,0,1,7-.69l157.61-8.41c7.66,0,14.5,1.66,14.5,28.87,0,12.68-1.22,21-5.84,25.42Zm-180.21-8.2c-3.43-3.45-5.15-9.08-5.1-14.78,0-8.94,1.66-13.82,5.09-16.23A44.32,44.32,0,0,0,8.19,169c0,14.12,8.38,23.9,25.4,23.9l42.86-.16-46.21-.19C21.86,192.54,14.86,190.13,10.53,185.76Zm175.41,8c-1.64,1.63-3.9,2.43-6.93,2.44l-67.65-2-77.74-2.25c-9.5,0-24.43-4.72-24.43-22.9,0-6.83,1.24-8.7,2.71-12,2.34-3.65,7.37-5.25,8.35-5.25l152.13-5.25c9,0,17.74,2.21,17.74,22.13v1.57c0,9.94,0,19.34-4.18,23.55Zm12.64-25.19c0-15.76-2-29.87-16.53-29.87l-157.6,8.41c-4.78,0-8.15.62-10.55,2C3.3,150.57,1.43,157.31,1.43,171c-.06,6.79,2,12.38,6.26,16.62,5.09,5.13,13.1,8,22.49,8l148.75,4.63H179a13.39,13.39,0,0,0,9.52-3.38c6.76-3.74,10.07-13.08,10.07-28.25Z"/><path class="cls-1" d="M194.12,237.94c0-15-3.1-25.13-16.74-25.13l-158.2,7.26c-13.64,0-15.75,5.23-15.75,20.24-.13,16.25,13.16,22.56,26.81,22.56L178,267.5C191.63,267.5,194.12,253,194.12,237.94Z"/><path class="cls-2" d="M189.74,263.3a48.65,48.65,0,0,0,6.38-23.79v-1.57c0-12.72-4-27.13-20.82-27.13L19.18,218.07q-.87,0-1.68,0c1.88-.47,4.17-1.69,7-1.69L176.08,209c7.66,0,21.5,1.67,21.5,28.87C197.58,250.56,194.36,258.91,189.74,263.3ZM10.53,254.1c-3.43-3.46-5.15-8.09-5.1-13.79,0-8.94.66-13.82,4.09-16.23-.76,2.31-2.33,5.3-2.33,14.24,0,14.12,9.38,22.9,26.4,22.9l42.86.84-46.21-1.19C21.86,260.87,14.86,258.46,10.53,254.1Zm174.41,8c-1.64,1.64-3.9,2.44-6.93,2.44l-66.65-1-76.74-4.25c-9.5,0-25.43-2.72-25.43-20.9,0-6.83,1.24-10.7,2.71-14,2-2,3.7-2.24,7.35-2.24l155.13-5.26c2.95,0,10.61.78,13.48,4,6.72,7.52,4.26,18.7,4.26,18.7-1.54,13.49-3,18.34-7.18,22.55Zm13.64-24.19c0-15.76-5-30.87-19.53-29.87l-151.6,6.41c-7.54-.74-10.15,2.62-12.55,4-9,1.93-13.47,8.24-13.47,21.89-.06,6.79,1,12.39,5.26,16.63,5.09,5.12,14.1,8,23.49,8l147.75,4.63H178a13.35,13.35,0,0,0,9.52-3.38c6.76-3.74,11.07-13.07,11.07-28.25Z"/></svg>