<svg xmlns="http://www.w3.org/2000/svg" width="178" height="400" viewBox="0 0 178 400"><g fill="#15A745"><path fill-rule="evenodd" clip-rule="evenodd" d="M130.02 46.36c.27-.3.38-.65.29-.94a.685.685 0 0 0-.39-.39c-.31-4.29-.67-9.33-1.07-14.48a.64.64 0 0 0-.03-.49c-.35-4.47-.63-7.95-.92-11.29-.04-.45-.44-.71-1.08-.71-.28 0-.6.05-.9.14-2.69-.09-5.45-.14-8.45-.14-8.5 0-17.09.39-25.41.77l-.84.04-5.25.23c-9.6.4-17.46.86-24.73 1.42l-2.27.17c-4.47.32-9.08.65-13.41 1.84l-.05.02c-.13-.03-.26-.03-.39-.03-.96 0-2.01.52-2.04 1.29-.51 11.12-.17 22.44.16 33.39v.07c.23 7.64.47 15.55.41 23.31 0 .1.02.2.05.31.02.14.11.27.2.34.31.32.93.45 1.58.32l.91.1c.07 1.28.15 2.24.23 2.8l.08.53.53.01c.74.02 6.13.14 13.96.14 20.2 0 56.63-.79 71.24-6.17l-.22-.59c.2-.22.29-.47.26-.73-.97-10.54-1.73-21.07-2.45-31.28zm-.94 30.92c-14.04 1.84-29.14 2.92-46.17 3.3-3.88.08-8.41.18-12.89.18-8.81 0-15.97-.38-22.45-1.16-.13-3.27-.24-7.83-.31-12.95 1.42-.7 2.82-1.43 4.18-2.14 5.19-2.72 10.1-5.3 15.93-5.7 3.41.43 6.28 1.91 8.32 4.28 1.18 1.38 1.72 2.99 1.55 4.62-.19 1.74-1.16 3.38-2.76 4.63-.69.09-1.89.54-2.01 1.2-.03.13-.03.48.44.72.41.2.91.47 1.44.76 2.21 1.19 5.34 2.86 7.6 2.5 2.72-.44 5.45-2.5 7.86-4.32.63-.48 1.29-.98 1.9-1.41 4.16-2.89 9.05-6.36 13.74-10.16l.82-.67c2.54-2.09 4.94-4.06 8.21-4.06.52 0 1.05.04 1.6.14 3.26.6 6.41 2.51 9.46 4.36.76.46 1.55.93 2.33 1.38.4 5.33.8 10.07 1.21 14.5zM47 33.94c.67-.36 1.38-.56 2.05-.56.72 0 1.39.22 1.98.66 2.07 1.49.48 4.81-.06 5.78-.2.37-.12.65-.03.79.11.43.64.63 1.14.63.38 0 .74-.11.99-.31 1.04-.84 2.33-1 3.42-.41 1.57.85 1.12 2.94.86 3.81-.06.19-.05.38.05.53.07.13.2.24.36.3.12.19.42.41 1.07.32.38-.06.92-.09 1.52-.09 2.52 0 3.88.46 3.94.7 0 .01-.01.33-1.39.95-1.82.83-3.95 1.04-6.01 1.24l-.35.03c-1.53.15-3.19.23-4.91.23-1.43 0-2.94-.05-4.57-.16-.03-5.34-.06-10.4-.06-14.44zM78.22 63.3c-.82-1.49-2.08-2.77-3.69-3.78 5.35 1.38 10.8 4.36 15.66 7.01 1.03.57 2.01 1.1 2.95 1.61-2.8 2.01-5.42 3.8-8 5.48-.68.44-1.42.89-2.25 1.38-.23.13-.4.24-.52.34-2.17-.6-4.22-1.54-6.14-2.46 3.13-2.72 3.86-6.18 1.99-9.58zm48.37-17.89c-2.39.36-4.8.63-7.21.82l-.61.05c-1.25.11-2.81.24-4.38.24-3.12 0-5.35-.51-6.78-1.54 1.9-.72 3.46-1.02 5.29-1.02l.47.01c.31 0 .66-.12.98-.34.44-.14.76-.39.89-.67.08-.2.08-.41-.01-.6-.47-.95-1.05-2.7.3-3.68.45-.33 1.01-.49 1.67-.49.78 0 1.64.23 2.36.64.54.31 1.67-.02 2.1-.54.13-.15.2-.33.19-.5a.785.785 0 0 0-.18-.63c-1.3-1.65-2.5-3.98-.81-5.71.58-.61 1.41-.91 2.47-.91.85 0 1.64.21 2.19.39.42 5.39.81 10.8 1.07 14.48zM58.41 23.16c.88-.06 1.75-.12 2.61-.19 8.43-.67 16.85-1.08 24.71-1.42l4.79-.22.93-.04c8.28-.38 16.84-.78 25.24-.78 2.82 0 5.44.05 8 .13.22 2.49.43 5.12.66 8.03-2.18-.35-4.31.09-5.97 1.25-2.81 1.96-1.99 4.93-1.32 6.43l-.12-.01c-2.22 0-4.21.88-5.2 2.29-.69.98-.86 2.17-.51 3.45-2.32.17-4.56.77-7.21 1.94-.24.11-.68.4-.78.8-.05.22.01.43.16.61 2.31 2.77 6.71 2.84 9.91 2.88h.27l.77.01c3.35 0 6.97-.32 11.38-1.03l.88 12.1c-3.6-2.1-8.01-4.61-12.67-4.61-.83 0-1.65.07-2.46.23-3.8.73-6.82 3.29-9.74 5.78-.87.74-1.76 1.49-2.64 2.18-1.34 1.02-2.76 2.09-4.36 3.27-1.07-.59-2.16-1.19-3.31-1.84-6.98-3.91-14.89-8.34-22.66-8.34-.69 0-1.36.04-2.01.1-6.69.7-10.56 2.53-15.05 4.63-1.7.8-3.46 1.63-5.5 2.46-.06-4.17-.1-8.58-.13-12.87 1.87.14 4.06.29 6.37.29 7.59 0 12.22-1.63 14.17-4.98.12-.21.15-.43.08-.63-.09-.23-.3-.41-.6-.51-2.71-.96-4.7-1.27-6.92-1.11.29-1.82-.2-3.97-2.45-4.85-1.04-.4-2.25-.5-3.44-.26.55-1.75.89-4.55-1.73-6.21-.87-.55-1.87-.83-2.99-.83-.83 0-1.72.17-2.58.47l-.01-6.97h-.63c3.85-1.04 8.01-1.34 12.06-1.63zm-10.6 60.58c-.05-.5-.1-1.15-.14-1.94 6.16.65 12.87.95 21.39.95 3.74 0 7.37-.06 11.4-.12 15.77-.26 30.24-1.19 44.04-2.84-23.7 4.8-71.06 4.05-76.69 3.95z"/><path fill-rule="evenodd" clip-rule="evenodd" d="M79.1 45.08c.97 1.54 2.72 2.56 4.77 2.78.35.04.72.06 1.09.06 4.29 0 9.21-2.46 10.03-6.57.31-1.57.03-2.97-.82-4.16-1-1.4-2.81-2.48-5.05-3.03.3-.16.58-.4.58-.68-.01-.18-.09-.48-.86-.44-4.99.3-8.79 2.84-10.18 6.77-.67 1.89-.51 3.76.44 5.27zm1.84-4.26c.3-2.39 1.87-4.45 4.21-5.53l.08-.01c2.97 0 6.4 1.28 7.15 4.85.28 1.31-.02 2.58-.88 3.63-1.26 1.54-3.64 2.58-5.93 2.58-.39 0-.77-.03-1.13-.08-2.67-.48-3.78-3.1-3.5-5.44z"/><path d="M84.7 32.61l.07.11.08.04c.02.01.18.09.38.09.21 0 .39-.08.51-.23.13-.16.2-.38.2-.68v-.49c.01-1.12.02-2.97-.15-5.33-.04-.43-.39-1.25-1.54-1.25-.33.01-.6.13-.78.34-.4.48-.3 1.34-.13 2.4.29 1.83 1.33 4.93 1.36 5zm4.38 16.96l-.13-.4c-.19-.51-.53-.59-.71-.59-.3 0-.52.2-.6.27l-.07.11v.1c0 .02-.06 2.95.21 4.55.15.88.35 2.08 1.28 2.08.13 0 .27-.02.41-.08 1.05-.35 1.17-1.16 1.07-1.59-.54-2-1.11-3.53-1.46-4.45zm7.95-9.82l.48.02c.84.05 2.25.14 4.01.14.42 0 .86 0 1.31-.02.34 0 1.31-.27 1.34-1.47.01-.32-.08-.57-.26-.77-.24-.25-.64-.37-1.25-.37-.37 0-.81.04-1.19.09-1.74.19-4.67 1.01-5.04 1.11l-.12.07-.04.09c-.05.05-.21.39-.04.72.14.24.41.37.8.39zm-26.92 4.41c.1 0 .18-.01.2-.01 2.03-.44 3.58-.94 4.52-1.23l.4-.12c.41-.13.55-.36.6-.53.12-.39-.19-.73-.21-.76l-.11-.07-.09-.01c-.15-.01-1.45-.1-2.75-.1-.74 0-1.35.03-1.81.08-.9.11-1.67.24-2 .73-.1.16-.21.44-.09.87.31 1.07 1.1 1.15 1.34 1.15zm22.38-9.3c.24 0 .48-.14.71-.41.14-.18.19-.19.24-.2.25-.08.5-.15 1.59-1.66.2-.27.58-1.2-.37-1.97a1.03 1.03 0 0 0-.66-.25c-.69 0-1.2.77-1.8 1.77-.9 1.51-.56 2.12-.32 2.34.14.23.37.38.61.38zM81.03 47.61l-.12.03c-.11.04-1.15.49-2 1.93-.46.78-.82 1.47-.63 2.03.09.26.31.47.64.6.24.09.47.14.69.14.8 0 1.11-.61 1.15-.68.7-1.51.79-2.01.86-2.42.03-.18.06-.32.14-.54.11-.32.1-.58-.04-.78-.14-.2-.39-.31-.69-.31zm15.56-.25c.29.21.77.57 1.78 1.38 0 0 .34.28.84.28.42 0 .79-.18 1.13-.56.21-.24.31-.52.27-.8-.07-.62-.8-1.15-1.67-1.73-.89-.59-1.69-.72-2.2-.72-.49 0-.79.11-.82.12-.01.01-.41.15-.49.54-.05.27.06.54.35.82.38.34.49.43.81.67zM75.16 34.65c1.52.79 1.96.93 2.34 1.05.16.05.3.09.52.18.15.07.29.1.42.1.18 0 .35-.06.48-.19.2-.21.22-.5.22-.61l-.01-.07c-.03-.13-.39-1.28-1.8-2.21-.74-.48-1.25-.76-1.71-.76-.29 0-.67.11-.91.65-.49 1.1.16 1.72.45 1.86z"/><path fill-rule="evenodd" clip-rule="evenodd" d="M139.66 11.14c-.03-.67-.41-1.42-1.17-1.48l-1.32-.1.08-.7c-.15-.02-15.11-1.75-34.72-2.27-18.11-.48-44-.01-64.48 5l-.47.12-.02.48-.06 2.22c-1.04.24-2.09.5-3.13.77-.63.16-1.07.68-1.15 1.34-.02.13-.03.25-.03.37.28 10.28.64 21.14 1.07 32.32.13 3.31.19 6.68.26 9.96.18 9.72.36 19.75 2.14 29.19.1.57.58 1.04 1.11 1.11 16.23 2.12 33.01 3.2 49.89 3.2h.54c8.76.53 17.97.88 26.93.88 8.15 0 16.09-.29 23.32-1.01l.53-.06.23-3.16 2.35-.3c.86-.12 1.56-.95 1.53-1.8l-3.43-76.08zM38.82 12.71c20.27-4.86 45.77-5.33 63.66-4.85 6.97.18 13.35.52 18.68.88-5.87-.18-12.16-.27-19.07-.27h-.41c-19.3 0-41.64.71-62.9 5.63l.04-1.39zm-2.23 17.48l-.01-.28c-.08-3.92-.17-7.96-.28-11.92.37-.1.76-.18 1.14-.27-.16 8.75-.36 26.87.29 46.76-.62-11.48-.88-23-1.14-34.29zm101.2 61.13c-9.44.91-20.08 1.11-30.79.87 10.37-.5 20.7-1.4 30.92-2.71l-.13 1.84zm-47.93-2.25c-8.05 0-16.43-.22-24.9-.66-7.26-.38-14.5-.94-21.52-1.66-1.12-.12-2.25-.25-3.37-.38-1.88-27.73-1.58-57.28-1.36-68.96 20.25-4.77 41.61-5.55 61.75-5.65l3.13-.01c12.11 0 22.93.37 33.06 1.11l3.3 73.08c-15.79 2.08-32.64 3.13-50.09 3.13z"/><path d="M163.43 48.18c2.26-.1 4.55-.14 6.81.08 2.49.32 5.07 1.07 3.92 4.04-.31.83-1.3 1.37-2.16 1.23-2.38-.38-4.76-1.15-7.06-1.84-1.29-.38-5.1-1.05-3.83-3.25.26-.44 1.91-.25 2.32-.26zm-12.95 28.95h.03c.07-.01.15-.01.26.02 2.61.65 4.54 2.91 5.83 4.9.54.85.89 1.85.2 2.74-.73.96-2.56 1.13-3.59.68-.95-.42-1.35-1.34-1.82-2.13-.55-.88-1.06-1.8-1.38-2.79-.34-1.02-1.64-3.22.47-3.42zm6.62-57c-1.95 1.01-3.9 1.87-5.99 2.53-1.52.49-1.78-1.67-1.35-2.58.57-1.26 1.58-2.27 2.67-3.1 1.05-.81 2.81-2.13 4.22-1.55 1.61.66 2.01 3.81.45 4.7zM14.57 48.18c-2.26-.1-4.55-.14-6.81.08-2.49.32-5.07 1.07-3.93 4.04.32.83 1.3 1.37 2.17 1.23 2.38-.38 4.75-1.15 7.06-1.84 1.28-.38 5.1-1.05 3.83-3.25-.26-.44-1.91-.25-2.32-.26zm12.95 28.95h-.02a.605.605 0 0 0-.26.02c-2.62.65-4.55 2.91-5.84 4.9-.54.85-.89 1.85-.2 2.74.73.96 2.56 1.13 3.59.68.94-.42 1.35-1.34 1.82-2.13.55-.88 1.06-1.8 1.38-2.79.34-1.02 1.64-3.22-.47-3.42zm-6.62-57c1.95 1.01 3.9 1.87 5.99 2.53 1.51.49 1.77-1.67 1.36-2.58-.58-1.26-1.59-2.27-2.67-3.1-1.06-.81-2.82-2.13-4.23-1.55-1.62.66-2 3.81-.45 4.7z"/><path d="M14.57 48.18c-2.26-.1-4.55-.14-6.81.08-2.49.32-5.07 1.07-3.93 4.04.32.83 1.3 1.37 2.17 1.23 2.38-.38 4.75-1.15 7.06-1.84 1.28-.38 5.1-1.05 3.83-3.25-.26-.44-1.91-.25-2.32-.26zm12.95 28.95h-.02a.605.605 0 0 0-.26.02c-2.62.65-4.55 2.91-5.84 4.9-.54.85-.89 1.85-.2 2.74.73.96 2.56 1.13 3.59.68.94-.42 1.35-1.34 1.82-2.13.55-.88 1.06-1.8 1.38-2.79.34-1.02 1.64-3.22-.47-3.42zm-6.62-57c1.95 1.01 3.9 1.87 5.99 2.53 1.51.49 1.77-1.67 1.36-2.58-.58-1.26-1.59-2.27-2.67-3.1-1.06-.81-2.82-2.13-4.23-1.55-1.62.66-2 3.81-.45 4.7z"/></g><g fill="#15A745"><path fill-rule="evenodd" clip-rule="evenodd" d="M131.52 346.83c.27-.3.38-.65.29-.94a.685.685 0 0 0-.39-.39c-.31-4.29-.67-9.33-1.07-14.48a.64.64 0 0 0-.03-.49c-.35-4.47-.63-7.95-.92-11.29-.04-.45-.44-.71-1.08-.71-.28 0-.6.05-.9.14-2.69-.09-6.45-.14-9.45-.14-8.5 0-17.09.39-25.41.77l-.84.04-5.25.23c-9.6.4-17.46.86-24.73 1.42l-2.27.17c-4.47.32-9.08.65-13.41 1.84l-.05.02c-.13-.03-.26-.03-.39-.03-.96 0-3.01.52-3.04 1.29-.51 11.12 1.63 48.67 1.57 56.77 0 .1.02.2.05.3.02.15.11.28.2.35.31.32.93.45 1.58.31l.91.11c.07 1.28.15 2.24.23 2.8l.08.53.53.01c.74.01 6.13.14 13.96.14 20.2 0 56.63-.79 71.24-6.17l-.22-.59c.2-.22.29-.47.26-.73-.97-10.54-.73-21.07-1.45-31.28zm-1.94 30.92c-14.04 1.84-80.91 3.58-81.51 1.32-.19-.72-.24-6.83-.31-11.95 1.42-.7 2.82-1.43 4.18-2.14 5.19-2.72 10.1-4.3 15.93-4.7 3.41.43 6.28.91 8.32 3.28 1.18 1.38 1.72 2.99 1.55 4.61-.19 1.75-2.16 3.39-3.76 4.64-.69.09-1.89.54-2.01 1.19-.03.14.97.49 1.44.73.41.2.91.47 1.44.76 2.21 1.19 6.48 2.51 7.6 2.5 2.76 0 18.81-11.09 23.5-14.89l.82-.67c2.54-2.1 4.94-4.07 8.21-4.07.52 0 1.05.05 1.6.15 3.26.59 6.41 1.51 9.46 3.36.76.46 1.55.93 2.33 1.38.4 5.33.8 10.07 1.21 14.5zM46.5 334.41c.67-.36 1.38-.56 2.05-.56.72 0 1.39.22 1.98.65 2.07 1.5 1.48 4.82.94 5.79-.2.37-.12.65-.03.79.11.43.64.63 1.14.63.38 0 .74-.12.99-.31 1.04-.84 2.33-1 3.42-.41 1.57.85 1.12 2.94.86 3.8-.06.2-.05.39.05.54.07.13.2.24.36.3.12.19.42.41 1.07.32.38-.06.92-.09 1.52-.09 2.52 0 2.88.46 2.94.7 0 .01-.01.33-1.39.95-1.82.83-2.95 1.04-5.01 1.24l-.35.03c-1.53.15-3.19.23-4.91.23-1.43 0-3.94-.06-5.57-.16-.03-5.34-.06-10.4-.06-14.44zm32.22 29.36c-.82-1.49-2.08-2.77-3.69-3.78 6.26 1.61 10.36 4.66 14.66 7.01 1.03.57 3.01 1.1 3.95 1.61-2.8 2.01-5.42 3.8-8 5.47-.68.44-1.42.9-2.25 1.39-.23.13-.4.24-.52.34-2.17-.6-4.22-1.54-6.14-2.47 3.13-2.71 3.86-6.17 1.99-9.57zm48.37-17.89c-2.39.36-4.8.63-7.21.82l-.61.05c-1.25.1-2.81.24-4.38.24-3.12 0-4.35-.51-5.78-1.54 1.9-.72 2.46-1.02 4.29-1.02l.47.01c.31 0 .66-.12.98-.35.44-.13.76-.38.89-.66.08-.2.08-.41-.01-.6-.47-.95-1.05-2.7.3-3.68.45-.33 1.01-.49 1.67-.49.78 0 1.64.23 2.36.64.54.31 1.67-.02 2.1-.54.13-.15.2-.33.19-.5a.785.785 0 0 0-.18-.63c-1.3-1.65-2.5-4.98-.81-6.71.58-.61 1.41-.91 2.47-.91.85 0 1.64.21 2.19.39.42 5.38.81 11.8 1.07 15.48zm-68.18-22.25c.88-.06 1.75-.12 2.61-.19 8.43-.67 16.85-1.08 24.71-1.42l4.79-.22.93-.04c8.28-.38 16.84-.78 25.24-.78 2.82 0 5.44.05 8 .13.22 2.49.43 4.12.66 7.03-2.18-.35-4.31.09-5.97 1.25-2.81 1.96-1.99 5.93-1.32 7.43l-.12-.01c-2.22 0-4.21.88-5.2 2.29-.69.98-.86 2.17-.51 3.45-2.32.17-3.56.77-6.21 1.94-.24.11-.68.39-.78.8-.05.22.01.43.16.61 2.31 2.77 5.71 2.84 8.91 2.88h.27l.77.01c3.35 0 6.97-.32 11.38-1.03l.88 12.1c-3.6-2.11-8.01-4.61-12.67-4.61-.83 0-1.65.07-2.46.23-3.8.73-6.82 3.29-9.74 5.77-.87.75-1.76 1.5-2.64 2.19-1.34 1.02-2.76 2.09-4.36 3.27-1.07-.59-2.16-1.19-3.31-1.84-6.98-3.91-14.89-8.34-22.66-8.34-.69 0-1.36.04-2.01.1-6.69.7-10.56 3.53-15.05 5.63-1.7.8-4.46 2.63-6.5 3.46-.06-4.17-.1-10.58-.13-14.87 1.87.14 5.06.29 7.37.29 7.59 0 11.22-1.63 13.17-4.98.12-.21.15-.43.08-.63-.09-.23-.3-.41-.6-.52-2.71-.95-3.7-1.26-5.92-1.1.29-1.82-.2-3.97-2.45-4.85-1.04-.4-2.25-.5-3.44-.26.55-1.76-.11-4.55-2.73-6.21-.87-.55-1.87-.83-2.99-.83-.83 0-1.72.16-2.58.47l-.01-6.97h.37c3.85-1.04 8.01-1.34 12.06-1.63zm-10.6 60.57c-.05-.49-.1-1.14-.14-1.93 6.16.65 12.87.95 21.39.95 3.74 0 7.37-.06 11.4-.12 15.77-.26 30.24-1.19 44.04-2.84-23.7 4.8-71.06 4.05-76.69 3.94z"/><path fill-rule="evenodd" clip-rule="evenodd" d="M79.6 345.54c.97 1.55 2.72 2.57 4.77 2.79.35.04.72.06 1.09.06 4.29 0 9.21-2.46 10.03-6.57.31-1.57.03-2.97-.82-4.16-1-1.4-2.81-2.48-5.05-3.03.3-.17.58-.4.58-.68-.01-.18-.09-.48-.86-.44-4.99.3-8.79 2.83-10.18 6.77-.67 1.89-.51 3.76.44 5.26zm2.84-4.25c.3-2.39.87-3.45 3.21-4.53l.08-1.01c2.97 0 6.4 1.28 7.15 4.85.28 1.31-.02 2.57-.88 3.63-1.26 1.54-2.64 2.58-4.93 2.58-.39 0-.77-.03-1.13-.09-2.67-.47-3.78-3.09-3.5-5.43z"/><path d="M85.2 331.08l.07.11.08.04c.02.01.18.09.38.09.21 0 .39-.08.51-.23.13-.16.2-.38.2-.68v-.49c.01-1.12.02-.98-.15-3.33-.04-.43-.39-1.25-1.54-1.25-.33.01-.6.13-.78.34-.4.48-.3 1.33-.13 2.4.29 1.83 1.33 2.93 1.36 3zm4.38 18.96l-.13-.4c-.19-.51-.53-.6-.71-.6-.3 0-.52.21-.6.28l-.07.11v.09c0 .03-.06 3.96.21 5.56.15.87.35 1.08 1.28 1.08.13 0 .27-.02.41-.08 1.05-.35 1.17-1.16 1.07-1.59-.54-2-1.11-3.53-1.46-4.45zm7.95-9.82l.48.02c.84.05 2.25.13 4.01.13.42 0 .86 0 1.31-.01.34 0 1.31-.27 1.34-1.48.01-.31-.08-.56-.26-.76-.24-.25-.64-.37-1.25-.37-.37 0-.81.04-1.19.08-1.74.2-4.67 1.01-5.04 1.12l-.12.06-.04.09c-.05.06-.21.4-.04.73.14.24.41.37.8.39zm-25.92 4.41c.1 0 .18-.01.2-.01 2.03-.44 2.58-.94 3.52-1.23l.4-.13c.41-.13.55-.35.6-.52.12-.4-.19-.73-.21-.76l-.11-.07-.09-.01c-.15-.01-.45-.1-1.75-.1-.74 0-1.35.03-1.81.08-.9.11-1.67.24-2 .72-.1.17-.21.45-.09.88.31 1.07 1.1 1.15 1.34 1.15zm22.38-10.3c.24 0 .48-.14.71-.41.14-.18.19-.19.24-.2.25-.08.5-.15 1.59-1.66.2-.27.58-1.2-.37-1.97a1.03 1.03 0 0 0-.66-.25c-.69 0-1.2.77-1.8 1.77-.9 1.5-.56 2.12-.32 2.33.14.24.37.39.61.39zm-12.46 14.75l-.12.03c-.11.04-1.15.49-2 1.93-.46.78-.82 1.47-.63 2.03.09.26.31.47.64.6.24.09.47.14.69.14.8 0 1.11-.62 1.15-.68.7-1.51.79-2.01.86-2.42.03-.18.06-.32.14-.54.11-.32.1-.58-.04-.78-.14-.2-.39-.31-.69-.31zm15.56-1.25c.29.21.77.57 1.78 1.38 0 0 .34.28.84.28.42 0 .79-.18 1.13-.56.21-.24.31-.52.27-.8-.07-.62-.8-1.15-1.67-1.73-.89-.6-1.69-.73-2.2-.73-.49 0-.79.12-.82.13-.01 0-.41.15-.49.54-.05.27.06.54.35.82.38.34.49.43.81.67zm-21.43-12.71c1.52.79 1.96.93 2.34 1.05.16.04.3.09.52.18.15.07.29.1.42.1.18 0 .35-.06.48-.2.2-.2.22-.49.22-.6l-.01-.07c-.03-.13-.39-2.28-1.8-3.21-.74-.48-1.25-.76-1.71-.76-.29 0-.67.11-.91.65-.49 1.1.16 2.72.45 2.86z"/><path fill-rule="evenodd" clip-rule="evenodd" d="M140.16 310.61c-.03-.67-.41-1.42-1.17-1.48l-1.32-.1.08-.7c-.15-.02-15.11-1.75-34.72-2.27-18.11-.48-44 .99-64.48 6l-.47.11-.02.49-.06 2.22c-1.04.24-2.09.49-3.13.77-.63.16-1.07.68-1.15 1.34-.02.13-.03.25-.03.37.28 10.27 2.69 63.03 4.47 72.47.1.57.58 1.04 1.11 1.1 16.23 2.13 32.01 2.21 48.89 2.21h.54c8.76.53 17.97.88 26.93.88 8.15 0 15.09-.29 22.32-1.02l.53-.05.23-3.16 2.35-.3c.86-.12 1.56-.96 1.53-1.8l-2.43-77.08zm-100.84 2.57c20.27-4.86 45.77-5.33 63.66-4.85 6.97.18 13.35.52 18.68.88-5.87-.19-12.16-.28-19.07-.28h-.41c-19.3.01-41.64.72-62.9 5.64l.04-1.39zm-2.23 17.48l-.01-.28c-.08-3.92-.17-7.96-.28-11.92.37-.1.76-.18 1.14-.27-.16 8.75-.36 26.87.29 46.76-.62-11.48-.88-23-1.14-34.29zm100.2 61.13c-9.44.91-19.08 1.11-29.79.87 10.37-.5 19.7-1.41 29.92-2.71l-.13 1.84zm-46.93-2.25c-8.05 0-16.43-.22-24.9-.66-7.26-.38-14.5.06-21.52-.66-1.12-.12-2.25-.25-3.37-.38-1.88-27.73-1.58-58.28-1.36-69.96 20.25-4.77 41.61-5.55 61.75-5.65l3.13-.01c12.11 0 22.93.37 33.06 1.11l2.3 73.08c-15.79 2.08-31.64 3.13-49.09 3.13z"/><path d="M164.93 348.65c2.26-.1 2.55-.14 4.81.08 2.49.32 5.07 1.07 3.92 4.04-.31.82-1.3 1.37-2.16 1.23-2.38-.38-3.76-1.15-6.06-1.84-1.29-.38-4.1-1.05-2.83-3.25.26-.44 1.91-.25 2.32-.26zm-12.95 29.95h.03c.07-.01.15-.01.26.02 2.61.65 3.54 1.91 4.83 3.9.54.85.89 1.85.2 2.74-.73.96-2.56 1.13-3.59.68-.95-.42-1.35-1.34-1.82-2.13-.55-.88-1.06-1.8-1.38-2.79-.34-1.02-.64-2.22 1.47-2.42zm6.62-58c-1.95 1.01-4.9 1.86-6.99 2.53-1.52.49-1.78-1.67-1.35-2.58.57-1.26 2.58-2.27 3.67-3.1 1.05-.81 2.81-2.13 4.22-1.55 1.61.65 2.01 3.81.45 4.7zM14.07 347.65c-2.26-.1-3.55-.14-5.81.08-2.49.32-5.07 2.07-3.93 5.04.32.82 1.3 1.37 2.17 1.23 2.38-.38 3.75-1.15 6.06-1.84 1.28-.38 5.1-2.05 3.83-4.25-.26-.44-1.91-.25-2.32-.26zm13.95 29.95H28a.605.605 0 0 0-.26.02c-2.62.65-5.55 2.91-6.84 4.9-.54.85-.89 1.85-.2 2.74.73.96 2.56 1.13 3.59.68.94-.42 1.35-1.34 1.82-2.13.55-.88 1.06-1.8 1.38-2.79.34-1.02 2.64-3.22.53-3.42zm-6.62-57c1.95 1.01 3.9 1.86 5.99 2.53 1.51.49 1.77-1.67 1.36-2.58-.58-1.26-1.59-2.27-2.67-3.1-1.06-.81-2.82-1.13-4.23-.55-1.62.65-2 2.81-.45 3.7z"/><path d="M14.07 347.65c-2.26-.1-3.55-.14-5.81.08-2.49.32-5.07 2.07-3.93 5.04.32.82 1.3 1.37 2.17 1.23 2.38-.38 4.75-1.15 7.06-1.84 1.28-.38 4.1-2.05 2.83-4.25-.26-.44-1.91-.25-2.32-.26zm7.33-27.05c1.95 1.01 3.9 1.86 5.99 2.53 1.51.49 1.77-1.67 1.36-2.58-.58-1.26-1.59-1.27-2.67-2.1-1.06-.81-2.82-2.13-4.23-1.55-1.62.65-2 2.81-.45 3.7z"/></g><g fill="#15A745"><path fill-rule="evenodd" clip-rule="evenodd" d="M129.53 146.36c.27-.3.38-.65.29-.94a.654.654 0 0 0-.39-.39c-.31-4.29-.66-9.33-1.06-14.48.05-.17.04-.33-.04-.49-.35-4.47-.62-7.95-.92-11.29-.04-.45-.44-.71-1.08-.71-.28 0-.59.05-.89.14-2.69-.09-5.46-.14-8.45-.14-8.5 0-17.1.39-25.42.77l-.84.04-5.24.23c-9.61.4-17.46-.14-24.73.42l-2.27.17c-4.47.32-9.09.65-13.41 1.84l-.06.02c-.12-.03-.25-.03-.39-.03-.95 0-2 .52-2.03 1.29-.52 11.12.82 23.44 1.16 34.39v.07c.23 7.64.46 15.55.41 23.31 0 .1.01.2.04.31.02.14.11.27.21.34.31.32-.07.45.58.31l.91.11c.06 1.28.15 2.24.23 2.8l.08.53.53.01c.74.01 5.76 1.04 13.6 1.04 20.19 0 58.16-3.17 71.59-7.07l-.22-.59c.2-.22.29-.47.27-.73-.98-10.54-1.73-21.07-2.46-31.28zm-.94 30.92c-14.04 1.84-29.14 1.92-46.16 2.3-3.88.08-8.1-.39-12.58-.39-8.81 0-16.28.19-22.77-.59-.13-3.27-.24-6.83-.31-11.95 1.43-.7 2.83-1.43 4.19-2.14 5.19-2.72 10.09-5.3 15.93-5.7 3.4.43 6.27 1.91 8.31 4.28 1.19 1.38 1.65 2.98 1.55 4.62-.24 3.98-3.64 5.17-3.77 5.83-.02.13-.03.48.44.72.42.2.91.47 1.44.76 2.22 1.19 5.65 2.34 6.61 2.5 2.71.47 5.44-2.5 7.85-4.32.64-.48 1.3-.98 1.91-1.41 4.68-3.25 9.49-6.72 13.73-10.16l.82-.67c2.54-2.09 5.95-4.07 9.21-4.07.52 0 1.06.05 1.6.15 3.27.59 5.42 2.51 8.46 4.36.76.46 1.55.93 2.33 1.38.41 5.33.81 10.07 1.21 14.5zm-82.08-43.34c.68-.36 1.39-.56 2.05-.56.73 0 1.39.22 1.99.66 2.07 1.49 1.47 4.81.93 5.78-.2.37-.12.65-.03.79.12.43-.36.63.14.63.38 0 .74-.11.99-.31 1.05-.84 2.33-1 3.42-.41 1.57.85 1.13 2.94.87 3.81-.06.19-.05.38.05.53.07.13.19.24.35.3.13.19.43.41 1.07.32.38-.06.92-.09 1.52-.09 2.53 0 3.89.46 3.94.7 0 .01-.01.33-1.38.95-1.83.83-3.96 1.04-6.02 1.24l-.35.03c-1.53.15-3.19.23-4.91.23-1.43 0-2.94-.05-4.56-.16-.04-5.34-.06-10.4-.07-14.44zm31.23 29.36c-.82-1.49-2.08-2.77-3.7-3.78 5.36 1.38 11.78 3.69 16.64 6.34 1.03.56 2.03.77 2.97 1.28-2.8 2.01-6.42 4.8-8.99 6.48-.68.43-1.43.89-2.26 1.38-.22.13-.39.24-.52.34-2.17-.6-4.21-1.54-6.13-2.46 3.13-2.72 3.85-6.18 1.99-9.58zm48.36-17.89c-2.38.36-4.8.63-7.2.82l-.61.05c-1.25.1-2.82.24-4.39.24-3.12 0-5.34-.51-6.78-1.54 1.9-.72 3.47-1.02 5.3-1.02l.46.01c.31 0 .66-.12.99-.35.44-.13-.25-.38-.11-.66.08-.2.08-.41-.01-.6-.47-.95-.05-2.7 1.3-3.68.45-.33 1.01-.49 1.67-.49.77 0 1.63.23 2.36.64.54.31.67-.02 1.1-.54.13-.15.19-.33.19-.5a.823.823 0 0 0-.18-.63c-1.31-1.65-1.5-3.98.18-5.71.59-.61 1.42-.91 2.48-.91.84 0 1.63.21 2.19.39.41 5.38.8 10.8 1.06 14.48zm-68.18-23.25c.88-.06 1.75-.12 2.62-.19 8.42-.67 16.85-.08 24.71-.42l4.78-.22.94-.04c8.28-.38 16.83-.78 25.24-.78 2.81 0 5.43.05 8 .13.22 2.49.43 5.12.66 8.03-2.19-.35-4.7-.13-6.36 1.02-2.81 1.97-1.61 5.16-.94 6.66l-.12-.01c-2.21 0-4.21.88-5.19 2.29-.7.98-.87 2.17-.52 3.45-2.32.17-4.56.77-7.2 1.94-.25.11-.68.4-.78.8-.05.22.01.43.15.61 2.31 2.77 6.71 2.84 9.92 2.88h.27l.76.01c3.36 0 6.98-.32 11.38-1.03l.88 12.1c-3.6-2.1-6.01-5.61-10.67-5.61-.83 0-1.65.07-2.45.23-3.81.73-17.15 10.05-18.74 11.23-1.08-.59-18.2-9.18-25.98-9.18-.68 0-1.36.04-2 .1-6.69.7-10.57 1.53-15.05 3.63-1.71.8-3.46 1.63-5.51 2.46-.05-4.17-.1-6.58-.13-10.87 1.88.14 4.07.29 6.38.29 7.58 0 12.22-2.63 14.17-5.98.11-.21.15-.43.07-.63-.09-.23-.3-.41-.59-.52-2.71-.95-4.71-1.26-6.93-1.1.29-1.82-.19-3.97-2.45-4.85-1.03-.4-2.25-.5-3.43-.26.55-1.75.88-4.55-1.74-6.21-.86-.55-1.86-.83-2.99-.83-.83 0-1.71.17-2.58.47v-.97l-.64-7c3.85-1.04 8.02-1.34 12.06-1.63zm-10.59 61.57c-.05-.49-.1-1.14-.14-1.93 6.16.65 12.87.95 21.38.95 3.75 0 7.38-.06 11.41-.12 15.77-.26 30.23-1.19 44.04-2.84-23.71 4.8-71.06 4.05-76.69 3.94z"/><path fill-rule="evenodd" clip-rule="evenodd" d="M78.61 145.07c.98 1.55 2.92 3.01 4.98 3.23.35.04.71.06 1.09.06 4.28 0 9.01-2.9 9.82-7.01.31-1.57.03-2.97-.82-4.16-.99-1.4-2.81-2.48-5.05-3.03.3-.17.59-.4.58-.68-.01-.18-.09-.48-.86-.44-4.98.3-8.79 2.84-10.18 6.77-.67 1.89-.5 3.76.44 5.26zm.85-4.25c.29-2.39 3.04-3.88 5.39-4.96 2.97 0 6.3.7 7.05 4.27.27 1.31-.03 2.58-.88 3.63-1.27 1.54-3.65 2.58-5.94 2.58-.39 0-.76-.03-1.12-.09-2.67-.47-4.79-3.09-4.5-5.43z"/><path d="M84.21 132.61l.07.11.09.04a.8.8 0 0 0 .38.09c.2 0 .38-.08.5-.23.13-.16.21-.38.21-.68v-.49c.01-1.12.01-1.98-.16-4.33-.03-.43-.39-1.25-1.54-1.25-.33.01-.6.13-.78.34-.4.48-.3 1.34-.13 2.4.29 1.83 1.34 3.93 1.36 4zm5.39 16.96l-.14-.4c-.19-.51-.52-.6-.71-.6-.29 0-.52.21-.59.28l-.08.11v.09c0 .03-.05 1.96.22 3.56.14.87.35 2.08 1.28 2.08.13 0 .26-.02.41-.08 1.04-.35 1.16-1.16 1.07-1.59-.55-2-1.12-2.53-1.46-3.45zm6.94-9.82l.48.02c.84.05 1.25.13 3.01.13.42 0 .86 0 1.32-.01.33 0 1.3-.27 1.33-1.47.01-.32-.08-.57-.26-.77-.24-.25-.64-.37-1.25-.37-.37 0-.81.04-1.18.09-1.74.19-3.67 1.01-4.05 1.11l-.12.06-.04.09c-.04.06-.2.4-.03.73.13.24.4.37.79.39zM71.12 144c.1 0 .18-.01.21-.02 2.02-.44 3.58-.94 4.51-1.23l.4-.12c.41-.13.56-.36.61-.53.11-.39-.19-.72-.22-.76l-.11-.07-.09-.01c-.15-.01-1.44-.1-2.74-.1-.74 0-1.35.04-1.82.08-.89.11-1.67.24-1.99.73-.11.16-.21.45-.09.87.31 1.07 1.1 1.16 1.33 1.16zM92 133.86c.25 0 .48-.14.71-.41.15-.18.2-.19.24-.2.26-.08 1.5-1.15 2.59-2.66.21-.27.59-1.2-.36-1.97-.22-.17-.43-.25-.66-.25-.7 0-1.21.77-1.81 1.77-.9 1.5-1.55 3.12-1.32 3.33.15.24.38.39.61.39zm-11.45 13.75l-.12.03c-.12.04-.9.94-1.75 2.39-.46.78-1.08 1.01-.88 1.57.09.26.31.47.63.6.24.09.47.14.69.14.8 0 1.11-.61 1.15-.68.7-1.51.79-2.01.86-2.42.04-.18.06-.32.14-.54.12-.32.1-.58-.04-.78-.14-.2-.38-.31-.68-.31zm15.55-.25c.29.21.77.57 1.78 1.38 0 0 .34.28.85.28.41 0 .79-.18 1.12-.56.22-.24.32-.52.28-.8-.08-.62-.8-1.15-1.67-1.73-.9-.6-1.7-.72-2.21-.72-.49 0-.79.11-.81.12-.02 0-.42.15-.5.54-.05.27.07.54.36.82.37.34.49.43.8.67zm-21.42-12.71c1.51.79 1.95.93 2.33 1.05.16.05.31.09.53.18.14.07.29.1.41.1.19 0 .36-.06.48-.19.2-.21.22-.5.22-.61l-.01-.07c-.03-.13-.39-1.28-1.8-2.21-.74-.48-1.25-.76-1.71-.76-.28 0-.66.11-.91.65-.49 1.1.17 1.72.46 1.86z"/><path fill-rule="evenodd" clip-rule="evenodd" d="M140.17 111.14c-.02-.67-1.41-2.42-2.17-2.48l-1.31-.1.08-.7c-.16-.02-15.12-.75-34.72-1.27-18.12-.48-44-.01-64.49 5l-.47.12-.01.48-.06 2.22c-1.04.24-2.09.49-3.14.77-.63.16-2.06.68-2.14 1.34-.03.13-.04.25-.04.37.29 10.27 4.48 58.97 5.2 71.7.03.57.57 1.04 1.11 1.1 16.23 2.13 32.28 2.98 49.16 2.98h.54c8.77.53 17.98.88 26.93.88 8.15 0 16.1-.29 23.32-1.01l.53-.06.23-3.16 2.36-.3c.85-.12 1.56-.95 1.53-1.8l-2.44-76.08zm-101.84 1.57c20.28-4.86 45.78-5.33 63.67-4.85 6.97.18 13.34.52 18.67.88-5.87-.19-12.15-.28-19.06-.28h-.42c-19.29.01-41.64.72-62.89 5.64l.03-1.39zm-2.22 17.48l-.01-.28c-.11-4.96-.2-8.82-.29-11.92.38-.1.76-.18 1.14-.27-.16 8.75-.35 26.87.3 46.76-.63-11.48-.89-23-1.14-34.29zm101.2 61.13c-9.45.91-20.09 1.11-30.79.87 10.37-.5 20.7-1.4 30.92-2.71l-.13 1.84zm-97.73-4.95s-1.58-57.28-1.36-68.96c20.25-4.77 41.61-5.55 61.75-5.65l3.14-.01c12.11 0 22.92.37 33.06 1.11l3.29 74.08c-15.78 2.08-66.28 2.75-99.88-.57z"/></g><path d="M169.35 147.86c2.49.33 5.48 1.47 4.33 4.44-.32.82-1.3 1.37-2.17 1.23-2.37-.38-4.75-1.15-7.05-1.84-1.29-.38-4.82-1.66-2.83-3.25 1.55-1.25 5.45-.8 7.72-.58zM150 177.13h.02c.07-.01.16-.01.26.02 2.61.65 4.61 2.39 5.9 4.38.54.84.83 2.37.13 3.26-.73.96-2.56 1.13-3.59.68-.94-.42-2.87-2.93-3.2-3.92-.34-1.02-1.64-4.22.48-4.42zm6.62-57c-1.95 1.01-3.9 1.87-6 2.53-1.51.49-1.77-1.67-1.35-2.58.57-1.26 1.58-2.27 2.67-3.1 1.05-.81 3.82-2.53 5.24-1.95 3.16 1.29 2.11 3.58-.56 5.1zM14.09 147.18c-2.21-.52-3.56-.14-5.82.08-2.49.32-5.06 2.07-3.92 5.04.32.82 1.3 1.37 2.16 1.23 2.39-.38 3.85-.9 6.07-1.84 4.52-1.91 3.02-4.16 1.51-4.51zm12.95 29.95h-.03a.605.605 0 0 0-.26.02c-2.62.65-5.55 2.91-6.83 4.9-.55.85-.89 1.85-.21 2.74.74.96 3.57 1.13 4.59.68.95-.42 1.35-1.34 1.83-2.13.54-.88 1.05-1.8 1.38-2.79.33-1.02 1.64-3.22-.47-3.42zm-6.62-57c1.94 1.01 3.9 1.87 5.98 2.53 1.52.49 1.78-1.67 1.36-2.58-.58-1.26-1.59-1.27-2.67-2.1-1.06-.81-2.81-2.13-4.22-1.55-1.62.65-2.01 2.81-.45 3.7z" fill="#15A745"/><path fill="#15A745" d="M20.42 120.13c1.94 1.01 3.9 1.87 5.98 2.53 1.52.49 1.78-.67 1.36-1.58-.58-1.26-1.59-2.27-2.67-3.1-1.06-.81-2.81-2.13-4.22-1.55-1.62.65-2.01 2.81-.45 3.7z"/><g fill="#15A745"><path fill-rule="evenodd" clip-rule="evenodd" d="M130.02 246.36c.27-.3.38-.65.29-.93a.67.67 0 0 0-.39-.4c-.31-4.29-.67-9.33-1.07-14.48a.64.64 0 0 0-.03-.49c-.35-4.47-.63-7.95-.92-11.29-.04-.45-.44-.71-1.08-.71-.28 0-.6.05-.9.14-2.69-.09-5.45-.14-8.45-.14-8.5 0-17.09.39-25.41.77l-.84.04-5.25.23c-9.6.4-17.46.86-24.73 1.42l-2.27.17c-4.47.32-9.08.65-13.41 1.84l-.05.02c-.13-.03-.26-.03-.39-.03-.96 0-2.01.52-2.04 1.29-.51 11.12-.17 22.44.16 33.39v.07c.23 7.64.47 15.55.41 23.31 0 .1.02.2.05.31.02.14.11.27.2.34.31.32.93.45 1.58.32l.91.1c.07 1.28.15 2.24.23 2.8l.08.53.53.01c.74.02 6.13.14 13.96.14 20.2 0 56.63-.79 71.24-6.16l-.22-.6c.2-.22.29-.47.26-.73-.97-10.54-1.73-21.07-2.45-31.28zm-.94 30.92c-14.04 1.84-29.14 2.92-46.17 3.3-3.88.08-8.41.18-12.89.18-8.81 0-15.97-.38-22.45-1.16-.13-3.27-.24-7.83-.31-12.95 1.42-.7 2.82-1.43 4.18-2.14 5.19-2.72 10.1-5.3 15.93-5.7 3.41.43 6.28 1.91 8.32 4.28 1.18 1.38 1.72 2.99 1.55 4.62-.19 1.74-1.16 3.38-2.76 4.63-.69.09-1.89.54-2.01 1.2-.03.13-.03.48.44.72.41.2.91.47 1.44.76 2.21 1.19 5.34 2.86 7.6 2.5 2.72-.43 5.45-2.5 7.86-4.32.63-.48 1.29-.98 1.9-1.41 4.16-2.89 9.05-6.36 13.74-10.16l.82-.67c2.54-2.09 4.94-4.06 8.21-4.06.52 0 1.05.04 1.6.14 3.26.6 6.41 2.51 9.46 4.36.76.46 1.55.93 2.33 1.38.4 5.33.8 10.07 1.21 14.5zM47 233.94c.67-.36 1.38-.56 2.05-.56.72 0 1.39.22 1.98.66 2.07 1.49.48 4.81-.06 5.78-.2.37-.12.65-.03.79.11.44.64.63 1.14.63.38 0 .74-.11.99-.31 1.04-.84 2.33-1 3.42-.41 1.57.85 1.12 2.94.86 3.81-.06.19-.05.38.05.53.07.13.2.24.36.31.12.18.42.4 1.07.31.38-.05.92-.09 1.52-.09 2.52 0 3.88.46 3.94.7 0 .01-.01.33-1.39.96-1.82.82-3.95 1.03-6.01 1.23l-.35.04c-1.53.14-3.19.22-4.91.22-1.43 0-2.94-.05-4.57-.16-.03-5.34-.06-10.4-.06-14.44zm31.22 29.36c-.82-1.49-2.08-2.77-3.69-3.78 5.35 1.38 10.8 4.36 15.66 7.01 1.03.57 2.01 1.1 2.95 1.61-2.8 2.01-5.42 3.8-8 5.48-.68.44-1.42.89-2.25 1.38-.23.13-.4.25-.52.34-2.17-.6-4.22-1.54-6.14-2.46 3.13-2.71 3.86-6.18 1.99-9.58zm48.37-17.89c-2.39.36-4.8.63-7.21.82l-.61.05c-1.25.11-2.81.24-4.38.24-3.12 0-5.35-.51-6.78-1.54 1.9-.72 3.46-1.02 5.29-1.02l.47.01c.31 0 .66-.12.98-.34.44-.14.76-.39.89-.67.08-.2.08-.41-.01-.6-.47-.95-1.05-2.7.3-3.68.45-.33 1.01-.49 1.67-.49.78 0 1.64.23 2.36.64.54.31 1.67-.02 2.1-.54.13-.15.2-.33.19-.5a.785.785 0 0 0-.18-.63c-1.3-1.65-2.5-3.98-.81-5.71.58-.61 1.41-.91 2.47-.91.85 0 1.64.21 2.19.39.42 5.39.81 10.8 1.07 14.48zm-68.18-22.25c.88-.06 1.75-.12 2.61-.19 8.43-.67 16.85-1.08 24.71-1.42l4.79-.22.93-.04c8.28-.38 16.84-.78 25.24-.78 2.82 0 5.44.05 8 .13.22 2.49.43 5.12.66 8.03-2.18-.35-4.31.09-5.97 1.25-2.81 1.96-1.99 4.93-1.32 6.43l-.12-.01c-2.22 0-4.21.88-5.2 2.29-.69.98-.86 2.17-.51 3.45-2.32.17-4.56.77-7.21 1.94-.24.11-.68.4-.78.8-.05.22.01.43.16.61 2.31 2.77 6.71 2.84 9.91 2.89h1.04c3.35 0 6.97-.32 11.38-1.03l.88 12.11c-3.6-2.11-8.01-4.62-12.67-4.62-.83 0-1.65.07-2.46.23-3.8.73-6.82 3.29-9.74 5.78-.87.74-1.76 1.49-2.64 2.18-1.34 1.02-2.76 2.09-4.36 3.27-1.07-.58-2.16-1.19-3.31-1.84-6.98-3.91-14.89-8.33-22.66-8.33-.69 0-1.36.03-2.01.09-6.69.7-10.56 2.53-15.05 4.63-1.7.8-3.46 1.63-5.5 2.46-.06-4.17-.1-8.58-.13-12.87 1.87.14 4.06.29 6.37.29 7.59 0 12.22-1.63 14.17-4.98.12-.21.15-.43.08-.63-.09-.23-.3-.41-.6-.51-2.71-.96-4.7-1.27-6.92-1.11.29-1.82-.2-3.97-2.45-4.84-1.04-.41-2.25-.51-3.44-.27.55-1.75.89-4.55-1.73-6.21-.87-.55-1.87-.83-2.99-.83-.83 0-1.72.17-2.58.47l-.01-6.97h-.63c3.85-1.04 8.01-1.34 12.06-1.63zm-10.6 60.58c-.05-.5-.1-1.15-.14-1.94 6.16.65 12.87.95 21.39.95 3.74 0 7.37-.06 11.4-.12 15.77-.26 30.24-1.19 44.04-2.84-23.7 4.8-71.06 4.05-76.69 3.95z"/><path fill-rule="evenodd" clip-rule="evenodd" d="M79.1 245.08c.97 1.54 2.72 2.56 4.77 2.78.35.04.72.06 1.09.06 4.29 0 9.21-2.46 10.03-6.57.31-1.57.03-2.97-.82-4.16-1-1.4-2.81-2.48-5.05-3.03.3-.16.58-.4.58-.68-.01-.18-.09-.48-.86-.44-4.99.3-8.79 2.84-10.18 6.77-.67 1.89-.51 3.76.44 5.27zm1.84-4.26c.3-2.39 1.87-4.45 4.21-5.53l.08-.01c2.97 0 6.4 1.28 7.15 4.85.28 1.31-.02 2.58-.88 3.63-1.26 1.54-3.64 2.59-5.93 2.59-.39 0-.77-.04-1.13-.09-2.67-.48-3.78-3.1-3.5-5.44z"/><path d="M84.7 232.61l.07.11.08.04c.02.01.18.09.38.09.21 0 .39-.08.51-.23.13-.16.2-.38.2-.68v-.49c.01-1.12.02-2.97-.15-5.33-.04-.43-.39-1.25-1.54-1.25-.33.01-.6.13-.78.34-.4.48-.3 1.34-.13 2.4.29 1.83 1.33 4.93 1.36 5zm4.38 16.96l-.13-.4c-.19-.51-.53-.59-.71-.59-.3 0-.52.2-.6.27l-.07.11v.1c0 .02-.06 2.95.21 4.55.15.88.35 2.08 1.28 2.08.13 0 .27-.02.41-.08 1.05-.35 1.17-1.16 1.07-1.59-.54-2-1.11-3.53-1.46-4.45zm7.95-9.82l.48.02c.84.05 2.25.14 4.01.14.42 0 .86 0 1.31-.02.34 0 1.31-.27 1.34-1.47.01-.32-.08-.57-.26-.77-.24-.25-.64-.37-1.25-.37-.37 0-.81.05-1.19.09-1.74.19-4.67 1.01-5.04 1.11l-.12.07-.04.09c-.05.05-.21.39-.04.72.14.24.41.37.8.39zm-26.92 4.41c.1 0 .18 0 .2-.01 2.03-.44 3.58-.94 4.52-1.23l.4-.12c.41-.13.55-.36.6-.53.12-.39-.19-.73-.21-.76l-.11-.07-.09-.01c-.15-.01-1.45-.1-2.75-.1-.74 0-1.35.03-1.81.08-.9.11-1.67.24-2 .73-.1.16-.21.44-.09.87.31 1.07 1.1 1.15 1.34 1.15zm22.38-9.3c.24 0 .48-.14.71-.41.14-.18.19-.19.24-.2.25-.08.5-.15 1.59-1.66.2-.27.58-1.2-.37-1.97a1.03 1.03 0 0 0-.66-.25c-.69 0-1.2.77-1.8 1.77-.9 1.51-.56 2.12-.32 2.34.14.23.37.38.61.38zm-11.46 12.75l-.12.03c-.11.04-1.15.49-2 1.93-.46.78-.82 1.47-.63 2.03.09.26.31.47.64.6.24.09.47.14.69.14.8 0 1.11-.61 1.15-.68.7-1.51.79-2.01.86-2.42.03-.18.06-.32.14-.54.11-.32.1-.58-.04-.78-.14-.2-.39-.31-.69-.31zm15.56-.25c.29.21.77.57 1.78 1.38 0 0 .34.28.84.28.42 0 .79-.18 1.13-.56.21-.24.31-.52.27-.8-.07-.61-.8-1.15-1.67-1.73-.89-.59-1.69-.72-2.2-.72-.49 0-.79.11-.82.12-.01.01-.41.15-.49.54-.05.27.06.54.35.82.38.34.49.43.81.67zm-21.43-12.71c1.52.79 1.96.93 2.34 1.05.16.05.3.09.52.18.15.07.29.1.42.1.18 0 .35-.06.48-.19.2-.21.22-.5.22-.61l-.01-.07c-.03-.13-.39-1.28-1.8-2.21-.74-.48-1.25-.76-1.71-.76-.29 0-.67.11-.91.65-.49 1.1.16 1.72.45 1.86z"/><path fill-rule="evenodd" clip-rule="evenodd" d="M139.66 211.14c-.03-.67-.41-1.42-1.17-1.48l-1.32-.1.08-.7c-.15-.02-15.11-1.75-34.72-2.27-18.11-.48-44-.01-64.48 5l-.47.12-.02.48-.06 2.22c-1.04.24-2.09.5-3.13.77-.63.16-1.07.68-1.15 1.34-.02.13-.03.25-.03.37.28 10.28.64 21.14 1.07 32.32.13 3.31.19 6.68.26 9.97.18 9.71.36 19.74 2.14 29.18.1.57.58 1.04 1.11 1.11 16.23 2.12 33.01 3.2 49.89 3.2h.54c8.76.53 17.97.88 26.93.88 8.15 0 16.09-.29 23.32-1.01l.53-.06.23-3.16 2.35-.3c.86-.11 1.56-.95 1.53-1.8l-3.43-76.08zm-100.84 1.57c20.27-4.86 45.77-5.33 63.66-4.85 6.97.18 13.35.52 18.68.88-5.87-.19-12.16-.27-19.07-.27h-.41c-19.3 0-41.64.71-62.9 5.63l.04-1.39zm-2.23 17.48l-.01-.28c-.08-3.92-.17-7.96-.28-11.92.37-.1.76-.18 1.14-.27-.16 8.75-.36 26.87.29 46.76-.62-11.48-.88-23-1.14-34.29zm101.2 61.13c-9.44.91-20.08 1.11-30.79.87 10.37-.5 20.7-1.4 30.92-2.71l-.13 1.84zm-47.93-2.25c-8.05 0-16.43-.22-24.9-.66-7.26-.38-14.5-.94-21.52-1.66-1.12-.12-2.25-.25-3.37-.38-1.88-27.73-1.58-57.28-1.36-68.96 20.25-4.77 41.61-5.55 61.75-5.65l3.13-.01c12.11 0 22.93.37 33.06 1.11l3.3 73.08c-15.79 2.08-32.64 3.13-50.09 3.13z"/><path d="M163.43 248.18c2.26-.1 4.55-.14 6.81.08 2.49.32 5.07 1.07 3.92 4.04-.31.83-1.3 1.37-2.16 1.23-2.38-.38-4.76-1.15-7.06-1.84-1.29-.38-5.1-1.05-3.83-3.25.26-.44 1.91-.25 2.32-.26zm-12.95 28.95h.03c.07 0 .15 0 .26.02 2.61.65 4.54 2.91 5.83 4.9.54.85.89 1.85.2 2.74-.73.96-2.56 1.13-3.59.68-.95-.42-1.35-1.34-1.82-2.12-.55-.89-1.06-1.81-1.38-2.8-.34-1.02-1.64-3.22.47-3.42zm6.62-57c-1.95 1.01-3.9 1.87-5.99 2.53-1.52.49-1.78-1.66-1.35-2.58.57-1.26 1.58-2.27 2.67-3.1 1.05-.81 2.81-2.13 4.22-1.55 1.61.65 2.01 3.81.45 4.7zM14.57 248.18c-2.26-.1-4.55-.14-6.81.08-2.49.32-5.07 1.07-3.93 4.04.32.83 1.3 1.37 2.17 1.23 2.38-.38 4.75-1.15 7.06-1.84 1.28-.38 5.1-1.05 3.83-3.25-.26-.44-1.91-.25-2.32-.26zm12.95 28.95h-.02c-.07 0-.16 0-.26.02-2.62.65-4.55 2.91-5.84 4.9-.54.85-.89 1.85-.2 2.74.73.96 2.56 1.13 3.59.68.94-.42 1.35-1.34 1.82-2.12.55-.89 1.06-1.81 1.38-2.8.34-1.02 1.64-3.22-.47-3.42zm-6.62-57c1.95 1.01 3.9 1.87 5.99 2.53 1.51.49 1.77-1.66 1.36-2.58-.58-1.26-1.59-2.27-2.67-3.1-1.06-.81-2.82-2.13-4.23-1.55-1.62.65-2 3.81-.45 4.7z"/><path d="M14.57 248.18c-2.26-.1-4.55-.14-6.81.08-2.49.32-5.07 1.07-3.93 4.04.32.83 1.3 1.37 2.17 1.23 2.38-.38 4.75-1.15 7.06-1.84 1.28-.38 5.1-1.05 3.83-3.25-.26-.44-1.91-.25-2.32-.26zm12.95 28.95h-.02c-.07 0-.16 0-.26.02-2.62.65-4.55 2.91-5.84 4.9-.54.85-.89 1.85-.2 2.74.73.96 2.56 1.13 3.59.68.94-.42 1.35-1.34 1.82-2.12.55-.89 1.06-1.81 1.38-2.8.34-1.02 1.64-3.22-.47-3.42zm-6.62-57c1.95 1.01 3.9 1.87 5.99 2.53 1.51.49 1.77-1.66 1.36-2.58-.58-1.26-1.59-2.27-2.67-3.1-1.06-.81-2.82-2.13-4.23-1.55-1.62.65-2 3.81-.45 4.7z"/></g></svg>