<svg id="Camada_1" data-name="Camada 1" xmlns="http://www.w3.org/2000/svg" viewBox="0 0 180 200"><defs><style>.cls-1{fill:#16b7ff;}.cls-2{fill:#032e6f;}</style></defs><title>sprite_blue_big_180</title><path class="cls-1" d="M6.11,25.15c0-10.84,1.56-17.38,13.37-17.38l143.83,3.72c11.81,0,13.64,4.53,13.64,15.37.05,12.85-11.4,16.29-23.21,16.29L18.09,44.21C6.27,44.21,6.11,36,6.11,25.15Z"/><path class="cls-2" d="M19.44,9.77C9.69,9.77,8.11,14.3,8.11,25.15c0,11.52.43,17.06,10,17.06l135.64-1.06c8.33,0,14.51-1.79,17.88-5.18,2.26-2.27,3.36-5.25,3.34-9.1,0-10.37-1.53-13.38-11.64-13.38ZM18.09,46.21c-14,0-14-10.71-14-21.06S5.29,5.77,19.48,5.77L163.36,9.49c13.17,0,15.59,5.85,15.59,17.37a16.18,16.18,0,0,1-4.5,11.93c-4.21,4.22-11.17,6.36-20.71,6.36L18.1,46.21Z"/><path class="cls-2" d="M149.93,40.37,16.75,43.71C6.31,43.71,2,38.31,2,25.1,2,14,3.67,3.71,15.39,3.71l143.36,6c12,0,13.14,4.31,13.14,15.71,0,13-13.75,15-22,15Zm8.84-31.66-143.36-6c-5.8,0-9.71,2.3-12,7C1.32,14.2,1,20.29,1,25.1c0,9.69,1.87,19.61,15.7,19.61h0l133.18-3.34c14.8,0,22.95-5.67,22.95-16C172.89,13.8,171.55,8.71,158.77,8.71Z"/><path class="cls-1" d="M6.11,176.28c0-10.84,1.56-17.38,13.37-17.38l143.83,3.72c11.81,0,13.64,4.53,13.64,15.37.05,12.85-11.4,16.29-23.21,16.29L18.09,195.34C6.27,195.34,6.11,187.12,6.11,176.28Z"/><path class="cls-2" d="M19.44,160.9c-9.75,0-11.33,4.53-11.33,15.38,0,11.52,4.43,17.06,14,17.06l131.64-.06c8.33,0,14.51-2.79,17.88-6.18,2.27-2.27,3.36-5.25,3.34-9.1,0-10.37-1.52-14.38-11.64-14.38Zm1.65,36.44c-14,0-17-10.71-17-21.06S5.29,156.9,19.48,156.9l143.88,3.72c13.18,0,15.59,5.85,15.59,17.37,0,4.89-1.49,8.91-4.5,11.93-4.2,4.22-11.17,6.36-20.71,6.36L22.11,197.34h-1Z"/><path class="cls-2" d="M149.93,191.5,16.75,194.84c-10.44,0-14.7-5.4-14.7-18.61,0-11.11,4.62-21.39,16.35-21.39l140.35,7c12,0,13.42,5.83,13.14,15.71C171.53,190.55,158.14,191.5,149.93,191.5Zm8.84-30.66-140.36-7c-5.8,0-10.24,1.83-14,7-2.88,4-3.4,10.56-3.4,15.37,0,9.7,1.87,19.61,15.7,19.61h0l133.18-3.34c14.8,0,22.95-4.67,22.95-14.95C172.89,165.93,171.56,160.84,158.77,160.84Z"/><path class="cls-1" d="M6.11,125.95c0-10.84,1.56-17.38,13.37-17.38l143.83,3.72c11.81,0,13.64,4.53,13.64,15.37C177,140.51,165.55,144,153.74,144L18.09,145c-11.82,0-12-8.22-12-19.06Z"/><path class="cls-2" d="M22.44,110.57c-9.75,0-15.33,4.53-15.33,15.38,0,11.52,1.43,17.06,11,17.06l135.64-1.06c8.33,0,14.51-1.79,17.88-5.18,2.26-2.27,3.36-5.25,3.34-9.1,0-10.37-1.53-14.38-11.64-14.38ZM18.09,147c-14,0-14-10.71-14-21.06s3.18-19.38,17.37-19.38l141.88,2.72c13.17,0,15.59,6.85,15.59,18.37a13.92,13.92,0,0,1-4.5,10.93c-4.21,4.22-11.17,6.36-20.71,6.36L18.1,147Z"/><path class="cls-2" d="M149.93,141.17,16.75,144.51C6.31,144.51,2,139.12,2,125.9c0-11.11,1.62-21.39,14.34-21.39l143.36,5c11,0,13.14,5.31,13.14,16.71,0,13-14.75,15-23,15Zm8.84-32.66-142.36-5c-5.8,0-10.71,2.3-13,7C1.32,115,1,121.09,1,125.9c0,9.7,1.87,19.61,15.7,19.61h0l133.18-3.34c14.8,0,23.95-5.66,23.95-15.95C173.89,114.6,171.55,108.51,158.77,108.51Z"/><path class="cls-1" d="M7.11,75.79c0-10.84,1.56-17.38,13.37-17.38l143.83,3.72c11.81,0,13.64,4.53,13.64,15.37.05,12.85-11.4,16.29-23.21,16.29L19.09,94.85C7.27,94.85,7.11,86.63,7.11,75.79Z"/><path class="cls-2" d="M21.44,61.41c-9.75,0-12.33,3.54-12.33,14.38,0,11.52,3.43,16.06,13,16.06l132.64.94c8.33,0,14.51-1.79,17.88-5.17,2.26-2.28,3.36-6.25,3.34-10.11,0-10.36-1.53-14.38-11.64-14.38ZM19.09,96.85c-14,0-14-10.7-14-21.06,0-10.21,1.18-19.38,15.37-19.38l143.88,2.72c13.17,0,14.59,6.85,14.59,18.37,0,4.9-1.5,8.92-4.5,11.94-4.21,4.22-13.17,6.35-22.71,6.35L19.11,96.85Z"/><path class="cls-2" d="M154.93,91,18.75,94.35C9.92,94.35,2,89,2,75.74c0-11.1,2.62-22.39,14.34-22.39l143.36,7c12,0,13.14,4.31,13.14,15.71,0,13-9.75,14.95-18,14.95Zm4.84-31.66-144.36-7c-5.8,0-9.71,3.3-12,8C1.32,64.84,1,70.94,1,75.74c0,.93,0,19.61,16.7,19.61h0L154.94,92c14.8,0,18.95-5.66,18.95-15.95C173.89,64.45,172.55,59.35,159.77,59.35Z"/></svg>