<?xml version="1.0" encoding="UTF-8"?>
<svg width="65px" height="59px" viewBox="0 0 65 59" version="1.1" xmlns="http://www.w3.org/2000/svg" xmlns:xlink="http://www.w3.org/1999/xlink">
    <!-- Generator: Sketch 60 (88103) - https://sketch.com -->
    <title>Group 9</title>
    <desc>Created with Sketch.</desc>
    <defs>
        <polygon id="path-1" points="0.699512346 0.144390541 64.9516111 0.144390541 64.9516111 59 0.699512346 59"></polygon>
    </defs>
    <g id="Welcome" stroke="none" stroke-width="1" fill="none" fill-rule="evenodd">
        <g id="Desktop-HD-Copy" transform="translate(-946.000000, -408.000000)">
            <g id="Group-9" transform="translate(946.000000, 408.000000)">
                <path d="M63,25.1430267 C63,11.8091014 49.3448276,1 32.500401,1 C15.6551724,1 2,11.8091014 2,25.1430267 C2,38.476952 15.6551724,49.2860534 32.500401,49.2860534 C34.8556536,49.2860534 37.1483561,49.0727106 39.3504411,48.6716903 C39.7489976,48.5995067 40.1427426,48.763925 40.3744988,49.0959698 C42.2943063,51.8525834 45.2566159,54.9019419 49.6984763,56.9054393 C50.5292702,57.2799923 51.4057739,56.4779517 51.0938252,55.6213723 C50.3263833,53.5136095 49.1756215,50.1185716 48.3480353,46.6473398 C48.2373697,46.1861664 48.4699278,45.7161706 48.893344,45.5020258 C57.3744988,41.2143166 63,33.699196 63,25.1430267" id="Fill-26" fill="#71C9FF"></path>
                <path d="M51.5128239,53.4314219 C51.2402485,53.6035498 50.8917357,53.6603921 50.5448216,53.5034755 C46.11727,51.5043894 44.7631858,47.6599315 42.8495627,44.908286 C42.6185531,44.576039 42.2260765,44.4127176 41.8288039,44.4847712 C39.6338126,44.8850688 34.9504718,45.0972265 32.6028064,45.0972265 C16.3202237,45.0972265 3.82811761,35.7518794 3.03756904,23 C3.0135888,23.3978958 3,23.7981934 3,24.2008927 C3,37.5099863 16.611184,48.299607 33.4021477,48.299607 C35.7498131,48.299607 38.03513,48.0874493 40.2301212,47.6871518 C40.6273939,47.6150982 41.0198705,47.7784196 41.2508801,48.1106666 C43.1645032,50.8623121 46.11727,53.9061748 50.5448216,55.9052609 C51.3729392,56.2799394 52.2466193,55.4793443 51.9356755,54.6243087 C51.8053829,54.265642 51.6623008,53.8581391 51.5128239,53.4314219" id="Fill-28" fill="#48A1BC"></path>
                <path d="M47.5857095,43.4294754 C47.1530595,43.6455743 46.9154298,44.1198587 47.0276893,44.5852402 C47.1424071,45.0595247 47.2628608,45.5313811 47.388231,46 C47.4505063,45.948201 47.5111429,45.8947833 47.5857095,45.8575528 C56.2518192,41.5307189 62,33.9470238 62,25.3127805 C62,24.8716798 61.9827923,24.4346259 61.9541129,24 C61.4813117,32.1680524 55.8757087,39.2904128 47.5857095,43.4294754" id="Fill-30" fill="#48A1BC"></path>
                <g id="Group-34">
                    <mask id="mask-2" fill="white">
                        <use xlink:href="#path-1"></use>
                    </mask>
                    <g id="Clip-33"></g>
                    <path d="M39.8600062,47.5182014 C40.7106235,47.5182014 41.5251296,47.9304041 42.021858,48.6384041 C44.0095741,51.4727959 46.5020432,53.6924716 49.4463025,55.2503905 C48.6984012,53.1128365 47.8060556,50.3318635 47.1231543,47.4863095 C46.8398827,46.3110932 47.4088333,45.1047824 48.5066111,44.55385 C56.7937099,40.3919581 61.7417346,33.3582014 61.7417346,25.7392284 C61.7417346,13.3843095 48.7706235,3.33357973 32.8255617,3.33357973 C16.8813025,3.33357973 3.90938889,13.3843095 3.90938889,25.7392284 C3.90938889,38.09335 16.8813025,48.1440797 32.8255617,48.1440797 C35.0379691,48.1440797 37.2479691,47.9479446 39.3929691,47.5596608 C39.5486481,47.5317554 39.7059321,47.5182014 39.8600062,47.5182014 M50.4646358,59.0000797 C50.0971049,59.0000797 49.7263642,58.9235392 49.3756852,58.7664716 C45.4564259,57.010823 42.1703148,54.3191473 39.6024136,50.7616068 C37.382784,51.1411203 35.1053765,51.3332689 32.8255617,51.3332689 C15.1110556,51.3332689 0.699512346,39.8513905 0.699512346,25.7392284 C0.699512346,11.6262689 15.1110556,0.144390541 32.8255617,0.144390541 C50.5400679,0.144390541 64.9516111,11.6262689 64.9516111,25.7392284 C64.9516111,34.4600662 59.5044506,42.4521743 50.3546975,47.1960932 C51.1451296,50.373323 52.1883395,53.4397284 52.9402531,55.4911743 C53.3029691,56.4814176 53.0357469,57.5832824 52.2589568,58.2984581 C51.759821,58.7592959 51.1170432,59.0000797 50.4646358,59.0000797" id="Fill-32" fill="#012442" mask="url(#mask-2)"></path>
                </g>
                <path d="M43.4010745,17 L21.5989255,17 C20.7155192,17 20,16.328 20,15.5 C20,14.672 20.7155192,14 21.5989255,14 L43.4010745,14 C44.2836814,14 45,14.672 45,15.5 C45,16.328 44.2836814,17 43.4010745,17" id="Fill-35" fill="#012442"></path>
                <path d="M46.4037512,26 L17.5962488,26 C16.7151195,26 16,25.328 16,24.5 C16,23.672 16.7151195,23 17.5962488,23 L46.4037512,23 C47.2848805,23 48,23.672 48,24.5 C48,25.328 47.2848805,26 46.4037512,26" id="Fill-37" fill="#012442"></path>
                <path d="M43.4010745,37 L21.5989255,37 C20.7155192,37 20,36.328 20,35.5 C20,34.672 20.7155192,34 21.5989255,34 L43.4010745,34 C44.2836814,34 45,34.672 45,35.5 C45,36.328 44.2836814,37 43.4010745,37" id="Fill-39" fill="#012442"></path>
                <path d="M57.6773905,27 C57.6573492,27 57.6355653,27 57.615524,26.9992206 C56.8940393,26.9680449 56.3372413,26.4209104 56.3712243,25.7755723 C56.4296053,24.6516864 56.3163287,23.5270211 56.0340086,22.4335316 C55.8710646,21.8045608 56.3093578,21.1763694 57.012544,21.0306227 C57.7183443,20.8840967 58.4180451,21.2776906 58.5801178,21.905882 C58.9173335,23.2090284 59.052394,24.548027 58.981814,25.8862462 C58.9495737,26.5120995 58.3709917,27 57.6773905,27" id="Fill-41" fill="#FFFFFF"></path>
                <path d="M55.819354,20 C55.4098759,20 55.0129972,19.793437 54.7940839,19.4260446 C53.04514,16.4762338 50.1504449,13.8968645 46.6446825,12.1612781 C46.0627512,11.8739193 45.8328135,11.1848679 46.1296851,10.6223459 C46.4273442,10.0598238 47.140781,9.83877857 47.7195625,10.1253752 C51.6285033,12.0599022 54.8681049,14.9578816 56.8430492,18.2865182 C57.1674819,18.834558 56.9729798,19.5335183 56.4067976,19.847555 C56.221745,19.9512176 56.0193683,20 55.819354,20" id="Fill-43" fill="#FFFFFF"></path>
            </g>
        </g>
    </g>
</svg>