<?xml version="1.0" encoding="UTF-8"?>
<svg width="30px" height="33px" viewBox="0 0 30 33" version="1.1" xmlns="http://www.w3.org/2000/svg" xmlns:xlink="http://www.w3.org/1999/xlink">
    <!-- Generator: Sketch 60.1 (88133) - https://sketch.com -->
    <title>Group 8 Copy</title>
    <desc>Created with Sketch.</desc>
    <defs>
        <polygon id="path-1" points="0 0.327837931 29.947756 0.327837931 29.947756 33 0 33"></polygon>
    </defs>
    <g id="Welcome" stroke="none" stroke-width="1" fill="none" fill-rule="evenodd">
        <g id="Artboard" transform="translate(-554.000000, -865.000000)">
            <g id="Group-8-Copy" transform="translate(554.000000, 865.000000)">
                <path d="M28.9745381,6.94785652 C28.9900366,6.77782188 29,6.60554994 29,6.43215935 C29,3.43082419 26.5932967,1 23.6242174,1 C23.019774,1 22.4407925,1.105153 21.8983433,1.29084873 L3.0974958,9.89885248 C1.33508933,10.7266527 0.10184761,12.4896435 0.00221407849,14.5569068 L0,18.418483 C0.0907772179,20.4958141 1.32844709,22.2688727 3.0974958,23.1000289 L21.8983433,31.7080326 C22.4407925,31.8937283 23.019774,32 23.6242174,32 C26.5932967,32 29,29.5680572 29,26.5678406 C29,26.4112298 28.9745381,6.94785652 28.9745381,6.94785652" id="Fill-1" fill="#001B4D"></path>
                <g id="Group-5">
                    <mask id="mask-2" fill="white">
                        <use xlink:href="#path-1"></use>
                    </mask>
                    <g id="Clip-4"></g>
                    <path d="M24.0497798,1.46576897 C23.531119,1.46576897 23.0135595,1.55566552 22.5103155,1.73204483 L3.85725,10.4679414 C2.24620833,11.2417345 1.18906548,12.8701138 1.10207143,14.7169759 L1.10097024,18.6155276 C1.17915476,20.4453207 2.2385,22.0816655 3.86275595,22.8634241 L22.559869,31.6163897 C23.0135595,31.7734241 23.531119,31.8621828 24.0497798,31.8621828 C26.6948393,31.8621828 28.8465655,29.6386655 28.8465655,26.9053552 C28.8465655,26.7483207 28.8212381,6.94718276 28.8212381,6.94718276 L28.8234405,6.89483793 C28.837756,6.73894138 28.8465655,6.5819069 28.8465655,6.42259655 C28.8465655,3.68928621 26.6948393,1.46576897 24.0497798,1.46576897 M24.0497798,33.0001138 C23.4099881,33.0001138 22.7735,32.8897345 22.1557321,32.6735276 L3.40245833,23.8978034 C1.40049405,22.9339759 0.0977857143,20.9209759 -0.000220238095,18.6405621 L0.00198214286,14.6873897 C0.108797619,12.3921828 1.41040476,10.3894241 3.39805357,9.43356207 L22.1050774,0.676044828 C22.7735,0.438217241 23.4099881,0.327837931 24.0497798,0.327837931 C27.3015952,0.327837931 29.947756,3.06228621 29.947756,6.42259655 C29.947756,6.60921724 29.9378452,6.79242414 29.9224286,6.97335517 C29.9224286,7.77673448 29.947756,26.7517345 29.947756,26.9053552 C29.947756,30.2668034 27.3015952,33.0001138 24.0497798,33.0001138" id="Fill-3" fill="#001B4D" mask="url(#mask-2)"></path>
                </g>
                <path d="M4.72328666,17.210568 C4.84266765,17.265189 4.96094326,17.3095686 5.07369197,17.3425688 L5.25718497,17.4062933 L22.9532056,25.7473778 C22.9907885,25.761033 23.0239499,25.7724124 23.0560059,25.7860677 L23.1742815,25.8315852 L23.1941783,25.8384128 C23.5003685,25.945379 23.8109801,26 24.119381,26 C25.7078113,26 27,24.6697506 27,23.0345339 C27,22.8422224 26.9745763,6.49346923 26.9745763,6.49346923 L26.9745763,6.37284781 L26.9856301,6.25108846 C26.9933677,6.15663962 27,6.06105284 27,5.96546606 C27,4.33024936 25.7078113,3 24.119381,3 C23.8109801,3 23.5003685,3.05462102 23.1941783,3.16044924 L22.8924097,3.27765684 L5.07811349,11.6540174 C4.96094326,11.6892935 4.84156227,11.734811 4.72218128,11.789432 L4.67133382,11.8133287 C3.65659543,12.3003661 3,13.3540966 3,14.5 C3,15.6459034 3.65659543,16.6996339 4.67133382,17.1866713 L4.72328666,17.210568 Z" id="Fill-6" fill="#FFBA02"></path>
            </g>
        </g>
    </g>
</svg>