<?xml version="1.0" encoding="UTF-8"?>
<svg width="61px" height="61px" viewBox="0 0 61 61" version="1.1" xmlns="http://www.w3.org/2000/svg" xmlns:xlink="http://www.w3.org/1999/xlink">
    <!-- Generator: Sketch 60.1 (88133) - https://sketch.com -->
    <title>Group 38</title>
    <desc>Created with Sketch.</desc>
    <defs>
        <polygon id="path-1" points="0.0004575 0.215025 60.7854325 0.215025 60.7854325 61 0.0004575 61"></polygon>
    </defs>
    <g id="Welcome" stroke="none" stroke-width="1" fill="none" fill-rule="evenodd">
        <g id="Desktop-HD-Copy-18" transform="translate(-37.000000, -892.000000)">
            <g id="Group-11-Copy" transform="translate(15.000000, 859.000000)">
                <g id="Group-38" transform="translate(22.000000, 33.000000)">
                    <path d="M57,30.5003801 C57,45.1360644 45.1362345,57 30.5007602,57 C15.8645257,57 4,45.1360644 4,30.5003801 C4,15.8639356 15.8645257,4 30.5007602,4 C45.1362345,4 57,15.8639356 57,30.5003801" id="Fill-1" fill="#E8B564"></path>
                    <g id="Group-5">
                        <mask id="mask-2" fill="white">
                            <use xlink:href="#path-1"></use>
                        </mask>
                        <g id="Clip-4"></g>
                        <path d="M30.392945,0.21479625 C13.6339575,0.21479625 0.0004575,13.8490587 0.0004575,30.6072837 C0.0004575,47.3662712 13.6339575,61.0005337 30.392945,61.0005337 C47.1519325,61.0005337 60.7854325,47.3662712 60.7854325,30.6072837 C60.7854325,13.8490587 47.1519325,0.21479625 30.392945,0.21479625 M30.392945,4.02729625 C45.072595,4.02729625 56.9729325,15.9276337 56.9729325,30.6072837 C56.9729325,45.2869337 45.072595,57.1880337 30.392945,57.1880337 C15.7125325,57.1880337 3.8129575,45.2869337 3.8129575,30.6072837 C3.8129575,15.9276337 15.7125325,4.02729625 30.392945,4.02729625" id="Fill-3" fill="#002043" mask="url(#mask-2)"></path>
                    </g>
                    <path d="M30,3.4885 C30.3353606,3.4885 30.6672459,3.5035 31,3.5145 C30.6672459,3.5025 30.3353606,3.4855 30,3.4855 C29.6637706,3.4855 29.3318853,3.5025 29,3.5145 C29.3318853,3.5035 29.6637706,3.4885 30,3.4885" id="Fill-6" fill="#CC9544"></path>
                    <path d="M30.5003801,53.714681 C16.283575,53.714681 4.68419467,41.9034874 4.03116887,29 C4.01216346,29.4180478 4,29.8383968 4,30.2618141 C4,45.0292579 15.8639356,57 30.5003801,57 C45.1360644,57 57,45.0292579 57,30.2618141 C57,29.8383968 56.9885968,29.4180478 56.9688311,29 C56.3158053,41.9034874 44.716425,53.714681 30.5003801,53.714681" id="Fill-8" fill="#CC9544"></path>
                    <path d="M16.4379721,16 C14.2372089,17.1502681 12.0964099,18.3864711 10.0716455,19.7866604 C10.0506191,19.8789026 10.0163539,19.9648376 10,20.0578682 C10.4579083,21.5968149 10.946188,23.1215705 11.4648392,24.6337118 C12.1587104,25.3172501 13.0433767,25.8029013 14.0292812,26 C15.5922436,25.4843898 17.1918075,25.0547146 18.735301,24.4578997 C19.0997586,22.9118575 19.5818083,21.4091769 20,19.8568275 C19.608286,17.9977925 18.2221011,16.5266477 16.4379721,16" id="Fill-10" fill="#593A11"></path>
                    <path d="M37.335353,23.6100456 C36.4541623,22.9838307 35.4686512,22.5248129 34.5234457,22 C32.8582719,22.1904189 31.1994204,22.4032855 29.5555848,22.6742066 C29.4030558,22.8437258 29.2726554,23.0318225 29.1430453,23.2191451 C29.1201264,25.0288983 29.0719178,26.8371033 29,28.6453083 C29.7405163,29.8420057 30.96549,30.7197901 32.4149104,31 C33.4992097,30.4511912 35.5381981,29.1616066 37.8356164,27.7613314 C37.9193888,26.5948224 37.9810327,25.4275393 38,24.2571601 C37.7968915,24.0226198 37.5763962,23.8066569 37.335353,23.6100456" id="Fill-12" fill="#593A11"></path>
                    <path d="M34.9849331,46 C36.3529087,45.6959017 38.1901273,44.845445 39,42.5981731 C37.2157856,40.7423005 35.5235491,38.8085846 33.6855511,37 C32.1562245,37.9988683 30.6424874,39.0173794 29.1685034,40.0868159 C28.8707446,41.1286072 28.9635019,42.2606095 29.4795132,43.3031283 C31.0431366,44.4009377 33.2794455,45.1779161 34.9849331,46" id="Fill-14" fill="#593A11"></path>
                    <path d="M46.3146423,31.9214494 C45.8757729,31.3880259 46.4363835,31.8972395 44.7973866,30.1057115 C44.37505,29.9886973 43.9294172,29.9652945 43.4890448,30.0532569 C42.7781365,30.7513072 42.4572508,31.0087385 41.1256129,32.3184907 C40.9174505,33.0633467 40.9647943,33.8856742 41.2916919,34.6369861 C42.6060456,34.9880288 43.8813219,35.4617346 45.1355565,36 C45.7337415,34.9920638 46.3612346,34.0010744 47,33.016541 C46.7828198,32.6429025 46.5581246,32.274106 46.3146423,31.9214494" id="Fill-16" fill="#593A11"></path>
                    <path d="M28.8811276,12.1307625 C28.3072918,11.7262975 27.7013587,11.3645984 27.0993399,11 C26.1293773,11.4755001 25.1476717,11.9263555 24.1456118,12.3271963 C24.0962917,12.4018556 24.0422744,12.4757901 24,12.5540736 C24.4211783,13.6986083 24.8259165,14.847492 25.2196948,16 C26.8300363,15.7136851 25.7810049,15.9470861 29.4753178,15.4730357 C30.0287994,14.6916498 30.1681483,13.6928095 29.7790673,12.7845752 C29.4807979,12.5656712 29.1840942,12.3438678 28.8811276,12.1307625" id="Fill-18" fill="#593A11"></path>
                    <path d="M16.579736,41 C17.9214391,40.4292308 18.1175111,40.2076923 21.6325329,38.6761538 C21.890206,38.0776923 22.0224231,37.4253846 21.9968811,36.7630769 C21.1464847,35.5023077 20.288576,34.2492308 19.4314186,33 C19.1316764,33.1515385 16.8772245,33.66 14.135222,35.0092308 C14.0916505,35.0984615 14.0383129,35.1830769 14,35.2761538 C14.4755308,36.9292308 14.8789433,38.6007692 15.2395354,40.2823077 C15.6414453,40.6076923 16.0981953,40.8430769 16.579736,41" id="Fill-20" fill="#593A11"></path>
                    <path d="M17.5293642,20.5102274 C16.4378991,21.8124786 15.2910334,23.6682665 13.6470006,24.1066164 C12.7828941,24.3361901 11.8907276,24.3193921 11,24.2226031 C11.0395719,24.3521883 11.0733879,24.4849731 11.1143988,24.6145583 C11.7554636,25.3080791 12.5720838,25.8000229 13.4836766,26 C14.9276913,25.4776597 16.4055221,25.0417095 17.8315496,24.4353788 C18.1682705,22.8667581 18.6136343,21.3429322 19,19.7671123 C18.9496358,19.5023426 18.8762479,19.2479717 18.7906287,19 C18.370447,19.5031425 17.9502653,20.0078848 17.5293642,20.5102274" id="Fill-22" fill="#351F09"></path>
                    <path d="M36.8816568,25.7339773 C36.063764,26.2593349 35.1759251,26.8121865 34.1990639,27.0365967 C33.2547911,27.252833 32.2596485,27.1740665 31.2962996,27.1703511 C31.037181,27.1688649 30.7764727,26.9964704 30.714475,26.7557124 C30.3099002,25.1766673 29.8703524,23.605796 29.6144131,22 C29.5961318,22.0029723 29.5778504,22.0044585 29.5587742,22.0074308 C29.4053696,22.1701653 29.2742206,22.3507338 29.1438665,22.5305592 C29.120816,24.2678804 29.0723307,26.0037154 29,27.7395504 C29.7447673,28.8883522 30.9767729,29.731005 32.4345138,30 C33.5250375,29.4731562 35.574936,28.2351848 37.8863375,26.8916961 C37.9324384,26.2719673 37.969796,25.6507524 38,25.0295374 C37.6256293,25.2598923 37.2544379,25.4954486 36.8816568,25.7339773" id="Fill-24" fill="#351F09"></path>
                    <path d="M35.8457634,43.5288951 C34.3768059,44.2585915 32.6938696,43.8255509 31.3850059,43.0134073 C30.5478329,42.4932963 29.7434596,41.8714748 29,41.1895515 C29.0242093,41.8483588 29.1647794,42.5110186 29.4607575,43.1436277 C31.028114,44.3063646 33.2686451,45.1292957 34.9773526,46 C36.347911,45.6779165 38.1885982,44.7771613 39,42.3969795 C38.5798516,41.9354292 38.1659508,41.4684851 37.75205,41 C37.3553299,42.0286639 36.8406872,43.0334412 35.8457634,43.5288951" id="Fill-26" fill="#351F09"></path>
                    <path d="M44.4876629,34.393733 C44.366104,34.0292916 44.2437994,33.6226158 44.0170884,33.2983651 C43.85675,33.0674387 43.614378,32.8692098 43.3884127,32.6934605 C43.0423801,32.4243869 42.6538391,32.2029973 42.2518745,32 C41.9669942,32.2302452 41.6149955,32.5177112 41.1242854,32.9284741 C40.9184557,33.5565395 40.9646928,34.2506812 41.2898441,34.8855586 C42.5583818,35.1737057 43.7888858,35.5619891 45,36 C44.81356,35.469346 44.6658995,34.9271117 44.4876629,34.393733" id="Fill-28" fill="#351F09"></path>
                    <path d="M26.8044069,15.3416226 C26.2076491,15.4118744 25.6046098,15.4479329 25,15.4609885 C25.0730243,15.640659 25.151545,15.8203295 25.2229989,16 C26.8381708,15.7544296 25.7859927,15.9539944 29.4913869,15.5480261 C29.869857,15.0910786 30.0371062,14.5464719 29.9931345,14 C29.1537477,14.8187753 28.1274815,15.1861983 26.8044069,15.3416226" id="Fill-30" fill="#351F09"></path>
                    <path d="M20.3651945,37.4934602 C19.229871,37.6019025 17.6884829,37.826635 16.7113664,37.1239001 C15.9662868,36.5888228 15.5572088,35.7983353 15.1669649,35 C14.8324701,35.1355529 14.4881816,35.2825208 14.1348526,35.4437574 C14.0919107,35.5265161 14.0384217,35.6057075 14,35.6913199 C14.4768811,37.2244946 14.8814389,38.7747919 15.2423015,40.3343639 C15.6453527,40.6361474 16.1041529,40.854459 16.5863076,41 C17.9325737,40.4706302 18.128449,40.2651605 21.6534514,38.8454221 C21.8809681,38.3595719 21.9879461,37.8330559 22,37.2979786 C21.4560693,37.3678954 20.9121386,37.4406659 20.3651945,37.4934602" id="Fill-32" fill="#351F09"></path>
                    <path d="M45.5790344,23 C46.9207633,22.4291759 47.116839,22.2076161 50.6326796,20.6766997 C50.8903577,20.0781806 51.0218261,19.4258102 50.9970349,18.7634388 C50.1458709,17.501779 49.2879457,16.2485816 48.4307718,15 C48.1317751,15.1507837 45.8765286,15.6592942 43.1352246,17.0086547 C43.090901,17.097894 43.0375624,17.1832869 43,17.2763727 C43.4747887,18.9288393 43.8782089,20.6005385 44.2395592,22.2822387 C44.6407256,22.6084239 45.0974844,22.8438311 45.5790344,23" id="Fill-34" fill="#593A11"></path>
                    <path d="M49.3644411,18.4934602 C48.2291176,18.6026159 46.6877295,18.826635 45.7106131,18.1246136 C44.9662868,17.5888228 44.5564554,16.7983353 44.1662115,16 C43.8317167,16.1355529 43.4874282,16.2825208 43.1348526,16.4437574 C43.0911574,16.5265161 43.0376683,16.6057075 43,16.6920333 C43.4761277,18.2244946 43.8806856,19.7747919 44.2423015,21.3343639 C44.6445993,21.6368609 45.1033996,21.8551724 45.5855542,22 C46.9318203,21.4706302 47.128449,21.2651605 50.6534514,19.8461356 C50.8802147,19.3595719 50.9879461,18.8330559 51,18.298692 C50.4553159,18.3686088 49.9113853,18.4406659 49.3644411,18.4934602" id="Fill-36" fill="#351F09"></path>
                </g>
            </g>
        </g>
    </g>
</svg>