<?xml version="1.0" encoding="UTF-8"?>
<svg width="27px" height="32px" viewBox="0 0 27 32" version="1.1" xmlns="http://www.w3.org/2000/svg" xmlns:xlink="http://www.w3.org/1999/xlink">
    <!-- Generator: Sketch 60.1 (88133) - https://sketch.com -->
    <title>Group 16</title>
    <desc>Created with Sketch.</desc>
    <g id="Welcome" stroke="none" stroke-width="1" fill="none" fill-rule="evenodd">
        <g id="Desktop-HD-Copy-5" transform="translate(-561.000000, -829.000000)">
            <g id="Group-16" transform="translate(561.000000, 829.000000)">
                <g id="Group-14">
                    <g id="Group-3" fill="#012442">
                        <path d="M25.586388,3.97290667 C25.565868,3.81504 25.509708,3.66250667 25.423308,3.52810667 C24.395148,1.93237333 23.417748,1.30197333 21.485628,0.852906667 C19.472508,0.38464 17.186148,0.93184 15.431148,2.02410667 L3.626748,9.39050667 C1.454868,10.7259733 0.100548,13.06624 0.001188,15.7105067 L0.000108,15.8587733 C0.000108,18.2843733 1.182708,20.5873067 3.165588,22.01984 L15.004548,30.5457067 C16.326468,31.4971733 17.883828,31.9995733 19.509228,31.9995733 L19.552428,31.9995733 C21.330108,31.9899733 22.949028,31.0459733 24.014988,29.6411733 C25.169508,28.1201067 25.993548,28.3131733 26.308908,16.5595733 C26.452548,11.2145067 25.742988,5.21984 25.586388,3.97290667" id="Fill-1"></path>
                    </g>
                    <path d="M23.3370767,4.53919084 C22.8875624,3.79941873 22.177852,3.2835373 21.33851,3.0857672 C20.5038309,2.88892998 19.643039,3.03352604 18.913744,3.49250193 L7.51641133,10.6961844 C6.6080567,11.2615084 6.0419671,12.2466274 6.0009326,13.33343 L6,13.4444425 C6,14.4780711 6.49521182,15.4575928 7.32616046,16.0658291 L18.7337517,24.3861664 C19.2867849,24.7891696 19.9358761,25 20.6017541,25 C20.7789486,25 20.9570756,24.985074 21.1352027,24.954289 C21.9829381,24.8115587 22.7234244,24.3413883 23.2195688,23.6286696 C24.2305097,22.1883063 24.2482291,6.05791592 23.3370767,4.53919084" id="Fill-4" fill="#FFFFFF"></path>
                </g>
            </g>
        </g>
    </g>
</svg>