<?xml version="1.0" encoding="UTF-8"?>
<svg width="26px" height="31px" viewBox="0 0 26 31" version="1.1" xmlns="http://www.w3.org/2000/svg" xmlns:xlink="http://www.w3.org/1999/xlink">
    <!-- Generator: Sketch 60.1 (88133) - https://sketch.com -->
    <title>Group 6</title>
    <desc>Created with Sketch.</desc>
    <g id="Welcome" stroke="none" stroke-width="1" fill="none" fill-rule="evenodd">
        <g id="Desktop-HD-Copy-3" transform="translate(-853.000000, -959.000000)">
            <g id="Group-6" transform="translate(853.000000, 959.000000)">
                <polygon id="Fill-1" fill="#FFFFFF" points="19 23 2 23 2 7.50056117 8.4718699 1 19 1"></polygon>
                <path d="M7.39620177,0 L0,7.06733778 L0,24 L20,24 L20,0 L7.39620177,0 Z M2.66637645,8.20786288 L8.46710562,2.66739219 L17.3336236,2.66739219 L17.3336236,21.3326078 L2.66637645,21.3326078 L2.66637645,8.20786288 Z" id="Fill-2" fill="#24274A"></path>
                <polygon id="Fill-3" fill="#24274A" points="10 10 1 10 1 7.37780949 7.42857143 7.37780949 7.42857143 1 10 1"></polygon>
                <polygon id="Fill-4" fill="#FFFFFF" points="19.7695592 8 19.7695592 24.4997194 8 24.4997194 8 30 25 30 25 8"></polygon>
                <polygon id="Fill-5" fill="#24274A" points="19.3336961 7 19.3336961 9.66642481 23.3345668 9.66642481 23.3345668 28.3324868 8.66652155 28.3324868 8.66652155 24.3328496 6 24.3328496 6 31 26 31 26 7"></polygon>
            </g>
        </g>
    </g>
</svg>