<?xml version="1.0" encoding="utf-8"?>
<!-- Generator: Adobe Illustrator 24.0.1, SVG Export Plug-In . SVG Version: 6.00 Build 0)  -->
<svg version="1.1" id="Layer_1" xmlns="http://www.w3.org/2000/svg" xmlns:xlink="http://www.w3.org/1999/xlink" x="0px" y="0px"
	 viewBox="0 0 382 514" style="enable-background:new 0 0 382 514;" xml:space="preserve">
<style type="text/css">
	.st0{fill:#001B4D;}
	.st1{clip-path:url(#SVGID_2_);}
</style>
<g>
	<path class="st0" d="M359.4,96.6L359.4,96.6c-7.1-14.1-20.1-34.5-41.2-51.2c-25-19.8-54.9-29.8-88.8-29.8c-9.6,0-19.6,0.8-29.8,2.5
		c-28.4,4.6-53.4,22.4-66.9,47.5L23.3,266.1l-0.2,0.3c-4.8,8.9-7.3,18.8-7.3,28.8v146.2c0,22.3,12.3,42.8,32,53.5
		c9,4.9,19.2,7.4,29.4,7.4c11.5,0,22.8-3.2,32.5-9.2l126-78c9.4-5.9,17.1-14.2,22.1-23.9L359,191.2
		C374.2,161.5,374.3,126.2,359.4,96.6z"/>
	<g>
		<defs>
			<path id="SVGID_1_" d="M326.7,112.5c-11.5-22.7-39.3-60.7-97-60.7c-7.6,0-15.6,0.7-23.8,2c-17.1,2.8-32.2,13.5-40.3,28.7
				L56.1,283c-1.9,3.5-2.9,7.4-2.9,11.3v146.2c0,8.7,4.9,16.8,12.6,21c3.6,1.9,7.7,3,11.8,3c4.6,0,9.1-1.3,13-3.7l125.9-78
				c3.7-2.3,6.8-5.6,8.8-9.5l101.1-199.7C336.2,154.3,336.3,131.5,326.7,112.5 M150.2,310.1c27.5,19,41,56.8,38.1,58.5L113,417.4
				c-6.7-14.1-22-24.9-39.5-22.8l2.7-91.1C76.3,303.5,122.6,291,150.2,310.1z"/>
		</defs>
		<use xlink:href="#SVGID_1_"  style="overflow:visible;fill-rule:evenodd;clip-rule:evenodd;fill:#FFFFFF;"/>
		<clipPath id="SVGID_2_">
			<use xlink:href="#SVGID_1_"  style="overflow:visible;"/>
		</clipPath>
		<g class="st1">
			<defs>
				<rect id="SVGID_3_" x="-4618.6" y="-13517.9" width="10565.1" height="15847.7"/>
			</defs>
			<clipPath id="SVGID_4_">
				<use xlink:href="#SVGID_3_"  style="overflow:visible;"/>
			</clipPath>
		</g>
	</g>
</g>
</svg>
