<?xml version="1.0" encoding="UTF-8"?>
<svg width="138px" height="138px" viewBox="0 0 138 138" version="1.1" xmlns="http://www.w3.org/2000/svg" xmlns:xlink="http://www.w3.org/1999/xlink">
    <!-- Generator: Sketch 61 (89581) - https://sketch.com -->
    <title>Group 2</title>
    <desc>Created with Sketch.</desc>
    <g id="Welcome" stroke="none" stroke-width="1" fill="none" fill-rule="evenodd">
        <g id="Desktop-HD-Copy-3" transform="translate(-1142.000000, -2119.000000)">
            <g id="Group-2" transform="translate(1145.000000, 2122.000000)">
                <circle id="Oval" fill="#FFBF00" cx="66" cy="66" r="65"></circle>
                <g id="Group-17" transform="translate(23.000000, 22.000000)">
                    <path d="M32.1224771,6.77628844 L2.64730923,54.1676103 C-2.34295273,62.1904128 3.50656537,72.5060545 13.0449142,72.5060545 L72.2894565,72.5060545 C81.8580912,72.5060545 87.7058787,62.1374682 82.6559101,54.1172276 C73.7293378,39.9383439 61.4998646,20.4923346 52.8969195,6.74469251 C48.1229858,-0.885295789 36.8765085,-0.86565508 32.1224771,6.77628844" id="Fill-1" fill="#FFFFFF"></path>
                    <path d="M49.861833,23.3256349 C49.861833,20.7108588 46.7077659,18.5922241 42.8181825,18.5922241 C38.9285991,18.5922241 35.7753973,20.7108588 35.7753973,23.3256349 C35.7753973,23.5613234 35.8091445,23.7927421 35.8593327,24.0198912 L38.3990273,44.0124246 L38.4050845,44.0124246 C38.4682524,45.5572091 40.3477129,46.7971355 42.6624261,46.7971355 C44.9762739,46.7971355 46.8548692,45.5572091 46.9189023,44.0124246 L46.9240942,44.0124246 L49.7926079,23.9515757 C49.8133754,23.8465406 49.8280858,23.7397976 49.8384695,23.6322007 L49.847988,23.5613234 L49.8436614,23.5613234 C49.8497186,23.4836145 49.861833,23.4050516 49.861833,23.3256349" id="Fill-3" fill="#24274A"></path>
                    <path d="M48.9626859,56.6653107 C48.9626859,59.655822 46.2109895,62.0810226 42.818096,62.0810226 C39.4252024,62.0810226 36.673506,59.655822 36.673506,56.6653107 C36.673506,53.6739454 39.4252024,51.2495988 42.818096,51.2495988 C46.2109895,51.2495988 48.9626859,53.6739454 48.9626859,56.6653107" id="Fill-5" fill="#24274A"></path>
                    <path d="M32.9662441,5.47624432 L1.7344902,55.6907045 C-2.85253575,63.0653636 2.52452127,72.550118 11.2944718,72.550118 L74.0668966,72.550118 C82.8636718,72.550118 88.2398635,63.0166888 83.5974575,55.6428837 C74.319568,40.9080826 60.9920122,19.7200277 52.0654399,5.44721023 C47.677436,-1.56964639 37.3369417,-1.55085963 32.9662441,5.47624432 Z" id="Stroke-7" stroke="#24274A" stroke-width="6"></path>
                </g>
                <circle id="Oval-Copy-5" stroke="#132540" stroke-width="5" cx="66" cy="66" r="66"></circle>
            </g>
        </g>
    </g>
</svg>