<?xml version="1.0" encoding="UTF-8"?>
<svg width="45px" height="36px" viewBox="0 0 45 36" version="1.1" xmlns="http://www.w3.org/2000/svg" xmlns:xlink="http://www.w3.org/1999/xlink">
    <!-- Generator: Sketch 60.1 (88133) - https://sketch.com -->
    <title>Group 12</title>
    <desc>Created with Sketch.</desc>
    <defs>
        <polygon id="path-1" points="0.00013223881 0.392912783 44.356 0.392912783 44.356 35.9737034 0.00013223881 35.9737034"></polygon>
    </defs>
    <g id="Welcome" stroke="none" stroke-width="1" fill="none" fill-rule="evenodd">
        <g id="Desktop-HD-Copy-15" transform="translate(-197.000000, -572.000000)">
            <g id="Group-12" transform="translate(197.000000, 571.000000)">
                <g id="Group-24">
                    <g id="Group-3" transform="translate(0.000000, 0.606257)">
                        <mask id="mask-2" fill="white">
                            <use xlink:href="#path-1"></use>
                        </mask>
                        <g id="Clip-2"></g>
                        <path d="M39.9099,20.4332634 C44.7949,15.6807375 44.3579,8.76279445 44.3379,8.47100774 C44.1339,5.6051027 41.6919,3.36074332 38.7789,3.36074332 L38.2689,3.36074332 L38.2679,3.32676815 C38.2499,1.70895077 36.9189,0.392912783 35.2999,0.392912783 L9.2159,0.392912783 C7.5899,0.392912783 6.2849,1.66498291 6.2469,3.28979518 L6.2459,3.36074332 L5.5759,3.36074332 C2.6369,3.36074332 0.1929,5.62908517 0.0139,8.5249683 C-0.0051,8.8267477 -0.3821,15.9555366 4.4969,20.6640947 C6.7729,22.8634869 9.6859,24.1445505 13.1579,24.4773072 C13.2259,24.5342656 13.2949,24.591224 13.3639,24.6471831 C12.0119,24.9449654 11.0339,26.1580786 11.0339,27.5440654 L11.0339,33.007072 C11.0339,34.6428763 12.3659,35.9739033 14.0029,35.9739033 L30.5969,35.9739033 C32.2349,35.9739033 33.5659,34.6428763 33.5659,33.007072 L33.5659,27.7888865 C33.5659,26.5727755 32.8369,25.4915658 31.7089,25.0368982 L30.8529,24.6921502 C30.9719,24.5962203 31.0909,24.4992912 31.2069,24.4003635 C34.7179,23.9696783 37.6449,22.6356535 39.9099,20.4332634" id="Fill-1" fill="#FFFFFF" mask="url(#mask-2)"></path>
                    </g>
                    <path d="M38.3269,19.4138086 C42.4539,15.3987436 42.0919,9.48906355 42.0729,9.2382469 C41.9529,7.55447772 40.5069,6.23544193 38.7789,6.23544193 L36.0129,6.23544193 C36.0189,5.9346618 36.0169,5.75379401 36.0169,5.71582177 L35.9979,3.95810665 C35.9939,3.57538641 35.6819,3.2676114 35.2999,3.2676114 L9.2159,3.2676114 C8.8359,3.2676114 8.5259,3.57138934 8.5159,3.94911322 L8.4749,5.6918393 C8.4739,5.75179547 8.4719,5.94165668 8.4739,6.23544193 L5.5759,6.23544193 C3.8329,6.23544193 2.3849,7.56846749 2.2789,9.27022352 C2.2639,9.52803506 1.9389,15.648561 6.0739,19.6406428 C8.0759,21.5722308 10.6909,22.655439 13.8529,22.8632871 C14.0109,22.874279 14.1599,22.937233 14.2759,23.0451541 C15.0929,23.7926077 15.9889,24.4061592 16.9529,24.8758159 C17.3179,25.0536859 17.4589,25.5093528 17.2459,25.8531015 C16.9089,26.3967042 16.3159,26.9542966 15.2729,27.1721373 L13.8589,27.4669218 C13.5359,27.5348722 13.3039,27.819664 13.3039,28.1504222 L13.3039,33.6134288 C13.3039,33.9991468 13.6169,34.3109189 14.0029,34.3109189 L30.5979,34.3109189 C30.9829,34.3109189 31.2969,33.9991468 31.2969,33.6134288 L31.2969,28.3952432 C31.2969,28.1104514 31.1239,27.8536392 30.8589,27.7477166 L29.7459,27.2990446 C28.8679,26.9453031 28.1119,26.3097677 27.5919,25.6552462 C27.3249,25.3184923 27.4309,24.8238539 27.8069,24.6170051 C28.6119,24.175328 29.3679,23.6287275 30.0669,22.9841987 C30.1789,22.8822732 30.3189,22.8183199 30.4699,22.8053294 C33.6859,22.4965551 36.3289,21.3563886 38.3269,19.4138086" id="Fill-4" fill="#24274A"></path>
                    <path d="M24.6765,25.4767766 C23.1565,25.8964698 21.5115,25.9324435 20.0135,25.5567182 C19.5655,27.4053668 18.1645,29.0961309 15.7805,29.5937671 L15.7805,31.836128 L28.8205,31.836128 L28.8205,29.5937671 C26.8055,28.7823603 25.2865,27.0875991 24.6765,25.4767766" id="Fill-6" fill="#FFBF00"></path>
                    <path d="M24.0779,5.74310183 L20.4449,5.74310183 L10.9509,5.74310183 C10.9509,15.8946811 14.9859,20.4253692 15.1609,20.4093809 C16.5929,22.0821581 19.1759,23.9158177 22.2619,23.8628564 C25.3479,23.9158177 27.9309,22.0821581 29.3619,20.4093809 C29.5369,20.4253692 33.5709,15.8946811 33.5709,5.74310183 L24.0779,5.74310183 Z" id="Fill-8" fill="#FFBF00"></path>
                    <path d="M11.3298,18.4428184 C10.2628,18.0950726 9.3448,17.5594641 8.5888,16.8319959 C6.4248,14.7485189 6.0468,11.6098133 5.9898,10.2168316 L9.0718,10.2168316 C8.9998,9.67622673 8.9438,9.16959708 8.9008,8.70993309 L5.1628,8.70993309 C4.7258,8.70993309 4.3628,9.02170519 4.3388,9.42041373 C4.3258,9.63325814 4.0548,14.6475927 7.3828,17.8602443 C8.6728,19.1063334 10.3218,19.8957563 12.2928,20.2315109 C11.9378,19.6569309 11.6178,19.0573692 11.3298,18.4428184" id="Fill-10" fill="#FFBF00"></path>
                    <path d="M33.156,18.4428184 C34.223,18.0950726 35.142,17.5594641 35.898,16.8319959 C38.062,14.7485189 38.44,11.6098133 38.496,10.2168316 L35.415,10.2168316 C35.486,9.67622673 35.543,9.16959708 35.585,8.70993309 L39.324,8.70993309 C39.761,8.70993309 40.123,9.02170519 40.148,9.42041373 C40.161,9.63325814 40.432,14.6475927 37.104,17.8602443 C35.813,19.1063334 34.165,19.8957563 32.193,20.2315109 C32.549,19.6569309 32.869,19.0573692 33.156,18.4428184" id="Fill-12" fill="#FFBF00"></path>
                    <path d="M38.3269,19.4138086 C42.4539,15.3987436 42.0919,9.48906355 42.0729,9.2382469 C41.9529,7.55447772 40.5069,6.23544193 38.7789,6.23544193 L36.0129,6.23544193 C36.0189,5.9346618 36.0169,5.75379401 36.0169,5.71582177 L35.9979,3.95810665 C35.9939,3.57538641 35.6819,3.2676114 35.2999,3.2676114 L9.2159,3.2676114 C8.8359,3.2676114 8.5259,3.57138934 8.5159,3.94911322 L8.4749,5.6918393 C8.4739,5.75179547 8.4719,5.94165668 8.4739,6.23544193 L5.5759,6.23544193 C3.8329,6.23544193 2.3849,7.56846749 2.2789,9.27022352 C2.2639,9.52803506 1.9389,15.648561 6.0739,19.6406428 C8.0759,21.5722308 10.6909,22.655439 13.8529,22.8632871 C14.0109,22.874279 14.1599,22.937233 14.2759,23.0451541 C15.0929,23.7926077 15.9889,24.4061592 16.9529,24.8758159 C17.3179,25.0536859 17.4589,25.5093528 17.2459,25.8531015 C16.9089,26.3967042 16.3159,26.9542966 15.2729,27.1721373 L13.8589,27.4669218 C13.5359,27.5348722 13.3039,27.819664 13.3039,28.1504222 L13.3039,33.6134288 C13.3039,33.9991468 13.6169,34.3109189 14.0029,34.3109189 L30.5979,34.3109189 C30.9829,34.3109189 31.2969,33.9991468 31.2969,33.6134288 L31.2969,28.3952432 C31.2969,28.1104514 31.1239,27.8536392 30.8589,27.7477166 L29.7459,27.2990446 C28.8679,26.9453031 28.1119,26.3097677 27.5919,25.6552462 C27.3249,25.3184923 27.4309,24.8238539 27.8069,24.6170051 C28.6119,24.175328 29.3679,23.6287275 30.0669,22.9841987 C30.1789,22.8822732 30.3189,22.8183199 30.4699,22.8053294 C33.6859,22.4965551 36.3289,21.3563886 38.3269,19.4138086" id="Fill-14" fill="#24274A"></path>
                    <path d="M24.6765,25.4767766 C23.1565,25.8964698 21.5115,25.9324435 20.0135,25.5567182 C19.5655,27.4053668 18.1645,29.0961309 15.7805,29.5937671 L15.7805,31.836128 L28.8205,31.836128 L28.8205,29.5937671 C26.8055,28.7823603 25.2865,27.0875991 24.6765,25.4767766" id="Fill-16" fill="#FFBF00"></path>
                    <path d="M24.0779,5.74310183 L20.4449,5.74310183 L10.9509,5.74310183 C10.9509,15.8946811 14.9859,20.4253692 15.1609,20.4093809 C16.5929,22.0821581 19.1759,23.9158177 22.2619,23.8628564 C25.3479,23.9158177 27.9309,22.0821581 29.3619,20.4093809 C29.5369,20.4253692 33.5709,15.8946811 33.5709,5.74310183 L24.0779,5.74310183 Z" id="Fill-18" fill="#FFBF00"></path>
                    <path d="M11.3298,18.4428184 C10.2628,18.0950726 9.3448,17.5594641 8.5888,16.8319959 C6.4248,14.7485189 6.0468,11.6098133 5.9898,10.2168316 L9.0718,10.2168316 C8.9998,9.67622673 8.9438,9.16959708 8.9008,8.70993309 L5.1628,8.70993309 C4.7258,8.70993309 4.3628,9.02170519 4.3388,9.42041373 C4.3258,9.63325814 4.0548,14.6475927 7.3828,17.8602443 C8.6728,19.1063334 10.3218,19.8957563 12.2928,20.2315109 C11.9378,19.6569309 11.6178,19.0573692 11.3298,18.4428184" id="Fill-20" fill="#FFBF00"></path>
                    <path d="M33.156,18.4428184 C34.223,18.0950726 35.142,17.5594641 35.898,16.8319959 C38.062,14.7485189 38.44,11.6098133 38.496,10.2168316 L35.415,10.2168316 C35.486,9.67622673 35.543,9.16959708 35.585,8.70993309 L39.324,8.70993309 C39.761,8.70993309 40.123,9.02170519 40.148,9.42041373 C40.161,9.63325814 40.432,14.6475927 37.104,17.8602443 C35.813,19.1063334 34.165,19.8957563 32.193,20.2315109 C32.549,19.6569309 32.869,19.0573692 33.156,18.4428184" id="Fill-22" fill="#FFBF00"></path>
                </g>
            </g>
        </g>
    </g>
</svg>