<?xml version="1.0" encoding="UTF-8"?>
<svg width="39px" height="40px" viewBox="0 0 39 40" version="1.1" xmlns="http://www.w3.org/2000/svg" xmlns:xlink="http://www.w3.org/1999/xlink">
    <!-- Generator: Sketch 61.1 (89650) - https://sketch.com -->
    <title>Group 22</title>
    <desc>Created with Sketch.</desc>
    <defs>
        <polygon id="path-1" points="0.0001 0.527763346 38.705 0.527763346 38.705 39.9997 0.0001 39.9997"></polygon>
    </defs>
    <g id="Welcome" stroke="none" stroke-width="1" fill="none" fill-rule="evenodd">
        <g id="Desktop-HD-Copy-13" transform="translate(-248.000000, -160.000000)">
            <g id="Group-22" transform="translate(248.000000, 159.000000)">
                <g id="Group-3" transform="translate(0.000000, 0.472600)">
                    <mask id="mask-2" fill="white">
                        <use xlink:href="#path-1"></use>
                    </mask>
                    <g id="Clip-2"></g>
                    <path d="M38.7051,20.2637 C38.7051,9.7577 30.4911,1.0907 20.0021,0.5327 C18.5571,0.4707 17.1011,0.9947 16.0471,1.9917 C16.0251,2.0117 16.0051,2.0317 15.9841,2.0517 C14.7311,1.2997 13.2401,1.0957 11.8201,1.4927 L6.3561,3.0217 C4.4821,3.5447 3.0461,5.0487 2.6051,6.9467 C2.3651,7.9867 2.4461,9.0897 2.8331,10.0827 C0.9781,13.1427 0.0001,16.6577 0.0001,20.2637 C0.0001,30.7397 8.1911,39.4057 18.6541,39.9927 C18.7491,39.9967 18.8461,39.9997 18.9421,39.9997 C20.3231,39.9997 21.6381,39.4767 22.6441,38.5247 C22.7301,38.4437 22.8121,38.3597 22.8921,38.2727 C24.2161,39.1227 25.9191,39.3517 27.4191,38.8657 L32.8141,37.1177 C34.6691,36.5167 36.0451,34.9537 36.4051,33.0407 C36.5971,32.0247 36.4921,30.9927 36.1021,30.0427 C37.8061,27.0757 38.7051,23.7017 38.7051,20.2637" id="Fill-1" fill="#FFFFFF" mask="url(#mask-2)"></path>
                </g>
                <path d="M36.3184,20.6747 C36.3184,11.4707 29.1244,3.8767 19.9384,3.3877 C19.1524,3.3377 18.3684,3.6337 17.7924,4.1797 C17.2094,4.7327 16.8744,5.5097 16.8744,6.3127 L16.8744,7.9897 C16.8744,8.4027 16.9654,8.8107 17.1394,9.1867 C16.7724,9.2617 16.4094,9.3547 16.0514,9.4637 L16.1834,7.1997 C16.2394,6.2747 15.8414,5.3747 15.1214,4.7937 C14.3954,4.2087 13.4304,4.0087 12.5414,4.2617 L7.0784,5.7887 C6.0664,6.0717 5.2904,6.8847 5.0524,7.9087 C4.8314,8.8647 5.1124,9.8607 5.7894,10.5587 C3.6424,13.5197 2.5094,17.0077 2.5094,20.6747 C2.5094,29.8527 9.6844,37.4447 18.8384,37.9577 C18.8914,37.9617 18.9484,37.9617 19.0054,37.9617 C19.7474,37.9617 20.4824,37.6687 21.0224,37.1567 C21.6144,36.5967 21.9544,35.8077 21.9544,34.9927 L21.9544,33.3977 C21.9544,33.1697 21.9254,32.9437 21.8704,32.7197 C22.2514,32.6457 22.6284,32.5537 22.9984,32.4437 L22.9664,34.1597 C22.9504,35.0877 23.3844,35.9707 24.1284,36.5207 C24.8604,37.0657 25.8634,37.2287 26.7264,36.9457 L32.1234,35.1987 C33.1234,34.8757 33.8664,34.0317 34.0614,32.9977 C34.2384,32.0637 33.9414,31.1107 33.2814,30.4437 C35.2694,27.5517 36.3184,24.1847 36.3184,20.6747" id="Fill-4" fill="#292440"></path>
                <path d="M19.0146,32.5624 C12.8196,32.1464 7.9066,26.9724 7.9066,20.6734 C7.9066,17.6064 9.0686,14.7224 11.1666,12.5004 L12.4666,13.6594 C12.9306,14.0724 13.6656,13.7674 13.7026,13.1484 L14.0566,7.0734 C14.0856,6.5644 13.6056,6.1774 13.1156,6.3144 L7.6536,7.8414 C7.0876,8.0004 6.9206,8.7204 7.3596,9.1114 L8.7316,10.3334 C6.0996,13.1524 4.6426,16.7974 4.6426,20.6734 C4.6426,28.7554 10.9906,35.3814 18.9626,35.8304 C19.4326,35.8564 19.8226,35.4644 19.8226,34.9934 L19.8226,33.3974 C19.8226,32.9474 19.4646,32.5924 19.0146,32.5624" id="Fill-6" fill="#3FD896"></path>
                <path d="M30.3281,30.7587 C32.8121,27.9757 34.1861,24.4307 34.1861,20.6737 C34.1861,12.5777 27.8161,5.9427 19.8251,5.5157 C19.3781,5.4917 19.0071,5.8637 19.0071,6.3127 L19.0071,7.9897 C19.0071,8.4177 19.3481,8.7557 19.7741,8.7817 C25.9881,9.1797 30.9231,14.3627 30.9231,20.6737 C30.9231,23.6677 29.8111,26.4897 27.8051,28.6897 L26.4211,27.5537 C25.9401,27.1597 25.2181,27.4937 25.2071,28.1137 L25.0991,34.1987 C25.0901,34.7087 25.5851,35.0757 26.0701,34.9187 L31.4661,33.1707 C32.0241,32.9897 32.1621,32.2627 31.7081,31.8907 L30.3281,30.7587 Z" id="Fill-8" fill="#3FD896"></path>
                <path d="M22.8428,14.8915 L15.9658,14.8915 C13.8218,14.8915 12.0758,16.6355 12.0758,18.7795 L12.0758,22.2765 C12.0758,24.4205 13.8208,26.1645 15.9648,26.1645 L19.5698,26.1645 C20.7658,28.6595 23.0508,29.0775 23.0508,29.0775 L22.9958,26.1285 C24.8918,25.8705 26.7318,24.2405 26.7318,22.2765 L26.7318,18.7795 C26.7318,16.6355 24.9878,14.8915 22.8428,14.8915" id="Fill-10" fill="#FFBC00"></path>
                <path d="M15.9648,14.8915 C13.8208,14.8915 12.0758,16.6355 12.0758,18.7795 L12.0758,19.9075 C12.0758,17.7635 13.8208,16.0195 15.9648,16.0195 L22.8428,16.0195 C24.9868,16.0195 26.7318,17.7635 26.7318,19.9075 L26.7318,18.7795 C26.7318,16.6355 24.9868,14.8915 22.8428,14.8915 L15.9648,14.8915 Z" id="Fill-12" fill="#FFF085"></path>
                <path d="M11.5527,12.08 C11.4277,12.213 11.3177,12.354 11.1987,12.491 L12.4667,13.659 C12.7407,13.903 13.1087,13.892 13.3707,13.718 C13.3417,13.698 13.3107,13.684 13.2827,13.659 L11.5527,12.08 Z" id="Fill-14" fill="#55FFB2"></path>
                <path d="M5.458,20.6738 C5.458,16.7978 6.916,13.1528 9.548,10.3338 L8.176,9.1108 C7.737,8.7208 7.904,7.9998 8.47,7.8418 L13.677,6.3858 C13.514,6.2928 13.316,6.2588 13.115,6.3148 L7.653,7.8418 C7.088,7.9998 6.921,8.7208 7.359,9.1108 L8.731,10.3338 C6.1,13.1528 4.643,16.7978 4.643,20.6738 C4.643,28.7558 10.99,35.3818 18.962,35.8298 C19.077,35.8358 19.186,35.8158 19.286,35.7778 C11.549,35.0888 5.458,28.5868 5.458,20.6738" id="Fill-16" fill="#55FFB2"></path>
                <path d="M27.5479,29.0712 C27.6649,28.9422 27.7679,28.8052 27.8789,28.6732 L26.4199,27.5532 C26.1459,27.3282 25.7959,27.3462 25.5409,27.5142 C25.5619,27.5292 25.5839,27.5372 25.6049,27.5532 L27.5479,29.0712 Z" id="Fill-18" fill="#55FFB2"></path>
                <path d="M30.3281,30.7587 C32.8121,27.9757 34.1861,24.4307 34.1861,20.6737 C34.1861,12.5777 27.8161,5.9427 19.8251,5.5157 C19.7141,5.5097 19.6061,5.5297 19.5091,5.5677 C27.2621,6.2387 33.3701,12.7487 33.3701,20.6737 C33.3701,24.4307 31.9961,27.9757 29.5131,30.7587 L30.8911,31.8907 C31.3461,32.2637 31.2081,32.9897 30.6491,33.1707 L25.4701,34.8487 C25.6421,34.9507 25.8561,34.9877 26.0701,34.9187 L31.4661,33.1707 C32.0241,32.9897 32.1621,32.2637 31.7081,31.8907 L30.3281,30.7587 Z" id="Fill-20" fill="#55FFB2"></path>
            </g>
        </g>
    </g>
</svg>