<?xml version="1.0" encoding="utf-8"?>
<!-- Generator: Adobe Illustrator 24.0.1, SVG Export Plug-In . SVG Version: 6.00 Build 0)  -->
<svg version="1.1" id="Camada_1" xmlns="http://www.w3.org/2000/svg" xmlns:xlink="http://www.w3.org/1999/xlink" x="0px" y="0px"
	 viewBox="0 0 262 330" style="enable-background:new 0 0 262 330;" xml:space="preserve">
<style type="text/css">
	.st0{clip-path:url(#SVGID_2_);}
	.st1{fill:#FFBF1F;}
	.st2{fill:none;stroke:#012442;stroke-width:48;stroke-linecap:round;stroke-linejoin:round;stroke-miterlimit:10;}
	.st3{fill:none;stroke:#DD8064;stroke-width:30;stroke-linecap:round;stroke-linejoin:round;stroke-miterlimit:10;}
	.st4{fill:#DD8064;}
	.st5{fill:#83D9FD;}
	.st6{fill:none;stroke:#012442;stroke-width:8;stroke-linecap:round;stroke-miterlimit:10;}
	.st7{fill:#012442;}
	.st8{fill:#F7E9DE;}
	.st9{fill:#FFFFFF;}
	.st10{fill:none;stroke:#012442;stroke-width:6;stroke-linecap:round;stroke-linejoin:round;stroke-miterlimit:10;}
	.st11{fill:none;stroke:#012442;stroke-width:3;stroke-linecap:round;stroke-linejoin:round;stroke-miterlimit:10;}
	.st12{fill:#AF543F;}
	.st13{fill:#276AD6;}
	.st14{fill:#FFDF24;}
	.st15{fill:none;stroke:#012442;stroke-width:4;stroke-linecap:round;stroke-linejoin:round;}
	.st16{fill:none;stroke:#012442;stroke-width:4;stroke-linecap:round;stroke-linejoin:round;stroke-dasharray:13.3962,13.3962;}
	.st17{fill:#2F61DD;}
	.st18{display:none;}
	.st19{display:inline;fill:#FFFFFF;}
	.st20{display:inline;opacity:0.33;fill:none;stroke:#000000;stroke-miterlimit:10;enable-background:new    ;}
</style>
<g id="Camada_5">
	<g>
		<g>
			<g>
				<defs>
					<path id="SVGID_1_" d="M286.1-19.4l-310.3,14v203.8h23.8c0,0.2,0,0.4,0,0.6c0,72.4,59.7,131,132.1,131
						c72.4,0,131-58.7,131-131.1c0-0.2,0-0.4,0-0.6h23.3V-9.4L286.1-19.4z"/>
				</defs>
				<clipPath id="SVGID_2_">
					<use xlink:href="#SVGID_1_"  style="overflow:visible;"/>
				</clipPath>
				<g class="st0">
					<path class="st1" d="M130.8,82.3c72.4,0,131.1,44.7,131.1,117.1s-58.7,131.1-131.1,131.1S-0.3,271.7-0.3,199.3
						S58.4,82.3,130.8,82.3z"/>
					<path class="st2" d="M190.4,247c0,0,26.9,22.6,41.2,85"/>
					<path class="st3" d="M190.4,247c0,0,26.9,22.6,41.2,85"/>
					<path class="st2" d="M73.6,247c0,0-26.9,22.6-41.2,85"/>
					<path class="st3" d="M73.6,247c0,0-26.9,22.6-41.2,85"/>
					<path class="st4" d="M166.6,230.3l-1-5.9h-67l-1,5.9c-0.3,1.6-0.4,3.2-0.4,4.7c0,17.5,15.6,31.6,34.8,31.6S167,252.4,167,235
						C167,233.4,166.9,231.8,166.6,230.3z"/>
					<path class="st5" d="M173.5,238.9c-4.7,2.8-9.6,5.1-14.6,7.2c0,0.3,0,0.7,0,1c0,13.6-12.5,24.6-27.9,24.6
						c-14.2,0-26-9.5-27.6-21.6c-6-2.5-11.4-6.3-15.8-11.8c-34.3,34.3-32.5,127.1-32.5,127.1l156.9-0.9
						C212,364.5,213.5,279.6,173.5,238.9z"/>
					<g>
						<g>
							<path class="st5" d="M182.9,286.9l48.4-24.6c-0.3-0.7-22.5-47-56.5-41.1l-7,1.1c-10.8,4.4-9.6,19.3-5.3,30.1L182.9,286.9z"/>
						</g>
					</g>
					<g>
						<path class="st6" d="M203.1,278.3l30.2-14c-0.3-0.7-25.6-54.2-62.5-42"/>
					</g>
					<g>
						<g>
							<path class="st5" d="M81,286.9l-48.4-24.6c0.3-0.7,22.5-47,56.5-41.1l7,1.1c10.8,4.4,9.6,19.3,5.3,30.1L81,286.9z"/>
						</g>
					</g>
					<g>
						<path class="st6" d="M64.9,279.2l-34.2-14.9c0.3-0.7,25.6-54.2,62.5-42"/>
					</g>
					<g>
						<path class="st7" d="M158.7,231.4c0.2,1.3,0.3,2.7,0.3,4.1c0,15.4-12.5,27.9-27.9,27.9s-27.8-12.5-27.8-27.9
							c0-1.4,0.1-2.7,0.3-4.1L158.7,231.4 M165.6,223.4h-6.9h-55.1h-6.9l-1,6.8c-0.2,1.7-0.4,3.5-0.4,5.2
							c0,19.8,16.1,35.9,35.8,35.9s35.9-16.1,35.9-35.9c0-1.7-0.1-3.5-0.4-5.2L165.6,223.4L165.6,223.4z"/>
					</g>
					<path class="st6" d="M194.5,259.8c0,0,13,39.5,14.6,95.2"/>
					<path class="st6" d="M71.1,259.8c0,0-13,39.5-14.6,95.2"/>
					<g>
						<path class="st4" d="M210.1,168.3c0.1,41-34.4,70.8-79.5,70.9l0,0c-45.1,0.2-77.8-29.4-78-70.4l-0.3-49
							c-0.1-15.1,1.2-25.7,9.1-37.1c19.3-27.9,73-11.7,78-11.3c20.4,1.3,45.1-6.5,57.8,11.2c7.5,10.4,12.2,27.5,12.2,46.9
							L210.1,168.3z"/>
					</g>
					<g>
						<path class="st7" d="M130.2,72.1c28.8,0,57.8-3.6,71.1,18.8c9.4,15.7,7.7,51.4,7.7,51.4c0.4,0,0.6,0,0.7,0c0,0,0,0,0.1,0
							c9.4,0,16.9,7.6,17,16.9c0,9.4-7.5,17-16.9,17c-0.1,0-0.5,0-1.1,0c-4.2,36.4-35.1,62-76.9,62.1c-0.1,0-0.2,0-0.4,0
							c-42.1,0-73.3-25.9-77.2-62.8c-1.4,0-2.3,0-2.4,0c0,0,0,0-0.1,0c-9.1,0-16.6-7.4-16.6-16.6c0-9.2,7.4-16.6,16.5-16.7
							c0.1,0,0.8,0,1.9,0l-0.1-7.3c0-4.5-0.3-35.3,7.1-47.1C72.6,68.6,101.3,72.1,130.2,72.1 M130.2,64.1c-15.7,0-31,2.9-44.2,8.3
							c-14.4,5.9-25.6,0.7-32.3,11.3c-5.6,8.9-8.3,26-8.3,50.8v0.5v0.1v0c-4.2,1.1-8.1,3.3-11.2,6.5c-4.6,4.7-7.2,10.9-7.2,17.4
							c0,12,8.7,22,20.1,24.1c7.2,37.6,40.9,63.2,84.1,63.2h0.4c22.3-0.1,42.2-6.7,57.6-19.3c13.6-11.1,22.8-26.4,26.3-43.5
							c4.4-1.1,8.5-3.4,11.9-6.7c4.7-4.7,7.3-11,7.2-17.7c0-11.1-7.4-20.6-17.6-23.7c0-12-1.1-35.5-9-48.7c-7.1-12-18.7-7.7-33.5-14
							C161.5,67.1,146.1,64.1,130.2,64.1L130.2,64.1z"/>
					</g>
					<g>
						<g>
							<path class="st8" d="M209.9,150.6c5.8,0,10.6,4.7,10.6,10.5s-4.7,10.6-10.5,10.6c-5.8,0-10.6-4.7-10.6-10.5
								C199.4,155.4,204.1,150.7,209.9,150.6"/>
						</g>
					</g>
					<g>
						<path class="st4" d="M84,158.8c0,8.4,5,15.4-3.1,16.5c-0.7,0.1-29.6,0.2-30.4,0.2c-9.2,0-16.6-7.4-16.7-16.6
							c0-9.2,7.4-16.6,16.5-16.7c0.8,0,24.1,0,24.8,0.1C83.4,143.4,84,150.4,84,158.8z"/>
					</g>
					<g>
						<path class="st4" d="M175.5,159.4c0,8.6-5,15.8,3.3,16.8c0.7,0.1,30.3,0,31,0c9.4,0,16.9-7.6,16.9-17c0-9.4-7.6-16.9-17-16.9
							c-0.8,0-24.6,0.1-25.3,0.2C176,143.7,175.4,150.8,175.5,159.4z"/>
					</g>
					<path class="st9" d="M170,168c-24.7,2.9-52.5,2.9-75.3-0.4c0,0,6.9,33.8,37.6,33.8C166.9,201.5,170,168,170,168z"/>
					<path class="st10" d="M170,168c-24.7,2.9-52.5,2.9-75.3-0.4c0,0,6.9,33.8,37.6,33.8C166.9,201.5,170,168,170,168z"/>
					<path class="st11" d="M104,182.4c0,0,30.5,5.5,59.2,0"/>
					<g>
						<g>
							<circle class="st12" cx="199.6" cy="168.4" r="4.3"/>
						</g>
						<g>
							<circle class="st12" cx="180.4" cy="174.1" r="4.3"/>
						</g>
						<g>
							<circle class="st12" cx="192.5" cy="183" r="4.3"/>
						</g>
					</g>
					<g>
						<g>
							<circle class="st12" cx="63.5" cy="171.4" r="4.3"/>
						</g>
						<g>
							<circle class="st12" cx="83.1" cy="175.3" r="4.3"/>
						</g>
						<g>
							<circle class="st12" cx="71.9" cy="185.3" r="4.3"/>
						</g>
					</g>
					<g id="olho_10_">
						<g>
							<path class="st7" d="M92.6,140.2c0,5.8-4.6,10.5-10.4,10.5c-5.8,0-10.5-4.6-10.5-10.4c0-5.8,4.6-10.5,10.4-10.5
								C87.9,129.8,92.6,134.5,92.6,140.2z"/>
						</g>
					</g>
					<g id="olho_2_">
						<g>
							<path class="st7" d="M189.4,140.2c0,5.8-4.6,10.5-10.4,10.5c-5.8,0-10.5-4.6-10.5-10.4c0-5.8,4.6-10.5,10.4-10.5
								C184.7,129.8,189.4,134.5,189.4,140.2z"/>
						</g>
					</g>
					<g>
						<path class="st12" d="M131.8,219.1c-4.7,0-9.4-0.5-14.1-1.4c-1.9-0.4-3.1-2.2-2.7-4.1s2.2-3.1,4.1-2.7
							c9.1,1.9,18.5,1.7,27.1-0.5c1.9-0.5,3.8,0.6,4.3,2.5c0.5,1.9-0.6,3.8-2.5,4.3C142.7,218.4,137.3,219.1,131.8,219.1z"/>
					</g>
					<ellipse class="st13" cx="131.1" cy="14.7" rx="12" ry="7.4"/>
					<g>
						<path class="st7" d="M131.1,7.3c6.6,0,12,3.3,12,7.4s-5.4,7.4-12,7.4s-12-3.3-12-7.4S124.5,7.3,131.1,7.3 M131.1,1.3
							c-10.1,0-18,5.9-18,13.4s7.9,13.4,18,13.4s18-5.9,18-13.4S141.2,1.3,131.1,1.3L131.1,1.3z"/>
					</g>
					<g>
						<path class="st7" d="M134.2,25.2c41.8,0,71.8,16.3,86.5,26.5c6.4,4.5,10.2,11.4,10.2,18.7v42.7c-30.4-5.5-62.7-7.3-92.1-7.3
							c-58.9,0-106.7,7.3-106.7,7.3c0,0,0,0,0,0c-1,0-1.2-22.3-1.3-41.7c0-7.8,4.3-15.2,11.4-19.6C58.8,41.7,92.1,25.2,134.2,25.2
							 M134.2,17.2C90,17.2,55,34.7,38,45.1C28.4,51,22.7,60.9,22.8,71.5c0,9.7,0.1,9.6,0.3,21.2c0.1,6.3,0.2,11.3,0.4,14.8
							c0.1,2.1,0.2,3.7,0.3,4.8c0.1,0.8,0.2,1.5,0.3,2c1,4.7,4.7,6.8,8,6.8h3.1l0.5-0.4c10.2-1.4,52.8-6.9,103.2-6.9
							c33.7,0,64.2,2.4,90.7,7.2l9.4,1.7v-9.6V70.4c0-9.9-5.1-19.3-13.6-25.2C210.3,34.8,178.5,17.2,134.2,17.2L134.2,17.2z"/>
					</g>
					<path class="st1" d="M32.1,113.1c0,0,107.5-16.5,198.8,0V70.4c0-7.3-3.8-14.2-10.2-18.7C206,41.6,176,25.2,134.2,25.2
						c-42.1,0-75.4,16.5-92,26.7C35,56.3,30.7,63.7,30.8,71.5C30.8,91,31.1,114,32.1,113.1z"/>
					<g>
						<path class="st7" d="M162.6,93.8c-0.4,0-0.7,0-1.1-0.1c-29.7-4.3-61.7,0-62,0c-4.9,0.7-9.4-3.7-9.9-9.7s3-11.5,7.9-12.1
							c21.2-2.9,29.2-5.3,66.1,0c4.9,0.7,8.5,6.2,7.9,12.2C171,89.7,167.1,93.8,162.6,93.8z"/>
					</g>
					<g>
						<path class="st14" d="M52.8,71.5c0-7.8,4.9-19.3,11.4-24.6c25.8-20.8,73.7-21.7,70-21.7c-42.1,0-75.4,16.5-92,26.7
							C35,56.3,30.7,63.7,30.8,71.5c0.1,19.5,0.3,42.5,1.3,41.6c0,0,8-1.2,21.5-2.7C53,101.7,52.8,87.7,52.8,71.5z"/>
					</g>
					<g>
						<path class="st14" d="M209.9,71.5c0-7.8-2.8-13.3-8.4-19.6c-20.5-22.6-69.7-26.7-66-26.7c42.1,0,68.4,16.5,85,26.7
							c7.2,4.4,11.5,11.7,11.4,19.6c-0.1,19.5-0.3,41.5-1.3,40.6c0,0-8-1.2-21.6-2.7C209.6,100.7,209.8,87.7,209.9,71.5z"/>
					</g>
					<g>
						<g>
							<path class="st15" d="M89.4,27.4c-1.7,1.1-3.2,2.4-4.6,3.8"/>
							<path class="st16" d="M76.9,42c-2.1,4.1-3.7,8.4-4.8,12.9c-2.6,10.7-2.6,7.9-2.5,19c0.1,8.9,0.1,27.8,0.1,36.8"/>
						</g>
					</g>
					<g>
						<g>
							<path class="st15" d="M174.7,27.4c1.7,1.1,3.2,2.4,4.6,3.8"/>
							<path class="st16" d="M187.2,42c2.1,4.1,3.7,8.4,4.8,12.9c2.6,10.7,2.6,7.9,2.5,19c-0.1,8.9-0.1,27.8-0.1,36.8"/>
						</g>
					</g>
					<g>
						<path class="st17" d="M34.7,178.4c-11.8-0.1-19.7-6.8-21.2-17.9c-0.7-5.5,0.3-11.9,2.9-15.9c-1.8-1.5-3.2-3.6-4.2-6
							c-2-5.2-1.5-11.4,1.2-15.6c3.5-5.3,6.8-5.9,9.3-6.4c0.8-0.1,1.5-0.3,2.1-0.6c0.3-0.1,0.7-0.2,1-0.3l51.8-4c0.1,0,0.2,0,0.2,0
							c0.9,0,1.7,0.4,2.3,1.1c0.6,0.7,0.8,1.7,0.6,2.7c-2.8,10.8-16,23.3-35,25.2c-8.1,0.8-13,4.7-14.7,11.6
							c-2,8.4,1.8,18.1,5.3,20.3c1.1,0.7,1.7,2.1,1.3,3.4S36.1,178.4,34.7,178.4C34.7,178.4,34.7,178.4,34.7,178.4z"/>
						<path class="st7" d="M77.8,114.9L77.8,114.9 M77.8,114.9c-2.5,9.5-14.5,21.2-32.4,23c-25.1,2.5-19,32.2-10.7,37.5
							c-24.4-0.2-19.8-29.5-13.2-31.4c-7.2-1.9-9.7-13.1-5.6-19.3c3.9-6,6.8-4.3,10.1-5.8L77.8,114.9 M77.8,108.9c0,0-0.1,0-0.1,0
							c-0.1,0-0.3,0-0.4,0l-51.7,4c-0.7,0.1-1.4,0.2-2,0.5c-0.3,0.1-0.8,0.2-1.4,0.3c-3.6,0.6-7.4,1.8-11.3,7.7
							c-3.3,5-3.8,12.2-1.5,18.3c0.8,2.1,1.9,3.9,3.3,5.5c-2.1,4.5-2.9,10.4-2.2,15.7c0.7,5.6,3,10.4,6.6,13.9
							c4.3,4.3,10.2,6.5,17.5,6.5c0,0,0,0,0,0c2.7,0,5-1.8,5.8-4.3c0.8-2.6-0.3-5.3-2.5-6.8c-2-1.3-5.7-9.5-3.9-17.1
							c1.3-5.6,5.3-8.7,12-9.3c9.4-0.9,18-4.3,25.1-9.8c6.2-4.9,10.8-11.2,12.4-17.4c0.2-0.6,0.3-1.1,0.3-1.8
							C83.8,111.6,81.2,108.9,77.8,108.9C77.9,108.9,77.9,108.9,77.8,108.9L77.8,108.9z M77.8,120.9L77.8,120.9L77.8,120.9
							L77.8,120.9z"/>
					</g>
					<g>
						<path class="st17" d="M226.1,178.4c-1.3,0-2.5-0.9-2.9-2.1c-0.4-1.3,0.1-2.7,1.3-3.4c3.4-2.2,7.2-11.9,5.2-20.3
							c-1.6-6.9-6.6-10.8-14.7-11.6c-18.9-1.9-32.2-14.4-35-25.2c-0.2-0.9,0-1.9,0.6-2.7c0.6-0.7,1.4-1.1,2.3-1.1c0.1,0,0.1,0,0.2,0
							l51.8,4c0.4,0,0.7,0.1,1,0.3c0.6,0.3,1.3,0.4,2.1,0.6c2.5,0.4,5.8,1,9.3,6.4c2.8,4.2,3.2,10.3,1.2,15.6c-1,2.5-2.4,4.6-4.2,6
							c2.6,4,3.6,10.4,2.9,15.9C245.8,171.6,237.9,178.3,226.1,178.4C226.1,178.4,226.1,178.4,226.1,178.4z"/>
						<path class="st7" d="M183,114.9l51.8,4c3.3,1.5,6.2-0.2,10.1,5.8c4.1,6.2,1.6,17.4-5.6,19.3c6.6,1.9,11.2,31.1-13.2,31.4
							c8.2-5.2,14.3-35-10.7-37.5C197.4,136.1,185.4,124.4,183,114.9 M183,108.9c-1.8,0-3.5,0.8-4.6,2.1c-1.2,1.5-1.7,3.5-1.2,5.4
							c1.6,6.2,6.2,12.7,12.5,17.6c7,5.5,15.7,8.9,25.1,9.8c6.8,0.7,10.7,3.7,12.1,9.3c1.8,7.6-1.9,15.8-3.9,17.1
							c-2.3,1.4-3.3,4.2-2.5,6.8c0.8,2.6,3.1,4.3,5.8,4.3c0,0,0,0,0.1,0c7.3-0.1,13.2-2.2,17.5-6.5c3.6-3.5,5.9-8.4,6.6-13.9
							c0.7-5.3,0-11.2-2.2-15.7c1.4-1.6,2.5-3.4,3.3-5.5c2.4-6.1,1.8-13.3-1.5-18.3c-3.9-5.9-7.7-7-11.3-7.7
							c-0.6-0.1-1.1-0.2-1.4-0.3c-0.6-0.3-1.3-0.5-2-0.5l-51.8-4C183.3,108.9,183.1,108.9,183,108.9L183,108.9z"/>
					</g>
				</g>
			</g>
		</g>
	</g>
</g>
<g id="Camada_4" class="st18">
	<path class="st19" d="M285.3,0.3H-25v207.8h24.8c0,0.2,0,0.4,0,0.6c0,72.4,58.7,131,131.1,131c72.4,0,131-58.7,131-131
		c0-0.2,0-0.4,0-0.6h23.3L285.3,0.3L285.3,0.3z"/>
</g>
<g id="Camada_3" class="st18">
	<circle class="st20" cx="130.9" cy="207.5" r="131.1"/>
	<path class="st19" d="M285.1,1.1H-25.2v207.8h24.9c0,0.2,0,0.4,0,0.6c0,72.4,58.7,131.1,131.1,131.1c72.4,0,131-58.7,131-131.1
		c0-0.2,0-0.4,0-0.6h23.3L285.1,1.1L285.1,1.1z"/>
</g>
</svg>
