<?xml version="1.0" encoding="utf-8"?>
<!-- Generator: Adobe Illustrator 24.0.1, SVG Export Plug-In . SVG Version: 6.00 Build 0)  -->
<svg version="1.1" id="Camada_1" xmlns="http://www.w3.org/2000/svg" xmlns:xlink="http://www.w3.org/1999/xlink" x="0px" y="0px"
	 viewBox="0 0 262 330" style="enable-background:new 0 0 262 330;" xml:space="preserve">
<style type="text/css">
	.st0{clip-path:url(#SVGID_2_);}
	.st1{fill:#FFBF1F;}
	.st2{fill:none;stroke:#012442;stroke-width:48;stroke-linecap:round;stroke-linejoin:round;stroke-miterlimit:10;}
	.st3{fill:none;stroke:#FFBB71;stroke-width:30;stroke-linecap:round;stroke-linejoin:round;stroke-miterlimit:10;}
	.st4{fill:#FFBB71;}
	.st5{fill:#EF6100;}
	.st6{fill:none;stroke:#012442;stroke-width:8;stroke-linecap:round;stroke-miterlimit:10;}
	.st7{fill:#012442;}
	.st8{fill:#F7E9DE;}
	.st9{fill:#2F61DD;}
	.st10{fill:#299EED;}
	.st11{fill:none;stroke:#012442;stroke-width:6;stroke-linecap:round;stroke-linejoin:round;stroke-miterlimit:10;}
	.st12{fill:#FFFFFF;}
	.st13{fill:none;stroke:#012442;stroke-width:3;stroke-linecap:round;stroke-linejoin:round;stroke-miterlimit:10;}
	.st14{fill:#2DB5F9;}
	.st15{fill:none;stroke:#042342;stroke-width:4;stroke-linecap:round;stroke-linejoin:round;stroke-miterlimit:10;}
	.st16{fill:none;stroke:#2DB5F9;stroke-width:6;stroke-linecap:round;stroke-linejoin:round;stroke-miterlimit:10;}
	.st17{display:none;}
	.st18{display:inline;fill:#FFFFFF;}
	.st19{display:inline;opacity:0.33;fill:none;stroke:#000000;stroke-miterlimit:10;enable-background:new    ;}
</style>
<g id="Camada_1_1_">
	<g id="Camada_5">
		<g>
			<g>
				<g>
					<g>
						<defs>
							<path id="SVGID_1_" d="M286.1-19.4H-24.1v217.8h23.8c0,0.2,0,0.4,0,0.6c0,72.4,59.7,131,132.1,131s131-58.7,131-131.1
								c0-0.2,0-0.4,0-0.6h23.3V-9.4L286.1-19.4z"/>
						</defs>
						<clipPath id="SVGID_2_">
							<use xlink:href="#SVGID_1_"  style="overflow:visible;"/>
						</clipPath>
						<g class="st0">
							<circle class="st1" cx="131.1" cy="198.8" r="131.1"/>
							<path class="st2" d="M190.7,246.6c0,0,26.9,22.6,41.2,85.1"/>
							<path class="st3" d="M190.7,246.6c0,0,26.9,22.6,41.2,85.1"/>
							<path class="st2" d="M73.9,246.6c0,0-26.9,22.6-41.2,85.1"/>
							<path class="st3" d="M73.9,246.6c0,0-26.9,22.6-41.2,85.1"/>
							<path class="st4" d="M166.9,229.8l-1-5.9H99l-1,5.9c-0.3,1.6-0.4,3.2-0.4,4.7c0,17.5,15.6,31.6,34.8,31.6
								s34.9-14.2,34.9-31.6C167.3,232.9,167.2,231.3,166.9,229.8z"/>
							<path class="st5" d="M173.8,238.4c-4.7,2.8-9.6,5.1-14.6,7.2c0,0.3,0,0.7,0,1c0,13.6-12.5,24.6-27.9,24.6
								c-14.2,0-26-9.5-27.6-21.6c-6-2.5-11.4-6.3-15.8-11.8C53.7,272,55.5,364.9,55.5,364.9l156.9-0.9
								C212.3,364,213.8,279.1,173.8,238.4z"/>
							<g>
								<g>
									<path class="st5" d="M183.2,286.4l48.4-24.6c-0.3-0.7-22.5-47-56.5-41.1l-7,1.1c-10.8,4.4-9.6,19.3-5.3,30.1L183.2,286.4z"
										/>
								</g>
							</g>
							<g>
								<path class="st6" d="M203.4,277.8l30.2-14c-0.3-0.7-25.6-54.2-62.5-42"/>
							</g>
							<g>
								<g>
									<path class="st5" d="M81.3,286.4L33,261.9c0.3-0.7,22.5-47,56.5-41.1l7,1.1c10.8,4.4,9.6,19.3,5.3,30.1L81.3,286.4z"/>
								</g>
							</g>
							<g>
								<path class="st6" d="M65.2,278.8L31,263.9c0.3-0.7,25.6-54.2,62.5-42"/>
							</g>
							<g>
								<path class="st7" d="M159,231c0.2,1.3,0.3,2.7,0.3,4.1c0,15.4-12.5,27.9-27.9,27.9s-27.8-12.5-27.8-27.9
									c0-1.4,0.1-2.7,0.3-4.1H159 M165.9,223H159h-55.1H97l-1,6.8c-0.2,1.7-0.4,3.5-0.4,5.2c0,19.8,16.1,35.9,35.8,35.9
									s35.8-16.1,35.8-35.9c0-1.7-0.1-3.5-0.4-5.2L165.9,223L165.9,223z"/>
							</g>
							<path class="st6" d="M194.8,259.3c0,0,13,39.5,14.6,95.2"/>
							<path class="st6" d="M71.4,259.3c0,0-13,39.5-14.6,95.2"/>
							<g>
								<path class="st4" d="M210.4,155.8c0.1,41-34.4,70.7-79.5,70.9l0,0c-45.1,0.2-77.8-29.4-78-70.4l-0.3-49
									c-0.1-15.1,1.2-25.7,9.1-37.1c19.3-27.9,73-25.7,78-25.3c20.4,1.3,45.1,7.5,57.8,25.2c7.5,10.4,12.2,27.5,12.2,46.9
									L210.4,155.8z"/>
							</g>
							<g>
								<path class="st7" d="M130.5,45.6c28.8,0,57.8,10.4,71.1,32.8c9.4,15.7,7.7,51.4,7.7,51.4c0.4,0,0.6,0,0.7,0c0,0,0,0,0.1,0
									c9.4,0,16.9,7.6,17,16.9c0,9.4-7.5,17-16.9,17c-0.1,0-0.5,0-1.1,0c-4.2,36.4-35.1,62-76.9,62.1c-0.1,0-0.2,0-0.4,0
									c-42.1,0-73.3-25.9-77.2-62.8c-1.4,0-2.3,0-2.4,0c0,0,0,0-0.1,0c-9.1,0-16.6-7.4-16.6-16.6c0-9.2,7.4-16.6,16.5-16.7
									c0.1,0,0.8,0,1.9,0l-0.1-7.3c0-4.5-0.3-35.3,7.1-47.1C72.9,56.1,101.6,45.6,130.5,45.6 M130.5,37.6c-15.7,0-31,2.9-44.2,8.3
									C71.9,51.8,60.7,60.6,54,71.2c-5.6,8.9-8.3,26-8.3,50.8v0.5v0.1l0,0c-4.2,1.1-8.1,3.3-11.2,6.5c-4.6,4.7-7.2,10.9-7.2,17.4
									c0,12,8.7,22,20.1,24.1c7.2,37.6,40.9,63.2,84.1,63.2h0.4c22.3-0.1,42.2-6.7,57.6-19.3c13.6-11.1,22.8-26.4,26.3-43.5
									c4.4-1.1,8.5-3.4,11.9-6.7c4.7-4.7,7.3-11,7.2-17.7c0-11.1-7.4-20.6-17.6-23.7c0-12-1.1-35.5-9-48.7
									c-7.1-12-18.7-21.7-33.5-28C161.8,40.6,146.5,37.6,130.5,37.6L130.5,37.6z"/>
							</g>
							<g>
								<g>
									<path class="st8" d="M210.2,138.1c5.8,0,10.6,4.7,10.6,10.5s-4.7,10.6-10.5,10.6s-10.6-4.7-10.6-10.5
										C199.7,142.9,204.4,138.2,210.2,138.1"/>
								</g>
							</g>
							<g>
								<path class="st4" d="M84.3,146.3c0,8.4,5,15.4-3.1,16.5c-0.7,0.1-29.6,0.2-30.4,0.2c-9.2,0-16.6-7.4-16.7-16.6
									c0-9.2,7.4-16.6,16.5-16.7c0.8,0,24.1,0,24.8,0.1C83.7,131,84.3,137.9,84.3,146.3z"/>
							</g>
							<g>
								<path class="st4" d="M175.8,146.9c0,8.6-5,15.8,3.3,16.8c0.7,0.1,30.3,0,31,0c9.4,0,16.9-7.6,16.9-17s-7.6-16.9-17-16.9
									c-0.8,0-24.6,0.1-25.3,0.2C176.3,131.2,175.7,138.3,175.8,146.9z"/>
							</g>
							<path class="st7" d="M97.6,89.5l-20.7,3.2c-2.6,0.4-5.1-1.4-5.5-4l-0.1-0.6c-0.4-2.6,1.4-5.1,4-5.5L96,79.4
								c2.6-0.4,5.1,1.4,5.5,4l0.1,0.6C102,86.6,100.2,89.1,97.6,89.5z"/>
							<path class="st7" d="M164.3,89.5l20.7,3.2c2.6,0.4,5.1-1.4,5.5-4l0.1-0.6c0.4-2.6-1.4-5.1-4-5.5l-20.7-3.2
								c-2.6-0.4-5.1,1.4-5.5,4l-0.1,0.6C159.9,86.6,161.7,89.1,164.3,89.5z"/>
							<g>
								<path class="st9" d="M221.3,182.7c0.5-5.9-2.1-11.9-6.8-15.6c-0.1-0.8-2.1-1.9-2.9-1.6c-0.8,0.3-1.3,1.1-1.8,1.7
									c-3.4,4.9-7.2,9.7-12.2,12.9s-11.8,4.8-17.4,2.6v-18.2c0.4-5.4-1.8-10.9-5.7-14.6s-10.7-5.1-16.1-4.4h-55.2
									c-5.3-0.6-12.2,0.7-16.1,4.4s-6.1,9.2-5.7,14.6v18.2c-5.6,2.2-12.3,0.6-17.3-2.6s-8.8-7.9-12.2-12.9c-0.5-0.7-1-1.4-1.8-1.7
									s-2.7,0.8-2.9,1.6c-4.6,3.7-7.2,9.8-6.8,15.6c0.5,5.9,4,11.5,9.1,14.4c-1.6,3.5-3.6,7.9-3.9,11.7c-0.5,5,1.3,10.2,4.8,13.9
									c3.5,3.6,8.6,5.7,13.7,5.4c-2.1,7.9-0.5,17.1,6,22.1s15.9,5.6,23,1.6c0.9-0.5,1.8-1.1,2.2-2c-1.1,3.4,1.1,7.4,3.1,10.4
									c1.9,3,4.9,5.4,8,7.1c7.4,4.2,17.4,5.5,24.3,0.8c6.9,4.8,16.9,3.5,24.3-0.8c3.1-1.8,6.1-4.1,8-7.1s4.2-7,3.1-10.4
									c0.4,0.9,1.3,1.5,2.2,2c7.1,4,16.6,3.3,23-1.6c6.5-5,8-14.2,6-22.1c5,0.3,10.2-1.7,13.7-5.4c3.5-3.6,5.3-8.8,4.8-13.9
									c-0.4-3.9-2.3-8.2-3.9-11.7C217.3,194.1,220.8,188.6,221.3,182.7z"/>
								<g>
									<path class="st10" d="M64.5,218.3c-5,0.3-10.2-1.7-13.7-5.4c-1.8-1.9-3.2-4.2-4-6.8c-0.4,1.3-0.7,2.6-0.8,3.9
										c-0.5,5,1.3,10.2,4.8,13.9c3.4,3.5,8.3,5.5,13.2,5.4C63.4,225.7,63.6,221.9,64.5,218.3z"/>
									<path class="st10" d="M191.8,240.4c-6.5,5-15.9,5.6-23,1.6c-0.9-0.5-1.8-1.1-2.2-2c1.1,3.4-1.1,7.4-3.1,10.4
										c-1.9,3-4.9,5.4-8,7.1c-7.4,4.2-17.4,5.5-24.3,0.8c-6.9,4.8-16.9,3.5-24.3-0.8c-3.1-1.8-6.1-4.1-8-7.1s-4.2-7-3.1-10.4
										c-0.4,0.9-1.3,1.5-2.2,2c-7.1,4-16.6,3.3-23-1.6c-3.3-2.5-5.3-6.1-6.2-10.1c-1.7,7.7,0,16.3,6.2,21.1
										c6.5,5,15.9,5.6,23,1.6c0.9-0.5,1.8-1.1,2.2-2c-1.1,3.4,1.1,7.4,3.1,10.4c1.9,3,4.9,5.4,8,7.1c7.4,4.2,17.4,5.5,24.3,0.8
										c6.9,4.8,16.9,3.5,24.3-0.8c3.1-1.8,6.1-4.1,8-7.1s4.2-7,3.1-10.4c0.4,0.9,1.3,1.5,2.2,2c7.1,4,16.6,3.3,23-1.6
										c6.2-4.8,7.9-13.5,6.2-21.1C197.1,234.3,195,237.9,191.8,240.4z"/>
									<path class="st10" d="M215.4,206.2c-0.8,2.5-2.2,4.9-4,6.8c-3.5,3.6-8.6,5.7-13.7,5.4c0.9,3.6,1.1,7.4,0.4,11
										c4.9,0.1,9.8-1.8,13.2-5.4c3.5-3.6,5.3-8.8,4.8-13.9C216.1,208.8,215.8,207.5,215.4,206.2z"/>
								</g>
								<path class="st11" d="M221.3,182.7c0.5-5.9-2.1-11.9-6.8-15.6c-0.1-0.8-2.1-1.9-2.9-1.6c-0.8,0.3-1.3,1.1-1.8,1.7
									c-3.4,4.9-7.2,9.7-12.2,12.9s-11.8,4.8-17.4,2.6v-18.2c0.4-5.4-1.8-10.9-5.7-14.6s-10.7-5.1-16.1-4.4h-55.2
									c-5.3-0.6-12.2,0.7-16.1,4.4s-6.1,9.2-5.7,14.6v18.2c-5.6,2.2-12.3,0.6-17.3-2.6s-8.8-7.9-12.2-12.9c-0.5-0.7-1-1.4-1.8-1.7
									s-2.7,0.8-2.9,1.6c-4.6,3.7-7.2,9.8-6.8,15.6c0.5,5.9,4,11.5,9.1,14.4c-1.6,3.5-3.6,7.9-3.9,11.7c-0.5,5,1.3,10.2,4.8,13.9
									c3.5,3.6,8.6,5.7,13.7,5.4c-2.1,7.9-0.5,17.1,6,22.1s15.9,5.6,23,1.6c0.9-0.5,1.8-1.1,2.2-2c-1.1,3.4,1.1,7.4,3.1,10.4
									c1.9,3,4.9,5.4,8,7.1c7.4,4.2,17.4,5.5,24.3,0.8c6.9,4.8,16.9,3.5,24.3-0.8c3.1-1.8,6.1-4.1,8-7.1s4.2-7,3.1-10.4
									c0.4,0.9,1.3,1.5,2.2,2c7.1,4,16.6,3.3,23-1.6c6.5-5,8-14.2,6-22.1c5,0.3,10.2-1.7,13.7-5.4c3.5-3.6,5.3-8.8,4.8-13.9
									c-0.4-3.9-2.3-8.2-3.9-11.7C217.3,194.1,220.8,188.6,221.3,182.7z"/>
							</g>
							<g>
								<path class="st12" d="M167.3,163.6c-24.7,2.9-52.5,2.9-75.3-0.4c0,0,6.9,33.8,37.6,33.8C164.2,197,167.3,163.6,167.3,163.6z
									"/>
								<path class="st11" d="M167.3,163.6c-24.7,2.9-52.5,2.9-75.3-0.4c0,0,6.9,33.8,37.6,33.8C164.2,197,167.3,163.6,167.3,163.6z
									"/>
								<path class="st13" d="M101.3,177.9c0,0,30.5,5.5,59.2,0"/>
							</g>
							<g>
								<g>
									<path class="st14" d="M45.3,111.2c0,0,32.2-27.2,78.2-5.6c0,0,7,43.3-32.9,48.2C43.1,159.6,45.3,111.2,45.3,111.2z"/>
									<path class="st12" d="M56.5,115.2c0,0,23-17.6,56-4c0,0,5,29.8-23.6,33.3C54.9,148.7,56.5,115.2,56.5,115.2z"/>
									<path class="st15" d="M45.3,111.2c0,0,32.2-27.2,78.2-5.6c0,0,7,43.3-32.9,48.2C43.1,159.6,45.3,111.2,45.3,111.2z"/>
									<path class="st15" d="M56.5,115.2c0,0,23-17.6,56-4c0,0,5,29.8-23.6,33.3C54.9,148.7,56.5,115.2,56.5,115.2z"/>
								</g>
								<g>
									<path class="st14" d="M217.9,111.2c0,0-32.2-27.2-78.2-5.6c0,0-7,43.3,32.9,48.2C220.1,159.6,217.9,111.2,217.9,111.2z"/>
									<path class="st12" d="M206.8,115.2c0,0-23-17.6-56-4c0,0-5,29.8,23.6,33.3C208.4,148.7,206.8,115.2,206.8,115.2z"/>
									<path class="st15" d="M217.9,111.2c0,0-32.2-27.2-78.2-5.6c0,0-7,43.3,32.9,48.2C220.1,159.6,217.9,111.2,217.9,111.2z"/>
									<path class="st15" d="M206.8,115.2c0,0-23-17.6-56-4c0,0-5,29.8,23.6,33.3C208.4,148.7,206.8,115.2,206.8,115.2z"/>
								</g>
								<g>
									<path class="st7" d="M140.2,112.7c-0.1-0.2-0.1-0.5-0.2-0.7c-5.9-1.2-12-0.5-17.5,0.4c-0.1,3.8-0.5,7.6-1.5,11.2
										c0.5,0.1,1.1,0.1,1.6-0.1c6.1-1.1,12.5-2,17.8-0.1c0.1,0,0.1,0,0.2,0.1C139.7,119.9,139.4,116.2,140.2,112.7z"/>
								</g>
								<path class="st16" d="M119.4,118.5c8.2-2.2,18.6-3.5,26.1,1.3"/>
							</g>
							<g id="olho_1_">
								<g>
									<path class="st7" d="M96.8,125.8c0,5.8-4.6,10.5-10.4,10.5s-10.5-4.6-10.5-10.4c0-5.8,4.6-10.5,10.4-10.5
										C92.1,115.4,96.8,120.1,96.8,125.8z"/>
								</g>
							</g>
							<g id="olho_4_">
								<g>
									<path class="st7" d="M187.6,125.8c0,5.8-4.6,10.5-10.4,10.5c-5.8,0-10.5-4.6-10.5-10.4c0-5.8,4.6-10.5,10.4-10.5
										C182.9,115.4,187.6,120.1,187.6,125.8z"/>
								</g>
							</g>
						</g>
					</g>
				</g>
			</g>
		</g>
	</g>
	<g id="Camada_4" class="st17">
		<path class="st18" d="M285.3,0.3H-25v207.8h24.8c0,0.2,0,0.4,0,0.6c0,72.4,58.7,131,131.1,131s131-58.7,131-131c0-0.2,0-0.4,0-0.6
			h23.3L285.3,0.3L285.3,0.3z"/>
	</g>
	<g id="Camada_3" class="st17">
		<circle class="st19" cx="130.9" cy="207.5" r="131.1"/>
		<path class="st18" d="M285.1,1.1H-25.2v207.8h24.9c0,0.2,0,0.4,0,0.6c0,72.4,58.7,131.1,131.1,131.1s131-58.7,131-131.1
			c0-0.2,0-0.4,0-0.6h23.3L285.1,1.1L285.1,1.1z"/>
	</g>
</g>
</svg>
