<?xml version="1.0" encoding="utf-8"?>
<!-- Generator: Adobe Illustrator 24.0.1, SVG Export Plug-In . SVG Version: 6.00 Build 0)  -->
<svg version="1.1" id="Camada_1" xmlns="http://www.w3.org/2000/svg" xmlns:xlink="http://www.w3.org/1999/xlink" x="0px" y="0px"
	 viewBox="0 0 262 330" style="enable-background:new 0 0 262 330;" xml:space="preserve">
<style type="text/css">
	.st0{clip-path:url(#SVGID_2_);}
	.st1{fill:#FFBF1F;}
	.st2{fill:none;stroke:#012442;stroke-width:48;stroke-linecap:round;stroke-linejoin:round;stroke-miterlimit:10;}
	.st3{fill:none;stroke:#FFBB71;stroke-width:30;stroke-linecap:round;stroke-linejoin:round;stroke-miterlimit:10;}
	.st4{fill:#FFBB71;}
	.st5{fill:#83D9FD;}
	.st6{fill:none;stroke:#012442;stroke-width:8;stroke-linecap:round;stroke-miterlimit:10;}
	.st7{fill:#012442;}
	.st8{fill:#F7E9DE;}
	.st9{fill:#FFFFFF;}
	.st10{fill:none;stroke:#012442;stroke-width:6;stroke-linecap:round;stroke-linejoin:round;stroke-miterlimit:10;}
	.st11{fill:#D69051;}
	.st12{fill:none;stroke:#012442;stroke-width:3;stroke-linecap:round;stroke-linejoin:round;stroke-miterlimit:10;}
	.st13{fill:#276AD6;stroke:#012442;stroke-width:8;stroke-linecap:round;stroke-linejoin:round;stroke-miterlimit:10;}
	.st14{fill:#299EED;}
	.st15{display:none;}
	.st16{display:inline;fill:#FFFFFF;}
	.st17{display:inline;opacity:0.33;fill:none;stroke:#000000;stroke-miterlimit:10;enable-background:new    ;}
</style>
<g id="Camada_5">
	<g>
		<g>
			<g>
				<defs>
					<path id="SVGID_1_" d="M286.1-19.4H-24.1v217.8h23.8c0,0.2,0,0.4,0,0.6c0,72.4,59.7,131,132.1,131c72.4,0,131-58.7,131-131.1
						c0-0.2,0-0.4,0-0.6h23.3V-9.4L286.1-19.4z"/>
				</defs>
				<clipPath id="SVGID_2_">
					<use xlink:href="#SVGID_1_"  style="overflow:visible;"/>
				</clipPath>
				<g class="st0">
					<circle class="st1" cx="131.1" cy="199" r="131.1"/>
					<path class="st2" d="M189.4,254c0,0,26.9,22.6,41.2,85"/>
					<path class="st3" d="M189.4,254c0,0,26.9,22.6,41.2,85"/>
					<path class="st2" d="M72.6,254c0,0-26.9,22.6-41.2,85"/>
					<path class="st3" d="M72.6,254c0,0-26.9,22.6-41.2,85"/>
					<path class="st4" d="M165.6,237.3l-1-5.9h-67l-1,5.9c-0.3,1.6-0.4,3.2-0.4,4.7c0,17.5,15.6,31.6,34.8,31.6S166,259.4,166,242
						C166,240.4,165.9,238.8,165.6,237.3z"/>
					<path class="st5" d="M172.5,245.9c-4.7,2.8-9.6,5.1-14.6,7.2c0,0.3,0,0.7,0,1c0,13.6-12.5,24.6-27.9,24.6
						c-14.2,0-26-9.5-27.6-21.6c-6-2.5-11.4-6.3-15.8-11.8c-34.3,34.3-32.5,127.1-32.5,127.1l156.9-0.9
						C211,371.5,212.5,286.6,172.5,245.9z"/>
					<g>
						<g>
							<path class="st5" d="M181.9,293.9l48.4-24.6c-0.3-0.7-22.5-47-56.5-41.1l-7,1.1c-10.8,4.4-9.6,19.3-5.3,30.1L181.9,293.9z"/>
						</g>
					</g>
					<g>
						<path class="st6" d="M202.1,285.3l30.2-14c-0.3-0.7-25.6-54.2-62.5-42"/>
					</g>
					<g>
						<g>
							<path class="st5" d="M80,293.9l-48.4-24.6c0.3-0.7,22.5-47,56.5-41.1l7,1.1c10.8,4.4,9.6,19.3,5.3,30.1L80,293.9z"/>
						</g>
					</g>
					<g>
						<path class="st6" d="M63.9,286.2l-34.2-14.9c0.3-0.7,25.6-54.2,62.5-42"/>
					</g>
					<g>
						<path class="st7" d="M157.7,238.4c0.2,1.3,0.3,2.7,0.3,4.1c0,15.4-12.5,27.9-27.9,27.9s-27.8-12.5-27.8-27.9
							c0-1.4,0.1-2.7,0.3-4.1H157.7 M164.6,230.4h-6.9h-55.1h-6.9l-1,6.8c-0.2,1.7-0.4,3.5-0.4,5.2c0,19.8,16.1,35.9,35.8,35.9
							s35.9-16.1,35.9-35.9c0-1.7-0.1-3.5-0.4-5.2L164.6,230.4L164.6,230.4z"/>
					</g>
					<path class="st6" d="M193.5,266.8c0,0,13,39.5,14.6,95.2"/>
					<path class="st6" d="M70.1,266.8c0,0-13,39.5-14.6,95.2"/>
					<g>
						<path class="st4" d="M209.1,175.3c0.1,41-34.4,70.8-79.5,70.9l0,0c-45.1,0.2-77.8-29.4-78-70.4l-0.3-43
							c-0.1-15.1,4.2-25.7,12.1-37.1c19.3-27.9,70-25.7,75-25.3c20.4,1.3,45.1,7.5,57.8,25.2c7.5,10.4,12.2,21.5,12.2,40.9
							L209.1,175.3z"/>
					</g>
					<g>
						<path class="st7" d="M131.2,70.1c28.1,0,56.1,9.9,69.1,31.8c9.4,15.7,7.7,47.4,7.7,47.4c0.4,0,0.6,0,0.7,0c0,0,0,0,0.1,0
							c9.4,0,16.9,7.6,17,16.9c0,9.4-7.5,17-16.9,17c-0.1,0-0.5,0-1.1,0c-4.2,36.4-35.1,62-76.9,62.1c-0.1,0-0.2,0-0.4,0
							c-42.1,0-73.3-25.9-77.2-62.8c-1.4,0-2.3,0-2.4,0c0,0,0,0-0.1,0c-9.1,0-16.6-7.4-16.6-16.6c0-9.2,8.4-15.6,17.5-15.7
							c0.1,0,0.6-37.6,7.9-49.4C71.9,81.2,101.6,70.1,131.2,70.1 M131.2,62.1c-34.5,0-65.3,13.6-78.5,34.6c-4.8,7.7-7.7,23-8.8,46.7
							c-3.6,1-6.9,2.8-9.7,5.2c-5.3,4.5-8.2,10.7-8.1,17.4c0,12,8.7,22,20.1,24.1c7.2,37.6,40.9,63.2,84.1,63.2h0.4
							c22.3-0.1,42.2-6.7,57.6-19.3c13.6-11.1,22.8-26.4,26.3-43.5c4.4-1.1,8.5-3.4,11.9-6.7c4.7-4.7,7.3-11,7.2-17.7
							c0-11.1-7.4-20.6-17.6-23.7c-0.1-11.1-1.3-31.7-9-44.7C193.8,75.5,165.5,62.1,131.2,62.1L131.2,62.1L131.2,62.1L131.2,62.1z"
							/>
					</g>
					<g>
						<g>
							<path class="st8" d="M208.9,157.6c5.8,0,10.6,4.7,10.6,10.5s-4.7,10.6-10.5,10.6c-5.8,0-10.6-4.7-10.6-10.5
								C198.4,162.4,203.1,157.7,208.9,157.6"/>
						</g>
					</g>
					<g>
						<path class="st4" d="M83,165.8c0,8.4,5,15.4-3.1,16.5c-0.7,0.1-29.6,0.2-30.4,0.2c-9.2,0-16.6-7.4-16.7-16.6
							c0-9.2,7.4-16.6,16.5-16.7c0.8,0,24.1,0,24.8,0.1C82.4,150.4,83,157.4,83,165.8z"/>
					</g>
					<g>
						<path class="st4" d="M174.5,166.4c0,8.6-5,15.8,3.3,16.8c0.7,0.1,30.3,0,31,0c9.4,0,16.9-7.6,16.9-17c0-9.4-7.6-16.9-17-16.9
							c-0.8,0-24.6,0.1-25.3,0.2C175,150.7,174.4,157.8,174.5,166.4z"/>
					</g>
					<path class="st9" d="M168,168.9c-24.7,2.9-52.5,2.9-75.3-0.4c0,0,6.9,33.8,37.6,33.8C164.9,202.4,168,168.9,168,168.9z"/>
					<path class="st10" d="M168,168.9c-24.7,2.9-52.5,2.9-75.3-0.4c0,0,6.9,33.8,37.6,33.8C164.9,202.4,168,168.9,168,168.9z"/>
					<g id="olho_17_">
						<g>
							<path class="st7" d="M91.6,146.8c0,5.8-4.6,10.5-10.4,10.5c-5.8,0-10.5-4.6-10.5-10.4c0-5.8,4.6-10.5,10.4-10.5
								C86.9,136.4,91.6,141,91.6,146.8z"/>
						</g>
					</g>
					<g id="olho_10_">
						<g>
							<path class="st7" d="M189.4,146.8c0,5.8-4.6,10.5-10.4,10.5c-5.8,0-10.5-4.6-10.5-10.4c0-5.8,4.6-10.5,10.4-10.5
								C184.7,136.4,189.4,141,189.4,146.8z"/>
						</g>
					</g>
					<g>
						<path class="st11" d="M130.8,220.6c-4.6,0-9.4-0.5-14-1.4c-1.6-0.3-2.7-1.9-2.3-3.5c0.3-1.6,1.9-2.7,3.5-2.3
							c9.2,1.9,18.7,1.7,27.3-0.5c1.6-0.4,3.2,0.6,3.6,2.2s-0.6,3.2-2.2,3.6C141.6,219.9,136.2,220.6,130.8,220.6z"/>
					</g>
					<path class="st12" d="M102.1,183.3c0,0,30.5,5.5,59.2,0"/>
					<g>
						<g>
							<circle class="st11" cx="203.3" cy="174.4" r="4.3"/>
						</g>
						<g>
							<circle class="st11" cx="183.8" cy="170" r="4.3"/>
						</g>
						<g>
							<circle class="st11" cx="190" cy="183.7" r="4.3"/>
						</g>
					</g>
					<g>
						<g>
							<circle class="st11" cx="61.8" cy="174.4" r="4.3"/>
						</g>
						<g>
							<circle class="st11" cx="81.3" cy="170" r="4.3"/>
						</g>
						<g>
							<circle class="st11" cx="75.1" cy="183.7" r="4.3"/>
						</g>
					</g>
					<path class="st13" d="M231.7,94.1c-0.3-2.9-0.7-5.9-2.5-8.3c-1.3-1.7-3.1-2.9-4.9-4c-15.1-9.3-48.7-22.6-49-22.9
						c1.6-7.9,3.1-15.8,4.6-23.7c-10.6,5.2-22.1,8.7-33.8,10.5l2.7-30c-32.2,34-69.4,30.3-102.8,48c-3.4,1.8-11.8,8.5-7.1,25
						c-7.8,0.7-13.3,8.9-13.7,16.7c-0.5,7.8,2.6,15.4,5.3,22.8c2.5,6.7,5.7,15.9,4.7,22.9c5.8-4.1,14-2.2,14.8-2.1
						c2.7-21.2,8-45.4,17.3-61c9.8,6.1,59.4,15.8,66.3,15.9c6.1,0.1,38.2-2.7,62-10.7c5.2,15.7,9.7,37.4,12.9,56.7
						c12.6-2.3,17.3,4.5,18.6,6C232.9,136.3,233.8,114.5,231.7,94.1z"/>
					<g>
						<path class="st14" d="M142.9,48.4l-0.7,7.4c-0.1,1.2,0.4,2.4,1.2,3.3c0.9,0.8,2.1,1.2,3.3,1.1c8.8-1.3,17.4-3.6,25.7-6.8
							l2.1-10.8c-8.9,3.7-18.2,6.2-27.8,7.6c-1.2,0.2-2.4-0.2-3.3-1.1C143.3,48.9,143.1,48.7,142.9,48.4z"/>
						<path class="st14" d="M171.5,68.6c-0.3,1.3,0.1,2.7,1.1,3.6c0.6,0.6,0.6,0.6,4.9,2.4c9,3.8,32.9,13.7,44.8,21
							c1.6,1,3,1.9,3.8,2.9c1.1,1.5,1.4,3.9,1.7,6.3c0.5,4.8,0.9-1.7,0-10c-0.2-2.3-0.6-4.8-1.7-6.3c-0.8-1.1-2.2-2-3.8-2.9
							c-11.9-7.3-35.8-17.3-44.8-21c-4-1.7-4.3-1.8-4.8-2.3L171.5,68.6z"/>
						<path class="st14" d="M39.4,103.2c1.2-0.1,2.3-0.7,3-1.7c0.7-1,0.9-2.2,0.6-3.4c-0.6-2.2-1-4.2-1.2-6c-0.7,0.6-1.5,1-2.4,1
							c-5.8,0.5-9.7,7.1-10.1,13c-0.1,2.3,0.1,4.6,0.5,6.9C31.1,108.1,34.6,103.6,39.4,103.2z"/>
						<path class="st14" d="M48,77.8c11.8-6.3,24-9.7,36.9-13.4c19.4-5.5,39.4-11.2,58.1-27.1l1-10.8c-19,16.5-39.4,22.3-59.1,27.9
							C72,58,59.8,61.5,48,67.7c-2.1,1.1-8.3,5.5-5.8,17.7C43.5,80.6,46.6,78.5,48,77.8z"/>
					</g>
				</g>
			</g>
		</g>
	</g>
</g>
<g id="Camada_4" class="st15">
	<path class="st16" d="M285.3,0.3H-25v207.8h24.8c0,0.2,0,0.4,0,0.6c0,72.4,58.7,131,131.1,131c72.4,0,131-58.7,131-131
		c0-0.2,0-0.4,0-0.6h23.3L285.3,0.3L285.3,0.3z"/>
</g>
<g id="Camada_3" class="st15">
	<circle class="st17" cx="130.9" cy="207.5" r="131.1"/>
	<path class="st16" d="M285.1,1.1H-25.2v207.8h24.9c0,0.2,0,0.4,0,0.6c0,72.4,58.7,131.1,131.1,131.1c72.4,0,131-58.7,131-131.1
		c0-0.2,0-0.4,0-0.6h23.3L285.1,1.1L285.1,1.1z"/>
</g>
</svg>
