<?xml version="1.0" encoding="utf-8"?>
<!-- Generator: Adobe Illustrator 24.0.1, SVG Export Plug-In . SVG Version: 6.00 Build 0)  -->
<svg version="1.1" id="Camada_1" xmlns="http://www.w3.org/2000/svg" xmlns:xlink="http://www.w3.org/1999/xlink" x="0px" y="0px"
	 viewBox="0 0 262 330" style="enable-background:new 0 0 262 330;" xml:space="preserve">
<style type="text/css">
	.st0{clip-path:url(#SVGID_2_);}
	.st1{fill:#EF6100;}
	.st2{fill:none;stroke:#012442;stroke-width:48;stroke-linecap:round;stroke-linejoin:round;stroke-miterlimit:10;}
	.st3{fill:none;stroke:#FFBB71;stroke-width:30;stroke-linecap:round;stroke-linejoin:round;stroke-miterlimit:10;}
	.st4{fill:#FFBB71;}
	.st5{fill:#83D9FD;}
	.st6{fill:none;stroke:#012442;stroke-width:8;stroke-linecap:round;stroke-miterlimit:10;}
	.st7{fill:#012442;}
	.st8{fill:#F7E9DE;}
	.st9{fill:none;stroke:#012442;stroke-width:8;stroke-linecap:round;stroke-linejoin:round;stroke-miterlimit:10;}
	.st10{fill:#FFBF1F;}
	.st11{fill:#D69051;}
	.st12{display:none;}
	.st13{display:inline;fill:#FFFFFF;}
	.st14{display:inline;opacity:0.33;fill:none;stroke:#000000;stroke-miterlimit:10;enable-background:new    ;}
</style>
<g id="Camada_5">
	<g>
		<g>
			<g>
				<defs>
					<path id="SVGID_1_" d="M285.1-20.2H-25.1v217.8h23.8c0,0.2,0,0.4,0,0.6c0,72.4,59.7,131.1,132.1,131.1
						c72.4,0,131-58.7,131-131.1c0-0.2,0-0.4,0-0.6h23.3V-10.2L285.1-20.2z"/>
				</defs>
				<clipPath id="SVGID_2_">
					<use xlink:href="#SVGID_1_"  style="overflow:visible;"/>
				</clipPath>
				<g class="st0">
					<circle class="st1" cx="131" cy="198.4" r="131.1"/>
					<path class="st2" d="M189.3,253.5c0,0,26.9,22.6,41.2,85.1"/>
					<path class="st3" d="M189.3,253.5c0,0,26.9,22.6,41.2,85.1"/>
					<path class="st2" d="M72.5,253.5c0,0-26.9,22.6-41.2,85.1"/>
					<path class="st3" d="M72.5,253.5c0,0-26.9,22.6-41.2,85.1"/>
					<path class="st4" d="M165.5,236.7l-1-5.9h-67l-1,5.9c-0.3,1.6-0.4,3.2-0.4,4.7c0,17.5,15.6,31.6,34.8,31.6s34.9-14.2,34.9-31.6
						C165.9,239.8,165.8,238.2,165.5,236.7z"/>
					<path class="st5" d="M172.4,245.3c-4.7,2.8-9.6,5.1-14.6,7.2c0,0.3,0,0.7,0,1c0,13.6-12.5,24.6-27.9,24.6
						c-14.2,0-26-9.5-27.6-21.7c-6-2.5-11.4-6.3-15.8-11.8c-34.3,34.3-32.5,127.2-32.5,127.2l156.9-0.9
						C211,370.9,212.5,286,172.4,245.3z"/>
					<g>
						<g>
							<path class="st5" d="M181.8,293.3l48.4-24.6c-0.3-0.7-22.5-47-56.5-41.1l-7,1.1c-10.8,4.4-9.6,19.3-5.3,30.1L181.8,293.3z"/>
						</g>
					</g>
					<g>
						<path class="st6" d="M202,284.8l30.2-14c-0.3-0.7-25.6-54.2-62.5-42"/>
					</g>
					<g>
						<g>
							<path class="st5" d="M80,293.3l-48.4-24.6c0.3-0.7,22.5-47,56.5-41.1l7,1.1c10.8,4.4,9.6,19.3,5.3,30.1L80,293.3z"/>
						</g>
					</g>
					<g>
						<path class="st6" d="M63.8,285.7l-34.2-14.9c0.3-0.7,25.6-54.2,62.5-42"/>
					</g>
					<g>
						<path class="st7" d="M157.6,237.9c0.2,1.3,0.3,2.7,0.3,4.1c0,15.4-12.5,27.9-27.9,27.9s-27.8-12.5-27.8-27.9
							c0-1.4,0.1-2.7,0.3-4.1H157.6 M164.5,229.9h-6.9h-55.1h-6.9l-1,6.8c-0.2,1.7-0.4,3.5-0.4,5.2c0,19.8,16.1,35.9,35.8,35.9
							s35.8-16.1,35.8-35.9c0-1.7-0.1-3.5-0.4-5.2L164.5,229.9L164.5,229.9z"/>
					</g>
					<path class="st6" d="M193.4,266.2c0,0,13,39.5,14.6,95.2"/>
					<path class="st6" d="M70,266.2c0,0-13,39.5-14.6,95.2"/>
					<g>
						<path class="st4" d="M209.1,174.7c0.1,41-34.4,70.8-79.5,70.9l0,0c-45.1,0.2-77.8-29.4-78-70.4l-0.3-43
							c-0.1-15.1,4.2-25.7,12.1-37.1c19.3-27.9,70-25.7,75-25.3c20.4,1.3,45.1,7.5,57.8,25.2c7.5,10.4,12.2,21.5,12.2,40.9
							L209.1,174.7z"/>
					</g>
					<g>
						<path class="st7" d="M131.1,69.5c28.1,0,56.1,9.9,69.1,31.8c9.4,15.7,7.7,47.4,7.7,47.4c0.4,0,0.6,0,0.7,0c0,0,0,0,0.1,0
							c9.4,0,16.9,7.6,17,16.9c0,9.4-7.5,17-16.9,17c-0.1,0-0.5,0-1.1,0c-4.2,36.4-35.1,62-76.9,62.1c-0.1,0-0.2,0-0.4,0
							c-42.1,0-73.3-25.9-77.2-62.8c-1.4,0-2.3,0-2.4,0c0,0,0,0-0.1,0c-9.1,0-16.6-7.4-16.6-16.6c0-9.2,8.4-15.6,17.5-15.7
							c0.1,0,0.6-37.6,7.9-49.4C71.9,80.6,101.6,69.5,131.1,69.5 M131.1,61.5c-34.5,0-65.3,13.6-78.5,34.6c-4.8,7.7-7.7,23-8.8,46.7
							c-3.6,1-6.9,2.8-9.7,5.2c-5.3,4.5-8.2,10.7-8.1,17.4c0,12,8.7,22,20.1,24.1c7.2,37.6,40.9,63.2,84.1,63.2h0.4
							c22.3-0.1,42.2-6.7,57.6-19.3c13.6-11.1,22.8-26.4,26.3-43.5c4.4-1.1,8.5-3.4,11.9-6.7c4.7-4.7,7.3-11,7.3-17.7
							c0-11.1-7.4-20.6-17.6-23.7c-0.1-11.1-1.3-31.7-9-44.7C193.8,74.9,165.4,61.5,131.1,61.5L131.1,61.5
							C131.1,61.5,131.1,61.5,131.1,61.5L131.1,61.5z"/>
					</g>
					<g>
						<g>
							<path class="st8" d="M208.9,157.1c5.8,0,10.6,4.7,10.6,10.5s-4.7,10.6-10.5,10.6c-5.8,0-10.6-4.7-10.6-10.5
								C198.3,161.8,203,157.1,208.9,157.1"/>
						</g>
					</g>
					<g>
						<path class="st4" d="M83,165.2c0,8.4,5,15.4-3.1,16.5c-0.7,0.1-29.6,0.2-30.4,0.2c-9.2,0-16.6-7.4-16.7-16.6
							c0-9.2,7.4-16.6,16.5-16.7c0.8,0,24.1,0,24.8,0.1C82.3,149.9,82.9,156.8,83,165.2z"/>
					</g>
					<g>
						<path class="st4" d="M174.4,165.8c0,8.6-5,15.8,3.3,16.8c0.7,0.1,30.3,0,31,0c9.4,0,16.9-7.6,16.9-17c0-9.4-7.6-16.9-17-16.9
							c-0.8,0-24.6,0.1-25.3,0.2C175,150.1,174.3,157.2,174.4,165.8z"/>
					</g>
					<g id="olho_17_">
						<g>
							<path class="st7" d="M94.5,146.2c0,5.8-4.6,10.5-10.4,10.5c-5.8,0-10.5-4.6-10.5-10.4c0-5.8,4.6-10.5,10.4-10.5
								C89.8,135.8,94.5,140.4,94.5,146.2z"/>
						</g>
					</g>
					<g id="olho_10_">
						<g>
							<path class="st7" d="M187.3,146.2c0,5.8-4.6,10.5-10.4,10.5c-5.8,0-10.5-4.6-10.5-10.4c0-5.8,4.6-10.5,10.4-10.5
								C182.6,135.8,187.3,140.4,187.3,146.2z"/>
						</g>
					</g>
					<path class="st9" d="M224.2,151.3c8.2-13.5,12.8-33.9,10-49.7c7.3,1.3,14.7,2.2,21.6,5c-4.4-18.6-34.5-81.6-110.4-81.6
						c-26,0-82.7,5.7-82.4,37.4c-12.6-2.4-25.6,1.6-33.6,12.6c-16,24-3,52,2.9,76.1c3.5-2.5-2.6-11,0,0c6.1-3.1,11.1-6.1,16.1-10.1
						c1-27,21-49,45.1-57.7c2.9,16.7,14.5,30.1,28.4,39c0.2-8.8,1.9-17.5,3.3-26.1c11.2,15.8,28.2,29.8,48.6,29.9
						c-1.3-6.9-1.8-14-1.6-21c10.1,9.9,26.4,15.8,39.1,20.6l1.4,19.5C217.6,145.8,222.2,149.2,224.2,151.3z"/>
					<path class="st1" d="M224.2,151.3c8.2-13.5,12.8-33.9,10-49.7c7.3,1.3,14.7,2.2,21.6,5c-4.4-18.6-34.5-81.6-110.4-81.6
						c-26,0-82.7,5.7-82.4,37.4c-12.6-2.4-25.6,1.6-33.6,12.6c-16,24-3,52,2.9,76.1c3.5-2.5-2.6-11,0,0c6.1-3.1,11.1-6.1,16.1-10.1
						c1-27,21-49,45.1-57.7c2.9,16.7,14.5,30.1,28.4,39c0.2-8.8,1.9-17.5,3.3-26.1c11.2,15.8,28.2,29.8,48.6,29.9
						c-1.3-6.9-1.8-14-1.6-21c10.1,9.9,26.4,15.8,39.1,20.6l1.4,19.5C217.6,145.8,222.2,149.2,224.2,151.3z"/>
					<path class="st10" d="M256.8,108.9c-4.4-18.6-34.5-81.6-110.4-81.6c-26,0-82.7,5.7-82.4,37.4c-12.6-2.4-25.6,1.6-33.6,12.6
						c-16,24-3,52,2.9,76.1c2.2-1.1,4.2-2.2,6.1-3.3c-6.5-29.6-1.8-64.1,32.4-66c12.6-63.8,136.6-40.2,157.8,6.7
						c-1.9-4.2-22.8-2.3-26.3-0.6c24.6,17.9,25.4,38.7,14.8,58.6c3.1,1.4,5.8,3.5,7.2,4.9c8.2-13.5,12.7-33.9,10-49.7
						C242.4,105.1,249.9,106.1,256.8,108.9z"/>
					<path class="st9" d="M224.2,151.3c8.2-13.5,12.8-33.9,10-49.7c7.3,1.3,14.7,2.2,21.6,5c-4.4-18.6-34.5-81.6-110.4-81.6
						c-26,0-82.7,5.7-82.4,37.4c-12.6-2.4-25.6,1.6-33.6,12.6c-16,24-3,52,2.9,76.1c3.5-2.5-2.6-11,0,0c6.1-3.1,11.1-6.1,16.1-10.1
						c1-27,21-49,45.1-57.7c2.9,16.7,14.5,30.1,28.4,39c0.2-8.8,1.9-17.5,3.3-26.1c11.2,15.8,28.2,29.8,48.6,29.9
						c-1.3-6.9-1.8-14-1.6-21c10.1,9.9,26.4,15.8,39.1,20.6l1.4,19.5C217.6,145.8,222.2,149.2,224.2,151.3z"/>
					<path class="st9" d="M97.7,191.2c20.7,12.9,48.7,13.9,68.7-0.9"/>
					<g>
						<path class="st11" d="M131.8,219.6c-4.7,0-9.4-0.5-14.1-1.4c-1.9-0.4-3.1-2.2-2.7-4.1s2.2-3.1,4.1-2.7
							c9.1,1.9,18.5,1.7,27.1-0.5c1.9-0.5,3.8,0.6,4.3,2.5c0.5,1.9-0.6,3.8-2.5,4.3C142.7,219,137.3,219.6,131.8,219.6z"/>
					</g>
					<path class="st7" d="M91.6,130.4l-20.7,3.2c-2.6,0.4-5.1-1.4-5.5-4l-0.1-0.6c-0.4-2.6,1.4-5.1,4-5.5l20.7-3.2
						c2.6-0.4,5.1,1.4,5.5,4l0.1,0.6C96,127.6,94.2,130,91.6,130.4z"/>
					<path class="st7" d="M168.3,130.4l20.7,3.2c2.6,0.4,5.1-1.4,5.5-4l0.1-0.6c0.4-2.6-1.4-5.1-4-5.5l-20.7-3.2
						c-2.6-0.4-5.1,1.4-5.5,4l-0.1,0.6C163.9,127.6,165.7,130,168.3,130.4z"/>
				</g>
			</g>
		</g>
	</g>
</g>
<g id="Camada_4" class="st12">
	<path class="st13" d="M285.3,0.3H-25v207.8h24.8c0,0.2,0,0.4,0,0.6c0,72.4,58.7,131,131.1,131c72.4,0,131-58.7,131-131
		c0-0.2,0-0.4,0-0.6h23.3L285.3,0.3L285.3,0.3z"/>
</g>
<g id="Camada_3" class="st12">
	<circle class="st14" cx="130.9" cy="207.5" r="131.1"/>
	<path class="st13" d="M285.1,1.1H-25.2v207.8h24.9c0,0.2,0,0.4,0,0.6c0,72.4,58.7,131.1,131.1,131.1c72.4,0,131-58.7,131-131.1
		c0-0.2,0-0.4,0-0.6h23.3L285.1,1.1L285.1,1.1z"/>
</g>
</svg>
