<?xml version="1.0" encoding="utf-8"?>
<!-- Generator: Adobe Illustrator 24.0.1, SVG Export Plug-In . SVG Version: 6.00 Build 0)  -->
<svg version="1.1" xmlns="http://www.w3.org/2000/svg" xmlns:xlink="http://www.w3.org/1999/xlink" x="0px" y="0px"
	 viewBox="0 0 262 330" style="enable-background:new 0 0 262 330;" xml:space="preserve">
<style type="text/css">
	.st0{clip-path:url(#SVGID_2_);}
	.st1{fill:#EF6100;}
	.st2{fill:none;stroke:#012442;stroke-width:48;stroke-linecap:round;stroke-linejoin:round;stroke-miterlimit:10;}
	.st3{fill:none;stroke:#FFBB71;stroke-width:30;stroke-linecap:round;stroke-linejoin:round;stroke-miterlimit:10;}
	.st4{fill:#FFBB71;}
	.st5{fill:#83D9FD;}
	.st6{fill:none;stroke:#012442;stroke-width:8;stroke-linecap:round;stroke-miterlimit:10;}
	.st7{fill:#012442;}
	.st8{fill:#F7E9DE;}
	.st9{fill:#FFBF1F;}
	.st10{fill:none;stroke:#012442;stroke-width:8;stroke-linecap:round;stroke-linejoin:round;stroke-miterlimit:10;}
	.st11{fill:#FFFFFF;}
	.st12{fill:none;stroke:#D69051;stroke-width:6;stroke-linecap:round;stroke-linejoin:round;stroke-miterlimit:10;}
	.st13{fill:none;stroke:#012442;stroke-width:3;stroke-linecap:round;stroke-linejoin:round;stroke-miterlimit:10;}
	.st14{display:none;}
	.st15{display:inline;fill:#FFFFFF;}
	.st16{display:inline;opacity:0.33;fill:none;stroke:#000000;stroke-miterlimit:10;enable-background:new    ;}
	.st17{display:inline;}
	.st18{fill:#2BB2FC;}
	.st19{fill:none;stroke:#2BB2FC;stroke-miterlimit:10;}
</style>
<g id="Camada_1">
	<g id="Camada_5">
		<g>
			<g>
				<g>
					<defs>
						<path id="SVGID_1_" d="M286.1-19.4H-24.1v217.8h23.8c0,0.2,0,0.4,0,0.6c0,72.4,59.7,131,132.1,131c72.4,0,131-58.7,131-131.1
							c0-0.2,0-0.4,0-0.6h23.3V-9.4L286.1-19.4z"/>
					</defs>
					<clipPath id="SVGID_2_">
						<use xlink:href="#SVGID_1_"  style="overflow:visible;"/>
					</clipPath>
					<g class="st0">
						<circle class="st1" cx="131.2" cy="199.2" r="131.1"/>
						<path class="st2" d="M190.8,246.9c0,0,26.9,22.6,41.2,85.1"/>
						<path class="st3" d="M190.8,246.9c0,0,26.9,22.6,41.2,85.1"/>
						<path class="st2" d="M74,246.9c0,0-26.9,22.6-41.2,85.1"/>
						<path class="st3" d="M74,246.9c0,0-26.9,22.6-41.2,85.1"/>
						<path class="st4" d="M167,230.1l-1-5.9h-67l-1,5.9c-0.3,1.6-0.4,3.2-0.4,4.7c0,17.5,15.6,31.6,34.8,31.6s34.9-14.2,34.9-31.6
							C167.4,233.3,167.3,231.7,167,230.1z"/>
						<path class="st5" d="M173.9,238.8c-4.7,2.8-9.6,5.1-14.6,7.2c0,0.3,0,0.7,0,1c0,13.6-12.5,24.6-27.9,24.6
							c-14.2,0-26-9.5-27.6-21.6c-6-2.5-11.4-6.3-15.8-11.8c-34.3,34.3-32.5,127.1-32.5,127.1l156.9-0.8
							C212.5,364.4,214,279.5,173.9,238.8z"/>
						<g>
							<g>
								<path class="st5" d="M183.3,286.8l48.4-24.6c-0.3-0.7-22.5-47-56.5-41.1l-7,1.1c-10.8,4.4-9.6,19.3-5.3,30.1L183.3,286.8z"
									/>
							</g>
						</g>
						<g>
							<path class="st6" d="M203.5,278.2l30.2-14c-0.3-0.7-25.6-54.2-62.5-42"/>
						</g>
						<g>
							<g>
								<path class="st5" d="M81.5,286.8l-48.4-24.6c0.3-0.7,22.5-47,56.5-41.1l7,1.1c10.8,4.4,9.6,19.3,5.3,30.1L81.5,286.8z"/>
							</g>
						</g>
						<g>
							<path class="st6" d="M65.3,279.1l-34.2-14.9c0.3-0.7,25.6-54.2,62.5-42"/>
						</g>
						<g>
							<path class="st7" d="M159.1,231.3c0.2,1.3,0.3,2.7,0.3,4.1c0,15.4-12.5,27.9-27.9,27.9s-27.8-12.5-27.8-27.9
								c0-1.4,0.1-2.7,0.3-4.1H159.1 M166,223.3h-6.9H104h-6.9l-1,6.8c-0.2,1.7-0.4,3.5-0.4,5.2c0,19.8,16.1,35.9,35.8,35.9
								s35.9-16.1,35.9-35.9c0-1.7-0.1-3.5-0.4-5.2L166,223.3L166,223.3z"/>
						</g>
						<path class="st6" d="M194.9,259.7c0,0,13,39.5,14.6,95.2"/>
						<path class="st6" d="M71.5,259.7c0,0-13,39.5-14.6,95.2"/>
						<g>
							<path class="st4" d="M210.6,168.1c0.1,41-34.4,70.7-79.5,70.9l0,0c-45.1,0.2-77.8-29.4-78-70.4l-0.3-49
								c-0.1-15.1,1.2-25.7,9.1-37.1c19.3-27.9,73-25.7,78-25.3c20.4,1.3,45.1,7.5,57.8,25.2c7.5,10.4,12.2,27.5,12.2,46.9
								L210.6,168.1z"/>
						</g>
						<g>
							<path class="st7" d="M130.6,58c28.8,0,57.8,10.4,71.1,32.8c9.4,15.7,7.7,51.4,7.7,51.4c0.4,0,0.6,0,0.7,0c0,0,0,0,0.1,0
								c9.4,0,16.9,7.6,17,16.9c0,9.4-7.5,17-16.9,17c-0.1,0-0.5,0-1.1,0c-4.2,36.4-35.1,62-76.9,62.1c-0.1,0-0.2,0-0.4,0
								c-42.1,0-73.3-25.9-77.2-62.8c-1.4,0-2.3,0-2.4,0c0,0,0,0-0.1,0c-9.1,0-16.6-7.4-16.6-16.6c0-9.2,7.4-16.6,16.5-16.7
								c0.1,0,0.8,0,1.9,0l-0.1-7.3c0-4.5-0.3-35.3,7.1-47.1C73.1,68.5,101.7,58,130.6,58 M130.6,50c-15.7,0-31,2.9-44.2,8.3
								C72,64.2,60.8,73,54.2,83.6c-5.6,8.9-8.3,26-8.3,50.8v0.5v0.1v0c-4.2,1.1-8.1,3.3-11.2,6.5c-4.6,4.7-7.2,10.9-7.2,17.4
								c0,12,8.7,22,20.1,24.1c7.2,37.6,40.9,63.2,84.1,63.2h0.4c22.3-0.1,42.2-6.7,57.6-19.3c13.6-11.1,22.8-26.4,26.3-43.5
								c4.4-1.1,8.5-3.4,11.9-6.7c4.7-4.7,7.3-11,7.2-17.7c0-11.1-7.4-20.6-17.6-23.7c0-12-1.1-35.5-9-48.7
								c-7.1-12-18.7-21.7-33.5-28C162,53,146.6,50,130.6,50L130.6,50z"/>
						</g>
						<g>
							<g>
								<path class="st8" d="M210.4,150.5c5.8,0,10.6,4.7,10.6,10.5s-4.7,10.6-10.5,10.6c-5.8,0-10.6-4.7-10.6-10.5
									C199.8,155.3,204.5,150.5,210.4,150.5"/>
							</g>
						</g>
						<g>
							<path class="st4" d="M84.5,158.7c0,8.4,5,15.4-3.1,16.5c-0.7,0.1-29.6,0.2-30.4,0.2c-9.2,0-16.6-7.4-16.7-16.6
								c0-9.2,7.4-16.6,16.5-16.7c0.8,0,24.1,0,24.8,0.1C83.8,143.3,84.4,150.3,84.5,158.7z"/>
						</g>
						<g>
							<path class="st4" d="M175.9,159.3c0,8.6-5,15.8,3.3,16.8c0.7,0.1,30.3,0,31,0c9.4,0,16.9-7.6,16.9-17c0-9.4-7.6-16.9-17-16.9
								c-0.8,0-24.6,0.1-25.3,0.2C176.5,143.6,175.9,150.7,175.9,159.3z"/>
						</g>
						<path class="st1" d="M31.1,150.5c-2.3-35.5,2.2-71.3,13-105.2c8.4,0.7,16.4,1.9,24.3,4.9c1-9.4,0.1-19.4-0.9-28.8
							c17.2-1.8,35.2,4.7,48.3,16c2.7-9.5,3.7-18,3.9-27.9c17.1,5.5,31.6,14.8,42,29.5c4.9-7.3,7.4-16.3,9.6-24.8
							c19.5,8.4,34.8,26.4,40.7,46.7c3.9-4.6,5.7-9.2,9.6-13.8c5.6,8.6,8,19,8.7,29.2c1.6,22.4-0.3,45.1-5.8,66.9
							c-4.2-2.6-8.4-4.4-13.3-4.6c3.8-20.1-4.1-42-19.8-55.1c-13.4-11.2-31-15.7-48.2-18.4c4.9,7.7,11.1,14.6,18.2,20.3
							c-18.5,0.5-37-3.3-53.8-11.1c4,7.2,8,14.7,12.1,21.9c-17.3,0.2-36.3-0.2-49.4-11.5c-5.3,2.7-8,8.3-10.2,13.8
							c-5.2,13-6.6,24.2-10,40.1C42.7,138.6,34.3,143.9,31.1,150.5z"/>
						<path class="st9" d="M45.6,47.6c-4.2,13.3-7.4,27-9.5,40.8c-0.4,2.6,3.1,3.8,4.4,1.5c4.3-7.9,9.6-15.3,15.8-21.8
							c0.7-0.7,1.7-0.9,2.5-0.6c6.5,2.4,12.8,5.2,19,8.3c1.4,0.7,3-0.1,3.4-1.5c2.1-8.6,3.1-18.5,2.5-30.4c-0.1-1.6,1.5-2.8,3-2.4
							c10.4,3.1,25.2,8.9,35.6,20.6c1.1,1.2,3.1,1,3.8-0.4c3.5-6.6,5.5-13.4,6.3-20.9c0.2-1.5,1.7-2.5,3.1-2
							c11.7,4.1,21.2,10.1,30.1,18.8c1,1,2.6,0.9,3.5-0.3c4.1-5.4,6.4-11.7,8.1-18.3c0.4-1.5,2-2.2,3.4-1.5
							c14.9,7.8,24.7,22.6,31.3,38.3c0.6,1.4,2.4,1.9,3.6,0.9c1.8-1.5,3.2-3.1,4.8-4.8c1-1.2,2.8-1.1,3.7,0.1c1.6,2,3,4.2,4.2,6.4
							c1.2,2.1,4.5,1.1,4.3-1.3c0,0,0-0.1,0-0.1c-0.7-9-2.6-18.2-6.9-26.1c-0.8-1.5-3-1.7-4-0.3c-1.7,2.4-3,4.8-4.7,7.2
							c-1.1,1.6-3.5,1.3-4.2-0.6c-6.4-17.7-19.8-33.1-36.7-41.3c-1.3-0.6-2.9,0.1-3.3,1.5c-1.7,6.5-3.7,13.2-7,19.1
							c-0.8,1.5-2.9,1.7-3.9,0.3c-9.6-12.2-22.2-20.4-36.9-25.7c-1.5-0.5-3.1,0.5-3.1,2.1c-0.2,7.4-1.1,14.1-2.9,21.2
							c-0.4,1.6-2.4,2.3-3.7,1.3C103,26.2,87.3,20.8,72.1,21.7c-1.3,0.1-2.3,1.2-2.2,2.6c0.8,7.7,1.4,15.7,0.9,23.3
							c-0.1,1.5-1.6,2.6-3.1,2.1c-6.4-2.1-12.9-3.1-19.6-3.8C47,45.8,46,46.5,45.6,47.6z"/>
						<path class="st10" d="M31.8,150.1c-2.3-35.4,2.2-71.3,13-105.2c8.4,0.7,16.4,1.9,24.3,4.9c1-9.4,0.1-19.4-0.9-28.8
							c17.2-1.8,35.2,4.7,48.3,16c2.7-9.5,3.7-18,3.9-27.9c17.1,5.5,31.6,14.8,42,29.5c4.9-7.3,7.4-16.3,9.6-24.8
							c19.5,8.4,34.8,26.4,40.7,46.7c3.9-4.6,5.7-9.2,9.6-13.8c5.6,8.6,8,19,8.7,29.2c1.6,22.4-0.3,45.1-5.8,66.9
							c-4.2-2.6-8.4-4.4-13.3-4.6c3.8-20.1-4.1-42-19.8-55.1c-13.4-11.2-31-15.7-48.2-18.4c4.9,7.7,11.1,14.6,18.2,20.3
							c-18.5,0.5-37-3.3-53.8-11.1c4,7.2,8,14.7,12.1,21.9C103.1,96,84.1,95.6,71,84.3c-5.3,2.7-8,8.3-10.2,13.8
							c-5.2,13-6.6,24.2-10,40.1C43.5,138.2,35,143.5,31.8,150.1z"/>
						<g>
							<path class="st7" d="M95.4,119.5l-20.7,3.2c-2.6,0.4-5.1-1.4-5.5-4l-0.1-0.6c-0.4-2.6,1.4-5.1,4-5.5l20.7-3.2
								c2.6-0.4,5.1,1.4,5.5,4l0.1,0.6C99.9,116.6,98.1,119.1,95.4,119.5z"/>
							<path class="st7" d="M168.7,119.5l20.7,3.2c2.6,0.4,5.1-1.4,5.5-4l0.1-0.6c0.4-2.6-1.4-5.1-4-5.5l-20.7-3.2
								c-2.6-0.4-5.1,1.4-5.5,4l-0.1,0.6C164.3,116.6,166.1,119.1,168.7,119.5z"/>
							<path class="st11" d="M168.8,162.3c-24.7,2.9-52.5,2.9-75.3-0.4c0,0,6.9,33.8,37.6,33.8C165.7,195.7,168.8,162.3,168.8,162.3
								z"/>
							<path class="st10" d="M168.8,162.3c-24.7,2.9-52.5,2.9-75.3-0.4c0,0,6.9,33.8,37.6,33.8C165.7,195.7,168.8,162.3,168.8,162.3
								z"/>
							<path class="st12" d="M118.1,209.5c9.4,1.9,19.3,1.9,28.6-0.5"/>
							<path class="st13" d="M102.8,176.6c0,0,30.5,5.5,59.2,0"/>
							<path class="st10" d="M73,140.7c6.6-2.5,15-3.6,20.8,1.3"/>
							<path class="st10" d="M167.3,141.2c6.6-2.5,15-3.6,20.8,1.3"/>
						</g>
					</g>
				</g>
			</g>
		</g>
	</g>
	<g id="Camada_4" class="st14">
		<path class="st15" d="M286.1-9.4H-24.1v207.8H0.7c0,0.2,0,0.4,0,0.6C0.7,271.3,59.4,330,131.7,330c72.4,0,131.1-58.7,131.1-131.1
			c0-0.2,0-0.4,0-0.6h23.3L286.1-9.4L286.1-9.4z"/>
	</g>
	<g id="Camada_3" class="st14">
		<circle class="st16" cx="132" cy="196.9" r="131.1"/>
		<path class="st15" d="M286.1-9.4H-24.1v207.8H0.7c0,0.2,0,0.4,0,0.6c0,72.4,58.7,131,131.1,131c72.4,0,131-58.7,131-131.1
			c0-0.2,0-0.4,0-0.6h23.3L286.1-9.4L286.1-9.4z"/>
	</g>
</g>
<g id="Camada_2" class="st14">
	<g class="st17">
		<g>
			<path class="st18" d="M261,1v328H1V1H261 M262,0H0v330h262V0L262,0z"/>
		</g>
		<line class="st19" x1="1.4" y1="139.5" x2="261.1" y2="139.5"/>
		<line class="st19" x1="0.8" y1="201.8" x2="261.1" y2="201.8"/>
		<line class="st19" x1="261.4" y1="242.8" x2="1.1" y2="242.8"/>
		<ellipse class="st19" cx="131" cy="161.8" rx="84.3" ry="80.6"/>
		<ellipse class="st19" cx="83.8" cy="139.5" rx="12.5" ry="12.5"/>
		<ellipse class="st19" cx="179.7" cy="139.5" rx="12.5" ry="12.5"/>
		<ellipse class="st19" cx="131" cy="198.7" rx="131" ry="131.3"/>
		<line class="st19" x1="131" y1="329.3" x2="131" y2="1.1"/>
		<line class="st19" x1="47" y1="329.3" x2="47" y2="1.1"/>
		<line class="st19" x1="215" y1="329.3" x2="215" y2="1.1"/>
	</g>
</g>
</svg>
