<?xml version="1.0" encoding="utf-8"?>
<!-- Generator: Adobe Illustrator 24.0.1, SVG Export Plug-In . SVG Version: 6.00 Build 0)  -->
<svg version="1.1" xmlns="http://www.w3.org/2000/svg" xmlns:xlink="http://www.w3.org/1999/xlink" x="0px" y="0px"
	 viewBox="0 0 262 330" style="enable-background:new 0 0 262 330;" xml:space="preserve">
<style type="text/css">
	.st0{display:none;}
	.st1{display:inline;fill:#FFFFFF;}
	.st2{display:inline;opacity:0.33;fill:none;stroke:#000000;stroke-miterlimit:10;enable-background:new    ;}
	.st3{clip-path:url(#SVGID_2_);}
	.st4{fill:#FFBF1F;}
	.st5{fill:none;stroke:#012442;stroke-width:48;stroke-linecap:round;stroke-linejoin:round;stroke-miterlimit:10;}
	.st6{fill:none;stroke:#FFBB71;stroke-width:30;stroke-linecap:round;stroke-linejoin:round;stroke-miterlimit:10;}
	.st7{fill:#FFBB71;}
	.st8{fill:#83D9FD;}
	.st9{fill:none;stroke:#012442;stroke-width:8;stroke-linecap:round;stroke-miterlimit:10;}
	.st10{fill:#012442;}
	.st11{fill:#F7E9DE;}
	.st12{fill:#2F61DD;}
	.st13{fill:#299EED;}
	.st14{fill:none;stroke:#012442;stroke-width:6;stroke-linecap:round;stroke-linejoin:round;stroke-miterlimit:10;}
	.st15{fill:#FFFFFF;}
	.st16{fill:none;stroke:#012442;stroke-width:3;stroke-linecap:round;stroke-linejoin:round;stroke-miterlimit:10;}
	.st17{fill:#EF6100;}
	.st18{fill:none;stroke:#012442;stroke-width:8;stroke-miterlimit:10;}
	.st19{fill:none;stroke:#042342;stroke-width:4;stroke-linecap:round;stroke-linejoin:round;stroke-miterlimit:10;}
	.st20{display:inline;}
	.st21{fill:#2BB2FC;}
	.st22{fill:none;stroke:#2BB2FC;stroke-miterlimit:10;}
</style>
<g id="Camada_1">
	<g id="Camada_4" class="st0">
		<path class="st1" d="M285.3,0.3H-25v207.8h24.8c0,0.2,0,0.4,0,0.6c0,72.4,58.7,131,131.1,131c72.4,0,131-58.7,131-131
			c0-0.2,0-0.4,0-0.6h23.3L285.3,0.3L285.3,0.3z"/>
	</g>
	<g id="Camada_3" class="st0">
		<circle class="st2" cx="130.9" cy="207.5" r="131.1"/>
		<path class="st1" d="M285.1,1.1H-25.2v207.8h24.9c0,0.2,0,0.4,0,0.6c0,72.4,58.7,131.1,131.1,131.1c72.4,0,131-58.7,131-131.1
			c0-0.2,0-0.4,0-0.6h23.3L285.1,1.1L285.1,1.1z"/>
	</g>
	<g>
		<defs>
			<path id="SVGID_1_" d="M286.1-20.1H-24.1v217.8h23.8c0,0.2,0,0.4,0,0.6c0,72.4,59.7,131,132.1,131c72.4,0,131-58.7,131-131
				c0-0.2,0-0.4,0-0.6h23.3V-10.1L286.1-20.1z"/>
		</defs>
		<clipPath id="SVGID_2_">
			<use xlink:href="#SVGID_1_"  style="overflow:visible;"/>
		</clipPath>
		<g class="st3">
			<circle class="st4" cx="131.1" cy="199.4" r="131.1"/>
			<g>
				<path class="st5" d="M190.7,247.2c0,0,26.9,22.6,41.2,85.1"/>
			</g>
			<g>
				<path class="st6" d="M190.7,247.2c0,0,26.9,22.6,41.2,85.1"/>
			</g>
			<g>
				<path class="st5" d="M73.9,247.2c0,0-26.9,22.6-41.2,85.1"/>
			</g>
			<g>
				<path class="st6" d="M73.9,247.2c0,0-26.9,22.6-41.2,85.1"/>
			</g>
			<g>
				<path class="st7" d="M167,230.4l-1-5.9H99l-1,5.9c-0.3,1.6-0.4,3.2-0.4,4.7c0,17.5,15.6,31.6,34.8,31.6s34.9-14.2,34.9-31.6
					C167.4,233.5,167.2,232,167,230.4z"/>
			</g>
			<g>
				<path class="st8" d="M173.8,239c-4.7,2.8-9.6,5.1-14.6,7.2c0,0.3,0,0.7,0,1c0,13.6-12.5,24.6-27.9,24.6
					c-14.2,0-26-9.5-27.6-21.6c-6-2.5-11.4-6.3-15.8-11.8c-34.3,34.3-32.5,127.2-32.5,127.2l156.9-0.9
					C212.4,364.6,213.9,279.7,173.8,239z"/>
			</g>
			<g>
				<g>
					<g>
						<path class="st8" d="M183.2,287l48.4-24.6c-0.3-0.7-22.5-47-56.5-41.1l-7,1.1c-10.8,4.4-9.6,19.3-5.3,30.1L183.2,287z"/>
					</g>
				</g>
			</g>
			<g>
				<g>
					<path class="st9" d="M203.4,278.5l30.2-14c-0.3-0.7-25.6-54.2-62.5-42"/>
				</g>
			</g>
			<g>
				<g>
					<g>
						<path class="st8" d="M81.4,287L33,262.5c0.3-0.7,22.5-47,56.5-41.1l7,1.1c10.8,4.4,9.6,19.3,5.3,30.1L81.4,287z"/>
					</g>
				</g>
			</g>
			<g>
				<g>
					<path class="st9" d="M65.2,279.4L31,264.5c0.3-0.7,25.6-54.2,62.5-42"/>
				</g>
			</g>
			<g>
				<g>
					<path class="st10" d="M159,231.6c0.2,1.3,0.3,2.7,0.3,4.1c0,15.4-12.5,27.9-27.9,27.9s-27.8-12.5-27.8-27.9
						c0-1.4,0.1-2.7,0.3-4.1H159 M165.9,223.6H159h-55.1H97l-1,6.8c-0.2,1.7-0.4,3.5-0.4,5.2c0,19.8,16.1,35.9,35.8,35.9
						s35.8-16.1,35.8-35.9c0-1.7-0.1-3.5-0.4-5.2L165.9,223.6L165.9,223.6z"/>
				</g>
			</g>
			<g>
				<path class="st9" d="M194.9,259.9c0,0,13,39.5,14.6,95.2"/>
			</g>
			<g>
				<path class="st9" d="M71.4,259.9c0,0-13,39.5-14.6,95.2"/>
			</g>
			<g>
				<g>
					<path class="st7" d="M210.5,175.4c0.1,41-34.4,70.7-79.5,70.9l0,0c-45.1,0.2-77.8-29.4-78-70.4l-0.3-49
						c-0.1-15.1,4.2-25.7,12.1-37.1c19.3-27.9,70-25.7,75-25.3c20.4,1.3,45.1,7.5,57.8,25.2c7.5,10.4,12.2,27.5,12.2,46.9
						L210.5,175.4z"/>
				</g>
			</g>
			<g>
				<g>
					<path class="st10" d="M130.5,65.3c28.8,0,57.8,10.4,71.1,32.8c9.4,15.7,7.7,51.4,7.7,51.4c0.4,0,0.6,0,0.7,0c0,0,0,0,0.1,0
						c9.4,0,16.9,7.6,17,16.9c0,9.4-7.5,17-16.9,17c-0.1,0-0.5,0-1.1,0c-4.2,36.4-35.1,62-76.9,62.1c-0.1,0-0.2,0-0.4,0
						c-42.1,0-73.3-25.9-77.2-62.8c-1.4,0-2.3,0-2.4,0c0,0,0,0-0.1,0c-9.1,0-16.6-7.4-16.6-16.6c0-9.2,7.4-16.6,16.5-16.7
						c0.1,0,0.8,0,1.9,0l-0.1-7.3c0-4.5-0.3-35.3,7.1-47.1C73,75.8,101.6,65.3,130.5,65.3 M130.5,57.3L130.5,57.3
						c-15.7,0-31,2.9-44.2,8.3c-14.4,5.9-25.6,14.7-32.3,25.3c-5.6,8.9-8.3,26-8.3,50.8v0.5v0.1v0c-4.2,1.1-8.1,3.3-11.2,6.5
						c-4.6,4.7-7.2,10.9-7.2,17.4c0,12,8.7,22,20.1,24.1c7.2,37.6,40.9,63.2,84.1,63.2h0.4c22.3-0.1,42.2-6.7,57.6-19.3
						c13.6-11.1,22.8-26.4,26.3-43.5c4.4-1.1,8.5-3.4,11.9-6.7c4.7-4.7,7.3-11,7.3-17.7c0-11.1-7.4-20.6-17.6-23.7
						c0-12-1.1-35.5-9-48.7c-7.1-12-18.7-21.7-33.5-28C161.9,60.3,146.5,57.3,130.5,57.3L130.5,57.3L130.5,57.3z"/>
				</g>
			</g>
			<g>
				<g>
					<g>
						<path class="st11" d="M210.3,151.8c5.8,0,10.6,4.7,10.6,10.5s-4.7,10.6-10.5,10.6c-5.8,0-10.6-4.7-10.6-10.5
							C199.7,156.5,204.4,151.8,210.3,151.8"/>
					</g>
				</g>
			</g>
			<g>
				<g>
					<path class="st7" d="M84.4,166c0,8.4,5,15.4-3.1,16.5c-0.7,0.1-29.6,0.2-30.4,0.2c-9.2,0-16.6-7.4-16.7-16.6
						c0-9.2,7.4-16.6,16.5-16.7c0.8,0,24.1,0,24.8,0.1C83.7,150.6,84.4,157.5,84.4,166z"/>
				</g>
			</g>
			<g>
				<path class="st7" d="M175.8,166.5c0,8.6-5,15.8,3.3,16.8c0.7,0.1,30.3,0,31,0c9.4,0,16.9-7.6,16.9-17c0-9.4-7.6-16.9-17-16.9
					c-0.8,0-24.6,0.1-25.3,0.2C176.4,150.8,175.8,157.9,175.8,166.5z"/>
			</g>
			<g>
				<path class="st10" d="M92.1,109.4l-20.7,3.2c-2.6,0.4-5.1-1.4-5.5-4l-0.1-0.6c-0.4-2.6,1.4-5.1,4-5.5l20.7-3.2
					c2.6-0.4,5.1,1.4,5.5,4l0.1,0.6C96.5,106.6,94.7,109,92.1,109.4z"/>
			</g>
			<g>
				<path class="st10" d="M168.6,108.2l20.7,3.2c2.6,0.4,5.1-1.4,5.5-4l0.1-0.6c0.4-2.6-1.4-5.1-4-5.5l-20.7-3.2
					c-2.6-0.4-5.1,1.4-5.5,4l-0.1,0.6C164.2,105.3,166,107.8,168.6,108.2z"/>
			</g>
			<g>
				<g>
					<path class="st12" d="M223.1,208.9c0.5-5.9-2.1-11.9-6.8-15.6c-0.1-0.8-2.1-1.9-2.9-1.6c-0.8,0.3-1.3,1.1-1.8,1.7
						c-3.4,4.9-7.2,9.7-12.2,12.9c-5,3.2-11.8,4.8-17.4,2.6v-18.2c0.4-5.4-1.8-10.9-5.7-14.6s-10.7-5.1-16.1-4.4h-55.2
						c-5.3-0.6-12.2,0.7-16.1,4.4s-6.1,9.2-5.7,14.6v18.2c-5.6,2.2-12.3,0.6-17.3-2.6s-8.8-7.9-12.2-12.9c-0.5-0.7-1-1.4-1.8-1.7
						s-2.7,0.8-2.9,1.6c-4.6,3.7-7.2,9.8-6.8,15.6c0.5,5.9,4,11.5,9.1,14.4c-1.6,3.5-3.6,7.9-3.9,11.7c-0.5,5,1.3,10.2,4.8,13.9
						c3.5,3.6,8.6,5.7,13.7,5.4c-2.1,7.9-0.5,17.1,6,22.1c6.5,5,15.9,5.6,23,1.6c0.9-0.5,1.8-1.1,2.2-2c-1.1,3.4,1.1,7.4,3.1,10.4
						c1.9,3,4.9,5.4,8,7.1c7.4,4.2,17.4,5.5,24.3,0.8c6.9,4.8,16.9,3.5,24.3-0.8c3.1-1.8,6.1-4.1,8-7.1c1.9-3,4.2-7,3.1-10.4
						c0.4,0.9,1.3,1.5,2.2,2c7.1,4,16.6,3.3,23-1.6c6.5-5,8-14.2,6-22.1c5,0.3,10.2-1.7,13.7-5.4c3.5-3.6,5.3-8.8,4.8-13.9
						c-0.4-3.9-2.3-8.2-3.9-11.7C219.1,220.4,222.7,214.8,223.1,208.9z"/>
					<g>
						<path class="st13" d="M66.4,244.6c-5,0.3-10.2-1.7-13.7-5.4c-1.8-1.9-3.2-4.2-4-6.8c-0.4,1.3-0.7,2.6-0.8,3.9
							c-0.5,5,1.3,10.2,4.8,13.9c3.4,3.5,8.3,5.5,13.2,5.4C65.3,252,65.5,248.2,66.4,244.6z"/>
						<path class="st13" d="M193.7,266.7c-6.5,5-15.9,5.6-23,1.6c-0.9-0.5-1.8-1.1-2.2-2c1.1,3.4-1.1,7.4-3.1,10.4
							c-1.9,3-4.9,5.4-8,7.1c-7.4,4.2-17.4,5.5-24.3,0.8c-6.9,4.8-16.9,3.5-24.3-0.8c-3.1-1.8-6.1-4.1-8-7.1s-4.2-7-3.1-10.4
							c-0.4,0.9-1.3,1.5-2.2,2c-7.1,4-16.6,3.3-23-1.6c-3.3-2.5-5.3-6.1-6.2-10.1c-1.7,7.7,0,16.3,6.2,21.1c6.5,5,15.9,5.6,23,1.6
							c0.9-0.5,1.8-1.1,2.2-2c-1.1,3.4,1.1,7.4,3.1,10.4c1.9,3,4.9,5.4,8,7.1c7.4,4.2,17.4,5.5,24.3,0.8c6.9,4.8,16.9,3.5,24.3-0.8
							c3.1-1.8,6.1-4.1,8-7.1c1.9-3,4.2-7,3.1-10.4c0.4,0.9,1.3,1.5,2.2,2c7.1,4,16.6,3.3,23-1.6c6.2-4.8,7.9-13.5,6.2-21.1
							C198.9,260.6,196.9,264.2,193.7,266.7z"/>
						<path class="st13" d="M217.3,232.5c-0.8,2.5-2.2,4.9-4,6.8c-3.5,3.6-8.6,5.7-13.7,5.4c0.9,3.6,1.1,7.4,0.4,11
							c4.9,0.1,9.8-1.8,13.2-5.4c3.5-3.6,5.3-8.8,4.8-13.9C218,235.1,217.7,233.8,217.3,232.5z"/>
					</g>
					<path class="st14" d="M223.1,208.9c0.5-5.9-2.1-11.9-6.8-15.6c-0.1-0.8-2.1-1.9-2.9-1.6c-0.8,0.3-1.3,1.1-1.8,1.7
						c-3.4,4.9-7.2,9.7-12.2,12.9c-5,3.2-11.8,4.8-17.4,2.6v-18.2c0.4-5.4-1.8-10.9-5.7-14.6s-10.7-5.1-16.1-4.4h-55.2
						c-5.3-0.6-12.2,0.7-16.1,4.4s-6.1,9.2-5.7,14.6v18.2c-5.6,2.2-12.3,0.6-17.3-2.6s-8.8-7.9-12.2-12.9c-0.5-0.7-1-1.4-1.8-1.7
						s-2.7,0.8-2.9,1.6c-4.6,3.7-7.2,9.8-6.8,15.6c0.5,5.9,4,11.5,9.1,14.4c-1.6,3.5-3.6,7.9-3.9,11.7c-0.5,5,1.3,10.2,4.8,13.9
						c3.5,3.6,8.6,5.7,13.7,5.4c-2.1,7.9-0.5,17.1,6,22.1c6.5,5,15.9,5.6,23,1.6c0.9-0.5,1.8-1.1,2.2-2c-1.1,3.4,1.1,7.4,3.1,10.4
						c1.9,3,4.9,5.4,8,7.1c7.4,4.2,17.4,5.5,24.3,0.8c6.9,4.8,16.9,3.5,24.3-0.8c3.1-1.8,6.1-4.1,8-7.1c1.9-3,4.2-7,3.1-10.4
						c0.4,0.9,1.3,1.5,2.2,2c7.1,4,16.6,3.3,23-1.6c6.5-5,8-14.2,6-22.1c5,0.3,10.2-1.7,13.7-5.4c3.5-3.6,5.3-8.8,4.8-13.9
						c-0.4-3.9-2.3-8.2-3.9-11.7C219.1,220.4,222.7,214.8,223.1,208.9z"/>
				</g>
			</g>
			<g>
				<g>
					<path class="st15" d="M169.2,182.8c-24.7,2.9-52.5,2.9-75.3-0.4c0,0,6.9,33.8,37.6,33.8C166.1,216.3,169.2,182.8,169.2,182.8z"
						/>
					<path class="st14" d="M169.2,182.8c-24.7,2.9-52.5,2.9-75.3-0.4c0,0,6.9,33.8,37.6,33.8C166.1,216.3,169.2,182.8,169.2,182.8z"
						/>
					<path class="st16" d="M103.2,197.2c0,0,30.5,5.5,59.2,0"/>
				</g>
			</g>
			<g>
				<ellipse class="st12" cx="133.3" cy="35.5" rx="34.1" ry="29.8"/>
			</g>
			<g>
				<path class="st17" d="M166.4,33.5c-20.2-7.2-44.5-8.3-66.5,0.1c-5.6,47.6,73.5,45.5,67,0.1C166.6,33.6,166.5,33.5,166.4,33.5z"
					/>
			</g>
			<g>
				<ellipse class="st18" cx="133.3" cy="37.2" rx="34.1" ry="29.8"/>
			</g>
			<path class="st12" d="M217.4,80.6C195,20.8,59.5,30.5,44.6,85c-8.8,32-6.2,53.7-4,63.6c2.5-1.1,5.2-1.8,7.9-2.2
				c-1.1-21.3,4-37.9,6-43.3c-1.2-3.1-0.8-6.7,2.3-9.7c6.5-6.5,14.5-10.1,23.7-10.8c9-0.7,17.8,2.3,26.5,3.9
				c13.5,2.4,26.4,3.4,39.3,0.2c12-2.9,24.7-7.3,37.2-5.8c14.3,1.6,22,11.8,27.9,24.1c3,6.2,2.7,12.4,3.6,19.2
				c1.1,7.7,3.4,15.4,3,23.1c-0.1,1.1-0.3,2.2-0.6,3.1c1.4,0.8,2.8,1.6,4.1,2.5C225,143.8,231.6,118.4,217.4,80.6z"/>
			<g>
				<path class="st13" d="M205.5,97.1c4.8,10.1,7.4,40.2,8.4,52c2-6.1,0.3-29.7-0.9-38.2c-1.5-8.7-1.9-20.3-10.7-31.2
					C182.5,55.3,85.1,48.4,60.6,81.2c-11,14.7-15.8,41.8-8.1,60.8c1,1.9-2.8-0.9-0.6,2.7C49,64.7,82.3,85.9,128.2,92.7
					C163.9,95.4,185,62.8,205.5,97.1z"/>
			</g>
			<path class="st18" d="M214,145.4c0.4-14.5-1.4-25.1-5.1-39.2c-1.1-3.9-2.2-7.2-4-10.9c-4.2-8.6-15.4-16.2-24.4-15.4
				c-9,0.8-17.1,4.4-25.7,7.3c-10.6,3.6-22.1,4.6-33.2,3c-11.2-1.6-22-5.9-33.2-7.1S64.2,84.7,57.7,94c0,0-9.2,21.4-6.4,50.1
				l-10.5,2.5c0,0-7.5-16.2,3.2-55.8c17.9-65.8,160.5-63.3,175.9,0.7c10.5,43.8,2.6,58,2.6,58L214,145.4L214,145.4z"/>
			<path class="st18" d="M101,34.4c8.4-4.9,19.2-6.8,29.4-6.8c12.5,0,25.9,1.1,36.3,7.2"/>
			<g>
				<g>
					<g>
						<path class="st17" d="M44.4,129.8c0,0,32.2-27.2,78.2-5.6c0,0,7,43.3-32.9,48.2C42.2,178.3,44.4,129.8,44.4,129.8z"/>
					</g>
					<g>
						<path class="st15" d="M55.6,133.9c0,0,23-17.7,56-4c0,0,5,29.8-23.6,33.3C54,167.4,55.6,133.9,55.6,133.9z"/>
					</g>
					<path class="st19" d="M44.4,129.8c0,0,32.2-27.2,78.2-5.6c0,0,7,43.3-32.9,48.2C42.2,178.3,44.4,129.8,44.4,129.8z"/>
					<g>
						<path class="st17" d="M217,129.8c0,0-32.2-27.2-78.2-5.6c0,0-7,43.3,32.9,48.2C219.2,178.3,217,129.8,217,129.8z"/>
					</g>
					<path class="st15" d="M205.9,133.9c0,0-23-17.7-56-4c0,0-5,29.8,23.6,33.3C207.5,167.4,205.9,133.9,205.9,133.9z"/>
					<g>
						<path class="st19" d="M217,129.8c0,0-32.2-27.2-78.2-5.6c0,0-7,43.3,32.9,48.2C219.2,178.3,217,129.8,217,129.8z"/>
					</g>
					<g>
						<g>
							<path class="st10" d="M139.3,131.3c-0.1-0.2-0.1-0.5-0.2-0.7c-5.9-1.2-12-0.5-17.5,0.4c-0.1,3.8-0.5,7.6-1.5,11.2
								c0.5,0.1,1.1,0.1,1.6-0.1c6.1-1.1,12.5-2,17.8-0.1c0.1,0,0.1,0,0.2,0.1C138.8,138.6,138.5,134.8,139.3,131.3z"/>
						</g>
					</g>
					<g>
						<g>
							<path class="st17" d="M144.5,141.4c-0.6,0-1.1-0.1-1.6-0.5c-6.7-4.3-16.6-2.8-23.7-0.9c-1.6,0.4-3.2-0.5-3.7-2.1
								s0.5-3.2,2.1-3.7c12-3.3,21.6-2.7,28.5,1.6c1.4,0.9,1.8,2.7,0.9,4.1C146.5,140.9,145.5,141.4,144.5,141.4z"/>
						</g>
					</g>
					<g>
						<g id="olho_2_">
							<g>
								<path class="st10" d="M97.1,143.4c0,5.8-4.6,10.5-10.4,10.5c-5.8,0-10.5-4.6-10.5-10.4c0-5.8,4.6-10.5,10.4-10.5
									C92.4,132.9,97.1,137.6,97.1,143.4z"/>
							</g>
						</g>
					</g>
					<g>
						<g id="olho_1_">
							<g>
								<path class="st10" d="M186.9,143.4c0,5.8-4.6,10.5-10.4,10.5c-5.8,0-10.5-4.6-10.5-10.4c0-5.8,4.6-10.5,10.4-10.5
									C182.2,132.9,186.8,137.6,186.9,143.4z"/>
							</g>
						</g>
					</g>
				</g>
				<g>
					<path class="st19" d="M55.6,133.9c0,0,23-17.7,56-4c0,0,5,29.8-23.6,33.3C54,167.4,55.6,133.9,55.6,133.9z"/>
				</g>
				<g>
					<path class="st19" d="M205.9,133.9c0,0-23-17.7-56-4c0,0-5,29.8,23.6,33.3C207.5,167.4,205.9,133.9,205.9,133.9z"/>
				</g>
			</g>
		</g>
	</g>
</g>
<g id="Camada_2" class="st0">
	<g class="st20">
		<g>
			<path class="st21" d="M261,1v328H1V1H261 M262,0H0v330h262V0L262,0z"/>
		</g>
		<line class="st22" x1="1.4" y1="139.5" x2="261.1" y2="139.5"/>
		<line class="st22" x1="0.8" y1="201.8" x2="261.1" y2="201.8"/>
		<line class="st22" x1="261.4" y1="242.8" x2="1.1" y2="242.8"/>
		<ellipse class="st22" cx="131" cy="161.8" rx="84.3" ry="80.6"/>
		<ellipse class="st22" cx="83.8" cy="139.5" rx="12.5" ry="12.5"/>
		<ellipse class="st22" cx="179.7" cy="139.5" rx="12.5" ry="12.5"/>
		<ellipse class="st22" cx="131" cy="198.7" rx="131" ry="131.3"/>
		<line class="st22" x1="131" y1="329.3" x2="131" y2="1.1"/>
		<line class="st22" x1="47" y1="329.3" x2="47" y2="1.1"/>
		<line class="st22" x1="215" y1="329.3" x2="215" y2="1.1"/>
	</g>
</g>
</svg>
