<?xml version="1.0" encoding="utf-8"?>
<!-- Generator: Adobe Illustrator 24.0.1, SVG Export Plug-In . SVG Version: 6.00 Build 0)  -->
<svg version="1.1" id="Camada_1" xmlns="http://www.w3.org/2000/svg" xmlns:xlink="http://www.w3.org/1999/xlink" x="0px" y="0px"
	 viewBox="0 0 262 330" style="enable-background:new 0 0 262 330;" xml:space="preserve">
<style type="text/css">
	.st0{clip-path:url(#SVGID_2_);}
	.st1{fill:#FFBF1F;}
	.st2{fill:none;stroke:#012442;stroke-width:48;stroke-linecap:round;stroke-linejoin:round;stroke-miterlimit:10;}
	.st3{fill:none;stroke:#FFBB71;stroke-width:30;stroke-linecap:round;stroke-linejoin:round;stroke-miterlimit:10;}
	.st4{fill:#FFBB71;}
	.st5{fill:#83D9FD;}
	.st6{fill:none;stroke:#012442;stroke-width:8;stroke-linecap:round;stroke-miterlimit:10;}
	.st7{fill:#012442;}
	.st8{fill:#276AD6;}
	.st9{fill:none;stroke:#012442;stroke-width:7;stroke-linecap:round;stroke-linejoin:round;stroke-miterlimit:10;}
	.st10{fill:#F7E9DE;}
	.st11{fill:#D69051;}
	.st12{fill:none;stroke:#012442;stroke-width:8;stroke-linecap:round;stroke-linejoin:round;stroke-miterlimit:10;}
	.st13{fill:#276AD6;stroke:#012442;stroke-width:8;stroke-linecap:round;stroke-linejoin:round;stroke-miterlimit:10;}
	.st14{fill:none;stroke:#D69051;stroke-width:6;stroke-linecap:round;stroke-linejoin:round;stroke-miterlimit:10;}
	.st15{fill:#299EED;}
	.st16{fill:none;stroke:#FFFFFF;stroke-width:6;stroke-linecap:round;stroke-linejoin:round;stroke-miterlimit:10;}
</style>
<g id="Camada_5">
	<g>
		<g>
			<g>
				<defs>
					<path id="SVGID_1_" d="M286-19.5H-24.1v217.8h23.8c0,0.2,0,0.4,0,0.6c0,72.4,59.7,131.1,132.1,131.1s131.1-58.7,131.1-131.1
						c0-0.2,0-0.4,0-0.6h23.3V-9.5v-10H286z"/>
				</defs>
				<clipPath id="SVGID_2_">
					<use xlink:href="#SVGID_1_"  style="overflow:visible;"/>
				</clipPath>
				<g class="st0">
					<circle class="st1" cx="131.1" cy="199.7" r="131.1"/>
					<path class="st2" d="M188.8,253.3c0,0,26.9,22.6,41.2,85"/>
					<path class="st3" d="M188.8,253.3c0,0,26.9,22.6,41.2,85"/>
					<path class="st2" d="M71.9,253.3c0,0-26.9,22.6-41.2,85"/>
					<path class="st3" d="M71.9,253.3c0,0-26.9,22.6-41.2,85"/>
					<path class="st4" d="M163.9,239.5l-1-5.9h-67l-1,5.9c-0.3,1.6-0.4,3.2-0.4,4.7c0,17.4,15.6,31.6,34.8,31.6s34.8-14.2,34.8-31.6
						C164.4,242.7,164.1,241.1,163.9,239.5z"/>
					<path class="st5" d="M171.9,245.1c-4.7,2.8-9.6,5.2-14.6,7.2c0,0.3,0,0.7,0,1c0,13.6-12.5,24.6-27.8,24.6
						c-14.2,0-26-9.5-27.6-21.7c-6-2.5-11.4-6.3-15.8-11.8c-34.3,34.3-32.5,127.2-32.5,127.2l156.8-0.8
						C210.4,370.7,211.9,285.8,171.9,245.1z"/>
					<g>
						<g>
							<path class="st5" d="M181.2,293.1l48.4-24.6c-0.3-0.7-22.5-47-56.5-41.1l-7,1.1c-10.8,4.4-9.6,19.3-5.3,30.1L181.2,293.1z"/>
						</g>
					</g>
					<g>
						<path class="st6" d="M201.4,284.6l30.2-14c-0.3-0.7-25.6-54.2-62.5-42"/>
					</g>
					<g>
						<g>
							<path class="st5" d="M79.4,293.1L31,268.5c0.3-0.7,22.5-47,56.5-41.1l7,1.1c10.8,4.4,9.6,19.3,5.3,30.1L79.4,293.1z"/>
						</g>
					</g>
					<g>
						<path class="st6" d="M63.3,285.5l-34.2-14.9c0.3-0.7,25.6-54.2,62.5-42"/>
					</g>
					<g>
						<path class="st7" d="M157.1,237.7c0.2,1.3,0.3,2.7,0.3,4.1c0,15.4-12.5,27.8-27.8,27.8c-15.4,0-27.8-12.5-27.8-27.8
							c0-1.4,0.1-2.7,0.3-4.1H157.1 M163.9,229.7H157h-55h-6.9l-1,6.8c-0.3,1.7-0.4,3.5-0.4,5.2c0,19.8,16.1,35.8,35.8,35.8
							c19.8,0,35.8-16.1,35.8-35.8c0-1.7-0.1-3.5-0.4-5.2L163.9,229.7L163.9,229.7z"/>
					</g>
					<path class="st6" d="M192.9,266c0,0,13,39.5,14.6,95.2"/>
					<path class="st6" d="M69.4,266c0,0-13,39.5-14.6,95.2"/>
					<g>
						<path class="st4" d="M203.8,184.8c0.1,39.4-31.1,68-74.5,68.2l0,0c-43.4,0.2-74.8-28.3-75-67.7L54,143.9
							c-0.1-14.5,4-24.7,11.6-35.7c18.6-26.8,67.3-24.6,72.1-24.3c19.6,1.2,43.4,7.2,55.6,24.2c7.2,10.1,11.7,20.7,11.7,39.2
							L203.8,184.8z"/>
					</g>
					<g>
						<path class="st7" d="M130.7,83.6c27,0,53.9,9.5,66.4,30.6c8.9,15.1,7.4,45.6,7.4,45.6c0.4,0,0.6,0,0.7,0c0,0,0,0,0.1,0
							c8.9,0,16.2,7.3,16.3,16.2c0,9-7.2,16.3-16.2,16.3c-0.1,0-0.5,0-1.1,0c-4,35-33.8,59.6-74,59.7c-0.1,0-0.2,0-0.4,0
							c-40.5,0-70.5-24.9-74.2-60.4c-1.3,0-2.2,0-2.3,0c0,0,0,0-0.1,0c-8.7,0-16-7.1-16-16c0-8.8,7.1-16,15.9-16.1
							c0.1,0,0.8,0,1.8,0l-0.1-7c0-4.3-0.3-28.2,6.8-39.5C73.6,94.3,102.2,83.6,130.7,83.6 M130.7,75.9c-33.2,0-62.8,13.1-75.5,33.3
							c-5.3,8.6-8,23-8,43.1v0.5v0.1l0,0c-4,1.1-7.8,3.2-10.8,6.2c-4.4,4.5-6.9,10.5-6.8,16.7C29.7,187.4,38,197,49,199
							c6.9,36.1,39.3,60.8,80.9,60.8h0.4c21.4-0.1,40.6-6.4,55.4-18.6c13.1-10.7,21.9-25.4,25.3-41.8c4.3-1.1,8.2-3.3,11.3-6.4
							c4.5-4.5,7-10.6,6.9-17c0-10.7-7.1-19.8-16.8-22.8c0-10.7-1.2-30.5-8.7-43C190.9,88.8,163.7,75.9,130.7,75.9L130.7,75.9
							L130.7,75.9L130.7,75.9z"/>
					</g>
					<g>
						<g>
							<path class="st8" d="M208.1,201.1c6-1.4,13.3-6.9,17.5-13.2c-0.4,16.5,4.8,33.8,19.5,39.6c0.5,0.9,1,1.6,1.4,2.5
								c-2.1,2.4-4.5,4.3-7.9,4.8c-0.2,0-0.3,0.1-0.5,0.1c-0.7-0.3-1.5-0.5-2.4-0.5c-7.6,0-7.8,11.4-0.7,12.1c1.4,2.9,3.7,5,6.6,6.4
								c-33.5,10-44.9-10.6-51-18C198.2,225.2,207,201.4,208.1,201.1z"/>
							<path class="st9" d="M209.1,197.8c6.1-0.8,12.6-3.8,17.1-12.5c-10.2,19.3,15.1,39.3,22.9,43.6c-8.6,4.1-10.3,6.2-19.7,6.2
								c1.8,6.3,7.6,12.4,13.4,15.3c-9.5,4.8-38.9,14.9-53.5-15.8C208.6,218.6,207.6,198,209.1,197.8z"/>
						</g>
						<g>
							<g>
								<path class="st10" d="M205.5,167.8c5.6,0,10.2,4.5,10.2,10.1s-4.5,10.2-10.1,10.2c-5.6,0-10.2-4.5-10.2-10.1
									C195.3,172.4,199.7,167.8,205.5,167.8"/>
							</g>
						</g>
						<g>
							<path class="st4" d="M84.6,176.6c0,8.1,4.8,14.8-3,15.9c-0.7,0.1-28.5,0.2-29.2,0.2c-8.8,0-16-7.1-16.1-16
								c0-8.8,7.1-16,15.9-16.1c0.8,0,23.2,0,23.8,0.1C83.9,161.9,84.6,168.5,84.6,176.6z"/>
						</g>
						<g>
							<path class="st4" d="M171.4,177.2c0,8.3-4.8,15.2,3.2,16.2c0.7,0.1,29.1,0,29.8,0c9,0,16.2-7.3,16.2-16.3
								c0-9-7.3-16.2-16.3-16.2c-0.8,0-23.7,0.1-24.3,0.2C171.9,162.1,171.3,168.9,171.4,177.2z"/>
						</g>
						<path class="st11" d="M202.3,204.8c1.3-4.1,2.4-8.4,3-12.6c0.1-1.2,0.2-2.2,0.3-3.4c-3.6-8-7.8-15.8-11.2-23.8
							c-8.5-20.1-11.4-42-17-63.2c-0.6-2-1.2-4.2-2.7-5.7c-1.7-1.7-8.1-3.7-10.5-2.6c-3.8,1.8-1.2,5.9-0.3,8.8
							c2.9,8.1,4.6,16.4,6,24.9c2.8,16.8,4,34.1,9,50.5c4,13.2,10.5,25.7,18.9,36.5C199.3,211.1,200.9,207.9,202.3,204.8z"/>
						<path class="st7" d="M95.7,137.5l-19.9,3.1c-2.5,0.4-4.9-1.3-5.3-3.8l-0.1-0.5c-0.4-2.5,1.3-4.9,3.8-5.3l19.9-3.1
							c2.5-0.4,4.9,1.3,5.3,3.8l0.1,0.5C99.9,134.8,98.2,137.2,95.7,137.5z"/>
						<path class="st7" d="M166.1,137.5l19.9,3.1c2.5,0.4,4.9-1.3,5.3-3.8l0.1-0.5c0.4-2.5-1.3-4.9-3.8-5.3l-19.9-3.1
							c-2.5-0.4-4.9,1.3-5.3,3.8l-0.1,0.5C161.8,134.8,163.6,137.2,166.1,137.5z"/>
						<path class="st12" d="M82.8,181.6c8.7,10.3,21.2,22.9,48.3,22.9c25,0,42-18,45.5-26.7"/>
						<path class="st13" d="M174.7,95.2c-2.5-9.2-10.2-17.8-17.9-23.4c-37.6-27.1-51.9,18.7-37.1,16.6
							C136.1,86.1,160.8,88.6,174.7,95.2z"/>
						<g id="olho_17_">
							<g>
								<path class="st7" d="M92.5,157.4c0,5.6-4.4,10.1-10,10.1s-10.1-4.4-10.1-10c0-5.6,4.4-10.1,10-10.1S92.5,151.8,92.5,157.4z"
									/>
							</g>
						</g>
						<g id="olho_10_">
							<g>
								<path class="st7" d="M186.7,157.4c0,5.6-4.4,10.1-10,10.1c-5.6,0-10.1-4.4-10.1-10c0-5.6,4.4-10.1,10-10.1
									C182.1,147.4,186.7,151.8,186.7,157.4z"/>
							</g>
						</g>
						<path class="st14" d="M118.4,216.4c9,1.8,18.6,1.8,27.5-0.5"/>
						<g>
							<path class="st8" d="M53.3,201.1c-6-1.4-13.3-6.9-17.5-13.2c0.4,16.5-4.8,33.8-19.5,39.6c-0.5,0.9-1,1.6-1.4,2.5
								c2.1,2.4,4.5,4.3,7.9,4.8c0.2,0,0.3,0.1,0.5,0.1c0.7-0.3,1.5-0.5,2.4-0.5c7.6,0,7.8,11.4,0.7,12.1c-1.4,2.9-3.7,5-6.6,6.4
								c33.5,10,44.9-10.6,51-18C63.2,225.2,54.5,201.4,53.3,201.1z"/>
							<path class="st9" d="M52.4,197.8c-6.1-0.8-12.6-3.8-17.1-12.5c10.2,19.3-15.1,39.3-22.9,43.6c8.6,4.1,10.3,6.2,19.7,6.2
								c-1.8,6.3-7.6,12.4-13.4,15.3c9.5,4.8,38.9,14.9,53.5-15.8C52.8,218.6,53.7,198,52.4,197.8z"/>
						</g>
						<path class="st8" d="M228.8,178.9c6.5,3.5,18.6,0.8,25.9-0.1C230.7,154.6,230.5,91,221.1,73c-4.7-9.1-10.4-16.7-16.7-22.9
							C194,42.1,180,37,167.6,34.6c-29.5-5.7-57.3,6.9-75.9,29.7c-0.1,0.2-0.3,0.3-0.4,0.4c-1.6,2.1-4.2,3.3-7.5,2.1
							c-1.6-0.6-3.1-1-4.6-1.3c-0.5,0-1-0.1-1.5-0.3c-20.9-3.6-37,13.8-49.4,30.5c-7.1,14.9-11.2,32.9-9.7,51.4l14.8-18
							c-1,13.5,0,21.2,2.9,34.3c0.4-1.7,2.4-2.8,3.9-3.5c4.4-1.8,9.1-3,13.9-3.4c32.1-20,22.3-82.6,64.2-68.1c0,0,8.2-40.4,43-12.5
							c36,28.7,19.9,141.9,88.6,133.1C246.5,208.3,230,191.1,228.8,178.9z"/>
						<path class="st15" d="M236.8,192.3c-16.3-5.8-26.9-20.3-28.2-36.7c-1.6-22.6,6.4-30.2,19.8-35.8c-0.5-4.5-0.2-8.8,1.2-13
							c-0.4-3.1-0.9-6.2-1.4-9.2c-0.8-2.6-1.9-5.1-3.1-7.5c-0.4-0.5-0.9-1-1.2-1.7c-5.4-9.8-12-18.8-19.8-26.9
							c-2.4-2.5-4.7-4.9-7-7.3c-2.1,9.1-0.2,19.6-2.1,28.5c-5,13-14.4,3.2-18-4.1c-5.1-7.6-10.9-15.3-18-20.9
							c-24.8-18.8-52.2,2.1-41.5,30.6c0.2,0.1,0.5-1.9,0.7-1.8c0.8-13,17.1-35.5,48.6-1.7c21.1,29.2,13.7,72.3,34.2,103.5
							c8.3,12.9,24.7,22.3,41.1,21.2c1.4-0.1,5.4-0.2,7.8-0.5C245.3,205.9,239.4,198.9,236.8,192.3z"/>
						<path class="st15" d="M85.9,68.9c-0.1-0.2-0.3-0.3-0.4-0.5c-7.6-0.7-15.1-3.8-22.6-2.7c-8.3,1.2-16.2,7.5-22.7,13.3
							c-0.6,1.5-1.1,3-1.4,4.5c-0.1,0.9,0,3.7,0.6,5.4c0.7,2.2,2.2,4.6,3.9,6.5c0.2,0.3,1.5,1.3,1.5,1.4c0.7,0.5,1.4,0.9,2.2,1.2
							c0.4,0.2,0.7,0.3,1.1,0.5c0.1,0.1,0.4,0.1,0.7,0.3c1.2,0.4,2.3,0.8,3.5,1.2c4.8,1.5,9.7,2.7,14.4,4.5c5.6,2.1,10.6,5.3,14,9.4
							c3.6-9.1,7.2-17.3,12.8-22.4c-0.5-3-1-6-1.6-8.8C90.4,77.3,89,73.5,85.9,68.9z"/>
						<path class="st12" d="M162.2,76.1c-26.9-23.4-43.9,13.5-43.9,13.5c-39.9-4.9-32.1,47.1-64.2,67.1c-4.8,0.4-9.5,1.5-13.9,3.4
							c-1.5,0.7-3.6,1.7-3.9,3.5c-2.9-13.1-3.8-20.9-2.9-34.3l-14.8,18C14.2,90.5,65.6,45.4,91.1,72.5c3.7-10.2,11.9-17.7,17.5-24
							c28.5-22.3,84.8-21.3,112.5,31.6c20.9,47.8,7.7,74.5,31.6,98.8c-6.7,3.4-23.4,2.5-24.9,0.1c1.2,12.2,17.5,28.7,21,29.6
							C174.6,218.3,197,106.3,162.2,76.1z"/>
						<path class="st16" d="M217.8,100.6c1.2,3.2,2.3,6.4,3.3,9.7"/>
						<path class="st16" d="M203.8,73.4c3.4,5,6.3,10.3,8.9,15.7"/>
					</g>
				</g>
			</g>
		</g>
	</g>
</g>
</svg>
