<?xml version="1.0" encoding="utf-8"?>
<!-- Generator: Adobe Illustrator 24.0.1, SVG Export Plug-In . SVG Version: 6.00 Build 0)  -->
<svg version="1.1" xmlns="http://www.w3.org/2000/svg" xmlns:xlink="http://www.w3.org/1999/xlink" x="0px" y="0px"
	 viewBox="0 0 262 330" style="enable-background:new 0 0 262 330;" xml:space="preserve">
<style type="text/css">
	.st0{clip-path:url(#SVGID_2_);fill:#EF6100;}
	
		.st1{clip-path:url(#SVGID_4_);fill:none;stroke:#012442;stroke-width:48;stroke-linecap:round;stroke-linejoin:round;stroke-miterlimit:10;}
	
		.st2{clip-path:url(#SVGID_6_);fill:none;stroke:#FFBB71;stroke-width:30;stroke-linecap:round;stroke-linejoin:round;stroke-miterlimit:10;}
	
		.st3{clip-path:url(#SVGID_8_);fill:none;stroke:#012442;stroke-width:48;stroke-linecap:round;stroke-linejoin:round;stroke-miterlimit:10;}
	
		.st4{clip-path:url(#SVGID_10_);fill:none;stroke:#FFBB71;stroke-width:30;stroke-linecap:round;stroke-linejoin:round;stroke-miterlimit:10;}
	.st5{clip-path:url(#SVGID_12_);fill:#FFBB71;}
	
		.st6{clip-path:url(#SVGID_14_);fill:#E86969;stroke:#012442;stroke-width:3;stroke-linecap:round;stroke-linejoin:round;stroke-miterlimit:10;}
	.st7{clip-path:url(#SVGID_16_);}
	.st8{fill:#E86969;}
	.st9{clip-path:url(#SVGID_18_);}
	.st10{fill:none;stroke:#012442;stroke-width:8;stroke-linecap:round;stroke-miterlimit:10;}
	.st11{clip-path:url(#SVGID_20_);}
	.st12{clip-path:url(#SVGID_22_);}
	.st13{clip-path:url(#SVGID_24_);}
	.st14{fill:#012442;}
	.st15{clip-path:url(#SVGID_26_);fill:none;stroke:#012442;stroke-width:8;stroke-linecap:round;stroke-miterlimit:10;}
	.st16{clip-path:url(#SVGID_28_);fill:none;stroke:#012442;stroke-width:8;stroke-linecap:round;stroke-miterlimit:10;}
	.st17{clip-path:url(#SVGID_30_);}
	.st18{clip-path:url(#SVGID_32_);}
	.st19{fill:#F7E9DE;}
	.st20{clip-path:url(#SVGID_34_);fill:#FFBB71;}
	.st21{clip-path:url(#SVGID_36_);}
	.st22{fill:#FFFFFF;}
	.st23{clip-path:url(#SVGID_38_);fill:#1F9DF9;}
	.st24{clip-path:url(#SVGID_40_);fill:#3061DD;}
	.st25{clip-path:url(#SVGID_42_);}
	.st26{clip-path:url(#SVGID_44_);fill:#3061DD;}
	.st27{clip-path:url(#SVGID_46_);fill:#1F9DF9;}
	.st28{clip-path:url(#SVGID_48_);fill:none;stroke:#012442;stroke-width:8;stroke-miterlimit:10;}
	.st29{clip-path:url(#SVGID_50_);}
	.st30{fill:#FFBF1F;}
	.st31{fill:#042342;}
	.st32{fill:#FFBF1F;stroke:#042342;stroke-width:4;stroke-linecap:round;stroke-linejoin:round;stroke-miterlimit:10;}
	.st33{fill:#FFFFFF;stroke:#042342;stroke-width:3;stroke-linecap:round;stroke-linejoin:round;stroke-miterlimit:10;}
	.st34{clip-path:url(#SVGID_52_);}
	.st35{clip-path:url(#SVGID_54_);}
	.st36{clip-path:url(#SVGID_56_);fill:none;stroke:#012442;stroke-width:8;stroke-miterlimit:10;}
	
		.st37{clip-path:url(#SVGID_58_);fill:none;stroke:#FFFFFF;stroke-width:6;stroke-linecap:round;stroke-linejoin:round;stroke-miterlimit:10;}
	
		.st38{clip-path:url(#SVGID_60_);fill:none;stroke:#FFFFFF;stroke-width:6;stroke-linecap:round;stroke-linejoin:round;stroke-miterlimit:10;}
	.st39{display:none;}
	.st40{display:inline;fill:#FFFFFF;}
	.st41{display:inline;opacity:0.33;fill:none;stroke:#000000;stroke-miterlimit:10;enable-background:new    ;}
	.st42{display:inline;}
	.st43{fill:#2BB2FC;}
	.st44{fill:none;stroke:#2BB2FC;stroke-miterlimit:10;}
</style>
<g id="Camada_1">
	<g id="Camada_5">
		<g>
			<g>
				<g>
					<defs>
						<path id="SVGID_1_" d="M285.1-9.4H-25.1v207.8h24.8c0,0.2,0,0.4,0,0.6c0,72.4,58.7,131.1,131.1,131.1
							c72.4,0,132-58.7,132-131.1c0-0.2,0-0.4,0-0.6h22.3L285.1-9.4L285.1-9.4z"/>
					</defs>
					<clipPath id="SVGID_2_">
						<use xlink:href="#SVGID_1_"  style="overflow:visible;"/>
					</clipPath>
					<circle class="st0" cx="131" cy="199" r="131.1"/>
				</g>
				<g>
					<defs>
						<path id="SVGID_3_" d="M285.1-9.4H-25.1v207.8h24.8c0,0.2,0,0.4,0,0.6c0,72.4,58.7,131.1,131.1,131.1
							c72.4,0,132-58.7,132-131.1c0-0.2,0-0.4,0-0.6h22.3L285.1-9.4L285.1-9.4z"/>
					</defs>
					<clipPath id="SVGID_4_">
						<use xlink:href="#SVGID_3_"  style="overflow:visible;"/>
					</clipPath>
					<path class="st1" d="M190.7,246.7c0,0,26.9,22.6,41.2,85.1"/>
				</g>
				<g>
					<defs>
						<path id="SVGID_5_" d="M285.1-9.4H-25.1v207.8h24.8c0,0.2,0,0.4,0,0.6c0,72.4,58.7,131.1,131.1,131.1
							c72.4,0,132-58.7,132-131.1c0-0.2,0-0.4,0-0.6h22.3L285.1-9.4L285.1-9.4z"/>
					</defs>
					<clipPath id="SVGID_6_">
						<use xlink:href="#SVGID_5_"  style="overflow:visible;"/>
					</clipPath>
					<path class="st2" d="M190.7,246.7c0,0,26.9,22.6,41.2,85.1"/>
				</g>
				<g>
					<defs>
						<path id="SVGID_7_" d="M285.1-9.4H-25.1v207.8h24.8c0,0.2,0,0.4,0,0.6c0,72.4,58.7,131.1,131.1,131.1
							c72.4,0,132-58.7,132-131.1c0-0.2,0-0.4,0-0.6h22.3L285.1-9.4L285.1-9.4z"/>
					</defs>
					<clipPath id="SVGID_8_">
						<use xlink:href="#SVGID_7_"  style="overflow:visible;"/>
					</clipPath>
					<path class="st3" d="M73.8,246.7c0,0-26.9,22.6-41.2,85.1"/>
				</g>
				<g>
					<defs>
						<path id="SVGID_9_" d="M285.1-9.4H-25.1v207.8h24.8c0,0.2,0,0.4,0,0.6c0,72.4,58.7,131.1,131.1,131.1
							c72.4,0,132-58.7,132-131.1c0-0.2,0-0.4,0-0.6h22.3L285.1-9.4L285.1-9.4z"/>
					</defs>
					<clipPath id="SVGID_10_">
						<use xlink:href="#SVGID_9_"  style="overflow:visible;"/>
					</clipPath>
					<path class="st4" d="M73.8,246.7c0,0-26.9,22.6-41.2,85.1"/>
				</g>
				<g>
					<defs>
						<path id="SVGID_11_" d="M285.1-9.4H-25.1v207.8h24.8c0,0.2,0,0.4,0,0.6c0,72.4,58.7,131.1,131.1,131.1
							c72.4,0,132-58.7,132-131.1c0-0.2,0-0.4,0-0.6h22.3L285.1-9.4L285.1-9.4z"/>
					</defs>
					<clipPath id="SVGID_12_">
						<use xlink:href="#SVGID_11_"  style="overflow:visible;"/>
					</clipPath>
					<path class="st5" d="M166.9,230.9l-1-5.9h-67l-1,5.9c-0.3,1.6-0.4,3.2-0.4,4.7c0,17.4,15.6,31.6,34.8,31.6s34.9-14.2,34.9-31.6
						C167.3,234.1,167.1,232.5,166.9,230.9z"/>
				</g>
				<g>
					<defs>
						<path id="SVGID_13_" d="M285.1-9.4H-25.1v207.8h24.8c0,0.2,0,0.4,0,0.6c0,72.4,58.7,131.1,131.1,131.1
							c72.4,0,132-58.7,132-131.1c0-0.2,0-0.4,0-0.6h22.3L285.1-9.4L285.1-9.4z"/>
					</defs>
					<clipPath id="SVGID_14_">
						<use xlink:href="#SVGID_13_"  style="overflow:visible;"/>
					</clipPath>
					<path class="st6" d="M173.7,238.5c-4.7,2.8-9.6,5.1-14.6,7.2c0,0.3,0,0.7,0,1c0,13.6-12.5,24.6-27.9,24.6
						c-14.2,0-26-9.5-27.6-21.6c-6-2.5-11.4-6.3-15.8-11.8C53.7,272.1,55.4,365,55.4,365l156.9-0.9
						C212.3,364.2,213.8,279.2,173.7,238.5z"/>
				</g>
				<g>
					<defs>
						<path id="SVGID_15_" d="M285.1-9.4H-25.1v207.8h24.8c0,0.2,0,0.4,0,0.6c0,72.4,58.7,131.1,131.1,131.1
							c72.4,0,132-58.7,132-131.1c0-0.2,0-0.4,0-0.6h22.3L285.1-9.4L285.1-9.4z"/>
					</defs>
					<clipPath id="SVGID_16_">
						<use xlink:href="#SVGID_15_"  style="overflow:visible;"/>
					</clipPath>
					<g class="st7">
						<g>
							<path class="st8" d="M183.2,286.6l48.4-24.6c-0.3-0.7-22.5-47-56.5-41.1l-7,1.1c-10.8,4.4-9.6,19.3-5.3,30.1L183.2,286.6z"/>
						</g>
					</g>
				</g>
				<g>
					<defs>
						<path id="SVGID_17_" d="M285.1-9.4H-25.1v207.8h24.8c0,0.2,0,0.4,0,0.6c0,72.4,58.7,131.1,131.1,131.1
							c72.4,0,132-58.7,132-131.1c0-0.2,0-0.4,0-0.6h22.3L285.1-9.4L285.1-9.4z"/>
					</defs>
					<clipPath id="SVGID_18_">
						<use xlink:href="#SVGID_17_"  style="overflow:visible;"/>
					</clipPath>
					<g class="st9">
						<path class="st10" d="M203.3,278l30.2-14c-0.3-0.7-25.6-54.2-62.5-42"/>
					</g>
				</g>
				<g>
					<defs>
						<path id="SVGID_19_" d="M285.1-9.4H-25.1v207.8h24.8c0,0.2,0,0.4,0,0.6c0,72.4,58.7,131.1,131.1,131.1
							c72.4,0,132-58.7,132-131.1c0-0.2,0-0.4,0-0.6h22.3L285.1-9.4L285.1-9.4z"/>
					</defs>
					<clipPath id="SVGID_20_">
						<use xlink:href="#SVGID_19_"  style="overflow:visible;"/>
					</clipPath>
					<g class="st11">
						<g>
							<path class="st8" d="M81.3,286.6L32.9,262c0.3-0.7,22.5-47,56.5-41.1l7,1.1c10.8,4.4,9.6,19.3,5.3,30.1L81.3,286.6z"/>
						</g>
					</g>
				</g>
				<g>
					<defs>
						<path id="SVGID_21_" d="M285.1-9.4H-25.1v207.8h24.8c0,0.2,0,0.4,0,0.6c0,72.4,58.7,131.1,131.1,131.1
							c72.4,0,132-58.7,132-131.1c0-0.2,0-0.4,0-0.6h22.3L285.1-9.4L285.1-9.4z"/>
					</defs>
					<clipPath id="SVGID_22_">
						<use xlink:href="#SVGID_21_"  style="overflow:visible;"/>
					</clipPath>
					<g class="st12">
						<path class="st10" d="M65.1,278.9L30.9,264c0.3-0.7,25.6-54.2,62.5-42"/>
					</g>
				</g>
				<g>
					<defs>
						<path id="SVGID_23_" d="M285.1-9.4H-25.1v207.8h24.8c0,0.2,0,0.4,0,0.6c0,72.4,58.7,131.1,131.1,131.1
							c72.4,0,132-58.7,132-131.1c0-0.2,0-0.4,0-0.6h22.3L285.1-9.4L285.1-9.4z"/>
					</defs>
					<clipPath id="SVGID_24_">
						<use xlink:href="#SVGID_23_"  style="overflow:visible;"/>
					</clipPath>
					<g class="st13">
						<path class="st14" d="M158.9,235.1c0.2,1.3,0.3,2.7,0.3,4.1c0,15.4-12.5,27.8-27.9,27.8s-27.8-12.5-27.8-27.9
							c0-1.4,0.1-2.7,0.3-4.1L158.9,235.1 M165.8,227.1h-6.9h-55.1h-6.9l-1,6.8c-0.2,1.7-0.4,3.5-0.4,5.2
							c0,19.8,16.1,35.8,35.8,35.8s35.9-16.1,35.9-35.9c0-1.7-0.1-3.5-0.4-5.2L165.8,227.1L165.8,227.1z"/>
					</g>
				</g>
				<g>
					<defs>
						<path id="SVGID_25_" d="M285.1-9.4H-25.1v207.8h24.8c0,0.2,0,0.4,0,0.6c0,72.4,58.7,131.1,131.1,131.1
							c72.4,0,132-58.7,132-131.1c0-0.2,0-0.4,0-0.6h22.3L285.1-9.4L285.1-9.4z"/>
					</defs>
					<clipPath id="SVGID_26_">
						<use xlink:href="#SVGID_25_"  style="overflow:visible;"/>
					</clipPath>
					<path class="st15" d="M194.8,259.4c0,0,13,39.5,14.6,95.2"/>
				</g>
				<g>
					<defs>
						<path id="SVGID_27_" d="M285.1-9.4H-25.1v207.8h24.8c0,0.2,0,0.4,0,0.6c0,72.4,58.7,131.1,131.1,131.1
							c72.4,0,132-58.7,132-131.1c0-0.2,0-0.4,0-0.6h22.3L285.1-9.4L285.1-9.4z"/>
					</defs>
					<clipPath id="SVGID_28_">
						<use xlink:href="#SVGID_27_"  style="overflow:visible;"/>
					</clipPath>
					<path class="st16" d="M71.4,259.4c0,0-13,39.5-14.6,95.2"/>
				</g>
				<g>
					<defs>
						<path id="SVGID_29_" d="M285.1-9.4H-25.1v207.8h24.8c0,0.2,0,0.4,0,0.6c0,72.4,58.7,131.1,131.1,131.1
							c72.4,0,132-58.7,132-131.1c0-0.2,0-0.4,0-0.6h22.3L285.1-9.4L285.1-9.4z"/>
					</defs>
					<clipPath id="SVGID_30_">
						<use xlink:href="#SVGID_29_"  style="overflow:visible;"/>
					</clipPath>
					<g class="st17">
						<path class="st14" d="M130.4,57.8c28.8,0,57.8,10.4,71.1,32.8c9.4,15.7,7.7,51.4,7.7,51.4c0.4,0,0.6,0,0.7,0c0,0,0,0,0.1,0
							c9.4,0,16.9,7.6,17,16.9c0,9.4-7.5,17-16.9,17c-0.1,0-0.5,0-1.1,0c-4.2,36.4-35.1,62-76.9,62.1c-0.1,0-0.2,0-0.4,0
							c-42.1,0-73.3-25.9-77.2-62.8c-1.4,0-2.3,0-2.4,0c0,0,0,0-0.1,0c-9.1,0-16.6-7.4-16.6-16.6c0-9.2,7.4-16.6,16.5-16.7
							c0.1,0,0.8,0,1.9,0l-0.1-7.3c0-4.5-0.3-35.3,7.1-47.1C72.9,68.3,101.5,57.8,130.4,57.8 M130.4,49.8c-15.7,0-31,2.9-44.2,8.3
							C71.8,64,60.7,72.7,54,83.4c-5.6,8.9-8.3,26-8.3,50.8v0.5v0.1v0c-4.2,1.1-8.1,3.3-11.2,6.5c-4.6,4.7-7.2,10.9-7.2,17.4
							c0,12,8.7,22,20.1,24.1c7.2,37.6,40.9,63.2,84.1,63.2h0.4c22.3-0.1,42.2-6.7,57.6-19.3c13.6-11.1,22.8-26.4,26.3-43.5
							c4.4-1.1,8.5-3.4,11.9-6.7c4.7-4.7,7.3-11,7.3-17.7c0-11.1-7.4-20.6-17.6-23.7c0-12-1.1-35.5-9-48.7
							c-7.1-12-18.7-21.7-33.5-28C161.8,52.8,146.4,49.8,130.4,49.8L130.4,49.8z"/>
					</g>
				</g>
				<g>
					<defs>
						<path id="SVGID_31_" d="M285.1-9.4H-25.1v207.8h24.8c0,0.2,0,0.4,0,0.6c0,72.4,58.7,131.1,131.1,131.1
							c72.4,0,132-58.7,132-131.1c0-0.2,0-0.4,0-0.6h22.3L285.1-9.4L285.1-9.4z"/>
					</defs>
					<clipPath id="SVGID_32_">
						<use xlink:href="#SVGID_31_"  style="overflow:visible;"/>
					</clipPath>
					<g class="st18">
						<g>
							<path class="st19" d="M210.2,150.3c5.8,0,10.6,4.7,10.6,10.5s-4.7,10.6-10.5,10.6c-5.8,0-10.6-4.7-10.6-10.5
								C199.6,155,204.4,150.3,210.2,150.3"/>
						</g>
					</g>
				</g>
				<g>
					<defs>
						<path id="SVGID_33_" d="M285.1-9.4H-25.1v207.8h24.8c0,0.2,0,0.4,0,0.6c0,72.4,58.7,131.1,131.1,131.1
							c72.4,0,132-58.7,132-131.1c0-0.2,0-0.4,0-0.6h22.3L285.1-9.4L285.1-9.4z"/>
					</defs>
					<clipPath id="SVGID_34_">
						<use xlink:href="#SVGID_33_"  style="overflow:visible;"/>
					</clipPath>
					<path class="st20" d="M209.9,142l-0.2-12.8c0-19.3-4.6-36.4-12.2-46.8c-12.7-17.7-37.4-23.9-57.8-25.2
						c-4.9-0.3-58.6-2.5-78,25.3c-7.9,11.4-9.1,22-9.1,37.1l0.1,22.5c-1.2,0-2,0-2.1,0c-9.2,0,1.2,36.2,2.6,36.2
						c3.5,37.4,38.4,60.1,77.6,60.6c42.1,0.5,75-26.1,79-62.9c0,0,0.1,0,0.1,0c9.4,0,16.9-7.6,16.9-17
						C226.9,149.5,219.3,142,209.9,142z"/>
				</g>
				<g>
					<defs>
						<path id="SVGID_35_" d="M285.1-9.4H-25.1v207.8h24.8c0,0.2,0,0.4,0,0.6c0,72.4,58.7,131.1,131.1,131.1
							c72.4,0,132-58.7,132-131.1c0-0.2,0-0.4,0-0.6h22.3L285.1-9.4L285.1-9.4z"/>
					</defs>
					<clipPath id="SVGID_36_">
						<use xlink:href="#SVGID_35_"  style="overflow:visible;"/>
					</clipPath>
					<g class="st21">
						<g>
							<path class="st22" d="M133.5,208.2c-12.3,0-23-6.6-28.6-17.6c-0.6-1.2-0.6-2.7,0.2-3.9s2-1.9,3.4-1.9l48.7,0
								c1.2,0,2.3,0.5,3.1,1.5c0.8,0.9,1.1,2.1,0.8,3.3C159.4,198,146.4,208.2,133.5,208.2z"/>
							<path class="st8" d="M108.5,188.8l48.6,0c-1.2,6.2-12.3,15.4-23.6,15.4C123.3,204.2,113.7,199,108.5,188.8 M108.5,180.8
								c-2.8,0-5.4,1.4-6.8,3.8c-1.5,2.4-1.6,5.3-0.3,7.8c6.3,12.4,18.3,19.8,32.2,19.8c6.8,0,13.9-2.4,20.2-6.9
								c6.1-4.4,10.2-9.8,11.3-15c0.5-2.4-0.1-4.8-1.7-6.6c-1.5-1.9-3.8-2.9-6.2-2.9L108.5,180.8L108.5,180.8L108.5,180.8z"/>
						</g>
					</g>
				</g>
				<g>
					<defs>
						<path id="SVGID_37_" d="M285.1-9.4H-25.1v207.8h24.8c0,0.2,0,0.4,0,0.6c0,72.4,58.7,131.1,131.1,131.1
							c72.4,0,132-58.7,132-131.1c0-0.2,0-0.4,0-0.6h22.3L285.1-9.4L285.1-9.4z"/>
					</defs>
					<clipPath id="SVGID_38_">
						<use xlink:href="#SVGID_37_"  style="overflow:visible;"/>
					</clipPath>
					<path class="st23" d="M65.3,34.9c-13.4,8.8-24,29.9-31.1,44.2c-25.6,51-16.3,112-3.7,162.7c7.6-6.8,14.9-25.4,15.3-24.2
						c3.8,10.5,8.3,24.7,13.4,34.6c4.1-8.8,8.7-19.3,14.4-27.1c-13.2-10.6-23.4-30-22.5-47c-12.6,1.3-24.9-10.5-24.2-23.2
						s14.4-22.9,26.8-20.1c7.4-12.5,12.3-25.8,16.5-39.8c3.6,7.7,8,18,13.2,24.7c9.1-19.3,15.2-26.7,25.8-41.8
						c1.7-2.4,5.8-13.8,6.9-16.6c1-2.6,9.1-16-13.3-34.4C98.3,23.3,78.7,26.2,65.3,34.9z"/>
				</g>
				<g>
					<defs>
						<path id="SVGID_39_" d="M285.1-9.4H-25.1v207.8h24.8c0,0.2,0,0.4,0,0.6c0,72.4,58.7,131.1,131.1,131.1
							c72.4,0,132-58.7,132-131.1c0-0.2,0-0.4,0-0.6h22.3L285.1-9.4L285.1-9.4z"/>
					</defs>
					<clipPath id="SVGID_40_">
						<use xlink:href="#SVGID_39_"  style="overflow:visible;"/>
					</clipPath>
					<path class="st24" d="M102.9,27c-0.7-0.6-9.7,0-11-0.2c5.6,0.4,18.2,5.7,8.9,24.8c-3.9,8-18.1,33.1-19.3,42.9
						c-3.8-10.7-6.9-23.2-6.2-34.5c-35.5,7.8-49.2,52.2-54.4,60.2c-7.2,40.7,0.3,84,9.7,121.6c7.6-6.8,14.9-25.4,15.3-24.2
						c3.8,10.5,8.3,24.7,13.4,34.6c4.1-8.8,8.7-19.3,14.4-27.1c-13.2-10.6-23.4-30-22.5-47c-3.9-25.2,15-65.2,19.1-79.1
						c3.6,7.7,8,14,13.2,20.7c9.1-19.3,15.2-26.7,25.8-41.8c1.7-2.4,5.8-13.8,6.9-16.6C117.2,58.8,125.3,45.3,102.9,27z"/>
				</g>
				<g>
					<defs>
						<path id="SVGID_41_" d="M285.1-9.4H-25.1v207.8h24.8c0,0.2,0,0.4,0,0.6c0,72.4,58.7,131.1,131.1,131.1
							c72.4,0,132-58.7,132-131.1c0-0.2,0-0.4,0-0.6h22.3L285.1-9.4L285.1-9.4z"/>
					</defs>
					<clipPath id="SVGID_42_">
						<use xlink:href="#SVGID_41_"  style="overflow:visible;"/>
					</clipPath>
					<g class="st25">
						<path class="st14" d="M94.5,28.8c17.7,0,21.6,19.4,21.8,29.2c0.2,19.6-30.1,43.2-34.8,58.7c-5.2-6.7-7.7-13-11.2-20.7
							c-4.2,13.9-47.4,84.3,1.4,131c-5.7,7.8-8.4,12.3-12.4,21.1c-5.2-9.9-9.7-20.1-13.4-30.6c0-0.1-0.1-0.1-0.1-0.1
							c-0.8,0-5,9-12.2,15.3C4.9,135,38.1,55.3,72.9,35.7C81.7,30.8,88.8,28.8,94.5,28.8 M94.5,20.8c-7.5,0-16.1,2.7-25.5,8
							c-20.5,11.5-38.1,39.2-47.3,74.1c-7.4,28.4-12.7,74.3,4.1,132.2l3.5,12.1l9.5-8.4c1.8-1.6,3.4-3.2,4.8-4.9
							c2.6,6.1,5.4,12.1,8.5,18l7.5,14.4l6.8-14.8c3.8-8.2,6.2-12.3,11.6-19.8l4.1-5.6l-5-4.8c-16.2-15.5-22.8-35.1-20-59.9
							c2-17.6,8.4-34.3,13.6-46.2c1.3,2.1,2.7,4.3,4.4,6.4l9.5,12.2l4.4-14.8c1.5-4.9,7.6-12.4,13.4-19.7
							c10.2-12.7,21.9-27,21.7-41.5c-0.1-3.7-0.6-13.3-5.2-21.9C113.9,26.2,105.1,20.8,94.5,20.8L94.5,20.8z"/>
					</g>
				</g>
				<g>
					<defs>
						<path id="SVGID_43_" d="M285.1-9.4H-25.1v207.8h24.8c0,0.2,0,0.4,0,0.6c0,72.4,58.7,131.1,131.1,131.1
							c72.4,0,132-58.7,132-131.1c0-0.2,0-0.4,0-0.6h22.3L285.1-9.4L285.1-9.4z"/>
					</defs>
					<clipPath id="SVGID_44_">
						<use xlink:href="#SVGID_43_"  style="overflow:visible;"/>
					</clipPath>
					<path class="st26" d="M225.5,171.8c-7.1-18-15.8-38.9-25.2-56c-4.1,4.6-7.6,9.1-10.9,14.2c-12.8-11.2-24.4-23.4-35.1-36.6
						c-3.1,4.8-5.3,9.5-8.4,14.2c-12.3-6.2-27.6-24-33.2-35.2c-5.8-11.8-5.1-26.8,1.2-38.3s18.3-27.4,44.9-23.5
						c17.4,2.5,131.5,82.8,66.4,249.7c-5.5-7-11.1-14.1-16.6-21.1c-9.3,5.7-19.9,11.5-30.1,15.4c4.4-9.9,7.6-20.3,8.6-31.1
						c15.3-9.7,24.2-26.8,25.5-44.8C217,177.1,222.2,175.3,225.5,171.8z"/>
				</g>
				<g>
					<defs>
						<path id="SVGID_45_" d="M285.1-9.4H-25.1v207.8h24.8c0,0.2,0,0.4,0,0.6c0,72.4,58.7,131.1,131.1,131.1
							c72.4,0,132-58.7,132-131.1c0-0.2,0-0.4,0-0.6h22.3L285.1-9.4L285.1-9.4z"/>
					</defs>
					<clipPath id="SVGID_46_">
						<use xlink:href="#SVGID_45_"  style="overflow:visible;"/>
					</clipPath>
					<path class="st27" d="M119.6,72.1c5.8,2.3,12.2-1.4,16.7-5.8c4.1-3.9,8.6-10.4,11.4-15.3c10,14.3,20.7,29.5,33.6,41.3
						c1.3-9.4,3.1-24.8,5.5-34c20.1,7.4,48.4,64.8,55.9,86.8c-1.8-47.4-25.4-93.5-62.8-122.7c-4.9-3.8-10.1-7.4-16-9.4
						c-6.4-2.2-13.3-2.4-20.1-2c-2.8,0.1-5.6,0.4-8.3,1.3c-7.5,2.6-12.2,10-15.6,17.2C115.1,39.8,102.9,65.5,119.6,72.1z"/>
				</g>
				<g>
					<defs>
						<path id="SVGID_47_" d="M285.1-9.4H-25.1v207.8h24.8c0,0.2,0,0.4,0,0.6c0,72.4,58.7,131.1,131.1,131.1
							c72.4,0,132-58.7,132-131.1c0-0.2,0-0.4,0-0.6h22.3L285.1-9.4L285.1-9.4z"/>
					</defs>
					<clipPath id="SVGID_48_">
						<use xlink:href="#SVGID_47_"  style="overflow:visible;"/>
					</clipPath>
					<path class="st28" d="M225.5,171.8c-7.1-18-15.8-38.9-25.2-56c-4.1,4.6-7.6,9.1-10.9,14.2c-12.8-11.2-24.4-23.4-35.1-36.6
						c-3.1,4.8-5.3,9.5-8.4,14.2c-12.3-6.2-27.6-24-33.2-35.2c-5.8-11.8-5.1-26.8,1.2-38.3s18.3-27.4,44.9-23.5
						c17.4,2.5,131.5,82.8,66.4,249.7c-5.5-7-11.1-14.1-16.6-21.1c-9.3,5.7-18.9,12.5-29.1,16.4c4.4-9.9,6.6-19.3,7.6-30.1
						c15.2-14.1,24.2-28.8,25.5-46.8C217,177.1,222.2,175.3,225.5,171.8z"/>
				</g>
				<g>
					<defs>
						<path id="SVGID_49_" d="M285.1-9.4H-25.1v207.8h24.8c0,0.2,0,0.4,0,0.6c0,72.4,58.7,131.1,131.1,131.1
							c72.4,0,132-58.7,132-131.1c0-0.2,0-0.4,0-0.6h22.3L285.1-9.4L285.1-9.4z"/>
					</defs>
					<clipPath id="SVGID_50_">
						<use xlink:href="#SVGID_49_"  style="overflow:visible;"/>
					</clipPath>
					<g class="st29">
						<g>
							<g>
								<g>
									<path class="st30" d="M204.9,147.9c-0.3,0-0.6-0.1-0.9-0.1c-0.3,0-1-0.1-1.4-0.1c-2.2-0.2-4.1-0.4-4.3-2.6
										c0-0.2,0-0.5,0.1-0.7c0.3-1.2,0.4-2.4,0.3-3.5c-0.1-2.3-0.6-4.4-1.5-6.5c-0.3-0.7-0.3-1.5,0.1-2.2s1-1.1,1.8-1.3
										c0.7-0.1,5.4-0.1,5.4-0.1h7.3c4.8,0,8.6,3.9,8.6,8.6s-3.9,8.6-8.6,8.6L204.9,147.9L204.9,147.9z"/>
									<path class="st31" d="M211.8,133.2c3.4,0,6.1,2.7,6.1,6.1s-2.7,6.1-6.1,6.1h-7c0-0.2-4-0.4-4-0.6c0.3-1.4,0.4-2.8,0.4-4.2
										c-0.1-2.6-0.7-5.1-1.7-7.4c0.3-0.1,4.7-0.1,5-0.1H211.8 M211.8,128.2h-7.3c-1.1,0-5,0-5.9,0.2c-1.5,0.3-2.8,1.2-3.6,2.6
										s-0.8,3-0.2,4.4c0.8,1.8,1.2,3.7,1.3,5.6c0,0.9,0,1.9-0.3,2.9c-0.1,0.4-0.1,0.9-0.1,1.4c0.1,1.9,1.4,4.1,4.1,4.7
										c0.2,0.1,0.5,0.1,0.9,0.1c0.4,0.1,1,0.1,1.5,0.2c0.3,0,0.8,0.1,1.1,0.1c0.4,0.1,0.9,0.2,1.4,0.2h7c6.1,0,11.1-5,11.1-11.1
										C222.9,133.2,217.9,128.2,211.8,128.2L211.8,128.2z"/>
								</g>
							</g>
							<g>
								<path class="st30" d="M211.8,133.2h-7.3c-0.3,0-4.7,0-5,0.1c1,2.3,1.6,4.8,1.7,7.4c0.1,1.4-0.1,2.8-0.4,4.2
									c0,0.2,4,0.4,4,0.6h6.9c3.4,0,6.1-2.8,6.1-6.1S215.2,133.2,211.8,133.2z"/>
							</g>
						</g>
						<g>
							<g>
								<g>
									<path class="st30" d="M51.6,147.9c-4.8,0-8.6-3.9-8.6-8.6s3.9-8.6,8.6-8.6h7.3c0.1,0,4.8,0,5.4,0.1
										c0.8,0.1,1.4,0.6,1.8,1.3c0.4,0.7,0.4,1.5,0.1,2.2c-0.9,2.1-1.4,4.2-1.5,6.5c-0.1,1.2,0.1,2.4,0.3,3.5
										c0.1,0.2,0.1,0.5,0.1,0.7c-0.1,2.2-2.1,2.4-4.3,2.6c-0.4,0-1.1,0.1-1.4,0.1c-0.3,0.1-0.6,0.1-0.8,0.1L51.6,147.9
										L51.6,147.9z"/>
									<path class="st31" d="M58.9,133.2c0.3,0,4.7,0,5,0.1c-1,2.3-1.6,4.8-1.7,7.4c-0.1,1.4,0.1,2.8,0.4,4.2c0,0.2-4,0.4-4,0.6
										h-7c-3.4,0-6.1-2.8-6.1-6.1s2.7-6.1,6.1-6.1H58.9 M58.9,128.2h-7.3c-6.1,0-11.1,5-11.1,11.1c0,6.1,5,11.1,11.1,11.1h7
										c0.5,0,0.9-0.1,1.4-0.2c0.3,0,0.8-0.1,1.1-0.1c0.6-0.1,1.1-0.1,1.5-0.2c0.3,0,0.6-0.1,0.9-0.1c2.7-0.6,4-2.8,4.1-4.7
										c0-0.5,0-0.9-0.1-1.4c-0.2-1-0.3-1.9-0.3-2.9c0.1-1.9,0.5-3.9,1.3-5.6c0.6-1.4,0.5-3-0.2-4.4c-0.7-1.4-2-2.3-3.6-2.6
										C63.9,128.2,60.1,128.2,58.9,128.2L58.9,128.2z"/>
								</g>
							</g>
						</g>
						<circle class="st32" cx="90.8" cy="142" r="32"/>
						<circle class="st33" cx="90.8" cy="142" r="22.2"/>
						<circle class="st32" cx="172.8" cy="142" r="32"/>
						<circle class="st33" cx="172.8" cy="142" r="22.2"/>
						<g>
							<path class="st30" d="M117,143.9c8.3-5.7,21-5.4,28.9,0.7"/>
							<path class="st31" d="M141,135.9c-6.1-1.9-13-2.1-19.2-0.3c0.7,1.9,1.2,3.9,1.3,6c0.1,2-0.2,5.9-0.9,7.7
								c5.4-2.9,12.9-2.7,18.2,0.4c-0.5-1.5-0.8-5.1-0.9-6.7C139.4,140.5,139.9,138.1,141,135.9z"/>
						</g>
						<g>
							<path class="st30" d="M143.9,145.2c-0.1-1.3-0.9-2.6-0.6-3.9c-7.4-3.9-17-4-24.5-0.1c0.3,1.3,0.5,2.6,0.6,3.9
								c0,0.6,0,1.1,0,1.7c6.9-4.8,17.9-4.1,24.5,1C143.8,147,144,145.8,143.9,145.2z"/>
						</g>
						<g>
							<path class="st30" d="M212.4,133.2h-7.3c-0.3,0-4.7,0-5,0.1c1,2.3,1.6,4.8,1.7,7.4c0.1,1.4-0.1,2.8-0.4,4.2
								c0,0.2,0,0.4,0,0.6h11c3.4,0,6.1-2.8,6.1-6.1S215.8,133.2,212.4,133.2z"/>
						</g>
						<g>
							<path class="st30" d="M52.2,133.2h7.3c0.3,0,4.7,0,5,0.1c-1,2.3-1.6,4.8-1.7,7.4c-0.1,1.4,0.1,2.8,0.4,4.2c0,0.2,0,0.4,0,0.6
								h-11c-3.4,0-6.1-2.8-6.1-6.1S48.8,133.2,52.2,133.2z"/>
						</g>
					</g>
				</g>
				<g>
					<defs>
						<path id="SVGID_51_" d="M285.1-9.4H-25.1v207.8h24.8c0,0.2,0,0.4,0,0.6c0,72.4,58.7,131.1,131.1,131.1
							c72.4,0,132-58.7,132-131.1c0-0.2,0-0.4,0-0.6h22.3L285.1-9.4L285.1-9.4z"/>
					</defs>
					<clipPath id="SVGID_52_">
						<use xlink:href="#SVGID_51_"  style="overflow:visible;"/>
					</clipPath>
					<g class="st34">
						<path class="st14" d="M104.3,138.6c-6.9-3.9-16.3-4-23.8-0.4l-6.1,0.1l3.5,5.8c0.7,1.4,2,2.2,3.3,2.2c0.6,0,1.1-0.1,1.7-0.4
							c5.4-2.9,13-3,18-0.2c1.8,1,4.1,0.2,5-1.7C106.8,142.1,106.1,139.6,104.3,138.6z"/>
					</g>
				</g>
				<g>
					<defs>
						<path id="SVGID_53_" d="M285.1-9.4H-25.1v207.8h24.8c0,0.2,0,0.4,0,0.6c0,72.4,58.7,131.1,131.1,131.1
							c72.4,0,132-58.7,132-131.1c0-0.2,0-0.4,0-0.6h22.3L285.1-9.4L285.1-9.4z"/>
					</defs>
					<clipPath id="SVGID_54_">
						<use xlink:href="#SVGID_53_"  style="overflow:visible;"/>
					</clipPath>
					<g class="st35">
						<path class="st14" d="M160.2,138.6c6.9-3.9,16.4-4,23.8-0.4l6.1,0.1l-3.5,5.8c-0.6,1.4-2,2.2-3.4,2.2c-0.6,0-1.1-0.1-1.7-0.4
							c-5.4-2.9-13-3-18-0.2c-1.8,1-4.1,0.2-5-1.7C157.6,142.1,158.3,139.6,160.2,138.6z"/>
					</g>
				</g>
				<g>
					<defs>
						<path id="SVGID_55_" d="M285.1-9.4H-25.1v207.8h24.8c0,0.2,0,0.4,0,0.6c0,72.4,58.7,131.1,131.1,131.1
							c72.4,0,132-58.7,132-131.1c0-0.2,0-0.4,0-0.6h22.3L285.1-9.4L285.1-9.4z"/>
					</defs>
					<clipPath id="SVGID_56_">
						<use xlink:href="#SVGID_55_"  style="overflow:visible;"/>
					</clipPath>
					<line class="st36" x1="224.6" y1="169.8" x2="240.7" y2="206.7"/>
				</g>
				<g>
					<defs>
						<path id="SVGID_57_" d="M285.1-9.4H-25.1v207.8h24.8c0,0.2,0,0.4,0,0.6c0,72.4,58.7,131.1,131.1,131.1
							c72.4,0,132-58.7,132-131.1c0-0.2,0-0.4,0-0.6h22.3L285.1-9.4L285.1-9.4z"/>
					</defs>
					<clipPath id="SVGID_58_">
						<use xlink:href="#SVGID_57_"  style="overflow:visible;"/>
					</clipPath>
					<path class="st37" d="M179,43.9c1.2,1.3,2.3,2.7,3.4,4.1"/>
				</g>
				<g>
					<defs>
						<path id="SVGID_59_" d="M285.1-9.4H-25.1v207.8h24.8c0,0.2,0,0.4,0,0.6c0,72.4,58.7,131.1,131.1,131.1
							c72.4,0,132-58.7,132-131.1c0-0.2,0-0.4,0-0.6h22.3L285.1-9.4L285.1-9.4z"/>
					</defs>
					<clipPath id="SVGID_60_">
						<use xlink:href="#SVGID_59_"  style="overflow:visible;"/>
					</clipPath>
					<path class="st38" d="M163.1,28.4c2.3,1.9,4.6,3.9,6.8,6"/>
				</g>
			</g>
		</g>
	</g>
	<g id="Camada_4" class="st39">
		<path class="st40" d="M285.3-10H-25v207.8h24.8c0,0.2,0,0.4,0,0.6c0,72.4,58.7,131.1,131.1,131.1c72.4,0,131-58.7,131-131.1
			c0-0.2,0-0.4,0-0.6h23.3L285.3-10L285.3-10z"/>
	</g>
	<g id="Camada_3" class="st39">
		<circle class="st41" cx="130.9" cy="197.2" r="131.1"/>
		<path class="st40" d="M285.1-9.1H-25.2v207.8h24.9c0,0.2,0,0.4,0,0.6c0,72.4,58.7,131.1,131.1,131.1c72.4,0,131-58.7,131-131.1
			c0-0.2,0-0.4,0-0.6h23.3L285.1-9.1L285.1-9.1z"/>
	</g>
</g>
<g id="Camada_2" class="st39">
	<g class="st42">
		<g>
			<path class="st43" d="M261,1v328H1V1H261 M262,0H0v330h262V0L262,0z"/>
		</g>
		<line class="st44" x1="1.4" y1="139.5" x2="261.1" y2="139.5"/>
		<line class="st44" x1="0.8" y1="201.8" x2="261.1" y2="201.8"/>
		<line class="st44" x1="261.4" y1="242.8" x2="1.1" y2="242.8"/>
		<ellipse class="st44" cx="131" cy="161.8" rx="84.3" ry="80.6"/>
		<ellipse class="st44" cx="83.8" cy="139.5" rx="12.5" ry="12.5"/>
		<ellipse class="st44" cx="179.7" cy="139.5" rx="12.5" ry="12.5"/>
		<ellipse class="st44" cx="131" cy="198.7" rx="131" ry="131.3"/>
		<line class="st44" x1="131" y1="329.3" x2="131" y2="1.1"/>
		<line class="st44" x1="47" y1="329.3" x2="47" y2="1.1"/>
		<line class="st44" x1="215" y1="329.3" x2="215" y2="1.1"/>
	</g>
</g>
</svg>
