<?xml version="1.0" encoding="utf-8"?>
<!-- Generator: Adobe Illustrator 24.0.1, SVG Export Plug-In . SVG Version: 6.00 Build 0)  -->
<svg version="1.1" xmlns="http://www.w3.org/2000/svg" xmlns:xlink="http://www.w3.org/1999/xlink" x="0px" y="0px"
	 viewBox="0 0 262 330" style="enable-background:new 0 0 262 330;" xml:space="preserve">
<style type="text/css">
	.st0{clip-path:url(#SVGID_2_);}
	.st1{fill:#FFBF1F;}
	.st2{fill:none;stroke:#012442;stroke-width:48;stroke-linecap:round;stroke-linejoin:round;stroke-miterlimit:10;}
	.st3{fill:none;stroke:#DD8064;stroke-width:30;stroke-linecap:round;stroke-linejoin:round;stroke-miterlimit:10;}
	.st4{fill:#DD8064;}
	.st5{fill:#83D9FD;}
	.st6{fill:none;stroke:#012442;stroke-width:8;stroke-linecap:round;stroke-miterlimit:10;}
	.st7{fill:#012442;}
	.st8{fill:#2F61DD;}
	.st9{fill:#2DB5F9;}
	.st10{fill:none;stroke:#012442;stroke-width:8;stroke-linecap:round;stroke-linejoin:round;stroke-miterlimit:10;}
	.st11{fill:#BA4A6D;}
	.st12{fill:none;stroke:#012442;stroke-width:7;stroke-linecap:round;stroke-linejoin:round;stroke-miterlimit:10;}
	.st13{fill:#FFFFFF;}
	.st14{fill:#B54772;}
	.st15{fill:#BC587A;}
	.st16{display:none;}
	.st17{display:inline;fill:#FFFFFF;}
	.st18{display:inline;opacity:0.33;fill:none;stroke:#000000;stroke-miterlimit:10;enable-background:new    ;}
	.st19{display:inline;}
	.st20{fill:#2BB2FC;}
	.st21{fill:none;stroke:#2BB2FC;stroke-miterlimit:10;}
</style>
<g id="Camada_1">
	<g id="Camada_7">
	</g>
	<g id="Camada_8">
	</g>
	<g id="Camada_5">
		<g>
			<g>
				<g>
					<defs>
						<path id="SVGID_1_" d="M286.1-9.4H-24.1v207.8h23.8c0,0.2,0,0.4,0,0.6c0,72.4,59.7,131.1,132.1,131.1
							c72.4,0,131-58.7,131-131.1c0-0.2,0-0.4,0-0.6h23.3L286.1-9.4L286.1-9.4z"/>
					</defs>
					<clipPath id="SVGID_2_">
						<use xlink:href="#SVGID_1_"  style="overflow:visible;"/>
					</clipPath>
					<g class="st0">
						<circle class="st1" cx="131.3" cy="198.6" r="131.1"/>
						<path class="st2" d="M189.2,251.7c0,0,26.9,22.6,41.2,85.1"/>
						<path class="st3" d="M189.2,251.7c0,0,26.9,22.6,41.2,85.1"/>
						<path class="st2" d="M72.4,251.7c0,0-26.9,22.6-41.2,85.1"/>
						<path class="st3" d="M72.4,251.7c0,0-26.9,22.6-41.2,85.1"/>
						<path class="st4" d="M165.4,234.9l-1-5.9h-67l-1,5.9c-0.3,1.6-0.4,3.2-0.4,4.7c0,17.4,15.6,31.6,34.8,31.6
							s34.9-14.2,34.9-31.6C165.8,238.1,165.7,236.5,165.4,234.9z"/>
						<path class="st5" d="M172.3,243.5c-4.7,2.8-9.6,5.1-14.6,7.2c0,0.3,0,0.7,0,1c0,13.6-12.5,24.6-27.9,24.6
							c-14.2,0-26-9.5-27.6-21.6c-6-2.5-11.4-6.3-15.8-11.8C52.2,277.1,54,370,54,370l156.9-0.9
							C210.9,369.2,212.4,284.2,172.3,243.5z"/>
						<g>
							<g>
								<path class="st5" d="M181.7,291.6l48.4-24.6c-0.3-0.7-22.5-47-56.5-41.1l-7,1.1c-10.8,4.4-9.6,19.3-5.3,30.1L181.7,291.6z"
									/>
							</g>
						</g>
						<g>
							<path class="st6" d="M201.9,283l30.2-14c-0.3-0.7-25.6-54.2-62.5-42"/>
						</g>
						<g>
							<g>
								<path class="st5" d="M79.9,291.6L31.5,267c0.3-0.7,22.5-47,56.5-41.1l7,1.1c10.8,4.4,9.6,19.3,5.3,30.1L79.9,291.6z"/>
							</g>
						</g>
						<g>
							<path class="st6" d="M63.7,283.9L29.5,269c0.3-0.7,25.6-54.2,62.5-42"/>
						</g>
						<g>
							<path class="st7" d="M157.5,236.1c0.2,1.3,0.3,2.7,0.3,4.1c0,15.4-12.5,27.8-27.9,27.8s-27.8-12.5-27.8-27.9
								c0-1.4,0.1-2.7,0.3-4.1L157.5,236.1 M164.4,228.1h-6.9h-55.1h-6.9l-1,6.8c-0.2,1.7-0.4,3.5-0.4,5.2
								c0,19.8,16.1,35.8,35.8,35.8s35.8-16.1,35.8-35.9c0-1.7-0.1-3.5-0.4-5.2L164.4,228.1L164.4,228.1z"/>
						</g>
						<path class="st6" d="M193.3,264.5c0,0,13,39.5,14.6,95.2"/>
						<path class="st6" d="M69.9,264.5c0,0-13,39.5-14.6,95.2"/>
						<g>
							<path class="st4" d="M209,172.9c0.1,41-34.4,70.8-79.5,70.9l0,0c-45.1,0.2-77.8-29.4-78-70.4l-0.3-43
								c-0.1-15.1,4.2-25.7,12.1-37.1c19.3-27.9,70-25.7,75-25.3c20.4,1.3,45.1,7.5,57.8,25.2c7.5,10.4,12.2,21.5,12.2,40.9
								L209,172.9z"/>
						</g>
						<g>
							<path class="st7" d="M130.2,68.3c28.7,0,57.1,9.7,69.9,31.3c9.4,15.7,11.7,47.4,11.7,47.4l0,0c0.4,0,13.6,7.5,13.7,16.9
								c0,9.4-7.5,17-16.9,17c-0.1,0-0.5,0-1.1,0c-4.2,36.4-35.1,62-76.9,62.1c-0.1,0-0.2,0-0.4,0c-42.1,0-73.3-25.9-77.2-62.8
								c-1.4,0-2.3,0-2.4,0c0,0,0,0-0.1,0c-9.1,0-16.6-7.4-16.6-16.6c0-9.2,7.4-16.6,16.5-16.7c0.1,0,0.8,0,1.9,0l-1.1-7.3
								c0-4.5-3.3-28.3,4.1-40.1C67.9,79.6,99.2,68.3,130.2,68.3 M130.2,60.3c-16.7,0-33.1,3-47.3,8.8
								c-15.6,6.3-27.4,15.4-34.3,26.4c-7.5,12-6.2,31.7-5.5,41.2c0.1,1.3,0.2,2.6,0.2,3.1v0.4c-3.8,1.2-7.3,3.3-10.2,6.2
								c-4.6,4.7-7.2,10.9-7.2,17.4c0,12,8.7,22,20.1,24.1c7.2,37.6,40.9,63.2,84.1,63.2h0.4c22.3-0.1,42.2-6.7,57.6-19.3
								c13.6-11.1,22.8-26.4,26.3-43.5c4.4-1.1,8.5-3.4,11.9-6.7c4.7-4.7,7.3-11,7.3-17.7c0-6.2-3.2-12.3-9.4-17.9
								c-1.7-1.6-3.4-2.8-4.7-3.8c-1-9.7-4.2-33-12.4-46.8C193.9,73.4,165.1,60.3,130.2,60.3L130.2,60.3z"/>
						</g>
						<g>
							<path class="st4" d="M82.9,163.5c0,8.4,5,15.4-3.1,16.5c-0.7,0.1-29.6,0.2-30.4,0.2c-9.2,0-16.6-7.4-16.7-16.6
								c0-9.2,7.4-16.6,16.5-16.7c0.8,0,24.1,0,24.8,0.1C82.2,148.1,82.8,155.1,82.9,163.5z"/>
						</g>
						<g>
							<path class="st4" d="M174.3,164.1c0,8.6-5,15.8,3.3,16.8c0.7,0.1,30.3,0,31,0c9.4,0,16.9-7.6,16.9-17c0-9.4-7.6-16.9-17-16.9
								c-0.8,0-24.6,0.1-25.3,0.2C174.9,148.4,174.3,155.5,174.3,164.1z"/>
						</g>
						<path class="st8" d="M239.9,107.5c-1.7-9.1-7.8-17.2-16-21.4c3-3.4,2.8-8.8,2.4-13.3c-0.7-7.5-4.7-14.7-10.7-19.3
							c-6-4.6-14-6.5-21.5-5.2c1.5-2.1-1-5.8-2.2-8s-3.3-4-5.5-5.4c-4.4-2.8-9.5-4.9-14.6-4.5c-4.8,0.3-9.5,3.1-11.4,7.4
							c0.6-2.8-2-6.1-4-8.5c-9.1-10.9-24.2-17-38.1-14C104.2,18.2,92.6,30.8,92,45c-2.8-2.7-6.7-3-10.6-3.5
							c-4.2-0.6-8.6-1.2-12.8-0.6c-7.1,1-13.7,5.3-17.6,11.4c-3.9,6.1-5.2,13.7-3.9,20.7c-5.5-1.7-12.7,2-17.8,4.7s-9,7.6-10.6,13.2
							c-1.1,3.8-1.2,8.1,0.6,11.7s5.3,6.4,9.3,6.6c-5.9,6-10.4,14.3-9.4,22.7s5.9,16.2,13,20.6c3.7-3.6,8.5-6.9,13.5-8
							c0.1,2.1,1.8,3.7,4,4.5c-0.5-1.6-0.7-3.2-0.7-4.9c-0.1-16.9-0.9-34.4,8.5-48.8C78.9,51,185.8,59,202.4,100.3
							c0.5,1,1,2.1,1.4,3.1c6.1,17.6,9.6,36.2,8.9,54.8c0.7-0.2,1.5-0.4,2.1-0.8c3.7-1.6,6.8-4.4,8.8-7.9c2,3.7,4.7,7.3,6.1,11.3
							c4.3-2.8,7.2-7.6,7.7-12.7c0.5-5.1-1.4-10.4-5-13.9C238.5,127.3,241.6,116.5,239.9,107.5z"/>
						<g>
							<path class="st9" d="M51.1,65.3c3.9-6,10.4-10.4,17.6-11.4c4.2-0.6,8.6,0,12.8,0.6c2.8,0.4,5.7,0.6,8.1,1.8
								c1.2,0.6,2.5-0.2,2.7-1.5c2-12.9,12.9-23.9,25.8-26.7c13.9-3,29,3.1,38.1,14c1.1,1.4,2.5,3,3.3,4.6c0.6,1.2,2.2,1.4,3.1,0.5
								c2.4-2.3,5.7-3.8,9.1-4c5.1-0.4,10.1,1.6,14.5,4.4c2.3,1.5,5.2,4.7,6.5,7c0.8,1.4,1.7,3.1,1.8,4.5c0.1,1,1.1,1.8,2.2,1.7
								c6.7-0.5,13.5,1.5,18.8,5.5c3.5,2.7,6.3,6.2,8.2,10.1c0.6,1.4,2.7,0.8,2.6-0.7c0,0,0-0.1,0-0.1c-0.7-7.5-4.7-14.7-10.7-19.3
								c-5.3-4.1-12.2-6-18.8-5.5c-1.1,0.1-2.1-0.6-2.2-1.7c-0.1-1.4-1-3.1-1.8-4.5c-1.3-2.4-4.2-5.6-6.5-7
								c-4.3-2.8-9.4-4.8-14.5-4.4c-3.4,0.2-6.7,1.7-9.1,4c-0.9,0.9-2.5,0.7-3.1-0.5c-0.8-1.7-2.2-3.3-3.3-4.6
								c-9.1-10.9-24.2-17-38.1-14C105.2,20.9,94.3,32,92.3,44.9c-0.2,1.3-1.6,2-2.7,1.5c-2.4-1.2-5.3-1.4-8.1-1.8
								c-4.2-0.6-8.6-1.2-12.8-0.6c-7.1,1-13.7,5.3-17.6,11.4c-1.7,2.7-2.9,5.6-3.6,8.7C47,66.2,49.9,67.3,51.1,65.3
								C51.1,65.4,51.1,65.4,51.1,65.3z"/>
							<path class="st9" d="M18.8,103.9c1.6-5.6,5.5-10.4,10.6-13.2c4.8-2.6,11.6-6,17-4.9c0.4,0.1,0.7-0.3,0.7-0.7
								c-0.4-2.9-0.5-5.8-0.1-8.7c0-0.3-0.1-0.6-0.4-0.7c-5.4-1.2-12.3,2.2-17.2,4.9c-5.1,2.8-9,7.6-10.6,13.2
								c-1,3.3-1.1,6.9,0,10.2C18.8,104,18.8,104,18.8,103.9z"/>
						</g>
						<path class="st10" d="M211.2,156.9c2.9,2.4,0.2,2.1,3.7,0.6c3.7-1.6,6.8-4.4,8.8-7.9c2,3.7,4.7,7.3,6.1,11.3
							c4.3-2.8,7.2-7.6,7.7-12.7c0.5-5.1-1.4-10.4-5-13.9c6.1-6.9,9.3-17.7,7.5-26.8s-7.8-17.2-16-21.4c3-3.4,2.8-8.8,2.4-13.3
							c-0.7-7.5-4.7-14.7-10.7-19.3c-6-4.6-14-6.5-21.5-5.2c1.5-2.1-1-5.8-2.2-8s-3.3-4-5.5-5.4c-4.4-2.8-9.5-4.9-14.6-4.5
							c-5.2,0.4-10.4,3.6-11.9,8.6c1.8-3.1-1.3-6.9-3.6-9.7c-9.1-10.9-24.2-17-38.1-14S92.6,30.8,92,45c-2.8-2.7-6.7-3-10.6-3.5
							c-4.2-0.6-8.6-1.2-12.8-0.6c-7.1,1-13.7,5.3-17.6,11.4S45.9,66,47.2,73.1c-5.5-1.7-12.7,2-17.8,4.7s-9,7.6-10.6,13.2
							c-1.1,3.8-1.2,8.1,0.6,11.7c1.7,3.6,5.3,6.4,9.3,6.6c-5.9,6-10.4,14.3-9.4,22.7s5.9,16.2,13,20.6c3.7-3.6,9.2-8.1,17.5-6
							c0,0-8-36.6,11.8-55.5s48.1-23.2,69-23.2c16.5,0,48.8-0.6,68.3,29.3S211.2,156.9,211.2,156.9z"/>
						<g>
							
								<ellipse transform="matrix(0.9667 -0.2558 0.2558 0.9667 -38.857 53.249)" class="st11" cx="185.3" cy="176" rx="12.4" ry="11.1"/>
						</g>
						<g>
							
								<ellipse transform="matrix(0.2558 -0.9667 0.9667 0.2558 -114.4624 203.3312)" class="st11" cx="74.8" cy="176" rx="11.1" ry="12.4"/>
						</g>
						<path class="st12" d="M69.6,118.1c8.9-5.2,19.9-6.9,29.9-4.2"/>
						<g>
							<g>
								<path class="st13" d="M131.1,197.6c-9.2,0-20.9-5.5-26.1-17.8c-0.5-1.2-0.4-2.6,0.4-3.8c0.7-1.1,2-1.8,3.3-1.8l43.7,0
									c1.2,0,2.3,0.5,3.1,1.4s1.1,2.1,0.9,3.2C155,187.1,142.5,197.6,131.1,197.6z"/>
								<path class="st14" d="M108.7,178.2l43.6,0c-1,6.2-11.9,15.4-21.2,15.4C122.6,193.6,113,188.5,108.7,178.2 M108.7,170.2
									c-2.7,0-5.2,1.3-6.7,3.6c-1.5,2.2-1.8,5.1-0.7,7.5c5.1,12.1,17.1,20.3,29.8,20.3c12.4,0,27.4-11.4,29.1-22.1
									c0.4-2.3-0.3-4.7-1.8-6.5s-3.8-2.8-6.1-2.8L108.7,170.2L108.7,170.2L108.7,170.2z"/>
							</g>
						</g>
						<path class="st15" d="M77.8,134.2c9.1-13.5,27.1,0.2,24.8,14C84.6,139.1,62.3,157.2,77.8,134.2z"/>
						<g>
							<path class="st7" d="M101,143.7c-7.5-4.2-17.9-4.3-26-0.4l-6.6,0.1l3.8,6.3c0.7,1.6,2.2,2.5,3.7,2.5c0.6,0,1.2-0.1,1.8-0.5
								c5.9-3.2,14.2-3.2,19.7-0.2c2,1.1,4.5,0.3,5.5-1.9C103.8,147.5,103,144.9,101,143.7z"/>
						</g>
						<path class="st15" d="M181.8,133.9c-9.1-13.5-27.1,0.2-24.8,14C175.1,138.8,197.4,156.9,181.8,133.9z"/>
						<g>
							<path class="st7" d="M159.1,143.7c7.5-4.2,17.9-4.3,26-0.4l6.6,0.1l-3.8,6.3c-0.7,1.6-2.2,2.5-3.7,2.5
								c-0.6,0-1.2-0.1-1.8-0.5c-5.9-3.2-14.2-3.2-19.6-0.2c-2,1.1-4.5,0.3-5.5-1.9C156.3,147.5,157.1,144.9,159.1,143.7z"/>
						</g>
						<path class="st12" d="M189.5,116.1c-8.9-5.2-19.9-6.9-29.9-4.2"/>
					</g>
				</g>
			</g>
		</g>
	</g>
	<g id="Camada_4" class="st16">
		<path class="st17" d="M285.3-10H-25v207.8h24.8c0,0.2,0,0.4,0,0.6c0,72.4,58.7,131.1,131.1,131.1c72.4,0,131-58.7,131-131.1
			c0-0.2,0-0.4,0-0.6h23.3L285.3-10L285.3-10z"/>
	</g>
	<g id="Camada_3" class="st16">
		<circle class="st18" cx="130.9" cy="197.2" r="131.1"/>
		<path class="st17" d="M285.1-9.1H-25.2v207.8h24.9c0,0.2,0,0.4,0,0.6c0,72.4,58.7,131.1,131.1,131.1c72.4,0,131-58.7,131-131.1
			c0-0.2,0-0.4,0-0.6h23.3L285.1-9.1L285.1-9.1z"/>
	</g>
</g>
<g id="Camada_2" class="st16">
	<g class="st19">
		<g>
			<path class="st20" d="M261,1v328H1V1H261 M262,0H0v330h262V0L262,0z"/>
		</g>
		<line class="st21" x1="1.4" y1="139.5" x2="261.1" y2="139.5"/>
		<line class="st21" x1="0.8" y1="201.8" x2="261.1" y2="201.8"/>
		<line class="st21" x1="261.4" y1="242.8" x2="1.1" y2="242.8"/>
		<ellipse class="st21" cx="131" cy="161.8" rx="84.3" ry="80.6"/>
		<ellipse class="st21" cx="83.8" cy="139.5" rx="12.5" ry="12.5"/>
		<ellipse class="st21" cx="179.7" cy="139.5" rx="12.5" ry="12.5"/>
		<ellipse class="st21" cx="131" cy="198.7" rx="131" ry="131.3"/>
		<line class="st21" x1="131" y1="329.3" x2="131" y2="1.1"/>
		<line class="st21" x1="47" y1="329.3" x2="47" y2="1.1"/>
		<line class="st21" x1="215" y1="329.3" x2="215" y2="1.1"/>
	</g>
</g>
</svg>
