<?xml version="1.0" encoding="utf-8"?>
<!-- Generator: Adobe Illustrator 24.0.1, SVG Export Plug-In . SVG Version: 6.00 Build 0)  -->
<svg version="1.1" xmlns="http://www.w3.org/2000/svg" xmlns:xlink="http://www.w3.org/1999/xlink" x="0px" y="0px"
	 viewBox="0 0 262 330" style="enable-background:new 0 0 262 330;" xml:space="preserve">
<style type="text/css">
	.st0{clip-path:url(#SVGID_2_);}
	.st1{fill:#22A1FF;}
	.st2{fill:none;stroke:#012442;stroke-width:48;stroke-linecap:round;stroke-linejoin:round;stroke-miterlimit:10;}
	.st3{fill:none;stroke:#FFBB71;stroke-width:30;stroke-linecap:round;stroke-linejoin:round;stroke-miterlimit:10;}
	.st4{fill:#FFBB71;}
	.st5{fill:#E86969;stroke:#012442;stroke-width:3;stroke-linecap:round;stroke-linejoin:round;stroke-miterlimit:10;}
	.st6{fill:#E86969;}
	.st7{fill:none;stroke:#012442;stroke-width:8;stroke-linecap:round;stroke-miterlimit:10;}
	.st8{fill:#012442;}
	.st9{fill:#FFBA31;stroke:#012442;stroke-width:8;stroke-linecap:round;stroke-linejoin:round;stroke-miterlimit:10;}
	.st10{fill:#FFFFFF;}
	.st11{fill:#E05F5F;}
	.st12{fill:#F7957F;}
	.st13{fill:#FFBA31;}
	.st14{fill:#2DB5F9;}
	.st15{fill:none;stroke:#042342;stroke-width:4;stroke-linecap:round;stroke-linejoin:round;stroke-miterlimit:10;}
	.st16{fill:none;stroke:#012442;stroke-width:8;stroke-linecap:round;stroke-linejoin:round;stroke-miterlimit:10;}
	.st17{fill:none;stroke:#2DB5F9;stroke-width:6;stroke-linecap:round;stroke-linejoin:round;stroke-miterlimit:10;}
	.st18{fill:#FCE960;}
	.st19{fill:none;stroke:#FFFFFF;stroke-width:6;stroke-linecap:round;stroke-linejoin:round;stroke-miterlimit:10;}
	.st20{display:none;}
	.st21{display:inline;fill:#FFFFFF;}
	.st22{display:inline;opacity:0.33;fill:none;stroke:#000000;stroke-miterlimit:10;enable-background:new    ;}
	.st23{display:inline;}
	.st24{fill:#2BB2FC;}
	.st25{fill:none;stroke:#2BB2FC;stroke-miterlimit:10;}
</style>
<g id="Camada_1">
	<g id="Camada_7">
	</g>
	<g id="Camada_8">
		<g>
			<g>
				<defs>
					<path id="SVGID_1_" d="M286.1-9.4H-24.1v207.8h23.8c0,0.2,0,0.4,0,0.6c0,6.5,0.5,13,1.4,19.3c-5.7,1.7-8.9,7.1-8.9,13.5
						c0,7.8,6.1,14,13.6,14c1.1,0,1.5,0,2.5-0.3C27.1,295,75.7,330,131.7,330c50.7,0,94.7-28.8,116.5-70.9c1.8,1.1,3.9,1.7,6.2,1.7
						c6.9,0,12.4-5.6,12.4-12.4c0-5.8-4-10.7-9.4-12c3.5-11.9,5.4-24.4,5.4-37.4c0-0.2,0-0.4,0-0.6h23.3L286.1-9.4L286.1-9.4z"/>
				</defs>
				<clipPath id="SVGID_2_">
					<use xlink:href="#SVGID_1_"  style="overflow:visible;"/>
				</clipPath>
				<g class="st0">
					<circle class="st1" cx="131" cy="198.9" r="131.1"/>
					<path class="st2" d="M189.4,253.1c0,0,26.9,22.6,41.2,85.1"/>
					<path class="st3" d="M189.4,253.1c0,0,26.9,22.6,41.2,85.1"/>
					<path class="st2" d="M72.6,253.1c0,0-26.9,22.6-41.2,85.1"/>
					<path class="st3" d="M72.6,253.1c0,0-26.9,22.6-41.2,85.1"/>
					<path class="st4" d="M164.7,233.6l-1-5.9h-67l-1,5.9c-0.3,1.6-0.4,3.2-0.4,4.7c0,17.5,15.6,31.6,34.8,31.6s34.8-14.2,34.8-31.6
						C165.1,236.7,165,235.1,164.7,233.6z"/>
					<path class="st5" d="M172.5,244.9c-4.7,2.8-9.6,5.1-14.6,7.2c0,0.3,0,0.7,0,1c0,13.6-12.5,24.6-27.9,24.6
						c-14.2,0-26-9.5-27.6-21.6c-6-2.5-11.4-6.3-15.8-11.8c-34.3,34.3-32.5,127.1-32.5,127.1l156.9-0.9
						C211,370.6,212.5,285.6,172.5,244.9z"/>
					<g>
						<g>
							<path class="st6" d="M181.9,293l48.4-24.6c-0.3-0.7-22.5-47-56.5-41.1l-7,1.1c-10.8,4.4-9.6,19.3-5.3,30.1L181.9,293z"/>
						</g>
					</g>
					<g>
						<path class="st7" d="M202.1,284.4l30.2-14c-0.3-0.7-25.6-54.2-62.5-42"/>
					</g>
					<g>
						<g>
							<path class="st6" d="M80,293l-48.4-24.6c0.3-0.7,22.5-47,56.5-41.1l7,1.1c10.8,4.4,9.6,19.3,5.3,30.1L80,293z"/>
						</g>
					</g>
					<g>
						<path class="st7" d="M63.9,285.3l-34.2-14.9c0.3-0.7,25.6-54.2,62.5-42"/>
					</g>
					<g>
						<path class="st8" d="M157.7,237.5c0.2,1.3,0.3,2.7,0.3,4.1c0,15.4-12.5,27.8-27.9,27.8s-27.8-12.5-27.8-27.9
							c0-1.4,0.1-2.7,0.3-4.1L157.7,237.5 M164.6,229.5h-6.9h-55.1h-6.9l-1,6.8c-0.2,1.7-0.4,3.5-0.4,5.2
							c0,19.8,16.1,35.8,35.8,35.8s35.8-16.1,35.8-35.9c0-1.7-0.1-3.5-0.4-5.2L164.6,229.5L164.6,229.5z"/>
					</g>
					<path class="st7" d="M193.5,265.9c0,0,13,39.5,14.6,95.2"/>
					<path class="st7" d="M70.1,265.9c0,0-13,39.5-14.6,95.2"/>
					<g>
						<path class="st4" d="M209.1,174.3c0.1,41-34.4,70.8-79.5,70.9l0,0c-45.1,0.2-77.8-29.4-78-70.4l-0.3-43
							c-0.1-15.1,4.2-25.7,12.1-37.1c19.3-27.9,70-25.7,75-25.3c20.4,1.3,45.1,7.5,57.8,25.2c7.5,10.4,12.2,21.5,12.2,40.9
							L209.1,174.3z"/>
					</g>
					<g>
						<path class="st8" d="M131.2,69.2c28.1,0,56.1,9.9,69.1,31.8c9.4,15.7,9.7,47.4,9.7,47.4c0.4,0,2.6,0,2.7,0c0,0,0,0,0.1,0
							c9.3,0,12.9,7.6,13,16.9c0,9.4-7.5,17-16.9,17c-0.1,0-0.5,0-1.1,0c-4.2,36.4-35.1,62-76.9,62.1c-0.1,0-0.2,0-0.4,0
							c-42.1,0-73.3-25.9-77.2-62.8c-1.4,0-2.3,0-2.4,0c0,0,0,0-0.1,0c-9.1,0-16.6-7.4-16.6-16.6c0-9.2,7.4-16.6,16.5-16.7
							c0.1,0,0.8,0,1.9,0l-0.1-7.3c0-4.5-0.3-29.3,7.1-41.1C71.9,80.2,101.6,69.2,131.2,69.2 M131.2,61.2L131.2,61.2
							c-34.5,0-65.3,13.6-78.5,34.6c-5.5,8.9-8.3,23.9-8.3,44.8v0.5v0.1v0c-4.2,1.1-8.1,3.3-11.2,6.5c-4.6,4.7-7.2,10.9-7.1,17.4
							c0,12,8.7,22,20.1,24.1c7.2,37.6,40.9,63.2,84.1,63.2h0.4c22.3-0.1,42.2-6.7,57.6-19.3c13.6-11.1,22.8-26.4,26.3-43.5
							c4.4-1.1,8.5-3.4,11.9-6.7c4.7-4.7,7.3-11,7.2-17.7c-0.1-13.2-6.1-22.2-16-24.4c-0.7-11-3-31.4-10.5-44
							C193.8,74.5,165.5,61.2,131.2,61.2L131.2,61.2z"/>
					</g>
					<g>
						<path class="st4" d="M83,164.9c0,8.4,5,15.4-3.1,16.5c-0.7,0.1-29.6,0.2-30.4,0.2c-9.2,0-16.6-7.4-16.7-16.6
							c0-9.2,7.4-16.6,16.5-16.7c0.8,0,24.1,0,24.8,0.1C82.4,149.5,83,156.5,83,164.9z"/>
					</g>
					<g>
						<path class="st4" d="M174.5,165.5c0,8.6-5,15.8,3.3,16.8c0.7,0.1,30.3,0,31,0c9.4,0,16.9-7.6,16.9-17c0-9.4-7.6-16.9-17-16.9
							c-0.8,0-24.6,0.1-25.3,0.2C175,149.8,174.4,156.9,174.5,165.5z"/>
					</g>
					<path class="st9" d="M181.3,83.5c0-11.9-2.5-23.8-7.3-34.7c-1.8-4-14.3-18.3-18.5-19.5c-4.3-1.3-8.7,1-12.5,3.4
						c-5.4,3.4-10.9,7.7-12.7,13.8c-1.4,4.6-1,19.9-1.5,24.7C131.4,70.7,160.9,71.4,181.3,83.5z"/>
					<g>
						<g>
							<path class="st10" d="M129.6,206.6c-9.2,0-20.9-5.5-26.1-17.8c-0.5-1.2-0.4-2.6,0.3-3.8c0.7-1.1,2-1.8,3.3-1.8l43.6,0
								c1.2,0,2.3,0.5,3.1,1.4s1.1,2.1,0.9,3.2C153.5,196.1,141,206.6,129.6,206.6z"/>
							<path class="st11" d="M107.2,187.2l43.6,0c-1,6.1-11.9,15.4-21.2,15.4C121.1,202.6,111.5,197.5,107.2,187.2 M107.2,179.2
								c-2.7,0-5.2,1.3-6.7,3.6c-1.5,2.2-1.8,5.1-0.7,7.5c5.1,12.1,17.1,20.3,29.8,20.3c12.4,0,27.4-11.4,29.1-22.1
								c0.4-2.3-0.3-4.7-1.8-6.5s-3.8-2.8-6.1-2.8L107.2,179.2L107.2,179.2L107.2,179.2z"/>
						</g>
					</g>
					<path class="st8" d="M111.7,194.2c0,0,19.1,1.1,35.7-0.6C147.4,193.6,131.1,213.8,111.7,194.2z"/>
					
						<ellipse transform="matrix(0.9667 -0.2558 0.2558 0.9667 -39.6049 52.9142)" class="st12" cx="183.6" cy="178.7" rx="12.4" ry="11.1"/>
					
						<ellipse transform="matrix(0.2558 -0.9667 0.9667 0.2558 -116.0917 206.6284)" class="st12" cx="76.2" cy="178.7" rx="11.1" ry="12.4"/>
					<path class="st13" d="M127.5,34.7c3-14.2-41.6-15.1-64,2.8C6.8,82.7,46.5,166.9,3.5,231.2c0,0,8.9,19.9,36.3,19.9
						c0,0,14.6-19.2,31.1-22c0,0-20.1-21.1-22-43.9c0,0-23.8-4.6-20.1-26.5S49.9,145,49.9,145s-11-68.6,75.1-80.5
						C125,64.4,125.5,44.1,127.5,34.7z"/>
					<g>
						<g>
							<path class="st14" d="M46.5,126.8c0,0,32.2-27.2,78.2-5.6c0,0,7,43.3-32.9,48.2C44.3,175.3,46.5,126.8,46.5,126.8z"/>
							<path class="st10" d="M57.6,130.9c0,0,23-17.7,56-4c0,0,5,29.8-23.6,33.3C56,164.4,57.6,130.9,57.6,130.9z"/>
							<path class="st15" d="M46.5,126.8c0,0,32.2-27.2,78.2-5.6c0,0,7,43.3-32.9,48.2C44.3,175.3,46.5,126.8,46.5,126.8z"/>
							<path class="st15" d="M57.6,130.9c0,0,23-17.7,56-4c0,0,5,29.8-23.6,33.3C56,164.4,57.6,130.9,57.6,130.9z"/>
						</g>
						<g>
							<path class="st14" d="M219.1,126.8c0,0-32.2-27.2-78.2-5.6c0,0-7,43.3,32.9,48.2C221.3,175.3,219.1,126.8,219.1,126.8z"/>
							<path class="st10" d="M207.9,130.9c0,0-23-17.7-56-4c0,0-5,29.8,23.6,33.3C209.5,164.4,207.9,130.9,207.9,130.9z"/>
							<path class="st15" d="M219.1,126.8c0,0-32.2-27.2-78.2-5.6c0,0-7,43.3,32.9,48.2C221.3,175.3,219.1,126.8,219.1,126.8z"/>
							<path class="st15" d="M207.9,130.9c0,0-23-17.7-56-4c0,0-5,29.8,23.6,33.3C209.5,164.4,207.9,130.9,207.9,130.9z"/>
						</g>
						<path class="st16" d="M75.7,140.5c6.6-2.5,15-3.6,20.8,1.3"/>
						<path class="st16" d="M169,140.9c6.6-2.5,15-3.6,20.8,1.3"/>
						<g>
							<path class="st8" d="M141.4,128.3c-0.1-0.2-0.1-0.5-0.2-0.7c-5.9-1.2-12-0.5-17.5,0.4c-0.1,3.8-0.5,7.6-1.5,11.2
								c0.5,0.1,1.1,0.1,1.6-0.1c6.1-1.1,12.5-2,17.8-0.1c0.1,0,0.1,0,0.2,0.1C140.9,135.6,140.6,131.8,141.4,128.3z"/>
						</g>
						<path class="st17" d="M120.5,134.1c8.2-2.2,18.6-3.5,26.1,1.3"/>
					</g>
					<path class="st13" d="M124.6,54.3c-1.8-10.6,0.6-21.7,7.1-30.2c3.9-5.2,8.8-9.9,15.2-10.1c30.3-0.8,67.4,24.8,79.4,48.7
						C250,110,231.7,205,256.5,247.4c0,0-20.9,12-38.1,4.1c0,0-8.2-17.6-28.4-24c0,0,16.4-9.3,21-40.4c0,0,13.7-0.9,17.4-18.3
						c0,0-20.8-9.1-42.2-54c-7.4-15.5-16.2-46-20.5-62.6c-1.5-5.7-4.1-11.7-10.3-13.6c-5.3-1.6-11.6,0-15.9,3.4
						c-8.3,6.7-10.6,18.8-12.1,28.8L124.6,54.3z"/>
					<path class="st18" d="M22.7,241.2c11.5-18.4,8.4-44.3,8.9-67.1c-4-4.8-4-18.9,0.9-25.4c3.1-58.6,43.1-91.3,92.7-91.1
						c5.1-35.3,1.2-37-39.4-30.9C-1.4,56.1,50.5,168.9,4.5,231.2c0,0,2.3,9.7,14.8,15.5C20.2,244.8,21.3,242.9,22.7,241.2z"/>
					<path class="st18" d="M222,87.7c16.8,53.3-6.1,120.1,24.6,163.9c6-1.9,10-4.2,10-4.2c-25.9-44.2-4.8-144.5-33.3-190.1
						c-16.9-27.2-78.4-64.1-94.6-28.5C167.8,14.9,204.8,43.1,222,87.7z"/>
					<g>
						<path class="st8" d="M125.9,24.2c-6.2-3.9-17.6-5.2-30.2-3.5c-7.9,1-23,4.2-34.8,13.6c-32,25.6-35.1,62.4-38.3,101.4
							C20,167.6,17.5,212.1,2.2,230c-0.8,1.2-0.9,2.8-0.2,4.1c0.5,0.9,8.3,21,37.8,21c1.2,0,2.4-0.6,3.2-1.6
							c0.1-0.2,13.9-18,28.6-20.4c1.5-0.2,2.7-1.3,3.1-2.7s0.1-3-0.9-4c-0.2-0.2-19.2-20.3-20.9-41.5c-0.1-1.8-1.5-3.3-3.2-3.6
							c-0.1,0-5.4-1.1-10.1-4.5c-5.9-4.2-8.1-10-6.9-17.5c1-5.7,2.9-9.4,5.9-11c4.2-2.2,9.5,0.2,9.5,0.2c1.3,0.6,2.7,0.5,3.9-0.3
							c-1.7-1.7-2.9-3.6-3.7-5.9c-0.7-1.4-1.2-2.9-1.5-4.4c-0.6-0.6-1.1-1.3-1.5-2c0,1.3,0,2.5,0,3.6c-3-0.4-6.8-0.3-10.4,1.6
							c-2,1.1-3.7,2.5-5.2,4.4c0.3-3.1,0.5-6.2,0.8-9.3c3.1-37.2,6-72.3,35.3-95.8C76.8,31.9,93.5,28,106.3,28c6.6,0,12.2,1,15.4,3
							c2.1,1.3,1.9,2.3,1.8,2.8c-1.6,7.4-2.2,20.9-2.5,27.1C93,65.4,72.2,76.5,59.4,93.8c-7.8,10.6-11.4,21.8-12.9,31
							c1.2-1.4,2.9-2.5,5.1-2.8c0.3-0.4,0.6-0.8,0.9-1.2c1.2-1.2,1.5,0.8,2.9,0c1.8-6.3,5.8-16,10.6-22.4
							c12-16.2,32.1-26.3,59.6-30.1c1.9-0.3,3.4-1.9,3.4-3.9c0-0.2,0.5-20.1,2.4-29C132.3,31,130.3,26.9,125.9,24.2z M45.3,188.4
							c2.3,16.4,12.6,31.2,18.5,38.6c-12.3,4.7-22.4,15.9-25.9,20.1c-18.7-0.7-24.4-7.4-27.6-11.9c11.7-18.4,13.2-42,16.3-61.8
							C30.5,181.8,38.8,186.5,45.3,188.4z"/>
					</g>
					<path class="st16" d="M124.6,54.3c-1.8-10.6,0.6-21.7,7.1-30.2c3.9-5.2,8.8-9.9,15.2-10.1c30.3-0.8,67.4,24.8,79.4,48.7
						C250,110,231.7,205,256.5,247.4c0,0-20.9,12-38.1,4.1c0,0-8.2-17.6-28.4-24c0,0,16.4-9.3,21-40.4c0,0,13.7-0.9,17.4-18.3
						c0,0-20.8-9.1-42.2-54c-7.4-15.5-16.2-46-20.5-62.6c-1.5-5.7-4.1-11.7-10.3-13.6c-5.3-1.6-11.6,0-15.9,3.4
						c-8.3,6.7-10.6,18.8-12.1,28.8L124.6,54.3z"/>
					<path class="st19" d="M212.4,91.2c1.3,3.3,2.4,6.7,3.4,10.1"/>
					<path class="st19" d="M197.8,62.8c3.5,5.2,6.6,10.6,9.3,16.3"/>
				</g>
			</g>
		</g>
	</g>
	<g id="Camada_4" class="st20">
		<path class="st21" d="M285.3-10H-25v207.8h24.8c0,0.2,0,0.4,0,0.6c0,72.4,58.7,131.1,131.1,131.1c72.4,0,131-58.7,131-131.1
			c0-0.2,0-0.4,0-0.6h23.3L285.3-10L285.3-10z"/>
	</g>
	<g id="Camada_3" class="st20">
		<circle class="st22" cx="130.9" cy="197.2" r="131.1"/>
	</g>
</g>
<g id="Camada_2" class="st20">
	<g class="st23">
		<g>
			<path class="st24" d="M261,1v328H1V1H261 M262,0H0v330h262V0L262,0z"/>
		</g>
		<line class="st25" x1="1.4" y1="139.5" x2="261.1" y2="139.5"/>
		<line class="st25" x1="0.8" y1="201.8" x2="261.1" y2="201.8"/>
		<line class="st25" x1="261.4" y1="242.8" x2="1.1" y2="242.8"/>
		<ellipse class="st25" cx="131" cy="161.8" rx="84.3" ry="80.6"/>
		<ellipse class="st25" cx="83.8" cy="139.5" rx="12.5" ry="12.5"/>
		<ellipse class="st25" cx="179.7" cy="139.5" rx="12.5" ry="12.5"/>
		<ellipse class="st25" cx="131" cy="198.7" rx="131" ry="131.3"/>
		<line class="st25" x1="131" y1="329.3" x2="131" y2="1.1"/>
		<line class="st25" x1="47" y1="329.3" x2="47" y2="1.1"/>
		<line class="st25" x1="215" y1="329.3" x2="215" y2="1.1"/>
	</g>
</g>
</svg>
