<?xml version="1.0" encoding="utf-8"?>
<!-- Generator: Adobe Illustrator 24.0.1, SVG Export Plug-In . SVG Version: 6.00 Build 0)  -->
<svg version="1.1" id="Camada_1" xmlns="http://www.w3.org/2000/svg" xmlns:xlink="http://www.w3.org/1999/xlink" x="0px" y="0px"
	 viewBox="0 0 262 330" style="enable-background:new 0 0 262 330;" xml:space="preserve">
<style type="text/css">
	.st0{clip-path:url(#SVGID_2_);}
	.st1{fill:#FFBF1F;}
	.st2{fill:none;stroke:#012442;stroke-width:48;stroke-linecap:round;stroke-linejoin:round;stroke-miterlimit:10;}
	.st3{fill:none;stroke:#DD8064;stroke-width:30;stroke-linecap:round;stroke-linejoin:round;stroke-miterlimit:10;}
	.st4{fill:#DD8064;}
	.st5{fill:#EF6100;}
	.st6{fill:none;stroke:#012442;stroke-width:8;stroke-linecap:round;stroke-miterlimit:10;}
	.st7{fill:#012442;}
	.st8{fill:#BA4A6D;}
	.st9{fill:none;stroke:#012442;stroke-width:7;stroke-linecap:round;stroke-linejoin:round;stroke-miterlimit:10;}
	.st10{fill:#FFFFFF;}
	.st11{fill:#B54772;}
	.st12{fill:#299EED;}
	.st13{fill:#2F61DD;}
	.st14{display:none;}
	.st15{display:inline;opacity:0.33;fill:none;stroke:#000000;stroke-miterlimit:10;enable-background:new    ;}
</style>
<g id="Camada_1_1_">
	<g id="Camada_7">
	</g>
	<g id="Camada_8">
		<g>
			<g>
				<g>
					<defs>
						<path id="SVGID_1_" d="M282.6-0.5H-20.6v194h20.1v4.9h0.2c0,0.2,0,0.4,0,0.5c0,72.4,58.7,131.1,131,131.1
							c72.4,0,131.1-58.7,131.1-131.1c0-0.2,0-0.4,0-0.5h0.1v-4.9h20.8L282.6-0.5L282.6-0.5z"/>
					</defs>
					<clipPath id="SVGID_2_">
						<use xlink:href="#SVGID_1_"  style="overflow:visible;"/>
					</clipPath>
					<g class="st0">
						<circle class="st1" cx="131.1" cy="199" r="131.1"/>
						<path class="st2" d="M189.1,253.2c0,0,26.9,22.6,41.2,85.1"/>
						<path class="st3" d="M189.1,253.2c0,0,26.9,22.6,41.2,85.1"/>
						<path class="st2" d="M72.3,253.2c0,0-26.9,22.6-41.2,85.1"/>
						<path class="st3" d="M72.3,253.2c0,0-26.9,22.6-41.2,85.1"/>
						<path class="st4" d="M165.3,236.4l-1-5.9h-67l-1,5.9c-0.3,1.6-0.4,3.2-0.4,4.7c0,17.4,15.6,31.6,34.8,31.6
							s34.9-14.2,34.9-31.6C165.7,239.6,165.6,238,165.3,236.4z"/>
						<path class="st5" d="M172.2,245c-4.7,2.8-9.6,5.1-14.6,7.2c0,0.3,0,0.7,0,1c0,13.6-12.5,24.6-27.9,24.6
							c-14.2,0-26-9.5-27.6-21.6c-6-2.5-11.4-6.3-15.8-11.8C52,278.7,53.8,371.5,53.8,371.5l156.9-0.9
							C210.7,370.7,212.2,285.7,172.2,245z"/>
						<g>
							<g>
								<path class="st5" d="M181.6,293.1l48.4-24.6c-0.3-0.7-22.5-47-56.5-41.1l-7,1.1c-10.8,4.4-9.6,19.3-5.3,30.1L181.6,293.1z"
									/>
							</g>
						</g>
						<g>
							<path class="st6" d="M201.8,284.5l30.2-14c-0.3-0.7-25.6-54.2-62.5-42"/>
						</g>
						<g>
							<g>
								<path class="st5" d="M79.8,293.1l-48.4-24.6c0.3-0.7,22.5-47,56.5-41.1l7,1.1c10.8,4.4,9.6,19.3,5.3,30.1L79.8,293.1z"/>
							</g>
						</g>
						<g>
							<path class="st6" d="M63.6,285.4l-34.2-14.9c0.3-0.7,25.6-54.2,62.5-42"/>
						</g>
						<g>
							<path class="st7" d="M157.4,237.6c0.2,1.3,0.3,2.7,0.3,4.1c0,15.4-12.5,27.8-27.9,27.8S102,257,102,241.7
								c0-1.4,0.1-2.7,0.3-4.1L157.4,237.6 M164.3,229.6h-6.9h-55.1h-6.9l-1,6.8c-0.2,1.7-0.4,3.5-0.4,5.2
								c0,19.8,16.1,35.8,35.8,35.8s35.9-16.1,35.9-35.9c0-1.7-0.1-3.5-0.4-5.2L164.3,229.6L164.3,229.6z"/>
						</g>
						<path class="st6" d="M193.2,265.9c0,0,13,39.5,14.6,95.2"/>
						<path class="st6" d="M69.8,265.9c0,0-13,39.5-14.6,95.2"/>
						<g>
							<path class="st4" d="M208.8,174.4c0.1,41-34.4,70.8-79.5,70.9l0,0c-45.1,0.2-77.8-29.4-78-70.4l-0.3-43
								c-0.1-15.1,4.2-25.7,12.1-37.1c19.3-27.9,70-25.7,75-25.3c20.4,1.3,45.1,7.5,57.8,25.2c7.5,10.4,12.2,21.5,12.2,40.9
								L208.8,174.4z"/>
						</g>
						<g>
							<path class="st7" d="M130.1,69.7c28.7,0,57.1,9.7,69.9,31.3c9.4,15.7,11.7,47.4,11.7,47.4l0,0c0.4,0,13.6,7.5,13.7,16.9
								c0,9.4-7.5,17-16.9,17c-0.1,0-0.5,0-1.1,0c-4.2,36.4-35.1,62-76.9,62.1c-0.1,0-0.2,0-0.4,0c-42.1,0-73.3-25.9-77.2-62.8
								c-1.4,0-2.3,0-2.4,0c0,0,0,0-0.1,0c-9.1,0-16.6-7.4-16.6-16.6c0-9.2,7.4-16.6,16.5-16.7c0.1,0,0.8,0,1.9,0l-1.1-7.3
								c0-4.5-3.3-28.3,4.1-40.1C67.8,81.1,99.1,69.7,130.1,69.7 M130.1,61.7c-16.7,0-33.1,3-47.3,8.8
								c-15.6,6.3-27.4,15.4-34.3,26.4c-7.5,12-6.2,31.7-5.5,41.2c0.1,1.3,0.2,2.6,0.2,3.1v0.4c-3.8,1.2-7.3,3.3-10.2,6.2
								c-4.6,4.7-7.2,10.9-7.2,17.4c0,12,8.7,22,20.1,24.1c7.2,37.6,40.9,63.2,84.1,63.2h0.4c22.3-0.1,42.2-6.7,57.6-19.3
								c13.6-11.1,22.8-26.4,26.3-43.5c4.4-1.1,8.5-3.4,11.9-6.7c4.7-4.7,7.3-11,7.2-17.7c0-6.2-3.3-12.3-9.4-17.9
								c-1.7-1.6-3.4-2.8-4.7-3.8c-1-9.7-4.2-33-12.4-46.8C193.7,74.9,165,61.7,130.1,61.7L130.1,61.7z"/>
						</g>
						<g>
							<path class="st4" d="M82.8,165c0,8.4,5,15.4-3.1,16.5c-0.7,0.1-29.6,0.2-30.4,0.2c-9.2,0-16.6-7.4-16.7-16.6
								c0-9.2,7.4-16.6,16.5-16.7c0.8,0,24.1,0,24.8,0.1C82.1,149.6,82.7,156.6,82.8,165z"/>
						</g>
						<g>
							<path class="st4" d="M174.2,165.5c0,8.6-5,15.8,3.3,16.8c0.7,0.1,30.3,0,31,0c9.4,0,16.9-7.6,16.9-17s-7.6-16.9-17-16.9
								c-0.8,0-24.6,0.1-25.3,0.2C174.7,149.8,174.1,157,174.2,165.5z"/>
						</g>
						<g>
							
								<ellipse transform="matrix(0.9667 -0.2558 0.2558 0.9667 -39.2398 53.281)" class="st8" cx="185.2" cy="177.5" rx="12.4" ry="11.1"/>
						</g>
						<g>
							
								<ellipse transform="matrix(0.2558 -0.9667 0.9667 0.2558 -115.98 204.3404)" class="st8" cx="74.7" cy="177.5" rx="11.1" ry="12.4"/>
						</g>
						<path class="st9" d="M69.5,119.6c8.9-5.2,19.9-6.9,29.9-4.2"/>
						<g>
							<g>
								<path class="st10" d="M131,199.1c-9.2,0-20.9-5.5-26.1-17.8c-0.5-1.2-0.4-2.6,0.3-3.8c0.7-1.1,2-1.8,3.3-1.8h43.6
									c1.2,0,2.3,0.5,3.1,1.4s1.1,2.1,0.9,3.2C154.9,188.5,142.4,199.1,131,199.1z"/>
								<path class="st11" d="M108.6,179.7h43.6c-1,6.2-11.9,15.4-21.2,15.4C122.5,195.1,112.9,189.9,108.6,179.7 M108.6,171.7
									c-2.7,0-5.2,1.3-6.7,3.6c-1.5,2.2-1.8,5.1-0.7,7.5c5.1,12.1,17.1,20.3,29.8,20.3c12.4,0,27.4-11.4,29.1-22.1
									c0.4-2.3-0.3-4.7-1.8-6.5s-3.8-2.8-6.1-2.8H108.6L108.6,171.7L108.6,171.7z"/>
							</g>
						</g>
						<path class="st9" d="M189.4,117.6c-8.9-5.2-19.9-6.9-29.9-4.2"/>
						<path class="st12" d="M114,29.9c-1.5,71.8-65.9,101.1-82.9,139c1,9.9,8.2,16.3,18.1,17.1c3.8,15.2,10.5,28.8,20.3,41.1
							c-11.3,7.1-22.6,12.2-31,27.1c-2-4.2-59.8-116.6,13.4-219.6C71.7,6.6,111.8,3.5,114,29.9z"/>
						<path class="st13" d="M105.6,30.5c-0.7-0.7-1.3-1.3-2-1.9c-0.8-0.6-2.2-1.6-4-2.5c-3.1-1.5-6.5-1.9-9.9-1.7
							c-9.9,0.8-19.1,6.1-26.6,13.3c-7.4,8.4-13.1,18.5-18,28.5c-5.2,10.8-9.4,22.1-13,33.6c-4.4,22.3-5,45.8-4.2,68.2
							c0.9,26.4,4.8,53.9,15.9,78.2c7.6-9.2,16.6-13.5,25.6-19.2c-9.8-12.2-16.5-25.8-20.3-41.1c-9.9-0.7-17.1-7.2-18.1-17.1
							c14.8-32.9,65.2-59.3,79.2-112.6c0.4-3.2,0.6-6.4,0.6-9.5c-0.1-5.6-0.9-10.2-4.2-14.9C106.7,31.9,105.7,30.7,105.6,30.5z"/>
						<path class="st9" d="M115.2,30.5c-1.5,71.8-65.9,101.1-82.9,139c1,9.9,8.2,16.3,18.1,17.1c3.8,15.2,10.5,28.8,20.3,41.1
							c-11.3,7.1-22.6,12.2-31,27.1c-2-4.2-59.8-116.6,13.4-219.6C73,7.2,113.1,4.1,115.2,30.5z"/>
						<path class="st12" d="M223.4,179.8c-6.4-66-97.4-83.7-109.7-111.3c-7.2-16.1-4.9-34.8,6.1-48.5c4.1-5,12.8-11.6,22.6-12.2
							c27-1.4,59.7,16.2,76,46c37,67.9,27.1,164.1,6.3,203.5c-8.8-9.4-21.1-27.6-37.1-28.8c18.9-16.7,23.4-41.1,22.8-41.3
							C208.7,186.6,217.9,188.8,223.4,179.8z"/>
						<path class="st13" d="M187.6,228.5c11.2,0.8,20.6,10,28.2,18.7C292,29.6,109.8-11.7,120.5,60.9c1.9,12.5,3,14.7,13.4,22
							c22.5,15.9,56.7,34.5,76.1,61.5c14.5,21.1,18.9,41.7,0.5,43.1C210.3,190.6,205.3,212.2,187.6,228.5z"/>
						<path class="st9" d="M222.8,180c-6.5-66.1-97.4-83.8-109.8-111.3c-7.2-16.1-4.9-34.8,6.1-48.5c4.1-5,12.8-11.6,22.6-12.2
							c27-1.4,59.7,16.2,76,46c37,67.9,27.1,164.1,6.3,203.5c-8.8-9.4-21.1-27.6-37.1-28.8c18.9-16.7,23.4-41.1,22.8-41.3
							C208,186.8,217.2,189,222.8,180z"/>
						<path class="st7" d="M68.9,140.7l4.2-0.1l-2.4-6.3h11.7c0.2,0,0.4,0,0.6,0c5.8,0,10.4,4.7,10.4,10.5s-4.7,10.4-10.5,10.4
							c-4.3,0-8.1-2.7-9.6-6.5L68.9,140.7z"/>
						<path class="st7" d="M192.4,140.7l-4.2-0.1l2.4-6.3H179c-0.2,0-0.4,0-0.6,0c-5.8,0-10.4,4.7-10.4,10.5s4.7,10.4,10.5,10.4
							c4.4,0,8.1-2.7,9.6-6.5L192.4,140.7z"/>
					</g>
				</g>
			</g>
		</g>
	</g>
	<g id="Camada_3" class="st14">
		<circle class="st15" cx="130.9" cy="198.2" r="131.1"/>
	</g>
</g>
</svg>
