<?xml version="1.0" encoding="utf-8"?>
<!-- Generator: Adobe Illustrator 24.0.1, SVG Export Plug-In . SVG Version: 6.00 Build 0)  -->
<svg version="1.1" id="Camada_1" xmlns="http://www.w3.org/2000/svg" xmlns:xlink="http://www.w3.org/1999/xlink" x="0px" y="0px"
	 viewBox="0 0 262 330" style="enable-background:new 0 0 262 330;" xml:space="preserve">
<style type="text/css">
	.st0{clip-path:url(#SVGID_2_);}
	.st1{fill:#22A1FF;}
	.st2{fill:none;stroke:#012442;stroke-width:48;stroke-linecap:round;stroke-linejoin:round;stroke-miterlimit:10;}
	.st3{fill:none;stroke:#FFBB71;stroke-width:30;stroke-linecap:round;stroke-linejoin:round;stroke-miterlimit:10;}
	.st4{fill:#FFBB71;}
	.st5{fill:#E86969;}
	.st6{fill:none;stroke:#012442;stroke-width:8;stroke-linecap:round;stroke-miterlimit:10;}
	.st7{fill:#012442;}
	.st8{fill:#E28674;}
	.st9{fill:none;stroke:#012442;stroke-width:7;stroke-linecap:round;stroke-linejoin:round;stroke-miterlimit:10;}
	.st10{fill:#FFFFFF;}
	.st11{fill:#DB7185;}
	.st12{display:none;}
	.st13{display:inline;opacity:0.33;fill:none;stroke:#000000;stroke-miterlimit:10;enable-background:new    ;}
	.st14{display:inline;}
	.st15{fill:#2BB2FC;}
	.st16{fill:none;stroke:#2BB2FC;stroke-miterlimit:10;}
</style>
<g id="Camada_1_1_">
	<g id="Camada_7">
	</g>
	<g id="Camada_8">
		<g>
			<g>
				<g>
					<g>
						<defs>
							<path id="SVGID_1_" d="M283.2-1.5H-20v194H0.1v4.9l0,0c0,0.2,0,0.4,0,0.5C0.1,270.3,59,329,131.3,329
								c72.4,0,131.1-58.7,131.1-131.1c0-0.2,0-0.4,0-0.5h0.1v-4.9h20.8L283.2-1.5L283.2-1.5z"/>
						</defs>
						<clipPath id="SVGID_2_">
							<use xlink:href="#SVGID_1_"  style="overflow:visible;"/>
						</clipPath>
						<g class="st0">
							<circle class="st1" cx="131.1" cy="198" r="131.1"/>
							<path class="st2" d="M189.1,249.1c0,0,26.9,22.6,41.2,85.1"/>
							<path class="st3" d="M189.1,249.1c0,0,26.9,22.6,41.2,85.1"/>
							<path class="st2" d="M72.3,249.1c0,0-26.9,22.6-41.2,85.1"/>
							<path class="st3" d="M72.3,249.1c0,0-26.9,22.6-41.2,85.1"/>
							<path class="st4" d="M165.3,232.3l-1-5.9h-67l-1,5.9c-0.3,1.6-0.4,3.2-0.4,4.7c0,17.4,15.6,31.6,34.8,31.6
								s34.8-14.2,34.8-31.6C165.7,235.5,165.6,233.9,165.3,232.3z"/>
							<path class="st5" d="M172.2,241c-4.7,2.8-9.6,5.1-14.6,7.2c0,0.3,0,0.7,0,1c0,13.6-12.5,24.6-27.9,24.6
								c-14.2,0-26-9.5-27.6-21.6c-6-2.5-11.4-6.3-15.8-11.8C52,274.7,53.8,367.5,53.8,367.5l156.9-0.9
								C210.7,366.6,212.2,281.7,172.2,241z"/>
							<g>
								<g>
									<path class="st5" d="M181.6,289l48.4-24.6c-0.3-0.7-22.5-47-56.5-41.1l-7,1.1c-10.8,4.4-9.6,19.3-5.3,30.1L181.6,289z"/>
								</g>
							</g>
							<g>
								<path class="st6" d="M201.8,280.4l30.2-14c-0.3-0.7-25.6-54.2-62.5-42"/>
							</g>
							<g>
								<g>
									<path class="st5" d="M79.7,289l-48.4-24.6c0.3-0.7,22.5-47,56.5-41.1l7,1.1c10.8,4.4,9.6,19.3,5.3,30.1L79.7,289z"/>
								</g>
							</g>
							<g>
								<path class="st6" d="M63.6,281.3l-34.2-14.9c0.3-0.7,25.6-54.2,62.5-42"/>
							</g>
							<g>
								<path class="st7" d="M157.4,233.5c0.2,1.3,0.3,2.7,0.3,4.1c0,15.4-12.5,27.8-27.9,27.8S102,252.9,102,237.5
									c0-1.4,0.1-2.7,0.3-4.1L157.4,233.5 M164.3,225.5h-6.9h-55.1h-6.9l-1,6.8c-0.2,1.7-0.4,3.5-0.4,5.2
									c0,19.8,16.1,35.8,35.8,35.8s35.8-16.1,35.8-35.9c0-1.7-0.1-3.5-0.4-5.2L164.3,225.5L164.3,225.5z"/>
							</g>
							<path class="st6" d="M193.2,261.9c0,0,13,39.5,14.6,95.2"/>
							<path class="st6" d="M69.8,261.9c0,0-13,39.5-14.6,95.2"/>
							<g>
								<path class="st4" d="M210.8,167.3c0.1,41-36.4,70.8-81.5,70.9l0,0c-45.1,0.2-77.8-29.4-78-70.4l-2.3-51
									c-0.1-15.1,2.2-25.7,10.1-37.1c19.3-27.9,74-25.7,79-25.3c20.4,1.3,45.1,7.5,57.8,25.2c7.5,10.4,17.2,23.5,17.2,42.9
									L210.8,167.3z"/>
							</g>
							<g>
								<path class="st7" d="M131.5,54.7c28,0,55.7,9.7,68.5,31.3c9.4,15.7,11.7,55.4,11.7,55.4l0,0c0.4,0,13.6,7.5,13.7,16.9
									c0,9.4-7.5,17-16.9,17c-0.1,0-0.5,0-1.1,0c-4.2,36.4-35.1,62-76.9,62.1c-0.1,0-0.2,0-0.4,0c-42.1,0-73.3-25.9-77.2-62.8
									c-1.4,0-2.3,0-2.4,0c0,0,0,0-0.1,0c-9.1,0-16.6-7.4-16.6-16.6c0-9.2,7.4-16.6,16.5-16.7c0.1,0,0.8,0,1.9,0L51.1,126
									c0-4.5-0.3-28.3,7.1-40.1C70.8,66,101.3,54.7,131.5,54.7 M131.5,46.7c-16.3,0-32.3,3-46.3,8.8C70,61.7,58.3,70.8,51.4,81.8
									c-5.5,8.8-8.3,23.6-8.3,43.8v0.5v0.3v0.3l0.6,7.6c-4,1.1-7.8,3.3-10.8,6.4c-4.6,4.7-7.2,10.9-7.2,17.4
									c0,12,8.7,22,20.1,24.1c7.2,37.6,40.9,63.2,84.1,63.2h0.4c22.3-0.1,42.2-6.7,57.6-19.3c13.6-11.1,22.8-26.4,26.3-43.5
									c4.4-1.1,8.5-3.4,11.9-6.7c4.7-4.7,7.3-11,7.2-17.7c0-6.2-3.2-12.3-9.4-17.9c-1.7-1.5-3.4-2.8-4.6-3.7
									c-0.9-11.3-4-40.6-12.5-54.8C193.7,59.8,165.5,46.7,131.5,46.7L131.5,46.7z"/>
							</g>
							<g>
								<path class="st4" d="M82.7,157.9c0,8.4,5,15.4-3.1,16.5c-0.7,0.1-29.6,0.2-30.4,0.2c-9.2,0-16.6-7.4-16.7-16.6
									c0-9.2,7.4-16.6,16.5-16.7c0.8,0,24.1,0,24.8,0.1C82.1,142.5,82.7,149.5,82.7,157.9z"/>
							</g>
							<g>
								<path class="st4" d="M174.2,158.5c0,8.6-5,15.8,3.3,16.8c0.7,0.1,30.3,0,31,0c9.4,0,16.9-7.6,16.9-17s-7.6-16.9-17-16.9
									c-0.8,0-24.6,0.1-25.3,0.2C174.7,142.8,174.1,149.9,174.2,158.5z"/>
							</g>
							
								<ellipse transform="matrix(0.9667 -0.2558 0.2558 0.9667 -37.4279 53.0168)" class="st8" cx="185.1" cy="170.4" rx="12.4" ry="11.1"/>
							
								<ellipse transform="matrix(0.2558 -0.9667 0.9667 0.2558 -109.1517 198.9486)" class="st8" cx="74.6" cy="170.4" rx="11.1" ry="12.4"/>
							<path class="st9" d="M69.4,118.6c8.9-5.2,19.9-6.9,29.9-4.2"/>
							<g>
								<g>
									<path class="st10" d="M131,192c-9.2,0-20.9-5.5-26.1-17.8c-0.5-1.2-0.4-2.6,0.3-3.8c0.7-1.1,2-1.8,3.3-1.8h43.7
										c1.2,0,2.3,0.5,3.1,1.4s1.1,2.1,0.9,3.2C154.8,181.5,142.4,192,131,192z"/>
									<path class="st11" d="M108.6,172.6h43.6c-1,6.2-11.9,15.4-21.2,15.4C122.5,188,112.9,182.9,108.6,172.6 M108.6,164.6
										c-2.7,0-5.2,1.3-6.7,3.6c-1.5,2.2-1.8,5.1-0.7,7.5c5.1,12.1,17.1,20.3,29.8,20.3c12.4,0,27.4-11.4,29.1-22.1
										c0.4-2.3-0.3-4.7-1.8-6.5s-3.8-2.8-6.1-2.8H108.6L108.6,164.6L108.6,164.6z"/>
								</g>
							</g>
							<path class="st9" d="M189.3,116.6c-8.9-5.2-19.9-6.9-29.9-4.2"/>
							<path class="st7" d="M68.9,133.6l4.2-0.1l-2.4-6.3h11.7c0.2,0,0.4,0,0.6,0c5.8,0,10.4,4.7,10.4,10.5s-4.7,10.4-10.5,10.4
								c-4.3,0-8.1-2.7-9.6-6.5L68.9,133.6z"/>
							<path class="st7" d="M192.4,133.6l-4.2-0.1l2.4-6.3h-11.7c-0.2,0-0.4,0-0.6,0c-5.8,0-10.4,4.7-10.4,10.5s4.7,10.4,10.5,10.4
								c4.4,0,8.1-2.7,9.6-6.5L192.4,133.6z"/>
						</g>
					</g>
				</g>
			</g>
		</g>
	</g>
	<g id="Camada_3" class="st12">
		<circle class="st13" cx="131.5" cy="197" r="131.1"/>
	</g>
</g>
<g id="Camada_2_1_" class="st12">
	<g class="st14">
		<g>
			<path class="st15" d="M261,1v328H1V1H261 M262,0H0v330h262V0L262,0z"/>
		</g>
		<line class="st16" x1="1.4" y1="139.5" x2="261.1" y2="139.5"/>
		<line class="st16" x1="0.8" y1="201.8" x2="261.1" y2="201.8"/>
		<line class="st16" x1="261.4" y1="242.8" x2="1.1" y2="242.8"/>
		<ellipse class="st16" cx="131" cy="161.8" rx="84.3" ry="80.6"/>
		<ellipse class="st16" cx="83.8" cy="139.5" rx="12.5" ry="12.5"/>
		<ellipse class="st16" cx="179.7" cy="139.5" rx="12.5" ry="12.5"/>
		<ellipse class="st16" cx="131" cy="198.7" rx="131" ry="131.3"/>
		<line class="st16" x1="131" y1="329.3" x2="131" y2="1.1"/>
	</g>
</g>
</svg>
