<?xml version="1.0" encoding="utf-8"?>
<!-- Generator: Adobe Illustrator 24.0.1, SVG Export Plug-In . SVG Version: 6.00 Build 0)  -->
<svg version="1.1" id="Camada_1" xmlns="http://www.w3.org/2000/svg" xmlns:xlink="http://www.w3.org/1999/xlink" x="0px" y="0px"
	 viewBox="0 0 262 330" style="enable-background:new 0 0 262 330;" xml:space="preserve">
<style type="text/css">
	.st0{clip-path:url(#SVGID_2_);}
	.st1{fill:#FFBF1F;}
	.st2{fill:none;stroke:#012442;stroke-width:48;stroke-linecap:round;stroke-linejoin:round;}
	.st3{fill:none;stroke:#DD8064;stroke-width:30;stroke-linecap:round;stroke-linejoin:round;}
	.st4{fill:#DD8064;}
	.st5{fill:#83D9FD;}
	.st6{fill:none;stroke:#012442;stroke-width:8;stroke-linecap:round;stroke-miterlimit:10;}
	.st7{fill:#012442;}
	.st8{fill:#BA4A6D;}
	.st9{fill:none;stroke:#012442;stroke-width:7;stroke-linecap:round;stroke-linejoin:round;}
	.st10{fill:#FFFFFF;}
	.st11{fill:#B54772;}
	.st12{fill:#BC587A;}
	.st13{display:none;}
	.st14{display:inline;}
	.st15{fill:#2BB2FC;}
	.st16{fill:none;stroke:#2BB2FC;stroke-miterlimit:10;}
</style>
<g id="Camada_1_1_">
	<title>34</title>
	<g id="Camada_8">
		<g>
			<g>
				<defs>
					<path id="SVGID_1_" d="M282.6-2.3H-20.6v194h20.1v4.9h0.2c0,0.2,0,0.4,0,0.5C-1,269.4,57.2,328.6,129.6,329.3
						c72.4,0.6,131.6-57.5,132.2-129.9c0-0.8,0-1.5,0-2.3c0-0.2,0-0.3,0-0.5h0.1v-4.9h20.8L282.6-2.3z"/>
				</defs>
				<clipPath id="SVGID_2_">
					<use xlink:href="#SVGID_1_"  style="overflow:visible;"/>
				</clipPath>
				<g class="st0">
					<circle class="st1" cx="130.7" cy="198.2" r="131"/>
					<path class="st2" d="M188.7,248.3c0,0,26.9,22.6,41.2,85.1"/>
					<path class="st3" d="M188.7,248.3c0,0,26.9,22.6,41.2,85.1"/>
					<path class="st2" d="M71.9,248.3c0,0-26.9,22.6-41.2,85.1"/>
					<path class="st3" d="M71.9,248.3c0,0-26.9,22.6-41.2,85.1"/>
					<path class="st4" d="M164.9,230.5l-1-5.9h-67l-1,5.9c-0.3,1.6-0.4,3.2-0.4,4.7c0,17.4,15.6,31.6,34.8,31.6s34.9-14.2,34.9-31.6
						C165.3,233.7,165.2,232.1,164.9,230.5z"/>
					<path class="st5" d="M171.8,240.2c-4.7,2.8-9.5,5.2-14.6,7.2c0,0.3,0,0.7,0,1c0,13.6-12.5,24.6-27.9,24.6
						c-14.2,0-26-9.5-27.6-21.6c-6.2-2.5-11.6-6.6-15.8-11.8c-34.2,34.3-32.5,127.2-32.5,127.2l156.8-0.9
						C210.3,365.8,211.8,280.9,171.8,240.2z"/>
					<path class="st5" d="M181.2,288.2l48.4-24.6c-0.3-0.7-22.5-47-56.5-41.1l-7,1.1c-10.8,4.4-9.6,19.3-5.3,30.1L181.2,288.2z"/>
					<path class="st6" d="M201.4,279.6l30.2-14c-0.3-0.7-25.6-54.2-62.5-42"/>
					<path class="st5" d="M93.7,223.5l-6.2-1c-34-5.9-56.2,40.4-56.5,41.1l48.4,24.6l20.4-34.5c0.7-1.8,1.4-3.8,1.9-5.7
						C95.2,241,90.5,232.7,93.7,223.5z"/>
					<path class="st6" d="M63.2,280.5L29,265.6c0.3-0.7,25.6-54.2,62.5-42"/>
					<path class="st7" d="M157,232.7c0.2,1.3,0.3,2.7,0.3,4.1c0,15.4-12.5,27.8-27.9,27.8s-27.8-12.5-27.8-27.8
						c0-1.4,0.1-2.7,0.3-4.1H157 M163.9,224.7h-69l-1,6.8c-0.3,1.7-0.4,3.5-0.4,5.2c0,19.8,16.1,35.8,35.9,35.8s35.8-16,35.8-35.8
						c0-1.7-0.1-3.5-0.4-5.2L163.9,224.7L163.9,224.7z"/>
					<path class="st6" d="M192.8,261.1c0,0,13,39.5,14.6,95.2"/>
					<path class="st6" d="M69.4,261.1c0,0-13,39.5-14.6,95.2"/>
					<path class="st4" d="M206.9,164c0.1,41-34.4,70.8-79.5,70.9l0,0c-45.1,0.2-77.8-29.4-78-70.4l-2.3-40
						c0-15.1,3.2-34.7,11.1-46.1c19.3-27.9,73.1-24.7,78-24.3c20.4,1.3,47.1,7.5,59.8,25.2c7.5,10.4,13.2,39.5,13.2,58.8L206.9,164z
						"/>
					<path class="st7" d="M129.6,54.4c28,0,55.7,9.7,68.5,31.3c9.4,15.7,10.7,52.4,10.7,52.4h1c0.4,0,13.6,7.5,13.7,16.9
						c0,9.4-7.6,17-16.9,17h-1.1c-4.2,36.4-35.2,62-76.9,62.1h-0.4c-42.1,0-73.3-25.9-77.2-62.8h-2.5c-9.2-0.2-16.4-7.8-16.2-17
						c0.2-8.9,7.3-16,16.2-16.2h1.9l-1.1-7.3c0-4.5-0.3-33.3,7.1-45C68.9,65.8,99.4,54.4,129.6,54.4 M129.6,46.4
						c-15.9-0.1-31.6,2.9-46.3,8.8c-15.2,6.2-26.9,15.3-33.7,26.3c-5.5,8.9-8.3,25.3-8.3,48.8v0.8c-13,4-21.3,17.8-17.3,30.8
						c2.7,8.7,11,15.3,20,17c7.2,37.6,40.9,63.2,84.1,63.2h0.4c22.3-0.1,42.2-6.7,57.6-19.3c13.6-11,22.8-26.4,26.3-43.5
						c11.2-2.7,19.1-12.8,19.1-24.4c0-6.2-3.3-12.3-9.4-17.9c-1.5-1.3-3-2.6-4.7-3.7c-1-10.7-4.1-37.8-12.5-51.8
						C191.8,59.5,163.7,46.4,129.6,46.4L129.6,46.4z"/>
					<path class="st4" d="M80.9,154.6c0,8.4,5,15.4-3.1,16.5c-0.7,0.1-29.6,0.2-30.4,0.2c-9.2-0.2-16.5-7.8-16.3-16.9
						c0.2-8.9,7.3-16,16.1-16.3c0.8,0,24.1-0.1,24.8,0.1C80.2,139.2,80.8,146.2,80.9,154.6z"/>
					<path class="st4" d="M170.8,154.7c0,8.6-5,15.8,3.3,16.8c0.7,0.1,30.3,0,31,0c9.4,0.6,17.5-6.4,18.1-15.8
						c0.6-9.4-6.4-17.5-15.8-18.1c-0.8-0.1-1.6-0.1-2.5,0c-0.8,0-24.6,0.1-25.3,0.2C171.3,139,170.7,146.1,170.8,154.7z"/>
					
						<ellipse transform="matrix(0.9667 -0.2558 0.2558 0.9667 -36.6364 52.4392)" class="st8" cx="183.3" cy="167.1" rx="12.4" ry="11.1"/>
					
						<ellipse transform="matrix(0.2558 -0.9667 0.9667 0.2558 -107.3913 194.7189)" class="st8" cx="72.8" cy="167.1" rx="11.1" ry="12.4"/>
					<path class="st9" d="M69.1,110.8c9-5.3,19.8-6.8,29.9-4.2"/>
					<path class="st10" d="M130.6,190.2c-11.5-0.2-21.7-7.2-26.1-17.8c-0.8-2,0.1-4.4,2.2-5.2c0.5-0.2,1-0.3,1.6-0.3h43.6
						c2.2,0,4,1.7,4.1,3.9c0,0.2,0,0.5-0.1,0.7C154.5,179.7,142,190.2,130.6,190.2z"/>
					<path class="st11" d="M108.2,170.9h43.6c-1,6.2-11.9,15.4-21.2,15.4C120.8,186.1,112,180,108.2,170.9 M108.2,162.9
						c-4.4,0-8,3.6-8,8c0,1.1,0.2,2.1,0.6,3.1c5.1,12.1,17.1,20.3,29.8,20.3c12.4,0,27.4-11.4,29.1-22.1c0.7-4.4-2.2-8.5-6.6-9.2
						c-0.4-0.1-0.9-0.1-1.3-0.1H108.2z"/>
					<path class="st12" d="M75.8,125.4c9.1-13.5,27.2,0.2,24.8,14C82.6,130.2,60.3,148.4,75.8,125.4z"/>
					<path class="st7" d="M99,134.9c-7.5-4.2-17.9-4.3-26-0.4l-6.6,0.1l3.8,6.3c0.6,1.5,2,2.4,3.6,2.5c0.6,0,1.3-0.2,1.8-0.5
						c5.9-3.2,14.2-3.2,19.7-0.2c1.9,1,4.3,0.3,5.3-1.6c0.1-0.1,0.1-0.2,0.2-0.3C101.8,138.7,101.1,136.1,99,134.9z"/>
					<path class="st12" d="M179.8,125.1c-9.1-13.5-27.1,0.2-24.8,14C173,129.9,195.4,148.1,179.8,125.1z"/>
					<path class="st7" d="M157.1,134.9c7.5-4.2,17.9-4.3,26-0.4l6.6,0.1l-3.8,6.3c-0.6,1.5-2.1,2.4-3.7,2.5c-0.6,0-1.3-0.2-1.8-0.5
						c-5.9-3.2-14.2-3.2-19.6-0.2c-1.9,1-4.3,0.3-5.3-1.6c-0.1-0.1-0.1-0.2-0.2-0.3C154.2,138.7,155,136.1,157.1,134.9z"/>
					<path class="st9" d="M187.5,107.3c-9-5.3-19.8-6.8-29.9-4.2"/>
				</g>
			</g>
		</g>
	</g>
</g>
<g id="Camada_2_1_" class="st13">
	<g class="st14">
		<g>
			<path class="st15" d="M261,1v328H1V1H261 M262,0H0v330h262V0L262,0z"/>
		</g>
		<line class="st16" x1="1.4" y1="139.5" x2="261.1" y2="139.5"/>
		<line class="st16" x1="0.8" y1="201.8" x2="261.1" y2="201.8"/>
		<line class="st16" x1="261.4" y1="242.8" x2="1.1" y2="242.8"/>
		<ellipse class="st16" cx="131" cy="161.8" rx="84.3" ry="80.6"/>
		<ellipse class="st16" cx="83.8" cy="139.5" rx="12.5" ry="12.5"/>
		<ellipse class="st16" cx="179.7" cy="139.5" rx="12.5" ry="12.5"/>
		<ellipse class="st16" cx="131" cy="198.7" rx="131" ry="131.3"/>
		<line class="st16" x1="131" y1="329.3" x2="131" y2="1.1"/>
	</g>
</g>
</svg>
