<?xml version="1.0" encoding="utf-8"?>
<!-- Generator: Adobe Illustrator 24.0.1, SVG Export Plug-In . SVG Version: 6.00 Build 0)  -->
<svg version="1.1" id="Camada_1" xmlns="http://www.w3.org/2000/svg" xmlns:xlink="http://www.w3.org/1999/xlink" x="0px" y="0px"
	 viewBox="0 0 262 330" style="enable-background:new 0 0 262 330;" xml:space="preserve">
<style type="text/css">
	.st0{clip-path:url(#SVGID_2_);}
	.st1{fill:none;stroke:#012442;stroke-width:48;stroke-linecap:round;stroke-linejoin:round;}
	.st2{fill:none;stroke:#DD8064;stroke-width:30;stroke-linecap:round;stroke-linejoin:round;}
	.st3{fill:#DD8064;}
	.st4{fill:#EF6100;}
	.st5{fill:none;stroke:#012442;stroke-width:8;stroke-linecap:round;stroke-miterlimit:10;}
	.st6{fill:#012442;}
	.st7{fill:#BA4A6D;}
	.st8{fill:none;stroke:#012442;stroke-width:7;stroke-linecap:round;stroke-linejoin:round;}
	.st9{fill:#FFFFFF;}
	.st10{fill:#B54772;}
	.st11{fill:#2F61DD;}
	.st12{fill:#299EED;}
	.st13{display:none;}
	.st14{display:inline;}
	.st15{fill:#2BB2FC;}
	.st16{fill:none;stroke:#2BB2FC;stroke-miterlimit:10;}
</style>
<g id="Camada_1_1_">
	<title>35</title>
	<g id="Camada_8">
		<g>
			<g>
				<defs>
					<path id="SVGID_1_" d="M282.2-1.7H-21v194h20v4.9h0.2c0,0.2,0,0.4,0,0.5C-1.4,270,56.7,329.2,129.1,329.9
						S260.7,272.3,261.3,200c0-0.8,0-1.5,0-2.3c0-0.2,0-0.3,0-0.5h0.1v-4.9h20.8L282.2-1.7z"/>
				</defs>
				<clipPath id="SVGID_2_">
					<use xlink:href="#SVGID_1_"  style="overflow:visible;"/>
				</clipPath>
				<g class="st0">
					<path class="st1" d="M187.8,251.8c0,0,26.9,22.6,41.2,85"/>
					<path class="st2" d="M187.8,251.8c0,0,26.9,22.6,41.2,85"/>
					<path class="st1" d="M71,251.8c0,0-26.9,22.6-41.2,85.1"/>
					<path class="st2" d="M71,251.8c0,0-26.9,22.6-41.2,85.1"/>
					<path class="st3" d="M164,235l-1-5.9H96l-1,5.9c-0.3,1.6-0.4,3.1-0.4,4.7c0,17.4,15.6,31.6,34.8,31.6s34.9-14.2,34.9-31.6
						C164.4,238.2,164.3,236.6,164,235z"/>
					<path class="st4" d="M170.9,243.6c-4.7,2.8-9.5,5.2-14.6,7.2c0,0.3,0,0.7,0,1c0,13.6-12.5,24.6-27.9,24.6
						c-14.2,0-26-9.5-27.6-21.6c-6.2-2.5-11.6-6.6-15.8-11.8c-34.3,34.3-32.5,127.2-32.5,127.2l156.9-0.9
						C209.4,369.3,210.9,284.3,170.9,243.6z"/>
					<path class="st4" d="M180.3,291.7l48.4-24.6c-0.3-0.7-22.5-47-56.5-41.1l-7,1.1c-10.8,4.4-9.6,19.3-5.3,30.1L180.3,291.7z"/>
					<path class="st5" d="M200.5,283.1l30.2-14c-0.3-0.7-25.6-54.2-62.5-42"/>
					<path class="st4" d="M78.4,291.7L30,267.1c0.3-0.7,22.5-47,56.5-41.1l7,1.1c10.8,4.4,9.6,19.3,5.3,30.1L78.4,291.7z"/>
					<path class="st5" d="M62.3,284L28,269.1c0.3-0.7,25.6-54.2,62.5-42"/>
					<path class="st6" d="M156,236.2c0.2,1.3,0.3,2.7,0.3,4.1c0,15.4-12.5,27.9-27.8,27.9c-15.4,0-27.9-12.5-27.9-27.8l0,0
						c0-1.4,0.1-2.7,0.3-4.1H156 M163,228.2H94l-1,6.8c-0.3,1.7-0.4,3.5-0.4,5.2c0,19.8,16.1,35.9,35.8,35.9s35.9-16.1,35.9-35.9
						l0,0c0-1.7-0.1-3.5-0.4-5.2L163,228.2L163,228.2z"/>
					<path class="st5" d="M191.9,264.5c0,0,13,39.5,14.6,95.2"/>
					<path class="st5" d="M68.5,264.5c0,0-13,39.5-14.6,95.2"/>
					<path class="st3" d="M207.5,173c0.1,41-34.4,70.8-79.5,70.9l0,0c-45.1,0.2-77.8-29.4-77.9-70.4l-2.3-40
						c-0.1-15.1,3.2-34.7,11.1-46c19.3-27.9,73-24.7,78-24.3c20.4,1.3,45.1,7.5,57.8,25.2c7.5,10.4,15.1,39.5,15.1,58.8L207.5,173z"
						/>
					<path class="st6" d="M130.2,63.3c28,0,55.7,9.7,68.5,31.3c9.3,15.7,11.7,52.4,11.7,52.4l0,0c0.4,0,13.6,7.5,13.7,16.9
						c0,9.3-7.6,16.9-16.9,17H206c-4.2,36.4-35.1,62-77,62.1h-0.4c-42.1,0-73.3-25.9-77.2-62.8H49c-9.2-0.5-16.2-8.3-15.7-17.5
						c0.5-8.5,7.2-15.2,15.7-15.7h2l-1.1-7.3c0-4.5-0.3-33.3,7.1-45.1C69.6,74.7,100.1,63.3,130.2,63.3 M130.3,55.3
						c-15.9-0.1-31.6,2.9-46.3,8.8c-15.3,6.3-27,15.4-33.8,26.4c-5.6,8.9-8.3,25.3-8.3,48.8v0.8c-13,4-20.3,17.8-16.3,30.8
						c2.7,8.7,10,15.2,19,16.9c7.2,37.6,40.9,63.2,84.1,63.2h0.4c22.3-0.1,42.2-6.7,57.6-19.3c13.6-11,22.9-26.4,26.3-43.5
						c11.2-2.7,19.1-12.8,19.1-24.4c0-6.2-3.2-12.3-9.4-17.9c-1.5-1.3-3-2.6-4.6-3.7c-0.9-10.7-4.1-37.8-12.5-51.8
						C192.4,68.5,164.2,55.3,130.3,55.3L130.3,55.3z"/>
					<path class="st3" d="M81.4,163.6c0,8.4,5,15.4-3.1,16.5c-0.7,0.1-29.6,0.2-30.4,0.2c-9.2-0.2-16.5-7.8-16.3-16.9
						c0.2-8.9,7.3-16,16.1-16.3c0.8,0,24.1,0,24.8,0C80.8,148.2,81.4,155.2,81.4,163.6z"/>
					<path class="st3" d="M172.9,164.2c0,8.6-5,15.8,3.3,16.8c0.7,0.1,30.3,0,31,0c9.4,0.7,17.5-6.3,18.3-15.6
						c0.7-9.4-6.3-17.5-15.6-18.3c-0.9-0.1-1.8-0.1-2.7,0c-0.8,0-24.6,0.1-25.3,0.2C173.4,148.5,172.8,155.6,172.9,164.2z"/>
					
						<ellipse transform="matrix(0.9667 -0.2558 0.2558 0.9667 -38.924 52.9017)" class="st7" cx="183.9" cy="176.1" rx="12.4" ry="11.1"/>
					
						<ellipse transform="matrix(0.2558 -0.9667 0.9667 0.2558 -115.5896 202.0606)" class="st7" cx="73.4" cy="176.1" rx="11.1" ry="12.4"/>
					<path class="st8" d="M68.2,118.2c9-5.3,19.8-6.8,29.9-4.2"/>
					<path class="st9" d="M129.7,197.7c-11.5-0.3-21.7-7.2-26.1-17.8c-0.9-2,0.1-4.4,2.1-5.2c0.5-0.2,1-0.3,1.6-0.3h43.6
						c2.2,0,4,1.8,4,4c0,0.2,0,0.4-0.1,0.6C153.5,187.2,141.1,197.7,129.7,197.7z"/>
					<path class="st10" d="M107.3,178.3H151c-1,6.1-11.9,15.4-21.2,15.4C119.8,193.5,111,187.4,107.3,178.3 M107.3,170.3
						c-4.4,0-8,3.6-8,8c0,1.1,0.2,2.1,0.6,3.1c5.1,12.1,17.1,20.3,29.8,20.3c12.4,0,27.4-11.4,29.1-22.1c0.7-4.4-2.3-8.5-6.6-9.2
						c-0.4-0.1-0.8-0.1-1.3-0.1H107.3L107.3,170.3z"/>
					<path class="st8" d="M188,116.2c-9-5.3-19.8-6.8-29.9-4.2"/>
					<path class="st11" d="M127.9,41.1c0-14.3-10.9-25.9-24.4-25.9c-3.8,0-7.5,0.9-10.9,2.7c-3.8-2.6-8.3-3.9-12.9-3.9
						c-13.5,0-24.4,11.6-24.4,25.9c0,1.1,0.1,2.1,0.2,3.2C53.3,42.4,51,42,48.6,42c-13.5,0-24.4,11.6-24.4,26
						c0,4.9,1.3,9.6,3.8,13.8c-9.7,0.8-17.8,7.5-21.1,16.8c0.2,5.6,1.1,11.1,2.7,16.5c1.3,4.1,4.4,8.6,3.6,13
						c-0.8,4.3-5,6.9-6.5,10.9c-1.4,3.7-2.2,7.6-2.4,11.5c1.6,4.8,4.8,8.9,7.7,13.1c2.5,0.7,4.3,3.2,2.4,5.8
						c-3.3,4.4-4.7,9-4.8,14.4c0,2.3-1.5,3.5-3.2,3.9c0.3,1.3,0.7,2.7,1.1,4c1,2.8,7.4,13,9.9,14.3c-5.6,3-8.9,9.1-8.4,15.5
						c0.4,3.5,2,6.8,4.5,9.3c1,0.7,2,1.4,2.9,2.3c1.2,0.8,2.6,1.4,4,1.8c1.8,0.5,3,2.2,4.8,2.6c-1,1.5-2.3,3.1-3.6,4.7
						c0.3,1.3,0.5,2.6,0.6,3.9c0.1,2.1-0.3,4.2-1,6.2c0.6,1.8,0.9,3.6,1,5.4c0,1.1,0,2.2-0.2,3.3c2.5,2,5.6,3.3,8.9,3.8
						c6.7-16.3,20.1-29.7,35.9-37.4c-9.9-12.6-16.4-28.5-16.8-44.5c-10.2,0.4-20.2-7.3-22.4-17.3s3.8-16.8,13.2-20.8
						c6.9,0.4,13.6-2.7,17.7-8.3c4-5.6,4.8-16.2,2-22.5c6.7,1.5,14-2.2,18.6-7.3c4.6-5.3,6.2-12.6,4-19.3c6.1,4.5,15.8,2.1,21.6-2.7
						c5.4-4.5,7.8-12,6.8-19C121,62.2,127.9,52.5,127.9,41.1z"/>
					<path class="st12" d="M103.5,15.2c-3.8,0-7.5,0.9-10.9,2.7c-3.8-2.6-8.3-3.9-12.9-3.9c-13.5,0-24.4,11.6-24.4,25.9
						c0,1.1,0.1,2.1,0.2,3.2C53.3,42.4,51,42,48.6,42c-13.5,0-24.4,11.6-24.4,26c0,4.9,1.3,9.6,3.8,13.8C15.3,82.8,7.3,94,7.3,107.7
						c-0.1,7.1,3.7,14,8.8,19c-1.7-0.6-12,8.3-12,19.8c-0.3,1.9-0.4,19.1,8.2,20.5c-2.9,2.2-4,10.2-4.9,13.7
						c-1.5,5.2,1.4,5.8,3.2,11c1,2.8,4.4,13,6.9,14.3c-7.6,3.9-10.7,13.3-6.7,20.9c2,3.9,5.6,6.8,9.8,7.9c1.8,0.5,3,2.2,4.8,2.6
						c-1.6,2.4-4.1,5.2-6,8c0.8,2,1.2,4.1,1.2,6.2c0,1.5,0.1,3,0.2,4.6c0.1,0.6,0.1,1.2,0.1,1.8c0,0.1,0,0.3,0.1,0.4
						s0.1,0.2,0.1,0.3c0.1,0.1,0.1,0.2,0.1,0.2c0.4,0.7,0.7,1.4,1,2.1c2.5,2,5.6,3.3,8.8,3.7c2.2-5.5,16.3-20.6,19.9-25.3
						c-1.9-1-14.1-10.2-13.7-11.7c-5.2-3.4-8.4-9.1-8.6-15.3c-0.1-3.4,0.9-6.8,2.8-9.7c-1.4-1-11.1-12-11.4-19.2
						c-0.3-6.2,0.2-12.7,5.2-16c-3-3.3-6.9-9.7-7.1-14.4c-0.4-7.9,0.5-12.9,7.8-15.3c-0.7-1.9-1.1-3.9-1.2-5.9s0.2-4,0.9-5.9
						c-2.8-3.3-4.4-7.5-4.6-11.8c-0.4-8.2,6-15.4,13.7-17.5c1-5,4.1-9.3,8.5-11.9c-1.6-2.7-2.5-5.8-2.7-9
						c-0.4-9.8,8.7-18.1,18.1-18.1c0.9,0,1.7,0.1,2.6,0.2c1.9-2.7,4.4-4.8,7.3-6.2c-0.3-1.3-0.5-2.6-0.6-3.9
						C67.5,38,76.6,29.7,86,29.7c7.2,0,13.8,4.4,16.5,11.1c1.6-0.5,3.2-0.7,4.8-0.7c8.8,0,15.6,6.2,17.6,14.2
						c2.1-3.9,3.2-8.3,3.2-12.8C127.9,26.8,117,15.2,103.5,15.2z"/>
					<path class="st8" d="M128.9,41.5c0.1-18.2-18.4-31.9-35.3-23.2C75.7,7,54,22.1,56.4,43.5c-22.2-6.7-39,19.6-27.6,38.7
						C7.7,83.4,2.9,112.4,18,127c-23.6,9.3-11.6,37.4-0.9,40.3c-12,9.4-10,29.2,1.1,38.9c-16.1,11.2-7,26.3,7.8,31.5
						c-6.8,9.7-7.6,25.9,5.6,27.4c6.7-16.3,20-29.7,35.9-37.4c-9.9-12.6-16.4-28.4-16.8-44.4c-18.8,0.6-31.4-24.1-15.1-34.9
						c22.5-7,31.3-12.8,25.7-34c13.2,2.5,27.4-12.5,22.6-26.7c12.8,8.1,31.5-6,28.4-21.7C122,62.5,128.9,52.9,128.9,41.5z"/>
					<path class="st12" d="M244.6,196.9c3.3-0.6,6.5-4.4,8.2-7.2c4.8-7.8,2.8-19.1-4.5-24.6c5.2-6,7.8-15.7,5.7-23.3
						c-1.8-6.1-6-11.3-11.6-14.4c5.3-4.8,8.2-11.6,8.1-18.7c0-12.8-8.9-23.2-19.8-23.2c-0.4,0-0.8,0-1.2,0c0.6-2.1,0.9-4.3,0.9-6.5
						c0-11.6-8.7-21-19.5-21c-2.7,0-5.3,0.6-7.7,1.7c1.3-7.1-0.2-15.1-4.7-20.3c-4.7-5.2-11.9-7.4-18.8-5.7c0,0,0-0.1,0-0.2
						c0.1-10-8-18.2-18-18.3l0,0c-6.3,0-12,3.3-15.3,8.7c-3.5-2.9-8-4.4-12.5-4.4c-10.4,0-18.9,7.8-18.9,17.4
						c0,4.3,1.7,8.4,4.7,11.4c-2.9,3.8-3.8,8.9-2.3,13.4c2.1,6.1,8.3,10.4,14.7,11.1c-0.9,6.8,1.9,13.5,7.4,17.6
						c5.7,4,13,4.5,19.2,1.5c0.2,6.8,3.7,13.1,9.3,17c5.3,3.8,11.9,5.2,18.3,3.9c-3.2,3.8-4.9,8.6-4.9,13.5c0,12.1,10.4,22,23.2,22
						c3.7,0,7.4-0.9,10.7-2.5c6.2,1,10.6,3.9,11.6,10.1c1.9,12.2-6.4,23.7-18.6,25.6c-0.2,0-0.4,0.1-0.6,0.1
						c-1.3,16.5-8.3,30.9-19.4,43.2c15.9,8.5,29.3,21,38.8,36.4c4.7-0.8,9.7-3.4,12.2-7.5c2.5-4.2,3.1-9.2,1.6-13.9
						c-0.8-2.4-2.3-4.7-4.6-5.6c7.9-0.6,14.9-9.2,16.7-16.9C254.9,209.3,251.5,201.2,244.6,196.9z"/>
					<path class="st11" d="M244.6,196.9c3.3-0.6,6.5-4.4,8.2-7.2c4.8-7.8,2.8-19.1-4.5-24.6c5.2-6,7.8-15.7,5.7-23.3
						c-1.8-6.1-6-11.3-11.6-14.4c5.3-4.8,8.2-11.6,8.1-18.7c0-12.8-8.9-23.2-19.8-23.2c-0.4,0-0.8,0-1.2,0c0.6-2.1,0.9-4.3,0.9-6.5
						c0-11.6-8.7-21-19.5-21c-2.7,0-5.3,0.6-7.7,1.7c1.3-7.1-0.2-15.1-4.7-20.3c-4.7-5.2-11.9-7.4-18.8-5.7c0,0,0-0.1,0-0.2
						c0.1-10-8-18.2-18-18.3l0,0c-6.3,0-12,3.3-15.3,8.7c-3.5-2.9-8-4.4-12.5-4.4c-8.1,0-15,4.7-17.7,11.3c1.6-0.5,3.2-0.7,4.9-0.7
						c5.6,0,10.9,2.6,14.2,7.1c3.4-3.7,8.2-5.8,13.3-5.9c8.6,0,15.3,6,17.4,13.8c8.4,1.6,14.4,9.1,14.7,17.8c0,0.3,0,0.6,0,0.9
						c1.6-0.6,3.3-0.8,5.1-0.7c1.7,0.1,3.5,0.3,5.2,0.7c2.7,0.4,6.3,2.8,8.2,4.7s4.3,5.4,4.7,8.2c0.4,1.7,0.6,3.4,0.7,5.2
						c0,1.1-0.1,2.3-0.3,3.4c5.3,3.4,8.6,9.2,8.9,15.5c0.1,2-0.2,4-0.9,5.9c5.3,3.4,8.6,9.2,8.8,15.5c0.4,7.9-5.5,14.9-12.8,17.3
						c-0.2,3.3-1.3,6.4-3.3,9c3.7,0,7.2-0.9,10.5-2.5c6.2,1,10.6,3.9,11.6,10.1c1.9,12.2-6.4,23.7-18.6,25.6c-0.2,0-0.4,0.1-0.6,0.1
						c-1.3,16.5-8.3,30.9-19.4,43.2c15.9,8.5,29.3,21,38.8,36.4c4.7-0.8,9.7-3.4,12.2-7.5c2.5-4.2,3.1-9.2,1.6-13.9
						c-0.8-2.4-2.3-4.7-4.6-5.6c7.9-0.6,14.9-9.2,16.7-16.9C255,209.3,251.5,201.2,244.6,196.9z"/>
					<path class="st8" d="M245.5,197.2c3.3-0.6,6.5-4.4,8.3-7.2c4.8-7.8,2.8-19.1-4.5-24.6c5.2-5.9,7.8-15.7,5.7-23.3
						c-1.8-6.2-6-11.3-11.6-14.4c5.3-4.8,8.2-11.6,8.1-18.7c0-12.8-8.9-23.2-19.8-23.2c-0.4,0-0.8,0-1.2,0c0.6-2.1,0.9-4.3,0.9-6.4
						c0-11.6-8.7-21-19.5-21c-2.6,0-5.3,0.6-7.7,1.7c1.3-7.1-0.2-15.1-4.7-20.3c-4.7-5.2-11.9-7.4-18.8-5.7c0,0,0-0.1,0-0.2
						c0.1-10-8-18.2-18-18.3c-6.2,0-12,3.3-15.3,8.6c-3.5-2.8-8-4.4-12.5-4.4c-10.4,0-18.9,7.8-18.9,17.4c0,4.3,1.7,8.4,4.7,11.4
						c-2.9,3.8-3.8,8.9-2.3,13.4c2.1,6.1,8.2,10.4,14.7,11c-1,6.8,1.9,13.5,7.4,17.6c5.7,4,13,4.5,19.2,1.5c0.2,7,3.6,12.9,9.3,17
						c5.3,3.8,12,5.2,18.3,3.9c-3.2,3.8-4.9,8.6-4.9,13.5c0,12.1,10.4,22,23.2,22c3.7,0,7.4-0.8,10.7-2.5c6.2,1,10.6,3.9,11.6,10.1
						c1.9,12.2-6.4,23.7-18.6,25.6c-0.2,0-0.4,0.1-0.6,0.1c-1.3,16.5-8.3,30.9-19.3,43.2c15.9,8.5,29.3,21,38.8,36.3
						c4.7-0.8,9.8-3.4,12.2-7.5c2.5-4.2,3.1-9.2,1.6-13.9c-0.8-2.4-2.3-4.7-4.6-5.6c7.9-0.6,14.9-9.2,16.7-16.9
						C255.9,209.6,252.4,201.4,245.5,197.2z"/>
					<path class="st6" d="M66.9,145l4.2-0.1l-2.4-6.3h11.7c0.2,0,0.4,0,0.6,0c5.8,0,10.4,4.7,10.4,10.5s-4.7,10.4-10.5,10.4
						c-4.2,0-8-2.6-9.6-6.5L66.9,145z"/>
					<path class="st6" d="M190.4,145l-4.2-0.1l2.4-6.3h-11.7c-0.2,0-0.4,0-0.6,0c-5.8,0-10.4,4.7-10.4,10.5s4.7,10.4,10.5,10.4
						c4.2,0,8-2.6,9.6-6.5L190.4,145z"/>
				</g>
			</g>
		</g>
	</g>
</g>
<g id="Camada_2_1_" class="st13">
	<g class="st14">
		<g>
			<path class="st15" d="M261,1v328H1V1H261 M262,0H0v330h262V0L262,0z"/>
		</g>
		<line class="st16" x1="1.4" y1="139.5" x2="261.1" y2="139.5"/>
		<line class="st16" x1="0.8" y1="201.8" x2="261.1" y2="201.8"/>
		<line class="st16" x1="261.4" y1="242.8" x2="1.1" y2="242.8"/>
		<ellipse class="st16" cx="131" cy="161.8" rx="84.3" ry="80.6"/>
		<ellipse class="st16" cx="83.8" cy="139.5" rx="12.5" ry="12.5"/>
		<ellipse class="st16" cx="179.7" cy="139.5" rx="12.5" ry="12.5"/>
		<ellipse class="st16" cx="131" cy="198.7" rx="131" ry="131.3"/>
		<line class="st16" x1="131" y1="329.3" x2="131" y2="1.1"/>
	</g>
</g>
</svg>
