<?xml version="1.0" encoding="utf-8"?>
<!-- Generator: Adobe Illustrator 24.0.1, SVG Export Plug-In . SVG Version: 6.00 Build 0)  -->
<svg version="1.1" xmlns="http://www.w3.org/2000/svg" xmlns:xlink="http://www.w3.org/1999/xlink" x="0px" y="0px"
	 viewBox="0 0 262 330" style="enable-background:new 0 0 262 330;" xml:space="preserve">
<style type="text/css">
	.st0{clip-path:url(#SVGID_2_);}
	.st1{fill:#FFBF1F;}
	.st2{fill:none;stroke:#012442;stroke-width:48;stroke-linecap:round;stroke-linejoin:round;}
	.st3{fill:none;stroke:#FFBB71;stroke-width:30;stroke-linecap:round;stroke-linejoin:round;}
	.st4{fill:#FFBB71;}
	.st5{fill:#EF6100;}
	.st6{fill:none;stroke:#012442;stroke-width:8;stroke-linecap:round;stroke-miterlimit:10;}
	.st7{fill:#012442;}
	.st8{fill:#F7E9DE;}
	.st9{fill:#ED8472;}
	.st10{fill:none;stroke:#012442;stroke-width:7;stroke-linecap:round;stroke-linejoin:round;}
	.st11{fill:#E05C5C;}
	.st12{fill:#FFFFFF;}
	.st13{fill:#1F9DF9;}
	.st14{fill:#3061DD;}
	.st15{fill:none;stroke:#012442;stroke-width:8;stroke-miterlimit:10;}
	.st16{fill:none;stroke:#FFFFFF;stroke-width:6;stroke-linecap:round;stroke-linejoin:round;}
	.st17{display:none;}
	.st18{display:inline;}
	.st19{fill:#2BB2FC;}
	.st20{fill:none;stroke:#2BB2FC;stroke-miterlimit:10;}
</style>
<g id="Camada_1">
	<title>36</title>
	<g id="Camada_7">
		<g>
			<defs>
				<path id="SVGID_1_" d="M262.2-1.1H-0.2v197.7H0v0.5c-0.6,72.4,57.5,131.6,129.9,132.2c72.4,0.6,131.6-57.5,132.2-129.9
					c0-0.8,0-1.5,0-2.3c0-0.2,0-0.3,0-0.5h0.1L262.2-1.1z"/>
			</defs>
			<clipPath id="SVGID_2_">
				<use xlink:href="#SVGID_1_"  style="overflow:visible;"/>
			</clipPath>
			<g class="st0">
				<circle class="st1" cx="130.6" cy="198.3" r="131.1"/>
				<path class="st2" d="M190.2,244c0,0,26.9,22.6,41.2,85"/>
				<path class="st3" d="M190.2,244c0,0,26.9,22.6,41.2,85"/>
				<path class="st2" d="M73.4,244c0,0-26.9,22.6-41.2,85"/>
				<path class="st3" d="M73.4,244c0,0-26.9,22.6-41.2,85"/>
				<path class="st4" d="M166.5,227.3l-1-5.9h-67l-1,5.9c-0.3,1.6-0.4,3.2-0.4,4.7c0,17.4,15.6,31.6,34.8,31.6s34.9-14.2,34.9-31.6
					C166.8,230.4,166.7,228.9,166.5,227.3z"/>
				<path class="st5" d="M173.3,235.8c-4.7,2.8-9.5,5.2-14.6,7.2c0,0.3,0.1,0.7,0.1,1c0,13.6-12.5,24.6-27.9,24.6
					c-14.2,0-26-9.5-27.6-21.6c-6.2-2.5-11.6-6.6-15.8-11.8C53.3,269.5,55,362.3,55,362.3l156.9-0.9
					C211.9,361.5,213.4,276.5,173.3,235.8z"/>
				<path class="st5" d="M182.7,283.9l48.4-24.6c-0.3-0.7-22.5-47-56.5-41.1l-7,1.1c-10.8,4.4-9.6,19.3-5.3,30.1L182.7,283.9z"/>
				<path class="st6" d="M202.9,275.3l30.2-14c-0.3-0.7-25.6-54.2-62.5-42"/>
				<path class="st5" d="M80.9,283.9l-48.4-24.6c0.3-0.7,22.5-47,56.5-41.1l7,1.1c10.8,4.4,9.6,19.3,5.3,30.1L80.9,283.9z"/>
				<path class="st6" d="M64.7,276.2l-34.2-14.9c0.3-0.7,25.6-54.2,62.5-42"/>
				<path class="st7" d="M158.5,232.4c0.2,1.3,0.3,2.7,0.3,4.1c0,15.4-12.5,27.8-27.9,27.8c-15.4,0-27.8-12.5-27.8-27.8
					c0-1.4,0.1-2.7,0.3-4.1H158.5 M165.4,224.4H96.5l-1,6.9c-0.3,1.7-0.4,3.5-0.4,5.2c0,19.8,16.1,35.8,35.9,35.8
					c19.8,0,35.8-16,35.8-35.8c0-1.7-0.1-3.5-0.4-5.2L165.4,224.4L165.4,224.4z"/>
				<path class="st6" d="M194.4,256.8c0,0,13,39.5,14.6,95.2"/>
				<path class="st6" d="M70.9,256.8c0,0-13,39.5-14.6,95.2"/>
				<path class="st7" d="M130,55.1c28.8,0,57.8,10.4,71.1,32.8c9.3,15.7,7.7,51.4,7.7,51.4h0.7c9.4,0.6,16.5,8.7,15.8,18.1
					c-0.6,8.5-7.3,15.2-15.8,15.8h-1.1c-4.2,36.4-35.2,62-77,62.1h-0.4c-42.1,0-73.3-25.9-77.2-62.8h-2.4c-9.2,0-16.6-7.4-16.7-16.6
					c0-9.2,7.4-16.6,16.6-16.7l0,0h1.9l-0.1-7.3c0-4.5-0.3-35.3,7.1-47.1C72.5,65.6,101.1,55.1,130,55.1 M130,47.1L130,47.1
					c-15.1-0.1-30.1,2.7-44.1,8.3c-14.4,5.9-25.6,14.7-32.3,25.4c-5.5,8.9-8.3,26-8.3,50.8v0.6c-13.1,3.5-21,16.9-17.5,30.1
					c2.4,9.2,9.9,16.2,19.3,17.9c7.2,37.6,40.9,63.2,84.1,63.2h0.4c22.3-0.1,42.2-6.7,57.6-19.3c13.6-11,22.9-26.4,26.3-43.6
					c11.2-2.7,19.1-12.8,19.1-24.4c-0.1-10.9-7.1-20.5-17.5-23.7c0-12-1.1-35.5-9-48.7c-7.1-12-18.7-21.7-33.5-28
					C161.3,50.1,145.9,47.1,130,47.1L130,47.1z"/>
				<path class="st8" d="M209.8,147.6c5.8,0,10.6,4.7,10.6,10.5c0,5.8-4.7,10.6-10.5,10.6c-5.8,0-10.6-4.7-10.6-10.5
					C199.2,152.4,203.9,147.6,209.8,147.6C209.8,147.6,209.8,147.6,209.8,147.6"/>
				<path class="st4" d="M209.5,139.3l-0.2-12.8c0-19.4-4.6-36.4-12.1-46.8c-12.8-17.7-37.5-23.9-57.8-25.2
					c-4.9-0.3-58.6-2.5-78,25.3c-7.9,11.4-9.1,22-9.1,37.1l0.1,22.5h-2.1c-9.2,0,1.2,36.2,2.6,36.2c3.5,37.4,38.4,60.1,77.6,60.6
					c42.1,0.5,75-26.1,79-62.9h0.1c9.4-0.7,16.4-8.8,15.7-18.2C224.7,146.6,218,139.9,209.5,139.3L209.5,139.3z"/>
				
					<ellipse transform="matrix(0.9659 -0.2589 0.2589 0.9659 -37.6923 54.1279)" class="st9" cx="186.7" cy="170.2" rx="12.4" ry="11.2"/>
				
					<ellipse transform="matrix(0.2558 -0.9667 0.9667 0.2558 -106.7583 202.0914)" class="st9" cx="77.9" cy="170.4" rx="11.1" ry="12.4"/>
				<path class="st10" d="M71.8,121.6c7-4.1,15-5.9,23-5.3"/>
				<path class="st10" d="M188.7,122.6c-7-4.1-15-5.9-23-5.3"/>
				<path class="st7" d="M70.1,136.1l4.2-0.1l-2.4-6.3h11.7h0.6c5.8,0,10.4,4.7,10.4,10.5s-4.7,10.4-10.5,10.4c-4.2,0-8-2.6-9.6-6.5
					L70.1,136.1z"/>
				<path class="st7" d="M193.6,136.1l-4.2-0.1l2.4-6.3h-11.7h-0.6c-5.8,0-10.4,4.7-10.4,10.5s4.7,10.4,10.5,10.4
					c4.2,0,8-2.6,9.6-6.5L193.6,136.1z"/>
				<path class="st11" d="M163.3,176.7c-5.5,7.1-21.9-6.9-31.1,2.2c-8.7-9.1-25.4,4.8-30.9-1.9l-0.5,0.2
					c10.9,35.8,50.7,37.5,62.9-0.4C163.6,176.7,163.4,176.7,163.3,176.7z"/>
				<path class="st12" d="M114.1,183.7c-0.6,0-1.1,0.5-1.1,1.1c0,0.2,0.1,0.4,0.2,0.6c4.3,6.6,12.3,10,19.5,10
					c7.6,0,16.3-5.6,18.8-10.1c0.3-0.5,0.1-1.2-0.5-1.4c-0.2-0.1-0.4-0.1-0.5-0.1L114.1,183.7z"/>
				<path class="st13" d="M50.7,175.4c-12.6,1.3-24.9-10.5-24.2-23.2s14.4-22.9,26.8-20.1c7.5-12.5,12.4-25.8,16.5-39.8
					c2.3,5,5,11.1,8.1,16.6l0,0c4.6-2.7,9.1-5.3,13.6-8.1c5.3-9,10.3-15.6,17.4-25.6c1.7-2.4,5.8-13.8,6.8-16.6
					c1-2.6,9.1-16-13.3-34.4c-4.6-3.8-24.1-0.9-37.5,7.9S40.9,62.1,33.8,76.4c-25.6,51-16.3,112-3.7,162.7
					c7.6-6.8,14.9-25.4,15.3-24.2c0.6,1.6,1.1,3.2,1.7,4.9c4.5-4.3,10.6-6.3,17.1-6.6C55.7,202.5,50,188.3,50.7,175.4z"/>
				<path class="st14" d="M49.7,176.4c-1.3-8.2-0.2-16.6,3.3-24.2c-0.7-2.8-0.6-5.8,0.2-8.6c3.7-12.8,11.8-23.5,21.7-32.2
					c8.2-7.2,17.4-13.1,25.1-21c0.8-0.8,1.7-1.6,2.7-2.3c3-3.6,6.2-7.4,9.3-11.9c1.7-2.4,5.8-13.8,6.8-16.6c1-2.6,5.1-16-17.3-34.4
					c-0.6-0.5-8.3-0.1-10.5-0.2c5.8,0.7,17.5,6.2,8.4,24.8C95.4,57.9,81.2,83,80,92.9c-3.8-10.7-6.9-23.2-6.2-34.5
					c-35.5,7.8-46.2,52.2-51.4,60.1c-7.2,40.7,3.3,91,12.7,128.6c13.1-18.4,29.2-28.6,34.4-29C58.1,207.1,48.8,191.7,49.7,176.4z"/>
				<path class="st7" d="M94,25.7c17.4,0,21.7,19.9,21.8,29.6c0.2,19.6-27,43-52,65c-11.5,9.1-33,57.4,1.9,99
					c-0.2,0.4-12.9,0-28,22.2C25.4,218.6-9.5,82.3,72.5,33.1C81.3,27.8,88.4,25.7,94,25.7 M94,17.7c-7.6,0-16.2,2.9-25.7,8.5
					C31.3,48.5,11.7,90.3,11.7,147.1c0.1,20.4,2.5,40.8,6.9,60.8c3.5,15.7,8.1,30,12.1,37.4l6.3,11.6l7.4-10.9
					c7.3-10.8,15.2-17.4,22.2-18.7c2.9-0.3,5.4-2.2,6.6-4.9l1.9-4.5l-3.2-3.8C55.4,194.6,53.7,174.5,55,161
					c1.8-18,9.9-31.3,13.8-34.4l0.2-0.1l0.2-0.1l1.5-1.3c26.3-23.1,53.5-46.9,53.2-69.8C123.6,37.1,114.2,17.7,94,17.7L94,17.7z"/>
				<path class="st14" d="M158.3,8c-52-3.9-92.8,69.1,37.8,97c43,62,18.2,77.6-2.3,109.9c8.6,6.6,16.2,13.5,22.6,22.5
					c3.6,5.3,6.6,11,8.9,17c1.2-1.4,5.5-4.5,7.4-9.9C287.7,83.6,174.8,11.9,158.3,8z"/>
				<path class="st13" d="M119.2,69.5c5.8,2.3,12.2-1.4,16.7-5.8c4.1-3.9,8.6-10.4,11.4-15.3c10.1,14.3,24.2,24.5,38,33.1
					c-1.2-8.6-1.3-16.5,1.1-25.7c20.1,7.4,52.4,64.8,59.9,86.8c-1.8-47.4-29.4-93.5-66.8-122.7c-4.9-3.8-10.1-7.4-16-9.4
					c-6.4-2.2-13.3-2.4-20.1-2c-2.8,0.1-5.6,0.5-8.3,1.3c-7.5,2.6-14.2,3-17.6,10.2C112.7,30.2,102.5,62.8,119.2,69.5z"/>
				<path class="st15" d="M223.1,167.2c-6.6-16.7-12.9-43.8-21.3-61.3c-1.1-2.2-3.2-3.7-5.7-3.8c-21.1-0.8-73.9-9.2-85.1-48.1
					c-3.1-10.9-1.8-22.6,3.6-32.6C120.9,10,132,1.2,158.3,9c27.4,8.2,135.5,76.8,70.4,243.7c-6-12.4-17.8-33.3-40.1-31.8
					c15.5-13,22.2-26.8,23.5-44.8C216.6,174.4,220.9,173,223.1,167.2z"/>
				<path class="st16" d="M178.5,41.2c1.2,1.3,2.3,2.7,3.4,4.1"/>
				<path class="st16" d="M162.7,25.7c2.3,1.9,4.6,3.9,6.8,6"/>
			</g>
		</g>
	</g>
</g>
<g id="Camada_2" class="st17">
	<g class="st18">
		<g>
			<path class="st19" d="M261,1v328H1V1H261 M262,0H0v330h262V0L262,0z"/>
		</g>
		<line class="st20" x1="1.4" y1="139.5" x2="261.1" y2="139.5"/>
		<line class="st20" x1="0.8" y1="201.8" x2="261.1" y2="201.8"/>
		<line class="st20" x1="261.4" y1="242.8" x2="1.1" y2="242.8"/>
		<ellipse class="st20" cx="131" cy="161.8" rx="84.3" ry="80.6"/>
		<ellipse class="st20" cx="83.8" cy="139.5" rx="12.5" ry="12.5"/>
		<ellipse class="st20" cx="179.7" cy="139.5" rx="12.5" ry="12.5"/>
		<ellipse class="st20" cx="131" cy="198.7" rx="131" ry="131.3"/>
		<line class="st20" x1="131" y1="329.3" x2="131" y2="1.1"/>
	</g>
</g>
</svg>
