<?xml version="1.0" encoding="utf-8"?>
<!-- Generator: Adobe Illustrator 24.0.1, SVG Export Plug-In . SVG Version: 6.00 Build 0)  -->
<svg version="1.1" id="Camada_1" xmlns="http://www.w3.org/2000/svg" xmlns:xlink="http://www.w3.org/1999/xlink" x="0px" y="0px"
	 viewBox="0 0 262 330" style="enable-background:new 0 0 262 330;" xml:space="preserve">
<style type="text/css">
	.st0{clip-path:url(#SVGID_2_);}
	.st1{fill:#FFBF1F;}
	.st2{fill:none;stroke:#012442;stroke-width:48;stroke-linecap:round;stroke-linejoin:round;}
	.st3{fill:none;stroke:#FFBB71;stroke-width:30;stroke-linecap:round;stroke-linejoin:round;}
	.st4{fill:#FFBB71;}
	.st5{fill:#83D9FD;}
	.st6{fill:none;stroke:#012442;stroke-width:8;stroke-linecap:round;stroke-miterlimit:10;}
	.st7{fill:#012442;}
	.st8{fill:#DB432A;}
	.st9{fill:#F7E9DE;}
	.st10{fill:#FFFFFF;}
	.st11{fill:none;stroke:#012442;stroke-width:6;stroke-linecap:round;stroke-linejoin:round;}
	.st12{fill:#D69051;}
	.st13{fill:none;stroke:#012442;stroke-width:3;stroke-linecap:round;stroke-linejoin:round;}
	.st14{fill:none;stroke:#012442;stroke-width:5;stroke-linecap:round;stroke-linejoin:round;}
	.st15{fill:#FFDF24;}
	.st16{fill:none;stroke:#012442;stroke-width:4;stroke-linecap:round;stroke-linejoin:round;}
	.st17{fill:none;stroke:#012442;stroke-width:4;stroke-linecap:round;stroke-linejoin:round;stroke-dasharray:13.4,13.4;}
</style>
<title>6</title>
<g id="Camada_5">
	<g>
		<defs>
			<path id="SVGID_1_" d="M286.1-19.4H-24.1v217.8h23.8c0,0.2,0,0.4,0,0.6c0,72.4,59.7,131.1,132.1,131.1c72.4,0,131-58.7,131-131.1
				c0-0.2,0-0.4,0-0.6h23.3V-9.4V-19.4z"/>
		</defs>
		<clipPath id="SVGID_2_">
			<use xlink:href="#SVGID_1_"  style="overflow:visible;"/>
		</clipPath>
		<g class="st0">
			<circle class="st1" cx="131.1" cy="199" r="131.1"/>
			<path class="st2" d="M189.4,254c0,0,26.9,22.6,41.2,85"/>
			<path class="st3" d="M189.4,254c0,0,26.9,22.6,41.2,85"/>
			<path class="st2" d="M72.6,254c0,0-26.9,22.6-41.2,85"/>
			<path class="st3" d="M72.6,254c0,0-26.9,22.6-41.2,85"/>
			<path class="st4" d="M165.6,237.2l-1-5.9h-67l-1,5.9c-0.3,1.6-0.4,3.1-0.4,4.7c0,17.5,15.6,31.6,34.8,31.6S166,259.4,166,242
				C166,240.4,165.9,238.8,165.6,237.2z"/>
			<path class="st5" d="M172.5,245.9c-4.7,2.8-9.5,5.1-14.6,7.2c0,0.3,0,0.7,0,1c0,13.6-12.5,24.6-27.9,24.6
				c-14.2,0-26-9.5-27.6-21.6c-6.2-2.5-11.6-6.6-15.8-11.8c-34.2,34.3-32.4,127.2-32.4,127.2l156.8-0.8
				C211,371.6,212.5,286.6,172.5,245.9z"/>
			<path class="st5" d="M181.9,293.9l48.4-24.5c-0.3-0.7-22.5-47-56.5-41.1l-7,1.1c-10.8,4.4-9.6,19.3-5.3,30.1L181.9,293.9z"/>
			<path class="st6" d="M202.1,285.3l30.2-14c-0.3-0.7-25.6-54.2-62.5-42"/>
			<path class="st5" d="M80,293.9l-48.4-24.5c0.3-0.7,22.5-47,56.5-41.1l7,1.1c10.8,4.4,9.6,19.3,5.3,30.1L80,293.9z"/>
			<path class="st6" d="M63.9,286.2l-34.2-14.8c0.3-0.7,25.6-54.2,62.5-42"/>
			<path class="st7" d="M157.7,238.4c0.2,1.3,0.3,2.7,0.3,4.1c0,15.4-12.5,27.8-27.9,27.8c-15.4,0-27.8-12.5-27.8-27.8
				c0-1.4,0.1-2.7,0.3-4.1H157.7 M164.6,230.4H95.6l-1,6.9c-0.3,1.7-0.4,3.5-0.4,5.2c0,19.8,16.1,35.8,35.9,35.8
				c19.8,0,35.8-16,35.8-35.8c0-1.7-0.1-3.5-0.4-5.2L164.6,230.4L164.6,230.4z"/>
			<path class="st6" d="M193.5,266.8c0,0,13,39.5,14.6,95.2"/>
			<path class="st6" d="M70.1,266.8c0,0-13,39.5-14.6,95.2"/>
			<path class="st4" d="M209.1,175.2c0.1,41-34.4,70.7-79.4,70.9l0,0c-45.1,0.2-77.8-29.4-78-70.4l-0.3-43
				c-0.1-15.1,4.2-25.7,12.1-37.1c19.3-27.9,70-25.7,75-25.3c20.4,1.3,45.1,7.5,57.8,25.2c7.5,10.4,12.1,21.5,12.1,40.9L209.1,175.2
				z"/>
			<path class="st7" d="M131.2,70.1c28.1,0,56.1,10,69.1,31.8c9.4,15.7,7.7,47.4,7.7,47.4h0.7c9.4,0.6,16.5,8.7,15.8,18.1
				c-0.6,8.5-7.3,15.2-15.8,15.8h-1.1c-4.2,36.4-35.1,62-76.9,62.1h-0.4c-42.1,0-73.3-25.9-77.2-62.8h-2.4h-0.1
				c-9.2,0-16.6-7.4-16.6-16.6s7.4-16.6,16.6-16.6h2l-0.1-7.3c0-4.5-0.3-29.3,7.1-41.1C72,81.1,101.7,70.1,131.2,70.1 M131.3,62.1
				c-34.5,0-65.3,13.6-78.5,34.6c-5.5,8.8-8.3,23.9-8.3,44.8v0.6c-10.9,2.9-18.4,12.7-18.4,23.9c0.1,11.8,8.5,21.9,20.1,24.1
				c7.2,37.6,40.8,63.3,84.1,63.3h0.4c22.3-0.1,42.2-6.7,57.6-19.3c13.6-11,22.9-26.4,26.3-43.5c13.4-3.3,21.6-16.9,18.3-30.3
				c-2.1-8.4-8.4-15.2-16.7-17.8c-0.1-11.1-1.3-31.8-9-44.7C193.8,75.4,165.5,62.1,131.3,62.1L131.3,62.1L131.3,62.1z"/>
			<path class="st7" d="M131,10.2c6.6,0,12,3.3,12,7.4s-5.4,7.4-12,7.4s-12-3.3-12-7.4S124.3,10.2,131,10.2 M131,4.2
				c-10.1,0-18,5.9-18,13.4S120.9,31,131,31s18-5.9,18-13.4S141.1,4.2,131,4.2z"/>
			<ellipse class="st8" cx="131" cy="17.6" rx="12" ry="7.4"/>
			<path class="st9" d="M208.9,157.6c5.8,0,10.6,4.7,10.6,10.5c0,5.8-4.7,10.6-10.5,10.6c-5.8,0-10.6-4.7-10.6-10.5
				C198.4,162.4,203.1,157.7,208.9,157.6C208.9,157.6,208.9,157.6,208.9,157.6"/>
			<path class="st4" d="M83,165.8c0,8.4,5,15.4-3.1,16.5c-0.7,0.1-29.6,0.2-30.4,0.2c-9.2,0-16.6-7.4-16.7-16.6s7.4-16.6,16.5-16.7
				c0.8,0,24.1,0,24.8,0.1C82.4,150.4,83,157.4,83,165.8z"/>
			<path class="st4" d="M174.5,166.4c0,8.6-5,15.8,3.3,16.8c0.7,0.1,30.3,0,31,0c9.4-0.7,16.4-8.8,15.7-18.2
				c-0.6-8.5-7.4-15.2-15.9-15.7c-0.8,0-24.6,0.1-25.3,0.2C175,150.7,174.4,157.8,174.5,166.4z"/>
			<path class="st10" d="M168,168.9c-24.7,2.9-52.5,2.9-75.3-0.4c0,0,6.9,33.8,37.6,33.8C164.9,202.4,168,168.9,168,168.9z"/>
			<path class="st11" d="M168,168.9c-24.7,2.9-52.5,2.9-75.3-0.4c0,0,6.9,33.8,37.6,33.8C164.9,202.4,168,168.9,168,168.9z"/>
			<g id="olho">
				<path class="st7" d="M91.6,146.8c0,5.8-4.6,10.5-10.4,10.5c-5.8,0-10.5-4.6-10.5-10.4c0-5.8,4.6-10.5,10.4-10.5c0,0,0,0,0,0
					C86.9,136.4,91.6,141,91.6,146.8z"/>
			</g>
			<g id="olho-2">
				<path class="st7" d="M189.4,146.8c0,5.8-4.6,10.5-10.4,10.5c-5.8,0-10.5-4.6-10.5-10.4c0-5.8,4.6-10.5,10.4-10.5c0,0,0,0,0,0
					C184.7,136.4,189.3,141,189.4,146.8z"/>
			</g>
			<path class="st12" d="M130.8,220.5c-4.7,0-9.4-0.5-14-1.4c-1.6-0.3-2.7-1.9-2.3-3.5c0.3-1.6,1.9-2.7,3.5-2.3
				c9,1.9,18.3,1.7,27.3-0.5c1.6-0.5,3.3,0.5,3.7,2.1c0.5,1.6-0.5,3.3-2.1,3.7c0,0-0.1,0-0.1,0C141.6,219.9,136.2,220.6,130.8,220.5
				z"/>
			<path class="st13" d="M102.1,183.2c0,0,30.5,5.5,59.2,0"/>
			<path class="st1" d="M32,128.1c0,0,107.5-16.5,198.8,0V71.4c-0.1-7.5-3.9-14.5-10.2-18.7c-25.5-17.4-55.6-26.7-86.5-26.5
				c-42.1,0-75.4,16.5-92,26.7c-7.2,4.4-11.4,11.7-11.4,19.5C30.7,92,31,129,32,128.1z"/>
			<path class="st8" d="M107.7,126.3c-5.9,2-9.1,8.4-7.1,14.3c1.5,4.4,5.5,7.4,10.1,7.7c4.2,0.2,8.2-1.9,11.6-4.5
				c-0.7,6,5.7,11.9,11.7,11s10.1-8.2,7.7-13.7c3.8,2,8.8,3.3,12.9,1.8s7.3-5.7,6.7-10c4.8,1.8,10.8-1.7,11.7-6.8l-26.1-0.2
				l-6.7-0.1C128.2,125.7,118.8,122.4,107.7,126.3z"/>
			<path class="st14" d="M107.7,126.3c-5.9,2-9.1,8.4-7.1,14.3c1.5,4.4,5.5,7.4,10.1,7.7c4.2,0.2,8.2-1.9,11.6-4.5
				c-0.7,6,5.7,11.9,11.7,11s10.1-8.2,7.7-13.7c3.8,2,8.8,3.3,12.9,1.8s7.3-5.7,6.7-10c4.8,1.8,10.8-1.7,11.7-6.8l-26.1-0.2
				l-6.7-0.1C128.2,125.7,118.8,122.4,107.7,126.3z"/>
			<path class="st7" d="M134.1,26.2c30.9-0.1,61,9.1,86.5,26.5c6.3,4.2,10.1,11.2,10.2,18.7v56.7c-30.4-5.5-62.7-7.3-92.1-7.3
				c-35.7,0-71.3,2.5-106.7,7.3l0,0c-1,0-1.2-36.3-1.3-55.7c0-7.8,4.3-15.2,11.5-19.6C58.8,42.7,92.1,26.2,134.1,26.2 M134.2,18.2
				C90,18.2,54.9,35.6,38,46.1c-9.6,5.9-15.3,15.8-15.3,26.4c0,9.7,0.1,23.6,0.3,35.2c0.1,6.4,0.2,11.3,0.4,14.8
				c0.1,2.1,0.2,3.7,0.3,4.8c0.1,0.8,0.2,1.4,0.3,2c0.6,3.9,4,6.8,8,6.8h3.1l0.5-0.4c34.2-4.5,68.7-6.8,103.2-6.9
				c33.7,0,64.2,2.4,90.7,7.2l9.4,1.7V71.4c-0.1-10.1-5.2-19.6-13.6-25.2C198.4,27.8,166.6,18.1,134.2,18.2L134.2,18.2z"/>
			<path class="st8" d="M162.5,108.7c-0.4,0-0.7,0-1.1-0.1c-29.7-4.3-61.7,0-62,0c-5,0.7-9.4-3.7-9.9-9.7s3-11.5,8-12.1
				c1.4-0.2,34.3-4.6,66.1,0c4.9,0.7,8.5,6.2,7.9,12.2C170.8,104.6,167,108.7,162.5,108.7z"/>
			<path class="st15" d="M52.6,72.4c0-7.8,4.9-19.3,11.5-24.6c25.8-20.8,73.7-21.7,70-21.7c-42.1,0-75.4,16.5-92,26.7
				c-7.2,4.5-11.5,11.8-11.5,19.6C30.7,91.9,31,128.9,32,128c0,0,8-1.2,21.6-2.7C52.9,116.6,52.7,88.6,52.6,72.4z"/>
			<path class="st15" d="M209.8,72.4c0-7.8-2.8-13.3-8.5-19.6c-20.5-22.6-69.7-26.7-66-26.7c42.1,0,68.4,16.5,85,26.7
				c7.2,4.5,11.5,11.8,11.5,19.6c-0.1,19.5-0.3,55.5-1.3,54.6c0,0-8-1.2-21.6-2.7C209.5,115.6,209.7,88.6,209.8,72.4z"/>
			<path class="st16" d="M89.3,28.3c-1.6,1.1-3.2,2.4-4.6,3.8"/>
			<path class="st17" d="M76.8,42.9c-2.1,4.1-3.7,8.4-4.8,12.9c-2.6,10.8-2.6,21.9-2.5,33l0.1,26.8"/>
			<path class="st16" d="M69.7,122.2v6"/>
			<path class="st16" d="M174.5,28.3c1.6,1.1,3.2,2.4,4.6,3.8"/>
			<path class="st17" d="M187,42.9c2.1,4.1,3.7,8.4,4.8,12.9c2.6,10.8,2.6,21.9,2.5,33l-0.1,26.8"/>
			<path class="st16" d="M194.1,122.2v6"/>
			<path class="st8" d="M223.4,132c-5.4-0.9-10.7-2.3-16.1-3.2c-4.5-0.8-9-1.3-13.5-2c-1.2,5.8,1.7,11.8,7.1,14.3
				c-1.9,3.1-1.6,7,0.7,9.9c2.4,2.5,5.9,3.6,9.3,2.9c3.4-0.7,6.4-2.7,8.4-5.4c5.3,3.2,8.6,8.8,8.9,15c0.6-0.8,1.3-1.4,2.2-1.8
				c2-1.1,3.4-2.9,4-5.1c0.6-2.2,0.5-4.4-0.1-6.6c3-1.2,5.4-4.8,5.8-8c0.3-2.6-0.6-5.2-2.3-7.2C233.1,133.8,228.3,132.8,223.4,132z"
				/>
			<path class="st14" d="M223.4,132c-5.4-0.9-10.7-2.3-16.1-3.2c-4.5-0.8-9-1.3-13.5-2c-1.2,5.8,1.7,11.8,7.1,14.3
				c-1.9,3.1-1.6,7,0.7,9.9c2.4,2.5,5.9,3.6,9.3,2.9c3.4-0.7,6.4-2.7,8.4-5.4c5.3,3.2,8.6,8.8,8.9,15c0.6-0.8,1.3-1.4,2.2-1.8
				c2-1.1,3.4-2.9,4-5.1c0.6-2.2,0.5-4.4-0.1-6.6c3-1.2,5.4-4.8,5.8-8c0.3-2.6-0.6-5.2-2.3-7.2C233.1,133.8,228.3,132.8,223.4,132z"
				/>
			<path class="st8" d="M39.7,132c5.4-0.9,10.7-2.3,16.1-3.2c4.5-0.8,9-1.3,13.5-2c1.2,5.8-1.7,11.8-7.1,14.3c1.9,3.1,1.6,7-0.7,9.9
				c-2.4,2.5-5.9,3.6-9.3,2.9c-3.4-0.7-6.4-2.7-8.4-5.5c-5.3,3.2-14.7,8.9-14.9,15c-0.5-0.7,4.6-1.4,3.8-1.8c-2-1.1-3.4-2.9-4-5.1
				c-0.5-2.2-0.5-4.4,0.1-6.6c-3-1.2-5.4-4.8-5.8-8c-0.3-2.6,0.6-5.2,2.3-7.2C30,133.8,34.8,132.8,39.7,132z"/>
			<path class="st14" d="M39.7,132c5.4-0.9,10.7-2.3,16.1-3.2c4.5-0.8,9-1.3,13.5-2c1.2,5.8-1.7,11.8-7.1,14.3
				c1.9,3.1,1.6,7-0.7,9.9c-2.4,2.5-5.9,3.6-9.3,2.9c-3.4-0.7-6.4-2.7-8.4-5.5c-5.3,3.2-13.7,8.9-13.9,15c-0.5-0.7,0.6-1.4-0.2-1.8
				c-2-1-0.4-2.9-1-5.1c-0.5-2.2-0.5-4.4,0.1-6.6c-3-1.2-5.4-4.8-5.8-8c-0.3-2.6,0.6-5.2,2.3-7.2C30,133.8,34.8,132.8,39.7,132z"/>
			<circle class="st12" cx="203.3" cy="174.4" r="4.3"/>
			<circle class="st12" cx="183.8" cy="170" r="4.3"/>
			<circle class="st12" cx="190" cy="183.7" r="4.3"/>
			<circle class="st12" cx="61.8" cy="174.4" r="4.3"/>
			<circle class="st12" cx="81.3" cy="170" r="4.3"/>
			<circle class="st12" cx="75.1" cy="183.7" r="4.3"/>
			<path class="st6" d="M162.5,108.7c-0.4,0-0.7,0-1.1-0.1c-29.7-4.3-61.7,0-62,0c-5,0.7-9.4-3.7-9.9-9.7s3-11.5,8-12.1
				c1.4-0.2,34.3-4.6,66.1,0c4.9,0.7,8.5,6.2,7.9,12.2C170.8,104.6,167,108.7,162.5,108.7z"/>
		</g>
	</g>
</g>
</svg>
