<?xml version="1.0" encoding="utf-8"?>
<!-- Generator: Adobe Illustrator 24.0.1, SVG Export Plug-In . SVG Version: 6.00 Build 0)  -->
<svg version="1.1" id="Camada_1" xmlns="http://www.w3.org/2000/svg" xmlns:xlink="http://www.w3.org/1999/xlink" x="0px" y="0px"
	 viewBox="0 0 262 330" style="enable-background:new 0 0 262 330;" xml:space="preserve">
<style type="text/css">
	.st0{display:none;}
	.st1{display:inline;fill:#FFFFFF;}
	.st2{display:inline;opacity:0.33;fill:none;stroke:#000000;stroke-miterlimit:10;enable-background:new    ;}
	.st3{clip-path:url(#SVGID_2_);}
	.st4{fill:#22A1FF;}
	.st5{fill:none;stroke:#012442;stroke-width:48;stroke-linecap:round;stroke-linejoin:round;stroke-miterlimit:10;}
	.st6{fill:none;stroke:#FFBB71;stroke-width:30;stroke-linecap:round;stroke-linejoin:round;stroke-miterlimit:10;}
	.st7{fill:#FFBB71;}
	.st8{fill:#FF8A0B;}
	.st9{fill:none;stroke:#012442;stroke-width:8;stroke-linecap:round;stroke-miterlimit:10;}
	.st10{fill:#012442;}
	.st11{fill:#FFFFFF;}
	.st12{fill:none;stroke:#012442;stroke-width:6;stroke-linecap:round;stroke-linejoin:round;stroke-miterlimit:10;}
	.st13{fill:#C67552;}
	.st14{fill:none;stroke:#012442;stroke-width:3;stroke-linecap:round;stroke-linejoin:round;stroke-miterlimit:10;}
	.st15{fill:none;stroke:#FFFFFF;stroke-width:6;stroke-linecap:round;stroke-linejoin:round;stroke-miterlimit:10;}
</style>
<g id="Camada_4" class="st0">
	<path class="st1" d="M285.3,0.3H-25v207.8h24.8c0,0.2,0,0.4,0,0.6c0,72.4,58.7,131,131.1,131s131-58.7,131-131c0-0.2,0-0.4,0-0.6
		h23.3L285.3,0.3L285.3,0.3z"/>
</g>
<g id="Camada_3" class="st0">
	<circle class="st2" cx="130.9" cy="207.5" r="131.1"/>
	<path class="st1" d="M285.1,1.1H-25.2v207.8h24.9c0,0.2,0,0.4,0,0.6c0,72.4,58.7,131.1,131.1,131.1s131-58.7,131-131.1
		c0-0.2,0-0.4,0-0.6h23.3L285.1,1.1L285.1,1.1z"/>
</g>
<g>
	<defs>
		<path id="SVGID_1_" d="M285.6-19.4H-24.6v217.8h23.8c0,0.2,0,0.4,0,0.6c0,72.4,59.7,131.1,132.1,131.1s131-58.7,131-131.1
			c0-0.2,0-0.4,0-0.6h23.3V-9.4L285.6-19.4L285.6-19.4z"/>
	</defs>
	<clipPath id="SVGID_2_">
		<use xlink:href="#SVGID_1_"  style="overflow:visible;"/>
	</clipPath>
	<g class="st3">
		<g>
			<g>
				<circle class="st4" cx="131.1" cy="200" r="131.1"/>
			</g>
		</g>
		<g>
			<g>
				<path class="st5" d="M189.4,246c0,0,26.9,22.6,41.2,85"/>
			</g>
		</g>
		<g>
			<g>
				<path class="st6" d="M189.4,246c0,0,26.9,22.6,41.2,85"/>
			</g>
		</g>
		<g>
			<g>
				<path class="st5" d="M72.6,246c0,0-26.9,22.6-41.2,85"/>
			</g>
		</g>
		<g>
			<g>
				<path class="st6" d="M72.6,246c0,0-26.9,22.6-41.2,85"/>
			</g>
		</g>
		<g>
			<g>
				<path class="st7" d="M165.6,229.3l-1-5.9h-67l-1,5.9c-0.3,1.6-0.4,3.2-0.4,4.7c0,17.5,15.6,31.6,34.9,31.6S166,251.4,166,234
					C166,232.4,165.9,230.8,165.6,229.3z"/>
			</g>
		</g>
		<g>
			<g>
				<path class="st8" d="M172.5,237.9c-4.7,2.8-9.6,5.1-14.6,7.2c0,0.3,0,0.7,0,1c0,13.6-12.5,24.6-27.9,24.6
					c-14.2,0-26-9.5-27.6-21.6c-6-2.5-11.4-6.3-15.8-11.8c-34.3,34.3-32.5,127.1-32.5,127.1l156.9-0.9
					C211,363.5,212.5,278.6,172.5,237.9z"/>
			</g>
		</g>
		<g>
			<g>
				<g>
					<g>
						<path class="st8" d="M181.9,285.9l48.4-24.6c-0.3-0.7-22.5-47-56.5-41.1l-7,1.1c-10.8,4.4-9.6,19.3-5.3,30.1L181.9,285.9z"/>
					</g>
				</g>
			</g>
		</g>
		<g>
			<g>
				<g>
					<path class="st9" d="M202.1,277.3l30.2-14c-0.3-0.7-25.6-54.2-62.5-42"/>
				</g>
			</g>
		</g>
		<g>
			<g>
				<g>
					<g>
						<path class="st8" d="M80,285.9l-48.4-24.6c0.3-0.7,22.5-47,56.5-41.1l7,1.1c10.8,4.4,9.6,19.3,5.3,30.1L80,285.9z"/>
					</g>
				</g>
			</g>
		</g>
		<g>
			<g>
				<g>
					<path class="st9" d="M63.9,278.2l-34.2-14.9c0.3-0.7,25.6-54.2,62.5-42"/>
				</g>
			</g>
		</g>
		<g>
			<g>
				<g>
					<path class="st10" d="M157.7,230.4c0.2,1.3,0.3,2.7,0.3,4.1c0,15.4-12.5,27.9-27.9,27.9s-27.9-12.5-27.9-27.9
						c0-1.4,0.1-2.7,0.3-4.1H157.7 M164.6,222.4h-6.9h-55.1h-6.9l-1,6.8c-0.2,1.7-0.4,3.5-0.4,5.2c0,19.8,16.1,35.9,35.9,35.9
						s35.9-16.1,35.9-35.9c0-1.7-0.1-3.5-0.4-5.2L164.6,222.4L164.6,222.4z"/>
				</g>
			</g>
		</g>
		<g>
			<g>
				<path class="st9" d="M193.5,258.8c0,0,13,39.5,14.6,95.2"/>
			</g>
		</g>
		<g>
			<g>
				<path class="st9" d="M70.1,258.8c0,0-13,39.5-14.6,95.2"/>
			</g>
		</g>
		<g>
			<g>
				<g>
					<path class="st7" d="M209.1,167.3c0.1,41-34.4,70.8-79.5,70.9l0,0c-45.1,0.2-77.8-29.4-78-70.4l-0.3-49
						c-0.1-15.1,4.2-25.7,12.1-37.1c19.3-27.9,70-25.7,75-25.3c20.4,1.3,45.1,7.5,57.8,25.2c7.5,10.4,12.2,27.5,12.2,46.9
						L209.1,167.3z"/>
				</g>
			</g>
		</g>
		<g>
			<g>
				<path class="st10" d="M129.2,57.1c28.8,0,57.8,10.4,71.1,32.8c9.4,15.7,7.7,51.4,7.7,51.4c0.4,0,0.6,0,0.7,0c0,0,0,0,0.1,0
					c9.4,0,16.9,7.6,17,16.9c0,9.4-7.5,17-16.9,17c-0.1,0-0.5,0-1.1,0c-4.2,36.4-35.1,62-76.9,62.1c-0.1,0-0.2,0-0.4,0
					c-42.1,0-73.3-25.9-77.2-62.8c-1.4,0-2.3,0-2.4,0c0,0,0,0-0.1,0c-9.1,0-16.6-7.4-16.6-16.6c0-9.2,7.4-16.6,16.5-16.7
					c0.1,0,0.8,0,1.9,0l-0.1-7.3c0-4.5-0.3-35.3,7.1-47.1C71.6,67.6,100.3,57.1,129.2,57.1 M129.2,49.1c-15.7,0-31,2.9-44.2,8.3
					c-14.4,5.9-25.6,14.7-32.3,25.3c-5.6,8.9-8.3,26-8.3,50.8v0.5v0.1l0,0c-4.2,1.1-8.1,3.3-11.2,6.5c-4.6,4.7-7.2,10.9-7.2,17.4
					c0,12,8.7,22,20.1,24.1c7.2,37.6,40.9,63.2,84.1,63.2h0.4c22.3-0.1,42.2-6.7,57.6-19.3c13.6-11.1,22.8-26.4,26.3-43.5
					c4.4-1.1,8.5-3.4,11.9-6.7c4.7-4.7,7.3-11,7.2-17.7c0-11.1-7.4-20.6-17.6-23.7c0-12-1.1-35.5-9-48.7c-7.1-12-18.7-21.7-33.5-28
					C160.6,52.1,145.2,49.1,129.2,49.1L129.2,49.1z"/>
			</g>
		</g>
		<g>
			<g>
				<g>
					<path class="st7" d="M83.1,157.8c0,8.4,5,15.4-3.1,16.5c-0.7,0.1-29.6,0.2-30.4,0.2c-9.2,0-16.6-7.4-16.7-16.6
						c0-9.2,7.4-16.6,16.5-16.7c0.8,0,24.1,0,24.8,0.1C82.4,142.4,83,149.4,83.1,157.8z"/>
				</g>
			</g>
		</g>
		<g>
			<g>
				<g>
					<path class="st7" d="M174.5,158.4c0,8.6-5,15.8,3.3,16.8c0.7,0.1,30.3,0,31,0c9.4,0,16.9-7.6,16.9-17s-7.6-16.9-17-16.9
						c-0.8,0-24.6,0.1-25.3,0.2C175,142.7,174.4,149.8,174.5,158.4z"/>
				</g>
			</g>
		</g>
		<g>
			<g>
				<path class="st11" d="M168,170.9c-24.7,2.9-52.5,2.9-75.3-0.4c0,0,6.9,33.8,37.6,33.8C164.9,204.4,168,170.9,168,170.9z"/>
			</g>
		</g>
		<g>
			<g>
				<path class="st12" d="M168,170.9c-24.7,2.9-52.5,2.9-75.3-0.4c0,0,6.9,33.8,37.6,33.8C164.9,204.4,168,170.9,168,170.9z"/>
			</g>
		</g>
		<g>
			<g>
				<g>
					<path class="st13" d="M130.8,222.6c-4.7,0-9.4-0.5-14-1.4c-1.6-0.3-2.7-1.9-2.3-3.5c0.3-1.6,1.9-2.7,3.5-2.3
						c9.2,1.9,18.7,1.7,27.3-0.5c1.6-0.4,3.2,0.6,3.6,2.2s-0.6,3.2-2.2,3.6C141.6,221.9,136.2,222.6,130.8,222.6z"/>
				</g>
			</g>
		</g>
		<g>
			<g>
				<path class="st14" d="M102.1,185.3c0,0,30.5,5.5,59.2,0"/>
			</g>
		</g>
		<g>
			<g>
				<g>
					<g>
						<circle class="st13" cx="198.6" cy="161.4" r="4.3"/>
					</g>
					<g>
						<circle class="st13" cx="179.4" cy="167.1" r="4.3"/>
					</g>
					<g>
						<circle class="st13" cx="191.5" cy="176" r="4.3"/>
					</g>
				</g>
			</g>
		</g>
		<g>
			<g>
				<g>
					<g>
						<circle class="st13" cx="62.5" cy="161.4" r="4.3"/>
					</g>
					<g>
						<circle class="st13" cx="82.1" cy="165.3" r="4.3"/>
					</g>
					<g>
						<circle class="st13" cx="70.9" cy="175.3" r="4.3"/>
					</g>
				</g>
			</g>
		</g>
		<g>
			<g>
				<g id="olho_17_">
					<g>
						<path class="st10" d="M91.1,139.2c0,5.8-4.6,10.5-10.4,10.5s-10.5-4.6-10.5-10.4c0-5.8,4.6-10.5,10.4-10.5
							C86.4,128.7,91.1,133.4,91.1,139.2z"/>
					</g>
				</g>
			</g>
		</g>
		<g>
			<g>
				<g id="olho_10_">
					<g>
						<path class="st10" d="M188.4,138.8c0,5.8-4.6,10.5-10.4,10.5c-5.8,0-10.5-4.6-10.5-10.4c0-5.8,4.6-10.5,10.4-10.5
							C183.7,128.4,188.4,133,188.4,138.8z"/>
					</g>
				</g>
			</g>
		</g>
		<g>
			<g>
				<path class="st15" d="M181.3,87.8c2.7,2,8.6,8.4,9.3,15.5"/>
			</g>
		</g>
		<g>
			<g>
				<path class="st15" d="M170.2,79.6c1.1,0.7,2.3,1.4,3.4,2.1"/>
			</g>
		</g>
	</g>
</g>
</svg>
