<svg id="Camada_1" data-name="Camada 1" xmlns="http://www.w3.org/2000/svg" xmlns:xlink="http://www.w3.org/1999/xlink" viewBox="0 0 192.42 190.07"><defs><style>.cls-1{fill:none;}.cls-2{fill:#002043;}.cls-3{fill:#fff;}.cls-4{clip-path:url(#clip-path);}.cls-5{fill:#081c2d;}.cls-6{fill:#3f8214;}.cls-7{fill:#bc2f2f;}</style><clipPath id="clip-path"><circle class="cls-1" cx="96.21" cy="95.03" r="71.35"/></clipPath></defs><title>arabic</title><circle class="cls-2" cx="96.21" cy="95.04" r="79.76"/><path class="cls-2" d="M96.2,187.86A92.83,92.83,0,1,1,189,95,92.92,92.92,0,0,1,96.2,187.86Zm0-159.53A66.71,66.71,0,1,0,162.91,95,66.77,66.77,0,0,0,96.2,28.33Z"/><circle class="cls-3" cx="96.21" cy="95.03" r="79.76"/><g class="cls-4"><rect class="cls-5" x="4.22" y="20.8" width="183.99" height="51.63"/><rect class="cls-6" x="4.22" y="69.22" width="183.99" height="51.63"/><rect class="cls-3" x="4.22" y="119.25" width="183.99" height="48.42"/><path class="cls-7" d="M14.91,22.66l94.54,63a11,11,0,0,1-.08,18.38L14.84,165.86a11,11,0,0,1-17-9.22V31.82A11,11,0,0,1,14.91,22.66Z"/></g></svg>