<svg id="Camada_1" data-name="Camada 1" xmlns="http://www.w3.org/2000/svg" xmlns:xlink="http://www.w3.org/1999/xlink" viewBox="0 0 192.42 190.07"><defs><style>.cls-1{fill:none;}.cls-2{fill:#002043;}.cls-3{fill:#fff;}.cls-4{clip-path:url(#clip-path);}.cls-5{fill:#bc2f2f;}</style><clipPath id="clip-path"><circle class="cls-1" cx="96.21" cy="95.04" r="70.4"/></clipPath></defs><title>chinese_hongkong</title><circle class="cls-2" cx="96.21" cy="95.04" r="79.76"/><path class="cls-2" d="M96.2,187.86A92.83,92.83,0,1,1,189,95,92.92,92.92,0,0,1,96.2,187.86Zm0-159.53A66.71,66.71,0,1,0,162.91,95,66.77,66.77,0,0,0,96.2,28.33Z"/><circle class="cls-3" cx="96.21" cy="95.04" r="79.76"/><g class="cls-4"><rect class="cls-5" x="7.88" y="0.29" width="171.02" height="172.98" transform="translate(180.16 -6.61) rotate(90)"/></g><path class="cls-3" d="M128,100.5c-10.32,6.55-23.94,4.55-31.44-3.36,4.2,2.62,8.74,3,13.48,2.14,4.92-.94,11.17-4.81,11.52-7.21-7.18,7-15.21,9.17-24.42,4.53a1.59,1.59,0,0,1,1,0c6.84,1.6,12.41-3.82,13-9.16,1-8.38,9.89-13.66,16.7-11.62,4.11,1.23,7.73-.82,9.41-4.7.26-.62.47-1.27.77-2.09C142.57,79.1,139.49,93.2,128,100.5Zm-3.53-14.78c-.62.09-1.34-.58-2.3-1l.95,2.48L121,89.07c2.18-.51,3.54-.1,3.94,2.12.26-2,1.13-3.16,3.37-2.84-1.88-.87-2.69-2.06-1.91-4C125.77,84.85,125.16,85.62,124.45,85.72Z"/><path class="cls-3" d="M92.72,92.29a9.82,9.82,0,0,0-9.26-3.68,12,12,0,0,0-7.28,3.51A13.29,13.29,0,0,1,63.7,95.87a13,13,0,0,1-7.46-4.33c-3.43-3.76-7.33-4.11-11.5-1.12-.19.13-.41.22-.69.37,1.43-8.5,10.89-20.23,26.27-19.45,13.3.68,22.54,11.27,23.73,20.84-4.24-6.25-5.51-7.47-9.79-9.37-4.62-2.06-11.88-2.54-13.57-.65a21.13,21.13,0,0,1,13.36,1.26,16.19,16.19,0,0,1,9.11,9.38C93,92.63,92.86,92.47,92.72,92.29ZM69.35,84.72c-1.92-.8-2.77-1.91-1.83-4-1.42,1.55-2.78,1.86-4.37.26.8,1.68,1.2,3.18-.93,4.27,2-.27,3.41.19,3.73,2.43C66.13,85.5,67,84.38,69.35,84.72Z"/><path class="cls-3" d="M98.74,127.53c-9.61-9.06-9.56-22.49-5.68-29a8.32,8.32,0,0,1,0,1,17.85,17.85,0,0,0,3,12.67,20.24,20.24,0,0,0,8.16,7.38,9.58,9.58,0,0,0,1.52.47l.08-.36c-5.38-2.94-7.69-5.12-9.93-9-2.65-4.55-3-11.15-1.59-13a24.79,24.79,0,0,0,.28,2.69c1.34,6.49,8,8.64,12.06,8.2a23.15,23.15,0,0,1,4-.32,13.44,13.44,0,0,1,12.75,12.51A7.55,7.55,0,0,0,130,128c.93.17,1.89.16,3,.25C124.5,136,109,137.22,98.74,127.53ZM113.11,118c-1.3,1.78-2.68,2.06-4.35.54,1.07,1.8,1.09,3.23-1.05,4.31,2.2-.56,3.41.19,3.9,2.33.12-2.14,1.06-3.17,3.54-2.77C112.94,120.72,112.94,120.72,113.11,118Z"/><path class="cls-3" d="M110.09,65.88c3.08,12.92-5.3,24.63-12.78,27.76a18.16,18.16,0,0,0,6-12.25c.44-5.14-1.28-11.77-3.67-12.87a20.26,20.26,0,0,1,3,13.19C102,86.92,99.2,91.93,96.53,93.1A26.69,26.69,0,0,0,98,90c1.57-4.79-1-10.52-5.69-12.86a13.5,13.5,0,0,1-6.64-6.5,13.07,13.07,0,0,1,.67-12.88,7.52,7.52,0,0,0,0-8.67c-.78-1.18-1.69-2.28-2.36-3.17C93.89,43.59,107.11,53.35,110.09,65.88Zm-12-2.28c-.27-.64.13-1.57.29-2.79C97,62.7,95.62,63,93.94,61.43c1,1.68,1.24,3.12-.87,4.25,2-.31,3.34.24,3.7,2.4.27-2,1-3.33,3.22-3.06C99.34,64.56,98.39,64.23,98.12,63.6Z"/><path class="cls-3" d="M80.1,101.41c3.27-3.66,8.66-6.11,11.73-5.66-3.64,1.91-4.29,2.36-5.32,3.93a11.36,11.36,0,0,0-.63,11.88,13.11,13.11,0,0,1,1.56,7.28c-.6,5.58-3.36,9.55-8.67,11.68a7.26,7.26,0,0,0-4.68,7.24,32.76,32.76,0,0,0,.57,3.85c-8.17-4.26-16-17.57-10-31.68a24.7,24.7,0,0,1,11-12.21,25,25,0,0,1,16-3,19.14,19.14,0,0,0-12.1,6.2c-3.06,3.18-6,9.82-5,12.49A21.61,21.61,0,0,1,80.1,101.41Zm-7.82,14.74c.77,1.75,1.37,3.31-1.24,4.26,2.84.33,2.84.33,4.21,2.55,0-2.21,1-3.21,3.19-3-2.15-.78-2.57-2.14-1.69-4.12C75.35,117.26,74,118.16,72.28,116.15Z"/></svg>