<svg id="Camada_1" data-name="Camada 1" xmlns="http://www.w3.org/2000/svg" xmlns:xlink="http://www.w3.org/1999/xlink" viewBox="0 0 192.42 190.07"><defs><style>.cls-1{fill:none;}.cls-2{fill:#002043;}.cls-3{fill:#fff;}.cls-4{clip-path:url(#clip-path);}.cls-5{fill:#069;}.cls-6{fill:#bc2f2f;}</style><clipPath id="clip-path"><circle class="cls-1" cx="96.21" cy="95.04" r="70.4"/></clipPath></defs><title>dutch</title><circle class="cls-2" cx="96.21" cy="95.04" r="79.76"/><path class="cls-2" d="M189,95A92.83,92.83,0,1,1,96.22,2.21,92.92,92.92,0,0,1,189,95ZM29.51,95A66.7,66.7,0,1,0,96.22,28.33,66.78,66.78,0,0,0,29.51,95Z"/><circle class="cls-3" cx="96.21" cy="95.04" r="79.76"/><g class="cls-4"><rect class="cls-5" x="73.99" y="57.35" width="50.08" height="172.98" transform="translate(-44.81 242.87) rotate(-90)"/><rect class="cls-3" x="73.99" y="6.85" width="50.08" height="172.98" transform="translate(5.7 192.36) rotate(-90)"/><rect class="cls-6" x="73.99" y="-43.66" width="50.08" height="172.98" transform="translate(56.2 141.86) rotate(-90)"/></g></svg>