<svg id="Camada_1" data-name="Camada 1" xmlns="http://www.w3.org/2000/svg" xmlns:xlink="http://www.w3.org/1999/xlink" viewBox="0 0 192.42 190.07"><defs><style>.cls-1{fill:none;}.cls-2{fill:#002043;}.cls-3{fill:#fff;}.cls-4{clip-path:url(#clip-path);}.cls-5{fill:#081c2d;}.cls-6{fill:#bc2f2f;}.cls-7{fill:#ffc303;}</style><clipPath id="clip-path"><circle class="cls-1" cx="96.21" cy="95.04" r="70.4"/></clipPath></defs><title>german</title><circle class="cls-2" cx="96.21" cy="95.04" r="79.76"/><path class="cls-2" d="M96.2,187.86A92.83,92.83,0,1,1,189,95,92.92,92.92,0,0,1,96.2,187.86Zm0-159.53A66.71,66.71,0,1,0,162.91,95,66.77,66.77,0,0,0,96.2,28.33Z"/><circle class="cls-3" cx="96.21" cy="95.04" r="79.76"/><g class="cls-4"><rect class="cls-5" x="68.35" y="-40.25" width="50.08" height="172.98" transform="translate(139.62 -47.15) rotate(90)"/><rect class="cls-6" x="68.35" y="10.25" width="50.08" height="172.98" transform="translate(190.13 3.35) rotate(90)"/><rect class="cls-7" x="68.35" y="60.76" width="50.08" height="172.98" transform="translate(240.64 53.86) rotate(90)"/></g></svg>