<?xml version="1.0" encoding="utf-8"?>
<!-- Generator: Adobe Illustrator 24.2.1, SVG Export Plug-In . SVG Version: 6.00 Build 0)  -->
<svg version="1.1" id="Camada_1" xmlns="http://www.w3.org/2000/svg" xmlns:xlink="http://www.w3.org/1999/xlink" x="0px" y="0px"
	 viewBox="0 0 192.4 190.1" style="enable-background:new 0 0 192.4 190.1;" xml:space="preserve">
<style type="text/css">
	.st0{fill:#002043;}
	.st1{fill:#FFFFFF;}
	.st2{clip-path:url(#SVGID_2_);}
	.st3{fill:#3F8214;}
	.st4{fill:#BC2F2F;}
</style>
<circle class="st0" cx="96.2" cy="95" r="79.8"/>
<path class="st0" d="M96.2,187.9c-51.3,0-92.8-41.5-92.9-92.8S44.9,2.2,96.1,2.2S189,43.7,189,95C189,146.2,147.4,187.8,96.2,187.9z
	 M96.2,28.3c-36.8,0-66.7,29.9-66.7,66.7c0,36.8,29.9,66.7,66.7,66.7s66.7-29.9,66.7-66.7c0,0,0,0,0,0
	C162.9,58.2,133,28.4,96.2,28.3z"/>
<circle class="st1" cx="96.2" cy="95" r="79.8"/>
<g>
	<defs>
		<circle id="SVGID_1_" cx="96.2" cy="95" r="70.4"/>
	</defs>
	<clipPath id="SVGID_2_">
		<use xlink:href="#SVGID_1_"  style="overflow:visible;"/>
	</clipPath>
	<g class="st2">
		<rect x="19.4" y="11.4" class="st3" width="50.1" height="173"/>
		<rect x="121.4" y="11.4" class="st4" width="50.1" height="173"/>
	</g>
</g>
</svg>
