<svg id="Camada_1" data-name="Camada 1" xmlns="http://www.w3.org/2000/svg" xmlns:xlink="http://www.w3.org/1999/xlink" viewBox="0 0 192.42 190.07"><defs><style>.cls-1{fill:none;}.cls-2{fill:#002043;}.cls-3{fill:#fff;}.cls-4{clip-path:url(#clip-path);}.cls-5{fill:#fcfcfc;}.cls-6{fill:#bc2f2f;}.cls-7{fill:#069;}</style><clipPath id="clip-path"><circle class="cls-1" cx="96.21" cy="95.03" r="35.87"/></clipPath></defs><title>korean</title><path class="cls-2" d="M96.89,2.21A92.83,92.83,0,1,1,3.39,94.36,92.91,92.91,0,0,1,96.89,2.21Z"/><circle class="cls-3" cx="96.21" cy="95.03" r="79.76"/><g class="cls-4"><path class="cls-5" d="M136.19,99.57a40.72,40.72,0,0,1,5.42,10.78L141.75,90l-15.37-.11A35,35,0,0,1,136.19,99.57Z"/><path class="cls-5" d="M63.9,108.81a17.45,17.45,0,0,0,16.57-3.21c3.65-3.06,6.46-7,9.91-10.24a38.74,38.74,0,0,1,7.75-5.66l-44.51-.33-.09,12.41A20.08,20.08,0,0,0,63.9,108.81Z"/><path class="cls-5" d="M140,127.52a35.19,35.19,0,0,0-2.13-17.79c-2.42-6.1-6.66-12.48-12.14-16.22a23,23,0,0,0-9.13-3.68l-7.78-.06a29.76,29.76,0,0,0-15.34,7.52c-3.48,3.17-6.28,7-9.79,10.16a21.07,21.07,0,0,1-12.4,5.62,23.45,23.45,0,0,1-17.75-6.2l-.26,36,81.13.58A45.49,45.49,0,0,0,140,127.52Z"/><path class="cls-6" d="M141.78,110.86,142,59.49l-88.13-.63-.16,53.62C56.14,115.74,140.53,106.9,141.78,110.86Z"/><path class="cls-7" d="M137.2,117.75a31.29,31.29,0,0,0-1.89-15.82c-2.15-5.43-5.92-11.11-10.8-14.44-9.2-6.28-20.83-3.82-28.71,3.36-3.1,2.83-5.59,6.24-8.7,9a18.79,18.79,0,0,1-11,5c-5.63.51-15.65-2.64-15.64-13.42l-.07,61.4,76.33,1.62C136.85,153.64,137.08,118.62,137.2,117.75Z"/></g><polygon class="cls-2" points="153.78 73.26 149.92 76.15 128.56 49.14 132.42 46.24 153.78 73.26"/><polygon class="cls-2" points="134.47 63.42 125.36 51.89 121.5 54.78 130.69 66.41 134.47 63.42"/><polygon class="cls-2" points="133.68 70.19 142.85 81.79 146.71 78.9 137.46 67.2 133.68 70.19"/><polygon class="cls-2" points="148.62 52.23 139.81 41.09 135.95 43.98 144.84 55.22 148.62 52.23"/><polygon class="cls-2" points="151.61 56.02 147.83 59.01 157.31 70.99 161.16 68.1 151.61 56.02"/><polygon class="cls-2" points="68.04 53.49 71.55 56.8 48.56 82.44 45.05 79.13 68.04 53.49"/><polygon class="cls-2" points="61.28 47.49 64.79 50.8 41.8 76.44 38.29 73.13 61.28 47.49"/><polygon class="cls-2" points="54.94 41.09 58.45 44.4 35.46 70.04 31.95 66.72 54.94 41.09"/><polygon class="cls-2" points="71.7 142.29 75.21 138.97 52.22 113.33 48.71 116.65 71.7 142.29"/><polygon class="cls-2" points="58.6 154.69 62.11 151.38 39.12 125.74 35.61 129.05 58.6 154.69"/><polygon class="cls-2" points="55.05 137.25 64.94 148.29 68.45 144.98 58.57 133.96 55.05 137.25"/><polygon class="cls-2" points="55.35 130.37 45.46 119.34 41.95 122.65 51.83 133.66 55.35 130.37"/><polygon class="cls-2" points="151.1 135.86 160 125.94 156.49 122.63 147.58 132.56 151.1 135.86"/><polygon class="cls-2" points="144.36 136.16 133.5 148.27 137.01 151.58 147.88 139.46 144.36 136.16"/><polygon class="cls-2" points="137.8 130 127.16 141.87 130.67 145.18 141.32 133.3 137.8 130"/><polygon class="cls-2" points="144.54 129.71 153.66 119.54 150.15 116.23 141.02 126.41 144.54 129.71"/><polygon class="cls-2" points="137.94 123.53 146.9 113.54 143.39 110.23 134.42 120.23 137.94 123.53"/><polygon class="cls-2" points="131.2 123.82 120.4 135.87 123.91 139.18 134.72 127.12 131.2 123.82"/></svg>