<svg id="Camada_1" data-name="Camada 1" xmlns="http://www.w3.org/2000/svg" xmlns:xlink="http://www.w3.org/1999/xlink" viewBox="0 0 192.42 190.07"><defs><style>.cls-1{fill:none;}.cls-2{fill:#002043;}.cls-3{fill:#fff;}.cls-4{clip-path:url(#clip-path);}.cls-5{fill:#bc2f2f;}.cls-6{fill:#ffc303;}</style><clipPath id="clip-path"><circle class="cls-1" cx="96.21" cy="95.04" r="70.4"/></clipPath></defs><title>spanish</title><circle class="cls-2" cx="96.21" cy="95.04" r="79.76"/><path class="cls-2" d="M96.2,187.86A92.83,92.83,0,1,1,189,95,92.92,92.92,0,0,1,96.2,187.86Zm0-159.53A66.71,66.71,0,1,0,162.91,95,66.77,66.77,0,0,0,96.2,28.33Z"/><circle class="cls-3" cx="96.21" cy="95.04" r="79.76"/><g class="cls-4"><rect class="cls-5" x="68.35" y="-40.25" width="50.08" height="172.98" transform="translate(139.62 -47.15) rotate(90)"/><rect class="cls-6" x="68.35" y="10.25" width="50.08" height="172.98" transform="translate(190.13 3.35) rotate(90)"/><rect class="cls-5" x="68.35" y="60.76" width="50.08" height="172.98" transform="translate(240.64 53.86) rotate(90)"/></g><path class="cls-2" d="M53.2,85.09H61s4.19-2.65,2.38-5.45c-1.29-2-4.51-1.54-6.29-1.11-1.79-.43-5-.86-6.29,1.11C49,82.44,53.2,85.09,53.2,85.09Z"/><path class="cls-2" d="M75.89,102.55V97.21A4.21,4.21,0,0,0,77.48,95a3.17,3.17,0,0,0-1.59-3.65V87.9H71.22v1.82a14,14,0,0,0-2.82-.12V86.53H45.83v3a13.32,13.32,0,0,0-2.82.24V87.9H38.35v3.92a3.07,3.07,0,0,0-1.12,2.32,3.69,3.69,0,0,0,1.12,2.54V103c-1.51,1.22-3,2.94-1.47,4.56a1.18,1.18,0,0,0,1.47.27v2.68H43V103c.19-.16.39-.3.56-.46a3.61,3.61,0,0,0-.45-6.13L43,96.35V92.6a10.68,10.68,0,0,1,2.82-.28V103.9a8,8,0,0,0,8,8H60.4a8,8,0,0,0,8-8V92.32a11.1,11.1,0,0,1,2.82.18v4.31a3.51,3.51,0,0,0,0,5.64l0,0v8h4.67v-3.22a1.27,1.27,0,0,0,2.06.27C79.69,105.72,77.39,103.65,75.89,102.55ZM65.66,97.47h-6.8V89.28h6.8ZM55.37,89.28v8.19h-6.8V89.28Zm-6.8,14.62V101h6.8v8.2H53.83A5.27,5.27,0,0,1,48.57,103.9Zm11.83,5.26H58.86V101h6.8v2.94A5.27,5.27,0,0,1,60.4,109.16Z"/></svg>