<?xml version="1.0" encoding="UTF-8"?>
<svg width="70px" height="75px" viewBox="0 0 70 75" version="1.1" xmlns="http://www.w3.org/2000/svg" xmlns:xlink="http://www.w3.org/1999/xlink">
    <!-- Generator: Sketch 60 (88103) - https://sketch.com -->
    <title>Group 12</title>
    <desc>Created with Sketch.</desc>
    <defs>
        <polygon id="path-1" points="0.0931308012 0.692711899 6.75422222 0.692711899 6.75422222 7.90784 0.0931308012 7.90784"></polygon>
    </defs>
    <g id="Welcome" stroke="none" stroke-width="1" fill="none" fill-rule="evenodd">
        <g id="Desktop-HD-Copy" transform="translate(-1054.000000, -389.000000)">
            <g id="Group-12" transform="translate(1054.000000, 389.000000)">
                <path d="M12.9102514,27.9823847 C7.43576935,31.9285847 5.52105295,42.084777 8.19624666,48.3100057 C10.8714404,54.5352344 13.4456083,58.1694913 18.4849637,62.6658016 C23.0597597,66.7491282 27.8930862,70.53655 32.9459647,74 C39.2501306,70.7458485 45.3761094,67.1941884 50.685132,62.4685317 C55.9957455,57.7428751 60.2109853,51.3684911 60.9110062,44.2627651 C61.6110272,37.157039 58.1483099,29.4194078 51.6882302,26.4916337 C45.2281505,23.5630578 36.2941331,27.0024505 34.5591948,33.925341 C32.2491256,28.2093253 22.9293012,20.7603817 12.9102514,27.9823847" id="Fill-1" fill="#71C9FF"></path>
                <path d="M35.334375,30 C35.4921875,29.2959859 35.728125,28.6360829 36,28 C35.6421875,28.3687693 35.309375,28.7631231 35,29.1795324 C35.1226562,29.4556683 35.2375,29.7300397 35.334375,30" id="Fill-3" fill="#5BB4D8"></path>
                <path d="M52.8653616,56.6687086 C48.551347,61.3966094 41.0873028,65.7526889 32.6526053,68.9933044 C27.5788447,65.533122 23.5228721,62.5489351 18.9292454,58.4693176 C13.8682671,53.9754078 11.282255,50.3429375 8.59638143,44.1229432 C6.6119347,39.5280647 7.14878985,32.796816 9.77634432,28 C5.18191873,32.4514388 3.71275708,41.5682741 6.19970663,47.3282997 C8.88558019,53.548294 11.4715923,57.1807643 16.5325706,61.6746741 C21.1261973,65.7542916 25.9810615,69.5398177 31.0548221,73 C37.3868369,69.7481658 43.5383022,66.1990348 48.8709036,61.4767434 C51.1884882,59.4245139 53.2967631,57.0605634 55,54.4618206 C53.8479983,55.8240972 54.0581068,55.3617245 52.8653616,56.6687086" id="Fill-5" fill="#48A1BC"></path>
                <path d="M20.9286358,26.1867286 C18.3880486,26.1867286 15.8609457,27.0829126 13.3838137,28.8664944 C8.82852419,32.1469111 6.72577782,41.388309 9.21639404,47.179159 C11.8006067,53.186467 14.2872569,56.6529897 19.0709851,60.9174515 C23.3312079,64.7146516 27.8634949,68.2874064 32.5544199,71.5462572 C37.8822763,68.7690454 43.9025875,65.3208937 49.0781514,60.7185657 C54.7193179,55.704089 58.1522437,49.632882 58.7455497,43.6247752 C59.4205543,36.7787924 55.9432098,30.0134821 50.4773384,27.538992 C47.5988523,26.2346529 43.8875169,26.3616523 40.7932831,27.8664745 C38.0758146,29.1899833 36.226889,31.3250098 35.5859916,33.8777762 C35.4178353,34.5471186 34.8419795,35.0319525 34.1582498,35.0798768 C33.4816588,35.1285998 32.8367955,34.7284321 32.5782156,34.0894418 C31.481234,31.3769277 28.3544795,27.8904367 24.083152,26.6468017 C23.0313822,26.3400863 21.978026,26.1867286 20.9286358,26.1867286 L20.9286358,26.1867286 Z M32.4394073,75 C32.1260973,75 31.8143737,74.9073464 31.5470687,74.7236367 C26.4682739,71.2459317 21.5631877,67.4055997 16.9682387,63.3096716 C11.789502,58.6937651 9.09900194,54.9436905 6.30538718,48.4491523 C3.50859967,41.9482243 5.18460988,30.8425721 11.538854,26.2674012 C16.931752,22.3831386 21.8162153,22.6603007 24.9651791,23.5772518 C28.8375321,24.7050698 31.9135224,27.2642261 33.8489058,29.9296146 C35.1108708,27.8744619 37.0311835,26.1499867 39.4123396,24.9902192 C43.3886004,23.0556759 48.0105179,22.9190918 51.7781698,24.6243973 C58.4496899,27.6460229 62.7083263,35.7691876 61.9024454,43.9410754 C61.2306136,50.75431 57.4217158,57.5635509 51.177725,63.1139808 C45.4651715,68.1931553 38.8650385,71.8841233 33.1620033,74.8250764 C32.9343578,74.9424909 32.6860894,75 32.4394073,75 L32.4394073,75 Z" id="Fill-7" fill="#012442"></path>
                <path d="M27.4965602,18 C26.7618309,18 26.1194119,17.4285801 26.0120919,16.6376271 L24.0150393,1.80765559 C23.8987134,0.941411525 24.4698359,0.138570505 25.2908715,0.0157271105 C26.1066536,-0.106323746 26.8706519,0.495212616 26.9877283,1.36145668 L28.9847809,16.1914282 C29.1018573,17.0584648 28.5307347,17.8605133 27.7096992,17.9833567 C27.6384027,17.9944522 27.5671062,18 27.4965602,18" id="Fill-9" fill="#012442"></path>
                <path d="M15.4333197,18 C14.7818657,18 14.1742596,17.5734464 13.9511053,16.8956909 L11.0845511,8.15990485 C10.805021,7.30679755 11.2411506,6.37947156 12.0601661,6.08830587 C12.8783986,5.7963246 13.7686668,6.25223949 14.048197,7.1045312 L16.9155341,15.8411329 C17.1950642,16.6934246 16.7581516,17.6207506 15.9391361,17.9119163 C15.7723576,17.9714543 15.6008811,18 15.4333197,18" id="Fill-11" fill="#012442"></path>
                <path d="M4.43508018,24 C3.9189995,24 3.41388261,23.7323184 3.1147281,23.2414316 L0.247700248,18.5368251 C-0.219043429,17.770844 -0.0068160185,16.7520068 0.721492068,16.26112 C1.44901703,15.7694096 2.41774509,15.9926148 2.8852719,16.7585959 L5.75229975,21.4632024 C6.21904343,22.2291835 6.00681602,23.2480207 5.27850793,23.7389075 C5.01694352,23.9151655 4.72405403,24 4.43508018,24" id="Fill-13" fill="#012442"></path>
                <path d="M42.6416882,18 C42.4759911,18 42.3078332,17.9746413 42.1421362,17.9222879 C41.2783789,17.6466143 40.8026151,16.7263391 41.07823,15.8657795 L45.7964942,1.138104 C46.0721091,0.278362444 46.9941065,-0.196908578 47.8578638,0.0779469529 C48.7216211,0.352802484 49.1973849,1.27389572 48.92177,2.1344553 L44.2035058,16.8613128 C43.9812093,17.5566319 43.3364673,18 42.6416882,18" id="Fill-15" fill="#012442"></path>
                <path d="M55.4881387,20 C55.2483832,20 55.0049048,19.9384949 54.7792964,19.808388 C54.056307,19.3928344 53.7882574,18.4355629 54.1806522,17.6699034 L58.2021411,9.82563904 C58.5937914,9.05997954 59.4992034,8.77532138 60.2207036,9.19166351 C60.943693,9.60721712 61.2117426,10.5644886 60.8193478,11.3301481 L56.7986035,19.175201 C56.5283201,19.7011484 56.0167921,20 55.4881387,20" id="Fill-17" fill="#012442"></path>
                <g id="Group-21" transform="translate(63.000000, 20.000000)">
                    <mask id="mask-2" fill="white">
                        <use xlink:href="#path-1"></use>
                    </mask>
                    <g id="Clip-20"></g>
                    <path d="M1.64811111,7.90784 C1.27555556,7.90784 0.900666667,7.77024 0.602,7.49104 C-0.0334444444,6.89664 -0.0801111111,5.88544 0.497777778,5.23104 L4.04833333,1.21584 C4.62544444,0.56304 5.60933333,0.51424 6.24555556,1.10864 C6.88177778,1.70384 6.92766667,2.71504 6.34977778,3.36944 L2.79922222,7.38464 C2.49277778,7.73184 2.07122222,7.90784 1.64811111,7.90784" id="Fill-19" fill="#012442" mask="url(#mask-2)"></path>
                </g>
                <path d="M54.1423593,51 C54.020555,51 53.8957057,50.9786178 53.7739014,50.9333862 C53.1762991,50.7129851 52.8580855,50.0123069 53.0613464,49.3675514 C53.3277932,48.5270666 53.5599826,47.7022072 53.7541082,46.9160002 C53.9162601,46.2580864 54.5389845,45.8666277 55.1518123,46.0417972 C55.7608336,46.2169668 56.1239626,46.8929732 55.9610494,47.5517094 C55.7532209,48.3921942 55.5050447,49.2705091 55.2233723,50.1644495 C55.0612203,50.6767999 54.617396,51 54.1423593,51" id="Fill-22" fill="#FFFFFF"></path>
                <path d="M55.8126938,44 C55.1580942,44 54.6269741,43.4824733 54.6253911,42.8419469 C54.6174757,39.2734107 53.1927125,35.7698554 50.995411,33.9163516 C49.4392529,32.6043557 47.5403601,32.0961119 45.3580977,32.4078657 C44.710622,32.5006956 44.1066807,32.0613007 44.012488,31.426963 C43.9182953,30.7926254 44.3670958,30.2039291 45.0161546,30.1110992 C47.8775541,29.7057419 50.477747,30.4143435 52.5468198,32.1595457 C55.819026,34.9196882 56.9928726,39.4853723 57,42.8373054 C57.0015795,43.4778318 56.471251,43.9984528 55.8150684,44 L55.8126938,44 Z" id="Fill-24" fill="#FFFFFF"></path>
            </g>
        </g>
    </g>
</svg>