<?xml version="1.0" encoding="UTF-8"?>
<svg width="69px" height="62px" viewBox="0 0 69 62" version="1.1" xmlns="http://www.w3.org/2000/svg" xmlns:xlink="http://www.w3.org/1999/xlink">
    <!-- Generator: Sketch 60 (88103) - https://sketch.com -->
    <title>Group 7</title>
    <desc>Created with Sketch.</desc>
    <g id="Welcome" stroke="none" stroke-width="1" fill="none" fill-rule="evenodd">
        <g id="Desktop-HD-Copy" transform="translate(-822.000000, -402.000000)">
            <g id="Group-7" transform="translate(822.000000, 402.000000)">
                <path d="M17.955226,21.6294541 C18.2079831,20.4500651 17.3451765,17.7590873 16.5081136,16.9047455 C13.9181335,14.2614519 10.6385322,11.8470424 6.97667475,12.0075792 C6.34712236,12.035395 5.70820859,12.1450686 5.15822787,12.4566053 C4.0294022,13.0963682 3.4856624,14.4641097 3.33744065,15.7706566 C3.00745222,18.6690606 2.17897063,25.2979578 5.50771917,24.9896 C6.35570362,24.9109211 17.9232413,21.7788645 17.955226,21.6294541" id="Fill-45" fill="#71C9FF"></path>
                <path d="M48.0737445,2.96545305 C47.1364029,2.13489648 45.8475582,1.81058391 44.6280576,2.10879327 L8,11.0843413 C24.2767455,12.5809251 29.6186362,51.8828619 28.2046532,61 L66.936947,53.036149 C66.936947,53.036149 69.1009627,21.5952324 48.0737445,2.96545305" id="Fill-47" fill="#71C9FF"></path>
                <path d="M29.608433,22 C28.8839614,22 28.2246923,21.4934491 28.0459893,20.7381678 C27.8358925,19.8506708 28.3655618,18.9565631 29.2284879,18.7408865 L48.008402,14.0464078 C48.8721331,13.8332102 49.7447189,14.3744677 49.9540107,15.2619646 C50.1641075,16.1486352 49.6344382,17.0427429 48.7715121,17.2584195 L29.991598,21.9528982 C29.8628031,21.9842994 29.7348131,22 29.608433,22" id="Fill-49" fill="#012442"></path>
                <path d="M33.6242402,34 C32.8861392,34 32.2179463,33.4847239 32.0431757,32.7213211 C31.8383283,31.8313739 32.3821494,30.9422537 33.2560026,30.7346545 L53.0042706,26.0434084 C53.8805624,25.8366363 54.7536026,26.3883043 54.9568243,27.2782516 C55.1616717,28.1681988 54.6178506,29.057319 53.7439974,29.2649182 L33.9957294,33.9561643 C33.8713578,33.9859395 33.7461732,34 33.6242402,34" id="Fill-51" fill="#012442"></path>
                <path d="M16.4478132,17.1006211 C13.7543552,14.3517651 10.3426959,11.8409339 6.53257684,12.0078819 C5.87848611,12.0368085 5.21303401,12.1500356 4.6409075,12.4748403 C3.81233848,12.9442781 3.29133818,13.7938945 3,14.7302907 C4.55001649,14.720373 6.10003297,14.9493066 7.55347775,15.5212273 C11.0186979,16.8832582 13.2690621,19.6841821 14.6713807,23 C16.5443849,22.4776678 17.9426458,22.0669097 17.9531957,22.0140153 C18.2169419,20.7875263 17.3185816,17.9890818 16.4478132,17.1006211" id="Fill-53" fill="#48A1BC"></path>
                <path d="M37.6242402,47 C36.8861392,47 36.2179463,46.4847406 36.0431757,45.7213626 C35.8383283,44.8314442 36.3821494,43.9423529 37.2560026,43.7347604 L57.0042706,39.0436664 C57.883001,38.836074 58.7527897,39.3885512 58.9568243,40.2784696 C59.1616717,41.1683879 58.6178506,42.0574793 57.7439974,42.2650718 L37.9957294,46.9561657 C37.8713578,46.98594 37.7461732,47 37.6242402,47" id="Fill-55" fill="#012442"></path>
                <path d="M6.28161879,13.1081198 C5.21254911,13.2855398 4.44915534,13.7449309 3.96039228,14.501342 C2.45987377,16.8212668 3.44376813,21.4428991 4.28198882,24.1002387 L17.8654625,21.1046922 C16.7144016,19.1831704 15.5052305,17.5760938 14.2570538,16.3246492 C11.9390114,14.0023483 9.48007151,12.8966415 6.9614293,13.0352509 C6.88501032,13.0392112 6.80938737,13.0439635 6.73535649,13.051092 L6.29594735,13.1627715 L6.28161879,13.1081198 Z M13.1131572,11.4329266 C14.2841188,12.1053801 15.4192591,12.99248 16.5161899,14.0918503 C22.1298008,19.7185986 25.5583065,29.6612465 27.4456961,37.0122953 C29.4373657,44.7712517 30.6051433,53.3262218 30.4236482,58.6868401 L65.8000637,51.3944033 C66.0094198,42.157475 64.6450226,19.0081266 47.4372196,3.73099811 C46.8919384,3.24626136 46.1484454,3.05933672 45.447938,3.22725207 L13.1131572,11.4329266 Z M29.7820472,62 C29.1659191,62 28.571284,61.7813932 28.0936653,61.3695254 C27.4807214,60.8396416 27.1583289,60.0721417 27.2084788,59.2634551 C27.468781,55.1146787 26.6902626,46.8678173 24.3602798,37.7964283 C22.98235,32.4310577 21.2907841,27.7262597 19.3930461,23.9085617 L19.4145389,24.0075684 L2.25927395,27.7912081 L1.76175455,26.5294669 C1.39956042,25.6091007 -1.69540826,17.4002579 1.28015577,12.7912984 C2.02444479,11.6380685 3.46764907,10.2472225 6.17097048,9.9248567 L44.6797681,0.153292329 C46.4167078,-0.267288094 48.2332507,0.190518845 49.5578463,1.36751039 C67.7551159,17.5230262 69.2030964,41.7899622 68.9810037,51.4728166 C68.9483664,52.9515805 67.9055658,54.1958966 66.4456448,54.4968769 L30.316184,61.9445563 C30.1386691,61.9817828 29.9595621,62 29.7820472,62 L29.7820472,62 Z" id="Fill-57" fill="#012442"></path>
                <path d="M59.8337822,34 C59.2803371,34 58.7897659,33.562878 58.6888573,32.9418397 C58.5095504,31.8306431 58.28988,30.7057597 58.036056,29.5979848 C57.877707,28.9102234 58.2557263,28.2130523 58.8798075,28.0394011 C59.5038886,27.8657499 60.135732,28.2823417 60.2933047,28.9692477 C60.5611007,30.1360469 60.7916381,31.32081 60.9818121,32.4910309 C61.0943641,33.1890574 60.6728764,33.8554332 60.0402569,33.9794698 C59.970397,33.9931566 59.9020896,34 59.8337822,34" id="Fill-59" fill="#FFFFFF"></path>
                <path d="M57.8279927,27 C57.3391214,27 56.8838307,26.6887068 56.7182704,26.1961542 C54.7112429,20.2122311 51.4554849,14.6034361 47.3024216,9.97501777 C46.8689974,9.49113409 46.9057018,8.7440303 47.3852018,8.3058555 C47.8639208,7.86768071 48.6042563,7.90472066 49.0400233,8.38860434 C53.4062845,13.254236 56.8291646,19.1498936 58.9377149,25.4388053 C59.1454462,26.0566633 58.8166685,26.728111 58.2028461,26.9369533 C58.0786759,26.9795098 57.9521629,27 57.8279927,27" id="Fill-61" fill="#FFFFFF"></path>
            </g>
        </g>
    </g>
</svg>