<?xml version="1.0" encoding="UTF-8"?>
<svg width="30px" height="30px" viewBox="0 0 30 30" version="1.1" xmlns="http://www.w3.org/2000/svg" xmlns:xlink="http://www.w3.org/1999/xlink">
    <!-- Generator: Sketch 60.1 (88133) - https://sketch.com -->
    <title>Group 7</title>
    <desc>Created with Sketch.</desc>
    <defs>
        <polygon id="path-1" points="0 0.328 29.948 0.328 29.948 29.9999 0 29.9999"></polygon>
    </defs>
    <g id="Welcome" stroke="none" stroke-width="1" fill="none" fill-rule="evenodd">
        <g id="Artboard" transform="translate(-928.000000, -865.000000)">
            <g id="Group-7" transform="translate(928.000000, 864.672300)">
                <g id="Group-3">
                    <mask id="mask-2" fill="white">
                        <use xlink:href="#path-1"></use>
                    </mask>
                    <g id="Clip-2"></g>
                    <path d="M24.05,29.9999 C23.41,29.9999 22.774,29.8899 22.155,29.6739 L3.403,20.8969 C1.401,19.9339 0.098,17.9209 0,15.6409 L0.002,14.6869 C0.109,12.3929 1.41,10.3899 3.399,9.4339 L22.106,0.6759 C22.774,0.4379 23.41,0.3279 24.05,0.3279 C27.302,0.3279 29.948,3.0619 29.948,6.4229 C29.948,6.6089 29.938,6.7919 29.923,6.9739 C29.923,7.7759 29.948,23.7519 29.948,23.9049 C29.948,27.2669 27.302,29.9999 24.05,29.9999" id="Fill-1" fill="#01193F" mask="url(#mask-2)"></path>
                </g>
                <path d="M22.6653,25.5692 C22.7023,25.5832 22.7353,25.5942 22.7683,25.6082 L22.8863,25.6532 L22.9053,25.6602 C23.2123,25.7672 23.5223,25.8222 23.8313,25.8222 C25.4193,25.8222 26.7123,24.4922 26.7123,22.8562 L26.7123,5.7872 C26.7123,4.1522 25.4193,2.8222 23.8313,2.8222 C23.5223,2.8222 23.2123,2.8772 22.9053,2.9822 L22.6033,3.0992 L4.3833,11.6352 C3.3683,12.1222 2.7123,13.1752 2.7123,14.3222 C2.7123,15.4672 3.3683,16.5212 4.3833,17.0082 L4.4353,17.0322 C4.5553,17.0872 22.6653,25.5692 22.6653,25.5692" id="Fill-4" fill="#F28E00"></path>
            </g>
        </g>
    </g>
</svg>