<?xml version="1.0" encoding="UTF-8"?>
<svg width="244px" height="171px" viewBox="0 0 244 171" version="1.1" xmlns="http://www.w3.org/2000/svg" xmlns:xlink="http://www.w3.org/1999/xlink">
    <!-- Generator: Sketch 60 (88103) - https://sketch.com -->
    <title>Group 2 Copy</title>
    <desc>Created with Sketch.</desc>
    <g id="Page-1" stroke="none" stroke-width="1" fill="none" fill-rule="evenodd">
        <g id="Group-2-Copy" transform="translate(3.000000, 3.000000)">
            <path d="M179.291189,23.4998445 L217.2589,23.5 C229.543464,23.5 239.5,33.4904572 239.5,45.8117647 C239.5,53.665928 235.283006,60.1613795 227.020827,65.1991831 L226.581785,65.4631683 C226.344276,65.6040423 226.265937,65.9107827 226.406811,66.1482923 C226.451368,66.2234137 226.514825,66.2855533 226.590865,66.328524 C235.138323,71.1587588 239.5,77.882148 239.5,86.3588235 C239.5,94.6736629 235.598904,101.225976 227.92006,105.866024 L227.512976,106.108005 C227.274622,106.247458 227.194447,106.553732 227.3339,106.792086 C227.372383,106.857861 227.425391,106.91397 227.488875,106.956126 C235.440091,112.236109 239.5,118.673637 239.5,126.188235 C239.5,138.509543 229.543464,148.5 217.258961,148.5 L171.464701,148.501886 C156.767258,160.089824 138.621657,166.5 119.5,166.5 C100.378344,166.5 82.2327422,160.089824 67.5352991,148.501886 L20.7411003,148.5 C8.45653558,148.5 -1.5,138.509543 -1.5,126.188235 C-1.5,117.929587 2.29901546,111.490821 9.78106395,107.031259 L10.1846736,106.794784 C10.4239434,106.65695 10.506173,106.351246 10.3683386,106.111976 C10.3257777,106.038094 10.2650295,105.976324 10.1918677,105.932536 C2.44245734,101.294479 -1.5,94.7178551 -1.5,86.3588235 C-1.5,78.0303248 2.71149548,71.3911402 10.9776481,66.5752592 L11.4086209,66.3279944 C11.6490232,66.1921259 11.7337646,65.8870983 11.5978961,65.646696 C11.5549256,65.5706651 11.4927899,65.5072154 11.4176747,65.4626635 C2.86906282,60.3923589 -1.5,53.8077646 -1.5,45.8117647 C-1.5,33.4904572 8.45653558,23.5 20.7410943,23.5 L59.7088114,23.4998445 C75.3834111,7.61483016 96.7185535,-1.5 119.5,-1.5 C142.281447,-1.5 163.616589,7.61483019 179.291189,23.4998445 Z" id="Combined-Shape" stroke="#002043" stroke-width="3" fill="#3FAFFB"></path>
            <path d="M119.5,7 C99.0658247,7 79.8547891,14.905567 65.4065417,29.2600937 C50.9568604,43.6146204 43,62.7000937 43,83 C43,103.300619 50.9568604,122.386092 65.4065417,136.740619 C79.8547891,151.095145 99.0658247,159 119.5,159 C139.934175,159 159.145211,151.095145 173.593458,136.740619 C188.043857,122.386092 196,103.300619 196,83 C196,62.7000937 188.043857,43.6146204 173.593458,29.2600937 C159.145211,14.905567 139.934175,7 119.5,7 M120,9 C161.421203,9 195,42.3549379 195,83.5 C195,124.645774 161.421203,158 120,158 C78.5780802,158 45,124.645774 45,83.5 C45,42.3549379 78.5780802,9 120,9" id="Fill-14"></path>
        </g>
    </g>
</svg>