<?xml version="1.0" encoding="UTF-8"?>
<svg width="43px" height="39px" viewBox="0 0 43 39" version="1.1" xmlns="http://www.w3.org/2000/svg" xmlns:xlink="http://www.w3.org/1999/xlink">
    <!-- Generator: Sketch 61.1 (89650) - https://sketch.com -->
    <title>Group 24</title>
    <desc>Created with Sketch.</desc>
    <defs>
        <polygon id="path-1" points="0 0.959 42.0678 0.959 42.0678 39.9999 0 39.9999"></polygon>
        <path d="M5.812,0.088 C2.781,0.088 0.315,2.553 0.315,5.584 L0.315,5.584 L0.315,7.178 C0.315,4.148 2.781,1.682 5.812,1.682 L5.812,1.682 L15.534,1.682 C18.565,1.682 21.03,4.148 21.03,7.178 L21.03,7.178 L21.03,5.584 C21.03,2.553 18.565,0.088 15.534,0.088 L15.534,0.088 L5.812,0.088 Z" id="path-3"></path>
        <path d="M3.982,0.758 L0.365,10.288 L2.488,10.288 L3.235,8.166 L6.799,8.166 L7.52,10.288 L8.616,10.288 C8.628,10.215 8.633,10.142 8.655,10.069 L8.655,10.069 C8.853,9.584 8.916,9.423 9.232,9.051 L9.232,9.051 L6.132,0.758 L3.982,0.758 Z M5.024,3.106 L5.051,3.106 L6.252,6.605 L3.783,6.605 L5.024,3.106 Z" id="path-5"></path>
        <path d="M2.709,2.295 C1.997,2.304 1.152,2.304 0.708,2.295 L0.708,2.295 L0.78,3.75 L0.954,3.75 C1.378,3.75 2.07,3.729 2.69,3.708 L2.69,3.708 C2.69,4.11 2.699,4.977 2.709,5.369 L2.709,5.369 C1.254,5.976 0.212,7.102 0.212,8.537 L0.212,8.537 C0.212,9.507 0.831,10.136 1.842,10.136 L1.842,10.136 C3.056,10.11 4.257,9.339 4.649,8.991 L4.649,8.991 C5.04,8.643 6.092,7.432 6.558,6.474 L6.558,6.474 C7.146,6.751 7.425,7.217 7.425,7.731 L7.425,7.731 C7.425,8.846 6.352,9.493 4.638,9.69 L4.638,9.69 L5.47,10.84 C8.153,10.488 9.065,9.361 9.065,7.711 L9.065,7.711 C9.065,6.318 8.188,5.471 7.063,5.101 L7.063,5.101 C7.084,4.998 7.122,4.892 7.143,4.788 L7.143,4.788 L5.618,4.517 C5.608,4.671 5.578,4.698 5.547,4.854 L5.547,4.854 C5,4.823 4.391,4.904 4.195,4.947 L4.195,4.947 C4.195,4.667 4.206,3.923 4.216,3.656 L4.216,3.656 C5.486,3.605 6.733,3.502 7.889,3.326 L7.889,3.326 L7.755,1.82 C6.568,2.058 5.423,2.182 4.299,2.244 L4.299,2.244 C4.329,1.944 4.371,1.097 4.371,1.097 L4.371,1.097 L2.761,0.974 C2.739,1.387 2.73,1.872 2.709,2.295 L2.709,2.295 Z M4.215,6.298 C4.329,6.278 4.782,6.204 5.061,6.204 L5.061,6.204 C4.845,6.637 4.587,7.031 4.298,7.36 L4.298,7.36 C4.256,7.019 4.236,6.669 4.215,6.298 L4.215,6.298 Z M1.717,8.217 C1.718,7.669 2.141,7.164 2.79,6.803 L2.79,6.803 C2.843,7.382 2.905,7.937 2.997,8.443 L2.997,8.443 C2.729,8.578 2.471,8.66 2.233,8.671 L2.233,8.671 C2.217,8.672 2.201,8.672 2.186,8.672 L2.186,8.672 C1.717,8.672 1.717,8.358 1.717,8.217 L1.717,8.217 Z" id="path-7"></path>
    </defs>
    <g id="Welcome" stroke="none" stroke-width="1" fill="none" fill-rule="evenodd">
        <g id="Desktop-HD-Copy-13" transform="translate(-266.000000, -4.000000)">
            <g id="Group-24" transform="translate(266.000000, 3.000000)">
                <g id="Group-12" transform="translate(0.000000, 0.040700)">
                    <g id="Group-3">
                        <mask id="mask-2" fill="white">
                            <use xlink:href="#path-1"></use>
                        </mask>
                        <g id="Clip-2"></g>
                        <path d="M32.5338,11.0509 L28.7878,11.0509 L28.7878,10.4929 C28.7878,6.6599 26.1078,0.9589 18.7238,0.9589 L9.5328,0.9589 C4.2758,0.9589 -0.0002,5.2369 -0.0002,10.4929 L-0.0002,15.4349 C-0.0002,18.7589 1.8298,21.9379 4.6968,23.6449 L4.5798,29.9069 L9.4298,29.0199 C9.5198,29.0029 11.4018,28.6519 13.4298,27.2329 C14.2378,31.7059 18.1508,35.0599 22.8118,35.0599 L25.6958,35.0599 C28.3498,38.3929 31.9458,39.0829 32.1008,39.1109 L36.9548,39.9999 L36.8398,33.7779 C39.4308,32.3439 42.0678,29.4899 42.0678,25.5269 L42.0678,20.5839 C42.0678,15.3269 37.7908,11.0509 32.5338,11.0509" id="Fill-1" fill="#FFFFFF" mask="url(#mask-2)"></path>
                    </g>
                    <path d="M32.5343,12.963 L26.8763,12.963 L26.8763,10.493 C26.8763,8.093 25.2823,2.871 18.7233,2.871 L9.5323,2.871 C5.3303,2.871 1.9113,6.29 1.9113,10.493 L1.9113,15.435 C1.9113,18.501 3.8003,21.309 6.6313,22.481 L6.5353,27.606 L9.0893,27.138 C9.2343,27.111 12.6323,26.461 14.8663,23.056 L15.1903,23.056 L15.1903,25.526 C15.1903,29.729 18.6093,33.148 22.8113,33.148 L26.6693,33.148 C28.8983,36.543 32.2993,37.203 32.4453,37.231 L35.0003,37.697 L34.9053,32.582 C37.5473,31.536 40.1553,28.982 40.1553,25.526 L40.1553,20.585 C40.1553,16.382 36.7363,12.963 32.5343,12.963" id="Fill-4" fill="#292440"></path>
                    <path d="M32.5343,15.088 L22.8123,15.088 C19.7813,15.088 17.3153,17.553 17.3153,20.584 L17.3153,25.526 C17.3153,28.558 19.7803,31.023 22.8113,31.023 L27.9063,31.023 C29.5983,34.549 32.8273,35.14 32.8273,35.14 L32.7503,30.973 C35.4293,30.606 38.0303,28.303 38.0303,25.526 L38.0303,20.584 C38.0303,17.553 35.5653,15.088 32.5343,15.088" id="Fill-6" fill="#FFD400"></path>
                    <path d="M15.4562,20.5851 C15.4562,16.5281 18.7562,13.2301 22.8122,13.2301 L24.7512,13.2301 L24.7512,10.4921 C24.7512,8.6811 23.8672,7.0771 22.5112,6.0741 L22.5022,6.0681 C22.3852,5.9811 22.2652,5.9011 22.1412,5.8231 C22.1142,5.8071 22.0852,5.7901 22.0582,5.7731 C21.9512,5.7101 21.8432,5.6491 21.7312,5.5931 C21.6832,5.5671 21.6332,5.5441 21.5822,5.5211 C21.4862,5.4761 21.3892,5.4311 21.2882,5.3921 C21.2192,5.3631 21.1492,5.3391 21.0792,5.3141 C20.9912,5.2831 20.9042,5.2521 20.8152,5.2261 C20.7272,5.1991 20.6372,5.1791 20.5482,5.1561 C20.4712,5.1381 20.3942,5.1161 20.3152,5.1021 C20.2052,5.0791 20.0922,5.0641 19.9782,5.0491 C19.6692,5.0111 19.8592,5.0221 19.2542,4.9961 L14.1272,4.9961 L9.5332,4.9961 C6.5012,4.9961 4.0372,7.4621 4.0372,10.4921 L4.0372,15.4341 C4.0372,18.2111 6.1072,20.5141 8.7852,20.8801 L8.7072,25.0481 C8.7072,25.0481 11.9372,24.4571 13.6292,20.9311 L14.1272,20.9311 L14.1272,20.9911 C14.1392,20.9701 14.1502,20.9521 14.1612,20.9311 L15.1902,20.9311 L15.4562,20.9311 L15.4562,20.5851 Z" id="Fill-8" fill="#FFD400"></path>
                    <path d="M32.5343,15.088 L22.8123,15.088 C19.7813,15.088 17.3153,17.553 17.3153,20.584 L17.3153,22.178 C17.3153,19.148 19.7813,16.682 22.8123,16.682 L32.5343,16.682 C35.5653,16.682 38.0303,19.148 38.0303,22.178 L38.0303,20.584 C38.0303,17.553 35.5653,15.088 32.5343,15.088" id="Fill-10" fill="#FFD400"></path>
                </g>
                <g id="Group-15" transform="translate(17.000000, 15.040700)">
                    <mask id="mask-4" fill="white">
                        <use xlink:href="#path-3"></use>
                    </mask>
                    <g id="Clip-14"></g>
                    <polygon id="Fill-13" fill="#FFE876" mask="url(#mask-4)" points="-3.939 11.433 25.285 11.433 25.285 -4.167 -3.939 -4.167"></polygon>
                </g>
                <g id="Group-18" transform="translate(9.000000, 8.040700)">
                    <mask id="mask-6" fill="white">
                        <use xlink:href="#path-5"></use>
                    </mask>
                    <g id="Clip-17"></g>
                    <polygon id="Fill-16" fill="#292440" mask="url(#mask-6)" points="-3.889 15.109 13.487 15.109 13.487 -2.931 -3.889 -2.931"></polygon>
                </g>
                <g id="Group-21" transform="translate(23.000000, 18.040700)">
                    <mask id="mask-8" fill="white">
                        <use xlink:href="#path-7"></use>
                    </mask>
                    <g id="Clip-20"></g>
                    <polygon id="Fill-19" fill="#292440" mask="url(#mask-8)" points="-4.043 15.095 13.32 15.095 13.32 -3.28 -4.043 -3.28"></polygon>
                </g>
                <path d="M19.2555,5.0369 L9.5335,5.0369 C6.5025,5.0369 4.0365,7.5019 4.0365,10.5329 L4.0365,12.1269 C4.0365,9.0959 6.5025,6.6309 9.5335,6.6309 L19.2555,6.6309 C22.2865,6.6309 24.7515,9.0959 24.7515,12.1269 L24.7515,10.5329 C24.7515,7.5019 22.2865,5.0369 19.2555,5.0369" id="Fill-22" fill="#FFF188"></path>
            </g>
        </g>
    </g>
</svg>