<?xml version="1.0" encoding="UTF-8"?>
<svg width="57px" height="42px" viewBox="0 0 57 42" version="1.1" xmlns="http://www.w3.org/2000/svg" xmlns:xlink="http://www.w3.org/1999/xlink">
    <!-- Generator: Sketch 61.1 (89650) - https://sketch.com -->
    <title>Group 32</title>
    <desc>Created with Sketch.</desc>
    <defs>
        <polygon id="path-1" points="0.0001 0.519 56.038 0.519 56.038 42 0.0001 42"></polygon>
    </defs>
    <g id="Welcome" stroke="none" stroke-width="1" fill="none" fill-rule="evenodd">
        <g id="Desktop-HD-Copy-13" transform="translate(-239.000000, -99.000000)">
            <g id="Group-32" transform="translate(239.000000, 98.000000)">
                <g id="Group-3" transform="translate(0.000000, 0.481400)">
                    <mask id="mask-2" fill="white">
                        <use xlink:href="#path-1"></use>
                    </mask>
                    <g id="Clip-2"></g>
                    <path d="M56.0381,13.9463 C56.0381,11.4993 54.0471,9.5083 51.6001,9.5083 L49.1151,9.5083 L49.7681,8.0903 C50.4511,6.6063 50.4131,4.9133 49.6631,3.4443 C48.7441,1.6383 46.8991,0.5183 44.8471,0.5183 L37.5021,0.6413 C35.4361,0.6753 33.6101,1.8643 32.7351,3.7413 C32.0921,5.1313 32.0671,6.7223 32.6691,8.1093 L33.2761,9.5083 L4.4381,9.5083 C1.9911,9.5083 0.0001,11.4993 0.0001,13.9463 L0.0001,29.0053 C0.0001,31.4523 1.9911,33.4433 4.4381,33.4433 L33.0681,33.4433 L32.5641,34.7933 C32.0401,36.1983 32.1321,37.7193 32.8221,39.0753 C33.7411,40.8793 35.6091,42.0003 37.6981,42.0003 L44.9821,41.8763 C47.0521,41.8423 48.8771,40.6553 49.7471,38.7803 C50.3401,37.5043 50.4141,36.0813 49.9571,34.7733 L49.4931,33.4433 L51.6001,33.4433 C54.0471,33.4433 56.0381,31.4523 56.0381,29.0053 L56.0381,13.9463 Z" id="Fill-1" fill="#FFFFFF" mask="url(#mask-2)"></path>
                </g>
                <path d="M51.5996,31.9248 L4.4386,31.9248 C3.0916,31.9248 1.9996,30.8328 1.9996,29.4868 L1.9996,14.4278 C1.9996,13.0808 3.0916,11.9888 4.4386,11.9888 L51.5996,11.9888 C52.9466,11.9888 54.0376,13.0808 54.0376,14.4278 L54.0376,29.4868 C54.0376,30.8328 52.9466,31.9248 51.5996,31.9248" id="Fill-4" fill="#051C41"></path>
                <path d="M38.7383,13.1826 L38.7383,13.1836 C39.3783,13.9656 40.3243,14.4146 41.3343,14.4146 L41.3993,14.4136 C42.4343,14.3946 43.3863,13.9096 44.0103,13.0826 L47.5683,8.3726 C48.3483,7.3406 48.4673,5.9846 47.8823,4.8316 C47.3003,3.6896 46.1353,2.9876 44.8363,2.9996 L37.5363,3.1226 C36.2413,3.1446 35.0963,3.8886 34.5513,5.0636 C34.0053,6.2386 34.1753,7.5926 34.9953,8.5956 L38.7383,13.1826 Z" id="Fill-6" fill="#051C41"></path>
                <path d="M47.4922,34.8857 L43.7472,30.2977 C43.0862,29.4887 42.1112,29.0337 41.0872,29.0667 C40.0522,29.0857 39.0992,29.5717 38.4742,30.3977 L34.9172,35.1087 C34.1372,36.1397 34.0172,37.4967 34.6032,38.6487 C35.1792,39.7797 36.3232,40.4817 37.6482,40.4817 L44.9492,40.3577 C46.2452,40.3357 47.3882,39.5927 47.9342,38.4177 C48.4792,37.2427 48.3092,35.8897 47.4922,34.8857" id="Fill-8" fill="#051C41"></path>
                <path d="M36.5654,7.3144 L40.3084,11.9004 C40.8514,12.5664 41.8754,12.5464 42.3934,11.8614 L45.9504,7.1514 C46.6164,6.2694 45.9754,5.0074 44.8704,5.0264 L37.5694,5.1504 C36.4624,5.1684 35.8654,6.4564 36.5654,7.3144" id="Fill-10" fill="#BEF0FC"></path>
                <path d="M45.9199,36.1669 L42.1769,31.5809 C41.6339,30.9149 40.6099,30.9349 40.0919,31.6199 L36.5339,36.3299 C35.8679,37.2109 36.5099,38.4729 37.6149,38.4539 L44.9149,38.3309 C46.0229,38.3119 46.6199,37.0239 45.9199,36.1669" id="Fill-12" fill="#BEF0FC"></path>
                <path d="M34.8623,21.1093 C35.0283,20.8713 35.1113,20.5553 35.1113,20.1613 C35.1113,19.7753 35.0263,19.4633 34.8573,19.2193 C34.6893,18.9763 34.4703,18.8543 34.2033,18.8543 C33.9283,18.8543 33.7113,18.9743 33.5503,19.2123 C33.3863,19.4513 33.3063,19.7663 33.3063,20.1613 C33.3063,20.5643 33.3853,20.8823 33.5443,21.1163 C33.7023,21.3503 33.9223,21.4673 34.2033,21.4673 C34.4773,21.4673 34.6983,21.3473 34.8623,21.1093 M36.3873,18.1813 C36.9293,19.0253 37.2003,20.2253 37.2003,21.7833 C37.2003,22.8103 37.0723,23.7073 36.8153,24.4713 C36.5583,25.2373 36.1963,25.8263 35.7283,26.2393 C35.2603,26.6503 34.7133,26.8573 34.0873,26.8573 C33.6933,26.8573 33.2903,26.7743 32.8793,26.6093 C32.4673,26.4443 32.1133,26.2143 31.8183,25.9213 C31.6983,25.8033 31.6133,25.6793 31.5593,25.5503 C31.5073,25.4223 31.4803,25.2613 31.4803,25.0693 C31.4803,24.7853 31.5423,24.5453 31.6653,24.3473 C31.7883,24.1503 31.9373,24.0523 32.1133,24.0523 C32.2123,24.0523 32.2993,24.0723 32.3783,24.1143 C32.4553,24.1553 32.5603,24.2223 32.6943,24.3133 L32.9263,24.4633 C33.1593,24.6123 33.3513,24.7213 33.5073,24.7943 C33.6613,24.8683 33.8233,24.9053 33.9923,24.9053 C34.3503,24.9053 34.6403,24.6913 34.8623,24.2643 C35.0843,23.8383 35.2163,23.2413 35.2583,22.4713 C35.0963,22.7643 34.8813,22.9963 34.6093,23.1653 C34.3393,23.3353 34.0423,23.4203 33.7173,23.4203 C33.2963,23.4203 32.9163,23.2853 32.5783,23.0133 C32.2403,22.7443 31.9743,22.3683 31.7813,21.8853 C31.5883,21.4053 31.4913,20.8623 31.4913,20.2563 C31.4913,19.6163 31.6013,19.0413 31.8233,18.5313 C32.0453,18.0233 32.3533,17.6263 32.7473,17.3413 C33.1403,17.0573 33.5873,16.9163 34.0873,16.9163 C35.0793,16.9163 35.8453,17.3383 36.3873,18.1813" id="Fill-14" fill="#FFFFFF"></path>
                <path d="M41.4111,24.2314 C41.5581,23.7544 41.6331,22.9704 41.6331,21.8794 C41.6331,20.7984 41.5581,20.0184 41.4111,19.5424 C41.2641,19.0664 41.0211,18.8274 40.6821,18.8274 C40.3461,18.8274 40.1031,19.0634 39.9561,19.5354 C39.8071,20.0074 39.7331,20.7904 39.7331,21.8794 C39.7331,22.9704 39.8071,23.7544 39.9561,24.2314 C40.1031,24.7084 40.3461,24.9464 40.6821,24.9464 C41.0211,24.9464 41.2641,24.7084 41.4111,24.2314 M38.5731,25.5794 C38.0881,24.7254 37.8451,23.4934 37.8451,21.8794 C37.8451,20.2764 38.0881,19.0474 38.5731,18.1944 C39.0581,17.3414 39.7621,16.9164 40.6821,16.9164 C41.5981,16.9164 42.3001,17.3414 42.7891,18.1944 C43.2771,19.0474 43.5221,20.2764 43.5221,21.8794 C43.5221,23.4934 43.2791,24.7254 42.7941,25.5794 C42.3081,26.4314 41.6041,26.8574 40.6821,26.8574 C39.7621,26.8574 39.0581,26.4314 38.5731,25.5794" id="Fill-16" fill="#FFFFFF"></path>
                <path d="M49.8584,24.9834 C49.9124,24.8224 49.9384,24.5464 49.9384,24.1574 C49.9384,23.7814 49.9104,23.5094 49.8544,23.3444 C49.7984,23.1804 49.7144,23.0974 49.6034,23.0974 C49.4874,23.0974 49.4024,23.1774 49.3484,23.3394 C49.2964,23.5024 49.2694,23.7744 49.2694,24.1574 C49.2694,24.5464 49.2964,24.8224 49.3484,24.9834 C49.4024,25.1454 49.4874,25.2264 49.6034,25.2264 C49.7194,25.2264 49.8044,25.1454 49.8584,24.9834 M48.5544,25.7414 C48.3014,25.3714 48.1744,24.8404 48.1744,24.1474 C48.1744,23.4674 48.3014,22.9444 48.5544,22.5784 C48.8084,22.2114 49.1584,22.0284 49.6034,22.0284 C50.0494,22.0284 50.3994,22.2114 50.6524,22.5784 C50.9054,22.9444 51.0324,23.4704 51.0324,24.1574 C51.0324,24.8504 50.9054,25.3794 50.6524,25.7464 C50.3994,26.1124 50.0494,26.2954 49.6034,26.2954 C49.1584,26.2954 48.8084,26.1114 48.5544,25.7414 M46.4844,26.3154 C46.3954,26.3884 46.3054,26.4244 46.2134,26.4244 C46.0924,26.4244 45.9864,26.3654 45.8944,26.2464 C45.8034,26.1274 45.7574,25.9824 45.7574,25.8104 C45.7574,25.6594 45.7934,25.5044 45.8644,25.3444 L48.4714,19.4834 C48.5374,19.3384 48.6144,19.2294 48.7034,19.1564 C48.7924,19.0844 48.8814,19.0474 48.9724,19.0474 C49.0994,19.0474 49.2074,19.1054 49.2964,19.2204 C49.3834,19.3374 49.4284,19.4834 49.4284,19.6624 C49.4284,19.8144 49.3934,19.9684 49.3224,20.1284 L46.7154,25.9884 C46.6504,26.1334 46.5724,26.2424 46.4844,26.3154 M45.8374,22.0824 C45.8914,21.9204 45.9184,21.6454 45.9184,21.2554 C45.9184,20.8794 45.8894,20.6114 45.8344,20.4494 C45.7784,20.2874 45.6954,20.2064 45.5834,20.2064 C45.4664,20.2064 45.3814,20.2874 45.3294,20.4494 C45.2754,20.6114 45.2494,20.8794 45.2494,21.2554 C45.2494,21.6454 45.2754,21.9204 45.3294,22.0824 C45.3814,22.2444 45.4664,22.3254 45.5834,22.3254 C45.7004,22.3254 45.7854,22.2444 45.8374,22.0824 M44.5354,22.8404 C44.2814,22.4704 44.1544,21.9384 44.1544,21.2464 C44.1544,20.5654 44.2814,20.0434 44.5354,19.6764 C44.7884,19.3104 45.1374,19.1284 45.5834,19.1284 C46.0294,19.1284 46.3794,19.3104 46.6314,19.6764 C46.8854,20.0434 47.0124,20.5704 47.0124,21.2554 C47.0124,21.9494 46.8854,22.4784 46.6314,22.8454 C46.3794,23.2114 46.0294,23.3944 45.5834,23.3944 C45.1374,23.3944 44.7884,23.2104 44.5354,22.8404" id="Fill-18" fill="#FFFFFF"></path>
                <path d="M23.2412,28.9873 L27.1432,28.9873 C27.7802,28.9873 28.2972,28.5213 28.2972,27.9473 L28.2972,15.7633 C28.2972,15.1893 27.7802,14.7233 27.1432,14.7233 L23.2412,14.7233 C22.6042,14.7233 22.0882,15.1893 22.0882,15.7633 L22.0882,27.9473 C22.0882,28.5213 22.6042,28.9873 23.2412,28.9873" id="Fill-20" fill="#FFD400"></path>
                <path d="M27.0742,14.6474 L23.3092,14.6474 C22.6732,14.6474 22.1562,15.1134 22.1562,15.6874 L22.1562,16.8134 C22.1562,16.2394 22.6732,15.7734 23.3092,15.7734 L27.0742,15.7734 C27.7122,15.7734 28.2272,16.2394 28.2272,16.8134 L28.2272,15.6874 C28.2272,15.1134 27.7122,14.6474 27.0742,14.6474" id="Fill-22" fill="#FCEF90"></path>
                <path d="M14.8516,28.9873 L18.7536,28.9873 C19.3906,28.9873 19.9076,28.5213 19.9076,27.9473 L19.9076,15.7633 C19.9076,15.1893 19.3906,14.7233 18.7536,14.7233 L14.8516,14.7233 C14.2146,14.7233 13.6986,15.1893 13.6986,15.7633 L13.6986,27.9473 C13.6986,28.5213 14.2146,28.9873 14.8516,28.9873" id="Fill-24" fill="#FFD400"></path>
                <path d="M18.6846,14.6474 L14.9196,14.6474 C14.2836,14.6474 13.7666,15.1134 13.7666,15.6874 L13.7666,16.8134 C13.7666,16.2394 14.2836,15.7734 14.9196,15.7734 L18.6846,15.7734 C19.3226,15.7734 19.8376,16.2394 19.8376,16.8134 L19.8376,15.6874 C19.8376,15.1134 19.3226,14.6474 18.6846,14.6474" id="Fill-26" fill="#FCEF90"></path>
                <path d="M6.4619,28.9873 L10.3639,28.9873 C11.0009,28.9873 11.5179,28.5213 11.5179,27.9473 L11.5179,15.7633 C11.5179,15.1893 11.0009,14.7233 10.3639,14.7233 L6.4619,14.7233 C5.8249,14.7233 5.3089,15.1893 5.3089,15.7633 L5.3089,27.9473 C5.3089,28.5213 5.8249,28.9873 6.4619,28.9873" id="Fill-28" fill="#FFD400"></path>
                <path d="M10.2959,14.6474 L6.5299,14.6474 C5.8939,14.6474 5.3769,15.1134 5.3769,15.6874 L5.3769,16.8134 C5.3769,16.2394 5.8939,15.7734 6.5299,15.7734 L10.2959,15.7734 C10.9329,15.7734 11.4479,16.2394 11.4479,16.8134 L11.4479,15.6874 C11.4479,15.1134 10.9329,14.6474 10.2959,14.6474" id="Fill-30" fill="#FCEF90"></path>
            </g>
        </g>
    </g>
</svg>