<?xml version="1.0" encoding="UTF-8"?>
<svg width="34px" height="34px" viewBox="0 0 34 34" version="1.1" xmlns="http://www.w3.org/2000/svg" xmlns:xlink="http://www.w3.org/1999/xlink">
    <!-- Generator: Sketch 60 (88103) - https://sketch.com -->
    <title>Group 8</title>
    <desc>Created with Sketch.</desc>
    <defs>
        <polygon id="path-1" points="0 0.62 33.3789 0.62 33.3789 33.9995 0 33.9995"></polygon>
    </defs>
    <g id="Welcome" stroke="none" stroke-width="1" fill="none" fill-rule="evenodd">
        <g id="Desktop-HD-Copy-6" transform="translate(-642.000000, -834.000000)">
            <g id="Group-19" transform="translate(633.000000, 830.000000)">
                <g id="Group-8" transform="translate(9.000000, 3.000000)">
                    <path d="M16.6895,24.8334 C12.7515,24.8334 9.5465,21.6294 9.5465,17.6904 C9.5465,13.7524 12.7515,10.5474 16.6895,10.5474 C20.6275,10.5474 23.8325,13.7524 23.8325,17.6904 C23.8325,21.6294 20.6275,24.8334 16.6895,24.8334 M28.1155,21.1874 L28.2685,20.6464 L32.3035,20.6464 L32.3035,14.7354 L28.2685,14.7354 L28.1165,14.1974 C27.9115,13.4714 27.6235,12.7704 27.2565,12.1104 L27.0145,11.6734 L29.7405,8.9444 L25.6445,4.5554 L22.7895,7.4124 L22.2835,7.1304 C21.6455,6.7754 20.9685,6.4944 20.2665,6.2924 L19.6435,6.1124 L19.6435,2.0754 L13.7345,2.0754 L13.7345,6.1124 L13.0965,6.2974 C12.3985,6.4974 11.7275,6.7774 11.0935,7.1314 L10.5895,7.4124 L7.7365,4.5624 L3.6085,8.7214 L6.4125,11.5894 L6.2385,11.9034 C5.8045,12.6824 5.4585,13.5194 5.2095,14.3924 L5.1115,14.7354 L1.0755,14.7354 L1.0755,20.4304 L1.0775,20.5214 L1.2035,20.6464 L5.1115,20.6464 L5.2545,21.1474 C5.4655,21.8934 5.7615,22.6114 6.1355,23.2894 L6.4115,23.7914 L5.0745,25.1284 C5.0545,25.1474 5.0375,25.1694 5.0105,25.2054 L3.6085,26.6194 L7.7345,30.8214 L10.5895,27.9714 L11.0865,28.2454 C11.7505,28.6114 12.4525,28.9024 13.1815,29.1104 L13.7345,29.2704 L13.7345,33.3054 L19.6435,33.3054 L19.6435,29.2704 L20.1985,29.1104 C20.9195,28.9054 21.6145,28.6184 22.2715,28.2574 L22.7895,27.9714 L25.6475,30.8284 L29.7445,26.4114 L26.9705,23.7874 L27.2505,23.2834 C27.6185,22.6204 27.9095,21.9164 28.1155,21.1874" id="Fill-1" fill="#FFFFFF"></path>
                    <g id="Group-5" transform="translate(0.000000, 0.380400)">
                        <mask id="mask-2" fill="white">
                            <use xlink:href="#path-1"></use>
                        </mask>
                        <g id="Clip-4"></g>
                        <path d="M27.2329,19.9735 L27.0809,20.5125 C26.8969,21.1625 26.6369,21.7915 26.3089,22.3805 L26.0289,22.8845 C25.7909,23.3155 25.8739,23.8515 26.2309,24.1885 L28.2319,26.0795 L25.6189,28.8985 L23.5499,26.8295 C23.2139,26.4945 22.6879,26.4205 22.2709,26.6485 L21.7509,26.9345 C21.1659,27.2565 20.5449,27.5125 19.9039,27.6965 L19.3489,27.8545 C18.8889,27.9845 18.5679,28.4115 18.5679,28.8885 L18.5679,31.8485 L14.8109,31.8485 L14.8109,28.8885 C14.8109,28.4115 14.4899,27.9855 14.0299,27.8545 L13.4779,27.6975 C12.8269,27.5095 12.1979,27.2495 11.6069,26.9235 L11.1089,26.6495 C10.6929,26.4165 10.1659,26.4915 9.8289,26.8295 L7.7419,28.9135 L5.1189,26.2425 L5.7749,25.5815 C5.8059,25.5495 5.8229,25.5275 5.8359,25.5075 L7.1719,24.1705 C7.5089,23.8345 7.5839,23.3085 7.3539,22.8905 L7.0769,22.3905 C6.7429,21.7845 6.4779,21.1385 6.2889,20.4735 L6.1469,19.9725 C6.0159,19.5115 5.5899,19.1905 5.1119,19.1905 L2.1509,19.1905 L2.1509,15.4305 L5.1119,15.4305 C5.5909,15.4305 6.0169,15.1095 6.1469,14.6465 L6.2429,14.3065 C6.4689,13.5135 6.7849,12.7525 7.1799,12.0435 L7.3539,11.7285 C7.5849,11.3095 7.5159,10.7985 7.1809,10.4565 L5.1179,8.3465 L7.7399,5.7055 L9.8299,7.7925 C10.1679,8.1295 10.6959,8.2025 11.1139,7.9715 L11.6169,7.6905 C12.1789,7.3765 12.7769,7.1275 13.3939,6.9505 L14.0319,6.7665 C14.4909,6.6345 14.8109,6.2095 14.8109,5.7325 L14.8109,2.7715 L18.5679,2.7715 L18.5679,5.7325 C18.5679,6.2095 18.8879,6.6345 19.3469,6.7665 L19.9699,6.9455 C20.5909,7.1235 21.1929,7.3745 21.7609,7.6905 L22.2669,7.9725 C22.6839,8.2045 23.2119,8.1305 23.5509,7.7925 L25.6179,5.7235 L28.2449,8.5395 L26.2539,10.5325 C25.9159,10.8695 25.8419,11.3975 26.0729,11.8145 L26.3159,12.2525 C26.6429,12.8405 26.8999,13.4645 27.0809,14.1095 L27.2329,14.6475 C27.3629,15.1095 27.7889,15.4305 28.2679,15.4305 L31.2279,15.4305 L31.2279,19.1905 L28.2679,19.1905 C27.7889,19.1905 27.3639,19.5125 27.2329,19.9735 M32.3029,13.2795 L29.0789,13.2795 C28.8889,12.6615 28.6429,12.0585 28.3449,11.4825 L30.5009,9.3255 C30.9129,8.9135 30.9239,8.2565 30.5269,7.8295 L26.4309,3.4415 C26.2329,3.2295 25.9529,3.1045 25.6559,3.0995 C25.3569,3.1045 25.0829,3.2155 24.8839,3.4135 L22.6009,5.6985 C21.9999,5.3805 21.3679,5.1205 20.7189,4.9235 L20.7189,1.6955 C20.7189,1.1025 20.2369,0.6195 19.6439,0.6195 L13.7349,0.6195 C13.1419,0.6195 12.6589,1.1025 12.6589,1.6955 L12.6589,4.9235 C12.0099,5.1205 11.3779,5.3805 10.7769,5.6985 L8.4969,3.4205 C8.0919,3.0165 7.3809,3.0145 6.9729,3.4235 L2.8449,7.5835 C2.4329,7.9975 2.4299,8.6755 2.8389,9.0935 L5.0879,11.3935 C4.7809,11.9945 4.5189,12.6275 4.3079,13.2795 L1.0759,13.2795 C0.4829,13.2795 -0.0001,13.7615 -0.0001,14.3555 L-0.0001,20.0645 L0.0019,20.1555 C0.0049,20.4375 0.1179,20.7025 0.3159,20.9015 L0.4419,21.0275 C0.6459,21.2305 0.9159,21.3415 1.2029,21.3415 L4.3029,21.3415 C4.5049,21.9895 4.7659,22.6195 5.0809,23.2195 L4.3139,23.9875 C4.2749,24.0265 4.2399,24.0655 4.2109,24.1035 L2.8439,25.4825 C2.4319,25.8975 2.4299,26.5755 2.8409,26.9925 L6.9669,31.1955 C7.1669,31.3995 7.4449,31.5165 7.7139,31.5165 C8.1029,31.5565 8.3449,31.3525 8.4949,31.2025 L10.7789,28.9205 C11.3779,29.2355 12.0089,29.4955 12.6589,29.6975 L12.6589,32.9245 C12.6589,33.5175 13.1419,33.9995 13.7349,33.9995 L19.6439,33.9995 C20.2369,33.9995 20.7189,33.5175 20.7189,32.9245 L20.7189,29.6985 C21.3679,29.4975 21.9989,29.2375 22.5989,28.9205 L24.8879,31.2085 C25.0979,31.4185 25.3849,31.5205 25.6679,31.5245 C25.9579,31.5195 26.2379,31.3935 26.4369,31.1795 L30.5329,26.7615 C30.9319,26.3305 30.9099,25.6525 30.4829,25.2485 L28.3139,23.1975 C28.6239,22.6055 28.8809,21.9825 29.0789,21.3415 L32.3029,21.3415 C32.8969,21.3415 33.3789,20.8595 33.3789,20.2665 L33.3789,14.3555 C33.3789,13.7615 32.8969,13.2795 32.3029,13.2795" id="Fill-3" fill="#001B4D" mask="url(#mask-2)"></path>
                    </g>
                    <path d="M16.6724,23.2005 C13.6434,23.2005 11.1794,20.7365 11.1794,17.7075 C11.1794,14.6785 13.6434,12.2155 16.6724,12.2155 C19.7014,12.2155 22.1654,14.6785 22.1654,17.7075 C22.1654,20.7365 19.7014,23.2005 16.6724,23.2005 M16.6724,10.2665 C12.5694,10.2665 9.2314,13.6045 9.2314,17.7075 C9.2314,21.8095 12.5694,25.1485 16.6724,25.1485 C20.7754,25.1485 24.1134,21.8095 24.1134,17.7075 C24.1134,13.6045 20.7754,10.2665 16.6724,10.2665" id="Fill-6" fill="#001B4D"></path>
                </g>
            </g>
        </g>
    </g>
</svg>