<?xml version="1.0" encoding="UTF-8"?>
<svg width="27px" height="29px" viewBox="0 0 27 29" version="1.1" xmlns="http://www.w3.org/2000/svg" xmlns:xlink="http://www.w3.org/1999/xlink">
    <!-- Generator: Sketch 60.1 (88133) - https://sketch.com -->
    <title>Group 6</title>
    <desc>Created with Sketch.</desc>
    <defs>
        <polygon id="path-1" points="0.000192858772 0.608275656 26.204 0.608275656 26.204 29 0.000192858772 29"></polygon>
    </defs>
    <g id="Welcome" stroke="none" stroke-width="1" fill="none" fill-rule="evenodd">
        <g id="Desktop-HD-Copy-3" transform="translate(-111.000000, -382.000000)">
            <g id="Group-6" transform="translate(111.000000, 381.000000)">
                <g id="Group-3" transform="translate(0.000000, 0.391600)">
                    <mask id="mask-2" fill="white">
                        <use xlink:href="#path-1"></use>
                    </mask>
                    <g id="Clip-2"></g>
                    <path d="M19.5809,14.804 L24.9879,8.68 C25.8469,7.707 26.2749,6.459 26.1949,5.163 C26.1139,3.868 25.5329,2.683 24.5609,1.825 C23.5879,0.964 22.3369,0.537 21.0459,0.618 C19.7509,0.699 18.5639,1.278 17.7059,2.251 L13.1019,7.465 L8.4979,2.25 C6.7239,0.244 3.6499,0.053 1.6429,1.825 C0.6689,2.683 0.0899,3.869 0.0099,5.163 C-0.0711,6.458 0.3569,7.706 1.2159,8.68 L6.6229,14.804 L1.2159,20.928 C-0.5561,22.935 -0.3651,26.011 1.6429,27.784 C3.6499,29.555 6.7259,29.366 8.4989,27.358 L13.1019,22.143 L17.7059,27.358 C18.5639,28.329 19.7499,28.909 21.0439,28.991 C21.1459,28.997 21.2499,29 21.3519,29 C22.5329,29 23.6739,28.569 24.5609,27.784 C25.5329,26.926 26.1139,25.74 26.1949,24.445 C26.2749,23.149 25.8469,21.901 24.9879,20.928 L19.5809,14.804 Z" id="Fill-1" fill="#35245A" mask="url(#mask-2)"></path>
                </g>
                <path d="M16.5062,15.1956 L23.2592,7.5466 C24.1932,6.4896 24.0922,4.8776 23.0362,3.9436 C21.9792,3.0106 20.3662,3.1116 19.4332,4.1686 L13.1022,11.3396 L6.7702,4.1686 C5.8372,3.1116 4.2242,3.0106 3.1682,3.9436 C2.1112,4.8776 2.0102,6.4896 2.9432,7.5466 L9.6972,15.1956 L2.9432,22.8446 C2.0102,23.9016 2.1112,25.5146 3.1682,26.4476 C4.2242,27.3806 5.8372,27.2796 6.7702,26.2226 L13.1022,19.0516 L19.4332,26.2226 C20.3662,27.2796 21.9792,27.3806 23.0362,26.4476 C24.0922,25.5146 24.1932,23.9016 23.2592,22.8446 L16.5062,15.1956 Z" id="Fill-4" fill="#FEFEFE"></path>
            </g>
        </g>
    </g>
</svg>