<?xml version="1.0" encoding="UTF-8"?>
<svg width="31px" height="38px" viewBox="0 0 31 38" version="1.1" xmlns="http://www.w3.org/2000/svg" xmlns:xlink="http://www.w3.org/1999/xlink">
    <!-- Generator: Sketch 60.1 (88133) - https://sketch.com -->
    <title>Group 8</title>
    <desc>Created with Sketch.</desc>
    <defs>
        <polygon id="path-1" points="0 0.623 30.4576116 0.623 30.4576116 38 0 38"></polygon>
    </defs>
    <g id="Welcome" stroke="none" stroke-width="1" fill="none" fill-rule="evenodd">
        <g id="Desktop-HD-Copy-3" transform="translate(-743.000000, -448.000000)">
            <g id="Group-8" transform="translate(743.000000, 447.000000)">
                <g id="Group-6">
                    <g id="Group-3" transform="translate(0.000000, 0.377500)">
                        <mask id="mask-2" fill="white">
                            <use xlink:href="#path-1"></use>
                        </mask>
                        <g id="Clip-2"></g>
                        <path d="M28.7217,19.0312 C27.3837,17.9362 25.5447,17.7282 23.9687,18.3502 L23.9687,6.9112 C23.9687,4.5542 22.2497,2.6052 19.9687,2.3772 C19.3507,2.3162 18.7337,2.3852 18.1547,2.5702 C17.4377,1.5102 16.2887,0.7782 14.9467,0.6432 C13.6917,0.5212 12.4417,0.9302 11.5097,1.7712 C11.2477,2.0102 11.0167,2.2752 10.8207,2.5632 C10.5337,2.4712 10.2337,2.4082 9.9227,2.3772 C8.6667,2.2582 7.4167,2.6632 6.4887,3.5052 C6.0077,3.9392 5.6337,4.4682 5.3837,5.0522 C5.2267,5.0182 5.0647,4.9932 4.9007,4.9762 C3.6457,4.8532 2.3957,5.2632 1.4647,6.1042 C0.5347,6.9472 -0.0003,8.1492 -0.0003,9.4042 L-0.0003,26.1032 C-0.0003,26.2882 0.0127,26.4722 0.0377,26.6612 C0.0127,26.9402 -0.0003,27.2072 -0.0003,27.4692 C-0.0003,33.2762 5.3757,38.0002 11.9857,38.0002 C17.4567,38.0002 20.3557,35.9422 22.6237,33.6622 C23.6627,32.7722 25.3577,30.6702 29.1917,25.9062 C30.0577,24.9752 30.5157,23.7272 30.4517,22.4542 C30.3857,21.1252 29.7547,19.8772 28.7217,19.0312" id="Fill-1" fill="#35245A" mask="url(#mask-2)"></path>
                    </g>
                    <path d="M27.0752,21.4205 C26.2172,20.7185 24.9372,20.8685 24.1532,21.6525 L21.3692,24.4365 L21.3692,7.2875 C21.3692,6.3195 20.6732,5.4385 19.7102,5.3415 C18.6022,5.2315 17.6682,6.0975 17.6682,7.1825 L17.6682,19.0275 C17.6682,19.3925 17.3722,19.6885 17.0082,19.6885 C16.6422,19.6885 16.3462,19.3925 16.3462,19.0275 L16.3462,5.5555 C16.3462,4.5875 15.6502,3.7045 14.6862,3.6085 C13.5792,3.4975 12.6452,4.3645 12.6452,5.4495 L12.6452,19.0275 C12.6452,19.3925 12.3492,19.6885 11.9842,19.6885 C11.6192,19.6885 11.3232,19.3925 11.3232,19.0275 L11.3232,7.2875 C11.3232,6.3195 10.6272,5.4385 9.6642,5.3415 C8.5562,5.2315 7.6222,6.0975 7.6222,7.1825 L7.6222,19.0275 C7.6222,19.3925 7.3262,19.6885 6.9622,19.6885 C6.5962,19.6885 6.3012,19.3925 6.3012,19.0275 L6.3012,9.8875 C6.3012,8.9195 5.6042,8.0375 4.6412,7.9415 C3.5332,7.8305 2.5992,8.6965 2.5992,9.7815 L2.5992,26.4815 C2.5992,26.6415 2.6272,26.7945 2.6652,26.9425 C2.6252,27.2395 2.5992,27.5405 2.5992,27.8475 C2.5992,32.2275 6.8022,35.7775 11.9842,35.7775 C17.0082,35.7775 19.2502,33.7815 20.9712,32.0115 C21.0692,32.2295 27.2372,24.5665 27.2372,24.5665 C28.1162,23.6875 28.0622,22.2285 27.0752,21.4205" id="Fill-4" fill="#FEFEFE"></path>
                </g>
            </g>
        </g>
    </g>
</svg>