<?xml version="1.0" encoding="UTF-8"?>
<svg width="29px" height="33px" viewBox="0 0 29 33" version="1.1" xmlns="http://www.w3.org/2000/svg" xmlns:xlink="http://www.w3.org/1999/xlink">
    <!-- Generator: Sketch 60.1 (88133) - https://sketch.com -->
    <title>Group 9</title>
    <desc>Created with Sketch.</desc>
    <defs>
        <polygon id="path-1" points="0.000214913602 0.677769231 28.3012916 0.677769231 28.3012916 32.1538462 0.000214913602 32.1538462"></polygon>
    </defs>
    <g id="Welcome" stroke="none" stroke-width="1" fill="none" fill-rule="evenodd">
        <g id="Desktop-HD-Copy-3" transform="translate(-1375.000000, -467.000000)">
            <g id="Group-9" transform="translate(1375.000000, 467.000000)">
                <g id="Group-6">
                    <g id="Group-3" transform="translate(0.000000, 0.168723)">
                        <mask id="mask-2" fill="white">
                            <use xlink:href="#path-1"></use>
                        </mask>
                        <g id="Clip-2"></g>
                        <path d="M25.9330794,12.9950615 L7.98122647,1.51190769 C6.08684412,0.299369231 3.72419706,0.416984615 1.95946176,1.80975385 C0.194726471,3.20506154 -0.448391176,5.46513846 0.320108824,7.56867692 L3.89563824,17.3578308 L0.796902941,24.8691385 C-0.137067647,26.8796 0.297079412,29.1718308 1.90487353,30.7092923 C2.88063824,31.6409077 4.14810882,32.1545231 5.47699118,32.1545231 C6.28216765,32.1545231 7.09502059,31.9590615 7.82855,31.5909846 L25.4682265,21.8796769 C27.1399912,21.0394462 28.1967853,19.4292154 28.2940206,17.5702154 C28.3912559,15.7129077 27.5084618,14.0011385 25.9330794,12.9950615" id="Fill-1" fill="#35245A" mask="url(#mask-2)"></path>
                    </g>
                    <path d="M24.1772147,15.8583615 L6.22621471,4.37520769 C4.67045,3.37928462 2.72915588,4.91336154 3.36033235,6.64036154 L7.11753824,16.9295923 C7.29068529,17.4042846 7.26936176,17.9280538 7.05612647,18.3866692 L3.73306765,26.3794385 C2.96627353,28.0302846 4.72845,29.7158231 6.36353824,28.8933615 L24.0032147,19.1829 C25.3355088,18.5127462 25.4327441,16.6613615 24.1772147,15.8583615" id="Fill-4" fill="#FEFEFE"></path>
                </g>
            </g>
        </g>
    </g>
</svg>