<?xml version="1.0" encoding="UTF-8"?>
<svg width="33px" height="33px" viewBox="0 0 33 33" version="1.1" xmlns="http://www.w3.org/2000/svg" xmlns:xlink="http://www.w3.org/1999/xlink">
    <!-- Generator: Sketch 60.1 (88133) - https://sketch.com -->
    <title>Group 7</title>
    <desc>Created with Sketch.</desc>
    <defs>
        <polygon id="path-1" points="0 0.199137931 32.7985862 0.199137931 32.7985862 32.9998862 0 32.9998862"></polygon>
    </defs>
    <g id="Welcome" stroke="none" stroke-width="1" fill="none" fill-rule="evenodd">
        <g id="Desktop-HD-Copy-3" transform="translate(-742.000000, -380.000000)">
            <g id="Group-7" transform="translate(742.000000, 380.000000)">
                <g id="Group-6">
                    <g id="Group-3">
                        <mask id="mask-2" fill="white">
                            <use xlink:href="#path-1"></use>
                        </mask>
                        <g id="Clip-2"></g>
                        <path d="M9.50126897,16.6000241 C9.50126897,13.3023 11.8749931,10.5007138 15.0031655,9.84412759 L9.52516552,17.1598862 C9.50923448,16.9744034 9.50126897,16.7866448 9.50126897,16.6000241 L9.50126897,16.6000241 Z M23.2975448,16.6000241 C23.2975448,20.0468172 20.7565448,22.9121276 17.4485793,23.4185069 L23.2372345,15.6908172 C23.2770621,15.992369 23.2975448,16.2950586 23.2975448,16.6000241 L23.2975448,16.6000241 Z M16.3994069,0.199024138 C7.35626897,0.199024138 -0.000455172414,7.55688621 -0.000455172414,16.6000241 C-0.000455172414,25.6431621 7.35626897,32.9998862 16.3994069,32.9998862 C25.4425448,32.9998862 32.799269,25.6431621 32.799269,16.6000241 C32.799269,7.55688621 25.4425448,0.199024138 16.3994069,0.199024138 L16.3994069,0.199024138 Z" id="Fill-1" fill="#35245A" mask="url(#mask-2)"></path>
                    </g>
                    <path d="M16.5005721,26.4267735 C15.0142391,26.4267735 13.5839725,26.1018307 12.2440988,25.4588101 L23.8979108,9.90045767 C25.5318473,11.7265446 26.426622,14.0560641 26.426622,16.5 C26.426622,21.9736842 21.9733441,26.4267735 16.5005721,26.4267735 M16.5005721,6.57322654 C17.8930796,6.57322654 19.2455397,6.86498856 20.529347,7.44050343 L8.94418782,22.9118993 C7.4132305,21.1121281 6.57337797,18.8501144 6.57337797,16.5 C6.57337797,11.0263158 11.0266559,6.57322654 16.5005721,6.57322654 M16.5005721,3 C9.05632072,3 3,9.05606407 3,16.5 C3,23.9439359 9.05632072,30 16.5005721,30 C23.9448235,30 30,23.9439359 30,16.5 C30,9.05606407 23.9448235,3 16.5005721,3" id="Fill-4" fill="#FEFEFE"></path>
                </g>
            </g>
        </g>
    </g>
</svg>