<?xml version="1.0" encoding="UTF-8"?>
<svg width="32px" height="25px" viewBox="0 0 32 25" version="1.1" xmlns="http://www.w3.org/2000/svg" xmlns:xlink="http://www.w3.org/1999/xlink">
    <!-- Generator: Sketch 60.1 (88133) - https://sketch.com -->
    <title>Group 6</title>
    <desc>Created with Sketch.</desc>
    <defs>
        <polygon id="path-1" points="0 0.664 31.8529016 0.664 31.8529016 24.9995 0 24.9995"></polygon>
    </defs>
    <g id="Welcome" stroke="none" stroke-width="1" fill="none" fill-rule="evenodd">
        <g id="Desktop-HD-Copy-3" transform="translate(-334.000000, -384.000000)">
            <g id="Group-6" transform="translate(334.000000, 383.000000)">
                <g id="Group-3" transform="translate(0.000000, 0.336200)">
                    <mask id="mask-2" fill="white">
                        <use xlink:href="#path-1"></use>
                    </mask>
                    <g id="Clip-2"></g>
                    <path d="M30.3456,2.3945 C29.3346,1.3225 27.9636,0.7085 26.4876,0.6665 C25.0136,0.6205 23.6076,1.1575 22.5126,2.1925 L13.8636,11.3325 L9.9356,6.3225 C9.0456,5.1445 7.7506,4.3835 6.2886,4.1795 C4.8256,3.9775 3.3716,4.3545 2.1966,5.2425 C1.0186,6.1315 0.2576,7.4265 0.0536,8.8875 C-0.1514,10.3495 0.2346,11.8135 1.1446,13.0185 L8.8256,22.8165 C9.8586,24.1835 11.5076,24.9995 13.2366,24.9995 C13.3786,24.9995 13.5206,24.9945 13.6366,24.9845 C15.0796,25.0225 16.5146,24.4735 17.5936,23.4535 L30.1676,10.1595 C31.2106,9.1515 31.8086,7.7965 31.8506,6.3465 C31.8926,4.8705 31.3586,3.4665 30.3456,2.3945" id="Fill-1" fill="#35245A" mask="url(#mask-2)"></path>
                </g>
                <path d="M28.4389,4.5315 C27.3379,3.3655 25.5009,3.3115 24.3349,4.4125 L13.6769,15.6815 L7.8419,8.2395 C6.8759,6.9605 5.0559,6.7065 3.7759,7.6725 C2.4969,8.6375 2.2419,10.4585 3.2079,11.7385 L10.9179,21.5735 C11.5629,22.4275 12.5869,22.8125 13.5789,22.6955 C14.3549,22.7455 15.1489,22.4935 15.7589,21.9175 L28.3199,8.6355 C29.4859,7.5345 29.5399,5.6975 28.4389,4.5315" id="Fill-4" fill="#FEFEFE"></path>
            </g>
        </g>
    </g>
</svg>