<svg id="Camada_1" data-name="Camada 1" xmlns="http://www.w3.org/2000/svg" viewBox="0 0 93 72"><defs><style>.cls-1{fill:#302758;}.cls-2{fill:#fff;}.cls-3{fill:#001b4d;}</style></defs><title>icone_olho</title><path class="cls-1" d="M85.43,31.43l-.91-1.5c-1.49-2.47-15.17-24-38.78-24-22.22,0-35,16.69-38.7,25.51l-.52,1.24L5.17,35.94,6.6,39.17l.54,1.22c.47,1,11.71,25.68,38.6,25.68,25.21,0,37.76-22.43,39.1-25l.82-1.56,2.17-4.11Z"/><path class="cls-2" d="M45.74,57.71c-21.46,0-30.7-19.94-31.08-20.79l-.55-1.22.52-1.24C15,33.62,23.77,14,45.74,14,65.52,14,77,33.23,77.48,34l.91,1.51-.82,1.56C77.13,38,66.61,57.71,45.74,57.71Z"/><path class="cls-3" d="M60.41,30.1l-.6-.4a6.49,6.49,0,0,1-12.54-2.23,6.36,6.36,0,0,1,4.26-5.95,15.29,15.29,0,1,0,8.88,8.58Z"/></svg>