<?xml version="1.0" encoding="UTF-8"?>
<svg width="38px" height="37px" viewBox="0 0 38 37" version="1.1" xmlns="http://www.w3.org/2000/svg" xmlns:xlink="http://www.w3.org/1999/xlink">
    <!-- Generator: Sketch 60.1 (88133) - https://sketch.com -->
    <title>Group 14</title>
    <desc>Created with Sketch.</desc>
    <defs>
        <polygon id="path-1" points="0 0.2084 38.004 0.2084 38.004 37 0 37"></polygon>
    </defs>
    <g id="Welcome" stroke="none" stroke-width="1" fill="none" fill-rule="evenodd">
        <g id="Desktop-HD-Copy-14" transform="translate(-765.000000, -609.000000)">
            <g id="Group-14" transform="translate(765.000000, 608.000000)">
                <g id="Group-3" transform="translate(0.000000, 0.792000)">
                    <mask id="mask-2" fill="white">
                        <use xlink:href="#path-1"></use>
                    </mask>
                    <g id="Clip-2"></g>
                    <path d="M37.6737,13.7734 L37.6737,13.7724 C36.8847,11.3444 34.8237,9.6084 32.2967,9.2414 L27.2367,8.5044 L24.9747,3.9204 C23.8457,1.6304 21.5567,0.2084 19.0017,0.2084 C16.4477,0.2084 14.1587,1.6304 13.0297,3.9204 L10.7677,8.5054 L5.7077,9.2414 C3.1807,9.6084 1.1197,11.3444 0.3307,13.7734 C-0.4583,16.2024 0.1877,18.8184 2.0167,20.6004 L5.6777,24.1694 L4.8137,29.2094 C4.4817,31.1504 5.0147,33.1234 6.2767,34.6194 C7.5517,36.1314 9.4107,37.0004 11.3767,37.0004 C12.4597,37.0004 13.5027,36.7414 14.4777,36.2294 L19.0017,33.8504 L23.5277,36.2304 C24.5007,36.7414 25.5427,37.0004 26.6267,37.0004 C28.5927,37.0004 30.4517,36.1324 31.7287,34.6194 C32.9907,33.1224 33.5247,31.1504 33.1907,29.2094 L32.3257,24.1694 L35.9877,20.6004 C37.8167,18.8184 38.4617,16.2024 37.6737,13.7734" id="Fill-1" fill="#002043" mask="url(#mask-2)"></path>
                </g>
                <path d="M34.1522,19.2852 C35.2582,18.2062 35.6502,16.6232 35.1732,15.1522 C34.6952,13.6822 33.4482,12.6322 31.9192,12.4092 L25.9162,11.5372 C25.6502,11.4992 25.4202,11.3322 25.3002,11.0912 L22.6162,5.6512 C21.9322,4.2652 20.5482,3.4042 19.0022,3.4042 C17.4572,3.4042 16.0722,4.2642 15.3872,5.6502 L12.7032,11.0912 C12.5842,11.3322 12.3542,11.4992 12.0882,11.5372 L6.0862,12.4092 C4.5552,12.6312 3.3092,13.6822 2.8322,15.1522 C2.3542,16.6222 2.7452,18.2052 3.8522,19.2852 L8.1962,23.5192 C8.3882,23.7072 8.4762,23.9762 8.4292,24.2412 L7.4042,30.2202 C7.2042,31.3952 7.5252,32.5892 8.2872,33.4912 C9.4892,34.9152 11.5852,35.3472 13.2532,34.4692 L18.6202,31.6462 C18.8532,31.5272 19.1552,31.5272 19.3822,31.6462 L24.7522,34.4692 C25.3432,34.7802 25.9742,34.9372 26.6272,34.9372 C27.8152,34.9372 28.9412,34.4102 29.7182,33.4912 C30.4792,32.5872 30.8002,31.3942 30.5992,30.2202 L29.5742,24.2402 C29.5282,23.9752 29.6162,23.7062 29.8082,23.5182 L34.1522,19.2852 Z" id="Fill-4" fill="#FFFFFF"></path>
                <path d="M21.1757,6.3623 L23.8607,11.8013 C24.2127,12.5173 24.8957,13.0123 25.6847,13.1283 L31.6877,14.0003 C33.6757,14.2893 34.4687,16.7313 33.0297,18.1333 L28.6867,22.3683 C28.1157,22.9243 27.8557,23.7263 27.9897,24.5123 L29.0157,30.4913 C29.3547,32.4713 27.2777,33.9803 25.4987,33.0463 L20.1297,30.2233 C19.4237,29.8523 18.5797,29.8523 17.8747,30.2233 L12.5047,33.0463 C10.7277,33.9803 8.6497,32.4713 8.9887,30.4913 L10.0147,24.5123 C10.1497,23.7263 9.8887,22.9243 9.3177,22.3683 L4.9737,18.1333 C3.5347,16.7313 4.3287,14.2893 6.3167,14.0003 L12.3197,13.1283 C13.1097,13.0123 13.7907,12.5173 14.1447,11.8013 L16.8287,6.3623 C17.7177,4.5613 20.2857,4.5613 21.1757,6.3623" id="Fill-6" fill="#FFBF00"></path>
                <path d="M10.3964,23.4424 L10.4344,23.2214 C10.5924,22.2974 10.2864,21.3544 9.6154,20.7004 L5.2704,16.4654 C5.0494,16.2504 4.8874,15.9994 4.7864,15.7284 C4.7804,15.7474 4.7714,15.7624 4.7654,15.7814 C4.5254,16.5204 4.7134,17.2864 5.2704,17.8284 L9.6154,22.0624 C10.0064,22.4444 10.2734,22.9244 10.3964,23.4424" id="Fill-8" fill="#ED9700"></path>
                <path d="M28.5282,30.1709 C28.4012,30.5569 28.1532,30.8989 27.8002,31.1539 C27.1722,31.6109 26.3852,31.6679 25.6972,31.3069 L20.3282,28.4839 C19.4982,28.0469 18.5072,28.0469 17.6762,28.4839 L12.3062,31.3069 C11.6192,31.6679 10.8322,31.6109 10.2032,31.1539 C9.8512,30.8989 9.6032,30.5569 9.4752,30.1709 L9.4092,30.5639 C9.2772,31.3299 9.5742,32.0609 10.2032,32.5179 C10.8322,32.9739 11.6192,33.0309 12.3062,32.6689 L17.6762,29.8469 C18.5072,29.4099 19.4982,29.4099 20.3282,29.8469 L25.6972,32.6689 C26.3852,33.0309 27.1722,32.9739 27.8002,32.5179 C28.4292,32.0609 28.7262,31.3299 28.5952,30.5639 L28.5282,30.1709 Z" id="Fill-10" fill="#ED9700"></path>
                <path d="M33.2177,15.7285 C33.1167,15.9995 32.9547,16.2495 32.7337,16.4655 L28.3897,20.7005 C27.7177,21.3545 27.4117,22.2965 27.5707,23.2215 L27.6087,23.4425 C27.7317,22.9245 27.9977,22.4445 28.3897,22.0625 L32.7337,17.8285 C33.2897,17.2865 33.4797,16.5205 33.2387,15.7815 C33.2337,15.7625 33.2247,15.7465 33.2177,15.7285" id="Fill-12" fill="#ED9700"></path>
            </g>
        </g>
    </g>
</svg>