<?xml version="1.0" encoding="UTF-8"?>
<svg width="216px" height="191px" viewBox="0 0 216 191" version="1.1" xmlns="http://www.w3.org/2000/svg" xmlns:xlink="http://www.w3.org/1999/xlink">
    <!-- Generator: Sketch 60.1 (88133) - https://sketch.com -->
    <title>Group 34</title>
    <desc>Created with Sketch.</desc>
    <defs>
        <polygon id="path-1" points="0.000185142857 0.518226129 215.863611 0.518226129 215.863611 190.999445 0.000185142857 190.999445"></polygon>
    </defs>
    <g id="Welcome" stroke="none" stroke-width="1" fill="none" fill-rule="evenodd" opacity="0.508928571">
        <g id="Desktop-HD-Copy-14" transform="translate(-398.000000, -429.000000)">
            <g id="Group-34" transform="translate(398.000000, 429.000000)">
                <path d="M143,56 C133.625784,56 126,63.5605164 126,72.8531448 C126,86.4584278 139.706058,95.8720001 143.613054,97 C146.681392,95.8720001 160,86.5818028 160,72.8531448 C160,63.5605164 152.373603,56 143,56 M143,58.4310342 C151.034079,58.4310342 157.547782,64.8884689 157.547782,72.8531448 C157.547782,80.8190362 151.034079,87.2758631 143,87.2758631 C134.965921,87.2758631 128.452218,80.8190362 128.452218,72.8531448 C128.452218,64.8884689 134.965921,58.4310342 143,58.4310342" id="Fill-1" fill="#778F99"></path>
                <path d="M149,70.0003052 C149,73.3142072 146.314207,76 142.999695,76 C139.685793,76 137,73.3142072 137,70.0003052 C137,66.6864032 139.685793,64 142.999695,64 C146.314207,64 149,66.6864032 149,70.0003052" id="Fill-3" fill="#778F99"></path>
                <path d="M149.643349,74 C148.21312,76.5687866 145.525969,78.3072023 142.446029,78.3072023 C139.400271,78.3072023 136.739506,76.6063906 135.297283,74.0838385 C134.057152,74.5461831 131.943891,76.1249358 131,78.843522 C133.147442,83.0940101 137.465114,86 142.446029,86 C147.510898,86 151.892136,82.9947601 154,78.6259118 C152.800647,76.1249358 150.813918,74.4117949 149.643349,74" id="Fill-5" fill="#778F99"></path>
                <path d="M38,13 C28.6257843,13 21,20.5600208 21,29.8533946 C21,43.4582716 34.7060584,52.8719834 38.6130545,54 C41.681392,52.8719834 55,43.5822562 55,29.8533946 C55,20.5600208 47.3742157,13 38,13 M38,15.4310703 C46.0340786,15.4310703 52.5477822,21.8879929 52.5477822,29.8533946 C52.5477822,37.8187963 46.0340786,44.2757189 38,44.2757189 C29.9659214,44.2757189 23.4522178,37.8187963 23.4522178,29.8533946 C23.4522178,21.8879929 29.9659214,15.4310703 38,15.4310703" id="Fill-7" fill="#778F99"></path>
                <path d="M44,25.9996948 C44,29.3135968 41.3142072,32 38.0003052,32 C34.6864032,32 32,29.3135968 32,25.9996948 C32,22.6857928 34.6864032,20 38.0003052,20 C41.3142072,20 44,22.6857928 44,25.9996948" id="Fill-9" fill="#778F99"></path>
                <path d="M45.6433488,31 C44.2131199,33.5689186 41.5259686,35.3074236 38.4460291,35.3074236 C35.4002712,35.3074236 32.7395057,33.605908 31.2972832,31.0832263 C30.0571518,31.5455947 27.9438911,33.1244285 27,35.8437709 C29.1474422,40.0944773 33.4651145,43 38.4460291,43 C43.5108985,43 47.8921364,39.9952222 50,35.6261495 C48.8006466,33.1244285 46.8139177,31.4111996 45.6433488,31" id="Fill-11" fill="#778F99"></path>
                <path d="M78.9996935,112 C69.6259219,112 62,119.560516 62,128.853145 C62,142.458428 75.7056925,151.872 79.612759,153 C82.6811518,151.872 96,142.581803 96,128.853145 C96,119.560516 88.3740781,112 78.9996935,112 M78.9996935,114.431034 C87.03453,114.431034 93.547738,120.888469 93.547738,128.853145 C93.547738,136.819036 87.03453,143.275863 78.9996935,143.275863 C70.96547,143.275863 64.452262,136.819036 64.452262,128.853145 C64.452262,120.888469 70.96547,114.431034 78.9996935,114.431034" id="Fill-13" fill="#778F99"></path>
                <path d="M85,125.000305 C85,128.314207 82.3142072,131 79.0003052,131 C75.6864032,131 73,128.314207 73,125.000305 C73,121.686403 75.6864032,119 79.0003052,119 C82.3142072,119 85,121.686403 85,125.000305" id="Fill-15" fill="#778F99"></path>
                <path d="M86.6438349,129 C85.212969,131.568787 82.5257477,133.307202 79.4457278,133.307202 C76.3998905,133.307202 73.7390556,131.606391 72.2973952,129.083838 C71.0566318,129.546183 68.943316,131.124936 68,133.843522 C70.1468985,138.09401 74.4646833,141 79.4457278,141 C84.511329,141 88.8920815,137.99476 91,133.625912 C89.801215,131.124936 87.8138346,129.411795 86.6438349,129" id="Fill-17" fill="#778F99"></path>
                <path d="M186.000307,100 C176.625922,100 169,107.559909 169,116.853145 C169,130.458428 182.706306,139.871392 186.613372,141 C189.681152,139.871392 203,130.581803 203,116.853145 C203,107.559909 195.374078,100 186.000307,100 M186.000307,102.431034 C194.03453,102.431034 200.547738,108.887861 200.547738,116.853145 C200.547738,124.818428 194.03453,131.275863 186.000307,131.275863 C177.96547,131.275863 171.452262,124.818428 171.452262,116.853145 C171.452262,108.887861 177.96547,102.431034 186.000307,102.431034" id="Fill-19" fill="#778F99"></path>
                <path d="M192,112.999695 C192,116.313597 189.313597,119 185.999695,119 C182.685793,119 180,116.313597 180,112.999695 C180,109.685793 182.685793,107 185.999695,107 C189.313597,107 192,109.685793 192,112.999695" id="Fill-21" fill="#778F99"></path>
                <path d="M193.643349,117 C192.21312,119.568919 189.525369,121.307424 186.445429,121.307424 C183.399671,121.307424 180.738906,119.605908 179.297283,117.083843 C178.057152,117.545595 175.943291,119.124428 175,121.843771 C177.146843,126.094477 181.464515,129 186.445429,129 C191.510898,129 195.892136,125.995222 198,121.626149 C196.800647,119.124428 194.813918,117.4112 193.643349,117" id="Fill-23" fill="#778F99"></path>
                <path d="M174.895897,4.00032002 C165.52197,4.05777887 157.943623,11.6652677 158.000316,20.9588522 C158.085235,34.5649274 171.84911,43.8961969 175.763343,45 C178.82423,43.8530416 192.084803,34.4810481 191.999591,20.7521931 C191.941966,11.4580007 184.269212,3.94350851 174.895897,4.00032002 M174.91061,6.43164672 C182.945055,6.38269456 189.497793,12.8012853 189.547726,20.7667808 C189.596492,28.7322762 183.124061,35.2298837 175.089617,35.2793917 C167.055785,35.3277429 160.502434,28.90976 160.452501,20.9442645 C160.403735,12.9787691 166.876778,6.48116158 174.91061,6.43164672" id="Fill-25" fill="#778F99"></path>
                <path d="M179.99988,17.9630676 C180.020634,21.2769052 177.350628,23.9791264 174.036622,23.9998798 C170.723226,24.0206333 168.020257,21.350763 168,18.0369255 C167.979969,14.7230879 170.649365,12.0208667 173.962761,12 C177.276767,11.9799702 179.979736,14.64923 179.99988,17.9630676" id="Fill-27" fill="#778F99"></path>
                <path d="M181.615421,21 C180.200673,23.5684766 177.522907,25.3170306 174.442726,25.3366842 C171.39673,25.3557236 168.726161,23.6771854 167.268833,21.1731971 C166.031003,21.6418121 163.927772,23.2282241 163,25.9428741 C165.172199,30.1640935 169.508201,33.031673 174.488905,32.9997359 C179.554171,32.9677989 183.91776,29.9466759 186,25.5811255 C184.78496,23.0967908 182.78788,21.4022841 181.615421,21" id="Fill-29" fill="#778F99"></path>
                <g id="Group-33">
                    <mask id="mask-2" fill="white">
                        <use xlink:href="#path-1"></use>
                    </mask>
                    <g id="Clip-32"></g>
                    <path d="M75.5162537,153.503681 C76.0673623,154.777836 76.1994309,156.053839 75.9729394,157.907771 L75.9217166,158.316265 C75.7174423,159.949007 75.5051451,161.6372 76.0112023,163.326626 C76.3882766,164.58661 77.1177394,165.602607 77.8225166,166.5841 C78.0897394,166.956242 78.3575794,167.327768 78.606288,167.715313 C79.500528,169.110229 79.789968,170.770697 80.0695337,172.376329 C80.3071337,173.742287 80.6552023,175.535223 81.2482766,177.293039 C82.1560937,179.984291 83.5064023,182.417384 85.2016937,184.477104 C38.9678194,175.360242 4.32018514,139.045597 4.32018514,95.7582197 C4.32018514,86.5933003 5.87970514,77.7426068 8.76731657,69.3934423 C10.5261737,70.8733842 12.4744937,71.9355906 14.2740823,72.8037165 L15.0060137,73.1542939 C17.5671566,74.3699165 20.4689623,75.747581 21.5403223,78.3217681 C22.0365051,79.5127455 21.6186994,80.5047132 21.089808,81.7597681 L21.012048,81.9446068 C20.2097623,83.8546068 20.2313623,85.584081 21.0756137,87.0818906 C23.0085051,90.5143455 27.2723451,91.0017035 30.3858309,91.3578261 C33.946128,91.7644713 37.4601394,92.7681455 40.8593623,93.7379326 L41.4437966,93.9055197 C41.8233394,94.0133423 42.2072023,94.1168519 42.5929166,94.2215939 C43.9240937,94.580181 45.3003223,94.9510906 46.5210309,95.5345648 C47.6288023,96.0625874 48.6236366,96.8703326 49.6505623,98.0748648 C50.0936709,98.5948777 50.526288,99.1493939 50.945328,99.6860423 C52.2641623,101.379165 53.6286651,103.128971 55.645488,104.247245 C56.8057166,104.889868 58.0653051,105.243526 59.282928,105.58671 L60.0506537,105.804204 C61.0183337,106.082078 62.2229966,106.428958 62.6661051,107.244713 C63.1153851,108.072791 62.4908366,109.212013 61.8872709,110.023455 C61.1411451,111.025897 60.1456937,111.778807 59.0916137,112.576694 L58.7293509,112.851487 C56.1262423,114.836655 53.5823794,117.058416 53.5509051,120.433571 C53.5175794,124.130345 56.3700137,127.549245 58.518288,129.798116 C58.8891909,130.186894 59.2792251,130.562116 59.6785166,130.930562 C59.5495337,129.941675 59.4760937,128.934304 59.4760937,127.904752 C59.4760937,116.784855 68.536368,107.738849 79.6751794,107.738849 C90.8127566,107.738849 99.873648,116.784855 99.873648,127.904752 C99.873648,143.506987 85.4466994,153.761223 81.3655337,155.272587 L80.4083451,155.626245 L79.4295566,155.341594 C78.3890537,155.039075 77.0257851,154.403229 75.5020594,153.471642 C75.5057623,153.482116 75.5119337,153.492591 75.5162537,153.503681 M64.2009394,13.3441842 C64.1682309,13.5715358 64.060848,13.7212552 63.7183337,13.6565616 C63.6566194,13.6454713 63.5967566,13.6269874 63.5356594,13.6128165 C63.7553623,13.5210132 63.9800023,13.4347552 64.2009394,13.3441842 M210.013899,64.8199165 L210.263225,64.8642777 L209.662128,63.743539 C209.573259,63.5778003 209.472665,63.4059003 209.380711,63.2376971 C205.024917,52.6895681 198.609099,43.0089487 190.572048,34.5692132 C186.032962,42.2252326 178.872871,47.069239 176.187065,48.081539 L175.233579,48.4413584 L174.252322,48.1628681 C171.802265,47.4666423 167.564345,44.9429777 163.607842,41.0391842 C159.892025,43.9639487 156.334814,45.4297197 152.772048,45.5018068 C152.327088,45.5159777 151.883362,45.4691519 151.410631,45.4260229 C150.878037,45.3779648 150.328162,45.3274423 149.772734,45.3514713 C148.877877,45.3896713 148.168162,45.7920035 147.771957,46.4826842 C147.454745,47.0359681 147.452277,47.6194423 147.450425,48.1924423 C147.446722,48.8781939 147.414014,49.5177358 147.351065,50.1468035 C147.283797,50.8183842 147.173945,51.4961261 147.067797,52.1504552 C146.975225,52.7240713 146.883888,53.3038487 146.816002,53.8916358 C151.635888,54.8349294 155.843568,57.4966068 158.778082,61.2081681 C159.280437,60.6511874 159.730334,60.0578552 160.168505,59.47931 C160.772071,58.6814229 161.342311,57.9291294 162.031659,57.2729519 C162.649419,56.6845487 163.410357,56.1552939 164.145991,55.6439068 C164.366311,55.4911068 164.584162,55.339539 164.797077,55.1879713 C165.925214,54.3814584 166.900917,53.7992165 167.996345,53.5743294 C169.446631,53.2742745 171.024048,53.3716229 172.549008,53.4658906 L172.689717,53.4739003 C173.145785,53.5016261 173.611111,53.515181 174.078905,53.5268874 C175.078677,53.5546132 176.112391,53.5835713 177.049831,53.7739552 C179.606654,54.2927358 181.548802,55.1682552 182.987979,56.4547326 L183.189168,56.6327939 C183.863088,57.2273584 184.627111,57.9026358 184.564779,58.6592423 C184.531454,59.0757455 184.400619,59.4922487 184.262379,59.932781 C184.014288,60.725739 183.732254,61.623439 184.046997,62.6221842 C184.583294,64.3202358 185.808322,65.3645745 187.253054,65.3645745 L187.313534,65.3645745 C188.718151,65.3356165 190.038219,64.6498648 190.909625,64.1360132 C191.114517,64.0146358 191.315705,63.8883294 191.516894,63.7620229 C191.723637,63.6320197 191.929762,63.5020165 192.142677,63.3781745 C192.177854,63.3572261 192.214265,63.3368939 192.250677,63.3177939 C192.375339,63.3442874 192.495065,63.3584584 192.611705,63.3609229 C192.656757,63.3609229 192.700574,63.3584584 192.717237,63.3541455 C192.868437,63.3529132 193.021488,63.3368939 193.173922,63.3214906 L193.429419,63.2986939 C195.047568,63.1711552 196.720642,63.0386874 198.364094,62.9481165 C198.521465,62.9401068 198.684391,62.9376423 198.849785,62.9339455 C199.526791,62.9216229 200.294517,62.9086842 200.973374,62.5223713 C201.970677,61.9530681 202.340345,60.98821 202.501419,60.0868132 C203.008711,60.7368294 203.528345,61.3215358 204.062791,61.8452455 C207.299705,68.8863681 209.565854,76.3600132 210.701397,84.1398745 C208.651865,84.1503487 206.635042,83.9661261 204.973694,82.81951 C204.617602,82.5730584 204.275088,82.3118197 203.933191,82.0518132 C202.888985,81.2551584 201.808368,80.43201 200.400665,80.0666455 C198.718951,79.62981 196.426265,79.7474906 195.038928,81.3900906 C194.875385,81.5835552 194.732825,81.7918068 194.592117,82.0012906 C194.377351,82.3192132 194.191591,82.5946229 193.936711,82.7788455 C193.574448,83.0413165 193.064688,83.2169132 192.421008,83.3025552 C191.026265,83.4898584 189.528459,83.2181455 188.377488,82.9618358 C186.932139,82.6389842 185.542951,82.2902552 184.435797,81.5607584 C183.964299,81.2502294 183.839637,81.0339681 183.808779,80.9316906 C183.775454,80.8244842 183.803225,80.6439584 183.832848,80.4517261 L183.862471,80.2490197 C183.950722,79.6224165 184.043294,78.9748648 183.901351,78.2675487 C183.517488,76.3538519 181.774059,75.2996552 180.270082,74.9509261 C178.622928,74.5658455 176.953557,74.7679358 175.169397,75.5645906 C174.544848,75.8424648 173.950539,76.1745584 173.375362,76.4949455 C172.377442,77.0519261 171.434448,77.5781003 170.374814,77.8270165 C168.741237,78.2133294 166.966951,78.0642261 165.251294,77.9194358 L164.791522,77.8812358 C164.137968,77.8276326 163.465282,77.7814229 162.783957,77.7561616 C160.602974,91.0528423 148.326151,99.6694068 144.611568,101.044607 L143.654997,101.398881 L142.676208,101.114229 C142.169534,100.966358 141.585099,100.739007 140.943888,100.438336 C140.822311,100.618862 140.698882,100.798771 140.598288,100.987307 C139.085054,103.81842 139.352894,107.474529 141.396254,111.854591 C143.385922,116.1219 146.194539,119.279562 149.519705,120.989936 C151.482219,121.996691 153.616299,122.57462 155.692368,122.659645 C157.733259,122.740358 159.828459,122.260394 162.098928,121.180936 C162.567339,120.958513 163.028962,120.718839 163.491819,120.479165 C164.439751,119.98811 165.351888,119.519236 166.303522,119.19392 C166.158494,118.167449 166.070242,117.120645 166.063454,116.049197 C166.030745,110.670391 168.101259,105.595336 171.897305,101.759933 C175.692734,97.9232971 180.750837,95.7927229 186.138494,95.7594519 C186.179225,95.7594519 186.223042,95.7588358 186.265008,95.7588358 C191.605762,95.7588358 196.639797,97.8247165 200.450654,101.58372 C204.293602,105.372913 206.428299,110.422091 206.461008,115.802129 C206.557282,131.402516 192.193282,141.745475 188.121374,143.281484 L187.660985,143.455233 C187.391294,144.821807 186.687134,145.942545 185.931134,146.954845 L185.847202,147.066981 C184.715362,148.58081 183.431705,150.297962 183.670539,152.422991 C183.793968,153.522781 184.312368,154.512284 185.254745,155.446952 C185.354722,155.545533 185.455934,155.643497 185.555911,155.738381 C185.586768,155.768571 185.615157,155.796913 185.645397,155.826487 C166.645419,174.736104 138.851157,186.686542 107.931682,186.686542 C106.491888,186.686542 105.060734,186.654504 103.635134,186.602749 C103.332734,185.7032 102.520574,184.95522 101.326402,184.568907 C100.962905,184.451226 100.590768,184.388381 100.230974,184.328 C99.5909966,184.220178 99.0380366,184.127142 98.6584937,183.769787 C98.1857623,183.323094 97.8784251,182.525823 97.8154766,181.579449 C97.7772137,181.01261 97.7821509,180.453165 97.7877051,179.859833 C97.795728,178.979384 97.8031337,178.068129 97.6568709,177.1464 C97.393968,175.4847 96.5058994,174.208697 95.6715223,173.180378 L95.4771223,172.9444 C94.892688,172.243862 94.4946309,171.709678 94.6847109,171.200755 C95.0259909,170.284571 96.2417623,169.571094 97.1292137,169.048616 C98.1160251,168.468839 99.1509737,167.902 100.151979,167.354262 C104.342997,165.058565 108.677191,162.682771 111.396322,158.420391 C112.218357,157.130833 112.800322,155.752552 113.080505,154.435268 C113.342174,153.205475 113.321191,151.993549 113.300825,150.821055 L113.291568,150.247439 C113.277991,149.054613 113.402654,148.216062 114.065465,147.72131 C114.609168,147.315897 115.386151,147.150775 116.135362,147.016458 C116.954928,146.869204 117.816459,146.802045 118.649602,146.737352 C119.861671,146.641852 121.115705,146.544504 122.341968,146.203784 C125.137008,145.428078 126.932894,143.375136 127.146425,140.710378 C127.240231,139.542197 127.037808,138.397429 126.842791,137.292094 C126.799591,137.043794 126.755157,136.79611 126.715659,136.549042 C126.489168,135.154742 126.581122,133.90092 126.997077,132.715487 C127.405008,131.555316 128.164094,130.578136 128.966997,129.543039 C129.886539,128.360071 130.836322,127.136439 131.262151,125.583178 C132.069374,122.635616 130.754859,119.783555 128.136939,118.800829 C127.786402,118.669594 127.442037,118.58272 127.137785,118.508168 C126.320688,118.303613 125.878814,118.169913 125.561602,117.568571 C125.435705,117.330129 125.319682,117.089223 125.204894,116.851397 C124.803134,116.014694 124.387797,115.150881 123.589214,114.451575 C121.583499,112.699304 118.916208,112.826842 116.564277,112.94021 L116.116848,112.960542 C113.650745,113.067749 111.451865,112.467023 109.375797,111.120781 C108.347019,110.452897 107.434882,109.623587 106.664688,108.657497 C106.488802,108.436923 106.317237,108.2145 106.146905,107.99331 C105.434105,107.066652 104.696002,106.108571 103.662288,105.359975 C102.151522,104.266345 100.380939,103.880033 98.668368,103.506042 C97.8234994,103.32182 97.0255337,103.147455 96.2559566,102.892994 C95.3135794,102.583081 94.560048,102.0643 93.8133051,101.212194 C93.6695109,101.047071 93.5288023,100.882565 93.3880937,100.717442 C92.7437966,99.9620681 92.0778994,99.1820487 91.1929166,98.572081 C90.0709509,97.7982229 88.6379451,97.4482616 87.0463337,97.5480745 C86.6118651,97.5770326 86.1699909,97.6441906 85.742928,97.7101165 C84.9054651,97.8388874 84.1149051,97.9621132 83.3959337,97.8056165 C82.744848,97.6645229 82.2819909,97.0268294 81.7919794,96.3515519 C81.6296709,96.1278971 81.470448,95.9097874 81.3087566,95.7126261 C80.4521623,94.6744487 79.3024251,93.8728648 77.8904023,93.3325197 C76.6351337,92.8525552 75.2082994,92.660939 73.8765051,92.78971 C72.497808,92.9258745 71.2629051,93.4169294 70.0693509,93.8907326 L69.6774651,94.0472294 C68.9720709,94.3288003 68.3049394,94.5962003 67.607568,94.7391423 C66.9219223,94.8820842 65.6901051,94.8050681 65.0291451,94.7631713 C63.8590423,94.6910842 63.0388594,94.4970035 62.3056937,93.7280745 C61.7095337,93.1027035 61.3194994,92.2351939 61.2349509,91.3479681 C61.1979223,90.951181 61.2189051,90.4866197 61.2411223,89.9955648 C61.2904937,88.9099455 61.3454194,87.6807681 60.7591337,86.7072842 L60.483888,86.3382229 C59.7723223,85.5655971 58.6022194,85.4109487 57.4314994,85.9716261 C56.8618766,86.2458035 56.3607566,86.6093197 55.8756823,86.9605132 C55.7115223,87.0781939 55.5479794,87.1977229 55.3813509,87.3117068 C55.369008,87.3203326 55.3578994,87.3289584 55.3461737,87.3369681 C55.3998651,87.2519423 55.4529394,87.1663003 55.5035451,87.0781939 C56.107728,86.0350874 56.2688023,85.0449681 55.9818309,84.1337132 C55.5664937,82.8207423 54.2970309,81.9858874 52.4999109,81.8423294 C50.1183566,81.6550261 47.9614423,82.8078035 46.0526194,83.8256487 L45.5761851,84.0782616 C44.1493509,84.8342519 42.1942423,85.8681165 40.9420594,84.7461455 C39.6935794,83.6260229 40.0434994,81.7874939 42.0430423,78.9569971 C43.2008023,77.3193261 45.1343109,75.1758132 47.7719794,74.2651745 C49.9190194,73.5215068 52.1925737,73.6545906 53.8520709,74.6212971 C54.8098766,75.1807423 55.3801166,76.1326616 55.9842994,77.1412648 C56.6619223,78.2730939 57.3629966,79.4443552 58.6688709,80.1732358 C60.1938309,81.0228777 61.9989737,81.0998939 63.3776709,80.37471 C64.6026994,79.7296229 65.352528,78.5503519 65.4889166,77.0543906 C65.5395223,76.49741 65.503728,75.9570648 65.4697851,75.4345874 C65.4309051,74.8474165 65.3951109,74.2935165 65.4790423,73.7556358 C65.6253051,72.8246648 66.0208937,71.8856842 66.6911109,70.886939 C69.1232709,67.2622519 73.3328023,65.3368487 77.4040937,63.4755229 C78.1452823,63.1360358 78.8778309,62.8014777 79.5887794,62.4607584 C81.7827223,61.4090261 84.3315223,60.0843487 86.5958194,58.2248713 C88.6780594,56.5163455 89.9987451,54.4079519 91.3959566,52.1757165 L91.4768023,52.0469455 C93.0171909,49.5873584 94.611888,48.3384648 96.8101509,47.8689745 C98.7004594,47.46541 100.727774,47.54181 102.687202,47.6151294 C103.402471,47.6416229 104.114037,47.6681165 104.818814,47.6724294 C107.154699,47.6859842 111.504939,47.7211035 112.318951,43.9540906 C113.065077,40.4969906 110.357054,37.3491874 109.509099,36.4656584 C107.463271,34.3357003 104.571339,33.1742971 101.770745,33.3739229 C100.160002,33.4860584 98.7226766,33.956781 97.6136709,34.7324874 C96.9082766,35.2260068 96.3145851,35.8181068 95.7406423,36.3898745 C95.4678651,36.6615874 95.195088,36.9351487 94.909968,37.1963874 C94.1768023,37.8661197 93.6941966,38.03001 93.1264251,37.8051229 C92.6703566,37.6233648 92.2432937,37.3344003 91.7921623,37.0275681 C91.371888,36.7423003 90.9380366,36.4477906 90.4511109,36.2222874 C89.0162537,35.5593326 87.5283223,35.5488584 86.2594766,36.1927132 C85.0406194,36.8119229 84.2981966,37.9505294 83.6440251,38.9542035 L83.5205966,39.1433552 C82.831248,40.1963197 82.045008,40.8654358 81.1840937,41.1285229 C80.5138766,41.3355423 79.5431109,41.2357294 79.2252823,40.7631584 C79.1598651,40.6664261 79.1913394,40.508081 79.2728023,40.1926229 C79.2999566,40.0866487 79.3271109,39.9794423 79.3480937,39.8734681 C79.5141051,39.04231 79.6146994,38.14461 79.2289851,37.2154874 C78.7797051,36.1360294 77.8348594,35.351081 76.567248,35.007281 C75.7489166,34.7842423 74.912688,34.7522035 74.104848,34.7195487 C73.8690994,34.7096906 73.633968,34.7004487 73.4019223,34.6868939 L73.2371451,34.6776519 C72.3731451,34.6314423 71.8954766,34.5199229 71.8158651,34.3455584 C71.8140137,34.3406294 71.6257851,33.8785326 72.8656251,32.5076455 C73.6006423,31.6968197 74.5633851,30.8786003 75.7260823,30.0770165 C76.9585166,29.2261423 78.0459223,28.7252294 79.1475223,28.49911 C80.4429051,28.2347906 81.8524594,28.4405777 82.9355451,28.6506777 C83.5255337,28.7652777 84.1149051,28.8965132 84.7048937,29.028981 C86.9796823,29.535439 89.3309966,30.0609971 91.7637737,29.6278584 C94.3347909,29.1731552 96.253488,27.539181 98.1080023,25.9575777 L98.2703109,25.8195648 C99.8977166,24.4345068 101.704094,23.2201165 103.888779,23.6976165 C106.257991,24.2188616 108.226677,25.8663906 110.129945,27.4609326 L110.584779,27.8410842 C111.671568,28.7449455 112.997808,29.6629777 114.627065,29.6629777 C114.666562,29.6629777 114.706059,29.6617455 114.745557,29.6617455 C116.139065,29.6235455 117.406677,28.943339 118.313259,27.7462003 C119.858585,25.7098939 120.249854,22.5885842 119.224779,20.4857358 C118.581099,19.1672197 117.311637,18.3089519 115.741008,18.1333552 C115.439842,18.0994681 115.146699,18.0970035 114.862197,18.0939229 C114.520917,18.0902261 114.198768,18.0865294 113.900688,18.0310777 C113.432277,17.9442035 112.964482,17.7353358 112.382517,17.3545681 C111.792528,16.9694874 111.252528,16.5197132 110.681054,16.0428294 C110.287317,15.7132003 109.880002,15.3743294 109.455408,15.0588713 C108.342082,14.2307939 107.098539,13.6220584 105.758722,13.2511487 C102.606357,12.3774777 99.4706537,12.9036519 97.3952023,13.4994487 C96.0195909,13.8937713 94.6520023,14.4476713 93.3313166,15.1451294 C92.7746537,15.4390229 92.2457623,15.7797423 91.7341509,16.108139 C91.095408,16.518481 90.4924594,16.9060261 89.8432251,17.2091616 C89.0495794,17.5800713 87.9917966,17.7581326 87.5943566,17.3570326 C87.4851223,17.2467455 87.4369851,16.8974003 87.4030423,16.6423229 C87.3894651,16.54251 87.3765051,16.4463939 87.3604594,16.3570552 C87.2530766,15.7372294 87.0852137,15.0157423 86.6550651,14.3558681 C85.9607794,13.2924294 84.8634994,12.68431 83.5631794,12.64611 C82.2320023,12.6171519 80.7854194,13.1679713 79.7270194,14.0995584 C79.7455337,13.98311 79.7584937,13.863581 79.7665166,13.7422035 C79.8165051,12.9634165 79.6072937,12.1766197 79.176528,11.5247552 C78.5612366,10.5956326 77.4676594,10.4773358 76.6227909,10.3861487 C75.5267451,10.2660035 74.294928,10.4015519 72.9612823,10.7841681 C72.4089394,10.9437455 70.9592709,11.1378261 69.4460366,11.34731 C81.3507223,7.15023903 94.3366423,4.83112935 107.931682,4.83112935 C124.879042,4.83112935 140.887111,8.42316161 155.023385,14.7828455 C155.447979,13.4057971 156.021922,12.0805035 156.734722,10.8242165 C142.070791,4.23594871 125.485077,0.518226129 107.931682,0.518226129 C86.969808,0.518226129 67.3866309,5.82248097 50.8095566,14.9843197 C55.0641394,18.6847906 57.7616709,24.1264423 57.7616709,30.1891519 C57.7616709,45.7926197 43.3347223,56.046239 39.2523223,57.5569874 L38.2957509,57.9112616 L37.3175794,57.62661 C33.2302423,56.4387132 24.1921851,50.1289358 19.824048,40.8124487 C14.9029509,46.9386197 10.7798194,53.5971261 7.59165943,60.6702874 L7.088688,61.8206003 C2.51442514,72.3687294 0.000185142857,83.8090132 0.000185142857,95.7582197 C0.000185142857,148.27521 48.418128,190.999445 107.931682,190.999445 C167.445854,190.999445 215.863797,148.27521 215.863797,95.7582197 C215.863797,84.9328326 213.801305,74.5245648 210.013899,64.8199165" id="Fill-31" fill="#778F99" mask="url(#mask-2)"></path>
                </g>
            </g>
        </g>
    </g>
</svg>