<?xml version="1.0" encoding="utf-8"?>
<!-- Generator: Adobe Illustrator 24.0.1, SVG Export Plug-In . SVG Version: 6.00 Build 0)  -->
<svg version="1.1" id="Camada_1" xmlns="http://www.w3.org/2000/svg" xmlns:xlink="http://www.w3.org/1999/xlink" x="0px" y="0px"
	 viewBox="0 0 432.3 130" style="enable-background:new 0 0 432.3 130;" xml:space="preserve">
<style type="text/css">
	.st0{fill:#231F20;}
	.st1{fill-rule:evenodd;clip-rule:evenodd;fill:#0079FF;}
	.st2{fill-rule:evenodd;clip-rule:evenodd;fill:#004FFF;}
	.st3{fill-rule:evenodd;clip-rule:evenodd;fill:#47B6FF;}
	.st4{clip-path:url(#SVGID_2_);}
	.st5{fill:#0079FF;}
</style>
<title>Group 32</title>
<desc>Created with Sketch.</desc>
<g>
	<path class="st0" d="M427.2,57.4c-0.9-16.2-17.8-13.6-29.6-15.6c5-15.7-1.8-21.6-18.7-23.9C267.3,3,163.8,0.8,49.6,19
		c-15.7,2.5-17.7,7.9-12.8,22.9c-8.7,2.6-33.4,1.5-31.5,15.6C5,63.3,21.3,75.6,21.8,83c-1.5,7.7-5.4,15.5-5.3,23.9
		c0,17.1,15.4,13,26.3,11.6c15.5-2,31.3-4.6,47.2-5.9c12.8-1.1,10-11.8,10-11.8c39.3-2.9,77.4-5.2,116.2-5.3
		c65.8-0.2,123.3,5.1,123.3,5.1c1.6,16.2,10.2,13,33.9,15.8c29.6,3.5,41.2,7,42.6-4.6c0.9-7.4-3.7-20.9-5.3-28.8
		C413.6,74.7,426.7,67,427.2,57.4z"/>
	<path class="st1" d="M375.2,46.9c12.7,1.2,18.6,1.1,38.5,3.7c3.4,0.4,5.1,4.3,3.1,7.1l-13.9,20c-0.7,1-1-0.6-0.7,0.6l5.9,27.3
		c0.6,3-1.8,5.7-4.8,5.4c-16.9-1.7-37.6-5.3-52.6-7c-8.9-1,7.7-34.1,14.6-51.1C367,49,371,46.5,375.2,46.9"/>
	<g>
		<path class="st1" d="M59.1,46.9c-12.7,1.2-21.1,1.1-40,6.5c-3.3,0.9-5.1,4.3-3.1,7.2l13.9,17.3c0.7,1,1,2.3,0.7,3.5l-5.8,24.7
			c-0.6,3,1.9,5.7,4.8,5.4c24.2-2.4,35.8-6.4,54-6.4c9,0-7.8-35.1-14.7-52.2C67.4,49,63.4,46.5,59.1,46.9"/>
		<path class="st2" d="M70.4,53c-1.6-4-5.7-8.1-10-7.7c-5.9,0.5-14.8,3.1-24.7,4.1c1.8,5.9,3.5,11.8,5,17.7
			C44.8,83.4,49,92,52.5,108.4c13-1.3,28.2-3.2,32.8-3.2C94.3,105.2,77.3,70,70.4,53"/>
		<path class="st3" d="M30.6,79.6L15.2,59.3c-1.9-2.8-0.2-6.6,3.1-7.1c12.9-2,21.3-3.8,28-4.3c0.6,1.1,1.2,3.8,1.8,4.8
			c-5.4,0.5-8.9,1.1-21.9,2.7c-3.4,0.4-5.1,4.3-3.1,7.1l9.1,16.8c0.7,1,0.2,1.9,0,2.5c0,0-7.1,23.1-6.9,22.3
			C25.3,104.2,31.3,80.6,30.6,79.6z"/>
	</g>
	<g>
		<defs>
			<path id="SVGID_1_" d="M365.7,53.6c1.7-4,7.1-7.1,11.5-6.7c5.9,0.5,13.5,2.1,23.4,3.1c-1.8,5.8-16.1,58.7-16.1,58.7
				c-16.7-2-28.8-4.3-33.4-4.3C342,104.4,358.7,70.4,365.7,53.6"/>
		</defs>
		<use xlink:href="#SVGID_1_"  style="overflow:visible;fill-rule:evenodd;clip-rule:evenodd;fill:#004FFF;"/>
		<clipPath id="SVGID_2_">
			<use xlink:href="#SVGID_1_"  style="overflow:visible;"/>
		</clipPath>
		<g class="st4">
			<defs>
				<polyline id="SVGID_3_" points="-43.3,-8.1 -43.3,153.7 432.2,153.7 				"/>
			</defs>
			<use xlink:href="#SVGID_3_"  style="overflow:visible;fill:#004FFF;"/>
			<clipPath id="SVGID_4_">
				<use xlink:href="#SVGID_3_"  style="overflow:visible;"/>
			</clipPath>
		</g>
	</g>
	<path class="st1" d="M42.2,34.5l17,56c0.8,3.2,4.2,5.3,7.9,4.9c32-3.3,177.6-16.7,300.6-0.3c3.8,0.5,7.4-1.7,8.2-5l15-55.8
		c0.8-3.6-2-7-6.1-7.6c-40.5-6.2-178.2-24.1-336.6,0C44.1,27.3,41.3,30.8,42.2,34.5"/>
	<g>
		<defs>
			<path id="SVGID_5_" d="M85.5,105.1c0,0,0.6-2.5-2.9-4.5c-4.6-2.6-15.8-5.2-15.7-5.2c16.5-1.5,22.8-2.1,22.8-2.1l-1,8.4
				C88.6,101.7,88.2,105.4,85.5,105.1"/>
		</defs>
		<use xlink:href="#SVGID_5_"  style="overflow:visible;fill-rule:evenodd;clip-rule:evenodd;fill:#003ABC;"/>
		<clipPath id="SVGID_6_">
			<use xlink:href="#SVGID_5_"  style="overflow:visible;"/>
		</clipPath>
	</g>
	<g>
		<defs>
			<path id="SVGID_7_" d="M350.9,104.4c0,0-0.8-3.1,2.6-5.2c4.5-2.7,14.5-4.2,14.4-4.2c-15.9-2-20.5-2.5-20.5-2.5l0.3,7.8
				C347.6,100.3,347.3,104.7,350.9,104.4"/>
		</defs>
		<use xlink:href="#SVGID_7_"  style="overflow:visible;fill-rule:evenodd;clip-rule:evenodd;fill:#003ABC;"/>
		<clipPath id="SVGID_8_">
			<use xlink:href="#SVGID_7_"  style="overflow:visible;"/>
		</clipPath>
	</g>
	<g>
		<g>
			<path class="st5" d="M262.8,64C262.9,64,262.9,63.9,262.8,64C262.8,63.9,262.8,64,262.8,64L262.8,64z"/>
		</g>
	</g>
	<path class="st3" d="M42.2,34.5l17,56c0.8,3.2,4.2,5.3,7.9,4.9c32-3.3,177.6-16.7,300.6-0.3c3.8,0.5,7.4-1.7,8.2-5l15-55.8
		c0.8-3.6-2-7-6.1-7.6c-40.5-6.2-178.2-24.1-336.6,0C44.1,27.3,41.3,30.8,42.2,34.5"/>
	<g>
		<path class="st1" d="M48.2,40.9l12.3,49.6c0.8,3.2,4.2,5.3,7.9,4.9c32-3.3,176-16.7,299.1-0.3c3.8,0.5,6.9-2.6,7.5-6.7l9.4-49.2
			c0.8-3.6-2-7-6.1-7.6c-40.5-6.2-168.7-24.1-327.1,0C46.9,32.2,47.3,37.3,48.2,40.9"/>
	</g>
	<path class="st3" d="M416.8,57.7c1.9-2.8,0.2-6.7-3.1-7.1C401,49,394,48.4,387.3,47.9c-0.6,1.1-1.2,2.2-1.8,3.2
		c5.4,0.5,8.9,1.1,21.9,2.7c3.4,0.4,7.2,2,4.7,7.1l-10.6,17.4c0.2,1,6.2,25.4,6,24.6l-4.4-24.2c0-0.2,0-0.4,0.1-0.6L416.8,57.7z"/>
</g>
</svg>
